<svg width="110" height="119" viewBox="0 0 110 119" fill="none" xmlns="http://www.w3.org/2000/svg">
<path d="M76.4224 10.5942C77.364 10.3305 78.3118 10.4464 79.1685 10.8745L80.5356 11.5591C80.5409 11.5573 80.5469 11.5556 80.5532 11.5532L82.188 10.9507L82.3901 10.8833C82.8711 10.7352 83.4191 10.6692 83.9966 10.7808C84.5868 10.8949 85.0867 11.1713 85.4878 11.5308L85.6538 11.6899L86.7583 12.8208C87.2702 13.3451 87.691 13.9381 88.0024 14.5972L88.6392 15.9458C88.811 16.3095 89.0075 16.6581 89.228 16.9907L90.0493 18.228C90.4902 18.8928 90.7073 19.6387 90.6987 20.4126C89.3888 20.1428 88.0319 20.0015 86.6421 20.0015C86.59 20.0015 86.5379 20.002 86.4858 20.0024L85.937 19.1743C85.6108 18.6824 85.3206 18.1683 85.0679 17.6333L84.4312 16.2847C84.318 16.0452 84.1575 15.8104 83.9331 15.5806L83.1694 14.7983L81.9185 15.2593C80.9166 15.6281 79.8357 15.623 78.8247 15.1177L77.4243 14.4175L76.2729 14.8022L75.8696 15.9907C75.5855 16.8257 75.0825 17.527 74.4272 18.0874L73.1938 19.1421C73.0713 19.2469 73.049 19.3129 73.0376 19.3599L72.686 20.8149C72.5463 21.393 72.3653 21.9547 72.144 22.4976L71.5952 23.8452C71.5407 23.9789 71.4813 24.1164 71.4194 24.2427C71.3775 24.3282 71.2639 24.5587 71.0815 24.7788C71.025 24.847 70.735 25.2058 70.2104 25.3979C69.893 25.5142 69.437 25.5863 68.9341 25.4302C68.439 25.2763 68.1152 24.9689 67.9302 24.7222C67.619 24.307 67.5589 23.8843 67.5454 23.7954C67.5349 23.7259 67.5287 23.66 67.5249 23.6021L66.1558 22.8999C65.0513 22.333 64.2989 21.3201 64.2251 19.9907L64.1353 18.3892L63.0181 17.5708C62.4912 17.1851 61.9976 16.7396 61.5366 16.2417L60.7827 15.4272L59.6128 15.9624C58.4441 16.4962 57.1986 16.3981 56.1274 15.6968L54.9429 14.9204L53.9185 15.6108C53.6909 15.7641 53.5672 15.9153 53.4917 16.0571L52.7661 17.4224C52.5866 17.7598 52.4507 18.0972 52.354 18.4351L51.9448 19.8638C51.7141 20.6699 51.2896 21.3782 50.73 21.9849L49.6196 23.186L49.731 24.7065C49.7761 25.3279 49.7771 25.9528 49.7339 26.5796L49.6431 27.8833L50.895 28.77C51.7965 29.4084 52.406 30.3469 52.5132 31.5142L52.6606 33.1216C52.6857 33.3952 52.757 33.6076 52.8579 33.7847L53.6079 35.0991C53.7061 35.2712 53.8368 35.4157 54.022 35.5425L55.3003 36.4175C55.8472 36.7916 56.344 37.2199 56.7837 37.7036L57.7788 38.7993C58.2266 39.292 58.6074 39.8398 58.9233 40.4351L59.6519 41.8062C59.7532 41.9971 59.8745 42.1302 60.022 42.2339L61.2534 43.0991C61.5378 43.2989 61.8578 43.4748 62.2173 43.6226L63.6812 44.2241C64.6323 44.615 65.3569 45.3134 65.7905 46.2388L66.4702 47.689C66.5445 47.8474 66.6207 47.918 66.6987 47.9663L67.979 48.7573C68.1937 48.8899 68.4759 49.071 68.6987 49.271C68.7214 49.2914 68.7481 49.3171 68.7778 49.3462L68.9077 49.2534C69.5221 50.4286 70.2501 51.5347 71.0767 52.5581L70.4937 52.9722C69.8079 53.459 68.6826 53.932 67.4653 53.3735L66.5454 52.9517C66.4125 52.8906 66.0856 52.7418 65.813 52.5181C65.7333 52.4527 65.5705 52.3108 65.4185 52.0923C65.3619 52.011 65.2747 51.8706 65.1997 51.6821L64.6235 51.3267C63.849 50.8481 63.2723 50.1711 62.894 49.3638L62.2144 47.9146C62.2074 47.8997 62.2009 47.8902 62.1978 47.8853C62.1937 47.8832 62.1878 47.8796 62.1802 47.8765L60.7153 47.2749C60.0988 47.0215 59.5192 46.7073 58.9829 46.3306L57.7515 45.4663C57.0784 44.9934 56.5462 44.3805 56.1626 43.6577L55.4351 42.2856C55.2661 41.9673 55.0724 41.6927 54.8569 41.4556L53.8608 40.3599C53.6373 40.114 53.3757 39.8859 53.0708 39.6772L51.7925 38.8022C51.1256 38.346 50.5789 37.7603 50.1772 37.0562L49.4272 35.7407C49.0287 35.0416 48.8011 34.2793 48.728 33.4819L48.5894 31.9761L47.1753 30.9751C46.1976 30.2826 45.5936 29.2114 45.6831 27.9146L45.7935 26.3081C45.8241 25.8643 45.824 25.4254 45.7925 24.9927L45.6772 23.4116C45.5974 22.3118 45.9749 21.3145 46.7007 20.5278L47.8267 19.3071C48.0176 19.1001 48.106 18.9243 48.1479 18.7778L48.5571 17.3481C48.733 16.7337 48.9745 16.139 49.2788 15.5669L50.0054 14.2026C50.4139 13.4347 51.0024 12.8141 51.7134 12.3354L53.1216 11.3872L53.3198 11.2632C53.7947 10.9868 54.3536 10.8098 54.9741 10.8198C55.672 10.8312 56.2795 11.0759 56.77 11.397L58.1392 12.2944L59.6187 11.6187L59.8257 11.5308C60.3224 11.338 60.9089 11.2318 61.5405 11.3423C62.2763 11.4711 62.8589 11.8569 63.2856 12.3179L64.4351 13.5591C64.7399 13.8884 65.0464 14.1612 65.3511 14.3843L66.5991 15.2974C67.5405 15.9864 68.014 16.9926 68.0747 18.0825L68.1519 19.4849L68.856 19.8462L69.1987 18.4321C69.422 17.509 69.9285 16.7378 70.6274 16.1401L71.8599 15.0854C72.0261 14.9432 72.0949 14.8234 72.1304 14.7192L72.6099 13.3101L72.6821 13.1138C73.0695 12.1543 73.8196 11.4597 74.8062 11.1294L76.2339 10.6519L76.4224 10.5942Z" fill="#6140D2"/>
<path d="M84.6411 28C84.6411 26.8954 85.5365 26 86.6411 26C87.7457 26 88.6411 26.8954 88.6411 28V28.125L88.6255 29.5781C88.6106 30.597 88.5232 31.5479 88.2974 32.3125L88.063 33.0625L87.8442 33.8125V33.8438C87.8476 33.8546 87.8646 33.8672 87.8755 33.8906L88.2192 34.6406L88.5786 35.3906C88.9301 36.1354 89.0275 36.9366 88.8911 37.7344C89.616 37.6547 90.3375 37.7202 91.0317 37.9531L91.7817 38.2031L92.5161 38.4375C92.5226 38.4357 92.5409 38.4475 92.563 38.4375L93.313 38.0938L94.063 37.7656L94.8442 37.5C95.6302 37.3255 96.4369 37.4073 97.2036 37.75L97.7505 38H98.6411C99.6924 38 100.529 38.8131 100.61 39.8438L100.641 39.9531V40.4375C100.641 40.9162 100.466 41.4937 99.9849 41.9375C99.5629 42.3241 99.0929 42.437 98.8599 42.4688C98.4382 42.5251 98.0841 42.4353 97.9692 42.4062C97.6684 42.3299 97.3426 42.1964 97.0786 42.0781L96.3286 41.7344L95.6411 41.4219L94.9692 41.7344L94.2192 42.0781C93.2795 42.5048 92.2515 42.5859 91.2505 42.25L90.5005 42L89.7505 41.7344C89.5627 41.6723 89.4023 41.6751 89.2505 41.7031L87.7505 41.9844C87.7303 41.9881 87.7082 41.9809 87.688 41.9844L87.5786 42.625C87.5109 42.9887 87.4767 43.3464 87.4849 43.7031L87.5161 45.2031C87.5227 45.4875 87.5795 45.7918 87.688 46.1094L87.938 46.8594L88.2036 47.6094C88.3713 48.1026 88.4227 48.6118 88.438 49.125L88.6411 49.0625V52C88.6411 53.0513 87.828 53.8881 86.7974 53.9688L86.7036 54H86.2192C85.0297 53.9991 84.474 53.1 84.313 52.7031C84.1667 52.3378 84.1447 51.9915 84.1411 51.8594C84.1334 51.5444 84.1759 51.2095 84.2192 50.9375L84.4692 49.4375C84.4953 49.2742 84.4767 49.0955 84.4067 48.8906L84.1567 48.1406L83.8911 47.3906C83.6597 46.7107 83.5326 46.0096 83.5161 45.2969L83.4849 43.7969C83.47 43.1556 83.5223 42.5093 83.6411 41.875L83.6724 41.6719C83.3032 41.6094 82.9322 41.5454 82.563 41.4844L81.063 41.2344C80.7239 41.1785 80.3815 41.1757 80.0474 41.2031L79.2974 41.25L78.5474 41.3125C78.1772 41.3434 77.5493 41.4577 76.6099 41.6562L75.1567 41.9531L74.9536 42H74.6411C73.5365 42 72.6411 41.1046 72.6411 40C72.6411 38.9976 73.3823 38.1919 74.3442 38.0469H74.3286L75.7817 37.7344C76.7661 37.5264 77.6056 37.3797 78.2349 37.3281L79.7349 37.2031C80.3974 37.1494 81.0616 37.1881 81.7192 37.2969L83.2192 37.5469C83.7132 37.6286 84.2096 37.6971 84.7036 37.7812L84.9536 37.1094L84.6099 36.3594L84.2505 35.6094C83.8191 34.6954 83.7207 33.6872 84.0161 32.6875L84.4536 31.1875C84.5231 30.9534 84.6122 30.4268 84.6255 29.5156L84.6411 28.0781V28Z" fill="#6140D2"/>
<path d="M59.1045 100.841C57.5687 101.071 57.9488 100.253 56.574 99.5103C55.1988 98.7673 54.8619 99.3883 53.4934 98.6435C52.1257 97.899 52.4217 97.3557 51.0534 96.6111C49.6853 95.8666 49.5661 96.0923 48.1983 95.348C46.8301 94.6035 46.9671 94.3541 45.5994 93.6097C44.231 92.865 44.0944 93.1096 42.7302 92.3673C41.366 91.6251 41.6148 91.1626 40.2463 90.4179C38.8785 89.674 38.3472 90.4943 37.1001 89.6102C35.8525 88.7254 36.2731 88.5318 35.3877 86.9206C34.9613 86.1416 33.2861 84.786 32.8468 83.7503C32.4751 82.8668 30.9923 81.2217 30.6985 80.2018C30.6746 80.1192 30.6821 80.0438 30.6995 79.9726C30.1899 79.3165 29.7863 78.3957 29.6499 77.2855C28.6822 76.7781 27.1459 74.7969 26.4273 74.1308C25.643 73.4017 25.2419 72.3156 24.7087 71.4677C24.1395 70.5688 24.0655 69.4963 23.7319 68.5457C23.3776 67.5289 22.3648 66.7045 22.204 65.7319C22.0232 64.61 21.9152 63.4961 21.901 62.5821C21.8698 60.7445 22.7583 61.0766 22.9313 59.535C23.0821 58.1548 22.6757 58.2321 23.4963 56.9416C23.9298 56.2636 24.5285 55.6062 25.4692 55.1248C26.1759 54.7673 27.02 54.6384 28.1013 54.5806C29.0866 54.5265 30.1166 54.4491 30.8536 55.0579C31.5263 55.6086 31.6934 56.7353 32.1858 57.6008C32.6362 58.3962 33.5689 59.0382 33.8853 59.9163C34.2251 60.8545 33.7969 61.998 33.9976 62.8182C34.1065 63.2607 35.2646 64.6009 36.8795 66.3332C37.0379 66.0419 37.2007 65.744 37.3897 65.4609L37.32 65.4006C37.7123 63.9771 37.8056 64.3811 38.3606 62.6262C38.6116 61.8246 38.9862 60.8963 39.3464 59.8462C39.6429 58.9853 40 58.0615 40.3635 57.0749C40.6901 56.1917 40.6394 55.1066 41.0164 54.1561C41.3655 53.2639 41.7592 52.3126 42.1439 51.4183C42.5288 50.5235 43.3199 49.7773 43.7312 48.8864C44.1423 47.9957 44.2978 46.9742 44.7481 46.0947C45.1987 45.2151 45.6498 44.3462 46.1397 43.478C46.6295 42.6099 47.4698 42.0066 48.0203 41.1623C48.5709 40.3178 49.0654 39.463 49.6467 38.7042C50.2642 37.8926 50.6775 36.9286 51.3299 36.245C52.0413 35.4992 53.0245 35.0855 53.7719 34.5249C54.6002 33.9036 55.5197 33.6176 56.3945 33.2725C57.3379 32.8985 58.1945 32.072 59.1807 32.08C60.4572 32.0913 61.3923 32.7624 62.0814 33.2453C62.9264 33.8352 63.8712 34.6512 64.0085 35.7625C64.1204 36.6494 63.1455 37.6416 62.9146 38.7556C62.7256 39.6783 62.8263 40.7461 62.4593 41.7587C62.1287 42.6789 62.1866 43.8689 61.7675 44.7834C61.3482 45.6981 60.5425 46.4466 60.0637 47.3552C59.5849 48.2639 59.1616 49.2049 58.6657 50.0639C58.1353 50.9824 57.3158 51.6894 56.8137 52.4995C56.2214 53.4557 55.4355 54.1707 54.9532 54.907C53.933 56.4553 52.0935 57.6092 53.5614 57.9019C55.0304 58.1944 54.2743 56.3518 55.6502 55.4057C56.4111 54.8813 57.7285 55.1199 58.6865 54.7208C59.6445 54.3213 60.4667 53.8981 61.4284 53.9486C62.39 53.9992 63.4395 54.0379 64.2138 54.8591C65.0591 55.7553 65.2785 56.8345 65.4686 57.7549C65.7035 58.8658 65.6598 59.9249 65.3818 60.853C65.1696 61.5561 65.1575 62.0886 65.0959 62.494C65.3852 62.2916 65.6684 62.0752 65.896 61.8534C66.4893 61.272 66.9398 60.4158 67.82 60.0905C68.603 59.8055 69.4717 59.7793 70.4503 59.9984C71.2057 60.1681 72.0564 60.4315 72.9088 61.0484C73.7608 61.665 74.1845 62.4086 74.5434 63.0466C75.0318 63.907 75.3866 64.7135 75.262 65.5148C75.1193 66.3962 74.2452 66.9586 73.7794 67.6364C73.7408 67.6928 73.7074 67.7534 73.6727 67.8143C73.7672 67.7378 73.8612 67.6619 73.9481 67.5804C74.5612 67.0046 75.3964 66.3521 76.2077 65.9983C77.0189 65.6446 78.1064 65.2695 79.0354 65.4653C79.7958 65.6265 80.1647 66.8146 80.9501 67.5572C81.6997 68.262 82.4366 68.6924 82.6116 69.5697C82.7863 70.4473 83.11 71.4738 82.8728 72.3911C82.6425 73.2562 82.1028 74.1311 81.6719 74.937C81.2183 75.792 80.53 76.5004 80.0445 77.1726C79.1196 78.4474 79.1905 78.2446 78.2796 79.2667C77.3074 80.3554 77.618 80.6197 76.6607 81.7225C75.7032 82.8254 75.2822 82.4638 74.3272 83.5624C73.3722 84.661 73.5349 84.8061 72.5842 85.9072C71.6336 87.0082 71.7492 87.1035 70.7923 88.2058C69.8348 89.3087 69.5409 89.0552 68.5859 90.1537C67.631 91.2522 67.9521 91.5287 67.0018 92.6295C66.051 93.7306 66.2194 93.8745 65.2619 94.9774C64.3048 96.0797 64.1145 95.9136 63.1598 97.0118C62.2047 98.1105 62.1291 98.0448 61.1783 99.1459C60.2275 100.247 60.5492 100.62 59.1045 100.841Z" fill="#CEC2F5"/>
<path d="M21.4297 55.2575C21.9783 54.2848 22.8074 53.2586 24.1589 52.5323L24.1675 52.5272C25.2992 51.9266 26.5417 51.8071 27.6947 51.7772L27.6951 51.7786C28.4547 51.7573 30.4199 51.575 31.8919 52.9195L31.8923 52.9208C32.6105 53.5751 32.9728 54.4384 33.1797 54.9586C33.4477 55.6326 33.5437 55.9546 33.7328 56.3053L33.7344 56.3084C33.8573 56.5372 34.043 56.7497 34.4654 57.265C34.8093 57.6846 35.3458 58.3532 35.6487 59.2055C35.9807 60.1372 35.9449 61.0719 35.9222 61.6186C35.9085 61.9465 35.8973 62.1441 35.8982 62.3457C35.8986 62.4342 35.9015 62.4988 35.9059 62.5452C35.9092 62.5789 35.9112 62.5976 35.9125 62.6042L35.9146 62.6044C35.9487 62.7393 36.0034 62.8719 36.0891 63.0208C36.1761 62.8227 36.2879 62.5416 36.4507 62.0275L36.6711 61.3722C36.9189 60.6668 37.2342 59.8432 37.4563 59.1959L37.4556 59.1932C37.761 58.3065 38.1364 57.3294 38.4853 56.3823L38.4863 56.3806C38.5633 56.1724 38.6079 55.9068 38.693 55.3429C38.7653 54.8632 38.8724 54.1358 39.1567 53.4186L39.1584 53.4195C39.5166 52.5046 39.9177 51.535 40.3078 50.628C40.6018 49.9443 41.0309 49.3589 41.3091 48.9757C41.6359 48.5256 41.8094 48.2807 41.9169 48.0479C42.0537 47.7516 42.1544 47.4189 42.314 46.8992C42.4572 46.4329 42.6536 45.7985 42.9692 45.1823C43.4207 44.3009 43.8858 43.4007 44.3967 42.495C44.7724 41.829 45.2618 41.3044 45.5948 40.9472C45.9757 40.5387 46.1858 40.3136 46.3458 40.0683C46.8141 39.35 47.4165 38.3231 48.0575 37.4864L48.0582 37.4891C48.2869 37.1878 48.4718 36.8644 48.7679 36.381C49.032 35.9498 49.3953 35.3759 49.8817 34.8658C50.4175 34.3039 51.0183 33.9044 51.4801 33.6168C52.0138 33.2844 52.2889 33.1351 52.57 32.9244C53.6744 32.0958 54.9593 31.6885 55.6568 31.4139C55.9704 31.2895 56.1417 31.1487 56.8016 30.7826C57.3069 30.5022 58.1547 30.0709 59.1968 30.0793L59.1994 30.0786C61.1755 30.0963 62.5881 31.1551 63.2301 31.6051C64.0644 32.1877 65.737 33.451 65.9924 35.516L65.9897 35.5167C66.1333 36.6718 65.5755 37.689 65.366 38.093C65.04 38.7219 64.919 38.9436 64.8741 39.1599C64.8109 39.4704 64.8015 39.7686 64.7465 40.3966C64.6987 40.9424 64.6137 41.6748 64.3389 42.4346C64.2567 42.6641 64.2164 42.9544 64.1238 43.5688C64.0474 44.076 63.9267 44.8696 63.5844 45.6164C63.2719 46.2977 62.8364 46.8752 62.5336 47.2763C62.1876 47.7346 61.9807 48.0066 61.8333 48.286C61.4496 49.0143 60.9033 50.1898 60.3987 51.0639C60.1425 51.5075 59.839 51.895 59.5713 52.2236C60.1578 52.0447 60.8258 51.914 61.5329 51.951C62.2835 51.9905 64.0209 51.9904 65.3985 53.2244L65.6689 53.4865C66.9531 54.8482 67.2478 56.4794 67.4277 57.3503L67.425 57.351C67.476 57.5937 67.5133 57.8369 67.5441 58.0783C68.6366 57.7692 69.7656 57.7938 70.8896 58.0455L71.5988 58.2272C72.3489 58.4468 73.2102 58.7978 74.081 59.428C75.3178 60.3232 75.9215 61.4153 76.2878 62.0666L76.2852 62.0673C76.5182 62.4782 76.8002 63.0033 77.0056 63.6086C77.6543 63.4479 78.3952 63.3518 79.1463 63.4553L79.4504 63.5068L79.4521 63.5078C80.7056 63.774 81.392 64.8154 81.6251 65.1503C82.0228 65.7219 82.1298 65.9179 82.3248 66.1023L82.3222 66.103C82.4706 66.2424 82.6197 66.3666 82.8101 66.5313C82.9854 66.683 83.2099 66.8797 83.4237 67.0976C83.8759 67.5588 84.381 68.2206 84.5719 69.1791C84.6236 69.4384 84.7948 70.1438 84.8739 70.6638C84.9647 71.2613 85.0257 72.0571 84.8092 72.893L84.8041 72.9058C84.4954 74.0646 83.7707 75.2551 83.4364 75.8802L83.4337 75.8809C83.1234 76.464 82.7537 76.9646 82.4419 77.3606C82.0825 77.8168 81.8791 78.0463 81.6654 78.3421L81.6635 78.3455C80.6603 79.728 80.5865 79.6836 79.773 80.5964L79.7704 80.5971C79.4544 80.951 79.385 81.1101 79.2672 81.3553C79.0679 81.7701 78.8143 82.2911 78.1698 83.0334C77.4655 83.8444 76.8842 84.1677 76.4388 84.4065C76.1933 84.5382 76.0865 84.5845 75.836 84.8726C75.4476 85.3194 75.3094 85.5414 75.1421 85.8049C74.9173 86.1589 74.6605 86.5602 74.0968 87.2131C73.6832 87.6921 73.5183 87.9322 73.3295 88.2022C73.0969 88.5349 72.8419 88.8952 72.3021 89.517C71.6651 90.2506 71.1963 90.5756 70.8087 90.8379C70.5695 90.9997 70.4129 91.0992 70.0947 91.4653C69.7916 91.814 69.7262 91.9694 69.6099 92.2229C69.4132 92.6516 69.1628 93.1856 68.5148 93.9361C68.1301 94.3817 67.9935 94.6018 67.8253 94.8686C67.5984 95.2286 67.3401 95.6327 66.7715 96.2877C66.1905 96.9567 65.8096 97.2729 65.4744 97.546C65.2352 97.7409 65.0431 97.8934 64.669 98.3237C64.1505 98.9202 63.8575 99.2134 63.5841 99.488C63.347 99.7261 63.1255 99.9494 62.6915 100.452C61.9335 101.33 61.0684 101.981 60.0665 102.331C59.056 102.683 58.0701 102.671 57.1706 102.483C55.547 102.144 53.8592 101.119 52.5389 100.4C51.5388 99.8558 51.0802 99.3184 50.7376 98.9068C50.5444 98.6746 50.4643 98.5677 50.097 98.3678C49.544 98.0669 49.2825 97.9787 48.9667 97.8686C48.539 97.7194 48.0554 97.5477 47.2406 97.1043C46.4115 96.653 45.9995 96.3237 45.6414 96.0344C45.3846 95.827 45.181 95.6583 44.6429 95.3655C44.1021 95.0712 43.8475 94.9892 43.5333 94.885C43.0978 94.7404 42.5993 94.573 41.7738 94.1239C40.8225 93.6063 40.3725 93.1302 40.0221 92.7518C39.8157 92.5288 39.706 92.4 39.2911 92.1741C39.0819 92.0603 39.0497 92.065 38.636 92.0665C38.3924 92.0674 37.9582 92.0685 37.4609 91.9496C36.9397 91.8249 36.4393 91.5921 35.9424 91.2398C35.4275 90.8743 35.1381 90.3089 35.1037 89.7238C34.9081 89.6338 34.7429 89.5342 34.6128 89.4471C34.311 89.2452 34.0426 89.0069 33.8193 88.7883C33.3764 88.3548 32.9354 87.824 32.5709 87.3763C32.1736 86.8884 31.8614 86.494 31.5781 86.1818C31.4702 86.0629 31.3901 85.9854 31.3373 85.9368C30.7887 85.6931 30.4283 85.2985 30.2326 85.0554C29.9795 84.7409 29.7745 84.3873 29.6124 84.0748C29.2879 83.4494 28.9881 82.6936 28.7365 82.0412C28.4656 81.339 28.2456 80.7462 28.0344 80.2748C27.9596 80.1078 27.8963 79.9903 27.8524 79.9104C27.0833 79.3542 26.5293 78.5669 26.1908 78.0715C25.8073 77.5101 25.6003 77.1801 25.4328 76.9606L25.2734 76.7739L25.2718 76.7707C24.6628 76.149 24.2419 75.4369 23.933 74.8611C23.5624 74.1703 23.422 73.8363 23.1552 73.3859C22.711 72.6393 22.4765 71.8759 22.3141 71.2686C22.1742 70.7454 22.1005 70.4027 22.0071 70.0776L21.9047 69.7512L21.9018 69.7484C21.8065 69.4717 21.6225 69.192 21.2276 68.5879C20.9158 68.1108 20.3674 67.2824 20.1881 66.285L20.1859 66.277C19.9546 64.963 19.7982 63.6374 19.749 62.52C19.7198 61.8704 19.7651 61.2972 19.907 60.7698C20.0551 60.2202 20.28 59.8331 20.444 59.5722C20.6184 59.2948 20.6181 59.3028 20.6399 59.2523C20.6426 59.2467 20.6785 59.1744 20.6951 58.9537L20.6925 58.9522C20.7125 58.6676 20.7073 58.4668 20.6991 58.2964C20.6938 58.1875 20.6677 57.8392 20.6751 57.5665C20.6974 56.7438 20.9713 56.0747 21.4268 55.2625L21.4297 55.2575ZM24.9166 57.2199C24.7587 57.5015 24.6999 57.6436 24.6775 57.7043C24.678 57.7577 24.6824 57.806 24.6968 58.1045C24.7107 58.3925 24.7172 58.7555 24.6838 59.2325L24.6827 59.2364C24.6377 59.8561 24.5123 60.3737 24.3113 60.8386C24.1313 61.2547 23.8849 61.6143 23.8294 61.7026C23.7633 61.8079 23.7693 61.81 23.7691 61.811C23.7622 61.8371 23.7296 61.9792 23.746 62.3412L23.7445 62.3438C23.7844 63.2513 23.9181 64.4002 24.1263 65.5829C24.1441 65.6703 24.2245 65.8617 24.5761 66.3996C24.8526 66.8226 25.3866 67.5846 25.6828 68.4436L25.8355 68.9253C25.9788 69.4185 26.0954 69.9214 26.1791 70.2344C26.3141 70.7392 26.4354 71.0754 26.5935 71.3408L26.5963 71.3458C26.896 71.8518 27.2619 72.605 27.4574 72.9695C27.7141 73.4478 27.9209 73.7597 28.1275 73.9709C28.4376 74.2867 28.701 74.6484 28.9045 74.9416C29.071 75.1815 29.3626 75.6215 29.4944 75.8144C29.6801 76.0864 29.8349 76.2968 29.9755 76.4576C30.0429 76.5346 30.0966 76.589 30.1378 76.6257C30.1727 76.6567 30.1921 76.6703 30.1945 76.672L30.1976 76.6726C30.7324 76.9933 31.0537 77.4708 31.2033 77.7099C31.3889 78.0067 31.5498 78.3365 31.6852 78.6389C31.9532 79.237 32.2297 79.9808 32.4695 80.6027C32.7286 81.2744 32.9552 81.8332 33.1635 82.2347C33.2085 82.3215 33.2521 82.3838 33.2815 82.4326C33.5405 82.5742 33.7458 82.7324 33.8835 82.8489C34.1238 83.0522 34.3478 83.282 34.5404 83.4943C34.9175 83.9099 35.3318 84.432 35.6723 84.8503C36.0454 85.3086 36.355 85.6743 36.6156 85.9294C36.6892 86.0015 36.7486 86.0466 36.786 86.0774C37.5923 86.3343 38.1513 87.0777 38.1741 87.9253C38.2013 87.9426 38.2301 87.9586 38.2567 87.9775C38.3294 88.029 38.3723 88.0515 38.3901 88.059C38.3934 88.0599 38.4315 88.0665 38.6207 88.0658C38.8027 88.0651 39.2128 88.0541 39.6662 88.126C40.1565 88.2038 40.6648 88.3685 41.2039 88.6619C42.1557 89.1801 42.6069 89.6539 42.9582 90.0334C43.1657 90.2574 43.2742 90.385 43.6858 90.6091C44.2241 90.9019 44.4783 90.9839 44.7937 91.0886C45.2299 91.2334 45.7275 91.4026 46.554 91.8523C47.3838 92.3039 47.7966 92.6337 48.1549 92.9231C48.4114 93.1304 48.6164 93.2977 49.1544 93.5904C49.7073 93.8912 49.9679 93.9812 50.2837 94.0913C50.7115 94.2405 51.1959 94.4105 52.0108 94.8539C53.0109 95.3984 53.4685 95.9373 53.8111 96.3489C54.0038 96.5804 54.083 96.6872 54.45 96.8869C56.128 97.8001 57.1071 98.3845 57.9875 98.5684C58.3401 98.642 58.567 98.618 58.7487 98.5546C58.9388 98.4881 59.2473 98.3193 59.6633 97.8377C60.1798 97.2395 60.4731 96.9441 60.7504 96.6657C60.9913 96.4238 61.2151 96.201 61.6511 95.6994C62.2317 95.0315 62.6123 94.7165 62.9462 94.4445C63.1839 94.2507 63.3768 94.0978 63.7525 93.6651C64.1406 93.218 64.2775 92.9974 64.4427 92.7352C64.6668 92.3797 64.9214 91.9764 65.4866 91.3217C65.7888 90.9717 65.8548 90.8152 65.9735 90.5564C66.1726 90.1225 66.4257 89.59 67.0767 88.841C67.713 88.109 68.1815 87.7861 68.5671 87.5252C68.8046 87.3645 68.9629 87.2632 69.2831 86.8944C69.6997 86.4144 69.8653 86.1736 70.0511 85.908C70.2808 85.5795 70.5341 85.2208 71.0703 84.5997C71.4568 84.1521 71.5953 83.9293 71.7654 83.6614C71.9932 83.3025 72.2516 82.9 72.818 82.2484C73.522 81.4387 74.1049 81.1188 74.5477 80.8813C74.7908 80.7509 74.8982 80.7018 75.1509 80.4108C75.4629 80.0514 75.5348 79.8878 75.6619 79.6233C75.8709 79.1885 76.1308 78.6679 76.7862 77.9337L76.7853 77.9354C77.7931 76.8045 77.5793 77.1632 78.425 75.9977L78.424 75.9993C78.6956 75.6235 79.0799 75.1642 79.2994 74.8855C79.4988 74.6323 79.6598 74.411 79.7879 74.2034L79.9095 73.9928C80.4332 73.0134 80.7818 72.4545 80.9354 71.8878C80.9563 71.8057 80.9752 71.6272 80.9203 71.2656C80.8937 71.0907 80.8546 70.901 80.8059 70.6786C80.7646 70.4903 80.7053 70.2366 80.6582 70.0047C80.6453 69.9874 80.6203 69.9517 80.5683 69.8987C80.4827 69.8114 80.3711 69.7122 80.1924 69.5576C80.03 69.4172 79.8052 69.224 79.5802 69.0124L79.5751 69.0095C79.2482 68.7003 78.9939 68.3721 78.8025 68.1056C78.7058 67.971 78.6174 67.8389 78.5425 67.7277C78.4626 67.6092 78.4025 67.5205 78.3423 67.434C78.3391 67.4295 78.3347 67.4254 78.3317 67.4211C78.2489 67.4301 78.1492 67.4456 78.031 67.473C77.7104 67.5475 77.3609 67.6776 77.0076 67.8316C76.4993 68.0533 75.8596 68.5298 75.319 69.0376L75.3163 69.0383C75.3089 69.0453 75.3007 69.0518 75.2932 69.0588C75.2687 69.1215 75.2391 69.1947 75.2099 69.2813C75.1606 69.4273 75.1138 69.5784 75.0597 69.7562C75.0097 69.9205 74.9473 70.125 74.8799 70.3176C74.8145 70.5048 74.7188 70.7555 74.5832 71.0034C74.4595 71.2296 74.2102 71.6293 73.7581 71.9365C73.2133 72.3063 72.537 72.4308 71.8784 72.2586C71.3277 72.1143 70.9322 71.8007 70.6958 71.5803L70.4889 71.3684C70.0111 70.8336 69.6072 70.0233 69.8377 69.0236C70.0402 68.1471 70.6581 67.5915 70.9327 67.3576C71.2572 67.0813 71.6653 66.8061 71.9161 66.6308C72.0108 66.5646 72.0948 66.5015 72.1722 66.445C72.3623 66.1774 72.5654 65.9487 72.7195 65.7822C72.9206 65.5648 73.0129 65.4757 73.1404 65.3305C73.2171 65.2432 73.2584 65.1816 73.2827 65.1466C73.2782 65.1026 73.2678 65.0302 73.2331 64.9239C73.1616 64.7059 73.0273 64.4263 72.8044 64.0337L72.8012 64.0274C72.4498 63.4026 72.2038 63.0068 71.7365 62.6684C71.3292 62.3736 70.9147 62.1954 70.4698 62.0656L70.0139 61.949C69.3222 61.7941 68.8554 61.842 68.5077 61.968L68.453 62.0041C68.4052 62.0411 68.3372 62.1044 68.2355 62.2168C68.1234 62.3406 68.0234 62.4636 67.8607 62.6589C67.717 62.8314 67.5234 63.0607 67.2983 63.2814L67.2937 63.2855C67.1493 63.4262 66.9892 63.5616 66.8255 63.6941C66.6701 64.0511 66.4276 64.4276 66.0339 64.7526C65.5029 65.1909 64.8829 65.3848 64.3654 65.4942L64.3637 65.4932C64.2094 65.5257 63.896 65.5917 63.5793 65.5862C63.4845 65.5845 63.3208 65.5751 63.1285 65.5311C62.9595 65.4924 62.5877 65.3874 62.231 65.0739C61.797 64.692 61.535 64.1306 61.5443 63.5249C61.5522 63.0258 61.7424 62.6649 61.8354 62.509C62.0184 62.2026 62.2449 62.0083 62.3016 61.9595C62.3967 61.8774 62.4907 61.8106 62.5566 61.7639C62.6893 61.6698 62.8424 61.5724 62.9711 61.4912C63.0598 61.4353 63.1465 61.377 63.2332 61.3224C63.2798 61.0219 63.3471 60.6687 63.4658 60.2749C63.6393 59.6939 63.6817 58.9786 63.5108 58.1696L63.5097 58.1599C63.3093 57.1898 63.1645 56.6618 62.7583 56.2309C62.6957 56.1645 62.613 56.1071 62.41 56.0568C62.1523 55.9932 61.8542 55.974 61.3237 55.9461C60.9361 55.9258 60.6465 56.0691 59.4577 56.5648C58.6391 56.9062 57.7048 56.9642 57.2997 57.0058C57.0327 57.0332 56.877 57.054 56.7676 57.0797L56.7649 57.0804C56.7401 57.1342 56.6818 57.2858 56.5533 57.7048C56.4878 57.9184 56.2807 58.6704 55.6785 59.2317C54.8867 59.9692 53.9109 60.0107 53.1712 59.8635C52.8635 59.8022 52.4185 59.6796 52.002 59.3847C51.5132 59.0381 51.1037 58.4722 51.0266 57.7344C50.9616 57.1092 51.1661 56.6084 51.2963 56.3453C51.4368 56.0618 51.6116 55.8207 51.7469 55.647C52.0009 55.3208 52.3702 54.9226 52.6033 54.6597C52.8818 54.3456 53.1101 54.0689 53.2837 53.8054L53.2827 53.8071C53.6084 53.3105 54.0281 52.8332 54.3172 52.4918C54.5617 52.2032 54.7676 51.9496 54.9451 51.6974L55.1133 51.445L55.3892 51.0336C55.6756 50.6375 55.9834 50.2868 56.2057 50.0256C56.5437 49.6283 56.7711 49.3468 56.9346 49.0639C57.4218 48.2201 57.7217 47.5105 58.2955 46.4216C58.6267 45.7932 59.0608 45.2357 59.341 44.8647C59.6646 44.4361 59.8423 44.181 59.949 43.9483C60.0257 43.7807 60.0863 43.5196 60.1685 42.9744C60.2343 42.5376 60.3282 41.771 60.5761 41.0808L60.5791 41.0757C60.6702 40.8242 60.7212 40.5177 60.7624 40.0472C60.7963 39.6607 60.831 38.9629 60.956 38.3525L60.958 38.3491C61.1439 37.4518 61.6243 36.6192 61.8145 36.2523C61.9009 36.0857 61.9515 35.9732 61.9847 35.895C61.9539 35.8283 61.8994 35.7336 61.7943 35.6114C61.596 35.3809 61.3059 35.1417 60.9376 34.8845L60.9351 34.8808C60.1997 34.3654 59.74 34.0854 59.1649 34.0798L59.1263 34.0959C59.0644 34.1183 58.9446 34.168 58.7425 34.2802C58.4941 34.418 58.4141 34.4749 58.0806 34.6649C57.8247 34.8106 57.4985 34.9855 57.133 35.1304L57.1294 35.1328C56.0755 35.5486 55.5215 35.7115 54.9715 36.1242C54.5056 36.4736 53.915 36.8108 53.5935 37.011C53.1992 37.2566 52.9526 37.4403 52.777 37.6244C52.6119 37.7975 52.4397 38.0469 52.1802 38.4706C51.9538 38.8403 51.6257 39.4052 51.2387 39.9139L51.2331 39.9197C50.7122 40.5998 50.3288 41.2831 49.6964 42.2531C49.3061 42.8518 48.8195 43.3524 48.52 43.6735C48.1728 44.0459 47.9952 44.2576 47.8813 44.4595C47.4129 45.2898 46.9782 46.1279 46.5288 47.0052C46.3941 47.2683 46.287 47.5866 46.1374 48.0737C46.0044 48.5069 45.8216 49.1307 45.5475 49.7245C45.2437 50.3823 44.8142 50.9566 44.5466 51.3252C44.2304 51.7608 44.0731 51.9979 43.9826 52.2084C43.6044 53.0877 43.2179 54.019 42.8785 54.8863L42.8746 54.893C42.7823 55.1261 42.7257 55.419 42.6473 55.9391C42.5817 56.3746 42.4866 57.0921 42.2375 57.766C41.8599 58.7911 41.5263 59.6615 41.2389 60.4957L41.2362 60.4964C40.8124 61.7319 40.5224 62.4124 40.2684 63.2236L40.2672 63.2296C40.1529 63.5909 40.0498 63.8757 39.9614 64.1108C40.2092 64.8925 39.9617 65.7782 39.2723 66.3043C39.1845 66.3713 39.0679 66.5034 38.8371 66.9213C38.7663 67.0496 38.6546 67.2629 38.5121 67.5117C38.458 68.432 37.7702 69.2219 36.8221 69.3686C36.2065 69.4635 35.613 69.2673 35.1826 68.8821C35.1048 68.8298 35.0284 68.7734 34.9567 68.7089C34.5284 68.3229 34.307 67.7934 34.2973 67.2592C34.1856 67.1047 34.0252 66.894 33.7857 66.6063C33.3502 66.0833 32.6063 65.2308 32.1909 64.0911L32.0341 63.5834C31.9204 63.131 31.8993 62.6984 31.8979 62.3624C31.8965 62.039 31.9148 61.684 31.9244 61.4531C31.9423 61.0246 31.9336 60.7957 31.9096 60.6585L31.8816 60.5488L31.8805 60.5448C31.8346 60.4153 31.7154 60.221 31.3709 59.8006C31.1048 59.476 30.572 58.8697 30.214 58.2046L30.2122 58.2058C29.8756 57.5819 29.6038 56.7885 29.4632 56.4349C29.3627 56.1825 29.2906 56.0371 29.2468 55.9581L29.1999 55.8792L29.1937 55.8722C29.1889 55.8673 29.1486 55.8233 28.9378 55.7921C28.6693 55.7525 28.3573 55.7611 27.8012 55.7764L27.799 55.7763C26.7753 55.8028 26.3206 55.9159 26.0477 56.0597C25.5347 56.3368 25.1975 56.7228 24.9166 57.2199Z" fill="black"/>
</svg>
