<svg width="282" height="78" viewBox="0 0 282 78" fill="none" xmlns="http://www.w3.org/2000/svg">
<rect width="282" height="78" rx="16" fill="#FBF8F4"/>
<path d="M236.594 37.8683H230.498V36.3367L231.203 36.1835C231.877 36.0304 232.336 35.8466 232.336 34.7744V25.0331C232.336 24.0835 232.06 23.8997 231.325 23.6853L230.559 23.4709V21.9392H235.277L243.027 33.641V25.0331C243.027 23.9916 242.537 23.7772 241.74 23.5934L241.22 23.4709V21.9392H247.285V23.4709L246.764 23.5934C245.968 23.7772 245.478 23.9916 245.478 25.0331V37.8683H243.058L234.787 25.2782V34.7744C234.787 35.8466 235.216 36.0304 235.889 36.1835L236.594 36.3367V37.8683Z" fill="black"/>
<path d="M196.639 37.8683H190.513V36.3367L191.217 36.1835C191.891 36.0304 192.32 35.8466 192.32 34.7744V25.0331C192.32 23.9916 191.83 23.7772 191.033 23.5934L190.513 23.4709V21.9392H196.639V23.4709L196.119 23.5934C195.322 23.7772 194.832 23.9916 194.832 25.0331V34.7744C194.832 35.8466 195.261 36.0304 195.935 36.1835L196.639 36.3367V37.8683Z" fill="black"/>
<path d="M184.46 37.8683H178.333V36.3367L179.037 36.1835C179.711 36.0304 180.14 35.8466 180.14 34.7744V25.2476C180.14 24.88 180.11 24.4511 180.079 24.0835H177.873C176.648 24.0835 176.434 24.4205 176.25 25.0638L176.066 25.7071H174.596V21.9392H188.227V25.7071H186.757L186.543 25.0638C186.328 24.4205 186.236 24.0835 184.95 24.0835H182.713C182.683 24.4511 182.652 24.88 182.652 25.2476V34.7744C182.652 35.8466 183.081 36.0304 183.755 36.1835L184.46 36.3367V37.8683Z" fill="black"/>
<path d="M166.532 38.2053C162.519 38.2053 159.364 36.6124 159.364 31.4048V28.801C159.364 22.9808 163.071 21.6023 166.532 21.6023C169.596 21.6023 171.801 22.6744 172.904 23.2565C172.873 25.3701 172.812 26.6567 172.72 27.4226H170.515L170.423 24.88C169.504 24.2674 168.095 23.8998 166.532 23.8998C164.48 23.8998 161.876 24.6656 161.876 28.5866V31.3436C161.876 35.6015 164.939 35.9079 166.532 35.9079C168.769 35.9079 169.749 35.3565 170.729 34.3762H172.72V36.5818C171.311 37.2557 169.289 38.2053 166.532 38.2053Z" fill="black"/>
<path d="M156.16 37.8683H143.386V36.3367L144.09 36.1835C144.764 36.0304 145.193 35.8466 145.193 34.7744V25.0331C145.193 23.9916 145.009 23.7159 144.243 23.5934L143.416 23.4709V21.9392H155.976V25.6458H154.199L153.985 25.0025C153.77 24.3592 153.617 24.0222 152.545 24.0222H148.777C147.889 24.0222 147.705 24.206 147.705 25.3701V28.8929L153.556 28.9848V30.7615L147.705 30.8534V34.4375C147.705 35.6015 147.889 35.7853 148.777 35.7853H152.729C153.893 35.7853 153.985 35.4483 154.169 34.8357L154.383 34.1618H156.16V37.8683Z" fill="black"/>
<path d="M141.396 37.8683H129.296V36.0304L129.97 35.8772C130.644 35.724 131.073 35.5402 131.073 34.4681V25.0331C131.073 23.9916 130.582 23.7772 129.817 23.5934L129.296 23.4709V21.9392H135.392V23.5015L134.718 23.624C134.044 23.7466 133.585 23.9916 133.585 25.0331V34.6212C133.585 35.7853 134.258 35.7853 135.147 35.7853H137.842C139.313 35.7853 139.435 35.4483 139.619 34.8357L139.803 34.1618H141.396V37.8683Z" fill="black"/>
<path d="M126.245 37.8683H113.471V36.3367L114.175 36.1835C114.849 36.0304 115.278 35.8466 115.278 34.7744V25.0331C115.278 23.9916 115.094 23.7159 114.328 23.5934L113.501 23.4709V21.9392H126.061V25.6458H124.284L124.07 25.0025C123.855 24.3592 123.702 24.0222 122.63 24.0222H118.862C117.974 24.0222 117.79 24.206 117.79 25.3701V28.8929L123.641 28.9848V30.7615L117.79 30.8534V34.4375C117.79 35.6015 117.974 35.7853 118.862 35.7853H122.814C123.978 35.7853 124.07 35.4483 124.253 34.8357L124.468 34.1618H126.245V37.8683Z" fill="black"/>
<path d="M89.1465 37.6463V34.7764L90.0929 34.563C90.3079 34.54 90.3543 34.4678 90.3543 34.2346V25.0536C90.3543 24.8665 90.3079 24.7942 90.0929 24.7253L89.1465 24.4921V21.6387H96.3568V24.5118L95.4071 24.7483C95.1953 24.8172 95.1457 24.8895 95.1457 25.0766V34.2478C95.1457 34.4579 95.1953 34.5072 95.3839 34.5761L96.3568 34.8355V37.6595L89.1465 37.6463Z" fill="black"/>
<path d="M76.0196 37.6465L71.9992 25.0177C71.9852 24.9631 71.955 24.9139 71.9125 24.8764C71.87 24.839 71.8173 24.815 71.7609 24.8075L70.5068 24.5974V21.6848H78.6205V24.5974L77.6741 24.8798C77.5826 24.8917 77.4986 24.9363 77.4377 25.0052C77.3768 25.074 77.3432 25.1625 77.3432 25.2541C77.3594 25.5171 77.4071 25.7773 77.4855 26.029L79.2128 32.79H79.3286L81.0493 26.0389C81.125 25.7865 81.1727 25.5266 81.1916 25.264C81.1861 25.1703 81.1476 25.0815 81.0829 25.0131C81.0182 24.9447 80.9314 24.901 80.8375 24.8896L79.9143 24.6072V21.6947H87.8162V24.5843L86.5157 24.8404C86.457 24.8521 86.403 24.8808 86.3606 24.9229C86.3183 24.9649 86.2893 25.0185 86.2775 25.0768L82.3762 37.6563L76.0196 37.6465Z" fill="black"/>
<path d="M97.9688 36.4938C97.9844 35.0375 98.0883 33.5835 98.2798 32.1397H102.161L102.542 33.9752C103.039 34.1409 103.559 34.2285 104.084 34.2346C104.984 34.2346 105.576 33.834 105.576 33.197C105.576 32.3991 104.557 32.0937 103.346 31.7391C100.927 31.0101 98.0349 30.0677 98.0349 26.3474C98.0349 22.627 100.5 21.4055 104.226 21.4055C106.599 21.4055 108.141 22.0163 109.798 22.7945C109.822 24.1717 109.736 25.5485 109.54 26.9122H105.656L105.467 25.29C105.091 25.133 104.687 25.0526 104.279 25.0536C103.402 25.0536 102.833 25.2638 102.833 25.9468C102.833 26.748 103.925 27.2208 105.11 27.6181C107.426 28.3701 110.377 29.4077 110.377 32.8227C110.377 36.2376 108.194 37.9057 104.067 37.9057C101.954 37.8926 99.8699 37.4102 97.9688 36.4938Z" fill="black"/>
<path d="M44.2007 21.6847V24.5907L45.3622 24.919C45.8453 25.0471 45.8387 25.2934 45.5872 26.0387L43.3371 32.8063H43.175L41.4377 26.0387C41.2425 25.3163 41.2458 25.0142 41.6627 24.919L42.897 24.5907V21.6847H34.7139V24.5907L36.0375 24.8468C36.1665 24.8796 36.1963 24.942 36.2294 25.0701L40.2002 37.6463H45.9082L47.8936 30.9642L49.879 37.6365H55.6035L59.5743 25.0602C59.5895 25.0053 59.6188 24.9552 59.6594 24.9149C59.7001 24.8745 59.7505 24.8454 59.8059 24.8304L61.0865 24.5808V21.6748H52.91V24.5808L54.1442 24.9092C54.5645 25.0044 54.5645 25.3065 54.3693 26.0289L52.632 32.7964H52.4732L50.2099 26.0387C49.9617 25.2934 49.9518 25.0536 50.4349 24.919L51.5963 24.5907V21.6847H44.2007Z" fill="black"/>
<path d="M64.8287 30.4356H66.9696V29.8314C66.9696 29.1747 66.5924 28.8266 65.9108 28.8266C65.2291 28.8266 64.8287 29.178 64.8287 29.8314V30.4356ZM60.2656 33.1905V30.1105C60.2656 27.2866 62.476 25.4182 65.8181 25.4182C69.1602 25.4182 71.3673 27.2866 71.3673 30.1105V32.7374H64.8287V33.3679C64.8287 34.0443 65.6295 34.4876 66.4832 34.4876C67.3369 34.4876 68.1774 34.1132 68.3164 33.532H71.3507V35.8306C70.1297 37.2557 68.2701 37.8861 66.3409 37.8861C62.7143 37.8828 60.2656 36.0145 60.2656 33.1905Z" fill="black"/>
<path d="M92.8555 20.214C94.2627 20.214 95.4035 19.082 95.4035 17.6856C95.4035 16.2892 94.2627 15.1572 92.8555 15.1572C91.4484 15.1572 90.3076 16.2892 90.3076 17.6856C90.3076 19.082 91.4484 20.214 92.8555 20.214Z" fill="black"/>
<g clip-path="url(#clip0_103_14028)">
<path d="M200.675 21.5151L214.157 13.7361L227.685 21.5515L214.803 29.6769L200.675 21.5151Z" fill="#CEC2F5"/>
<path d="M227.914 21.5469C227.916 21.6274 227.875 21.7029 227.807 21.7458L214.925 29.8712C214.853 29.9167 214.761 29.9185 214.688 29.8759L200.56 21.714C200.489 21.6729 200.446 21.5969 200.446 21.5148C200.446 21.4327 200.489 21.3569 200.56 21.3158L214.042 13.5368C214.113 13.4958 214.201 13.4959 214.272 13.5369L227.799 21.3524L227.824 21.369C227.879 21.4112 227.913 21.4765 227.914 21.5469ZM214.157 14.0013L201.135 21.5152L214.797 29.4084L227.24 21.56L214.157 14.0013Z" fill="black"/>
<path d="M200.676 21.5149L200.684 37.0878L214.212 44.9032L214.803 29.6768L200.676 21.5149Z" fill="#1AD39E"/>
<path d="M214.441 44.9123C214.438 44.9927 214.393 45.0656 214.322 45.1045C214.252 45.1434 214.166 45.1426 214.097 45.1024L200.569 37.2869C200.498 37.2459 200.454 37.17 200.454 37.0879L200.446 21.5151C200.446 21.433 200.489 21.3571 200.561 21.316C200.632 21.275 200.719 21.275 200.79 21.316L214.917 29.4779C214.991 29.5206 215.035 29.6006 215.032 29.6858L214.441 44.9123ZM214.568 29.8065L200.905 21.9133L200.914 36.9553L213.997 44.514L214.568 29.8065Z" fill="black"/>
<path d="M210.194 20.021C210.254 19.9087 210.392 19.8656 210.505 19.9247L217.09 23.3885C217.202 23.4476 217.245 23.5864 217.186 23.6987C217.127 23.811 216.988 23.8543 216.876 23.7952L210.291 20.3312C210.178 20.2721 210.135 20.1333 210.194 20.021Z" fill="black"/>
<path d="M211.112 20.5177V13.5898L216.246 16.1012V23.2022L211.112 20.5177Z" fill="white"/>
<path d="M210.991 13.3947C211.058 13.3528 211.142 13.3484 211.214 13.3832L216.347 15.8946C216.426 15.9331 216.476 16.0132 216.476 16.101V23.2019C216.476 23.2823 216.434 23.3568 216.365 23.3984C216.296 23.4401 216.211 23.4428 216.14 23.4056L211.006 20.7211C210.93 20.6814 210.883 20.603 210.883 20.5175V13.5896C210.883 13.5103 210.924 13.4367 210.991 13.3947ZM211.342 20.3782L216.016 22.8224V16.2443L211.342 13.9577V20.3782Z" fill="black"/>
<mask id="mask0_103_14028" style="mask-type:luminance" maskUnits="userSpaceOnUse" x="203" y="25" width="9" height="16">
<path d="M203.966 36.4907L203.987 25.5144L211.136 29.6494L211.114 40.6257L203.966 36.4907Z" fill="white"/>
</mask>
<g mask="url(#mask0_103_14028)">
<path d="M207.583 36.1011C206.998 35.7547 206.652 35.2567 206.652 34.2609V33.7629C206.912 33.7629 207.258 33.8495 207.626 34.066C207.886 34.2176 208.406 34.6073 208.406 35.4083V35.5815C208.406 36.2743 208.081 36.3825 207.583 36.1011ZM207.756 27.6794C205.482 26.3588 203.987 27.1166 203.987 29.9743V32.5289C203.987 35.1268 205.439 37.3351 207.583 38.5691C209.597 39.7382 211.114 39.3268 211.114 37.1835V36.7939C211.114 34.6073 209.944 32.9403 207.995 31.8145C207.561 31.5763 206.955 31.4031 206.673 31.4248V31.0135C206.673 30.0176 207.128 29.8227 207.756 30.1908C208.233 30.4722 208.514 30.797 208.753 31.2083L210.486 32.2042C210.551 31.6413 210.637 30.7753 210.637 29.9743C209.857 29.1083 208.709 28.2423 207.756 27.6794Z" fill="black"/>
</g>
<mask id="mask1_103_14028" style="mask-type:luminance" maskUnits="userSpaceOnUse" x="216" y="25" width="9" height="16">
<path d="M216.919 40.6041L216.876 29.6712L224.176 25.4712L224.219 36.4042L216.919 40.6041Z" fill="white"/>
</mask>
<g mask="url(#mask1_103_14028)">
<path d="M220.472 32.1175C219.93 32.4206 219.605 32.2474 219.605 31.7278V31.5113C219.605 30.9051 219.93 30.3639 220.536 30.0175C221.056 29.7144 221.468 29.8443 221.49 30.8835V31.2948C221.251 31.5546 220.926 31.836 220.472 32.0958M220.536 27.5711C218.414 28.8051 216.897 30.9484 216.897 33.1783V33.3948C216.897 35.3866 218.175 35.9061 220.147 34.7587C220.688 34.4556 221.251 33.936 221.49 33.6762V33.9577C221.49 34.9752 221.121 35.668 220.342 36.1226C219.67 36.5123 219.302 36.6206 218.955 36.469L217.374 37.3783C217.374 37.3783 217.244 38.6556 217.244 39.803C217.851 39.803 219.042 39.37 220.363 38.6123C222.681 37.2701 224.24 34.867 224.24 31.8144V29.4546C224.24 26.7484 222.703 26.3154 220.58 27.5495" fill="black"/>
</g>
</g>
<path d="M32.3716 63.5488C32.2756 63.7515 32.1262 63.9115 31.9236 64.0288C31.7316 64.1462 31.5076 64.2048 31.2516 64.2048C30.8782 64.2048 30.6436 64.1142 30.5476 63.9328C30.4516 63.7515 30.4036 63.4902 30.4036 63.1488C30.6489 62.7755 30.7716 62.3702 30.7716 61.9328C30.7716 61.3568 30.6542 60.8662 30.4196 60.4608C30.1849 60.0448 29.8062 59.8368 29.2836 59.8368C28.9102 59.8368 28.5422 60.0182 28.1796 60.3808C27.8169 60.7328 27.5182 61.1595 27.2836 61.6608C27.0489 62.1515 26.9316 62.5835 26.9316 62.9568C26.9316 63.1808 26.9796 63.3675 27.0756 63.5168C26.9796 63.7622 26.8249 63.9435 26.6116 64.0608C26.3982 64.1782 26.1902 64.2368 25.9876 64.2368C25.7102 64.2368 25.4916 64.1408 25.3316 63.9488C25.1822 63.7568 25.1076 63.4635 25.1076 63.0688C25.1076 62.2368 25.3102 61.4635 25.7156 60.7488C26.1316 60.0342 26.6756 59.4688 27.3476 59.0528C28.0196 58.6262 28.7289 58.4128 29.4756 58.4128C29.9556 58.4128 30.3982 58.5462 30.8036 58.8128C31.2089 59.0795 31.4916 59.5168 31.6516 60.1248C31.7476 59.7408 31.8329 59.2875 31.9076 58.7648C31.9929 58.2315 32.0356 57.8475 32.0356 57.6128C32.0356 57.2075 31.9129 56.8982 31.6676 56.6848C31.4329 56.4715 31.0436 56.3648 30.4996 56.3648C29.9342 56.3648 29.3956 56.4502 28.8836 56.6208C28.3716 56.7915 27.9502 57.0368 27.6196 57.3568C27.2889 57.6768 27.1129 58.0502 27.0916 58.4768C26.6756 58.4342 26.3289 58.3382 26.0516 58.1888C25.7849 58.0395 25.6516 57.8422 25.6516 57.5968C25.6516 57.1275 25.8756 56.6955 26.3236 56.3008C26.7822 55.8955 27.3902 55.5755 28.1476 55.3408C28.9049 55.1062 29.7102 54.9888 30.5636 54.9888C31.1289 54.9888 31.6569 55.0955 32.1476 55.3088C32.6489 55.5115 33.0489 55.8208 33.3476 56.2368C33.6569 56.6422 33.8116 57.1435 33.8116 57.7408C33.8116 58.2422 33.6356 59.2075 33.2836 60.6368C32.9316 62.0555 32.6276 63.0262 32.3716 63.5488ZM35.6621 59.7088C34.7554 59.7088 34.3021 59.4208 34.3021 58.8448C34.3021 58.0982 34.5687 57.4315 35.1021 56.8448C35.6461 56.2582 36.3874 55.8048 37.3261 55.4848C38.2647 55.1542 39.3101 54.9888 40.4621 54.9888C41.0807 54.9888 41.6461 55.1328 42.1581 55.4208C42.6807 55.7088 43.0914 56.0928 43.3901 56.5728C43.6994 57.0528 43.8541 57.5648 43.8541 58.1088C43.8541 58.9515 43.6461 59.8528 43.2301 60.8128C42.8247 61.7728 42.2594 62.5835 41.5341 63.2448C40.8087 63.8955 39.9874 64.2208 39.0701 64.2208C38.4407 64.2208 37.9127 64.0768 37.4861 63.7888C37.0701 63.5008 36.7607 63.1222 36.5581 62.6528C36.3554 62.1835 36.2541 61.6822 36.2541 61.1488C36.2541 60.6048 36.3607 60.0822 36.5741 59.5808C36.7874 59.0688 37.0967 58.6528 37.5021 58.3328C37.9181 58.0128 38.4087 57.8528 38.9741 57.8528C39.1127 57.8528 39.2727 57.8955 39.4541 57.9808C39.6354 58.0662 39.7901 58.1782 39.9181 58.3168C40.0461 58.4555 40.1101 58.5995 40.1101 58.7488C40.1101 58.9088 40.0354 59.0742 39.8861 59.2448C39.7367 59.4048 39.5447 59.5382 39.3101 59.6448C39.0861 59.7515 38.8621 59.8048 38.6381 59.8048C38.4887 59.8048 38.3341 59.9435 38.1741 60.2208C38.0247 60.4982 37.9501 60.7915 37.9501 61.1008C37.9501 61.4742 38.0407 61.8422 38.2221 62.2048C38.4034 62.5568 38.6167 62.7328 38.8621 62.7328C39.5554 62.7328 40.1314 62.4342 40.5901 61.8368C41.0594 61.2395 41.4061 60.5728 41.6301 59.8368C41.8647 59.1008 41.9821 58.5622 41.9821 58.2208C41.9821 57.7728 41.8647 57.3515 41.6301 56.9568C41.4061 56.5622 40.9581 56.3648 40.2861 56.3648C39.5181 56.3648 38.7981 56.4928 38.1261 56.7488C37.4647 56.9942 36.9101 57.3675 36.4621 57.8688C36.0247 58.3702 35.7581 58.9835 35.6621 59.7088ZM48.2597 64.2688C47.6517 64.2688 47.0597 63.7195 46.4837 62.6208C45.9184 61.5115 45.433 60.2848 45.0277 58.9408C44.633 57.5968 44.4357 56.7755 44.4357 56.4768C44.4357 56.2422 44.5317 56.0022 44.7237 55.7568C44.9157 55.5115 45.0864 55.3888 45.2357 55.3888C45.321 55.3888 45.3797 55.4422 45.4117 55.5488C45.7744 56.8822 46.2117 58.2688 46.7237 59.7088C47.2357 61.1382 47.721 62.0395 48.1797 62.4128C48.297 62.1355 48.4997 61.3995 48.7877 60.2048C49.0864 59.0102 49.273 58.1675 49.3477 57.6768C49.1344 57.4848 48.9477 57.2555 48.7877 56.9888C48.6384 56.7115 48.5637 56.4448 48.5637 56.1888C48.5637 55.8902 48.633 55.6448 48.7717 55.4528C48.921 55.2608 49.1664 55.1648 49.5077 55.1648C50.073 55.1648 50.5157 55.3035 50.8357 55.5808C51.1664 55.8475 51.3317 56.1995 51.3317 56.6368C51.3317 57.2128 51.0757 58.4608 50.5637 60.3808C50.3397 61.2128 50.1424 61.8848 49.9717 62.3968C49.801 62.8982 49.5717 63.3355 49.2837 63.7088C49.0064 64.0715 48.665 64.2582 48.2597 64.2688ZM53.9219 55.8368C53.9753 55.6128 54.0499 55.4422 54.1459 55.3248C54.2526 55.1968 54.4073 55.1328 54.6099 55.1328C54.8446 55.1328 55.1006 55.1808 55.3779 55.2768C55.6553 55.3622 55.7939 55.4635 55.7939 55.5808L55.1379 58.0288C54.4873 60.5142 54.1299 61.9008 54.0659 62.1888C54.0446 62.2742 54.0339 62.3755 54.0339 62.4928C54.0339 62.5995 54.0499 62.6688 54.0819 62.7008C54.1139 62.7222 54.1513 62.7328 54.1939 62.7328C54.3326 62.7328 54.4819 62.6635 54.6419 62.5248C54.8019 62.3862 54.9246 62.2315 55.0099 62.0608C55.2979 62.1568 55.4899 62.2902 55.5859 62.4608C55.6819 62.6315 55.7299 62.8235 55.7299 63.0368C55.7299 63.4102 55.5006 63.7142 55.0419 63.9488C54.5833 64.1728 54.0606 64.2848 53.4739 64.2848C53.1539 64.2848 52.8659 64.1355 52.6099 63.8368C52.3646 63.5275 52.2419 63.1595 52.2419 62.7328C52.2419 62.4555 52.6686 60.6795 53.5219 57.4048L53.9219 55.8368ZM63.9497 63.5488C63.8537 63.7515 63.7044 63.9115 63.5017 64.0288C63.3097 64.1462 63.0857 64.2048 62.8297 64.2048C62.4564 64.2048 62.2217 64.1142 62.1257 63.9328C62.0297 63.7515 61.9817 63.4902 61.9817 63.1488C62.227 62.7755 62.3497 62.3702 62.3497 61.9328C62.3497 61.3568 62.2324 60.8662 61.9977 60.4608C61.763 60.0448 61.3844 59.8368 60.8617 59.8368C60.4884 59.8368 60.1204 60.0182 59.7577 60.3808C59.395 60.7328 59.0964 61.1595 58.8617 61.6608C58.627 62.1515 58.5097 62.5835 58.5097 62.9568C58.5097 63.1808 58.5577 63.3675 58.6537 63.5168C58.5577 63.7622 58.403 63.9435 58.1897 64.0608C57.9764 64.1782 57.7684 64.2368 57.5657 64.2368C57.2884 64.2368 57.0697 64.1408 56.9097 63.9488C56.7604 63.7568 56.6857 63.4635 56.6857 63.0688C56.6857 62.2368 56.8884 61.4635 57.2937 60.7488C57.7097 60.0342 58.2537 59.4688 58.9257 59.0528C59.5977 58.6262 60.307 58.4128 61.0537 58.4128C61.5337 58.4128 61.9764 58.5462 62.3817 58.8128C62.787 59.0795 63.0697 59.5168 63.2297 60.1248C63.3257 59.7408 63.411 59.2875 63.4857 58.7648C63.571 58.2315 63.6137 57.8475 63.6137 57.6128C63.6137 57.2075 63.491 56.8982 63.2457 56.6848C63.011 56.4715 62.6217 56.3648 62.0777 56.3648C61.5124 56.3648 60.9737 56.4502 60.4617 56.6208C59.9497 56.7915 59.5284 57.0368 59.1977 57.3568C58.867 57.6768 58.691 58.0502 58.6697 58.4768C58.2537 58.4342 57.907 58.3382 57.6297 58.1888C57.363 58.0395 57.2297 57.8422 57.2297 57.5968C57.2297 57.1275 57.4537 56.6955 57.9017 56.3008C58.3604 55.8955 58.9684 55.5755 59.7257 55.3408C60.483 55.1062 61.2884 54.9888 62.1417 54.9888C62.707 54.9888 63.235 55.0955 63.7257 55.3088C64.227 55.5115 64.627 55.8208 64.9257 56.2368C65.235 56.6422 65.3897 57.1435 65.3897 57.7408C65.3897 58.2422 65.2137 59.2075 64.8617 60.6368C64.5097 62.0555 64.2057 63.0262 63.9497 63.5488ZM66.7442 50.5408C66.6802 50.7755 66.5949 51.0262 66.4882 51.2928C66.3922 51.5488 66.3229 51.7248 66.2802 51.8208C66.0775 52.2902 65.9175 52.7275 65.8002 53.1328C65.7895 53.1648 65.7682 53.2555 65.7362 53.4048C65.7042 53.5435 65.6242 53.6662 65.4962 53.7728C65.3682 53.8688 65.1869 53.9168 64.9522 53.9168C64.6535 53.9168 64.5042 53.5968 64.5042 52.9568C64.5042 52.7008 64.5575 52.2955 64.6642 51.7408C64.7709 51.1862 64.9202 50.6902 65.1122 50.2528C65.3042 49.8048 65.5335 49.5808 65.8002 49.5808C66.0349 49.5808 66.2589 49.6502 66.4722 49.7888C66.6855 49.9168 66.8029 50.0768 66.8242 50.2688C66.8242 50.3115 66.8135 50.3595 66.7922 50.4128C66.7709 50.4555 66.7549 50.4982 66.7442 50.5408ZM71.4322 62.2208C71.0482 62.3488 70.3709 62.6742 69.4002 63.1968C68.8029 63.5275 68.3122 63.7835 67.9282 63.9648C67.5442 64.1462 67.2402 64.2368 67.0162 64.2368C66.4295 64.2368 66.1362 63.9328 66.1362 63.3248C66.1362 63.2182 66.1682 63.0795 66.2322 62.9088C66.2962 62.7275 66.3549 62.5728 66.4082 62.4448C66.4722 62.3168 66.5149 62.2262 66.5362 62.1728C66.8775 61.4475 67.1602 60.7168 67.3842 59.9808C67.6189 59.2448 67.7735 58.3648 67.8482 57.3408C67.6135 57.1915 67.4215 56.9942 67.2722 56.7488C67.1229 56.4928 67.0109 56.2422 66.9362 55.9968C66.9469 55.7622 67.0962 55.5755 67.3842 55.4368C67.6829 55.2875 68.0029 55.2128 68.3442 55.2128C68.8455 55.2128 69.1975 55.3782 69.4002 55.7088C69.6135 56.0395 69.7202 56.5568 69.7202 57.2608C69.7202 57.8582 69.5975 58.6475 69.3522 59.6288C69.1069 60.6102 68.8082 61.4368 68.4562 62.1088C68.9042 61.8528 69.4695 61.5862 70.1522 61.3088C70.8455 61.0315 71.5069 60.8288 72.1362 60.7008C72.4029 59.5168 72.6375 58.5515 72.8402 57.8048C73.0429 57.0475 73.2775 56.3968 73.5442 55.8528C73.8109 55.3088 74.1042 55.0368 74.4242 55.0368C74.9789 55.0368 75.2775 55.2715 75.3202 55.7408C75.2242 55.8368 75.0749 56.2368 74.8722 56.9408C74.6802 57.6342 74.4935 58.3862 74.3122 59.1968C74.1309 60.0075 74.0242 60.5462 73.9922 60.8128C74.2375 60.8875 74.4189 61.0422 74.5362 61.2768C74.6642 61.5008 74.7282 61.7675 74.7282 62.0768C74.7282 62.3862 74.6589 62.7062 74.5202 63.0368C74.3815 63.3675 74.1682 63.6448 73.8802 63.8688C73.6029 64.0928 73.2509 64.2048 72.8242 64.2048C72.4615 64.2048 72.1362 64.0608 71.8482 63.7728C71.5602 63.4848 71.4162 63.1062 71.4162 62.6368C71.4162 62.4662 71.4215 62.3275 71.4322 62.2208ZM80.2132 50.4128C80.0425 50.6475 79.7599 50.9728 79.3652 51.3888C78.9705 51.7942 78.5759 52.1568 78.1812 52.4768C77.7865 52.7968 77.4772 52.9568 77.2532 52.9568C77.0185 52.9568 76.7839 52.8395 76.5492 52.6048C76.3145 52.3595 76.1225 52.0662 75.9732 51.7248C75.8239 51.3835 75.7492 51.0742 75.7492 50.7968C75.7492 50.2315 75.8612 49.8048 76.0852 49.5168C76.2985 49.2288 76.6879 49.0848 77.2532 49.0848C77.2959 49.1168 77.3492 49.1808 77.4132 49.2768C77.4772 49.3622 77.5252 49.4262 77.5572 49.4688C77.3545 49.9168 77.2532 50.3488 77.2532 50.7648C77.2532 50.8928 77.2799 51.0315 77.3332 51.1808C77.3865 51.3195 77.4452 51.4262 77.5092 51.5008C77.7225 51.3088 77.8932 51.1488 78.0212 51.0208C78.5439 50.5088 79.0132 50.0982 79.4292 49.7888C79.8452 49.4688 80.2879 49.2502 80.7572 49.1328C81.0452 49.1328 81.3119 49.2875 81.5572 49.5968C81.8025 49.8955 81.9252 50.2048 81.9252 50.5248L81.3812 52.5728C79.7919 58.6208 78.9599 61.8262 78.8852 62.1888C78.8639 62.2742 78.8532 62.3755 78.8532 62.4928C78.8532 62.5995 78.8692 62.6688 78.9012 62.7008C78.9332 62.7222 78.9705 62.7328 79.0132 62.7328C79.1519 62.7328 79.3012 62.6635 79.4612 62.5248C79.6212 62.3862 79.7439 62.2315 79.8292 62.0608C80.1172 62.1568 80.3092 62.2902 80.4052 62.4608C80.5012 62.6315 80.5492 62.8235 80.5492 63.0368C80.5492 63.4102 80.3199 63.7142 79.8612 63.9488C79.4025 64.1728 78.8799 64.2848 78.2932 64.2848C77.9732 64.2848 77.6852 64.1355 77.4292 63.8368C77.1839 63.5275 77.0612 63.1595 77.0612 62.7328C77.0612 62.5088 77.5145 60.6475 78.4212 57.1488C79.3279 53.6395 79.9252 51.3942 80.2132 50.4128ZM83.6358 62.7008C83.9345 62.7008 84.2705 62.5622 84.6438 62.2848C85.0278 62.0075 85.3531 61.6662 85.6198 61.2608C85.8971 60.8448 86.0518 60.4502 86.0838 60.0768C85.7745 59.9062 85.5611 59.6128 85.4438 59.1968C85.4545 58.9515 85.5718 58.7595 85.7958 58.6208C86.0198 58.4822 86.2918 58.4128 86.6118 58.4128C86.6118 58.3915 86.7131 58.4075 86.9158 58.4608C87.1185 58.5142 87.2998 58.6102 87.4598 58.7488C87.6305 58.8768 87.7158 59.0688 87.7158 59.3248C87.7158 60.0395 87.5238 60.7755 87.1398 61.5328C86.7665 62.2795 86.2491 62.9035 85.5878 63.4048C84.9265 63.8955 84.2011 64.1408 83.4118 64.1408C82.7078 64.1408 82.2491 63.9275 82.0358 63.5008C81.8331 63.0742 81.7318 62.5248 81.7318 61.8528C81.7318 61.2022 81.8705 60.3488 82.1478 59.2928C82.4251 58.2262 82.9638 57.2448 83.7638 56.3488C84.5745 55.4422 85.7051 54.9888 87.1558 54.9888C87.7318 54.9888 88.3025 55.1115 88.8678 55.3568C89.4331 55.5915 89.8971 55.9488 90.2598 56.4288C90.6331 56.8982 90.8198 57.4688 90.8198 58.1408C90.8198 58.2902 90.8145 58.4075 90.8038 58.4928C90.7291 59.2182 90.6065 59.9862 90.4358 60.7968C90.2758 61.6075 90.0518 62.6155 89.7638 63.8208C89.6251 64.0875 89.4651 64.2848 89.2838 64.4128C89.1131 64.5515 88.8091 64.6208 88.3718 64.6208C88.0305 64.6208 87.8598 64.4555 87.8598 64.1248C87.8598 64.0608 87.8705 63.9648 87.8918 63.8368L88.0038 63.3568L88.3238 62.0128C88.7825 60.3062 89.0331 59.1168 89.0758 58.4448V58.3168C89.0758 57.7728 88.8998 57.3142 88.5478 56.9408C88.1958 56.5568 87.7265 56.3648 87.1398 56.3648C86.1585 56.3648 85.3905 56.7275 84.8358 57.4528C84.2811 58.1782 83.9078 58.9942 83.7158 59.9008C83.5238 60.7968 83.4278 61.5915 83.4278 62.2848C83.4278 62.5622 83.4971 62.7008 83.6358 62.7008ZM87.4167 51.5648C87.4167 51.4475 87.358 51.3888 87.2407 51.3888C87.1447 51.3888 87.038 51.4315 86.9207 51.5168C86.7927 51.5915 86.718 51.6342 86.6967 51.6448C86.5474 51.7515 86.4514 51.8048 86.4087 51.8048C86.302 51.8048 86.2007 51.7142 86.1047 51.5328C85.998 51.3408 85.9447 51.1648 85.9447 51.0048C85.9447 50.8662 86.0407 50.7168 86.2327 50.5568C86.4247 50.3968 86.6594 50.2635 86.9367 50.1568C87.2034 50.0502 87.4487 49.9968 87.6727 49.9968C88.078 49.9968 88.398 50.0608 88.6327 50.1888C88.8567 50.3062 88.9687 50.5462 88.9687 50.9088C88.9687 51.0155 88.9474 51.1808 88.9047 51.4048C88.862 51.6182 88.8034 51.7995 88.7287 51.9488C89.326 51.6075 89.966 51.2875 90.6487 50.9888C91.3314 50.6902 91.8594 50.5408 92.2327 50.5408C92.5207 50.5408 92.7607 50.5995 92.9527 50.7168C93.1447 50.8235 93.2407 51.0048 93.2407 51.2608C93.2407 51.3462 93.1927 51.4315 93.0967 51.5168C93.0114 51.6022 92.9207 51.6448 92.8247 51.6448C92.5794 51.6448 92.0994 51.7782 91.3847 52.0448C90.67 52.3115 89.9607 52.6262 89.2567 52.9888C88.5527 53.3408 88.078 53.6342 87.8327 53.8688C87.726 53.9755 87.6354 54.0288 87.5607 54.0288C87.39 54.0288 87.2247 53.9382 87.0647 53.7568C86.894 53.5755 86.8087 53.3995 86.8087 53.2288C86.8087 53.0902 86.8407 52.9515 86.9047 52.8128C86.958 52.6635 87.0434 52.4715 87.1607 52.2368C87.182 52.1942 87.23 52.0982 87.3047 51.9488C87.3794 51.7888 87.4167 51.6608 87.4167 51.5648ZM99.0967 56.6848C99.086 56.5675 99.054 56.4768 99.0007 56.4128C98.9474 56.3382 98.8514 56.3008 98.7127 56.3008C98.254 56.4928 97.7847 56.8875 97.3047 57.4848C96.8354 58.0822 96.4034 58.7275 96.0087 59.4208C95.6247 60.1142 95.15 61.0102 94.5847 62.1088C94.1687 62.9622 93.838 63.5915 93.5927 63.9968C93.5714 64.0715 93.4967 64.1515 93.3687 64.2368C93.2514 64.3328 93.1554 64.3808 93.0807 64.3808C92.782 64.3808 92.494 64.3062 92.2167 64.1568C91.9394 64.0075 91.79 63.7675 91.7687 63.4368C92.59 61.3675 93.0914 59.3355 93.2727 57.3408C93.038 57.1915 92.846 56.9942 92.6967 56.7488C92.5474 56.4928 92.4354 56.2422 92.3607 55.9968C92.3714 55.7622 92.5207 55.5755 92.8087 55.4368C93.1074 55.2875 93.4274 55.2128 93.7687 55.2128C94.2487 55.2128 94.574 55.3888 94.7447 55.7408C94.9154 56.0822 95.0007 56.6262 95.0007 57.3728C95.0007 57.7462 94.9047 58.3488 94.7127 59.1808C94.926 58.6902 95.246 58.1248 95.6727 57.4848C96.0994 56.8448 96.6167 56.2688 97.2247 55.7568C97.8327 55.2448 98.4674 54.9888 99.1287 54.9888C99.534 54.9888 99.8487 55.0795 100.073 55.2608C100.307 55.4315 100.473 55.6448 100.569 55.9008C100.675 56.1568 100.777 56.5035 100.873 56.9408C100.777 57.0368 100.601 57.4528 100.345 58.1888C100.099 58.9142 99.8754 59.7088 99.6727 60.5728C99.47 61.4368 99.3687 62.1462 99.3687 62.7008C99.3687 62.9782 99.4007 63.2075 99.4647 63.3888C99.358 63.6875 99.1874 63.9115 98.9527 64.0608C98.718 64.2208 98.4514 64.3008 98.1527 64.3008C97.9714 64.3008 97.8114 64.2155 97.6727 64.0448C97.534 63.8742 97.438 63.6875 97.3847 63.4848C97.3954 62.8235 97.5554 61.9222 97.8647 60.7808C98.174 59.6395 98.5847 58.2742 99.0967 56.6848ZM101.435 53.1968C101.403 53.3568 101.302 53.4742 101.131 53.5488C100.961 53.6128 100.774 53.6448 100.571 53.6448C100.39 53.6448 100.209 53.5862 100.027 53.4688C99.846 53.3408 99.6006 53.1382 99.2913 52.8608C98.8646 52.4768 98.486 52.1835 98.1553 51.9808C97.814 51.7782 97.43 51.6768 97.0033 51.6768C96.662 51.6768 96.3153 51.7408 95.9633 51.8688C95.6006 51.9862 95.4193 52.1568 95.4193 52.3808C95.4193 52.5515 95.5473 52.7008 95.8033 52.8288C96.0593 52.9462 96.358 53.0368 96.6993 53.1008C97.03 53.1542 97.3073 53.1808 97.5313 53.1808L98.2993 53.1648C98.438 53.1542 98.614 53.1488 98.8273 53.1488C99.062 53.1488 99.1793 53.2128 99.1793 53.3408C99.1793 53.5328 99.0833 53.6982 98.8913 53.8368C98.6886 53.9755 98.454 54.0822 98.1873 54.1568C97.91 54.2315 97.67 54.2688 97.4673 54.2688C96.8486 54.2688 96.246 54.1995 95.6593 54.0608C95.062 53.9222 94.5766 53.7195 94.2033 53.4528C93.8193 53.1862 93.6273 52.8662 93.6273 52.4928C93.6273 52.0875 93.8246 51.7248 94.2193 51.4048C94.6033 51.0848 95.0726 50.8395 95.6273 50.6688C96.1713 50.4875 96.6566 50.3968 97.0833 50.3968C97.766 50.3968 98.3473 50.5142 98.8273 50.7488C99.3073 50.9728 99.7766 51.3462 100.235 51.8688C100.321 51.9648 100.411 52.0555 100.507 52.1408L101.003 49.5488C101.014 49.4422 101.121 49.3515 101.323 49.2768C101.526 49.1915 101.713 49.1488 101.883 49.1488C102.086 49.1488 102.251 49.2075 102.379 49.3248C102.507 49.4315 102.641 49.6288 102.779 49.9168L101.435 53.1968ZM103.772 46.0128C103.729 46.1728 103.596 46.5515 103.372 47.1488C103.34 47.2342 103.286 47.3782 103.212 47.5808C103.137 47.7728 103.073 47.9542 103.02 48.1248C102.977 48.2742 102.892 48.4182 102.764 48.5568C102.636 48.6848 102.433 48.7488 102.156 48.7488C102.006 48.7488 101.884 48.6635 101.788 48.4928C101.702 48.3222 101.66 48.1408 101.66 47.9488C101.66 47.7568 101.702 47.4368 101.788 46.9888C101.873 46.5302 101.996 46.1195 102.156 45.7568C102.326 45.3942 102.518 45.2128 102.732 45.2128C102.934 45.2128 103.164 45.2715 103.42 45.3888C103.676 45.4955 103.809 45.6235 103.82 45.7728C103.82 45.8048 103.814 45.8422 103.804 45.8848C103.793 45.9168 103.782 45.9595 103.772 46.0128ZM108.584 64.3328C107.538 64.3328 106.776 64.1248 106.296 63.7088C105.816 63.2928 105.576 62.7382 105.576 62.0448C105.576 61.0315 105.826 60.0928 106.328 59.2288C106.84 58.3648 107.517 57.6822 108.36 57.1808C109.213 56.6688 110.13 56.4128 111.112 56.4128C111.709 56.4128 112.21 56.5835 112.616 56.9248C113.021 57.2555 113.224 57.7462 113.224 58.3968C113.224 58.7702 113.101 59.0795 112.856 59.3248C112.621 59.5595 112.28 59.7728 111.832 59.9648C111.384 60.1462 110.658 60.4075 109.656 60.7488C108.749 61.0475 108.013 61.2982 107.448 61.5008C107.405 61.6608 107.384 61.8262 107.384 61.9968C107.384 62.2955 107.506 62.5248 107.752 62.6848C108.008 62.8448 108.365 62.9248 108.824 62.9248C109.112 62.9248 109.442 62.8662 109.816 62.7488C110.189 62.6315 110.424 62.4822 110.52 62.3008C110.882 61.6395 111.213 61.3088 111.512 61.3088C111.949 61.3088 112.242 61.3942 112.392 61.5648C112.552 61.7248 112.637 61.9062 112.648 62.1088C112.52 62.4502 112.269 62.7968 111.896 63.1488C111.522 63.4902 111.048 63.7728 110.472 63.9968C109.896 64.2208 109.266 64.3328 108.584 64.3328ZM107.896 60.0288C108.952 59.6875 109.821 59.3728 110.504 59.0848C111.186 58.7862 111.528 58.4928 111.528 58.2048C111.528 58.0768 111.458 57.9755 111.32 57.9008C111.181 57.8155 111.032 57.7728 110.872 57.7728C110.552 57.7728 110.184 57.8955 109.768 58.1408C109.362 58.3862 108.984 58.6848 108.632 59.0368C108.28 59.3888 108.034 59.7195 107.896 60.0288ZM117.746 55.2928C116.541 60.3595 115.832 63.2555 115.618 63.9808C115.597 64.0448 115.485 64.1248 115.282 64.2208C115.09 64.3275 114.957 64.3808 114.882 64.3808C114.584 64.3808 114.296 64.3062 114.018 64.1568C113.741 64.0075 113.592 63.7675 113.57 63.4368C113.581 63.4155 113.634 63.3035 113.73 63.1008C113.826 62.8982 113.922 62.6102 114.018 62.2368C114.264 61.3195 114.541 60.2315 114.85 58.9728C115.17 57.7142 115.384 56.8715 115.49 56.4448L116.242 53.3888C116.232 53.3035 116.226 52.8608 116.226 52.0608C116.258 51.9222 116.376 51.8102 116.578 51.7248C116.792 51.6395 116.984 51.5968 117.154 51.5968C117.421 51.5968 117.693 51.6875 117.97 51.8688C118.258 52.0502 118.408 52.2688 118.418 52.5248L117.746 55.2928ZM121.365 64.3328C120.319 64.3328 119.557 64.1248 119.077 63.7088C118.597 63.2928 118.357 62.7382 118.357 62.0448C118.357 61.0315 118.607 60.0928 119.109 59.2288C119.621 58.3648 120.298 57.6822 121.141 57.1808C121.994 56.6688 122.911 56.4128 123.893 56.4128C124.49 56.4128 124.991 56.5835 125.397 56.9248C125.802 57.2555 126.005 57.7462 126.005 58.3968C126.005 59.1222 125.733 59.6982 125.189 60.1248C124.655 60.5408 123.978 60.8502 123.157 61.0528C122.346 61.2448 121.37 61.3942 120.229 61.5008C120.186 61.6608 120.165 61.8262 120.165 61.9968C120.165 62.2955 120.287 62.5248 120.533 62.6848C120.789 62.8448 121.146 62.9248 121.605 62.9248C121.946 62.9248 122.335 62.8555 122.773 62.7168C123.221 62.5782 123.562 62.3488 123.797 62.0288C123.925 61.8475 124.085 61.7035 124.277 61.5968C124.479 61.4902 124.671 61.4368 124.853 61.4368C125.023 61.4368 125.162 61.4955 125.269 61.6128C125.375 61.7195 125.429 61.8848 125.429 62.1088C125.301 62.4502 125.05 62.7968 124.677 63.1488C124.303 63.4902 123.829 63.7728 123.253 63.9968C122.677 64.2208 122.047 64.3328 121.365 64.3328ZM120.677 60.0288C121.05 60.0182 121.519 59.9595 122.085 59.8528C122.65 59.7462 123.162 59.5595 123.621 59.2928C124.079 59.0155 124.309 58.6528 124.309 58.2048C124.309 58.0768 124.239 57.9755 124.101 57.9008C123.962 57.8155 123.813 57.7728 123.653 57.7728C123.333 57.7728 122.965 57.8955 122.549 58.1408C122.143 58.3862 121.765 58.6848 121.413 59.0368C121.061 59.3888 120.815 59.7195 120.677 60.0288ZM133.088 62.5408C132.896 63.0848 132.517 63.5222 131.952 63.8528C131.386 64.1728 130.597 64.3328 129.584 64.3328C128.88 64.3328 128.298 64.2102 127.84 63.9648C127.381 63.7195 127.045 63.3995 126.832 63.0048C126.618 62.6102 126.512 62.1835 126.512 61.7248C126.512 60.7008 126.714 59.7888 127.12 58.9888C127.525 58.1782 128.096 57.5488 128.832 57.1008C129.578 56.6422 130.442 56.4128 131.424 56.4128C132.042 56.4128 132.576 56.5942 133.024 56.9568C133.472 57.3195 133.696 57.7995 133.696 58.3968C133.696 58.6315 133.61 58.8288 133.44 58.9888C133.28 59.1382 133.045 59.2128 132.736 59.2128C132.48 59.2128 132.298 59.1488 132.192 59.0208C132.085 58.8822 132.032 58.7222 132.032 58.5408C132.032 58.3062 131.952 58.1195 131.792 57.9808C131.632 57.8422 131.429 57.7728 131.184 57.7728C130.864 57.7728 130.48 57.9435 130.032 58.2848C129.594 58.6262 129.216 59.1008 128.896 59.7088C128.586 60.3062 128.432 60.9782 128.432 61.7248C128.432 62.0555 128.554 62.3382 128.8 62.5728C129.045 62.8075 129.386 62.9248 129.824 62.9248C130.186 62.9248 130.48 62.8555 130.704 62.7168C130.928 62.5782 131.168 62.3808 131.424 62.1248C131.584 61.9648 131.717 61.8475 131.824 61.7728C131.93 61.6982 132.042 61.6608 132.16 61.6608C132.416 61.6608 132.624 61.7355 132.784 61.8848C132.944 62.0235 133.045 62.2422 133.088 62.5408ZM135.52 58.4288C135.392 58.4288 135.296 58.3808 135.232 58.2848C135.168 58.1782 135.136 58.0448 135.136 57.8848C135.136 57.6608 135.221 57.4102 135.392 57.1328C135.488 57.0368 136.005 56.9355 136.944 56.8288L137.632 53.7248C137.707 53.3835 137.829 53.1328 138 52.9728C138.181 52.8022 138.379 52.7168 138.592 52.7168C138.848 52.7168 139.077 52.8075 139.28 52.9888C139.493 53.1702 139.605 53.3835 139.616 53.6288C139.616 53.6928 139.605 53.7782 139.584 53.8848L138.896 56.6368C139.6 56.5835 140.053 56.5568 140.256 56.5568C140.437 56.5568 140.608 56.5995 140.768 56.6848C140.939 56.7595 141.072 56.8502 141.168 56.9568C141.264 57.0635 141.312 57.1542 141.312 57.2288C141.312 57.4102 141.237 57.5755 141.088 57.7248C140.949 57.8635 140.789 57.9488 140.608 57.9808L138.512 58.1728L137.136 63.6768C136.976 64.1248 136.757 64.3488 136.48 64.3488C136.256 64.3488 136.053 64.2102 135.872 63.9328C135.701 63.6555 135.616 63.3408 135.616 62.9888C135.616 62.8502 135.632 62.7115 135.664 62.5728L136.608 58.3328L135.52 58.4288ZM142.869 54.4928C142.869 54.1515 142.997 53.8315 143.253 53.5328C143.509 53.2342 143.824 53.0848 144.197 53.0848C144.581 53.0848 144.88 53.2022 145.093 53.4368C145.317 53.6715 145.434 53.9542 145.445 54.2848C145.445 54.6048 145.306 54.8982 145.029 55.1648C144.752 55.4315 144.421 55.5648 144.037 55.5648C143.653 55.5648 143.36 55.4688 143.157 55.2768C142.965 55.0742 142.869 54.8128 142.869 54.4928ZM141.493 62.9248C141.493 62.6582 141.936 60.7382 142.821 57.1648C142.832 56.7808 142.901 56.5248 143.029 56.3968C143.168 56.2688 143.397 56.2048 143.717 56.2048C143.984 56.2048 144.197 56.2902 144.357 56.4608C144.528 56.6208 144.613 56.8288 144.613 57.0848C144.613 57.1382 144.602 57.2182 144.581 57.3248L143.269 63.0848L143.205 63.5168C143.194 63.6875 143.168 63.8048 143.125 63.8688C143.082 63.9328 142.976 63.9755 142.805 63.9968C142.645 64.0288 142.357 64.0448 141.941 64.0448C141.738 64.0448 141.6 64.0075 141.525 63.9328C141.45 63.8582 141.413 63.7515 141.413 63.6128C141.413 63.4848 141.429 63.3675 141.461 63.2608C141.482 63.0902 141.493 62.9782 141.493 62.9248ZM148.603 64.3328C147.664 64.3328 146.934 64.0128 146.411 63.3728C145.888 62.7328 145.627 61.9168 145.627 60.9248C145.627 60.0928 145.824 59.3088 146.219 58.5728C146.624 57.8368 147.174 57.2448 147.867 56.7968C148.56 56.3488 149.323 56.1248 150.155 56.1248C150.976 56.1248 151.648 56.3968 152.171 56.9408C152.704 57.4742 152.971 58.2635 152.971 59.3088C152.971 60.0448 152.768 60.8075 152.363 61.5968C151.958 62.3862 151.414 63.0422 150.731 63.5648C150.059 64.0768 149.35 64.3328 148.603 64.3328ZM148.843 63.0528C149.184 63.0528 149.526 62.8395 149.867 62.4128C150.219 61.9862 150.507 61.4475 150.731 60.7968C150.955 60.1462 151.067 59.5115 151.067 58.8928C151.067 57.9435 150.672 57.4688 149.883 57.4688C149.446 57.4688 149.046 57.6768 148.683 58.0928C148.32 58.5088 148.032 59.0262 147.819 59.6448C147.606 60.2528 147.499 60.8235 147.499 61.3568C147.499 61.6662 147.568 61.9542 147.707 62.2208C147.846 62.4768 148.016 62.6795 148.219 62.8288C148.432 62.9782 148.64 63.0528 148.843 63.0528ZM154.664 56.6848C154.632 56.6528 154.616 56.6155 154.616 56.5728C154.616 56.4662 154.733 56.3808 154.968 56.3168C155.203 56.2422 155.528 56.2048 155.944 56.2048C156.328 56.2048 156.611 56.3062 156.792 56.5088C156.973 56.7008 157.08 56.9355 157.112 57.2128L156.824 58.2528C157.048 57.9435 157.363 57.6502 157.768 57.3728C158.173 57.0848 158.584 56.8555 159 56.6848C159.416 56.5142 159.757 56.4288 160.024 56.4288C160.589 56.4288 161 56.5355 161.256 56.7488C161.512 56.9515 161.64 57.2768 161.64 57.7248C161.011 59.3675 160.595 61.1382 160.392 63.0368L160.616 63.8208C160.488 64.0662 160.307 64.2582 160.072 64.3968C159.848 64.5462 159.517 64.6208 159.08 64.6208C158.824 64.6208 158.637 64.5355 158.52 64.3648C158.403 64.1942 158.344 63.9808 158.344 63.7248C158.344 63.0102 158.445 62.2262 158.648 61.3728C158.861 60.5088 159.107 59.6288 159.384 58.7328C159.491 58.3915 159.544 58.2155 159.544 58.2048C159.544 58.0555 159.459 57.9808 159.288 57.9808C159.053 57.9808 158.696 58.1462 158.216 58.4768C157.747 58.8075 157.261 59.3675 156.76 60.1568C156.259 60.9355 155.853 61.9595 155.544 63.2288C155.523 63.2928 155.496 63.4102 155.464 63.5808C155.432 63.7515 155.347 63.8742 155.208 63.9488C155.069 64.0128 154.845 64.0448 154.536 64.0448C154.184 64.0448 153.923 64.0075 153.752 63.9328C153.592 63.8582 153.512 63.6982 153.512 63.4528C153.544 63.3035 153.592 63.1222 153.656 62.9088C154.275 60.4235 154.749 58.5088 155.08 57.1648L154.664 56.6848ZM165.625 64.4608C164.558 64.4608 163.726 64.2208 163.129 63.7408C162.532 63.2502 162.233 62.5355 162.233 61.5968C162.233 60.1782 162.708 58.8448 163.657 57.5968C164.606 56.3488 165.94 55.0475 167.657 53.6928C168.062 53.3835 168.388 53.2288 168.633 53.2288C168.921 53.2288 169.161 53.2928 169.353 53.4208C169.545 53.5488 169.641 53.7195 169.641 53.9328C169.641 54.0715 169.55 54.2315 169.369 54.4128C169.188 54.5942 168.889 54.8555 168.473 55.1968C167.918 55.6448 167.428 56.0662 167.001 56.4608C166.585 56.8555 166.185 57.3035 165.801 57.8048C166.473 57.4208 167.049 57.2288 167.529 57.2288C168.404 57.2288 169.086 57.4688 169.577 57.9488C170.068 58.4182 170.313 59.1275 170.313 60.0768C170.313 60.9088 170.11 61.6608 169.705 62.3328C169.3 62.9942 168.74 63.5168 168.025 63.9008C167.31 64.2742 166.51 64.4608 165.625 64.4608ZM164.745 59.6128C164.468 60.2102 164.329 60.7702 164.329 61.2928C164.329 61.8155 164.446 62.2155 164.681 62.4928C164.926 62.7595 165.262 62.8928 165.689 62.8928C166.105 62.8928 166.505 62.7808 166.889 62.5568C167.273 62.3328 167.582 62.0128 167.817 61.5968C168.062 61.1702 168.185 60.6795 168.185 60.1248C168.185 59.7302 168.041 59.4048 167.753 59.1488C167.465 58.8822 167.113 58.7488 166.697 58.7488C166.388 58.7488 166.046 58.8395 165.673 59.0208C165.31 59.1915 165.001 59.3888 164.745 59.6128ZM172.975 64.5408C172.633 64.5408 172.34 64.4928 172.095 64.3968C171.86 64.3115 171.743 64.1675 171.743 63.9648C171.743 63.7622 171.823 63.5968 171.983 63.4688C172.143 63.3408 172.367 63.2608 172.655 63.2288C173.572 63.1222 174.463 62.8235 175.327 62.3328C176.201 61.8422 176.937 61.1062 177.535 60.1248C176.969 60.4875 176.351 60.6688 175.679 60.6688C175.156 60.6688 174.633 60.5408 174.111 60.2848C173.599 60.0288 173.177 59.6555 172.847 59.1648C172.516 58.6742 172.351 58.0928 172.351 57.4208C172.351 56.5568 172.548 55.8155 172.943 55.1968C173.337 54.5782 173.876 54.1088 174.559 53.7888C175.241 53.4688 176.004 53.3088 176.847 53.3088C178.084 53.3088 178.964 53.6608 179.487 54.3648C180.009 55.0688 180.271 55.9275 180.271 56.9408C180.271 58.2422 179.94 59.4795 179.279 60.6528C178.628 61.8262 177.743 62.7702 176.623 63.4848C175.503 64.1888 174.287 64.5408 172.975 64.5408ZM176.815 54.9088C176.079 54.9088 175.481 55.1382 175.023 55.5968C174.564 56.0448 174.335 56.6848 174.335 57.5168C174.335 57.9115 174.5 58.2582 174.831 58.5568C175.172 58.8555 175.577 59.0048 176.047 59.0048C176.655 59.0048 177.177 58.8022 177.615 58.3968C178.063 57.9915 178.287 57.3942 178.287 56.6048C178.287 56.1142 178.164 55.7088 177.919 55.3888C177.684 55.0688 177.316 54.9088 176.815 54.9088ZM182.595 64.5248C182.296 64.5248 182.035 64.4342 181.811 64.2528C181.597 64.0715 181.491 63.8582 181.491 63.6128C181.491 63.2502 181.645 62.9355 181.955 62.6688C182.264 62.4022 182.6 62.2688 182.963 62.2688C183.283 62.2688 183.544 62.3702 183.747 62.5728C183.96 62.7755 184.067 63.0155 184.067 63.2928C184.067 63.6235 183.917 63.9115 183.619 64.1568C183.32 64.4022 182.979 64.5248 182.595 64.5248ZM191.183 60.5408C190.81 61.7142 190.33 62.6315 189.743 63.2928C189.167 63.9542 188.58 64.2848 187.983 64.2848C186.916 64.2848 186.383 63.3248 186.383 61.4048C186.383 60.5942 186.431 59.8475 186.527 59.1648C186.623 58.4715 186.756 57.7728 186.927 57.0688C186.97 56.8768 187.076 56.7168 187.247 56.5888C187.428 56.4608 187.663 56.3968 187.951 56.3968C188.506 56.3968 188.783 56.6422 188.783 57.1328C188.783 57.2075 188.74 57.4155 188.655 57.7568C188.495 58.5355 188.367 59.2022 188.271 59.7568C188.186 60.3115 188.143 60.8395 188.143 61.3408C188.143 61.7355 188.175 62.0608 188.239 62.3168C188.314 62.5622 188.431 62.6848 188.591 62.6848C188.879 62.6848 189.172 62.3648 189.471 61.7248C189.78 61.0848 190.058 60.3222 190.303 59.4368C190.548 58.5408 190.74 57.7142 190.879 56.9568C190.9 56.8182 191.002 56.6955 191.183 56.5888C191.375 56.4822 191.54 56.4288 191.679 56.4288C191.988 56.4288 192.244 56.4982 192.447 56.6368C192.66 56.7648 192.767 56.9515 192.767 57.1968C192.767 57.2502 192.735 57.4155 192.671 57.6928C192.511 58.5462 192.383 59.2715 192.287 59.8688C192.202 60.4555 192.159 61.0048 192.159 61.5168C192.159 61.8582 192.212 62.1408 192.319 62.3648C192.436 62.5782 192.58 62.6848 192.751 62.6848C193.103 62.6848 193.423 62.3808 193.711 61.7728C193.999 61.1648 194.234 60.4128 194.415 59.5168C194.596 58.6102 194.708 57.7462 194.751 56.9248C194.762 56.7862 194.831 56.6848 194.959 56.6208C195.098 56.5462 195.263 56.5088 195.455 56.5088C195.69 56.5088 195.919 56.5515 196.143 56.6368C196.367 56.7115 196.484 56.7968 196.495 56.8928C196.282 59.1542 195.887 60.9515 195.311 62.2848C194.735 63.6182 193.812 64.2848 192.543 64.2848C191.594 64.2848 191.119 63.5275 191.119 62.0128C191.119 61.5435 191.162 61.0528 191.247 60.5408H191.183ZM200.005 64.3328C198.96 64.3328 198.197 64.1248 197.717 63.7088C197.237 63.2928 196.997 62.7382 196.997 62.0448C196.997 61.0315 197.248 60.0928 197.749 59.2288C198.261 58.3648 198.939 57.6822 199.781 57.1808C200.635 56.6688 201.552 56.4128 202.533 56.4128C203.131 56.4128 203.632 56.5835 204.037 56.9248C204.443 57.2555 204.645 57.7462 204.645 58.3968C204.645 59.1222 204.373 59.6982 203.829 60.1248C203.296 60.5408 202.619 60.8502 201.797 61.0528C200.987 61.2448 200.011 61.3942 198.869 61.5008C198.827 61.6608 198.805 61.8262 198.805 61.9968C198.805 62.2955 198.928 62.5248 199.173 62.6848C199.429 62.8448 199.787 62.9248 200.245 62.9248C200.587 62.9248 200.976 62.8555 201.413 62.7168C201.861 62.5782 202.203 62.3488 202.437 62.0288C202.565 61.8475 202.725 61.7035 202.917 61.5968C203.12 61.4902 203.312 61.4368 203.493 61.4368C203.664 61.4368 203.803 61.4955 203.909 61.6128C204.016 61.7195 204.069 61.8848 204.069 62.1088C203.941 62.4502 203.691 62.7968 203.317 63.1488C202.944 63.4902 202.469 63.7728 201.893 63.9968C201.317 64.2208 200.688 64.3328 200.005 64.3328ZM199.317 60.0288C199.691 60.0182 200.16 59.9595 200.725 59.8528C201.291 59.7462 201.803 59.5595 202.261 59.2928C202.72 59.0155 202.949 58.6528 202.949 58.2048C202.949 58.0768 202.88 57.9755 202.741 57.9008C202.603 57.8155 202.453 57.7728 202.293 57.7728C201.973 57.7728 201.605 57.8955 201.189 58.1408C200.784 58.3862 200.405 58.6848 200.053 59.0368C199.701 59.3888 199.456 59.7195 199.317 60.0288ZM207.344 64.3328C206.971 64.2688 206.726 64.1888 206.608 64.0928C206.502 64.0075 206.416 63.8955 206.352 63.7568C206.299 63.6075 206.251 63.4902 206.208 63.4048C206.027 63.0315 205.856 62.3275 205.696 61.2928C205.547 60.2582 205.472 59.3088 205.472 58.4448C205.472 57.7835 205.526 57.2982 205.632 56.9888C205.771 56.5942 206.086 56.3968 206.576 56.3968C207.142 56.3968 207.424 56.6582 207.424 57.1808C207.424 57.2235 207.403 57.4475 207.36 57.8528C207.254 58.8662 207.2 59.6448 207.2 60.1888C207.2 61.3195 207.366 62.1515 207.696 62.6848C208.283 61.3942 208.982 60.0235 209.792 58.5728C210.603 57.1115 211.142 56.3808 211.408 56.3808C211.792 56.3808 212.112 56.4342 212.368 56.5408C212.624 56.6368 212.752 56.8502 212.752 57.1808C212.752 57.3195 212.646 57.5542 212.432 57.8848L211.056 60.1248C210.32 61.3515 209.766 62.2528 209.392 62.8288C209.03 63.3942 208.752 63.7675 208.56 63.9488C208.443 64.0555 208.272 64.1462 208.048 64.2208C207.835 64.2955 207.6 64.3328 207.344 64.3328ZM214.51 54.4928C214.51 54.1515 214.638 53.8315 214.894 53.5328C215.15 53.2342 215.464 53.0848 215.838 53.0848C216.222 53.0848 216.52 53.2022 216.734 53.4368C216.958 53.6715 217.075 53.9542 217.086 54.2848C217.086 54.6048 216.947 54.8982 216.67 55.1648C216.392 55.4315 216.062 55.5648 215.678 55.5648C215.294 55.5648 215 55.4688 214.798 55.2768C214.606 55.0742 214.51 54.8128 214.51 54.4928ZM213.134 62.9248C213.134 62.6582 213.576 60.7382 214.462 57.1648C214.472 56.7808 214.542 56.5248 214.67 56.3968C214.808 56.2688 215.038 56.2048 215.358 56.2048C215.624 56.2048 215.838 56.2902 215.998 56.4608C216.168 56.6208 216.254 56.8288 216.254 57.0848C216.254 57.1382 216.243 57.2182 216.222 57.3248L214.91 63.0848L214.846 63.5168C214.835 63.6875 214.808 63.8048 214.766 63.8688C214.723 63.9328 214.616 63.9755 214.446 63.9968C214.286 64.0288 213.998 64.0448 213.582 64.0448C213.379 64.0448 213.24 64.0075 213.166 63.9328C213.091 63.8582 213.054 63.7515 213.054 63.6128C213.054 63.4848 213.07 63.3675 213.102 63.2608C213.123 63.0902 213.134 62.9782 213.134 62.9248ZM222.452 57.8048C222.324 57.7408 222.164 57.7088 221.972 57.7088C221.492 57.7088 221.012 57.8048 220.532 57.9968C220.052 58.1888 219.812 58.4342 219.812 58.7328C219.812 58.9462 219.908 59.1168 220.1 59.2448C220.292 59.3728 220.596 59.5168 221.012 59.6768C221.46 59.8582 221.822 60.0288 222.1 60.1888C222.377 60.3488 222.617 60.5835 222.82 60.8928C223.033 61.1915 223.14 61.5755 223.14 62.0448C223.14 62.8128 222.82 63.4048 222.18 63.8208C221.55 64.2262 220.702 64.4288 219.636 64.4288C219.113 64.4288 218.628 64.3488 218.18 64.1888C217.732 64.0288 217.374 63.8262 217.108 63.5808C216.852 63.3248 216.713 63.0742 216.692 62.8288C216.692 62.5728 216.804 62.3648 217.028 62.2048C217.252 62.0342 217.566 61.9222 217.972 61.8688C217.982 62.0822 218.094 62.2848 218.308 62.4768C218.521 62.6582 218.772 62.8075 219.06 62.9248C219.358 63.0315 219.614 63.0848 219.828 63.0848C220.19 63.0848 220.521 62.9888 220.82 62.7968C221.118 62.5942 221.268 62.3595 221.268 62.0928C221.268 61.6022 220.793 61.2128 219.844 60.9248C219.236 60.7435 218.766 60.4555 218.436 60.0608C218.116 59.6662 217.956 59.2502 217.956 58.8128C217.956 57.9488 218.345 57.3302 219.124 56.9568C219.913 56.5728 220.916 56.3808 222.132 56.3808C222.814 56.3808 223.342 56.4608 223.716 56.6208C224.089 56.7808 224.276 57.0582 224.276 57.4528C224.276 57.7195 224.174 57.9542 223.972 58.1568C223.78 58.3595 223.502 58.4608 223.14 58.4608C222.82 58.4608 222.612 58.4395 222.516 58.3968C222.43 58.3435 222.382 58.2582 222.372 58.1408C222.372 58.0342 222.398 57.9222 222.452 57.8048ZM225.923 64.5248C225.624 64.5248 225.363 64.4342 225.139 64.2528C224.926 64.0715 224.819 63.8582 224.819 63.6128C224.819 63.2502 224.974 62.9355 225.283 62.6688C225.592 62.4022 225.928 62.2688 226.291 62.2688C226.611 62.2688 226.872 62.3702 227.075 62.5728C227.288 62.7755 227.395 63.0155 227.395 63.2928C227.395 63.6235 227.246 63.9115 226.947 64.1568C226.648 64.4022 226.307 64.5248 225.923 64.5248ZM231.199 54.4928C231.199 54.1622 231.3 53.8688 231.503 53.6128C231.716 53.3568 232.01 53.2288 232.383 53.2288C232.778 53.2288 233.119 53.3515 233.407 53.5968C233.706 53.8422 233.855 54.1195 233.855 54.4288C233.855 54.7382 233.706 55.0048 233.407 55.2288C233.108 55.4528 232.762 55.5648 232.367 55.5648C231.983 55.5648 231.69 55.4688 231.487 55.2768C231.295 55.0742 231.199 54.8128 231.199 54.4928ZM232.879 57.3248C232.314 59.6288 231.882 61.3622 231.583 62.5248C231.54 62.6955 231.519 62.8822 231.519 63.0848L231.535 63.5328C231.535 63.7142 231.476 63.8422 231.359 63.9168C231.252 63.9915 231.018 64.0342 230.655 64.0448C230.303 64.0448 230.036 64.0075 229.855 63.9328C229.674 63.8582 229.583 63.6982 229.583 63.4528C229.583 63.3355 229.716 62.7115 229.983 61.5808C230.26 60.4502 230.634 58.9782 231.103 57.1648L230.735 56.6848C230.703 56.6528 230.687 56.6155 230.687 56.5728C230.687 56.4662 230.804 56.3808 231.039 56.3168C231.274 56.2422 231.599 56.2048 232.015 56.2048C232.378 56.2048 232.607 56.3115 232.703 56.5248C232.81 56.7275 232.868 56.9942 232.879 57.3248ZM235.445 56.2368C235.968 55.9702 236.384 55.8368 236.693 55.8368C237.056 55.8368 237.258 56.0235 237.301 56.3968L236.773 58.3648C236.997 58.0555 237.328 57.7515 237.765 57.4528C238.202 57.1542 238.64 56.9088 239.077 56.7168C239.525 56.5248 239.882 56.4288 240.149 56.4288C240.714 56.4288 241.125 56.5355 241.381 56.7488C241.637 56.9515 241.765 57.2768 241.765 57.7248C241.658 58.3222 241.498 59.0422 241.285 59.8848C241.072 60.7168 240.938 61.2448 240.885 61.4688C240.65 62.3435 240.485 62.9995 240.389 63.4368C240.325 63.7035 240.261 63.8902 240.197 63.9968C240.144 64.0928 240.042 64.1622 239.893 64.2048C239.754 64.2475 239.509 64.2688 239.157 64.2688C238.965 64.2688 238.784 64.2368 238.613 64.1728C238.453 64.1088 238.373 64.0022 238.373 63.8528C238.405 63.5008 238.512 62.9622 238.693 62.2368C238.885 61.5008 239.141 60.5515 239.461 59.3888C239.674 58.6635 239.781 58.2688 239.781 58.2048C239.781 58.0555 239.696 57.9808 239.525 57.9808C239.28 57.9808 238.912 58.1515 238.421 58.4928C237.93 58.8235 237.424 59.3835 236.901 60.1728C236.378 60.9515 235.968 61.9702 235.669 63.2288C235.648 63.2928 235.621 63.4102 235.589 63.5808C235.557 63.7515 235.472 63.8742 235.333 63.9488C235.194 64.0128 234.97 64.0448 234.661 64.0448C234.309 64.0448 234.048 64.0075 233.877 63.9328C233.717 63.8582 233.637 63.6982 233.637 63.4528L233.813 62.7648C234.442 60.3008 234.986 58.1248 235.445 56.2368ZM250.278 53.2288C250.246 53.6022 250.139 53.8582 249.958 53.9968C249.777 54.1248 249.579 54.1888 249.366 54.1888C249.313 54.1888 249.254 54.1835 249.19 54.1728C249.137 54.1622 249.003 54.1568 248.79 54.1568C248.427 54.1568 248.091 54.2528 247.782 54.4448C247.473 54.6368 247.281 54.8928 247.206 55.2128L246.95 56.3488L248.63 56.2848C249.014 56.2848 249.206 56.5195 249.206 56.9888C249.206 57.1702 249.131 57.3355 248.982 57.4848C248.833 57.6235 248.667 57.7088 248.486 57.7408L246.598 57.8368L245.238 63.6128C245.153 63.7835 245.019 63.9328 244.838 64.0608C244.657 64.1888 244.459 64.2528 244.246 64.2528C244.054 64.2528 243.857 64.1782 243.654 64.0288C243.451 63.8902 243.345 63.7035 243.334 63.4688V63.3728L244.63 57.9328H243.478C243.307 57.9328 243.179 57.8902 243.094 57.8048C243.009 57.7088 242.966 57.5862 242.966 57.4368C242.966 57.1702 243.062 56.9035 243.254 56.6368C243.265 56.6048 243.531 56.5728 244.054 56.5408C244.513 56.5195 244.833 56.4982 245.014 56.4768L245.238 55.4688C245.462 54.4235 245.835 53.6822 246.358 53.2448C246.891 52.8075 247.633 52.5888 248.582 52.5888C249.019 52.5888 249.35 52.6422 249.574 52.7488C249.809 52.8448 250.043 53.0048 250.278 53.2288ZM252.415 64.1568C251.477 64.1568 250.746 63.8368 250.223 63.1968C249.701 62.5568 249.439 61.7408 249.439 60.7488C249.439 59.9168 249.615 59.1542 249.967 58.4608C250.33 57.7675 250.831 57.2235 251.471 56.8288C252.122 56.4235 252.863 56.2208 253.695 56.2208C254.623 56.2208 255.247 56.3008 255.567 56.4608C255.663 56.5035 255.749 56.5728 255.823 56.6688C255.898 56.7542 255.935 56.8395 255.935 56.9248C255.935 57.0315 255.909 57.1435 255.855 57.2608C255.813 57.3782 255.743 57.4688 255.647 57.5328C255.893 57.5542 256.101 57.6768 256.271 57.9008C256.442 58.1142 256.57 58.3648 256.655 58.6528C256.741 58.9408 256.783 59.1915 256.783 59.4048C256.783 60.1622 256.597 60.9088 256.223 61.6448C255.861 62.3808 255.349 62.9835 254.687 63.4528C254.026 63.9222 253.269 64.1568 252.415 64.1568ZM252.655 62.8288C252.997 62.8288 253.343 62.6635 253.695 62.3328C254.058 61.9915 254.357 61.5435 254.591 60.9888C254.826 60.4342 254.943 59.8528 254.943 59.2448C254.943 59.1275 254.901 59.0208 254.815 58.9248C254.741 58.8288 254.634 58.7275 254.495 58.6208C254.421 58.5675 254.351 58.5142 254.287 58.4608C254.234 58.3968 254.207 58.3382 254.207 58.2848C254.207 58.2422 254.218 58.1835 254.239 58.1088C254.271 58.0342 254.287 57.9808 254.287 57.9488C254.287 57.7888 254.09 57.7088 253.695 57.7088C253.258 57.7088 252.853 57.8848 252.479 58.2368C252.117 58.5888 251.829 59.0368 251.615 59.5808C251.413 60.1248 251.311 60.6582 251.311 61.1808C251.311 61.4902 251.381 61.7728 251.519 62.0288C251.658 62.2742 251.829 62.4715 252.031 62.6208C252.245 62.7595 252.453 62.8288 252.655 62.8288Z" fill="#6140D2"/>
<defs>
<clipPath id="clip0_103_14028">
<rect width="28.0291" height="32.7772" fill="white" transform="translate(200.132 12.6113)"/>
</clipPath>
</defs>
</svg>
