<svg width="48" height="40" viewBox="0 0 48 40" fill="none" xmlns="http://www.w3.org/2000/svg">
<path d="M40.8654 37.2816L39.4961 37.2417L38.0492 36.6465L36.4535 36.8247L34.9982 36.2798L33.5346 35.7621L31.9619 35.8229L30.5172 35.2172L28.9592 35.1962L27.4808 34.754L25.9354 34.6765L24.4152 34.4522L22.9578 33.9073L21.4208 33.7774L19.9466 33.3268L18.4348 33.0669L16.9208 32.807L15.3565 32.8259L13.9117 32.2097L12.4376 31.7591L10.8545 31.8639L9.37824 31.4028L7.72168 31.2792L8.40108 29.7702L8.58351 28.2863L8.93369 26.836L9.25242 25.3794L9.21258 23.8537L9.75568 22.4411L9.6718 20.907L9.92762 19.4378L10.6427 18.0567L10.8943 16.5854L10.8691 15.0639L11.2822 13.624L11.4332 12.136L11.8924 10.7046L12.3433 9.27313L12.5026 7.7851L12.6033 6.2866L12.836 4.81324L13.4546 3.41114L13.2554 1.85396L13.7713 0.500061L15.1992 0.850062L16.73 1.01144L18.202 1.47671L19.781 1.3803L21.2341 1.94827L22.7565 2.14946L24.2201 2.66294L25.8201 2.45965L27.2439 3.19108L28.8375 3.02132L30.3242 3.40695L31.8277 3.71294L33.3459 3.95186L34.7718 4.65606L36.3696 4.46743L37.8458 4.90965L39.3703 5.10037L40.8318 5.6348L42.3039 6.10007L43.8304 6.2866L45.3926 6.29917L46.9276 6.69738L46.3656 8.15606L46.2901 9.65876L45.9001 11.1028L45.6338 12.5698L45.5457 14.0704L44.9397 15.4725L44.621 16.9291L44.8894 18.4989L44.5413 19.9492L44.0212 21.3681L44.0883 22.9001L43.2873 24.2645L42.9749 25.7232L42.9434 27.2342L42.8155 28.7285L42.1697 30.1223L42.3563 31.6774L41.6832 33.0669L41.5825 34.5654L41.5846 36.1058L40.8654 37.2816Z" fill="white"/>
<path d="M40.8654 37.2816L39.4961 37.2417L38.0492 36.6465L36.4535 36.8247L34.9982 36.2798L33.5346 35.7621L31.9619 35.8229L30.5172 35.2172L28.9592 35.1962L27.4808 34.754L25.9354 34.6765L24.4152 34.4522L22.9578 33.9073L21.4208 33.7774L19.9466 33.3268L18.4348 33.0669L16.9208 32.807L15.3565 32.8259L13.9117 32.2097L12.4376 31.7591L10.8545 31.8639L9.37824 31.4028L7.72168 31.2792L8.40108 29.7702L8.58351 28.2863L8.93369 26.836L9.25242 25.3794L9.21258 23.8537L9.75568 22.4411L9.6718 20.907L9.92762 19.4378L10.6427 18.0567L10.8943 16.5854L10.8691 15.0639L11.2822 13.624L11.4332 12.136L11.8924 10.7046L12.3433 9.27313L12.5026 7.7851L12.6033 6.2866L12.836 4.81324L13.4546 3.41114L13.2554 1.85396L13.7713 0.500061L15.1992 0.850062L16.73 1.01144L18.202 1.47671L19.781 1.3803L21.2341 1.94827L22.7565 2.14946L24.2201 2.66294L25.8201 2.45965L27.2439 3.19108L28.8375 3.02132L30.3242 3.40695L31.8277 3.71294L33.3459 3.95186L34.7718 4.65606L36.3696 4.46743L37.8458 4.90965L39.3703 5.10037L40.8318 5.6348L42.3039 6.10007L43.8304 6.2866L45.3926 6.29917L46.9276 6.69738L46.3656 8.15606L46.2901 9.65876L45.9001 11.1028L45.6338 12.5698L45.5457 14.0704L44.9397 15.4725L44.621 16.9291L44.8894 18.4989L44.5413 19.9492L44.0212 21.3681L44.0883 22.9001L43.2873 24.2645L42.9749 25.7232L42.9434 27.2342L42.8155 28.7285L42.1697 30.1223L42.3563 31.6774L41.6832 33.0669L41.5825 34.5654L41.5846 36.1058L40.8654 37.2816Z" stroke="black" stroke-linecap="round" stroke-linejoin="round"/>
<path d="M44.3003 15.8141L42.9939 15.7806L41.6037 15.1959L40.0646 15.3866L38.6659 14.8522L37.261 14.345L35.7449 14.4162L34.3568 13.8231L32.8575 13.8126L31.4358 13.3809L29.947 13.3159L28.4854 13.1001L27.0847 12.5677L25.6064 12.4483L24.1889 12.0082L22.7336 11.7588L21.2784 11.5094L19.7707 11.5387L18.3846 10.9351L16.965 10.4971L15.4406 10.6123L14.0231 10.1617L12.4189 10.0444L13.1067 8.52072L13.2913 7.02012L13.6456 5.55096L13.9686 4.07551L13.9329 2.53089L14.3858 1.23987L15.73 1.18958L17.1831 1.44317L18.5482 2.15365L20.0035 2.40305L21.5111 2.37371L22.9349 2.78449L24.407 2.93119L25.8224 3.38808L27.2399 3.83449L28.7119 3.99168L30.1944 4.08808L31.6539 4.31862L33.0399 4.93269L34.5791 4.7294L35.9756 5.2827L37.4162 5.60964L38.8903 5.75844L40.3057 6.21533L41.8281 6.10845L43.2246 6.66384L44.6924 6.85665L45.9464 7.25695L46.1204 8.65695L45.3907 10.0549L45.5669 11.6246L45.1852 13.0896L44.8812 14.5797L44.3003 15.8141Z" fill="#2BB15C"/>
<path d="M21.3453 29.6381L19.9131 29.8435L18.4222 29.4747L16.9774 28.8669L15.4278 28.7977L13.9411 28.3932L12.6494 27.9594L12.6515 26.6579L13.1694 25.2579L13.3833 23.8013L13.4714 22.3196L13.8237 20.8881L14.3815 19.4944L14.1906 17.9603L14.9413 16.6043L15.2181 15.1582L14.8847 13.5947L15.3376 12.0103L17.0215 12.2282L18.527 12.5153L19.9739 13.1168L21.5214 13.1902L22.9788 13.7477L24.4152 13.9929L24.5074 15.4243L23.8427 16.7971L23.7945 18.2851L23.633 19.7543L23.1381 21.1564L22.9976 22.6297L22.507 24.0339L22.3078 25.4947L22.1882 26.9723L21.6409 28.3618L21.3453 29.6381Z" stroke="black" stroke-linecap="round" stroke-linejoin="round"/>
<path d="M24.4892 30.2481L23.015 30.2627L21.6814 29.6864L21.6562 28.3723L22.0211 26.943L22.0924 25.4591L22.8599 24.1073L22.8955 22.6151L22.9123 21.1187L23.4952 19.7313L23.5728 18.2474L24.0425 16.8391L24.4535 15.416L24.4451 13.8232L26.0744 14.2214L27.7142 14.4645L27.5528 16.0049L26.9908 17.3965L26.8566 18.8678L26.5148 20.3013L26.2044 21.7412L26.2485 23.248L25.5355 24.6124L25.2881 26.0627L25.0176 27.5109L24.7974 28.9654L24.4892 30.2481Z" stroke="black" stroke-linecap="round" stroke-linejoin="round"/>
<path d="M14.8916 15.2126L16.4286 15.418L17.9195 15.8686L19.4209 16.2522L20.9936 16.2815L22.4551 16.8893L24.0509 16.7887L25.5586 17.1492L27.0327 17.6962" stroke="black" stroke-linecap="round" stroke-linejoin="round"/>
<path d="M14.2559 18.5408L15.7824 18.8028L17.2314 19.4777L18.8334 19.333L20.318 19.8235L21.8362 20.1232L23.3564 20.425L24.9459 20.3684L26.3676 21.1857" stroke="black" stroke-linecap="round" stroke-linejoin="round"/>
<path d="M13.6162 21.8983L15.1407 22.1666L16.6924 22.3028L18.1623 22.854L19.7098 23.0154L21.1651 23.6441L22.7378 23.6672L24.2937 23.7804L25.7489 24.4322" stroke="black" stroke-linecap="round" stroke-linejoin="round"/>
<path d="M12.9326 25.48L14.499 25.5408L15.9627 26.1235L17.5647 25.9956L19.0828 26.2953L20.6388 26.4148L22.1422 26.7983L23.6227 27.3055L25.1597 27.5193" stroke="black" stroke-linecap="round" stroke-linejoin="round"/>
<path d="M35.8524 32.5157L34.3636 32.4319L32.837 32.2453L31.386 31.6711L29.8112 31.736L28.4168 30.86L27.0684 30.707L27.0244 29.395L27.427 27.972L27.9848 26.5803L28.2427 25.1321L28.4839 23.6797L28.3811 22.1603L28.6873 20.7205L28.9557 19.2723L29.2702 17.8345L29.5659 16.3884L30.0565 15.2106L31.3965 15.219L32.9314 15.3594L34.4559 15.5438L35.8838 16.2501L37.3978 16.5037L38.9369 16.6672L38.8782 18.1615L38.6748 19.6223L38.0667 21.0034L38.0206 22.4935L37.3412 23.8621L37.4775 25.3857L36.8316 26.7627L36.9931 28.2905L36.5129 29.6989L36.1858 31.1387L35.8524 32.5157Z" stroke="black" stroke-linecap="round" stroke-linejoin="round"/>
<path d="M39.1653 33.4043L37.4353 33.0124L35.8291 32.633L36.2233 31.1471L36.2799 29.6591L36.4477 28.192L37.0998 26.8172L37.0642 25.3124L37.4018 23.8788L37.7541 22.4474L37.8107 20.9594L38.4649 19.5845L38.5467 18.1007L38.857 16.5582L40.4947 16.9648L41.8724 17.4049L41.497 18.6603L41.3188 20.1252L41.3482 21.6279L41.1699 23.0929L40.4213 24.4489L40.3731 25.939L40.0439 27.3746L39.5889 28.7851L39.3435 30.2375L39.0604 31.6983L39.1653 33.4043Z" stroke="black" stroke-linecap="round" stroke-linejoin="round"/>
<path d="M29.2471 18.2956L30.7925 18.4633L32.3106 18.7672L33.8917 18.7357L35.4267 18.9621L36.9322 19.333L38.3749 20.0372L39.9182 20.2112L41.4469 20.4794" stroke="black" stroke-linecap="round" stroke-linejoin="round"/>
<path d="M28.6641 21.3534L30.1843 21.6531L31.648 22.2378L33.1724 22.5145L34.722 22.657L36.2821 22.7429L37.8066 23.0133L39.2534 23.6986L40.8639 23.5351" stroke="black" stroke-linecap="round" stroke-linejoin="round"/>
<path d="M28.0723 24.4636L29.5569 24.9393L31.1086 25.063L32.5492 25.7818L34.1407 25.7064L35.6547 26.0312L37.1036 26.704L38.6658 26.7815L40.2155 26.9324" stroke="black" stroke-linecap="round" stroke-linejoin="round"/>
<path d="M27.4414 27.7666L28.8841 28.4666L30.4568 28.4897L31.9036 29.1708L33.4407 29.3762L35.0259 29.3385L36.521 29.7597L38.079 29.8687L39.5741 30.3004" stroke="black" stroke-linecap="round" stroke-linejoin="round"/>
<path d="M19.2297 7.12283L18.4329 8.3363L17.0363 8.49558L15.6167 7.95486L15.5098 6.41444L16.2668 5.15067L17.6905 5.06055L19.1437 5.55725L19.2297 7.12283Z" fill="#FAF7F0"/>
<path d="M33.6437 39.5037L32.2765 39.4639L30.8276 38.8687L29.2339 39.0468L27.7766 38.5019L26.3129 37.9843L24.7402 38.045L23.2955 37.4393L21.7375 37.4184L20.2592 36.9762L18.7137 36.8986L17.1956 36.6744L15.7361 36.1295L14.1991 35.9995L12.725 35.5489L11.2131 35.289L9.70123 35.0292L8.13484 35.048L6.69007 34.4319L5.21594 33.9813L3.63278 34.0861L2.15656 33.625L0.5 33.5013L1.1794 31.9923L1.36183 30.5085L1.71201 29.0582L2.03074 27.6016L1.9909 26.0759L2.534 24.6633L2.45012 23.1291L2.70595 21.66L3.42099 20.2788L3.67262 18.8076L3.64746 17.286L4.06055 15.8462L4.21153 14.3582L4.67075 12.9267L5.12158 11.4953L5.28095 10.0073L5.3816 8.50877L5.61645 7.03541L6.23294 5.63331L6.03374 4.07612L6.54958 2.72223L7.97757 3.07223L9.50831 3.23361L10.9803 3.69888L12.5593 3.60247L14.0125 4.17043L15.5348 4.37163L16.9985 4.88511L18.5984 4.68181L20.0222 5.41325L21.6159 5.24349L23.1047 5.62912L24.606 5.93511L26.1242 6.17403L27.5501 6.87822L29.1479 6.6896L30.6242 7.13182L32.1507 7.32254L33.6102 7.85697L35.0822 8.32224L36.6087 8.50877L38.1709 8.52134L39.7059 8.91954L39.1439 10.3782L39.0684 11.8809L38.6784 13.3249L38.4121 14.792L38.324 16.2926L37.718 17.6947L37.4014 19.1513L37.6677 20.7211L37.3196 22.1714L36.7996 23.5902L36.8667 25.1223L36.0656 26.4866L35.7553 27.9453L35.7238 29.4564L35.5938 30.9507L34.948 32.3444L35.1346 33.8995L34.4615 35.289L34.3609 36.7876L34.363 38.328L33.6437 39.5037Z" fill="white"/>
<path d="M33.6437 39.5037L32.2765 39.4639L30.8276 38.8687L29.2339 39.0468L27.7766 38.5019L26.3129 37.9843L24.7402 38.045L23.2955 37.4393L21.7375 37.4184L20.2592 36.9762L18.7137 36.8986L17.1956 36.6744L15.7361 36.1295L14.1991 35.9995L12.725 35.5489L11.2131 35.289L9.70123 35.0292L8.13484 35.048L6.69007 34.4319L5.21594 33.9813L3.63278 34.086L2.15656 33.625L0.5 33.5013L1.1794 31.9923L1.36183 30.5085L1.71201 29.0582L2.03074 27.6016L1.9909 26.0759L2.534 24.6633L2.45012 23.1291L2.70595 21.66L3.42099 20.2788L3.67262 18.8076L3.64746 17.286L4.06055 15.8462L4.21153 14.3582L4.67075 12.9267L5.12158 11.4953L5.28095 10.0073L5.3816 8.50877L5.61645 7.03541L6.23294 5.63331L6.03374 4.07612L6.54958 2.72223L7.97757 3.07223L9.50831 3.23361L10.9803 3.69888L12.5593 3.60247L14.0125 4.17043L15.5348 4.37163L16.9985 4.88511L18.5984 4.68181L20.0222 5.41325L21.6159 5.24349L23.1047 5.62912L24.606 5.93511L26.1242 6.17403L27.5501 6.87822L29.1479 6.6896L30.6242 7.13182L32.1507 7.32254L33.6102 7.85697L35.0822 8.32224L36.6087 8.50877L38.1709 8.52134L39.7059 8.91954L39.1439 10.3782L39.0684 11.8809L38.6784 13.3249L38.4121 14.792L38.324 16.2926L37.718 17.6947L37.4014 19.1513L37.6677 20.7211L37.3196 22.1714L36.7996 23.5902L36.8667 25.1223L36.0656 26.4866L35.7553 27.9453L35.7238 29.4564L35.5938 30.9507L34.948 32.3444L35.1346 33.8995L34.4615 35.289L34.3609 36.7876L34.363 38.328L33.6437 39.5037Z" stroke="black" stroke-linecap="round" stroke-linejoin="round"/>
<path d="M37.0785 18.0363L35.7721 18.0028L34.3819 17.4181L32.8448 17.6088L31.4441 17.0743L30.0392 16.5672L28.5231 16.6384L27.135 16.0453L25.6357 16.0348L24.2161 15.6031L22.7252 15.5381L21.2636 15.3222L19.865 14.7899L18.3846 14.6704L16.9671 14.2303L15.5118 13.9809L14.0566 13.7315L12.5489 13.7609L11.1628 13.1573L9.74531 12.7192L8.21877 12.8345L6.80126 12.3839L5.19922 12.2665L5.88491 10.7429L6.07153 9.24229L6.42381 7.77313L6.74674 6.29768L6.71109 4.75306L7.16402 3.46204L8.50814 3.41174L9.9613 3.66534L11.3285 4.37582L12.7816 4.62522L14.2893 4.59588L15.7131 5.00666L17.1851 5.15336L18.6006 5.61025L20.0181 6.05666L21.4901 6.21384L22.9747 6.31025L24.4321 6.54079L25.8181 7.15486L27.3572 6.95157L28.7538 7.50486L30.1944 7.83181L31.6685 7.98061L33.0839 8.4375L34.6062 8.33061L36.0028 8.886L37.4706 9.07882L38.7246 9.47912L38.8986 10.8791L38.171 12.277L38.345 13.8468L37.9655 15.3118L37.6593 16.8019L37.0785 18.0363Z" fill="#4297FE"/>
<path d="M14.1257 31.8603L12.6914 32.0657L11.2005 31.6968L9.75575 31.089L8.20614 31.0199L6.71943 30.6154L5.42773 30.1816L5.42983 28.8801L5.94777 27.48L6.16165 26.0235L6.24972 24.5417L6.602 23.1103L7.15978 21.7166L6.96896 20.1824L7.72175 18.8264L7.99645 17.3803L7.66304 15.8169L8.11597 14.2324L9.79979 14.4504L11.3075 14.7375L12.7522 15.339L14.2997 15.4124L15.7571 15.9699L17.1935 16.2151L17.2857 17.6465L16.621 19.0193L16.5728 20.5073L16.4113 21.9764L15.9165 23.3785L15.776 24.8519L15.2853 26.2561L15.0861 27.7169L14.9666 29.1944L14.4214 30.5839L14.1257 31.8603Z" stroke="black" stroke-linecap="round" stroke-linejoin="round"/>
<path d="M17.2665 32.4702L15.7945 32.4849L14.4588 31.9085L14.4336 30.5945L14.8006 29.1651L14.8697 27.6813L15.6372 26.3295L15.6729 24.8373L15.6896 23.3409L16.2726 21.9534L16.3502 20.4696L16.8199 19.0612L17.2309 17.6382L17.2225 16.0453L18.8518 16.4436L20.4916 16.6867L20.3301 18.2271L19.7681 19.6187L19.6339 21.09L19.2942 22.5235L18.9818 23.9633L19.0258 25.4702L18.3129 26.8346L18.0654 28.2849L17.7949 29.7331L17.5748 31.1876L17.2665 32.4702Z" stroke="black" stroke-linecap="round" stroke-linejoin="round"/>
<path d="M7.66895 17.4349L9.20598 17.6403L10.6969 18.0909L12.2004 18.4744L13.7709 18.5037L15.2325 19.1115L16.8282 19.0109L18.3359 19.3714L19.81 19.9184" stroke="black" stroke-linecap="round" stroke-linejoin="round"/>
<path d="M7.0332 20.763L8.55975 21.025L10.0087 21.6998L11.6108 21.5552L13.0954 22.0456L14.6156 22.3453L16.1338 22.6471L17.7232 22.5905L19.1449 23.4079" stroke="black" stroke-linecap="round" stroke-linejoin="round"/>
<path d="M6.39453 24.1205L7.92108 24.3887L9.47069 24.525L10.9406 25.0762L12.4881 25.2376L13.9455 25.8663L15.5161 25.8893L17.0741 26.0025L18.5272 26.6543" stroke="black" stroke-linecap="round" stroke-linejoin="round"/>
<path d="M5.71289 27.7022L7.27718 27.763L8.74292 28.3456L10.3429 28.2178L11.8631 28.5175L13.4169 28.6369L14.9204 29.0205L16.4008 29.5277L17.9379 29.7414" stroke="black" stroke-linecap="round" stroke-linejoin="round"/>
<path d="M28.6297 34.7379L27.1409 34.654L25.6165 34.4675L24.1654 33.8932L22.5906 33.9582L21.1941 33.0822L19.8458 32.9292L19.8018 31.6172L20.2044 30.1941L20.7621 28.8025L21.0201 27.3543L21.2612 25.9019L21.1585 24.3824L21.4646 22.9426L21.733 21.4944L22.0496 20.0567L22.3432 18.6106L22.8339 17.4327L24.1738 17.4411L25.7087 17.5815L27.2332 17.766L28.6612 18.4723L30.1752 18.7259L31.7164 18.8893L31.6556 20.3836L31.4543 21.8444L30.8441 23.2256L30.7979 24.7157L30.1185 26.0842L30.2548 27.6079L29.609 28.9849L29.7705 30.5127L29.2903 31.9211L28.9631 33.3609L28.6297 34.7379Z" stroke="black" stroke-linecap="round" stroke-linejoin="round"/>
<path d="M31.9447 35.6265L30.2127 35.2346L28.6064 34.8552L29.0007 33.3693L29.0573 31.8813L29.225 30.4142L29.8772 29.0393L29.8415 27.5345L30.1791 26.101L30.5314 24.6696L30.588 23.1815L31.2423 21.8067L31.3261 20.3229L31.6365 18.7803L33.2721 19.1869L34.6497 19.627L34.2744 20.8824L34.0961 22.3474L34.1255 23.8501L33.9473 25.3151L33.1987 26.6711L33.1504 28.1612L32.8212 29.5968L32.3662 31.0073L32.1209 32.4597L31.8378 33.9205L31.9447 35.6265Z" stroke="black" stroke-linecap="round" stroke-linejoin="round"/>
<path d="M22.0244 20.5178L23.5698 20.6854L25.088 20.9893L26.6691 20.9579L28.204 21.1842L29.7096 21.5552L31.1523 22.2594L32.6977 22.4333L34.2242 22.7016" stroke="black" stroke-linecap="round" stroke-linejoin="round"/>
<path d="M21.4434 23.5756L22.9615 23.8753L24.4252 24.46L25.9496 24.7366L27.4992 24.8792L29.0593 24.9651L30.5859 25.2354L32.0327 25.9208L33.6411 25.7573" stroke="black" stroke-linecap="round" stroke-linejoin="round"/>
<path d="M20.8506 26.6857L22.3352 27.1615L23.889 27.2851L25.3275 28.004L26.919 27.9285L28.433 28.2534L29.882 28.9262L31.4442 29.0037L32.9938 29.1546" stroke="black" stroke-linecap="round" stroke-linejoin="round"/>
<path d="M20.2188 29.9888L21.6635 30.6888L23.2341 30.7118L24.681 31.393L26.218 31.5984L27.8033 31.5606L29.2984 31.9819L30.8564 32.0909L32.3515 32.5226" stroke="black" stroke-linecap="round" stroke-linejoin="round"/>
<path d="M12.008 9.34499L11.2112 10.5585L9.81463 10.7178L8.39503 10.177L8.28809 8.63661L9.04507 7.37283L10.4689 7.28271L11.922 7.77942L12.008 9.34499Z" fill="#FAF7F0"/>
</svg>
