<svg width="24" height="24" viewBox="0 0 24 24" fill="none" xmlns="http://www.w3.org/2000/svg">
<path d="M11.4697 11.3605C11.1768 11.6534 11.1768 12.1283 11.4697 12.4212C11.7626 12.7141 12.2374 12.7141 12.5303 12.4212L12 11.8909L11.4697 11.3605ZM12.0707 11.8202L11.7374 11.1483L11.6273 11.2029L11.5404 11.2898L12.0707 11.8202ZM13.5093 10.8016L12.9638 10.2869L13.5093 10.8016ZM16.6299 7.23996L17.0463 7.86373L16.6299 7.23996ZM17.4375 6.58713L16.816 6.1673L17.4375 6.58713ZM17.7171 6.1732L18.3386 6.59303L17.7171 6.1732ZM17.8739 5.98315L18.5131 6.3755L18.8226 5.87122L18.4042 5.45282L17.8739 5.98315ZM17.8201 6.07078L17.1809 5.67843L18.3504 6.60111L17.8201 6.07078ZM18.4211 6.5304C18.714 6.23751 18.714 5.76263 18.4211 5.46974C18.1282 5.17685 17.6534 5.17685 17.3605 5.46974L17.8908 6.00007L18.4211 6.5304ZM12 11.8909L12.5303 12.4212L12.601 12.3505L12.0707 11.8202L11.5404 11.2898L11.4697 11.3605L12 11.8909ZM12.0707 11.8202L12.4041 12.492L12.853 12.2692L12.5197 11.5974L12.1863 10.9255L11.7374 11.1483L12.0707 11.8202ZM12.5197 11.5974L12.853 12.2692C13.1731 12.1104 13.4806 11.9249 13.6944 11.6983L13.1489 11.1836L12.6034 10.6689C12.5769 10.697 12.4649 10.7873 12.1863 10.9255L12.5197 11.5974ZM13.1489 11.1836L13.6944 11.6983L13.8746 11.5073L13.3291 10.9926L12.7836 10.4779L12.6034 10.6689L13.1489 11.1836ZM13.3291 10.9926L13.8746 11.5073L14.0548 11.3163L13.5093 10.8016L12.9638 10.2869L12.7836 10.4779L13.3291 10.9926ZM13.5093 10.8016L14.0548 11.3163C14.2452 11.1145 14.3894 10.8803 14.492 10.6236L13.7955 10.3453L13.0991 10.0671C13.0603 10.164 13.0138 10.234 12.9638 10.2869L13.5093 10.8016ZM13.7955 10.3453L14.492 10.6236L14.598 10.3583L13.9015 10.0801L13.205 9.80181L13.0991 10.0671L13.7955 10.3453ZM13.9015 10.0801L14.598 10.3583L14.704 10.0931L14.0075 9.81481L13.311 9.53655L13.205 9.80181L13.9015 10.0801ZM14.0075 9.81481L14.704 10.0931C14.7479 9.98311 14.8006 9.89631 14.8587 9.82644L14.282 9.34688L13.7054 8.86731C13.5387 9.06768 13.4084 9.29283 13.311 9.53655L14.0075 9.81481ZM14.282 9.34688L14.8587 9.82644L15.0272 9.62377L14.4506 9.1442L13.8739 8.66464L13.7054 8.86731L14.282 9.34688ZM14.4506 9.1442L15.0272 9.62377L15.1958 9.42109L14.6191 8.94153L14.0425 8.46196L13.8739 8.66464L14.4506 9.1442ZM14.6191 8.94153L15.1958 9.42109C15.26 9.34384 15.3351 9.27652 15.4236 9.21832L15.0117 8.59161L14.5997 7.96489C14.3896 8.10302 14.203 8.26897 14.0425 8.46196L14.6191 8.94153ZM15.0117 8.59161L15.4236 9.21832L15.6476 9.07108L15.2357 8.44436L14.8237 7.81765L14.5997 7.96489L15.0117 8.59161ZM15.2357 8.44436L15.6476 9.07108L15.8716 8.92384L15.4596 8.29712L15.0477 7.67041L14.8237 7.81765L15.2357 8.44436ZM15.4596 8.29712L15.8716 8.92384C16.0679 8.79482 16.2472 8.64559 16.4081 8.47627L15.8645 7.95956L15.3209 7.44285C15.2407 7.52729 15.1501 7.6031 15.0477 7.67041L15.4596 8.29712ZM15.8645 7.95956L16.4081 8.47627L16.5891 8.28594L16.0454 7.76923L15.5018 7.25252L15.3209 7.44285L15.8645 7.95956ZM16.0454 7.76923L16.5891 8.28594L16.77 8.09562L16.2264 7.57891L15.6827 7.0622L15.5018 7.25252L16.0454 7.76923ZM16.2264 7.57891L16.77 8.09562C16.8515 8.0098 16.9432 7.93254 17.0463 7.86373L16.6299 7.23996L16.2134 6.6162C16.0197 6.74554 15.8424 6.89425 15.6827 7.0622L16.2264 7.57891ZM16.6299 7.23996L17.0463 7.86373L17.2689 7.71511L16.8525 7.09134L16.436 6.46758L16.2134 6.6162L16.6299 7.23996ZM16.8525 7.09134L17.2689 7.71511L17.4915 7.56648L17.0751 6.94272L16.6587 6.31896L16.436 6.46758L16.8525 7.09134ZM17.0751 6.94272L17.4915 7.56648C17.715 7.41728 17.9075 7.23122 18.059 7.00697L17.4375 6.58713L16.816 6.1673C16.7811 6.21901 16.732 6.27 16.6587 6.31896L17.0751 6.94272ZM17.4375 6.58713L18.059 7.00697L18.1988 6.8L17.5773 6.38017L16.9558 5.96033L16.816 6.1673L17.4375 6.58713ZM17.5773 6.38017L18.1988 6.8L18.3386 6.59303L17.7171 6.1732L17.0957 5.75337L16.9558 5.96033L17.5773 6.38017ZM17.7171 6.1732L18.3386 6.59303C18.3838 6.52613 18.4114 6.48717 18.425 6.46891C18.4343 6.45643 18.4263 6.46827 18.4078 6.48862C18.4037 6.49305 18.3668 6.53474 18.3083 6.57816C18.2852 6.59532 18.2031 6.65569 18.0795 6.69281C17.9499 6.7317 17.6121 6.78202 17.3351 6.50502L17.8654 5.97469L18.3957 5.44436C18.118 5.16665 17.7792 5.21683 17.6482 5.25614C17.5232 5.29367 17.4394 5.35502 17.4142 5.37372C17.3516 5.42022 17.3091 5.46723 17.2982 5.47922C17.2659 5.51471 17.2386 5.55066 17.2232 5.57126C17.1875 5.61917 17.1437 5.68229 17.0957 5.75337L17.7171 6.1732ZM17.8654 5.97469L17.3351 6.50502L17.3435 6.51348L17.8739 5.98315L18.4042 5.45282L18.3957 5.44436L17.8654 5.97469ZM17.8739 5.98315L17.2347 5.5908L17.1809 5.67843L17.8201 6.07078L18.4593 6.46313L18.5131 6.3755L17.8739 5.98315ZM17.8201 6.07078L18.3504 6.60111L18.4211 6.5304L17.8908 6.00007L17.3605 5.46974L17.2898 5.54045L17.8201 6.07078Z" fill="#9A9A9A"/>
<path d="M15.7534 5.46967C15.4605 5.17678 14.9856 5.17678 14.6927 5.46967C14.3998 5.76256 14.3998 6.23744 14.6927 6.53033L15.2231 6L15.7534 5.46967ZM15.2938 6.07071L14.7634 6.60104L14.936 6.77365L15.1772 6.81159L15.2938 6.07071ZM17.7269 6.2318L18.2698 5.71439L17.7269 6.2318ZM18.2134 7.68555L18.9367 7.48724L18.2134 7.68555ZM18.3573 8.21055L19.0807 8.01224L18.3573 8.21055ZM18.2147 8.625L18.42 9.34634L18.5433 9.31123L18.648 9.23715L18.2147 8.625ZM17.9293 8.70624L17.7239 7.9849L16.4967 8.33428L17.399 9.23657L17.9293 8.70624ZM17.4697 9.30728C17.7626 9.60017 18.2374 9.60017 18.5303 9.30728C18.8232 9.01439 18.8232 8.53951 18.5303 8.24662L18 8.77695L17.4697 9.30728ZM15.2231 6L14.6927 6.53033L14.7634 6.60104L15.2938 6.07071L15.8241 5.54038L15.7534 5.46967L15.2231 6ZM15.2938 6.07071L15.1772 6.81159L15.6668 6.88864L15.7834 6.14776L15.9 5.40687L15.4103 5.32983L15.2938 6.07071ZM15.7834 6.14776L15.6668 6.88864C16.0389 6.94718 16.4503 6.96138 16.8122 6.81772L16.5356 6.12062L16.2589 5.42351C16.2725 5.4181 16.2557 5.42758 16.1892 5.42998C16.1242 5.43233 16.0297 5.42728 15.9 5.40687L15.7834 6.14776ZM16.5356 6.12062L16.8122 6.81772L17.0747 6.71353L16.7981 6.01643L16.5214 5.31933L16.2589 5.42351L16.5356 6.12062ZM16.7981 6.01643L17.0747 6.71353L17.3372 6.60934L17.0606 5.91224L16.7839 5.21514L16.5214 5.31933L16.7981 6.01643ZM17.0606 5.91224L17.3372 6.60934C17.3577 6.60123 17.3116 6.62459 17.2214 6.61617C17.1731 6.61167 17.1164 6.59829 17.058 6.57027C16.9994 6.54215 16.9514 6.50519 16.9147 6.46672L17.4577 5.94931L18.0006 5.4319C17.6072 5.01911 17.0933 5.09231 16.7839 5.21514L17.0606 5.91224ZM17.4577 5.94931L16.9147 6.46672L17.0493 6.60796L17.5923 6.09055L18.1352 5.57314L18.0006 5.4319L17.4577 5.94931ZM17.5923 6.09055L17.0493 6.60796L17.1839 6.74921L17.7269 6.2318L18.2698 5.71439L18.1352 5.57314L17.5923 6.09055ZM17.7269 6.2318L17.1839 6.74921C17.171 6.73562 17.1701 6.7302 17.1763 6.74238C17.1827 6.75498 17.1943 6.782 17.2068 6.82877L17.9315 6.63555L18.6561 6.44233C18.5891 6.19095 18.4738 5.92841 18.2698 5.71439L17.7269 6.2318ZM17.9315 6.63555L17.2068 6.82877L17.2768 7.09127L18.0015 6.89805L18.7261 6.70483L18.6561 6.44233L17.9315 6.63555ZM18.0015 6.89805L17.2768 7.09127L17.3468 7.35377L18.0714 7.16055L18.7961 6.96733L18.7261 6.70483L18.0015 6.89805ZM18.0714 7.16055L17.3468 7.35377C17.3939 7.53047 17.4417 7.70717 17.4901 7.88386L18.2134 7.68555L18.9367 7.48724C18.8892 7.31393 18.8423 7.14063 18.7961 6.96733L18.0714 7.16055ZM18.2134 7.68555L17.4901 7.88386L17.5621 8.14636L18.2854 7.94805L19.0087 7.74974L18.9367 7.48724L18.2134 7.68555ZM18.2854 7.94805L17.5621 8.14636L17.634 8.40886L18.3573 8.21055L19.0807 8.01224L19.0087 7.74974L18.2854 7.94805ZM18.3573 8.21055L17.634 8.40886C17.6464 8.4539 17.6307 8.42356 17.6385 8.34849C17.6481 8.25747 17.6996 8.07073 17.8887 7.93687L18.322 8.54903L18.7553 9.16118C19.016 8.97667 19.1091 8.70819 19.1304 8.50434C19.1501 8.31646 19.1163 8.1422 19.0807 8.01224L18.3573 8.21055ZM18.322 8.54903L17.8887 7.93687L17.7813 8.01285L18.2147 8.625L18.648 9.23715L18.7553 9.16118L18.322 8.54903ZM18.2147 8.625L18.0093 7.90366L17.7239 7.9849L17.9293 8.70624L18.1346 9.42758L18.42 9.34634L18.2147 8.625ZM17.9293 8.70624L17.399 9.23657L17.4697 9.30728L18 8.77695L18.5303 8.24662L18.4596 8.17591L17.9293 8.70624Z" fill="#9A9A9A"/>
<path d="M17.0686 12.5612L17.7566 12.86L17.8058 12.7466L17.816 12.6235L17.0686 12.5612ZM16.8623 13.0364L17.5502 13.3351L16.8623 13.0364ZM16.6571 13.7741L15.9071 13.7773L16.6571 13.7741ZM16.6594 14.2991L17.4093 14.2958L16.6594 14.2991ZM16.7883 14.8241L17.4626 14.4957L16.7883 14.8241ZM16.9161 15.0866L16.2418 15.4149L16.9161 15.0866ZM17.044 15.3491L16.3697 15.6774L17.044 15.3491ZM17.1069 15.8741L17.835 16.054L17.1069 15.8741ZM16.9771 16.3991L17.7052 16.5791L16.9771 16.3991ZM16.8364 17.1866L17.5787 17.2937L16.8364 17.1866ZM16.7985 17.4491L16.0562 17.3419L16.7985 17.4491ZM16.6493 17.7438L16.8581 18.4642L16.6493 17.7438ZM16.4267 17.8084L16.2179 17.088L16.4267 17.8084ZM16.0529 17.9386L16.3152 18.6413L16.0529 17.9386ZM15.5279 18.1346L15.7902 18.8373L15.5279 18.1346ZM15.0029 18.1651L15.1898 17.4387L15.0029 18.1651ZM14.4779 18.03L14.291 18.7564L14.4779 18.03ZM12.9029 17.9279L12.619 17.2337L12.9029 17.9279ZM12.6404 18.0353L12.9242 18.7295L12.6404 18.0353ZM12.3779 18.1426L12.094 17.4484L12.3779 18.1426ZM11.8529 18.0856L11.4549 18.7212L11.8529 18.0856ZM11.3279 17.7568L11.7259 17.1212L11.3279 17.7568ZM10.2779 18.0239L10.6382 18.6816L10.2779 18.0239ZM9.75289 18.0224L9.38978 18.6787L9.75289 18.0224ZM9.49039 17.8772L9.85349 17.2209L9.49039 17.8772ZM9.22789 17.7319L9.59099 17.0757L9.22789 17.7319ZM8.70289 17.6274L8.5878 16.8863L8.70289 17.6274ZM8.44039 17.6682L8.3253 16.9271L8.44039 17.6682ZM8.17789 17.709L8.29297 18.4501L8.17789 17.709ZM7.65289 17.8763L7.32718 17.2007L7.65289 17.8763ZM7.12789 18.1294L7.45359 18.805L7.12789 18.1294ZM6.70804 18.1458L6.27795 18.7602L6.70804 18.1458ZM6.16025 17.0279L6.9068 16.9561L6.16025 17.0279ZM5.98918 16.5029L5.33353 16.8671L5.98918 16.5029ZM5.69756 15.9779L5.04191 16.3421L5.69756 15.9779ZM5.60471 15.4529L4.86953 15.3046L5.60471 15.4529ZM5.71064 14.9279L6.44583 15.0762L5.71064 14.9279ZM5.96174 12.0404L5.25014 12.2773L5.96174 12.0404ZM5.76023 9.67791L5.06505 9.95937L5.76023 9.67791ZM6.38049 7.10964L5.6963 6.8024L6.38049 7.10964ZM6.56529 6.6981L5.88111 6.39087L6.56529 6.6981ZM11.5385 6.84621L12.0258 7.41629L12.2885 7.19176V6.84621H11.5385ZM11.4388 6.9314L10.9515 6.36132L9.18448 7.87186L11.5011 7.67881L11.4388 6.9314ZM17.0769 12.4616L16.3295 12.3993L16.3212 12.4989L17.0686 12.5612L17.816 12.6235L17.8243 12.5238L17.0769 12.4616ZM17.0686 12.5612L16.3807 12.2625L16.1743 12.7376L16.8623 13.0364L17.5502 13.3351L17.7566 12.86L17.0686 12.5612ZM16.8623 13.0364L16.1743 12.7376C16.0279 13.0749 15.9056 13.4398 15.9071 13.7773L16.6571 13.7741L17.4071 13.7708C17.4071 13.776 17.407 13.7433 17.4304 13.6594C17.4527 13.5791 17.4907 13.4721 17.5502 13.3351L16.8623 13.0364ZM16.6571 13.7741L15.9071 13.7773L15.9082 14.0398L16.6582 14.0366L17.4082 14.0333L17.4071 13.7708L16.6571 13.7741ZM16.6582 14.0366L15.9082 14.0398L15.9094 14.3023L16.6594 14.2991L17.4093 14.2958L17.4082 14.0333L16.6582 14.0366ZM16.6594 14.2991L15.9094 14.3023C15.9107 14.6021 15.9851 14.8876 16.114 15.1524L16.7883 14.8241L17.4626 14.4957C17.4211 14.4105 17.4096 14.346 17.4093 14.2958L16.6594 14.2991ZM16.7883 14.8241L16.114 15.1524L16.2418 15.4149L16.9161 15.0866L17.5904 14.7582L17.4626 14.4957L16.7883 14.8241ZM16.9161 15.0866L16.2418 15.4149L16.3697 15.6774L17.044 15.3491L17.7183 15.0207L17.5904 14.7582L16.9161 15.0866ZM17.044 15.3491L16.3697 15.6774C16.3747 15.6878 16.3771 15.6946 16.3781 15.6981C16.3792 15.7014 16.3791 15.7022 16.3789 15.7008C16.3788 15.6994 16.3787 15.6973 16.3788 15.6951C16.379 15.693 16.3792 15.6925 16.3788 15.6941L17.1069 15.8741L17.835 16.054C17.9239 15.6945 17.8738 15.3401 17.7183 15.0207L17.044 15.3491ZM17.1069 15.8741L16.3788 15.6941L16.3139 15.9566L17.042 16.1366L17.7701 16.3165L17.835 16.054L17.1069 15.8741ZM17.042 16.1366L16.3139 15.9566L16.249 16.2191L16.9771 16.3991L17.7052 16.5791L17.7701 16.3165L17.042 16.1366ZM16.9771 16.3991L16.249 16.2191C16.1999 16.4176 16.1609 16.6169 16.132 16.8169L16.8743 16.9241L17.6166 17.0312C17.6383 16.8812 17.6678 16.7305 17.7052 16.5791L16.9771 16.3991ZM16.8743 16.9241L16.132 16.8169L16.0941 17.0794L16.8364 17.1866L17.5787 17.2937L17.6166 17.0312L16.8743 16.9241ZM16.8364 17.1866L16.0941 17.0794L16.0562 17.3419L16.7985 17.4491L17.5408 17.5562L17.5787 17.2937L16.8364 17.1866ZM16.7985 17.4491L16.0562 17.3419C16.0491 17.3914 16.0458 17.3693 16.0731 17.3153C16.1015 17.2593 16.2053 17.0917 16.4405 17.0235L16.6493 17.7438L16.8581 18.4642C17.1676 18.3745 17.3334 18.147 17.4114 17.9927C17.4885 17.8404 17.5227 17.6817 17.5408 17.5562L16.7985 17.4491ZM16.6493 17.7438L16.4405 17.0235L16.3292 17.0558L16.538 17.7761L16.7468 18.4964L16.8581 18.4642L16.6493 17.7438ZM16.538 17.7761L16.3292 17.0558L16.2179 17.088L16.4267 17.8084L16.6355 18.5287L16.7468 18.4964L16.538 17.7761ZM16.4267 17.8084L16.2179 17.088C16.1137 17.1182 15.9655 17.1707 15.7906 17.236L16.0529 17.9386L16.3152 18.6413C16.4902 18.5759 16.5912 18.5415 16.6355 18.5287L16.4267 17.8084ZM16.0529 17.9386L15.7906 17.236L15.5281 17.334L15.7904 18.0366L16.0527 18.7393L16.3152 18.6413L16.0529 17.9386ZM15.7904 18.0366L15.5281 17.334L15.2656 17.432L15.5279 18.1346L15.7902 18.8373L16.0527 18.7393L15.7904 18.0366ZM15.5279 18.1346L15.2656 17.432C15.2292 17.4456 15.2109 17.4442 15.1898 17.4387L15.0029 18.1651L14.816 18.8914C15.1449 18.9761 15.4766 18.9543 15.7902 18.8373L15.5279 18.1346ZM15.0029 18.1651L15.1898 17.4387L14.9273 17.3712L14.7404 18.0976L14.5535 18.8239L14.816 18.8914L15.0029 18.1651ZM14.7404 18.0976L14.9273 17.3712L14.6648 17.3037L14.4779 18.03L14.291 18.7564L14.5535 18.8239L14.7404 18.0976ZM14.4779 18.03L14.6648 17.3037C14.462 17.2515 14.2581 17.2115 14.0533 17.1838L13.9529 17.927L13.8524 18.6703C13.9977 18.6899 14.1438 18.7185 14.291 18.7564L14.4779 18.03ZM13.9529 17.927L14.0533 17.1838L13.7908 17.1483L13.6904 17.8916L13.5899 18.6348L13.8524 18.6703L13.9529 17.927ZM13.6904 17.8916L13.7908 17.1483L13.5283 17.1128L13.4279 17.8561L13.3274 18.5993L13.5899 18.6348L13.6904 17.8916ZM13.4279 17.8561L13.5283 17.1128C13.214 17.0703 12.9067 17.1161 12.619 17.2337L12.9029 17.9279L13.1867 18.6221C13.249 18.5967 13.2918 18.5945 13.3274 18.5993L13.4279 17.8561ZM12.9029 17.9279L12.619 17.2337L12.3565 17.3411L12.6404 18.0353L12.9242 18.7295L13.1867 18.6221L12.9029 17.9279ZM12.6404 18.0353L12.3565 17.3411L12.094 17.4484L12.3779 18.1426L12.6617 18.8368L12.9242 18.7295L12.6404 18.0353ZM12.3779 18.1426L12.094 17.4484C12.1132 17.4406 12.1508 17.4314 12.1964 17.4364C12.2394 17.4411 12.2589 17.4549 12.2509 17.4499L11.8529 18.0856L11.4549 18.7212C11.8125 18.9452 12.2403 19.0091 12.6617 18.8368L12.3779 18.1426ZM11.8529 18.0856L12.2509 17.4499L11.9884 17.2855L11.5904 17.9212L11.1924 18.5569L11.4549 18.7212L11.8529 18.0856ZM11.5904 17.9212L11.9884 17.2855L11.7259 17.1212L11.3279 17.7568L10.9299 18.3925L11.1924 18.5569L11.5904 17.9212ZM11.3279 17.7568L11.7259 17.1212C11.5475 17.0095 11.3346 16.9295 11.0947 16.9201C10.8534 16.9106 10.6323 16.9746 10.4426 17.0785L10.8029 17.7363L11.1632 18.394C11.1485 18.4021 11.1024 18.4215 11.036 18.4189C10.9712 18.4164 10.9333 18.3946 10.9299 18.3925L11.3279 17.7568ZM10.8029 17.7363L10.4426 17.0785L10.1801 17.2223L10.5404 17.8801L10.9007 18.5378L11.1632 18.394L10.8029 17.7363ZM10.5404 17.8801L10.1801 17.2223L9.91756 17.3661L10.2779 18.0239L10.6382 18.6816L10.9007 18.5378L10.5404 17.8801ZM10.2779 18.0239L9.91756 17.3661C9.92537 17.3618 9.96147 17.3452 10.0175 17.3454C10.0734 17.3456 10.1089 17.3623 10.116 17.3662L9.75289 18.0224L9.38978 18.6787C9.78908 18.8996 10.2371 18.9014 10.6382 18.6816L10.2779 18.0239ZM9.75289 18.0224L10.116 17.3662L9.85349 17.2209L9.49039 17.8772L9.12728 18.5334L9.38978 18.6787L9.75289 18.0224ZM9.49039 17.8772L9.85349 17.2209L9.59099 17.0757L9.22789 17.7319L8.86478 18.3882L9.12728 18.5334L9.49039 17.8772ZM9.22789 17.7319L9.59099 17.0757C9.29022 16.9093 8.94824 16.8304 8.5878 16.8863L8.70289 17.6274L8.81797 18.3686C8.81875 18.3684 8.81851 18.3685 8.81774 18.3685C8.81699 18.3685 8.81725 18.3684 8.819 18.3688C8.82204 18.3694 8.83691 18.3728 8.86478 18.3882L9.22789 17.7319ZM8.70289 17.6274L8.5878 16.8863L8.3253 16.9271L8.44039 17.6682L8.55547 18.4093L8.81797 18.3686L8.70289 17.6274ZM8.44039 17.6682L8.3253 16.9271L8.0628 16.9679L8.17789 17.709L8.29297 18.4501L8.55547 18.4093L8.44039 17.6682ZM8.17789 17.709L8.0628 16.9679C7.80804 17.0074 7.56237 17.0873 7.32718 17.2007L7.65289 17.8763L7.97859 18.5519C8.09341 18.4965 8.19774 18.4649 8.29297 18.4501L8.17789 17.709ZM7.65289 17.8763L7.32718 17.2007L7.06468 17.3273L7.39039 18.0028L7.71609 18.6784L7.97859 18.5519L7.65289 17.8763ZM7.39039 18.0028L7.06468 17.3273L6.80218 17.4538L7.12789 18.1294L7.45359 18.805L7.71609 18.6784L7.39039 18.0028ZM7.12789 18.1294L6.80218 17.4538C6.77384 17.4675 6.79791 17.4499 6.86237 17.4474C6.9399 17.4443 7.04356 17.4652 7.13814 17.5314L6.70804 18.1458L6.27795 18.7602C6.70704 19.0606 7.17172 18.9409 7.45359 18.805L7.12789 18.1294ZM6.70804 18.1458L7.13814 17.5314L6.9808 17.4213L6.5507 18.0357L6.12061 18.6501L6.27795 18.7602L6.70804 18.1458ZM6.5507 18.0357L6.9808 17.4213L6.82345 17.3111L6.39336 17.9255L5.96327 18.54L6.12061 18.6501L6.5507 18.0357ZM6.39336 17.9255L6.82345 17.3111C6.88313 17.3529 6.92178 17.405 6.94253 17.4473C6.9609 17.4848 6.95934 17.5021 6.95731 17.4811L6.21076 17.5529L5.46421 17.6247C5.49385 17.9327 5.61847 18.2986 5.96327 18.54L6.39336 17.9255ZM6.21076 17.5529L6.95731 17.4811L6.93206 17.2186L6.1855 17.2904L5.43895 17.3622L5.46421 17.6247L6.21076 17.5529ZM6.1855 17.2904L6.93206 17.2186L6.9068 16.9561L6.16025 17.0279L5.41369 17.0997L5.43895 17.3622L6.1855 17.2904ZM6.16025 17.0279L6.9068 16.9561C6.8788 16.6651 6.78519 16.3914 6.64482 16.1387L5.98918 16.5029L5.33353 16.8671C5.38758 16.9644 5.40801 17.0407 5.41369 17.0997L6.16025 17.0279ZM5.98918 16.5029L6.64482 16.1387L6.49901 15.8762L5.84337 16.2404L5.18772 16.6046L5.33353 16.8671L5.98918 16.5029ZM5.84337 16.2404L6.49901 15.8762L6.3532 15.6137L5.69756 15.9779L5.04191 16.3421L5.18772 16.6046L5.84337 16.2404ZM5.69756 15.9779L6.3532 15.6137C6.34646 15.6016 6.343 15.5933 6.34135 15.5888C6.33973 15.5844 6.33969 15.5832 6.33998 15.5848C6.34029 15.5865 6.34064 15.5896 6.34059 15.5935C6.34055 15.5974 6.34012 15.6001 6.3399 15.6012L5.60471 15.4529L4.86953 15.3046C4.79462 15.6758 4.8693 16.0313 5.04191 16.3421L5.69756 15.9779ZM5.60471 15.4529L6.3399 15.6012L6.39286 15.3387L5.65768 15.1904L4.92249 15.0421L4.86953 15.3046L5.60471 15.4529ZM5.65768 15.1904L6.39286 15.3387L6.44583 15.0762L5.71064 14.9279L4.97546 14.7796L4.92249 15.0421L5.65768 15.1904ZM5.71064 14.9279L6.44583 15.0762C6.46786 14.967 6.50639 14.8509 6.56575 14.727L5.88938 14.4029L5.21301 14.0788C5.10468 14.3049 5.02405 14.5388 4.97546 14.7796L5.71064 14.9279ZM5.88938 14.4029L6.56575 14.727L6.69153 14.4645L6.01516 14.1404L5.33879 13.8163L5.21301 14.0788L5.88938 14.4029ZM6.01516 14.1404L6.69153 14.4645L6.8173 14.202L6.14093 13.8779L5.46456 13.5538L5.33879 13.8163L6.01516 14.1404ZM6.14093 13.8779L6.8173 14.202C6.9567 13.911 7.01957 13.5922 6.97846 13.2606L6.23416 13.3529L5.48986 13.4452C5.49214 13.4636 5.49286 13.4948 5.46456 13.5538L6.14093 13.8779ZM6.23416 13.3529L6.97846 13.2606L6.94592 12.9981L6.20162 13.0904L5.45732 13.1827L5.48986 13.4452L6.23416 13.3529ZM6.20162 13.0904L6.94592 12.9981L6.91338 12.7356L6.16907 12.8279L5.42477 12.9202L5.45732 13.1827L6.20162 13.0904ZM6.16907 12.8279L6.91338 12.7356C6.88531 12.5093 6.83393 12.2859 6.76073 12.066L6.04914 12.3029L5.33754 12.5398C5.38086 12.67 5.40945 12.7966 5.42477 12.9202L6.16907 12.8279ZM6.04914 12.3029L6.76073 12.066L6.67334 11.8035L5.96174 12.0404L5.25014 12.2773L5.33754 12.5398L6.04914 12.3029ZM5.96174 12.0404L6.67334 11.8035L6.58595 11.541L5.87435 11.7779L5.16275 12.0148L5.25014 12.2773L5.96174 12.0404ZM5.87435 11.7779L6.58595 11.541C6.57407 11.5053 6.57452 11.4828 6.58254 11.4539L5.85999 11.2529L5.13743 11.0519C5.04808 11.373 5.05811 11.7005 5.16275 12.0148L5.87435 11.7779ZM5.85999 11.2529L6.58254 11.4539L6.65557 11.1914L5.93302 10.9904L5.21046 10.7894L5.13743 11.0519L5.85999 11.2529ZM5.93302 10.9904L6.65557 11.1914L6.7286 10.9289L6.00605 10.7279L5.28349 10.5269L5.21046 10.7894L5.93302 10.9904ZM6.00605 10.7279L6.7286 10.9289C6.82349 10.5879 6.79831 10.2433 6.66798 9.92144L5.9728 10.2029L5.27761 10.4844C5.28514 10.5029 5.28567 10.5116 5.28575 10.5128C5.28582 10.5139 5.28581 10.515 5.28565 10.5165C5.28548 10.5181 5.285 10.5215 5.28349 10.5269L6.00605 10.7279ZM5.9728 10.2029L6.66798 9.92144L6.5617 9.65894L5.86652 9.94041L5.17133 10.2219L5.27761 10.4844L5.9728 10.2029ZM5.86652 9.94041L6.5617 9.65894L6.45542 9.39644L5.76023 9.67791L5.06505 9.95937L5.17133 10.2219L5.86652 9.94041ZM5.76023 9.67791L6.45542 9.39644C6.45488 9.39511 6.45618 9.39802 6.45747 9.40476C6.4588 9.41163 6.4597 9.42034 6.45951 9.43005C6.4591 9.45145 6.45383 9.46204 6.45597 9.45722L5.77049 9.1529L5.085 8.8486C4.92611 9.2065 4.91667 9.59288 5.06505 9.95937L5.76023 9.67791ZM5.77049 9.1529L6.45597 9.45722L6.57251 9.19472L5.88702 8.89041L5.20153 8.5861L5.085 8.8486L5.77049 9.1529ZM5.88702 8.89041L6.57251 9.19472L6.68904 8.93221L6.00355 8.62791L5.31806 8.3236L5.20153 8.5861L5.88702 8.89041ZM6.00355 8.62791L6.68904 8.93221C6.79095 8.70265 6.86362 8.46538 6.90266 8.2214L6.16208 8.10291L5.4215 7.98441C5.40454 8.09043 5.37152 8.20316 5.31806 8.3236L6.00355 8.62791ZM6.16208 8.10291L6.90266 8.2214L6.94466 7.9589L6.20408 7.8404L5.4635 7.72191L5.4215 7.98441L6.16208 8.10291ZM6.20408 7.8404L6.94466 7.9589L6.98666 7.6964L6.24608 7.5779L5.5055 7.45941L5.4635 7.72191L6.20408 7.8404ZM6.24608 7.5779L6.98666 7.6964C7.00605 7.57526 7.03439 7.48431 7.06467 7.41687L6.38049 7.10964L5.6963 6.8024C5.60338 7.00932 5.54212 7.23055 5.5055 7.45941L6.24608 7.5779ZM6.38049 7.10964L7.06467 7.41687L7.15707 7.21111L6.47289 6.90387L5.78871 6.59663L5.6963 6.8024L6.38049 7.10964ZM6.47289 6.90387L7.15707 7.21111L7.24947 7.00534L6.56529 6.6981L5.88111 6.39087L5.78871 6.59663L6.47289 6.90387ZM6.56529 6.6981L7.24947 7.00534C7.23204 7.04415 7.19452 7.11102 7.12134 7.17629C7.04356 7.24566 6.94718 7.29355 6.84502 7.31365C6.66108 7.34984 6.5501 7.28122 6.57531 7.29427L6.92019 6.62827L7.26507 5.96227C7.11528 5.8847 6.85765 5.7824 6.55541 5.84187C6.19831 5.91214 5.98392 6.16191 5.88111 6.39087L6.56529 6.6981ZM6.92019 6.62827L6.57531 7.29427L6.83781 7.4302L7.18269 6.7642L7.52757 6.0982L7.26507 5.96227L6.92019 6.62827ZM7.18269 6.7642L6.83781 7.4302L7.10031 7.56613L7.44519 6.90013L7.79007 6.23414L7.52757 6.0982L7.18269 6.7642ZM7.44519 6.90013L7.10031 7.56613C7.44479 7.74452 7.83276 7.78644 8.21556 7.65392L7.97019 6.94519L7.72482 6.23646C7.7269 6.23574 7.73286 6.23393 7.74211 6.23273C7.75147 6.23151 7.76169 6.23124 7.77182 6.23211C7.79359 6.23398 7.80086 6.23972 7.79007 6.23414L7.44519 6.90013ZM7.97019 6.94519L8.21556 7.65392L8.47806 7.56304L8.23269 6.85431L7.98732 6.14558L7.72482 6.23646L7.97019 6.94519ZM8.23269 6.85431L8.47806 7.56304L8.74056 7.47216L8.49519 6.76343L8.24982 6.0547L7.98732 6.14558L8.23269 6.85431ZM8.49519 6.76343L8.74056 7.47216C8.87167 7.42676 8.99918 7.39616 9.12361 7.37884L9.02019 6.636L8.91677 5.89317C8.6912 5.92457 8.46871 5.97892 8.24982 6.0547L8.49519 6.76343ZM9.02019 6.636L9.12361 7.37884L9.38611 7.34229L9.28269 6.59946L9.17927 5.85662L8.91677 5.89317L9.02019 6.636ZM9.28269 6.59946L9.38611 7.34229L9.64861 7.30575L9.54519 6.56291L9.44177 5.82008L9.17927 5.85662L9.28269 6.59946ZM9.54519 6.56291L9.64861 7.30575C9.64135 7.30676 9.63312 7.3071 9.62474 7.30652C9.61641 7.30595 9.61034 7.30463 9.60719 7.30375C9.60086 7.302 9.61254 7.30387 9.64255 7.32469L10.0702 6.70856L10.4978 6.09242C10.2016 5.88684 9.84034 5.76459 9.44177 5.82008L9.54519 6.56291ZM10.0702 6.70856L9.64255 7.32469L9.90505 7.50689L10.3327 6.89075L10.7603 6.27462L10.4978 6.09242L10.0702 6.70856ZM10.3327 6.89075L9.90505 7.50689L10.1675 7.68908L10.5952 7.07295L11.0228 6.45681L10.7603 6.27462L10.3327 6.89075ZM10.5952 7.07295L10.1675 7.68908C10.4413 7.8791 10.9626 8.10167 11.4635 7.74417L11.0279 7.13369L10.5922 6.5232C10.6389 6.4899 10.6974 6.46135 10.765 6.44543C10.8319 6.42965 10.8921 6.42994 10.9389 6.43651C11.0242 6.44848 11.0552 6.47926 11.0228 6.45681L10.5952 7.07295ZM11.0279 7.13369L11.4635 7.74417L11.6337 7.62272L11.1981 7.01223L10.7624 6.40174L10.5922 6.5232L11.0279 7.13369ZM11.1981 7.01223L11.6337 7.62272L11.8039 7.50127L11.3683 6.89078L10.9326 6.28029L10.7624 6.40174L11.1981 7.01223ZM11.3683 6.89078L11.8039 7.50127C11.8573 7.46321 11.8566 7.46783 11.8247 7.48339C11.8135 7.48886 11.7887 7.50044 11.7541 7.51211C11.7258 7.52167 11.653 7.54452 11.5548 7.54805C11.4633 7.55135 11.2443 7.54068 11.0443 7.36717C10.8281 7.17956 10.7885 6.93877 10.7885 6.80776H11.5385H12.2885C12.2885 6.67035 12.2471 6.42482 12.0273 6.23413C11.8237 6.05755 11.5995 6.04547 11.5009 6.04902C11.3226 6.05544 11.1879 6.12509 11.1671 6.1352C11.0785 6.17843 10.9927 6.23737 10.9326 6.28029L11.3683 6.89078ZM11.5385 6.80776H10.7885V6.84621H11.5385H12.2885V6.80776H11.5385ZM11.5385 6.84621L11.0511 6.27613L10.9515 6.36132L11.4388 6.9314L11.9262 7.50148L12.0258 7.41629L11.5385 6.84621ZM11.4388 6.9314L11.5011 7.67881L11.6007 7.67051L11.5385 6.9231L11.4762 6.17569L11.3765 6.18399L11.4388 6.9314Z" fill="#9A9A9A"/>
</svg>
