<svg width="60" height="55" viewBox="0 0 60 55" fill="none" xmlns="http://www.w3.org/2000/svg">
<path d="M1.5 53.1157L5.40122 47.3231L8.06849 41.2989L9.73351 34.9298L11.4578 28.5768L12.1475 22.0245L13.1821 15.4991L13.6671 8.90908V2.53458L19.7398 3.01415L25.9042 2.83094L32.0739 1.62932L38.2437 1.5L44.4134 3.01415L50.5831 3.02492L56.6882 2.48608L57.0008 8.89292L56.6343 15.4668L57.7713 22.0892L56.5374 28.6091L55.5243 35.1291L53.8701 41.5306L51.3375 47.6896L46.9675 52.5769L40.5176 53.2666L34.0353 53.1103L27.5584 53.1372L21.0761 52.523L14.5939 52.8894L8.13315 53.4713L1.5 53.1157Z" fill="#A8BCC7"/>
<path d="M1.5 53.1157L5.40122 47.3231L8.06849 41.2989L9.73351 34.9298L11.4578 28.5768L12.1475 22.0245L13.1821 15.4991L13.6671 8.90908V2.53458L19.7398 3.01415L25.9042 2.83094L32.0739 1.62932L38.2437 1.5L44.4134 3.01415L50.5831 3.02492L56.6882 2.48608L57.0008 8.89292L56.6343 15.4668L57.7713 22.0892L56.5374 28.6091L55.5243 35.1291L53.8701 41.5306L51.3375 47.6896L46.9675 52.5769L40.5176 53.2666L34.0353 53.1103L27.5584 53.1372L21.0761 52.523L14.5939 52.8894L8.13315 53.4713L1.5 53.1157Z" fill="#76EECC" stroke="black" stroke-width="3" stroke-linecap="round" stroke-linejoin="round"/>
</svg>
