<svg width="11" height="11" viewBox="0 0 11 11" fill="none" xmlns="http://www.w3.org/2000/svg">
<path d="M9.85019 0.424226L9.49663 0.0706729L9.46388 0.103427L9.4377 0.141642L9.85019 0.424226ZM8.91496 1.20374L8.72263 0.742207L8.91496 1.20374ZM8.64557 1.46467L9.10162 1.66965L8.64557 1.46467ZM8.56335 1.64761L8.10729 1.44263L8.56335 1.64761ZM8.06385 2.47394L7.65955 2.17975L8.06385 2.47394ZM7.77926 2.71969L7.54387 2.27856L7.77926 2.71969ZM7.12619 3.12727L6.77744 2.76897L7.12619 3.12727ZM6.85744 3.38885L7.20618 3.74715L6.85744 3.38885ZM6.62771 3.68946L7.06369 3.93425L6.62771 3.68946ZM6.43701 4.02909L6.00104 3.78429L6.43701 4.02909ZM6.19447 4.31687L6.50715 4.70704L6.19447 4.31687ZM6.04727 4.43484L5.73459 4.04467L6.04727 4.43484ZM5.90007 4.5528L5.58739 4.16263L5.90007 4.5528ZM5.55893 4.74199L5.38655 4.27265L5.55893 4.74199ZM5.36499 4.81322L5.53737 5.28257L5.36499 4.81322ZM5.17106 4.88445L4.99868 4.4151L5.17106 4.88445ZM4.92974 5.17347L4.44117 5.06718L4.92974 5.17347ZM4.88236 5.39125L5.37094 5.49754L4.88236 5.39125ZM4.83499 5.60904L4.34641 5.50275L4.83499 5.60904ZM4.62757 5.93195L4.90208 6.34986L4.62757 5.93195ZM4.46753 6.03708L4.19302 5.61917L4.46753 6.03708ZM4.30749 6.1422L4.582 6.56011L4.30749 6.1422ZM4.04878 6.41382L3.61864 6.15891L4.04878 6.41382ZM3.85144 6.74681L4.28157 7.00173L3.85144 6.74681ZM3.5569 6.98261L3.72368 7.45397L3.5569 6.98261ZM3.36104 7.05191L3.19426 6.58054L3.36104 7.05191ZM3.16517 7.12121L2.9984 6.64984L3.16517 7.12121ZM2.85373 7.3401L2.45806 7.03441L2.85373 7.3401ZM2.62259 7.63928L3.01825 7.94497L2.62259 7.63928ZM2.39113 7.93816L2.78611 8.24474L2.39113 7.93816ZM2.27526 8.08745L1.88028 7.78086L2.27526 8.08745ZM2.15938 8.23673L2.55436 8.54332L2.15938 8.23673ZM1.94312 8.55081L1.51611 8.2907L1.94312 8.55081ZM1.74237 8.88038L2.16938 9.14049L1.74237 8.88038ZM1.4177 9.08605L1.50735 9.57794L1.4177 9.08605ZM0.969123 9.1678L0.879476 8.6759L0.969123 9.1678ZM0.714762 9.4208L1.20981 9.49097L0.714762 9.4208ZM0.654621 9.84504L0.15957 9.77487L0.654621 9.84504ZM0.522724 9.95534L0.0306612 10.0441L0.0584512 10.1982L0.169171 10.3089L0.522724 9.95534ZM0.491609 9.7828L0.983671 9.69407L0.814012 8.75329L0.138055 9.42925L0.491609 9.7828ZM9.9209 0.353516L9.56735 -3.7775e-05L9.49663 0.0706729L9.85019 0.424226L10.2037 0.77778L10.2745 0.707069L9.9209 0.353516ZM9.85019 0.424226L9.4377 0.141642L9.25084 0.414401L9.66333 0.696985L10.0758 0.97957L10.2627 0.706811L9.85019 0.424226ZM9.66333 0.696985L9.25084 0.414401C9.20345 0.483572 9.16401 0.528541 9.13437 0.556337C9.10466 0.584193 9.09161 0.588447 9.09697 0.586213L9.2893 1.04774L9.48163 1.50927C9.7355 1.40348 9.9278 1.19563 10.0758 0.97957L9.66333 0.696985ZM9.2893 1.04774L9.09697 0.586213L8.9098 0.66421L9.10213 1.12574L9.29446 1.58727L9.48163 1.50927L9.2893 1.04774ZM9.10213 1.12574L8.9098 0.66421L8.72263 0.742207L8.91496 1.20374L9.10729 1.66527L9.29446 1.58727L9.10213 1.12574ZM8.91496 1.20374L8.72263 0.742207C8.48197 0.842498 8.29707 1.0204 8.18952 1.25969L8.64557 1.46467L9.10162 1.66965C9.10346 1.66556 9.10455 1.66406 9.10437 1.66432C9.10415 1.66463 9.10331 1.66576 9.1019 1.66711C9.10051 1.66847 9.09957 1.66907 9.09975 1.66896C9.09999 1.6688 9.10222 1.66738 9.10729 1.66527L8.91496 1.20374ZM8.64557 1.46467L8.18952 1.25969L8.10729 1.44263L8.56335 1.64761L9.0194 1.85259L9.10162 1.66965L8.64557 1.46467ZM8.56335 1.64761L8.10729 1.44263L8.02507 1.62557L8.48112 1.83055L8.93717 2.03553L9.0194 1.85259L8.56335 1.64761ZM8.48112 1.83055L8.02507 1.62557C7.98359 1.71786 7.93598 1.79986 7.88292 1.87279L8.28721 2.16698L8.69151 2.46116C8.78735 2.32944 8.86902 2.18716 8.93717 2.03553L8.48112 1.83055ZM8.28721 2.16698L7.88292 1.87279L7.77124 2.02627L8.17553 2.32046L8.57982 2.61465L8.69151 2.46116L8.28721 2.16698ZM8.17553 2.32046L7.77124 2.02627L7.65955 2.17975L8.06385 2.47394L8.46814 2.76813L8.57982 2.61465L8.17553 2.32046ZM8.06385 2.47394L7.65955 2.17975C7.63103 2.21895 7.59469 2.25145 7.54387 2.27856L7.77926 2.71969L8.01466 3.16081C8.19437 3.06491 8.34775 2.93358 8.46814 2.76813L8.06385 2.47394ZM7.77926 2.71969L7.54387 2.27856L7.37097 2.37083L7.60636 2.81195L7.84176 3.25307L8.01466 3.16081L7.77926 2.71969ZM7.60636 2.81195L7.37097 2.37083L7.19807 2.46309L7.43346 2.90421L7.66885 3.34534L7.84176 3.25307L7.60636 2.81195ZM7.43346 2.90421L7.19807 2.46309C7.04319 2.54574 6.90222 2.64752 6.77744 2.76897L7.12619 3.12727L7.47493 3.48557C7.52932 3.43263 7.5932 3.38571 7.66885 3.34534L7.43346 2.90421ZM7.12619 3.12727L6.77744 2.76897L6.64307 2.89976L6.99181 3.25806L7.34055 3.61636L7.47493 3.48557L7.12619 3.12727ZM6.99181 3.25806L6.64307 2.89976L6.50869 3.03055L6.85744 3.38885L7.20618 3.74715L7.34055 3.61636L6.99181 3.25806ZM6.85744 3.38885L6.50869 3.03055C6.38343 3.15247 6.27787 3.29125 6.19174 3.44466L6.62771 3.68946L7.06369 3.93425C7.10468 3.86124 7.15228 3.79961 7.20618 3.74715L6.85744 3.38885ZM6.62771 3.68946L6.19174 3.44466L6.09639 3.61448L6.53236 3.85927L6.96834 4.10407L7.06369 3.93425L6.62771 3.68946ZM6.53236 3.85927L6.09639 3.61448L6.00104 3.78429L6.43701 4.02909L6.87299 4.27388L6.96834 4.10407L6.53236 3.85927ZM6.43701 4.02909L6.00104 3.78429C5.96783 3.84344 5.92825 3.88947 5.88179 3.9267L6.19447 4.31687L6.50715 4.70704C6.65695 4.58699 6.77907 4.44116 6.87299 4.27388L6.43701 4.02909ZM6.19447 4.31687L5.88179 3.9267L5.73459 4.04467L6.04727 4.43484L6.35995 4.825L6.50715 4.70704L6.19447 4.31687ZM6.04727 4.43484L5.73459 4.04467L5.58739 4.16263L5.90007 4.5528L6.21275 4.94297L6.35995 4.825L6.04727 4.43484ZM5.90007 4.5528L5.58739 4.16263C5.53526 4.20441 5.46992 4.24203 5.38655 4.27265L5.55893 4.74199L5.73131 5.21134C5.90653 5.14699 6.06861 5.05848 6.21275 4.94297L5.90007 4.5528ZM5.55893 4.74199L5.38655 4.27265L5.19262 4.34388L5.36499 4.81322L5.53737 5.28257L5.73131 5.21134L5.55893 4.74199ZM5.36499 4.81322L5.19262 4.34388L4.99868 4.4151L5.17106 4.88445L5.34343 5.3538L5.53737 5.28257L5.36499 4.81322ZM5.17106 4.88445L4.99868 4.4151C4.69425 4.52691 4.50568 4.77061 4.44117 5.06718L4.92974 5.17347L5.41831 5.27975C5.42011 5.2715 5.41774 5.28861 5.39756 5.31278C5.37621 5.33835 5.35286 5.35034 5.34343 5.3538L5.17106 4.88445ZM4.92974 5.17347L4.44117 5.06718L4.39379 5.28497L4.88236 5.39125L5.37094 5.49754L5.41831 5.27975L4.92974 5.17347ZM4.88236 5.39125L4.39379 5.28497L4.34641 5.50275L4.83499 5.60904L5.32356 5.71532L5.37094 5.49754L4.88236 5.39125ZM4.83499 5.60904L4.34641 5.50275C4.34128 5.52634 4.33636 5.53217 4.33875 5.52844C4.33988 5.52669 4.34199 5.52384 4.34511 5.52069C4.34823 5.51753 4.35114 5.51531 4.35306 5.51405L4.62757 5.93195L4.90208 6.34986C5.13607 6.19615 5.26907 5.96581 5.32356 5.71532L4.83499 5.60904ZM4.62757 5.93195L4.35306 5.51405L4.19302 5.61917L4.46753 6.03708L4.74204 6.45498L4.90208 6.34986L4.62757 5.93195ZM4.46753 6.03708L4.19302 5.61917L4.03298 5.7243L4.30749 6.1422L4.582 6.56011L4.74204 6.45498L4.46753 6.03708ZM4.30749 6.1422L4.03298 5.7243C3.86198 5.83662 3.72278 5.98318 3.61864 6.15891L4.04878 6.41382L4.47892 6.66874C4.50633 6.62248 4.53961 6.58795 4.582 6.56011L4.30749 6.1422ZM4.04878 6.41382L3.61864 6.15891L3.51997 6.3254L3.95011 6.58032L4.38025 6.83523L4.47892 6.66874L4.04878 6.41382ZM3.95011 6.58032L3.51997 6.3254L3.4213 6.4919L3.85144 6.74681L4.28157 7.00173L4.38025 6.83523L3.95011 6.58032ZM3.85144 6.74681L3.4213 6.4919C3.41955 6.49486 3.41834 6.49634 3.41783 6.49693C3.41734 6.4975 3.41683 6.49801 3.41599 6.49868C3.41479 6.49964 3.40797 6.50492 3.39013 6.51124L3.5569 6.98261L3.72368 7.45397C3.95594 7.37179 4.15151 7.2212 4.28157 7.00173L3.85144 6.74681ZM3.5569 6.98261L3.39013 6.51124L3.19426 6.58054L3.36104 7.05191L3.52781 7.52327L3.72368 7.45397L3.5569 6.98261ZM3.36104 7.05191L3.19426 6.58054L2.9984 6.64984L3.16517 7.12121L3.33195 7.59257L3.52781 7.52327L3.36104 7.05191ZM3.16517 7.12121L2.9984 6.64984C2.7865 6.72481 2.59966 6.85113 2.45806 7.03441L2.85373 7.3401L3.2494 7.64579C3.2619 7.62961 3.28269 7.61 3.33195 7.59257L3.16517 7.12121ZM2.85373 7.3401L2.45806 7.03441L2.34249 7.184L2.73816 7.48969L3.13383 7.79538L3.2494 7.64579L2.85373 7.3401ZM2.73816 7.48969L2.34249 7.184L2.22692 7.33359L2.62259 7.63928L3.01825 7.94497L3.13383 7.79538L2.73816 7.48969ZM2.62259 7.63928L2.22692 7.33359C2.1501 7.43302 2.07318 7.53235 1.99616 7.63158L2.39113 7.93816L2.78611 8.24474C2.86359 8.14492 2.94097 8.045 3.01825 7.94497L2.62259 7.63928ZM2.39113 7.93816L1.99616 7.63158L1.88028 7.78086L2.27526 8.08745L2.67023 8.39403L2.78611 8.24474L2.39113 7.93816ZM2.27526 8.08745L1.88028 7.78086L1.7644 7.93015L2.15938 8.23673L2.55436 8.54332L2.67023 8.39403L2.27526 8.08745ZM2.15938 8.23673L1.7644 7.93015C1.67537 8.04486 1.59262 8.1651 1.51611 8.2907L1.94312 8.55081L2.37014 8.81092C2.42747 8.71681 2.48889 8.62766 2.55436 8.54332L2.15938 8.23673ZM1.94312 8.55081L1.51611 8.2907L1.41573 8.45549L1.84275 8.7156L2.26976 8.97571L2.37014 8.81092L1.94312 8.55081ZM1.84275 8.7156L1.41573 8.45549L1.31535 8.62027L1.74237 8.88038L2.16938 9.14049L2.26976 8.97571L1.84275 8.7156ZM1.74237 8.88038L1.31535 8.62027C1.31792 8.61605 1.32198 8.61052 1.32762 8.60477C1.33328 8.59901 1.33889 8.59469 1.34345 8.59181C1.35274 8.58592 1.35115 8.58994 1.32806 8.59415L1.4177 9.08605L1.50735 9.57794C1.76932 9.5302 2.01464 9.39453 2.16938 9.14049L1.74237 8.88038ZM1.4177 9.08605L1.32806 8.59415L1.10377 8.63502L1.19341 9.12692L1.28306 9.61882L1.50735 9.57794L1.4177 9.08605ZM1.19341 9.12692L1.10377 8.63502L0.879476 8.6759L0.969123 9.1678L1.05877 9.6597L1.28306 9.61882L1.19341 9.12692ZM0.969123 9.1678L0.879476 8.6759C0.732136 8.70275 0.572151 8.76632 0.440784 8.89698C0.307081 9.02997 0.241949 9.19375 0.219712 9.35062L0.714762 9.4208L1.20981 9.49097C1.20762 9.50643 1.19491 9.55733 1.14599 9.60599C1.09941 9.65232 1.05658 9.66009 1.05877 9.6597L0.969123 9.1678ZM0.714762 9.4208L0.219712 9.35062L0.189641 9.56274L0.684691 9.63292L1.17974 9.7031L1.20981 9.49097L0.714762 9.4208ZM0.684691 9.63292L0.189641 9.56274L0.15957 9.77487L0.654621 9.84504L1.14967 9.91522L1.17974 9.7031L0.684691 9.63292ZM0.654621 9.84504L0.15957 9.77487C0.149561 9.84547 0.145614 9.82058 0.172546 9.76696C0.178596 9.75492 0.250252 9.60245 0.443315 9.53973C0.695764 9.45773 0.876479 9.60199 0.92719 9.6527L0.573637 10.0063L0.220084 10.3598C0.287766 10.4275 0.484583 10.5778 0.752266 10.4908C0.960563 10.4231 1.04659 10.2548 1.06613 10.2159C1.12006 10.1085 1.13963 9.98603 1.14967 9.91522L0.654621 9.84504ZM0.573637 10.0063L0.92719 9.6527L0.876278 9.60179L0.522724 9.95534L0.169171 10.3089L0.220084 10.3598L0.573637 10.0063ZM0.522724 9.95534L1.01479 9.8666L0.983671 9.69407L0.491609 9.7828L-0.000453411 9.87154L0.0306612 10.0441L0.522724 9.95534ZM0.491609 9.7828L0.138055 9.42925L0.0673443 9.49996L0.420898 9.85352L0.774452 10.2071L0.845162 10.1364L0.491609 9.7828Z" fill="#76EECC"/>
<path d="M0.491609 0.424226L0.138056 0.77778L0.17081 0.810534L0.209024 0.836714L0.491609 0.424226ZM1.27112 1.35945L0.80959 1.55178L1.27112 1.35945ZM1.53206 1.62884L1.73704 1.17279L1.53206 1.62884ZM1.715 1.71107L1.51002 2.16712L1.715 1.71107ZM2.54132 2.21057L2.24713 2.61486L2.54132 2.21057ZM2.78707 2.49515L2.34595 2.73054L2.78707 2.49515ZM3.19465 3.14823L2.83635 3.49697L3.19465 3.14823ZM3.45623 3.41698L3.81453 3.06823L3.45623 3.41698ZM3.75684 3.6467L4.00163 3.21072L3.75684 3.6467ZM4.09647 3.8374L3.85168 4.27338L4.09647 3.8374ZM4.38425 4.07995L4.77442 3.76727L4.38425 4.07995ZM4.50222 4.22715L4.11205 4.53983L4.50222 4.22715ZM4.62018 4.37435L4.23002 4.68703L4.62018 4.37435ZM4.80938 4.71548L4.34003 4.88786L4.80938 4.71548ZM4.88061 4.90942L5.34995 4.73704L4.88061 4.90942ZM4.95183 5.10336L4.48249 5.27574L4.95183 5.10336ZM5.24085 5.34467L5.13456 5.83325L5.24085 5.34467ZM5.45864 5.39205L5.56492 4.90348L5.45864 5.39205ZM5.67642 5.43943L5.57014 5.928L5.67642 5.43943ZM5.99934 5.64685L6.41724 5.37234L5.99934 5.64685ZM6.10446 5.80689L5.68655 6.08139L6.10446 5.80689ZM6.20959 5.96693L6.62749 5.69242L6.20959 5.96693ZM6.4812 6.22564L6.22629 6.65577L6.4812 6.22564ZM6.81419 6.42298L7.06911 5.99284L6.81419 6.42298ZM7.04999 6.71751L7.52135 6.55074L7.04999 6.71751ZM7.11929 6.91338L6.64792 7.08015L7.11929 6.91338ZM7.18859 7.10924L6.71722 7.27602L7.18859 7.10924ZM7.40748 7.42068L7.10179 7.81635L7.40748 7.42068ZM7.70666 7.65183L8.01235 7.25616L7.70666 7.65183ZM8.00554 7.88328L8.31213 7.4883L8.00554 7.88328ZM8.15483 7.99916L7.84825 8.39413L8.15483 7.99916ZM8.30412 8.11503L8.6107 7.72006L8.30412 8.11503ZM8.61819 8.33129L8.35808 8.75831L8.61819 8.33129ZM8.94777 8.53205L9.20788 8.10503L8.94777 8.53205ZM9.15343 8.85671L9.64533 8.76707L9.15343 8.85671ZM9.23518 9.30529L8.74328 9.39494L9.23518 9.30529ZM9.48818 9.55965L9.55836 9.0646L9.48818 9.55965ZM9.91243 9.61979L9.84225 10.1148L9.91243 9.61979ZM10.0227 9.75169L10.1115 10.2438L10.2656 10.216L10.3763 10.1052L10.0227 9.75169ZM9.85019 9.7828L9.76145 9.29074L8.82068 9.4604L9.49663 10.1364L9.85019 9.7828ZM0.420898 0.353516L0.0673451 0.707069L0.138056 0.77778L0.491609 0.424226L0.845163 0.0706729L0.774452 -3.77595e-05L0.420898 0.353516ZM0.491609 0.424226L0.209024 0.836714L0.481784 1.02357L0.764368 0.611087L1.04695 0.198599L0.774194 0.0117388L0.491609 0.424226ZM0.764368 0.611087L0.481784 1.02357C0.550955 1.07096 0.595924 1.11041 0.623719 1.14005C0.651576 1.16975 0.655829 1.18281 0.653596 1.17744L1.11512 0.985115L1.57665 0.792784C1.47086 0.538918 1.26301 0.346618 1.04695 0.198599L0.764368 0.611087ZM1.11512 0.985115L0.653596 1.17744L0.731593 1.36461L1.19312 1.17228L1.65465 0.979952L1.57665 0.792784L1.11512 0.985115ZM1.19312 1.17228L0.731593 1.36461L0.80959 1.55178L1.27112 1.35945L1.73265 1.16712L1.65465 0.979952L1.19312 1.17228ZM1.27112 1.35945L0.80959 1.55178C0.909881 1.79245 1.08778 1.97734 1.32708 2.08489L1.53206 1.62884L1.73704 1.17279C1.73294 1.17095 1.73145 1.16987 1.7317 1.17004C1.73202 1.17026 1.73314 1.17111 1.7345 1.17251C1.73585 1.17391 1.73646 1.17484 1.73634 1.17466C1.73619 1.17442 1.73476 1.1722 1.73265 1.16712L1.27112 1.35945ZM1.53206 1.62884L1.32708 2.08489L1.51002 2.16712L1.715 1.71107L1.91998 1.25502L1.73704 1.17279L1.53206 1.62884ZM1.715 1.71107L1.51002 2.16712L1.69296 2.24935L1.89794 1.79329L2.10292 1.33724L1.91998 1.25502L1.715 1.71107ZM1.89794 1.79329L1.69296 2.24935C1.78525 2.29083 1.86725 2.33843 1.94017 2.3915L2.23436 1.9872L2.52855 1.58291C2.39683 1.48706 2.25455 1.40539 2.10292 1.33724L1.89794 1.79329ZM2.23436 1.9872L1.94017 2.3915L2.09365 2.50318L2.38784 2.09888L2.68203 1.69459L2.52855 1.58291L2.23436 1.9872ZM2.38784 2.09888L2.09365 2.50318L2.24713 2.61486L2.54132 2.21057L2.83551 1.80627L2.68203 1.69459L2.38784 2.09888ZM2.54132 2.21057L2.24713 2.61486C2.28633 2.64338 2.31883 2.67973 2.34595 2.73054L2.78707 2.49515L3.22819 2.25976C3.13229 2.08004 3.00096 1.92666 2.83551 1.80627L2.54132 2.21057ZM2.78707 2.49515L2.34595 2.73054L2.43821 2.90345L2.87933 2.66805L3.32046 2.43266L3.22819 2.25976L2.78707 2.49515ZM2.87933 2.66805L2.43821 2.90345L2.53047 3.07635L2.9716 2.84095L3.41272 2.60556L3.32046 2.43266L2.87933 2.66805ZM2.9716 2.84095L2.53047 3.07635C2.61312 3.23123 2.7149 3.3722 2.83635 3.49697L3.19465 3.14823L3.55295 2.79949C3.50001 2.7451 3.45309 2.68122 3.41272 2.60556L2.9716 2.84095ZM3.19465 3.14823L2.83635 3.49697L2.96714 3.63135L3.32544 3.2826L3.68374 2.93386L3.55295 2.79949L3.19465 3.14823ZM3.32544 3.2826L2.96714 3.63135L3.09793 3.76572L3.45623 3.41698L3.81453 3.06823L3.68374 2.93386L3.32544 3.2826ZM3.45623 3.41698L3.09793 3.76572C3.21986 3.89098 3.35863 3.99654 3.51204 4.08268L3.75684 3.6467L4.00163 3.21072C3.92862 3.16973 3.867 3.12214 3.81453 3.06823L3.45623 3.41698ZM3.75684 3.6467L3.51204 4.08268L3.68186 4.17803L3.92666 3.74205L4.17145 3.30607L4.00163 3.21072L3.75684 3.6467ZM3.92666 3.74205L3.68186 4.17803L3.85168 4.27338L4.09647 3.8374L4.34126 3.40142L4.17145 3.30607L3.92666 3.74205ZM4.09647 3.8374L3.85168 4.27338C3.91082 4.30658 3.95685 4.34617 3.99409 4.39263L4.38425 4.07995L4.77442 3.76727C4.65437 3.61746 4.50854 3.49535 4.34126 3.40142L4.09647 3.8374ZM4.38425 4.07995L3.99409 4.39263L4.11205 4.53983L4.50222 4.22715L4.89239 3.91447L4.77442 3.76727L4.38425 4.07995ZM4.50222 4.22715L4.11205 4.53983L4.23002 4.68703L4.62018 4.37435L5.01035 4.06167L4.89239 3.91447L4.50222 4.22715ZM4.62018 4.37435L4.23002 4.68703C4.27179 4.73916 4.30941 4.8045 4.34003 4.88786L4.80938 4.71548L5.27872 4.5431C5.21437 4.36789 5.12586 4.2058 5.01035 4.06167L4.62018 4.37435ZM4.80938 4.71548L4.34003 4.88786L4.41126 5.0818L4.88061 4.90942L5.34995 4.73704L5.27872 4.5431L4.80938 4.71548ZM4.88061 4.90942L4.41126 5.0818L4.48249 5.27574L4.95183 5.10336L5.42118 4.93098L5.34995 4.73704L4.88061 4.90942ZM4.95183 5.10336L4.48249 5.27574C4.5943 5.58017 4.838 5.76873 5.13456 5.83325L5.24085 5.34467L5.34713 4.8561C5.33888 4.8543 5.356 4.85668 5.38016 4.87685C5.40574 4.89821 5.41772 4.92156 5.42118 4.93098L4.95183 5.10336ZM5.24085 5.34467L5.13456 5.83325L5.35235 5.88062L5.45864 5.39205L5.56492 4.90348L5.34713 4.8561L5.24085 5.34467ZM5.45864 5.39205L5.35235 5.88062L5.57014 5.928L5.67642 5.43943L5.78271 4.95085L5.56492 4.90348L5.45864 5.39205ZM5.67642 5.43943L5.57014 5.928C5.59373 5.93313 5.59955 5.93806 5.59582 5.93566C5.59407 5.93454 5.59123 5.93243 5.58807 5.9293C5.58491 5.92618 5.58269 5.92328 5.58143 5.92135L5.99934 5.64685L6.41724 5.37234C6.26354 5.13834 6.03319 5.00535 5.78271 4.95085L5.67642 5.43943ZM5.99934 5.64685L5.58143 5.92135L5.68655 6.08139L6.10446 5.80689L6.52237 5.53238L6.41724 5.37234L5.99934 5.64685ZM6.10446 5.80689L5.68655 6.08139L5.79168 6.24143L6.20959 5.96693L6.62749 5.69242L6.52237 5.53238L6.10446 5.80689ZM6.20959 5.96693L5.79168 6.24143C5.90401 6.41244 6.05056 6.55163 6.22629 6.65577L6.4812 6.22564L6.73612 5.7955C6.68986 5.76808 6.65533 5.7348 6.62749 5.69242L6.20959 5.96693ZM6.4812 6.22564L6.22629 6.65577L6.39279 6.75444L6.6477 6.32431L6.90261 5.89417L6.73612 5.7955L6.4812 6.22564ZM6.6477 6.32431L6.39279 6.75444L6.55928 6.85311L6.81419 6.42298L7.06911 5.99284L6.90261 5.89417L6.6477 6.32431ZM6.81419 6.42298L6.55928 6.85311C6.56224 6.85487 6.56372 6.85607 6.56431 6.85658C6.56488 6.85708 6.56539 6.85759 6.56606 6.85843C6.56702 6.85963 6.57231 6.86644 6.57862 6.88429L7.04999 6.71751L7.52135 6.55074C7.43918 6.31847 7.28858 6.12291 7.06911 5.99284L6.81419 6.42298ZM7.04999 6.71751L6.57862 6.88429L6.64792 7.08015L7.11929 6.91338L7.59065 6.7466L7.52135 6.55074L7.04999 6.71751ZM7.11929 6.91338L6.64792 7.08015L6.71722 7.27602L7.18859 7.10924L7.65995 6.94247L7.59065 6.7466L7.11929 6.91338ZM7.18859 7.10924L6.71722 7.27602C6.79219 7.48791 6.91851 7.67475 7.10179 7.81635L7.40748 7.42068L7.71317 7.02501C7.69699 7.01251 7.67738 6.99173 7.65995 6.94247L7.18859 7.10924ZM7.40748 7.42068L7.10179 7.81635L7.25138 7.93192L7.55707 7.53625L7.86276 7.14059L7.71317 7.02501L7.40748 7.42068ZM7.55707 7.53625L7.25138 7.93192L7.40097 8.0475L7.70666 7.65183L8.01235 7.25616L7.86276 7.14059L7.55707 7.53625ZM7.70666 7.65183L7.40097 8.0475C7.5004 8.12432 7.59973 8.20124 7.69896 8.27826L8.00554 7.88328L8.31213 7.4883C8.2123 7.41082 8.11238 7.33344 8.01235 7.25616L7.70666 7.65183ZM8.00554 7.88328L7.69896 8.27826L7.84825 8.39413L8.15483 7.99916L8.46141 7.60418L8.31213 7.4883L8.00554 7.88328ZM8.15483 7.99916L7.84825 8.39413L7.99753 8.51001L8.30412 8.11503L8.6107 7.72006L8.46141 7.60418L8.15483 7.99916ZM8.30412 8.11503L7.99753 8.51001C8.11224 8.59905 8.23248 8.6818 8.35808 8.75831L8.61819 8.33129L8.8783 7.90427C8.78419 7.84695 8.69504 7.78552 8.6107 7.72006L8.30412 8.11503ZM8.61819 8.33129L8.35808 8.75831L8.52287 8.85868L8.78298 8.43167L9.04309 8.00465L8.8783 7.90427L8.61819 8.33129ZM8.78298 8.43167L8.52287 8.85868L8.68766 8.95906L8.94777 8.53205L9.20788 8.10503L9.04309 8.00465L8.78298 8.43167ZM8.94777 8.53205L8.68766 8.95906C8.68343 8.95649 8.6779 8.95243 8.67215 8.94679C8.66639 8.94114 8.66208 8.93552 8.65919 8.93096C8.65331 8.92168 8.65732 8.92326 8.66153 8.94636L9.15343 8.85671L9.64533 8.76707C9.59758 8.5051 9.46191 8.25977 9.20788 8.10503L8.94777 8.53205ZM9.15343 8.85671L8.66153 8.94636L8.70241 9.17065L9.19431 9.081L9.6862 8.99136L9.64533 8.76707L9.15343 8.85671ZM9.19431 9.081L8.70241 9.17065L8.74328 9.39494L9.23518 9.30529L9.72708 9.21565L9.6862 8.99136L9.19431 9.081ZM9.23518 9.30529L8.74328 9.39494C8.77013 9.54228 8.8337 9.70226 8.96437 9.83363C9.09735 9.96733 9.26113 10.0325 9.418 10.0547L9.48818 9.55965L9.55836 9.0646C9.57381 9.06679 9.62471 9.07951 9.67337 9.12842C9.7197 9.175 9.72748 9.21783 9.72708 9.21565L9.23518 9.30529ZM9.48818 9.55965L9.418 10.0547L9.63013 10.0848L9.7003 9.58972L9.77048 9.09467L9.55836 9.0646L9.48818 9.55965ZM9.7003 9.58972L9.63013 10.0848L9.84225 10.1148L9.91243 9.61979L9.9826 9.12474L9.77048 9.09467L9.7003 9.58972ZM9.91243 9.61979L9.84225 10.1148C9.91286 10.1249 9.88796 10.1288 9.83435 10.1019C9.8223 10.0958 9.66983 10.0242 9.60712 9.8311C9.52511 9.57865 9.66937 9.39793 9.72008 9.34722L10.0736 9.70078L10.4272 10.0543C10.4949 9.98665 10.6451 9.78983 10.5582 9.52215C10.4905 9.31385 10.3221 9.22783 10.2832 9.20828C10.1759 9.15435 10.0534 9.13478 9.9826 9.12474L9.91243 9.61979ZM10.0736 9.70078L9.72008 9.34722L9.66917 9.39814L10.0227 9.75169L10.3763 10.1052L10.4272 10.0543L10.0736 9.70078ZM10.0227 9.75169L9.93399 9.25963L9.76145 9.29074L9.85019 9.7828L9.93893 10.2749L10.1115 10.2438L10.0227 9.75169ZM9.85019 9.7828L9.49663 10.1364L9.56734 10.2071L9.9209 9.85352L10.2745 9.49996L10.2037 9.42925L9.85019 9.7828Z" fill="#76EECC"/>
</svg>
