<svg width="59" height="55" viewBox="0 0 59 55" fill="none" xmlns="http://www.w3.org/2000/svg">
<path d="M1.5 52.0973L5.79457 47.3716L7.4111 40.8247L10.1269 34.7897L11.8997 28.3936L11.8134 21.7012L13.2414 15.2135L14.0496 8.61272L13.3222 2.00112L13.3438 1.5L19.5135 2.33521L25.6779 1.67782L31.8476 2.42142L38.0173 2.42681L44.1817 2.58846L50.3568 2.39987L56.4457 2.21666L56.8553 8.58039L56.8391 15.1597L56.8229 21.7389L57.1193 28.4098L54.4413 34.628L53.7623 41.2666L50.8418 47.2262L46.8705 52.9379L40.2913 52.7708L33.809 52.9702L27.3321 52.717L20.8498 52.9918L14.3676 52.8086L7.89067 52.1404L1.5 52.0973Z" fill="#C0CCE4"/>
<path d="M1.5 52.0973L5.79457 47.3716L7.4111 40.8247L10.1269 34.7897L11.8997 28.3936L11.8134 21.7012L13.2414 15.2135L14.0496 8.61272L13.3222 2.00112L13.3438 1.5L19.5135 2.33521L25.6779 1.67782L31.8476 2.42142L38.0173 2.42681L44.1817 2.58846L50.3568 2.39987L56.4457 2.21666L56.8553 8.58039L56.8391 15.1597L56.8229 21.7389L57.1193 28.4098L54.4413 34.628L53.7623 41.2666L50.8418 47.2262L46.8705 52.9379L40.2913 52.7708L33.809 52.9702L27.3321 52.717L20.8498 52.9918L14.3676 52.8086L7.89067 52.1404L1.5 52.0973Z" fill="#9C81F6" stroke="black" stroke-width="3" stroke-linecap="round" stroke-linejoin="round"/>
</svg>
