<svg width="250" height="4" viewBox="0 0 250 4" fill="none" xmlns="http://www.w3.org/2000/svg">
<path d="M174.625 0C174.911 -9.31025e-05 175.199 0.0163975 175.484 0.046875L176.234 0.125C176.61 0.165612 176.971 0.277626 177.312 0.445312L177.688 0.632812L178.062 0.8125C178.232 0.895597 178.389 0.94621 178.531 0.96875L178.906 1.02344L179.281 1.08594C179.47 1.11583 179.658 1.13095 179.844 1.125L180.219 1.10938L180.594 1.10156C180.717 1.09757 180.851 1.06824 181 1.00781L181.375 0.851562L181.75 0.703125C182.203 0.519353 182.688 0.490055 183.164 0.632812L183.539 0.742188L183.914 0.859375H183.922C183.927 0.857995 183.938 0.850706 183.953 0.84375L184.328 0.671875L184.703 0.492188L185.141 0.351562C185.579 0.27101 186.013 0.371109 186.398 0.609375L186.773 0.835938L187.148 1.07031C187.255 1.13653 187.308 1.13347 187.32 1.13281L187.695 1.10938L188.07 1.09375C188.219 1.08544 188.374 1.05005 188.539 0.992188L189.289 0.726562C189.576 0.625324 189.873 0.548445 190.164 0.484375L190.914 0.3125C191.352 0.217062 191.793 0.250315 192.211 0.398438L192.961 0.664062C193.047 0.694414 193.115 0.700629 193.18 0.6875L193.93 0.53125C194.163 0.484144 194.399 0.433767 194.633 0.375L195.383 0.1875C195.801 0.0826577 196.226 0.0878364 196.641 0.203125L197.016 0.3125L197.391 0.414062C197.679 0.494821 197.973 0.594514 198.258 0.710938L198.633 0.867188L199.008 1.01562C199.059 1.03619 199.083 1.03855 199.109 1.03125L199.484 0.921875L199.859 0.820312C200.161 0.736054 200.466 0.678882 200.773 0.648438L201.523 0.570312C201.821 0.541065 202.124 0.532412 202.422 0.546875L202.797 0.570312L203.172 0.585938C203.395 0.596838 203.62 0.59992 203.844 0.59375L204.219 0.585938L204.594 0.570312C204.892 0.561948 205.194 0.574197 205.492 0.609375L206.242 0.703125C206.452 0.727973 206.666 0.735098 206.875 0.734375H207.625C207.788 0.733525 207.954 0.715742 208.125 0.671875L208.5 0.570312L208.875 0.476562C209.184 0.39703 209.498 0.340912 209.812 0.320312L210.562 0.273438C210.915 0.250635 211.265 0.283346 211.609 0.367188L212.359 0.554688C212.424 0.570432 212.486 0.564086 212.562 0.539062L212.938 0.421875L213.312 0.296875C213.669 0.180249 214.04 0.127212 214.414 0.140625L214.789 0.148438L215.164 0.164062C215.59 0.179883 215.993 0.306349 216.359 0.507812L216.734 0.710938L217.047 0.890625L217.352 0.757812L217.727 0.59375C218.095 0.434563 218.485 0.39676 218.867 0.46875L219.25 0.578125L220 0.875C220.082 0.907896 220.137 0.915208 220.188 0.90625L220.938 0.765625C221.257 0.705582 221.583 0.677501 221.906 0.6875L222.281 0.695312L222.656 0.710938C222.732 0.713214 222.824 0.697303 222.945 0.640625L223.32 0.460938L223.695 0.289062C224.257 0.0238222 224.856 0.0672027 225.375 0.367188L225.75 0.578125L226.086 0.773438L226.383 0.65625L226.758 0.507812C227.084 0.379774 227.423 0.295856 227.766 0.257812L228.141 0.21875L228.516 0.171875C228.848 0.135078 229.184 0.141174 229.516 0.1875L229.891 0.242188L230.266 0.289062C230.632 0.340473 230.985 0.458035 231.32 0.625L231.695 0.8125L232.062 1L232.422 0.875L232.797 0.742188C233.068 0.647163 233.344 0.565886 233.617 0.492188L234.367 0.289062C234.801 0.17254 235.244 0.180608 235.672 0.3125L236.422 0.546875C236.504 0.571625 236.576 0.571824 236.648 0.554688L237.023 0.460938L237.398 0.375C237.816 0.27697 238.238 0.288775 238.648 0.40625L239.398 0.625C239.499 0.653753 239.589 0.649973 239.68 0.632812L240.43 0.492188C240.78 0.423869 241.138 0.403629 241.492 0.445312L242.242 0.539062C242.573 0.578083 242.9 0.65764 243.219 0.773438L243.594 0.90625L243.969 1.04688C244.017 1.0641 244.048 1.05846 244.086 1.04688L244.461 0.9375L244.836 0.820312C244.967 0.780276 245.101 0.753229 245.234 0.726562L244.969 0.554688H248.5C248.804 0.554688 249.067 0.699545 249.25 0.914062L249.5 1.07031V1.64844C249.5 2.21876 249.071 2.48371 248.969 2.53906C248.837 2.60985 248.716 2.63195 248.672 2.64062C248.571 2.66035 248.474 2.6707 248.43 2.67188C248.325 2.67449 248.199 2.66375 248.07 2.65625L247.695 2.63281L247.32 2.61719C247.105 2.60458 246.887 2.59967 246.672 2.60938L245.922 2.64062C245.759 2.64802 245.588 2.68141 245.414 2.73438L245.039 2.85156L244.664 2.96094C244.203 3.10106 243.73 3.08525 243.281 2.92188L242.906 2.78906L242.531 2.64844C242.351 2.58297 242.176 2.54327 242.008 2.52344L241.633 2.47656L241.258 2.4375C241.113 2.42044 240.969 2.42457 240.82 2.45312L240.445 2.52344L240.07 2.60156C239.663 2.68105 239.249 2.66053 238.852 2.54688L238.102 2.32812C238.014 2.30308 237.932 2.30117 237.852 2.32031L237.477 2.41406L237.102 2.5C236.676 2.60001 236.244 2.58136 235.828 2.45312L235.453 2.33594L235.078 2.22656C235.007 2.20486 234.948 2.20112 234.883 2.21875L234.133 2.42188C233.908 2.48265 233.68 2.55347 233.453 2.63281L232.703 2.89844C232.184 3.07913 231.656 3.02608 231.18 2.78906L230.43 2.41406C230.267 2.33292 230.116 2.29188 229.984 2.27344L229.609 2.21875L229.234 2.17188C229.067 2.14867 228.901 2.14561 228.734 2.16406L227.984 2.24219C227.828 2.25952 227.665 2.29979 227.492 2.36719L226.742 2.66406C226.185 2.88248 225.616 2.81449 225.125 2.53125L224.75 2.3125L224.453 2.14062L224.18 2.27344L223.805 2.44531C223.427 2.62352 223.018 2.72405 222.594 2.71094L222.219 2.69531L221.844 2.6875C221.668 2.6821 221.492 2.69318 221.312 2.72656L220.562 2.86719C220.114 2.95142 219.666 2.90156 219.25 2.73438L218.875 2.58594L218.516 2.4375L218.148 2.59375L217.773 2.75781C217.225 2.99469 216.646 2.94964 216.141 2.67188L215.766 2.46875L215.391 2.25781C215.26 2.1864 215.159 2.16667 215.086 2.16406L214.336 2.13281C214.211 2.12872 214.08 2.14895 213.938 2.19531L213.188 2.44531C212.765 2.58367 212.325 2.59799 211.891 2.49219L211.516 2.40625L211.141 2.3125C210.987 2.27493 210.833 2.26389 210.688 2.27344L209.938 2.32031C209.753 2.33264 209.565 2.36496 209.375 2.41406L208.625 2.60156C208.297 2.68607 207.961 2.73322 207.625 2.73438H206.875C206.586 2.73523 206.296 2.72161 206.008 2.6875L205.633 2.64062L205.258 2.60156C205.057 2.5778 204.856 2.56487 204.656 2.57031L204.281 2.57812L203.906 2.59375C203.631 2.60145 203.353 2.5993 203.078 2.58594L202.703 2.5625L202.328 2.54688C202.128 2.53713 201.927 2.54302 201.727 2.5625L201.352 2.60156L200.977 2.63281C200.786 2.65148 200.586 2.68745 200.391 2.74219L200.016 2.85156L199.641 2.95312C199.168 3.08454 198.688 3.04979 198.242 2.86719L197.867 2.71875L197.492 2.5625C197.279 2.47531 197.068 2.40239 196.859 2.34375L196.484 2.23438L196.109 2.13281C196.026 2.10939 195.947 2.10489 195.867 2.125L195.117 2.3125C194.852 2.37902 194.586 2.4387 194.32 2.49219L193.57 2.64844C193.137 2.73539 192.702 2.70087 192.289 2.55469L191.539 2.28906C191.459 2.26078 191.396 2.25232 191.336 2.26562L190.961 2.35156L190.594 2.4375C190.386 2.48323 190.173 2.54256 189.961 2.61719L189.211 2.88281C188.877 3.00059 188.53 3.06655 188.18 3.08594L187.43 3.13281C186.943 3.15959 186.494 3.01524 186.102 2.77344L185.727 2.53906L185.43 2.35156L185.172 2.48438L184.797 2.65625C184.339 2.87039 183.835 2.92324 183.336 2.77344L182.961 2.65625L182.586 2.54688C182.563 2.54003 182.546 2.53622 182.5 2.55469L182.125 2.71094L181.75 2.85938C181.399 3.00155 181.033 3.0817 180.656 3.09375L180.281 3.10938L179.906 3.11719C179.593 3.12717 179.28 3.11185 178.969 3.0625L178.594 3L178.219 2.94531C177.862 2.88866 177.517 2.77108 177.188 2.60938L176.812 2.42188L176.438 2.24219C176.281 2.16542 176.137 2.12239 176.016 2.10938L175.266 2.03125C175.052 2.00852 174.838 1.99992 174.625 2H173.875C173.67 2.00009 173.464 2.01209 173.258 2.03906L172.883 2.08594L172.508 2.14062C172.328 2.16426 172.142 2.2086 171.953 2.27344L171.578 2.39844L171.203 2.53125C170.813 2.66506 170.404 2.70348 169.992 2.64844L169.242 2.55469C168.92 2.51164 168.601 2.43046 168.289 2.32031L167.914 2.1875L167.641 2.08594L167.312 2.3125L166.938 2.57031C166.516 2.85442 166.005 3.01047 165.453 2.91406L165.078 2.84375L164.703 2.78125C164.392 2.72663 164.084 2.64197 163.781 2.53125L163.406 2.39062L163.031 2.25781C162.917 2.21616 162.822 2.20126 162.734 2.21094L162.359 2.25781L161.984 2.29688C161.688 2.32955 161.391 2.34494 161.094 2.33594L160.719 2.32031L160.344 2.3125C160.15 2.30668 159.953 2.31694 159.758 2.34375L159.383 2.39062L159.008 2.44531C158.627 2.49715 158.247 2.47052 157.875 2.375L157.188 2.20312L156.812 2.45312L156.438 2.71094C155.931 3.05324 155.306 3.14529 154.703 2.86719L153.953 2.52344C153.742 2.42634 153.532 2.3439 153.328 2.28125L152.953 2.16406L152.578 2.05469C152.542 2.04406 152.516 2.03729 152.469 2.05469L151.719 2.33594C151.297 2.49013 150.85 2.52 150.406 2.42188L150.031 2.34375L149.656 2.25781C149.543 2.23305 149.432 2.23531 149.32 2.25781L148.945 2.32812L148.57 2.40625C148.205 2.47931 147.836 2.4886 147.469 2.42969L146.719 2.30469C146.577 2.2818 146.431 2.2806 146.289 2.30469L145.914 2.375L145.539 2.4375C145.305 2.47724 145.07 2.5205 144.836 2.57031L144.086 2.72656C143.595 2.83089 143.112 2.75281 142.68 2.53906L142.305 2.35938L141.938 2.17188L141.602 2.3125L141.227 2.45312C140.753 2.63142 140.257 2.62826 139.781 2.45312L139.406 2.32031L139.031 2.17969C138.936 2.14443 138.859 2.14463 138.789 2.15625L138.039 2.28125C137.866 2.31019 137.686 2.35548 137.5 2.42969L137.125 2.58594L136.75 2.73438C136.156 2.9728 135.558 2.86335 135.07 2.53906L134.695 2.28906L134.352 2.05469L134.07 2.15625L133.695 2.28125C133.441 2.36695 133.184 2.45713 132.93 2.53906L132.555 2.65625L132.18 2.78125C131.773 2.91162 131.351 2.93563 130.93 2.85156L130.555 2.78125L130.18 2.70312C129.878 2.6429 129.577 2.56051 129.281 2.45312L128.906 2.3125L128.531 2.17969C128.441 2.147 128.372 2.14462 128.305 2.15625L127.93 2.21875L127.555 2.28906C127.237 2.346 126.914 2.36911 126.594 2.35938L126.219 2.35156L125.844 2.33594C125.652 2.33016 125.459 2.33991 125.266 2.36719L124.516 2.47656C124.095 2.53602 123.677 2.48757 123.281 2.34375L122.906 2.20312L122.531 2.07031C122.433 2.03461 122.355 2.0275 122.281 2.03906L121.906 2.10156L121.531 2.15625C121.417 2.1742 121.283 2.22174 121.125 2.3125L120.75 2.52344L120.375 2.74219C120.109 2.89492 119.79 2.98698 119.445 2.96875C119.105 2.95033 118.806 2.82962 118.562 2.66406L118.188 2.40625L117.828 2.15625L117.539 2.25L117.164 2.36719C116.778 2.48239 116.376 2.5133 115.977 2.45312L115.602 2.39062L115.227 2.33594C115.202 2.33225 115.156 2.33196 115.07 2.375L114.32 2.75C113.963 2.92865 113.581 3.04095 113.18 3.0625L112.805 3.07812L112.43 3.10156C112.11 3.11854 111.786 3.10371 111.469 3.05469L111.094 2.99219L110.719 2.9375C110.445 2.89516 110.171 2.84425 109.898 2.78125L109.523 2.6875L109.148 2.60156C109.007 2.56898 108.87 2.56417 108.734 2.57812L107.984 2.65625C107.638 2.69301 107.288 2.67984 106.945 2.61719L106.57 2.54688L106.195 2.48438C106.079 2.46319 105.963 2.46509 105.844 2.49219L105.469 2.57812L105.094 2.65625C104.791 2.72472 104.486 2.77179 104.18 2.78906L103.805 2.8125L103.43 2.82812C103.187 2.8418 102.945 2.8639 102.703 2.88281L102.328 2.90625L101.953 2.9375C101.548 2.96913 101.151 2.90809 100.773 2.76562L100.398 2.625L100.047 2.49219L99.6953 2.67188L99.3203 2.85938C98.9213 3.05856 98.4816 3.155 98.0234 3.10938L97.6484 3.07031L97.2734 3.03906C97.0293 3.01476 96.7832 2.98922 96.5391 2.96875L95.7891 2.90625C95.5124 2.88298 95.2367 2.84373 94.9609 2.79688L94.2109 2.67188C94.0111 2.63786 93.807 2.61993 93.6094 2.61719L93.2344 2.60938H92.1484L91.3984 2.625C91.1052 2.63075 90.8081 2.61826 90.5156 2.58594L90.1406 2.53906L89.7656 2.5C89.6138 2.4832 89.4596 2.48703 89.3047 2.51562L88.5547 2.65625C88.2389 2.71442 87.9208 2.74266 87.6016 2.73438L87.2266 2.71875L86.8516 2.71094C86.6104 2.70451 86.3661 2.70336 86.125 2.70312H85.375C85.1624 2.70292 84.9477 2.71071 84.7344 2.73438L84.3594 2.78125L83.9844 2.82031C83.5788 2.86515 83.1797 2.81296 82.7969 2.67969L82.4219 2.54688L82.0469 2.42188C81.8642 2.35826 81.687 2.31575 81.5156 2.29688L81.1406 2.25781L80.7656 2.21094C80.6364 2.19675 80.5049 2.20799 80.3672 2.24219L79.6172 2.42969C79.254 2.52012 78.8795 2.54249 78.5078 2.5L78.1328 2.46094L77.7578 2.41406C77.7137 2.40963 77.65 2.41527 77.5547 2.46094L76.8047 2.82031C76.3165 3.0538 75.7814 3.08959 75.2656 2.89062L74.5156 2.59375C74.3527 2.5306 74.1978 2.50211 74.0547 2.49219L73.6797 2.46094L73.3047 2.4375C73.193 2.42992 73.0764 2.44861 72.9453 2.49219L72.1953 2.74219C71.6739 2.91651 71.1437 2.85692 70.6719 2.61719L70.2969 2.42969L69.9219 2.23438L69.9141 2.22656L69.5625 2.35156L69.1875 2.47656C68.783 2.60986 68.3593 2.64206 67.9375 2.5625L67.1875 2.42188C67.0271 2.39177 66.8677 2.38452 66.7109 2.39844L65.9609 2.46094C65.601 2.49264 65.2424 2.46847 64.8906 2.38281L64.1406 2.19531C64.0517 2.17355 63.9655 2.17195 63.875 2.19531L63.5 2.29688L63.125 2.39062C62.7812 2.47949 62.4313 2.51723 62.0781 2.5L61.7031 2.48438L61.3281 2.46094C61.0711 2.44821 60.8117 2.43308 60.5547 2.41406L60.1797 2.39062L59.8047 2.35938C59.6227 2.34589 59.4332 2.3512 59.25 2.375L58.5 2.46875C58.1318 2.51621 57.7606 2.50464 57.3984 2.42188L56.6484 2.25C56.4287 2.19989 56.2104 2.15422 55.9922 2.125L55.2422 2.03125H55.2344C55.2228 2.03466 55.1975 2.04459 55.1562 2.07031L54.4062 2.53906C53.8859 2.86392 53.2689 2.92254 52.6875 2.64062L52.3125 2.46094L52.0391 2.32031L51.75 2.49219L51.375 2.71094C50.9632 2.9478 50.4906 3.06576 49.9922 3L49.6172 2.95312L49.2422 2.89844C48.8527 2.84673 48.4848 2.71533 48.1406 2.52344L47.3906 2.10156C47.368 2.08895 47.3503 2.08795 47.3438 2.08594L46.9766 2.17188L46.6016 2.25781C46.3566 2.31548 46.1121 2.37666 45.8672 2.4375L45.1172 2.625C44.8604 2.6888 44.6007 2.74662 44.3438 2.80469L43.5938 2.97656C43.1703 3.07202 42.741 3.05675 42.3281 2.92969L41.5781 2.69531C41.3066 2.61167 41.0355 2.51864 40.7656 2.41406L40.3906 2.26562L40.0547 2.13281L39.7109 2.32031L39.3359 2.51562C38.9645 2.709 38.559 2.82371 38.1328 2.82812L37.7578 2.83594H37.3828C37.0443 2.83922 36.7055 2.79504 36.375 2.71094L35.625 2.52344C35.522 2.49768 35.4266 2.49513 35.3281 2.51562L34.5781 2.67188C34.3207 2.72543 34.0622 2.77299 33.8047 2.82031L33.0547 2.96094C32.592 3.04575 32.1375 2.98276 31.7188 2.79688L31.3438 2.625L30.9688 2.46094C30.9093 2.43453 30.8867 2.44043 30.8672 2.44531L30.1172 2.63281C29.8014 2.71184 29.4783 2.75447 29.1562 2.76562L28.4062 2.79688C27.9687 2.81139 27.5531 2.70168 27.1719 2.50781L26.7969 2.32031L26.4219 2.125C26.3911 2.10937 26.375 2.10934 26.375 2.10938L26 2.20312L25.625 2.30469C25.1986 2.41535 24.7655 2.40521 24.3438 2.28125L23.9688 2.17188L23.625 2.07031V2.07812L23.25 2.28906L22.875 2.50781C22.3457 2.81287 21.7413 2.84304 21.1797 2.5625L20.5078 2.22656L20.2188 2.39062L19.8438 2.58594C19.4265 2.80671 18.957 2.90472 18.4688 2.82812L18.0938 2.77344L17.7188 2.71094C17.3862 2.65864 17.0595 2.56879 16.7422 2.4375L15.9922 2.125C15.9062 2.08945 15.8469 2.08492 15.7969 2.09375L15.4219 2.16406L15.0469 2.22656C14.8559 2.26041 14.6594 2.31144 14.4609 2.38281L14.0859 2.52344L13.7109 2.65625C13.4078 2.76514 13.1005 2.84679 12.7891 2.89844L12.0391 3.02344C11.6561 3.0869 11.268 3.07397 10.8906 2.98438L10.5156 2.89062L10.1406 2.80469C9.85476 2.7367 9.57149 2.64785 9.28906 2.54688L8.53906 2.28125C8.37072 2.22106 8.20736 2.18996 8.05469 2.17969L7.67969 2.15625L7.30469 2.125C7.11761 2.11262 6.93009 2.11872 6.74219 2.14062L6.36719 2.1875L5.99219 2.22656C5.82858 2.2457 5.65459 2.29191 5.47656 2.35938L4.72656 2.64062C4.2789 2.80984 3.80778 2.83225 3.34375 2.69531L2.59375 2.47656C2.5338 2.45881 2.32985 2.43135 1.90625 2.47656L1.20312 2.54688L1.15625 2.55469H1C0.447715 2.55469 0 2.10697 0 1.55469C0 1.0024 0.447715 0.554688 1 0.554688H1.0625L1.69531 0.484375C2.20333 0.430259 2.71734 0.425494 3.15625 0.554688L3.53125 0.671875L3.90625 0.78125C3.94095 0.791523 3.97227 0.792828 4.02344 0.773438L4.39844 0.632812L4.77344 0.484375C5.094 0.363205 5.42298 0.281419 5.75781 0.242188L6.13281 0.203125L6.50781 0.15625C6.81836 0.119931 7.13393 0.111867 7.44531 0.132812L8.19531 0.179688C8.54136 0.203249 8.88045 0.280351 9.21094 0.398438L9.96094 0.664062C10.1775 0.741473 10.3963 0.808801 10.6094 0.859375L10.9844 0.945312L11.3594 1.03906C11.4805 1.06734 11.5951 1.06607 11.7109 1.04688L12.4609 0.921875C12.6486 0.890779 12.8432 0.843889 13.0391 0.773438L13.7891 0.507812C14.0897 0.399767 14.395 0.312246 14.7031 0.257812L15.0781 0.195312L15.4531 0.125C15.9019 0.0461887 16.345 0.102765 16.7578 0.273438L17.5078 0.585938C17.6898 0.661256 17.8645 0.708217 18.0312 0.734375L18.4062 0.796875L18.7812 0.851562C18.7935 0.85351 18.8261 0.862498 18.9062 0.820312L19.2812 0.617188L19.6562 0.421875L20.0625 0.265625C20.3402 0.192119 20.6256 0.184763 20.9062 0.25L21.3203 0.398438L21.6953 0.585938L21.9609 0.726562L22.25 0.5625L22.625 0.34375C22.968 0.146091 23.352 0.0427864 23.75 0.0703125L24.1562 0.140625L24.5312 0.257812L24.9062 0.367188C24.9839 0.390021 25.0521 0.386174 25.125 0.367188L25.5 0.273438L25.875 0.171875C26.3818 0.0405704 26.8812 0.116433 27.3281 0.34375L27.7031 0.53125L28.0781 0.726562C28.1957 0.786296 28.2827 0.798987 28.3438 0.796875L29.0938 0.765625C29.2702 0.759267 29.4502 0.733251 29.6328 0.6875L30.3828 0.5C30.8628 0.380136 31.3411 0.437129 31.7812 0.632812L32.1562 0.796875L32.5312 0.96875C32.6112 1.00412 32.659 0.998856 32.6953 0.992188L33.0703 0.921875L33.4453 0.859375C33.6875 0.814878 33.9296 0.761342 34.1719 0.710938L34.9219 0.554688C35.322 0.471615 35.7295 0.485287 36.125 0.585938L36.875 0.773438C37.0428 0.815921 37.2074 0.837594 37.3672 0.835938H37.7422L38.1172 0.828125C38.1905 0.826961 38.2871 0.808287 38.4141 0.742188L39.1641 0.351562C39.6537 0.0969481 40.2018 0.0518081 40.7344 0.257812L41.1094 0.398438L41.4844 0.546875C41.7128 0.63543 41.9452 0.711477 42.1719 0.78125L42.9219 1.01562C43.0075 1.04161 43.0809 1.04047 43.1562 1.02344L43.5312 0.945312L43.9062 0.859375C44.1483 0.804658 44.3906 0.747651 44.6328 0.6875L45.3828 0.5C45.6368 0.436912 45.8944 0.372298 46.1484 0.3125L46.8984 0.140625L47.2812 0.0859375C47.6636 0.0728782 48.0287 0.17515 48.3594 0.359375L49.1094 0.78125C49.2638 0.867521 49.399 0.907515 49.5078 0.921875L50.2578 1.01562C50.2654 1.01677 50.2979 1.02062 50.375 0.976562L50.75 0.757812L51.125 0.546875C51.5172 0.321298 51.9536 0.238868 52.3828 0.328125L52.8125 0.476562L53.1875 0.65625L53.4375 0.789062L53.7188 0.609375L54.0938 0.375C54.5062 0.117464 54.9894 -0.0225272 55.5078 0.046875L55.8828 0.09375L56.2578 0.148438C56.5384 0.186017 56.8225 0.233098 57.1016 0.296875L57.8516 0.46875C57.987 0.499288 58.1205 0.509024 58.25 0.492188L58.625 0.4375L59 0.390625C59.3144 0.350029 59.6298 0.344037 59.9453 0.367188L60.3203 0.390625L60.6953 0.421875C60.9364 0.439738 61.1808 0.456793 61.4219 0.46875L62.1719 0.5C62.3178 0.507228 62.4697 0.493276 62.625 0.453125L63 0.359375L63.375 0.257812C63.7828 0.152586 64.2 0.150448 64.6094 0.25L65.3594 0.4375C65.5055 0.473262 65.6512 0.480994 65.7891 0.46875L66.5391 0.40625C66.881 0.37609 67.2243 0.389335 67.5625 0.453125L68.3125 0.59375C68.3896 0.608032 68.4682 0.609264 68.5625 0.578125L69.3125 0.328125L69.7031 0.242188C70.0923 0.197369 70.4757 0.274022 70.8281 0.453125L71.2031 0.640625L71.5781 0.835938L72.3047 0.59375C72.6724 0.470817 73.0579 0.418462 73.4453 0.445312L74.1953 0.492188C74.5516 0.51698 74.8979 0.604072 75.2344 0.734375L75.6094 0.875L75.9531 1.01562L76.3203 0.835938L76.6953 0.65625C77.0963 0.464791 77.5377 0.377735 77.9922 0.429688L78.3672 0.476562L78.7422 0.515625C78.869 0.529716 78.9977 0.525664 79.1328 0.492188L79.8828 0.304688C80.2446 0.214609 80.614 0.1858 80.9844 0.226562L81.3594 0.265625L81.7344 0.3125C82.0627 0.348669 82.3861 0.420882 82.7031 0.53125L83.0781 0.664062L83.4531 0.789062C83.5699 0.829709 83.6716 0.838553 83.7656 0.828125L84.5156 0.75C84.8018 0.718283 85.0882 0.702886 85.375 0.703125H86.125C86.3825 0.703372 86.641 0.704098 86.8984 0.710938L87.2734 0.71875L87.6484 0.734375C87.8275 0.739152 88.0128 0.721184 88.1953 0.6875L88.5703 0.617188L88.9453 0.554688C89.2899 0.49119 89.6366 0.477178 89.9844 0.515625L90.7344 0.59375C90.9403 0.616536 91.1464 0.628859 91.3516 0.625L92.1016 0.609375H93.2656L93.6406 0.617188C93.9413 0.621449 94.2406 0.65248 94.5391 0.703125L95.2891 0.828125C95.5115 0.865981 95.7395 0.895487 95.9609 0.914062L96.7109 0.976562C96.9653 0.99791 97.2222 1.02154 97.4766 1.04688L97.8516 1.08594L98.2266 1.11719C98.268 1.12099 98.3307 1.11978 98.4297 1.07031L99.1797 0.695312C99.545 0.513179 99.94 0.446669 100.336 0.507812L100.727 0.609375L101.477 0.890625C101.598 0.936585 101.703 0.952569 101.797 0.945312L102.547 0.882812C102.804 0.862746 103.063 0.850441 103.32 0.835938L104.07 0.789062C104.263 0.778099 104.46 0.755486 104.656 0.710938L105.406 0.539062C105.786 0.453264 106.171 0.445634 106.555 0.515625L106.93 0.585938L107.305 0.648438C107.46 0.676849 107.613 0.687689 107.766 0.671875L108.141 0.632812L108.516 0.585938C108.879 0.547393 109.245 0.573925 109.602 0.65625L110.352 0.828125C110.578 0.880348 110.806 0.926184 111.031 0.960938L111.406 1.01562L111.781 1.07812C111.962 1.1058 112.142 1.11096 112.32 1.10156L112.695 1.08594L113.07 1.0625C113.168 1.05732 113.288 1.03177 113.43 0.960938L114.18 0.585938C114.593 0.37921 115.049 0.287876 115.523 0.359375L116.273 0.46875C116.372 0.483708 116.473 0.478608 116.586 0.445312L117.336 0.226562C117.921 0.0518134 118.483 0.191158 118.938 0.5L119.312 0.75L119.539 0.914062L119.75 0.789062L120.125 0.578125C120.466 0.38236 120.833 0.240553 121.219 0.179688L121.594 0.125L121.969 0.0625C122.395 -0.00465071 122.818 0.0417844 123.219 0.1875L123.594 0.328125L123.969 0.460938C124.072 0.498347 124.156 0.503193 124.234 0.492188L124.609 0.4375L124.984 0.390625C125.29 0.347435 125.599 0.326596 125.906 0.335938L126.281 0.351562L126.656 0.359375C126.835 0.364733 127.014 0.352669 127.195 0.320312L127.57 0.25L127.945 0.1875C128.377 0.109957 128.811 0.148715 129.219 0.296875L129.594 0.4375L129.969 0.570312C130.173 0.644314 130.373 0.702697 130.57 0.742188L130.945 0.8125L131.32 0.890625C131.398 0.906115 131.477 0.904912 131.57 0.875L131.945 0.75L132.32 0.632812C132.565 0.553936 132.81 0.473149 133.055 0.390625L133.43 0.265625L133.805 0.132812L134.242 0.046875C134.529 0.0246066 134.806 0.0745932 135.062 0.179688L135.43 0.375L135.805 0.625L136.109 0.835938L136.375 0.726562L136.75 0.578125C137.063 0.452671 137.385 0.358941 137.711 0.304688L138.461 0.179688C138.891 0.108158 139.315 0.156172 139.719 0.304688L140.094 0.445312L140.469 0.578125L140.492 0.585938C140.495 0.585305 140.512 0.582437 140.523 0.578125L141.273 0.296875C141.795 0.100147 142.334 0.134582 142.82 0.375L143.57 0.75C143.631 0.779763 143.653 0.775808 143.664 0.773438L144.414 0.617188C144.678 0.561162 144.947 0.505653 145.211 0.460938L145.961 0.335938C146.317 0.275969 146.675 0.271006 147.031 0.328125L147.781 0.453125C147.912 0.474282 148.046 0.472095 148.18 0.445312L148.555 0.367188L148.93 0.296875C149.316 0.219401 149.709 0.219554 150.094 0.304688L150.469 0.390625L150.844 0.46875C150.899 0.480633 150.954 0.481467 151.031 0.453125L151.406 0.320312L151.781 0.179688C152.232 0.0145141 152.709 -0.00128746 153.172 0.140625L153.547 0.257812L153.922 0.367188C154.216 0.45759 154.509 0.570323 154.797 0.703125L155.172 0.882812L155.406 0.992188L155.688 0.796875L156.062 0.546875C156.396 0.321743 156.787 0.179375 157.203 0.1875L157.625 0.25L158.375 0.4375C158.502 0.470124 158.624 0.477201 158.742 0.460938L159.117 0.414062L159.492 0.359375C159.796 0.31784 160.101 0.30325 160.406 0.3125L160.781 0.320312L161.156 0.335938C161.359 0.342035 161.562 0.334953 161.766 0.3125L162.141 0.265625L162.516 0.226562C162.928 0.181139 163.333 0.233845 163.719 0.375L164.094 0.515625L164.469 0.648438C164.666 0.720572 164.858 0.77924 165.047 0.8125L165.422 0.875L165.773 0.9375C165.783 0.932767 165.794 0.918926 165.812 0.90625L166.562 0.40625C166.915 0.168212 167.332 0.0329086 167.766 0.0703125L168.211 0.171875L168.961 0.4375C169.148 0.503374 169.331 0.546604 169.508 0.570312L169.883 0.617188L170.258 0.671875C170.346 0.683565 170.438 0.670039 170.547 0.632812L170.922 0.507812L171.297 0.375C171.606 0.268801 171.924 0.198246 172.242 0.15625L172.617 0.101562L172.992 0.0546875C173.285 0.0162685 173.581 0.000109315 173.875 0H174.625Z" fill="black"/>
</svg>
