<svg width="102" height="81" viewBox="0 0 102 81" fill="none" xmlns="http://www.w3.org/2000/svg">
<path d="M4.8393 33.7496L5.29331 35.0612L6.11899 36.1054L6.58782 37.3263L7.08109 38.535L7.90906 39.5803L8.25343 40.8607L8.97341 41.958L9.61385 43.0957L10.1065 44.3028L10.7873 45.4191L11.1385 46.6971L11.9886 47.7292L12.5092 48.923L13.2144 50.0272L13.3718 51.4017L13.8912 52.5977L14.5362 53.732L15.3062 54.8027L16.0381 55.896L16.3109 57.2121L16.8383 58.4035L17.7151 59.4246L18.3112 60.5831L18.7982 61.7959L19.4739 62.914L19.9251 64.1447L20.2831 65.4204L20.9804 66.5292L21.4657 67.7426L22.4124 68.7284L22.6397 70.0677L23.208 71.2395L23.8843 72.3593L24.6287 73.4444L25.1566 74.6376L25.8266 75.7614L26.1669 77.1193L27.4844 76.789L28.6307 76.1571L29.9472 76.0308L31.0604 75.3015L32.2486 74.7924L33.597 74.7543L34.723 74.0626L35.878 73.4563L37.2543 73.5001L38.4621 73.049L39.6433 72.5194L40.8111 71.9506L42.037 71.5525L43.2117 71.0041L44.4794 70.7288L45.6739 70.2384L46.9608 70.0195L48.1646 69.5564L49.3852 69.1429L50.585 68.6679L51.8672 68.4353L53.0535 67.9211L54.3404 67.702L55.5099 67.1384L56.6569 66.5138L57.9873 66.4228L59.2038 65.9973L60.4169 65.5616L61.5923 65.015L62.8879 64.8216L64.0626 64.2732L65.224 63.6856L66.4156 63.1868L67.6357 62.7715L68.9028 62.4945L70.1653 62.2038L71.3156 61.5839L72.5304 61.1475L73.7093 60.6111L75.0763 60.6276L76.2359 60.0292L77.442 59.573L78.7027 59.2715L79.9599 58.9655L81.1591 58.4888L82.3913 58.1094L83.5417 57.4837L84.7937 57.1623L86.0196 56.7641L87.2593 56.4012L88.3806 55.6902L89.4745 55.3293L89.5399 54.1285L89.1877 52.8698L88.8002 51.6194L88.5835 50.3336L88.5313 49.0167L87.9166 47.8092L88.0085 46.4623L87.687 45.1989L87.5113 43.9049L87.3236 42.615L86.7346 41.4046L86.7245 40.0771L86.3211 38.8302L86.1493 37.5368L86.0664 36.2246L85.491 35.0095L85.4599 33.6873L85.11 32.4297L84.8005 31.1623L84.8405 29.8253L84.367 28.5908L84.2699 27.2815L83.7235 26.0623L83.7778 24.7224L83.1722 23.5138L82.9874 22.221L82.8811 20.913L82.5824 19.6437L82.5154 18.328L81.8797 17.1258L81.6772 15.8372L81.7565 14.4926L81.0866 13.2963L81.2177 11.9417L80.7972 10.6949L80.5998 9.40451L80.3477 8.09847L79.1243 8.63287L77.8314 8.8844L76.6378 9.42773L75.4274 9.92157L74.1571 10.2397L72.9751 10.8171L71.7653 11.3127L70.4189 11.4129L69.1278 11.6696L67.9487 12.2556L66.7818 12.8774L65.5167 13.2108L64.2604 13.5698L63.0215 13.9858L61.8442 14.5769L60.6163 15.0195L59.2729 15.1226L58.0236 15.5078L56.7725 15.8822L55.6741 16.7054L54.347 16.862L53.1719 17.4599L51.94 17.8906L50.7092 18.3247L49.4204 18.5939L48.1345 18.8659L46.9269 19.374L45.7293 19.9054L44.5095 20.3719L43.3281 20.9568L41.9528 20.966L40.7882 21.5946L39.5272 21.94L38.2993 22.3827L37.0622 22.798L35.911 23.4716L34.5316 23.4689L33.4076 24.217L32.196 24.7074L30.9548 25.1108L29.7299 25.5677L28.5049 26.0189L27.1301 26.0355L25.9998 26.7648L24.7963 27.2792L23.4007 27.2344L22.2994 28.049L20.9525 28.1475L19.7833 28.7683L18.4893 29.0164L17.2184 29.3385L15.9894 29.7834L14.7622 30.2277L13.5814 30.8143L12.4394 31.5095L11.171 31.8384L9.91001 32.1895L8.68682 32.6515L7.36316 32.8183L6.17485 33.3884L4.8393 33.7496Z" fill="#4FBA96"/>
<path d="M4.8393 33.7496L5.29331 35.0612L6.11899 36.1054L6.58782 37.3263L7.08109 38.535L7.90906 39.5803L8.25343 40.8607L8.97341 41.958L9.61385 43.0957L10.1065 44.3028L10.7873 45.4191L11.1385 46.6971L11.9886 47.7292L12.5092 48.923L13.2144 50.0272L13.3718 51.4017L13.8912 52.5977L14.5362 53.732L15.3062 54.8027L16.0381 55.896L16.3109 57.2121L16.8383 58.4035L17.7151 59.4246L18.3112 60.5831L18.7982 61.7959L19.4739 62.914L19.9251 64.1447L20.2831 65.4204L20.9804 66.5292L21.4657 67.7426L22.4124 68.7284L22.6397 70.0677L23.208 71.2395L23.8843 72.3593L24.6287 73.4444L25.1566 74.6376L25.8266 75.7614L26.1669 77.1193L27.4844 76.789L28.6307 76.1571L29.9472 76.0308L31.0604 75.3015L32.2486 74.7924L33.597 74.7543L34.723 74.0626L35.878 73.4563L37.2543 73.5001L38.4621 73.049L39.6433 72.5194L40.8111 71.9506L42.037 71.5525L43.2117 71.0041L44.4794 70.7288L45.6739 70.2384L46.9608 70.0195L48.1646 69.5564L49.3852 69.1429L50.585 68.6679L51.8672 68.4353L53.0535 67.9211L54.3404 67.702L55.5099 67.1384L56.6569 66.5138L57.9873 66.4228L59.2038 65.9973L60.4169 65.5616L61.5923 65.015L62.8879 64.8216L64.0626 64.2732L65.224 63.6856L66.4156 63.1868L67.6357 62.7715L68.9028 62.4945L70.1653 62.2038L71.3156 61.5838L72.5304 61.1475L73.7093 60.6111L75.0763 60.6276L76.2359 60.0292L77.442 59.573L78.7027 59.2715L79.9599 58.9655L81.1591 58.4888L82.3913 58.1094L83.5417 57.4837L84.7937 57.1623L86.0196 56.7642L87.2593 56.4012L88.3806 55.6902L89.4745 55.3293L89.5399 54.1285L89.1877 52.8698L88.8002 51.6194L88.5835 50.3336L88.5313 49.0167L87.9166 47.8092L88.0085 46.4623L87.687 45.1989L87.5113 43.9049L87.3236 42.615L86.7346 41.4046L86.7245 40.0771L86.3211 38.8302L86.1493 37.5368L86.0664 36.2246L85.491 35.0095L85.4599 33.6873L85.11 32.4297L84.8005 31.1623L84.8405 29.8253L84.367 28.5908L84.2699 27.2815L83.7235 26.0623L83.7778 24.7224L83.1722 23.5138L82.9874 22.221L82.8811 20.913L82.5824 19.6437L82.5154 18.328L81.8797 17.1258L81.6772 15.8372L81.7565 14.4926L81.0866 13.2963L81.2177 11.9417L80.7972 10.6949L80.5998 9.40451L80.3477 8.09847L79.1244 8.63287L77.8314 8.8844L76.6378 9.42772L75.4274 9.92158L74.1571 10.2397L72.9751 10.8171L71.7653 11.3127L70.419 11.4129L69.1278 11.6696L67.9487 12.2556L66.7818 12.8774L65.5167 13.2108L64.2604 13.5698L63.0215 13.9858L61.8442 14.5769L60.6163 15.0195L59.2729 15.1226L58.0236 15.5078L56.7725 15.8822L55.6741 16.7054L54.347 16.862L53.1719 17.4599L51.94 17.8906L50.7092 18.3247L49.4204 18.5939L48.1345 18.8659L46.9269 19.374L45.7293 19.9054L44.5095 20.3719L43.3281 20.9568L41.9528 20.966L40.7882 21.5946L39.5272 21.94L38.2993 22.3827L37.0622 22.798L35.911 23.4716L34.5316 23.4689L33.4076 24.217L32.196 24.7074L30.9548 25.1108L29.7299 25.5677L28.5049 26.0189L27.1301 26.0355L25.9998 26.7648L24.7963 27.2792L23.4007 27.2344L22.2994 28.049L20.9525 28.1475L19.7833 28.7683L18.4893 29.0164L17.2184 29.3385L15.9894 29.7834L14.7622 30.2277L13.5814 30.8143L12.4394 31.5095L11.171 31.8384L9.91001 32.1895L8.68682 32.6515L7.36316 32.8183L6.17485 33.3884L4.8393 33.7496Z" stroke="black" stroke-linecap="round" stroke-linejoin="round"/>
<path d="M41.8736 14.7078L43.0878 14.2698L44.2474 13.6714L45.5035 13.3562L46.6556 12.7413L47.9279 12.474L49.0881 11.8773L50.3923 11.7038L51.5862 11.206L52.74 10.5906L54.0797 10.5211L55.1725 9.72651L56.4907 9.59395L57.6196 8.90509L58.8506 8.51088L60.138 8.28788L61.2703 7.60928L62.5879 7.475L63.8579 7.19512L64.9484 6.39365L66.2962 6.34813L67.382 5.52731L68.681 5.33843L69.8569 4.78779L71.1768 4.65466L72.3115 3.98288L73.5994 3.75588L74.7463 3.11996L75.9535 2.65577L77.2438 2.4356L78.4618 1.78497L79.55 2.25805L80.4403 2.96041L81.4798 3.29587L82.8017 3.57141L83.9471 4.25163L85.0007 5.09832L85.6601 6.43141L84.2935 6.57284L83.1456 7.22246L81.8432 7.41819L80.6866 8.04224L79.4713 8.49392L78.1887 8.74768L77.082 9.51845L75.8533 9.92521L74.4894 9.94007L73.3002 10.4685L72.157 11.1318L70.8737 11.3839L69.6474 11.8031L68.3781 12.0961L67.2471 12.7952L65.9505 13.0081L64.7753 13.5775L63.5107 13.8841L62.3558 14.5133L61.0185 14.6066L59.7801 14.9958L58.527 15.3365L57.3019 15.7592L56.0826 16.2047L54.9004 16.7536L53.6021 16.9613L52.4635 17.6439L51.3069 18.268L49.9732 18.3716L48.7306 18.7488L47.5636 19.3421L46.2612 19.5378L45.1459 20.2944L43.8673 20.5658L42.6735 21.0806L41.4234 21.4299L40.1199 21.6222L38.9719 22.2719L37.7456 22.6911L36.4926 23.0319L35.3389 23.6588L34.1218 24.1054L32.8584 24.4154L31.6442 24.8705L30.3308 25.0339L29.1771 25.6664L27.9647 26.1209L26.7274 26.5135L25.4308 26.7263L24.2016 27.137L22.9567 27.5017L21.7461 27.967L20.4669 28.231L19.355 28.9865L18.1775 29.5548L16.8589 29.7027L15.6117 30.0605L14.4806 30.7597L13.2561 31.1897L11.9943 31.5049L10.8 32.0181L9.54002 32.3441L8.22833 32.5125L7.08101 33.1638L5.73621 33.235L4.52621 33.7078L3.4463 34.5627L2.13776 34.6901L1.82698 33.4021L2.08648 32.0666L2.81721 30.9745L3.54652 29.839L4.16384 28.9339L4.4179 27.823L4.98931 26.7775L6.33968 26.5045L7.55507 26.0699L8.8512 25.8782L10.0068 25.2678L11.2059 24.7855L12.4886 24.5488L13.736 24.2081L14.9281 23.7052L16.147 23.2809L17.3368 22.7712L18.5992 22.4748L19.7002 21.7041L21.0933 21.7916L22.2349 21.1346L23.3742 20.4765L24.5931 20.0521L25.9647 20.0766L27.2073 19.7165L28.3431 19.0481L29.598 18.7296L30.8482 18.3917L31.9788 17.7079L33.2377 17.4013L34.4147 16.8484L35.6104 16.3558L36.8228 15.907L38.0899 15.6242L39.3215 15.2317L40.543 14.776L41.8736 14.7078Z" fill="white"/>
<path d="M41.8736 14.7078L43.0878 14.2698L44.2474 13.6714L45.5035 13.3562L46.6556 12.7413L47.9279 12.474L49.0881 11.8773L50.3923 11.7038L51.5862 11.206L52.74 10.5906L54.0797 10.5211L55.1725 9.72651L56.4907 9.59395L57.6196 8.90509L58.8506 8.51088L60.138 8.28788L61.2703 7.60928L62.5879 7.475L63.8579 7.19512L64.9484 6.39365L66.2962 6.34813L67.382 5.52731L68.681 5.33843L69.8569 4.7878L71.1768 4.65466L72.3115 3.98288L73.5994 3.75588L74.7463 3.11996L75.9535 2.65577L77.2438 2.4356L78.4618 1.78497L79.55 2.25805L80.4403 2.96041L81.4798 3.29587L82.8017 3.57141L83.9471 4.25163L85.0007 5.09832L85.6601 6.43141L84.2935 6.57284L83.1456 7.22246L81.8432 7.41819L80.6866 8.04224L79.4713 8.49392L78.1887 8.74768L77.082 9.51845L75.8533 9.92521L74.4894 9.94007L73.3002 10.4685L72.157 11.1318L70.8737 11.3839L69.6474 11.8031L68.3781 12.0961L67.2471 12.7952L65.9505 13.0081L64.7753 13.5775L63.5107 13.8841L62.3558 14.5133L61.0185 14.6066L59.7801 14.9958L58.527 15.3365L57.3019 15.7592L56.0826 16.2047L54.9004 16.7536L53.6021 16.9613L52.4635 17.6439L51.3069 18.268L49.9732 18.3716L48.7306 18.7488L47.5636 19.3421L46.2612 19.5378L45.1459 20.2944L43.8673 20.5658L42.6735 21.0806L41.4234 21.4299L40.1199 21.6222L38.9719 22.2719L37.7456 22.6911L36.4926 23.0319L35.3389 23.6588L34.1218 24.1054L32.8584 24.4154L31.6442 24.8705L30.3308 25.0339L29.1771 25.6664L27.9647 26.1209L26.7274 26.5135L25.4308 26.7263L24.2016 27.137L22.9567 27.5017L21.7461 27.967L20.4669 28.231L19.355 28.9865L18.1775 29.5548L16.8589 29.7027L15.6117 30.0605L14.4806 30.7597L13.2561 31.1897L11.9943 31.5049L10.8 32.0181L9.54002 32.3441L8.22833 32.5125L7.08101 33.1638L5.73621 33.235L4.52621 33.7078L3.4463 34.5627L2.13776 34.6901L1.82698 33.4021L2.08648 32.0666L2.81721 30.9745L3.54652 29.839L4.16384 28.9339L4.4179 27.823L4.98931 26.7775L6.33968 26.5045L7.55507 26.0699L8.8512 25.8782L10.0068 25.2678L11.2059 24.7855L12.4886 24.5488L13.736 24.2081L14.9281 23.7052L16.147 23.2809L17.3368 22.7712L18.5992 22.4748L19.7002 21.7041L21.0933 21.7916L22.2349 21.1346L23.3742 20.4765L24.5931 20.0521L25.9647 20.0766L27.2073 19.7165L28.3431 19.0481L29.598 18.7296L30.8482 18.3917L31.9788 17.7079L33.2377 17.4013L34.4147 16.8484L35.6104 16.3558L36.8228 15.907L38.0899 15.6242L39.3215 15.2317L40.543 14.776L41.8736 14.7078Z" stroke="black" stroke-linecap="round" stroke-linejoin="round"/>
<path d="M29.0611 21.4501L30.2398 20.8014L31.4434 20.2204L32.8248 20.1673L34.0418 19.6312L35.3378 19.3215L36.4636 18.5176L37.7219 18.097L39.0452 17.8731L40.1988 17.1454L41.615 17.1889L42.7264 16.3423L44.0479 16.1134L45.3875 15.9317L46.5824 15.3307L47.8586 14.963L48.9989 14.196L50.3611 14.0809L51.5897 13.5732L52.9055 13.3215" fill="white"/>
<path d="M29.0611 21.4501L30.2398 20.8014L31.4434 20.2204L32.8248 20.1673L34.0418 19.6312L35.3378 19.3215L36.4636 18.5176L37.7219 18.097L39.0452 17.8731L40.1988 17.1454L41.615 17.1889L42.7264 16.3423L44.0479 16.1134L45.3874 15.9317L46.5824 15.3307L47.8586 14.963L48.9989 14.196L50.3611 14.0809L51.5897 13.5732L52.9055 13.3215" stroke="black" stroke-linecap="round" stroke-linejoin="round"/>
<path d="M76.9018 49.2181L75.7215 49.7836L74.4795 50.1568L73.1452 50.2587L72.0002 50.9169L70.7971 51.4044L69.5737 51.8322L68.2951 52.0922L67.0165 52.3579L65.8663 53.0007L64.6016 53.3073L63.3341 53.6055L62.1844 54.25L60.9877 54.7563L59.683 54.9452L58.4567 55.3644L57.1851 55.6506L55.9832 56.1416L54.8876 56.9448L53.5457 57.0244L52.3362 57.4932L51.1732 58.1042L49.8993 58.3835L48.6765 58.8131L47.5019 59.3899L46.1972 59.5788L44.9918 60.0595L43.7289 60.3712L42.6083 61.1068L41.3483 61.4271L40.0709 61.6962L38.8301 62.0785L37.5928 62.4653L36.4246 63.0667L35.2583 63.2484L34.6697 62.1902L34.1894 60.958L33.6568 59.7398L33.6724 58.3369L33.1506 57.117L32.7448 55.8575L32.0865 54.684L31.6124 53.4478L31.1463 52.2069L31.1279 50.8156L30.4917 49.6346L29.9949 48.4042L29.6659 47.1186L29.3198 45.8388L28.8406 44.6044L28.2505 43.4076L28.1291 42.0495L27.6118 40.8261L27.0354 39.6247L26.7126 38.3351L26.1895 37.0889L27.4218 36.62L28.7119 36.3884L29.9121 35.8924L31.1042 35.3724L32.4083 35.1818L33.6067 34.6806L34.8063 34.1829L35.9647 33.5697L37.2799 33.4115L38.4057 32.697L39.6617 32.3648L40.881 31.925L42.2415 31.8999L43.3458 31.1223L44.6261 30.8617L45.8733 30.5039L47.0689 29.9942L48.2296 29.3821L49.4454 28.9321L50.681 28.5401L51.9003 28.0947L53.2347 27.9928L54.411 27.4268L55.6448 27.024L56.9077 26.7122L58.0446 26.0302L59.3104 25.7212L60.6447 25.6194L61.8809 25.2291L63.0409 24.6096L64.3126 24.3234L65.4616 23.6772L66.7901 23.5469L67.8908 23.0047L68.4639 24.1234L68.8014 25.4061L68.9888 26.7399L69.4424 27.9831L70.2406 29.109L70.6601 30.3638L71.0949 31.6134L71.346 32.9274L72.0128 34.098L72.3504 35.3807L72.3848 36.7684L73.1865 37.8932L73.2493 39.2693L74.1346 40.3656L74.1041 41.7754L74.7932 42.9385L75.2297 44.1875L75.421 45.5218L76.2848 46.6274L76.3498 48.0047L76.9018 49.2181Z" fill="#FAF7F0"/>
<path d="M76.9018 49.2181L75.7215 49.7836L74.4795 50.1568L73.1452 50.2587L72.0002 50.9169L70.7971 51.4044L69.5737 51.8322L68.2951 52.0922L67.0165 52.3579L65.8663 53.0007L64.6016 53.3073L63.3341 53.6055L62.1844 54.25L60.9877 54.7563L59.683 54.9452L58.4567 55.3644L57.1851 55.6506L55.9832 56.1416L54.8876 56.9448L53.5457 57.0244L52.3362 57.4932L51.1732 58.1042L49.8993 58.3835L48.6765 58.8131L47.5019 59.3899L46.1972 59.5788L44.9918 60.0595L43.7289 60.3712L42.6083 61.1068L41.3483 61.4271L40.0709 61.6962L38.8301 62.0785L37.5928 62.4653L36.4246 63.0667L35.2583 63.2484L34.6697 62.1902L34.1894 60.958L33.6568 59.7398L33.6724 58.3369L33.1506 57.117L32.7448 55.8575L32.0865 54.684L31.6124 53.4478L31.1463 52.2069L31.1279 50.8156L30.4917 49.6346L29.9949 48.4042L29.6659 47.1186L29.3198 45.8388L28.8406 44.6044L28.2505 43.4076L28.1291 42.0495L27.6118 40.8261L27.0354 39.6247L26.7126 38.3351L26.1895 37.0889L27.4218 36.62L28.7119 36.3884L29.9121 35.8924L31.1042 35.3724L32.4083 35.1818L33.6067 34.6806L34.8063 34.1829L35.9647 33.5697L37.2799 33.4115L38.4057 32.697L39.6617 32.3648L40.881 31.925L42.2415 31.8999L43.3458 31.1223L44.6261 30.8617L45.8733 30.5039L47.0689 29.9942L48.2296 29.3821L49.4454 28.9321L50.681 28.5401L51.9003 28.0947L53.2347 27.9928L54.411 27.4268L55.6448 27.024L56.9077 26.7122L58.0446 26.0302L59.3104 25.7212L60.6447 25.6194L61.8809 25.2291L63.0409 24.6096L64.3126 24.3234L65.4616 23.6772L66.7901 23.5469L67.8908 23.0047L68.4639 24.1234L68.8014 25.4061L68.9888 26.7399L69.4424 27.9831L70.2406 29.109L70.6601 30.3638L71.0949 31.6134L71.346 32.9274L72.0128 34.098L72.3504 35.3807L72.3848 36.7684L73.1865 37.8932L73.2493 39.2693L74.1346 40.3656L74.1041 41.7754L74.7932 42.9385L75.2297 44.1875L75.421 45.5218L76.2847 46.6274L76.3499 48.0047L76.9018 49.2181Z" stroke="black" stroke-linecap="round" stroke-linejoin="round"/>
<path d="M74.9366 43.7463L73.6814 43.7394L72.3626 43.7751L71.0453 43.776L69.73 43.7381L68.4195 43.4568L67.1059 43.3174L65.7805 43.5686L64.4636 43.5541L63.1574 43.1342L61.8339 43.2343L60.4088 43.1367L60.5988 44.6181L60.2474 45.9296L59.9097 47.2422L60.0499 48.6111L59.5873 49.9091L59.7949 51.2855L59.2313 52.5721L59.509 53.9589L59.2071 55.1584L60.4122 54.9063L61.6876 54.4913L62.8421 53.7213L64.2638 53.7363L65.5479 53.3412L66.8052 52.879L68.0278 52.3087L69.3467 52.0217L70.5483 51.3899L71.7301 50.6945L73.1135 50.5969L74.4033 50.2245L75.602 49.5785L76.7695 49.1431L76.4809 48.116L76.1159 46.9988L75.7349 45.8851L75.1681 44.8461L74.9366 43.7463Z" fill="white"/>
<path d="M74.9366 43.7463L73.6814 43.7394L72.3626 43.7751L71.0453 43.776L69.73 43.7381L68.4195 43.4568L67.1059 43.3174L65.7805 43.5686L64.4636 43.5541L63.1574 43.1342L61.8339 43.2343L60.4088 43.1367L60.5988 44.6181L60.2474 45.9296L59.9097 47.2422L60.0499 48.6111L59.5873 49.9091L59.7949 51.2855L59.2313 52.5721L59.509 53.9589L59.2071 55.1584L60.4122 54.9063L61.6876 54.4913L62.8421 53.7213L64.2638 53.7363L65.5479 53.3412L66.8052 52.879L68.0278 52.3087L69.3467 52.0217L70.5483 51.3899L71.7301 50.6945L73.1135 50.5969L74.4033 50.2245L75.602 49.5785L76.7695 49.1431L76.4809 48.116L76.1159 46.9988L75.7349 45.8851L75.1681 44.8461L74.9366 43.7463Z" stroke="black" stroke-linecap="round" stroke-linejoin="round"/>
<path d="M60.7495 43.3558L59.847 44.4188L59.5732 45.7459L58.8708 46.8931L58.3107 48.1006L58.0614 49.4382L57.4464 50.6243L56.9909 51.8761L56.3462 53.0475L56.0736 54.3779L55.3631 55.5241L54.9682 56.8029" fill="white"/>
<path d="M60.7495 43.3558L59.847 44.4188L59.5732 45.7459L58.8708 46.8931L58.3107 48.1006L58.0614 49.4382L57.4464 50.6243L56.9909 51.8761L56.3462 53.0475L56.0736 54.3779L55.3631 55.5241L54.9682 56.8029" stroke="black" stroke-linecap="round" stroke-linejoin="round"/>
<path d="M57.4373 50.4448L56.3977 49.6391L55.4325 48.7052L54.4356 47.8069L53.2136 47.187L52.2065 46.3035L51.3589 45.223L50.2342 44.6652L49.4639 45.5462L48.8486 46.6809L47.84 47.544L47.2545 48.6991L46.6363 49.8311L45.8017 50.8139L45.3284 52.047L44.4955 53.0292L43.8453 54.1397L42.7657 54.9565L42.0261 56.006L41.4303 57.1532L40.989 58.4077L40.1121 59.3612L39.3708 60.4112L38.7481 61.5409L37.9245 62.461L39.0508 61.9996L40.2153 61.4548L41.4943 61.246L42.754 60.981L43.839 60.2024L45.0901 59.9175L46.3562 59.6713L47.6038 59.3704L48.8072 58.9399L49.9294 58.2705L51.1973 58.0351L52.3845 57.5568L53.6436 57.2843L54.7204 56.6437L55.288 55.4528L55.7216 54.1533L56.2163 52.8768L57.1551 51.7861L57.4373 50.4448Z" fill="white"/>
<path d="M57.4373 50.4448L56.3977 49.6391L55.4325 48.7052L54.4356 47.8069L53.2136 47.187L52.2065 46.3035L51.3589 45.223L50.2342 44.6652L49.4639 45.5462L48.8486 46.6809L47.84 47.544L47.2545 48.6991L46.6363 49.8311L45.8017 50.8139L45.3284 52.047L44.4955 53.0292L43.8453 54.1397L42.7657 54.9565L42.0261 56.006L41.4303 57.1532L40.989 58.4077L40.1121 59.3612L39.3708 60.4112L38.7481 61.5409L37.9245 62.461L39.0508 61.9996L40.2153 61.4548L41.4943 61.246L42.754 60.981L43.839 60.2024L45.0901 59.9175L46.3562 59.6713L47.6038 59.3704L48.8072 58.9399L49.9294 58.2705L51.1973 58.0351L52.3845 57.5568L53.6436 57.2843L54.7204 56.6437L55.288 55.4528L55.7216 54.1533L56.2163 52.8768L57.1551 51.7861L57.4373 50.4448Z" stroke="black" stroke-linecap="round" stroke-linejoin="round"/>
<path d="M45.8083 50.9507L45.5423 49.7998L45.2837 48.654L44.7447 47.6017L44.3795 46.277L43.0276 46.8532L41.8521 47.3714L40.857 48.2908L39.6421 48.7214L38.4215 49.1406L37.1616 49.4723L36.0214 50.0717L34.8163 50.5256L33.6888 51.1512L32.5376 51.7296L31.3061 52.3125L31.9016 53.5588L32.4904 54.7293L32.5433 56.0822L33.0997 57.2637L33.6492 58.4476L33.6971 59.8022L34.2472 60.9878L34.6557 62.2216L35.2493 63.2439L36.5859 63.1431L37.8804 62.5103L38.4574 61.3581L39.213 60.3336L40.1748 59.4502L40.6465 58.2292L41.3277 57.1538L42.0948 56.1349L42.9272 55.1624L43.6651 54.1249L44.3377 53.041L45.2268 52.1063L45.8083 50.9507Z" fill="white"/>
<path d="M45.8083 50.9507L45.5423 49.7998L45.2837 48.654L44.7447 47.6017L44.3795 46.277L43.0276 46.8532L41.8521 47.3714L40.857 48.2908L39.6421 48.7214L38.4215 49.1406L37.1616 49.4723L36.0214 50.0717L34.8163 50.5256L33.6888 51.1512L32.5376 51.7296L31.3061 52.3125L31.9016 53.5588L32.4904 54.7293L32.5433 56.0822L33.0997 57.2637L33.6492 58.4476L33.6971 59.8022L34.2472 60.9878L34.6557 62.2216L35.2493 63.2439L36.5859 63.1431L37.8804 62.5103L38.4574 61.3581L39.213 60.3336L40.1748 59.4502L40.6465 58.2292L41.3277 57.1538L42.0948 56.1349L42.9272 55.1624L43.6651 54.1249L44.3377 53.041L45.2268 52.1063L45.8083 50.9507Z" stroke="black" stroke-linecap="round" stroke-linejoin="round"/>
</svg>
