<svg width="32" height="25" viewBox="0 0 32 25" fill="none" xmlns="http://www.w3.org/2000/svg">
<g clip-path="url(#clip0_443_9434)">
<path d="M7.99224 16.805C8.45554 16.6081 8.83851 16.3286 9.15781 16.0287C9.50929 15.6994 9.94646 15.398 10.1513 14.9831C10.3562 14.5682 10.2382 14.0091 10.3281 13.5436C10.418 13.0781 10.5692 12.628 10.5731 12.1593C10.5771 11.6905 10.488 11.2037 10.4353 10.7568C10.3758 10.2478 10.343 9.76392 10.2532 9.36136C10.0735 8.54385 10.5572 7.97008 9.86634 8.07333C9.17548 8.17659 9.52073 8.57883 9.46716 9.39188C9.43903 9.81328 9.43959 10.3242 9.45993 10.8204C9.47806 11.2868 9.88436 11.7293 9.97877 12.1765C10.0827 12.6635 10.271 13.0347 10.5086 13.4013C10.7679 13.8028 10.9001 14.4289 11.3754 14.552C11.8997 14.6879 12.3793 14.3076 12.7702 14.244C13.2915 14.1566 13.802 14.1907 14.1111 13.9305C14.6972 13.4394 14.7267 13.4421 15.0095 12.8071C15.3249 12.098 15.3483 12.2346 15.6112 11.3539C15.7426 10.916 15.7302 10.3504 15.8136 9.78812C15.884 9.30012 15.6356 8.77469 15.6181 8.23633C15.6027 7.73272 15.8062 7.19625 15.673 6.68172C15.547 6.19701 15.3523 5.70427 15.0862 5.23821C14.8443 4.81204 14.3404 4.57958 13.9558 4.1894C13.6174 3.84673 13.4332 3.27472 12.9692 2.97563C12.5662 2.71674 12.0868 2.49689 11.5779 2.27927C11.0691 2.06164 10.5176 2.23305 10.0519 2.12988C9.52991 2.01383 9.07988 1.51644 8.59858 1.51979C8.07309 1.52276 7.5297 1.60991 7.05234 1.72738C6.55283 1.8521 6.1804 2.33505 5.73651 2.55946C5.29263 2.78386 4.89228 3.08552 4.49439 3.3872C4.09649 3.68888 3.56457 3.87037 3.2178 4.22457C2.84626 4.60336 2.55285 5.0349 2.25988 5.41436C1.91724 5.86036 1.49193 6.20893 1.25791 6.58641C0.774905 7.36853 0.586988 7.233 0.509311 7.99376C0.431633 8.75452 0.920021 8.78348 0.933041 9.56237C0.94606 10.3413 0.683283 10.3465 0.696324 11.1229C0.709365 11.8993 0.849337 11.898 0.862357 12.6769C0.875376 13.4558 0.73295 13.4571 0.74597 14.2359C0.75899 15.0148 0.886706 15.011 0.899726 15.7899C0.912745 16.5688 0.603318 16.5736 0.616338 17.3525C0.629358 18.1313 0.983001 18.1244 0.998455 18.9058C1.01391 19.6872 0.564258 19.7231 1.04278 20.3348C1.49461 20.9091 1.57761 20.6767 2.29094 20.8191C3.00426 20.9616 2.99402 21.0111 3.70732 21.1561C4.42062 21.301 4.39501 21.4248 5.11077 21.5698C5.82653 21.7148 5.8471 21.6058 6.56042 21.7483C7.27374 21.8908 7.3148 21.6828 8.0281 21.8278C8.7414 21.9727 8.70295 22.1634 9.41871 22.3083C10.1345 22.4533 10.1474 22.379 10.8607 22.5215C11.574 22.664 11.597 22.5575 12.3103 22.7025C13.0236 22.8474 12.9697 23.1198 13.6855 23.2648C14.4013 23.4098 14.4398 23.2092 15.153 23.3641C15.8221 23.5086 15.7164 23.5276 16.4989 23.6161C16.911 23.6618 17.3888 23.7873 17.8726 23.7741C18.3294 23.7631 18.8425 23.7823 19.2756 23.6695C19.7333 23.5469 20.1001 23.1532 20.439 22.8609C20.7778 22.5686 20.7839 22.1421 20.906 21.6421C21.0357 21.1174 21.4619 20.6647 21.3448 20.2941C21.2013 19.8415 20.7699 19.4609 20.4161 19.195C20.0623 18.9291 19.573 18.7265 19.1713 18.6015C18.4685 18.3823 17.7594 17.7463 17.6015 18.4046C17.4437 19.063 18.4038 18.4809 19.1056 18.5414C19.5153 18.5772 19.9749 18.8192 20.3936 18.664C20.773 18.5209 21.0363 18.1685 21.2903 17.744C21.4796 17.4307 21.6988 17.063 21.7573 16.5402C21.8157 16.0173 21.7212 15.5825 21.609 15.212C21.4633 14.7321 21.2381 14.3606 20.9212 14.0901C20.5628 13.7869 20.0789 13.8026 19.6797 13.6876C18.9767 13.4832 18.0228 12.7509 18.4679 13.2557C18.9932 13.8504 19.1517 13.4054 19.9881 13.2165C20.4605 13.1089 20.9316 12.8674 21.3571 12.4916C21.7108 12.1821 22.1264 11.821 22.3082 11.2323C22.4749 10.693 22.2333 10.2271 22.0184 9.79624C21.8035 9.36534 21.4177 9.11156 21.0079 8.79309C20.5981 8.47462 20.3776 7.84277 19.9619 7.64082C19.2112 7.27481 18.5956 8.05828 18.361 7.34695C18.1264 6.63562 19.0821 7.15218 20.0073 7.21462C20.4465 7.24315 20.951 7.40866 21.5131 7.4308C21.9893 7.44973 22.4984 7.63263 23.0288 7.63714C23.5247 7.64136 24.0383 7.59364 24.5517 7.57817C25.065 7.56269 25.589 7.72836 26.0903 7.6855C26.5916 7.64264 27.0952 7.3245 27.5772 7.24179C28.1083 7.15206 28.548 6.84577 28.9961 6.70077C29.5378 6.5268 30.2091 6.70612 30.5674 6.43883C31.0171 6.10535 31.1402 5.49379 31.1887 4.9808C31.2291 4.56199 31.2905 3.98958 30.9809 3.43139C30.7415 3.00028 30.1708 2.83173 29.7757 2.51339C29.4099 2.21761 29.0591 1.88724 28.5846 1.67983C28.1564 1.49266 27.7344 1.16664 27.2346 1.04086C26.7764 0.925355 26.2553 0.982929 25.7501 0.914148C25.2768 0.848118 24.7833 0.843921 24.2802 0.81236C23.7771 0.7808 23.3075 0.563509 22.809 0.564231C22.3105 0.564952 21.8218 0.583117 21.328 0.603721C20.8343 0.624324 20.3515 0.808713 19.8625 0.849198C19.3735 0.889684 18.8543 0.729016 18.3702 0.781943C17.886 0.83487 17.3747 0.897488 16.9003 0.965379C16.3938 1.03548 15.9347 1.32424 15.4699 1.39965C14.9511 1.48453 14.4619 1.55725 14.0143 1.64025C13.4683 1.74226 12.9717 1.80748 12.5609 1.89575C11.6606 2.08651 11.814 1.94645 11.098 2.12637" fill="white"/>
<path d="M7.99224 16.805C8.45554 16.6081 8.83851 16.3286 9.15781 16.0287C9.50929 15.6994 9.94646 15.398 10.1513 14.9831C10.3562 14.5682 10.2382 14.0091 10.3281 13.5436C10.418 13.0781 10.5691 12.628 10.5731 12.1593C10.5771 11.6905 10.488 11.2037 10.4353 10.7568C10.3758 10.2478 10.3431 9.76392 10.2532 9.36136C10.0735 8.54385 10.5572 7.97008 9.86634 8.07333C9.17548 8.17659 9.52073 8.57883 9.46716 9.39188C9.43903 9.81328 9.43959 10.3242 9.45993 10.8204C9.47806 11.2868 9.88436 11.7293 9.97877 12.1765C10.0827 12.6635 10.271 13.0347 10.5086 13.4013C10.7679 13.8028 10.9001 14.4289 11.3754 14.552C11.8997 14.6879 12.3793 14.3076 12.7702 14.244C13.2915 14.1566 13.802 14.1907 14.1111 13.9305C14.6972 13.4394 14.7267 13.4421 15.0095 12.8071C15.3249 12.098 15.3483 12.2346 15.6112 11.3539C15.7426 10.916 15.7302 10.3504 15.8136 9.78812C15.884 9.30012 15.6356 8.77469 15.6181 8.23633C15.6027 7.73272 15.8062 7.19625 15.673 6.68172C15.547 6.19701 15.3523 5.70427 15.0862 5.23821C14.8443 4.81204 14.3404 4.57958 13.9558 4.1894C13.6174 3.84673 13.4332 3.27472 12.9692 2.97563C12.5662 2.71674 12.0868 2.49689 11.5779 2.27927C11.0691 2.06164 10.5176 2.23305 10.0519 2.12988C9.52991 2.01383 9.07988 1.51644 8.59858 1.51979C8.07309 1.52276 7.5297 1.60991 7.05234 1.72738C6.55283 1.8521 6.1804 2.33505 5.73651 2.55946C5.29263 2.78386 4.89228 3.08552 4.49439 3.3872C4.09649 3.68888 3.56457 3.87037 3.2178 4.22457C2.84626 4.60336 2.55285 5.0349 2.25988 5.41436C1.91724 5.86036 1.49193 6.20893 1.25791 6.58641C0.774905 7.36853 0.586988 7.233 0.509311 7.99376C0.431633 8.75452 0.920021 8.78347 0.93304 9.56237C0.94606 10.3413 0.683283 10.3465 0.696324 11.1229C0.709365 11.8993 0.849337 11.898 0.862357 12.6769C0.875376 13.4558 0.73295 13.4571 0.74597 14.2359C0.75899 15.0148 0.886706 15.011 0.899726 15.7899C0.912745 16.5688 0.603318 16.5736 0.616338 17.3525C0.629358 18.1313 0.983001 18.1244 0.998455 18.9058C1.01391 19.6872 0.564258 19.7231 1.04278 20.3348C1.49461 20.9091 1.57761 20.6767 2.29094 20.8191C3.00426 20.9616 2.99402 21.0111 3.70732 21.1561C4.42062 21.301 4.39501 21.4248 5.11077 21.5698C5.82653 21.7148 5.8471 21.6058 6.56042 21.7483C7.27374 21.8908 7.3148 21.6828 8.0281 21.8278C8.7414 21.9727 8.70295 22.1634 9.41871 22.3083C10.1345 22.4533 10.1474 22.379 10.8607 22.5215C11.574 22.664 11.597 22.5575 12.3103 22.7025C13.0236 22.8474 12.9697 23.1198 13.6855 23.2648C14.4013 23.4098 14.4398 23.2092 15.153 23.3641C15.8221 23.5086 15.7164 23.5276 16.4989 23.6161C16.911 23.6618 17.3888 23.7873 17.8726 23.7741C18.3294 23.7631 18.8425 23.7823 19.2756 23.6695C19.7333 23.5469 20.1001 23.1532 20.439 22.8609C20.7778 22.5686 20.7839 22.1421 20.906 21.6421C21.0357 21.1174 21.4619 20.6647 21.3448 20.2941C21.2013 19.8415 20.7699 19.4609 20.4161 19.195C20.0623 18.9291 19.573 18.7265 19.1713 18.6015C18.4685 18.3823 17.7594 17.7463 17.6015 18.4046C17.4437 19.063 18.4038 18.4809 19.1056 18.5414C19.5153 18.5772 19.9749 18.8192 20.3936 18.664C20.773 18.5209 21.0363 18.1685 21.2903 17.744C21.4796 17.4307 21.6988 17.063 21.7573 16.5402C21.8157 16.0173 21.7212 15.5825 21.609 15.212C21.4633 14.7321 21.2381 14.3606 20.9212 14.0901C20.5628 13.7869 20.0789 13.8026 19.6797 13.6876C18.9767 13.4832 18.0228 12.7509 18.4679 13.2557C18.9932 13.8504 19.1517 13.4054 19.9881 13.2165C20.4605 13.1089 20.9316 12.8674 21.3571 12.4916C21.7108 12.1821 22.1264 11.821 22.3082 11.2323C22.4749 10.693 22.2333 10.2271 22.0184 9.79624C21.8035 9.36534 21.4177 9.11156 21.0079 8.79309C20.5981 8.47462 20.3776 7.84277 19.9619 7.64082C19.2112 7.27481 18.5956 8.05828 18.361 7.34695C18.1264 6.63562 19.0821 7.15218 20.0073 7.21462C20.4465 7.24315 20.951 7.40866 21.5131 7.4308C21.9893 7.44973 22.4984 7.63263 23.0288 7.63714C23.5247 7.64136 24.0383 7.59364 24.5517 7.57817C25.065 7.56269 25.589 7.72836 26.0903 7.6855C26.5916 7.64264 27.0952 7.3245 27.5772 7.24179C28.1083 7.15206 28.548 6.84577 28.9961 6.70077C29.5378 6.5268 30.2091 6.70612 30.5674 6.43883C31.0171 6.10535 31.1402 5.49379 31.1887 4.9808C31.2291 4.56199 31.2905 3.98958 30.9809 3.43139C30.7415 3.00028 30.1708 2.83173 29.7757 2.51339C29.4099 2.21761 29.0591 1.88724 28.5846 1.67983C28.1564 1.49266 27.7344 1.16664 27.2346 1.04086C26.7764 0.925355 26.2553 0.982929 25.7501 0.914148C25.2768 0.848118 24.7833 0.843921 24.2802 0.81236C23.7771 0.7808 23.3075 0.563509 22.809 0.564231C22.3105 0.564952 21.8218 0.583117 21.328 0.603721C20.8343 0.624324 20.3515 0.808713 19.8625 0.849198C19.3735 0.889684 18.8543 0.729016 18.3702 0.781943C17.886 0.83487 17.3747 0.897488 16.9002 0.965379C16.3938 1.03548 15.9347 1.32424 15.4699 1.39965C14.9511 1.48453 14.4619 1.55725 14.0143 1.64025C13.4683 1.74226 12.9717 1.80748 12.5609 1.89575C11.6606 2.08651 11.814 1.94645 11.098 2.12637" stroke="black" stroke-width="2" stroke-linecap="round" stroke-linejoin="round"/>
<path d="M17.8696 18.3598C17.182 18.0737 17.2016 18.3665 16.3736 18.1362C15.9376 18.0135 15.4966 17.6104 14.9767 17.5341C14.4568 17.4577 13.9392 17.4012 13.4576 17.4368C12.9293 17.477 12.5547 17.9302 12.1597 18.1872C11.7646 18.4443 11.1591 18.6127 11.0169 19.1721C10.8746 19.7314 10.9583 20.2802 10.9819 20.6896C11.016 21.3001 11.2453 21.7584 11.4857 22.0804C11.9761 22.7418 11.9835 22.727 12.6993 22.8744" stroke="black" stroke-width="2" stroke-linecap="round" stroke-linejoin="round"/>
<path d="M18.8131 13.0926C18.1279 12.8214 18.1275 13.1512 17.3068 12.9384C16.8731 12.8281 16.3748 12.8065 15.8597 12.7426C15.3446 12.6787 14.8594 12.2752 14.3851 12.3257C13.8665 12.3809 13.5377 12.9361 13.1499 13.2007C12.7622 13.4652 12.5562 13.7165 12.4141 14.2659C12.2236 15.0083 12.2242 15.5093 12.3037 15.9837C12.4394 16.776 12.5694 17.3674 12.9453 17.6286" stroke="black" stroke-width="2" stroke-linecap="round" stroke-linejoin="round"/>
<path d="M19.7659 7.8847C19.0807 7.61349 19.2741 7.3944 18.4533 7.18404C18.0196 7.07371 17.5227 6.88843 17.0101 6.82454C16.4974 6.76066 16.0161 7.06163 15.5417 7.11216C15.0232 7.16727 14.5639 7.18321 14.1785 7.45027C13.7932 7.71734 13.5006 8.04968 13.3584 8.60155C13.168 9.34399 12.959 9.9573 13.0384 10.4317C13.1741 11.224 13.6181 11.8479 13.994 12.109" stroke="black" stroke-width="2" stroke-linecap="round" stroke-linejoin="round"/>
<path d="M9.9429 8.02452C9.82408 8.71548 9.88404 8.59446 9.83047 9.40751C9.80233 9.8289 9.42502 10.3093 9.44533 10.808C9.46346 11.2745 9.81079 11.7214 9.90521 12.1686C10.0091 12.6556 9.91838 13.2178 10.1559 13.582C10.4152 13.9835 10.9176 14.1018 11.3954 14.225C11.9197 14.3609 12.3415 14.4265 12.7324 14.3628C13.2537 14.2755 13.6386 14.0531 13.9478 13.7953C14.5339 13.3042 14.3278 13.2801 14.6082 12.6451C14.9237 11.936 15.2968 12.2293 15.5597 11.3486C15.6911 10.9107 15.8087 10.3636 15.8921 9.80133C15.9625 9.31333 15.6038 8.76711 15.5887 8.22878C15.5733 7.72517 15.7005 7.20293 15.565 6.68838C15.4389 6.20367 15.4119 5.62555 15.1483 5.15951C14.9063 4.73334 14.2841 4.56684 13.8994 4.17913C13.561 3.83647 13.3469 3.31133 12.8805 3.01222C12.4776 2.75333 12.0456 2.43715 11.5367 2.22201" fill="white"/>
<path d="M9.9429 8.02452C9.82408 8.71548 9.88404 8.59446 9.83047 9.40751C9.80233 9.8289 9.42502 10.3093 9.44533 10.808C9.46346 11.2745 9.81079 11.7214 9.90521 12.1686C10.0091 12.6556 9.91838 13.2178 10.1559 13.582C10.4152 13.9835 10.9176 14.1018 11.3954 14.225C11.9197 14.3609 12.3415 14.4265 12.7324 14.3628C13.2537 14.2755 13.6386 14.0531 13.9478 13.7953C14.5339 13.3042 14.3278 13.2801 14.6082 12.6451C14.9237 11.936 15.2968 12.2293 15.5597 11.3486C15.6911 10.9107 15.8087 10.3636 15.8921 9.80133C15.9625 9.31333 15.6038 8.76711 15.5887 8.22878C15.5733 7.72517 15.7005 7.20293 15.565 6.68838C15.4389 6.20367 15.4119 5.62555 15.1483 5.15951C14.9063 4.73334 14.2841 4.56684 13.8994 4.17913C13.561 3.83647 13.3469 3.31133 12.8805 3.01222C12.4776 2.75333 12.0456 2.43715 11.5367 2.22201" stroke="black" stroke-width="2" stroke-linecap="round" stroke-linejoin="round"/>
</g>
<defs>
<clipPath id="clip0_443_9434">
<rect width="31.4286" height="24" fill="white" transform="translate(0.204102) rotate(0.487231)"/>
</clipPath>
</defs>
</svg>
