<svg width="32" height="32" viewBox="0 0 32 32" fill="none" xmlns="http://www.w3.org/2000/svg">
<path d="M28.9026 16.9026C29.2671 16.5381 29.2671 15.9472 28.9026 15.5827C28.5381 15.2182 27.9472 15.2182 27.5827 15.5827L28.2426 16.2426L28.9026 16.9026ZM28.1719 16.3134L28.8218 16.9833L28.8269 16.9783L28.8319 16.9733L28.1719 16.3134ZM27.7053 16.766L27.0554 16.0961L27.7053 16.766ZM26.9177 17.3927L26.473 16.5721L26.9177 17.3927ZM26.2758 17.7407L26.7206 18.5612L26.2758 17.7407ZM25.8241 18.279L24.9456 17.9638L25.8241 18.279ZM25.5628 19.0076L26.4413 19.3227L25.5628 19.0076ZM25.0942 19.529L24.7008 18.6826L25.0942 19.529ZM24.7563 19.686L25.1497 20.5324L24.7563 19.686ZM24.4184 19.8431L24.0249 18.9967L24.4184 19.8431ZM22.6633 21.0579L23.3383 21.7025L22.6633 21.0579ZM22.1797 21.5644L21.5047 20.9198L22.1797 21.5644ZM21.775 22.1496L22.6129 22.5608L21.775 22.1496ZM21.4491 22.8136L20.6112 22.4024L21.4491 22.8136ZM20.9991 23.3536L20.4514 22.5978L20.9991 23.3536ZM20.4251 23.7696L20.9728 24.5253L20.4251 23.7696ZM19.7821 24.1871L20.2557 24.9914L19.7821 24.1871ZM19.6041 24.2919L19.1306 23.4876L19.6041 24.2919ZM19.5918 24.5623L18.9318 25.2223L19.0668 25.3573L19.244 25.4285L19.5918 24.5623ZM19.8281 24.6572L20.488 25.3172L21.4875 24.3178L20.1759 23.7911L19.8281 24.6572ZM19.0974 24.0679C18.7329 24.4324 18.7329 25.0234 19.0974 25.3879C19.4619 25.7524 20.0528 25.7524 20.4173 25.3879L19.7574 24.7279L19.0974 24.0679ZM20.4173 15.5827C20.0528 15.2182 19.4619 15.2182 19.0974 15.5827C18.7329 15.9472 18.7329 16.5381 19.0974 16.9026L19.7574 16.2426L20.4173 15.5827ZM19.8281 16.3134L19.1681 16.9733L19.2675 17.0728L19.3919 17.1385L19.8281 16.3134ZM20.4294 16.6312L19.9932 17.4564L20.4294 16.6312ZM21.2374 17.2376L21.9962 16.6941L21.2374 17.2376ZM21.6505 17.8144L20.8917 18.3578L21.6505 17.8144ZM22.0623 18.3925L21.3008 18.9322L22.0623 18.3925ZM22.4729 18.9719L23.2344 18.4322L22.4729 18.9719ZM24.0156 20.3991L24.8513 19.9834L24.0156 20.3991ZM24.3445 21.0602L25.1801 20.6445L24.3445 21.0602ZM24.8688 21.5259L24.5407 22.3996L24.8688 21.5259ZM25.5885 21.7961L25.2604 22.6699L25.5885 21.7961ZM26.0848 22.2898L25.2125 22.6217L26.0848 22.2898ZM26.2212 22.6483L27.0936 22.3164L26.2212 22.6483ZM28.0444 24.0778L27.1249 24.2376L28.0444 24.0778ZM28.1282 24.5596L29.0477 24.3998L28.1282 24.5596ZM28.2063 24.7642L28.8663 25.4242L29.2694 25.0211L29.0949 24.4784L28.2063 24.7642ZM28.1719 24.6572L28.8319 23.9972L27.2834 24.943L28.1719 24.6572ZM27.5827 25.3879C27.9472 25.7524 28.5381 25.7524 28.9026 25.3879C29.2671 25.0234 29.2671 24.4324 28.9026 24.0679L28.2426 24.7279L27.5827 25.3879ZM28.2426 16.2426L27.5827 15.5827L27.512 15.6534L28.1719 16.3134L28.8319 16.9733L28.9026 16.9026L28.2426 16.2426ZM28.1719 16.3134L27.522 15.6434L27.0554 16.0961L27.7053 16.766L28.3552 17.4359L28.8218 16.9833L28.1719 16.3134ZM27.7053 16.766L27.0554 16.0961C26.7659 16.377 26.5754 16.5166 26.473 16.5721L26.9177 17.3927L27.3625 18.2132C27.6881 18.0367 28.0227 17.7585 28.3552 17.4359L27.7053 16.766ZM26.9177 17.3927L26.473 16.5721L26.152 16.7461L26.5968 17.5667L27.0415 18.3872L27.3625 18.2132L26.9177 17.3927ZM26.5968 17.5667L26.152 16.7461L25.831 16.9201L26.2758 17.7407L26.7206 18.5612L27.0415 18.3872L26.5968 17.5667ZM26.2758 17.7407L25.831 16.9201C25.4023 17.1525 25.1051 17.519 24.9456 17.9638L25.8241 18.279L26.7027 18.5941C26.7079 18.5795 26.7123 18.5708 26.7147 18.5665C26.7171 18.5623 26.7181 18.5613 26.7174 18.5621C26.7166 18.5631 26.7155 18.5641 26.7148 18.5647C26.7142 18.5652 26.7156 18.5639 26.7206 18.5612L26.2758 17.7407ZM25.8241 18.279L24.9456 17.9638L24.8149 18.3282L25.6934 18.6433L26.572 18.9584L26.7027 18.5941L25.8241 18.279ZM25.6934 18.6433L24.8149 18.3282L24.6842 18.6925L25.5628 19.0076L26.4413 19.3227L26.572 18.9584L25.6934 18.6433ZM25.5628 19.0076L24.6842 18.6925C24.6805 18.7029 24.6781 18.7069 24.6785 18.7061C24.679 18.7053 24.6814 18.7014 24.6861 18.6962C24.6908 18.691 24.6957 18.6866 24.6998 18.6837C24.7038 18.6808 24.7047 18.6808 24.7008 18.6826L25.0942 19.529L25.4876 20.3753C25.9487 20.161 26.2736 19.7902 26.4413 19.3227L25.5628 19.0076ZM25.0942 19.529L24.7008 18.6826L24.3629 18.8397L24.7563 19.686L25.1497 20.5324L25.4876 20.3753L25.0942 19.529ZM24.7563 19.686L24.3629 18.8397L24.0249 18.9967L24.4184 19.8431L24.8118 20.6895L25.1497 20.5324L24.7563 19.686ZM24.4184 19.8431L24.0249 18.9967C23.7552 19.1221 23.4997 19.2667 23.2594 19.4311L23.7866 20.2013L24.3138 20.9715C24.4654 20.8678 24.631 20.7735 24.8118 20.6895L24.4184 19.8431ZM23.7866 20.2013L23.2594 19.4311L22.9656 19.6322L23.4928 20.4025L24.0199 21.1727L24.3138 20.9715L23.7866 20.2013ZM23.4928 20.4025L22.9656 19.6322L22.6717 19.8334L23.1989 20.6036L23.7261 21.3738L24.0199 21.1727L23.4928 20.4025ZM23.1989 20.6036L22.6717 19.8334C22.4232 20.0035 22.195 20.1969 21.9882 20.4134L22.6633 21.0579L23.3383 21.7025C23.454 21.5814 23.5828 21.4719 23.7261 21.3738L23.1989 20.6036ZM22.6633 21.0579L21.9882 20.4134L21.7465 20.6666L22.4215 21.3111L23.0966 21.9557L23.3383 21.7025L22.6633 21.0579ZM22.4215 21.3111L21.7465 20.6666L21.5047 20.9198L22.1797 21.5644L22.8548 22.2089L23.0966 21.9557L22.4215 21.3111ZM22.1797 21.5644L21.5047 20.9198C21.274 21.1614 21.0854 21.4362 20.9371 21.7383L21.775 22.1496L22.6129 22.5608C22.6819 22.4203 22.7631 22.3049 22.8548 22.2089L22.1797 21.5644ZM21.775 22.1496L20.9371 21.7383L20.7742 22.0703L21.612 22.4816L22.4499 22.8929L22.6129 22.5608L21.775 22.1496ZM21.612 22.4816L20.7742 22.0703L20.6112 22.4024L21.4491 22.8136L22.2869 23.2249L22.4499 22.8929L21.612 22.4816ZM21.4491 22.8136L20.6112 22.4024C20.5667 22.493 20.5139 22.5525 20.4514 22.5978L20.9991 23.3536L21.5468 24.1094C21.8669 23.8774 22.1142 23.5769 22.2869 23.2249L21.4491 22.8136ZM20.9991 23.3536L20.4514 22.5978L20.1644 22.8058L20.7121 23.5616L21.2598 24.3174L21.5468 24.1094L20.9991 23.3536ZM20.7121 23.5616L20.1644 22.8058L19.8774 23.0138L20.4251 23.7696L20.9728 24.5253L21.2598 24.3174L20.7121 23.5616ZM20.4251 23.7696L19.8774 23.0138C19.6957 23.1455 19.5681 23.23 19.4865 23.278L19.9601 24.0823L20.4337 24.8866C20.5895 24.7949 20.7718 24.671 20.9728 24.5253L20.4251 23.7696ZM19.9601 24.0823L19.4865 23.278L19.3085 23.3828L19.7821 24.1871L20.2557 24.9914L20.4337 24.8866L19.9601 24.0823ZM19.7821 24.1871L19.3085 23.3828L19.1306 23.4876L19.6041 24.2919L20.0777 25.0962L20.2557 24.9914L19.7821 24.1871ZM19.6041 24.2919L19.1306 23.4876C19.0406 23.5406 18.8021 23.687 18.659 23.9689C18.573 24.1384 18.518 24.366 18.5685 24.6192C18.6169 24.862 18.7435 25.034 18.849 25.1395L19.509 24.4795L20.1689 23.8195C20.2468 23.8974 20.3567 24.0409 20.3992 24.2543C20.4438 24.4781 20.3938 24.6753 20.3237 24.8135C20.2604 24.9384 20.1832 25.0127 20.1482 25.0435C20.1097 25.0774 20.0815 25.094 20.0777 25.0962L19.6041 24.2919ZM19.509 24.4795L18.849 25.1395L18.9318 25.2223L19.5918 24.5623L20.2517 23.9023L20.1689 23.8195L19.509 24.4795ZM19.5918 24.5623L19.244 25.4285L19.4803 25.5233L19.8281 24.6572L20.1759 23.7911L19.9395 23.6962L19.5918 24.5623ZM19.8281 24.6572L19.1681 23.9972L19.0974 24.0679L19.7574 24.7279L20.4173 25.3879L20.488 25.3172L19.8281 24.6572ZM19.7574 16.2426L19.0974 16.9026L19.1681 16.9733L19.8281 16.3134L20.488 15.6534L20.4173 15.5827L19.7574 16.2426ZM19.8281 16.3134L19.3919 17.1385L19.9932 17.4564L20.4294 16.6312L20.8656 15.8061L20.2643 15.4882L19.8281 16.3134ZM20.4294 16.6312L19.9932 17.4564C20.1642 17.5468 20.2872 17.6248 20.3719 17.6883C20.4598 17.7543 20.4831 17.7874 20.4785 17.781L21.2374 17.2376L21.9962 16.6941C21.7278 16.3194 21.2978 16.0345 20.8656 15.8061L20.4294 16.6312ZM21.2374 17.2376L20.4785 17.781L20.6851 18.0694L21.4439 17.526L22.2027 16.9825L21.9962 16.6941L21.2374 17.2376ZM21.4439 17.526L20.6851 18.0694L20.8917 18.3578L21.6505 17.8144L22.4093 17.2709L22.2027 16.9825L21.4439 17.526ZM21.6505 17.8144L20.8917 18.3578C21.0285 18.5489 21.1649 18.7403 21.3008 18.9322L22.0623 18.3925L22.8239 17.8528C22.6861 17.6584 22.5479 17.4645 22.4093 17.2709L21.6505 17.8144ZM22.0623 18.3925L21.3008 18.9322L21.5061 19.2219L22.2676 18.6822L23.0292 18.1425L22.8239 17.8528L22.0623 18.3925ZM22.2676 18.6822L21.5061 19.2219L21.7114 19.5115L22.4729 18.9719L23.2344 18.4322L23.0292 18.1425L22.2676 18.6822ZM22.4729 18.9719L21.7114 19.5115C21.9119 19.7944 22.1568 20.0357 22.4424 20.2322L22.9715 19.4633L23.5005 18.6944C23.3951 18.6219 23.3077 18.5356 23.2344 18.4322L22.4729 18.9719ZM22.9715 19.4633L22.4424 20.2322L22.7357 20.434L23.2647 19.6651L23.7937 18.8961L23.5005 18.6944L22.9715 19.4633ZM23.2647 19.6651L22.7357 20.434L23.0289 20.6357L23.5579 19.8668L24.087 19.0979L23.7937 18.8961L23.2647 19.6651ZM23.5579 19.8668L23.0289 20.6357C23.0889 20.677 23.1382 20.7308 23.18 20.8148L24.0156 20.3991L24.8513 19.9834C24.6738 19.6267 24.418 19.3256 24.087 19.0979L23.5579 19.8668ZM24.0156 20.3991L23.18 20.8148L23.3444 21.1454L24.18 20.7296L25.0157 20.3139L24.8513 19.9834L24.0156 20.3991ZM24.18 20.7296L23.3444 21.1454L23.5088 21.4759L24.3445 21.0602L25.1801 20.6445L25.0157 20.3139L24.18 20.7296ZM24.3445 21.0602L23.5088 21.4759C23.7283 21.9171 24.0898 22.2303 24.5407 22.3996L24.8688 21.5259L25.1969 20.6521C25.1847 20.6475 25.1784 20.644 25.1763 20.6428C25.1743 20.6416 25.1752 20.6419 25.1776 20.644C25.18 20.6462 25.1819 20.6484 25.183 20.6498C25.184 20.6512 25.1828 20.6499 25.1801 20.6445L24.3445 21.0602ZM24.8688 21.5259L24.5407 22.3996L24.9005 22.5348L25.2286 21.661L25.5567 20.7872L25.1969 20.6521L24.8688 21.5259ZM25.2286 21.661L24.9005 22.5348L25.2604 22.6699L25.5885 21.7961L25.9166 20.9223L25.5567 20.7872L25.2286 21.661ZM25.5885 21.7961L25.2604 22.6699C25.2657 22.6719 25.2641 22.6718 25.258 22.668C25.2516 22.664 25.2431 22.6576 25.2343 22.6488C25.2254 22.64 25.2189 22.6314 25.2148 22.6249C25.2108 22.6186 25.2106 22.6168 25.2125 22.6217L26.0848 22.2898L26.9571 21.9579C26.7707 21.4679 26.4067 21.1064 25.9166 20.9223L25.5885 21.7961ZM26.0848 22.2898L25.2125 22.6217L25.3489 22.9803L26.2212 22.6483L27.0936 22.3164L26.9571 21.9579L26.0848 22.2898ZM26.2212 22.6483L25.3489 22.9803L25.4853 23.3388L26.3576 23.0069L27.23 22.675L27.0936 22.3164L26.2212 22.6483ZM26.3576 23.0069L25.4853 23.3388C25.6815 23.8546 26.0777 24.2132 26.5928 24.3742L26.8712 23.4833L27.1496 22.5925C27.1395 22.5893 27.1603 22.5944 27.189 22.621C27.2022 22.6332 27.2127 22.6461 27.2203 22.6576C27.2277 22.6688 27.2302 22.6756 27.23 22.675L26.3576 23.0069ZM26.8712 23.4833L26.5928 24.3742L26.9699 24.492L27.2483 23.6012L27.5267 22.7103L27.1496 22.5925L26.8712 23.4833ZM27.2483 23.6012L26.9699 24.492L27.347 24.6099L27.6254 23.719L27.9039 22.8282L27.5267 22.7103L27.2483 23.6012ZM27.6254 23.719L27.347 24.6099C27.4002 24.6265 27.37 24.6266 27.3117 24.5766C27.2795 24.5491 27.2385 24.5059 27.2015 24.4441C27.1638 24.381 27.1375 24.3104 27.1249 24.2376L28.0444 24.0778L28.964 23.918C28.8448 23.2325 28.268 22.942 27.9039 22.8282L27.6254 23.719ZM28.0444 24.0778L27.1249 24.2376L27.1667 24.4785L28.0863 24.3187L29.0059 24.1589L28.964 23.918L28.0444 24.0778ZM28.0863 24.3187L27.1667 24.4785L27.2086 24.7194L28.1282 24.5596L29.0477 24.3998L29.0059 24.1589L28.0863 24.3187ZM28.1282 24.5596L27.2086 24.7194C27.2233 24.804 27.2412 24.8979 27.2629 24.9786C27.2697 25.0038 27.2951 25.1004 27.3484 25.2036C27.3612 25.2284 27.4521 25.4155 27.6615 25.5567C27.7894 25.643 28.0045 25.7396 28.2783 25.7124C28.551 25.6852 28.7414 25.5491 28.8482 25.4423L28.1882 24.7824L27.5282 24.1224C27.6335 24.0171 27.8223 23.8819 28.0933 23.8549C28.3655 23.8278 28.5789 23.9239 28.7051 24.009C28.911 24.1478 28.9981 24.3298 29.0069 24.3469C29.0344 24.4002 29.0493 24.4426 29.0543 24.4572C29.0607 24.4761 29.0643 24.4891 29.0653 24.4929C29.0671 24.4993 29.061 24.4758 29.0477 24.3998L28.1282 24.5596ZM28.1882 24.7824L28.8482 25.4423L28.8663 25.4242L28.2063 24.7642L27.5464 24.1042L27.5282 24.1224L28.1882 24.7824ZM28.2063 24.7642L29.0949 24.4784L29.0604 24.3714L28.1719 24.6572L27.2834 24.943L27.3178 25.05L28.2063 24.7642ZM28.1719 24.6572L27.512 25.3172L27.5827 25.3879L28.2426 24.7279L28.9026 24.0679L28.8319 23.9972L28.1719 24.6572Z" fill="#6140D2"/>
<path d="M17.4849 3.77283C17.9245 3.67326 18.3644 3.73708 18.7642 3.93689L19.4478 4.27966C19.4503 4.27883 19.4535 4.27785 19.4565 4.27673L20.2739 3.97595C20.5374 3.87901 20.8484 3.82722 21.1782 3.89099C21.5153 3.95626 21.7933 4.12695 22.0063 4.34509L22.5591 4.91052C22.8151 5.17275 23.0254 5.46953 23.1812 5.79919L23.4995 6.47302C23.5855 6.655 23.6841 6.82908 23.7944 6.99548L24.2046 7.61462C24.4777 8.0266 24.5803 8.50059 24.5073 8.98669L24.396 9.72791C24.3277 10.1824 24.125 10.5818 23.8296 10.9154L23.7485 11.0062C18.8947 11.1398 15.0007 15.1143 15.0005 20.0004C15.0005 21.3911 15.3162 22.7084 15.8794 23.8842L15.6782 24.0551C15.4693 24.2318 15.2532 24.4003 15.0298 24.559L14.4272 24.9867C14.0844 25.2301 13.5212 25.466 12.9126 25.1869L12.4526 24.976C12.3863 24.9455 12.2228 24.871 12.0864 24.7592C12.0467 24.7265 11.9653 24.6556 11.8892 24.5463C11.8613 24.5062 11.8209 24.4365 11.7837 24.3441L11.4917 24.1635C11.1044 23.9242 10.8156 23.5857 10.6265 23.182L10.2876 22.4574C10.2841 22.45 10.2804 22.4453 10.2788 22.4427C10.2768 22.4417 10.2737 22.4404 10.27 22.4388L9.5376 22.1381C9.22931 22.0114 8.93959 21.8538 8.67139 21.6654L8.05615 21.2328C7.71951 20.9963 7.45305 20.69 7.26123 20.3285L6.89795 19.6429C6.81341 19.4836 6.71573 19.3466 6.60791 19.2279L6.11084 18.6801C5.99902 18.557 5.86793 18.4427 5.71533 18.3383L5.07568 17.9008C4.74233 17.6726 4.46983 17.3797 4.26904 17.0277L3.89404 16.3705C3.69468 16.0209 3.58006 15.6403 3.54346 15.2416L3.47412 14.4877L2.76709 13.9877C2.27827 13.6414 1.97625 13.1058 2.021 12.4574L2.07666 11.6547C2.09197 11.4327 2.09142 11.2129 2.07568 10.9965L2.01807 10.2054C1.97819 9.65558 2.16791 9.15734 2.53076 8.76404L3.09326 8.15369C3.18859 8.0503 3.23244 7.96221 3.25342 7.88904L3.4585 7.17419C3.54645 6.86698 3.66767 6.56961 3.81982 6.28357L4.18213 5.60095C4.38641 5.21706 4.68119 4.90666 5.03662 4.66736L5.74072 4.19373L5.83936 4.13123C6.07679 3.99303 6.3572 3.9045 6.66748 3.90955C7.01618 3.91538 7.31981 4.03812 7.56494 4.19861L8.24854 4.64685L8.98877 4.30896L9.20166 4.22693C9.42499 4.15613 9.6792 4.124 9.94971 4.17126C10.2715 4.22766 10.5351 4.38249 10.7388 4.57458L10.8228 4.65857L11.397 5.27966C11.5494 5.44436 11.7026 5.58121 11.855 5.69275L12.479 6.1488C12.9496 6.49337 13.1869 6.99643 13.2173 7.54138L13.2554 8.24255L13.6079 8.42322L13.7788 7.71619C13.8904 7.2547 14.1442 6.86948 14.4937 6.57068L15.1099 6.04333C15.1928 5.97237 15.2269 5.91176 15.2446 5.85974L15.4849 5.15466C15.6654 4.62453 16.0566 4.24099 16.5825 4.06482L17.2964 3.82556L17.4849 3.77283Z" fill="#6140D2"/>
</svg>
