<svg width="40" height="40" viewBox="0 0 40 40" fill="none" xmlns="http://www.w3.org/2000/svg">
<path d="M6.76758 19.8555L6.76758 19.6328C6.78503 19.0209 7.11763 18.601 7.30664 18.4023C7.51673 18.1826 7.77 18.0065 7.98633 17.875L8.4668 17.582L8.95898 17.2773C9.15028 17.1605 9.31772 17.0227 9.46289 16.8555L9.83789 16.4219L10.2129 16C10.3667 15.8226 10.4996 15.6008 10.623 15.3437L11.1621 14.2422C11.4864 13.5686 12.011 13.0401 12.709 12.7305L13.248 12.4961L13.7754 12.25C13.819 12.2307 13.8454 12.2112 13.8809 12.1445L14.1621 11.6172L14.4551 11.0898C14.7861 10.467 15.2776 9.96363 15.9199 9.64844L16.4473 9.40234L16.9629 9.14453C17.1482 9.05358 17.2735 8.95086 17.3613 8.85156L18.0645 8.05469C18.1957 7.90464 18.3786 7.70526 18.5918 7.55078C18.686 7.48258 18.9154 7.32924 19.2363 7.25781C19.637 7.16944 20.2783 7.20796 20.748 7.75L20.8301 7.84375L21.0293 8.06641L21.0527 8.14844C21.4924 8.76959 21.4156 9.61888 20.8301 10.1289L20.748 10.1992L19.0488 11.6758L18.9551 11.4297C18.7447 11.5832 18.5232 11.724 18.2871 11.8398L17.7598 12.0859L17.2441 12.3437C17.1901 12.3702 17.1498 12.4091 17.1035 12.4961L16.8105 13.0234L16.5293 13.5625C16.1874 14.2031 15.6656 14.6943 14.9941 14.9922L14.4551 15.2383L13.916 15.4727L13.9043 15.4844L13.8926 15.4844C13.891 15.4859 13.8765 15.5033 13.8574 15.543L13.5996 16.0937L13.3301 16.6445C13.0998 17.124 12.8171 17.5741 12.4746 17.9687L12.0996 18.3906L11.7246 18.8242C11.3755 19.2257 10.9723 19.567 10.5176 19.8437L10.1777 20.043L10.5059 20.3242C10.9549 20.7203 11.3072 21.2027 11.5605 21.7422L11.8184 22.293L12.0762 22.8555C12.0826 22.8692 12.0965 22.8741 12.0996 22.8789L13.2012 23.3242C13.9266 23.6182 14.4741 24.1539 14.8066 24.8477L15.0645 25.3984L15.2402 25.7734L15.7793 25.832L16.4473 25.9258C16.8836 25.9812 17.3376 26.1303 17.7363 26.4414C18.1384 26.7571 18.4043 27.1724 18.5566 27.6016L18.7793 28.2227L18.9668 28.7852C18.9491 28.7509 18.9507 28.7614 19.002 28.8086C19.0728 28.873 19.2156 28.979 19.459 29.1016L20.6074 29.6758L20.748 29.8047L20.8301 29.8633C21.4561 30.4058 21.525 31.3583 20.9824 31.9844C20.4994 32.5417 19.708 32.6299 19.0957 32.2656L18.1113 31.7734C17.3352 31.3827 16.5048 30.784 16.166 29.8281L15.9434 29.2187L15.8145 28.8672L15.4043 28.8086L14.7246 28.7266L14.0801 28.5742C13.4647 28.3489 12.9432 27.9097 12.627 27.25L12.3691 26.6992L12.0996 26.1484L12.0762 26.1133L10.9746 25.668C10.245 25.3724 9.69808 24.831 9.36914 24.1328L9.09961 23.5703L8.8418 23.0195C8.74678 22.8172 8.63827 22.6742 8.52539 22.5742L8.10352 22.1992L7.68164 21.8359C7.49681 21.6729 7.29392 21.4695 7.13086 21.2383C6.98526 21.0308 6.74032 20.6114 6.75586 20.0664L6.76758 19.8555Z" fill="black"/>
<path d="M32 21.5C32.8284 21.5 33.5 20.8284 33.5 20C33.5 19.1716 32.8284 18.5 32 18.5L32 20L32 21.5ZM31.9 20L31.878 21.4998L31.889 21.5L31.9 21.5L31.9 20ZM20.1875 20.3704L20.771 18.9885L20.1875 20.3704ZM15.125 20.4328L15.5851 21.8605L15.125 20.4328ZM8 20.0644L7.18813 18.8031L6.5 19.246L6.5 20.0644L8 20.0644ZM8.1 20L8.91187 21.2613L13.2017 18.5L8.1 18.5L8.1 20ZM8 18.5C7.17157 18.5 6.5 19.1716 6.5 20C6.5 20.8284 7.17157 21.5 8 21.5L8 20L8 18.5ZM32 20L32 18.5L31.9 18.5L31.9 20L31.9 21.5L32 21.5L32 20ZM31.9 20L31.922 18.5002L30.847 18.4844L30.825 19.9843L30.803 21.4841L31.878 21.4998L31.9 20ZM30.825 19.9843L30.847 18.4844C30.1231 18.4738 29.5462 18.4751 29.1315 18.4906L29.1875 19.9895L29.2435 21.4885C29.5788 21.476 30.0936 21.4737 30.803 21.4841L30.825 19.9843ZM29.1875 19.9895L29.1315 18.4906L28.569 18.5116L28.625 20.0106L28.681 21.5095L29.2435 21.4885L29.1875 19.9895ZM28.625 20.0106L28.569 18.5116L28.0065 18.5327L28.0625 20.0316L28.1185 21.5306L28.681 21.5095L28.625 20.0106ZM28.0625 20.0316L28.0065 18.5327C27.7824 18.541 27.5536 18.5166 27.3155 18.4546L26.9375 19.9061L26.5595 21.3577C27.0714 21.4911 27.5926 21.5502 28.1185 21.5306L28.0625 20.0316ZM26.9375 19.9061L27.3155 18.4546L26.753 18.3081L26.375 19.7597L25.997 21.2112L26.5595 21.3577L26.9375 19.9061ZM26.375 19.7597L26.753 18.3081L26.1905 18.1616L25.8125 19.6132L25.4345 21.0648L25.997 21.2112L26.375 19.7597ZM25.8125 19.6132L26.1905 18.1616C25.5776 18.002 24.9518 17.9956 24.3355 18.1443L24.6875 19.6025L25.0395 21.0606C25.1732 21.0283 25.2974 21.0291 25.4345 21.0648L25.8125 19.6132ZM24.6875 19.6025L24.3355 18.1443L23.773 18.2801L24.125 19.7382L24.477 21.1964L25.0395 21.0606L24.6875 19.6025ZM24.125 19.7382L23.773 18.2801L23.2105 18.4159L23.5625 19.874L23.9145 21.3321L24.477 21.1964L24.125 19.7382ZM23.5625 19.874L23.2105 18.4159C22.8243 18.5091 22.4382 18.6071 22.0522 18.7097L22.4375 20.1593L22.8228 21.609C23.1868 21.5122 23.5507 21.42 23.9145 21.3321L23.5625 19.874ZM22.4375 20.1593L22.0522 18.7097L21.4897 18.8592L21.875 20.3088L22.2603 21.7585L22.8228 21.609L22.4375 20.1593ZM21.875 20.3088L21.4897 18.8592L20.9272 19.0087L21.3125 20.4584L21.6978 21.908L22.2603 21.7585L21.875 20.3088ZM21.3125 20.4584L20.9272 19.0087C20.8902 19.0185 20.8556 19.0243 20.771 18.9885L20.1875 20.3704L19.604 21.7522C20.2694 22.0332 20.9848 22.0976 21.6978 21.908L21.3125 20.4584ZM20.1875 20.3704L20.771 18.9885L20.2085 18.751L19.625 20.1329L19.0415 21.5147L19.604 21.7522L20.1875 20.3704ZM19.625 20.1329L20.2085 18.751L19.646 18.5135L19.0625 19.8953L18.479 21.2772L19.0415 21.5147L19.625 20.1329ZM19.0625 19.8953L19.646 18.5135C19.0207 18.2494 18.3495 18.1604 17.6671 18.2855L17.9375 19.7609L18.2079 21.2364C18.2755 21.224 18.3543 21.2246 18.479 21.2772L19.0625 19.8953ZM17.9375 19.7609L17.6671 18.2855L17.1046 18.3886L17.375 19.864L17.6454 21.3395L18.2079 21.2364L17.9375 19.7609ZM17.375 19.864L17.1046 18.3886L16.5421 18.4917L16.8125 19.9671L17.0829 21.4426L17.6454 21.3395L17.375 19.864ZM16.8125 19.9671L16.5421 18.4917C16.1008 18.5726 15.6624 18.6836 15.2274 18.8239L15.6875 20.2515L16.1476 21.6792C16.4626 21.5777 16.7742 21.4992 17.0829 21.4426L16.8125 19.9671ZM15.6875 20.2515L15.2274 18.8239L14.6649 19.0052L15.125 20.4328L15.5851 21.8605L16.1476 21.6792L15.6875 20.2515ZM15.125 20.4328L14.6649 19.0052L14.1024 19.1864L14.5625 20.6141L15.0226 22.0418L15.5851 21.8605L15.125 20.4328ZM14.5625 20.6141L14.1024 19.1864C14.1048 19.1857 14.1148 19.1828 14.131 19.1812C14.1474 19.1795 14.1644 19.1797 14.1801 19.1816C14.1955 19.1835 14.2042 19.1863 14.2048 19.1865C14.2051 19.1866 14.195 19.1832 14.1745 19.1716L13.4375 20.4781L12.7005 21.7846C13.4024 22.1805 14.2097 22.3038 15.0226 22.0418L14.5625 20.6141ZM13.4375 20.4781L14.1745 19.1716L13.612 18.8543L12.875 20.1608L12.138 21.4672L12.7005 21.7846L13.4375 20.4781ZM12.875 20.1608L13.612 18.8543L13.0495 18.537L12.3125 19.8435L11.5755 21.1499L12.138 21.4672L12.875 20.1608ZM12.3125 19.8435L13.0495 18.537C12.4637 18.2066 11.8087 18.021 11.1094 18.0575L11.1875 19.5555L11.2656 21.0534C11.3163 21.0508 11.4113 21.0573 11.5755 21.1499L12.3125 19.8435ZM11.1875 19.5555L11.1094 18.0575L10.5469 18.0868L10.625 19.5848L10.7031 21.0827L11.2656 21.0534L11.1875 19.5555ZM10.625 19.5848L10.5469 18.0868L9.98445 18.1161L10.0625 19.6141L10.1406 21.112L10.7031 21.0827L10.625 19.5848ZM10.0625 19.6141L9.98445 18.1161C9.52979 18.1398 9.07803 18.2033 8.66321 18.3376L9.125 19.7647L9.58679 21.1919C9.67197 21.1643 9.84521 21.1274 10.1406 21.112L10.0625 19.6141ZM9.125 19.7647L8.66321 18.3376L8.28821 18.4589L8.75 19.8861L9.21179 21.3132L9.58679 21.1919L9.125 19.7647ZM8.75 19.8861L8.28821 18.4589L7.91321 18.5802L8.375 20.0074L8.83679 21.4345L9.21179 21.3132L8.75 19.8861ZM8.375 20.0074L7.91321 18.5802C7.85922 18.5977 7.81751 18.6106 7.78657 18.6198C7.75361 18.6295 7.74242 18.6321 7.7468 18.631C7.74933 18.6304 7.76358 18.6271 7.78624 18.623C7.80462 18.6196 7.85525 18.6109 7.9245 18.6063C7.95854 18.6041 8.15936 18.5882 8.40655 18.6567C8.53543 18.6924 8.79651 18.783 9.04239 19.0199C9.33098 19.2981 9.5 19.6853 9.5 20.0966L8 20.0966L6.5 20.0966C6.5 20.5105 6.66999 20.9 6.96054 21.18C7.20837 21.4189 7.47238 21.5109 7.60517 21.5477C7.86016 21.6184 8.0727 21.6031 8.12237 21.5998C8.26947 21.5901 8.39411 21.5608 8.4407 21.5497C8.56392 21.5204 8.70441 21.4774 8.83679 21.4345L8.375 20.0074ZM8 20.0966L9.5 20.0966L9.5 20.0644L8 20.0644L6.5 20.0644L6.5 20.0966L8 20.0966ZM8 20.0644L8.81187 21.3257L8.91187 21.2613L8.1 20L7.28813 18.7387L7.18813 18.8031L8 20.0644ZM8.1 20L8.1 18.5L8 18.5L8 20L8 21.5L8.1 21.5L8.1 20Z" fill="black"/>
</svg>
