<svg width="40" height="40" viewBox="0 0 40 40" fill="none" xmlns="http://www.w3.org/2000/svg">
<path d="M19.3203 12.5195C18.8018 12.5029 18.3786 12.7431 18.1484 12.9297L17.5391 13.6797L17.2461 14.1602L16.9531 14.6523C16.8381 14.8466 16.6979 15.0199 16.5313 15.168L15.6875 15.918C15.5119 16.074 15.2987 16.225 15.043 16.3516L13.9414 16.8906C13.2703 17.2228 12.7549 17.7583 12.4531 18.4609L11.9844 19.5391C11.9656 19.5827 11.9451 19.6084 11.8789 19.6445L11.3516 19.9375L10.8242 20.2188C10.2054 20.5571 9.71382 21.061 9.40625 21.707L8.91406 22.7617C8.82855 22.9412 8.71817 23.0863 8.58594 23.207L8.16406 23.582L7.74219 23.9688C7.57651 24.1201 7.38802 24.3031 7.23828 24.5078C7.16422 24.6092 7.0585 24.7709 6.98047 24.9766C6.90663 25.1724 6.80944 25.5623 6.94531 26.0195L6.98047 26.1602L7.0625 26.418L7.10938 26.4648C7.19338 26.717 7.31358 26.9603 7.53125 27.1445C8.16296 27.6791 9.10519 27.5992 9.64063 26.9688L10.4844 25.9844L10.2852 25.7031L10.6016 25.4219C11.0275 25.033 11.3733 24.5711 11.6211 24.0508L12.1133 22.9961C12.1391 22.9418 12.1791 22.9028 12.2656 22.8555L12.793 22.5625L13.3203 22.2813C13.9591 21.932 14.4476 21.399 14.7383 20.7227L15.207 19.6445C15.2122 19.6324 15.2171 19.6235 15.2188 19.6211C15.219 19.6209 15.2357 19.6066 15.2773 19.5859L15.8281 19.3047L16.3672 19.0352C16.8439 18.7992 17.2891 18.5151 17.6797 18.168L18.1016 17.793L18.5234 17.4063C18.9218 17.0522 19.2593 16.646 19.5313 16.1875L19.5781 16.1055L19.9414 16.5391C20.331 16.9899 20.8021 17.3468 21.3359 17.6055L21.8984 17.8633L22.4492 18.1328C22.4664 18.1411 22.4808 18.142 22.4844 18.1445L22.6953 18.707L22.9063 19.2578C23.1915 19.9867 23.7166 20.5459 24.4063 20.8867L24.957 21.1563L25.332 21.332L25.3906 21.8711L25.4609 22.5391C25.5114 22.9783 25.667 23.4359 25.9766 23.8398C26.2887 24.2467 26.6961 24.5149 27.125 24.6719L27.7344 24.8945L28.2969 25.0938C28.2619 25.0753 28.2734 25.0767 28.3203 25.1289C28.3839 25.2006 28.4822 25.3416 28.6016 25.5859L29.082 26.582L29.1641 26.7461L29.293 26.8867L29.3516 26.9688C29.8867 27.6012 30.8402 27.6796 31.4727 27.1445C32.0319 26.6693 32.13 25.8845 31.7773 25.2695L31.2969 24.2734C30.9157 23.4935 30.3254 22.6553 29.375 22.3047L28.7656 22.082L28.4141 21.9414L28.3672 21.5313L28.2852 20.8516L28.1445 20.207C27.9267 19.588 27.4887 19.0666 26.832 18.7422L26.2813 18.4727L25.7422 18.1914L25.707 18.1797L25.707 18.168L25.4844 17.6172L25.2734 17.0664C24.986 16.332 24.4461 15.7745 23.75 15.4375L22.6484 14.8984C22.4497 14.8022 22.3132 14.6946 22.2148 14.582L21.8398 14.1484L21.4766 13.7266C21.3271 13.553 21.1636 13.3811 20.9961 13.2344C20.8449 13.102 20.6025 12.9201 20.293 12.8008L20.082 12.707L19.8711 12.625L19.3203 12.5195Z" fill="black"/>
</svg>
