<svg width="40" height="40" viewBox="0 0 40 40" fill="none" xmlns="http://www.w3.org/2000/svg">
<path d="M33.1133 30.0352C33.6068 30.6031 33.6221 31.4478 33.1016 32.0156C32.5429 32.6216 31.602 32.6634 30.9922 32.1094L30.9102 32.0391L30.8164 31.9453L30.7344 31.8398L30.0664 30.9609C29.8856 30.7222 29.7384 30.5543 29.6211 30.4453C29.4992 30.3323 29.4421 30.3098 29.457 30.3164L28.918 30.082L28.3672 29.8359C27.8807 29.6189 27.4312 29.3371 27.0312 28.9922L26.6094 28.6289L26.1875 28.2539C25.7221 27.8525 25.3696 27.3568 25.1211 26.8008L24.8633 26.25L24.6992 25.8516L24.1602 25.7578L23.5039 25.6406C23.0452 25.5592 22.5781 25.3613 22.1914 24.9844C21.8077 24.6097 21.599 24.151 21.5 23.707L21.3477 23.0391L21.1953 22.3594C21.172 22.256 21.1425 22.1922 21.125 22.1602C21.1138 22.1404 21.1066 22.1302 21.1016 22.125L20.6797 21.75L20.5156 21.5859L20.1992 21.8906C19.7225 22.3517 19.5023 22.6495 19.4258 22.793L18.8633 23.8477C18.5455 24.4453 18.0616 24.855 17.4922 25.0898L16.8945 25.2656L16.25 25.3945L15.7344 25.4883L15.5586 25.8984L15.3242 26.4609C15.0737 27.0522 14.6922 27.5697 14.1758 27.9727L13.2852 28.6758C13.0558 28.8551 12.8378 29.047 12.6406 29.2617L12.2656 29.6836L11.8789 30.0938C11.4892 30.5183 11.0279 30.8549 10.5078 31.1016L9.96875 31.3594L9.44141 31.6055L9.38281 31.7695L9.08984 32.0391L9.00781 32.1094C8.39803 32.6634 7.45708 32.6216 6.89844 32.0156C6.44628 31.5224 6.40721 30.8208 6.72266 30.2695L6.74609 30.1641L6.80469 30.0469L6.875 29.918C7.01565 29.6562 7.19921 29.4873 7.28516 29.4141C7.38838 29.3262 7.49334 29.2565 7.57812 29.2031C7.7493 29.0958 7.95257 28.9929 8.15234 28.8984L8.69141 28.6406L9.21875 28.3945C9.40596 28.3061 9.55813 28.1946 9.67578 28.0664L10.0508 27.6563L10.4375 27.2344C10.7472 26.8973 11.0845 26.5901 11.4453 26.3086L11.8906 25.957L12.3359 25.6172C12.4126 25.5574 12.4875 25.4567 12.5586 25.2891L12.8047 24.7266L13.0391 24.1523C13.4103 23.2763 14.1477 22.7403 15.0312 22.5703L15.6758 22.4531L16.2734 22.3359L16.4961 21.9141L16.7773 21.3867C16.9591 21.0447 17.221 20.7139 17.5156 20.3789L17.4453 20.3203L17.0352 19.9336C16.5977 19.5252 16.2654 19.0265 16.0273 18.4805L15.5352 17.3555C15.5302 17.3442 15.5262 17.3367 15.5234 17.332L14.9727 17.0859L14.4336 16.8516C13.7179 16.5382 13.1884 15.9938 12.875 15.293L12.6172 14.7305L12.4648 14.3555L11.9258 14.2734L11.2578 14.168C10.8209 14.1001 10.3719 13.9308 9.98047 13.6055C9.58585 13.2773 9.33522 12.857 9.19531 12.4219L8.99609 11.8125L8.82031 11.2617C8.81635 11.2565 8.80817 11.2372 8.78516 11.2148C8.71659 11.1485 8.5813 11.0403 8.33984 10.9102L7.36719 10.3828L7.20312 10.3008L7.0625 10.1719L6.99219 10.1016C6.38186 9.5421 6.33968 8.6029 6.89844 7.99219C7.39688 7.44843 8.18318 7.37632 8.78516 7.75781V7.74609L9.75781 8.27344C10.5238 8.68623 11.3452 9.30999 11.6562 10.2773L11.8555 10.8984L11.9727 11.2383L12.3828 11.3086L13.0508 11.4141L13.6953 11.5898C14.3041 11.8323 14.8156 12.2811 15.1133 12.9492L15.6055 14.0742C15.6122 14.089 15.6261 14.0933 15.6289 14.0977L15.6172 14.0977L15.6406 14.1094L16.7188 14.5781C17.4411 14.8944 17.98 15.4512 18.2891 16.1602L18.7812 17.2852C18.871 17.491 18.9753 17.639 19.0859 17.7422L19.4961 18.1172L19.707 18.3047L19.9883 18.082C20.4812 17.6924 20.6537 17.4611 20.6914 17.3906L21.2305 16.3125C21.6432 15.4894 22.3818 15.0062 23.2227 14.8477L23.8672 14.7188L24.5234 14.6016C24.7308 14.5618 24.8283 14.501 24.875 14.4609L25.7188 13.7109C25.8642 13.5826 25.9925 13.4216 26.1055 13.2188L26.3984 12.7031L26.6914 12.1758C26.9874 11.6444 27.3862 11.1922 27.8867 10.8398L28.3555 10.5117L28.8125 10.1836C29.0275 10.0323 29.2245 9.86229 29.3984 9.66797L30.1484 8.82422C30.4008 8.54176 30.5623 8.37083 30.6172 8.30859L30.6992 8.20313L30.7109 8.21484L30.7461 8.14453L30.8164 8.05078L30.9102 7.95703L30.9922 7.89844C31.6029 7.33967 32.5421 7.38186 33.1016 7.99219C33.6243 8.56355 33.6039 9.40521 33.1016 9.97266L33.1133 9.98437L33.0078 10.1133L32.9844 10.1602L32.8555 10.2891L31.6367 11.6602C31.3091 12.0268 30.9377 12.3496 30.5352 12.6328L30.0781 12.9609L29.6094 13.2891C29.4945 13.3702 29.3914 13.4844 29.3047 13.6406L29.0234 14.1563L28.7305 14.6719C28.4609 15.1576 28.1257 15.5943 27.7109 15.9609L26.8672 16.7109C26.3502 17.1669 25.7258 17.4319 25.0742 17.5547L24.418 17.6719L23.8555 17.7773L23.6445 18.1875L23.375 18.7266C23.2231 19.0295 23.0161 19.3154 22.7773 19.582L23.082 19.875C23.6482 20.3761 23.9727 21.0283 24.125 21.7148L24.2773 22.3828L24.3711 22.7461L24.6875 22.8047L25.3438 22.9219L25.9648 23.1094C26.564 23.3594 27.0663 23.803 27.3594 24.457L27.8516 25.582C27.9363 25.7717 28.042 25.8918 28.1445 25.9805L28.5664 26.3555L29 26.7188C29.1666 26.862 29.3644 26.9899 29.5977 27.0938L30.1367 27.3398L30.6758 27.5742C31.3913 27.8928 31.9854 28.5167 32.4688 29.1562L33.125 30.0234L33.1133 30.0352Z" fill="black"/>
</svg>
