<svg width="40" height="40" viewBox="0 0 40 40" fill="none" xmlns="http://www.w3.org/2000/svg">
<path d="M34 19.5C34.8284 19.5 35.5 20.1716 35.5 21L35.2383 22.3279V22.5266V22.6806C35.3555 23.144 35.2101 23.5011 35.2383 23.9727L35.2715 24.5352L35.3056 25.0977C35.3162 25.274 35.3617 25.4718 35.4629 25.6963L35.7158 26.2588L35.9697 26.8213C36.2805 27.5108 36.3444 28.2605 36.1172 29.002L35.9453 29.5645L35.7724 30.127C35.7438 30.2205 35.7444 30.2945 35.7715 30.3857L36.1054 31.5107C36.2348 31.9466 36.2991 32.6284 35.8554 33.2549C35.445 33.8345 34.8347 34.0228 34.4492 34.0908L33.1572 34.3193C32.6553 34.4079 32.1653 34.4559 31.6914 34.457L31.1289 34.459L30.5664 34.46C30.2551 34.4607 29.9427 34.4811 29.6299 34.5215L29.0674 34.5947L28.5049 34.667C27.922 34.7423 27.3416 34.6954 26.7773 34.5352L26.2148 34.375L25.6523 34.2158C25.3034 34.1167 24.9552 34.0277 24.6074 33.9492L23.4824 33.6953C23.2464 33.6421 23.0172 33.6249 22.791 33.6406L21.666 33.7188C21.3205 33.7427 20.9748 33.7769 20.6289 33.8213L19.5039 33.9658C19.0272 34.027 18.5485 34.0385 18.0703 34.001L16.9453 33.9131C16.9045 33.9099 16.8214 33.9111 16.667 33.9971L16.1045 34.3105L15.542 34.623C14.9265 34.9656 14.231 35.1353 13.4961 35.041L12.3711 34.8965C12.1675 34.8704 11.9638 34.8785 11.7529 34.9238L10.6279 35.166C10.1557 35.2675 9.67916 35.3212 9.20017 35.3252L8.63767 35.3301L8.07517 35.334C7.30042 35.3404 6.6003 35.0541 6.04782 34.5273L5.63181 34.1299L5.21481 33.7324C4.71622 33.2569 4.38697 32.6631 4.24899 31.9873L4.13376 31.4248L4.0195 30.8623C3.85296 30.0463 4.05395 29.28 4.46384 28.6338L4.82126 28.0713L5.06735 27.6826L4.57907 26.7666C4.31876 26.2772 4.12734 25.7649 4.02048 25.2324L3.90817 24.6699L3.79489 24.1074C3.62924 23.2816 3.88058 22.3866 4.18063 21.625L4.52048 20.7637C4.63395 20.0477 5.25206 19.5 5.99997 19.5C6.8284 19.5 7.49997 20.1716 7.49997 21V21.3848L6.97165 22.7246C6.8528 23.0263 6.78973 23.2485 6.76071 23.4014C6.74548 23.4816 6.74273 23.5275 6.74216 23.5449L6.84958 24.0801L6.96188 24.6426C7.00552 24.8599 7.08899 25.098 7.22751 25.3584L7.52731 25.9209L7.82614 26.4834C8.29291 27.3609 8.22161 28.3111 7.71091 29.1162L6.99802 30.2412C6.98133 30.2675 6.97157 30.2871 6.96579 30.2998L7.18845 31.3877C7.20356 31.4616 7.22853 31.5075 7.28513 31.5615L7.70212 31.959L8.09372 32.333L8.61228 32.3301L9.17478 32.3252C9.44556 32.323 9.71942 32.293 9.99704 32.2334L11.122 31.9912C11.6609 31.8754 12.2077 31.8508 12.7539 31.9209L13.8789 32.0654C13.8946 32.0675 13.9499 32.076 14.083 32.002L14.6455 31.6885L15.208 31.376C15.8034 31.0446 16.4704 30.8663 17.1797 30.9219L17.7422 30.9658L18.3047 31.0107C18.5763 31.032 18.8479 31.0253 19.1211 30.9902L20.2461 30.8457C20.6499 30.7939 21.0546 30.7536 21.459 30.7256L22.584 30.6475C23.1076 30.6112 23.6287 30.6526 24.1425 30.7686L25.2675 31.0225C25.6697 31.1132 26.0716 31.2162 26.4726 31.3301L27.0351 31.4893L27.5976 31.6494C27.7831 31.702 27.9532 31.7129 28.1201 31.6914L28.6826 31.6191L29.2451 31.5459C29.682 31.4895 30.1201 31.461 30.5586 31.46L31.1211 31.459L31.6836 31.457C31.9595 31.4564 32.2763 31.4287 32.6357 31.3652L32.9179 31.3145L32.8955 31.2393C32.6999 30.5806 32.7032 29.9043 32.9043 29.248L33.0771 28.6855L33.249 28.123L33.2529 28.1084C33.2529 28.1084 33.2527 28.1052 33.2509 28.0986C33.2489 28.0909 33.2442 28.0756 33.2343 28.0537L32.9814 27.4912L32.7275 26.9287C32.4907 26.4034 32.3448 25.8508 32.3105 25.2773L32.2773 24.7148L32.2431 24.1523C32.2265 23.8741 32.1828 23.592 32.1103 23.3057L31.9687 22.7432L31.8261 22.1807C31.7652 21.9396 31.6928 21.5798 31.7373 21.2002C31.7863 20.782 32.0512 20.0036 32.9355 19.7471L33.3134 19.6377L33.3828 19.6338C33.5712 19.5486 33.7798 19.5 34 19.5Z" fill="white"/>
<path d="M27.3301 17.7695C27.633 18.3505 27.5166 19.0374 27.0918 19.4893L26.7256 20.1924C26.3218 20.9664 25.7014 21.7996 24.7207 22.1143L23.7529 22.4258L23.583 23.5137C23.4603 24.3005 23.039 25.1398 22.0977 25.5361L21.1357 25.9414L20.9854 25.999C20.332 26.2287 19.6772 26.1691 19.0957 25.9209L18.833 25.7939L18.3115 25.5088L17.7891 25.2246C17.0968 24.8472 16.614 24.2514 16.3672 23.5186L15.9746 22.3525C15.903 22.1398 15.8102 21.9893 15.709 21.877L15.332 21.459L14.9551 21.042C14.7279 20.79 14.5096 20.565 14.2998 20.3672L14.166 20.2412L13.3066 19.793C12.5724 19.4098 12.2871 18.5039 12.6699 17.7695C12.6845 17.7415 12.7026 17.7152 12.7187 17.6885L12.7373 17.5859L13.1631 17.1953C13.8149 16.5974 14.5707 16.8324 14.7012 16.876C14.92 16.9492 15.0839 17.0567 15.1582 17.1074C15.3284 17.2237 15.4935 17.3704 15.6289 17.498L15.9932 17.8408L16.3574 18.1846C16.633 18.4443 16.9086 18.7273 17.1836 19.0322L17.5596 19.4502L17.9365 19.8682C18.1165 20.0678 18.2739 20.2822 18.4102 20.5088L18.2852 19.833C18.1601 19.1507 18.2498 18.4797 18.5137 17.8545L18.9883 16.7295C19.0239 16.6451 19.0185 16.61 19.0088 16.5732L18.71 15.4482C18.6074 15.0622 18.5092 14.6753 18.416 14.2891L18.1445 13.1641C17.9959 12.548 18.0016 11.9223 18.1611 11.3096L18.4541 10.1846C18.5161 9.94652 18.5406 9.71721 18.5322 9.49316L18.5117 8.93066L18.4902 8.36816C18.4747 7.95354 18.4738 7.37681 18.4844 6.65332L18.5 5.57812L18.5 5.5C18.5 4.67164 19.1717 4.00011 20 4C20.8284 4 21.5 4.67157 21.5 5.5L21.5 5.62207L21.4844 6.69727C21.474 7.40658 21.4757 7.92159 21.4883 8.25684L21.5098 8.81934L21.5303 9.38184C21.5499 9.90766 21.4907 10.4286 21.3574 10.9404L21.0645 12.0654C21.0288 12.2024 21.0283 12.3273 21.0605 12.4609L21.332 13.5859C21.4198 13.9495 21.5127 14.313 21.6094 14.6768L21.9082 15.8018C22.0977 16.5147 22.0328 17.2303 21.752 17.8955L21.2773 19.0205C21.2247 19.1451 21.224 19.2245 21.2363 19.292L21.3398 19.8545L21.4365 20.3838C21.7574 20.0207 22.1565 19.7865 22.5713 19.6533L23.1885 19.4551L23.7461 19.2773C23.752 19.2718 23.7595 19.2643 23.7686 19.2549C23.8324 19.188 23.9368 19.0513 24.0654 18.8047L24.5811 17.8154L24.7998 17.3975L25.2178 17.1797L25.3066 17.1328C26.041 16.75 26.947 17.0353 27.3301 17.7695Z" fill="white"/>
</svg>
