<svg width="40" height="40" viewBox="0 0 40 40" fill="none" xmlns="http://www.w3.org/2000/svg">
<path fill-rule="evenodd" clip-rule="evenodd" d="M20 0C9 0 0 9 0 20C0 31 9 40 20 40C31 40 40 31 40 20C40 9 31 0 20 0ZM25.3 12.2C24.6 12.2 24 12.2 23.3 12.2C22.4 12.2 21.9 12.7 21.8 13.5C21.8 14.2 21.8 14.9 21.8 15.6C21.8 15.9 21.9 15.8 22.1 15.8C23.1 15.8 24.1 15.8 25.1 15.8C25.4 15.8 25.5 15.9 25.5 16.2C25.4 17.4 25.3 18.5 25.2 19.7C25.2 20 25.1 20 24.8 20C24 20 23.2 20 22.4 20C21.8 20 21.9 19.9 21.9 20.5C21.9 24.2 21.9 27.8 21.9 31.5C21.9 31.9 21.8 32 21.4 32C20 32 18.7 32 17.3 32C16.9 32 16.9 31.9 16.9 31.5C16.9 29.7 16.9 27.8 16.9 26C16.9 24.1 16.9 22.3 16.9 20.4C16.9 20.1 16.8 20 16.5 20C15.9 20 15.3 20 14.7 20C14.5 20 14.4 19.9 14.4 19.7C14.4 18.5 14.4 17.4 14.4 16.2C14.4 16 14.5 15.9 14.7 15.9C15.3 15.9 15.9 15.9 16.5 15.9C16.8 15.9 16.9 15.8 16.9 15.5C16.9 14.6 16.9 13.7 16.9 12.8C16.9 11.7 17.2 10.7 17.9 9.8C18.7 8.7 19.9 8.2 21.2 8.1C22.6 8 24 8.1 25.3 8.1C25.5 8.1 25.5 8.2 25.5 8.4C25.5 9.6 25.5 10.8 25.5 11.9C25.6 12.1 25.5 12.2 25.3 12.2Z" fill="white"/>
</svg>
