<svg width="32" height="32" viewBox="0 0 32 32" fill="none" xmlns="http://www.w3.org/2000/svg">
<path d="M17.2959 4.82568C17.7975 4.65775 18.3067 4.70865 18.7637 4.93701L19.4473 5.27979C19.4498 5.27894 19.453 5.27794 19.4561 5.27686L20.2744 4.9751L20.374 4.94092C20.6145 4.86688 20.889 4.83438 21.1777 4.89014C21.4727 4.94719 21.7223 5.08552 21.9229 5.26514L22.0059 5.34424L22.5586 5.91064C22.8146 6.1728 23.0249 6.46879 23.1807 6.79834L23.499 7.47314C23.5849 7.65501 23.6836 7.82929 23.7939 7.99561L24.2041 8.61475C24.4772 9.02675 24.5798 9.50068 24.5068 9.98682L24.4873 10.1108C24.0023 10.0385 23.5061 10.0005 23.001 10.0005C22.8348 10.0005 22.6691 10.0042 22.5049 10.0122L22.5527 9.69775L22.1484 9.08643C21.9854 8.84061 21.8402 8.58422 21.7139 8.31689L21.3945 7.64209C21.338 7.52245 21.2576 7.40535 21.1455 7.29053L20.7646 6.89893L20.1387 7.12939C19.6378 7.31379 19.0972 7.31164 18.5918 7.05908L17.8916 6.7085L17.3164 6.90088L17.1143 7.49561C16.9722 7.91319 16.7203 8.26421 16.3926 8.54443L15.7764 9.0708C15.7149 9.12334 15.7039 9.15668 15.6982 9.18018L15.5225 9.90771C15.4526 10.1967 15.3625 10.4772 15.252 10.7485L14.9766 11.4224C14.9493 11.4891 14.9196 11.5576 14.8887 11.6206C14.8678 11.6632 14.8112 11.7789 14.7197 11.8892C14.6914 11.9234 14.547 12.1027 14.2852 12.1987C14.1264 12.2568 13.8979 12.2934 13.6465 12.2153C13.3989 12.1384 13.2371 11.9842 13.1445 11.8608C12.9892 11.6536 12.959 11.4429 12.9521 11.3979C12.9468 11.363 12.9433 11.3294 12.9414 11.3003L12.2578 10.9497C11.7055 10.6663 11.329 10.1603 11.292 9.49561L11.2471 8.69385L10.6885 8.28564C10.425 8.09277 10.1778 7.87058 9.94727 7.62158L9.57129 7.21338L8.98633 7.48096C8.40198 7.74791 7.77877 7.69883 7.24316 7.34814L6.65137 6.96045L6.13867 7.30615C6.0251 7.38269 5.96348 7.45798 5.92578 7.52881L5.5625 8.21143C5.47286 8.38 5.40478 8.54851 5.35645 8.71729L5.15234 9.43213C5.03699 9.83519 4.82377 10.1893 4.54395 10.4927L3.99023 11.0933L4.04492 11.853C4.06752 12.1637 4.0675 12.4762 4.0459 12.7896L4.00098 13.4419L4.62695 13.8853C5.04944 14.1845 5.34363 14.6153 5.42285 15.1489L5.43555 15.2573L5.50977 16.061C5.52233 16.1977 5.55798 16.3036 5.6084 16.3921L5.9834 17.0503C6.03244 17.1361 6.09801 17.2077 6.19043 17.271L6.8291 17.7085C7.10251 17.8955 7.35145 18.1102 7.57129 18.3521L8.06934 18.8999C8.29303 19.1461 8.48276 19.4198 8.64062 19.7173L9.00488 20.4028C9.05557 20.4984 9.11667 20.5648 9.19043 20.6167L9.80566 21.0493C9.94791 21.1492 10.1083 21.2371 10.2881 21.311L11.0205 21.6118C11.4959 21.8073 11.8584 22.1561 12.0752 22.6187L12.415 23.3442C12.4522 23.4235 12.4902 23.4588 12.5293 23.4829L13.1689 23.8784C13.2762 23.9447 13.4169 24.0353 13.5283 24.1353C13.5396 24.1454 13.5526 24.1589 13.5674 24.1733L13.8281 23.9878C14.0946 24.5999 14.4217 25.1791 14.7998 25.7202L14.4268 25.9858C14.0839 26.2293 13.5208 26.4662 12.9121 26.187L12.4521 25.9761C12.3856 25.9455 12.2221 25.8701 12.0859 25.7583C12.046 25.7255 11.9645 25.6553 11.8887 25.5464C11.8604 25.5058 11.8168 25.4356 11.7793 25.3413L11.4912 25.1626C11.1041 24.9234 10.8151 24.5857 10.626 24.1821L10.2861 23.4565C10.283 23.4499 10.2809 23.4454 10.2793 23.4429C10.2773 23.4418 10.2736 23.4407 10.2695 23.439L9.53711 23.1372C9.2289 23.0105 8.93904 22.8539 8.6709 22.6655L8.05469 22.2329C7.71822 21.9965 7.45249 21.69 7.26074 21.3286L6.89746 20.6431C6.81292 20.4837 6.71523 20.3467 6.60742 20.228L6.11035 19.6802C5.99854 19.5572 5.86741 19.4428 5.71484 19.3384L5.0752 18.9009C4.74183 18.6728 4.46935 18.3798 4.26855 18.0278L3.89355 17.3706C3.69418 17.021 3.57952 16.6395 3.54297 16.2407L3.47363 15.4878L2.7666 14.9868C2.27804 14.6406 1.97584 14.1057 2.02051 13.4575L2.07617 12.6538C2.09146 12.432 2.09189 12.2128 2.07617 11.9966L2.01758 11.2056C1.97767 10.6557 2.16745 10.1575 2.53027 9.76416L3.09277 9.15381C3.18836 9.0502 3.23196 8.96146 3.25293 8.88818L3.45801 8.17432C3.54596 7.86702 3.66714 7.56981 3.81934 7.28369L4.18262 6.60107C4.38688 6.21722 4.68075 5.90677 5.03613 5.66748L5.74023 5.19385C5.99745 5.0207 6.31163 4.90405 6.66602 4.90967C6.97136 4.91463 7.24254 5.00909 7.46973 5.14014L7.56445 5.19873L8.25 5.64697L8.98828 5.30908L9.09277 5.26514C9.34097 5.16889 9.63373 5.11627 9.94922 5.17139C10.3171 5.23578 10.6089 5.42823 10.8223 5.65869L11.3975 6.27881C11.5498 6.44342 11.7022 6.58038 11.8545 6.69189L12.4785 7.14893C12.9492 7.49351 13.1865 7.99649 13.2168 8.5415L13.2549 9.24268L13.6074 9.42334L13.7783 8.71533C13.8899 8.25401 14.1439 7.86855 14.4932 7.56982L15.1094 7.04248C15.1924 6.97146 15.2274 6.91191 15.2451 6.85986L15.4844 6.15479L15.5205 6.05713C15.7141 5.57721 16.0896 5.23011 16.583 5.06494L17.2959 4.82568Z" fill="#6140D2"/>
<path d="M24 14C24 13.4477 23.5523 13 23 13C22.4477 13 22 13.4477 22 14H23H24ZM23 14.1L23.9999 14.1151L24 14.1075V14.1H23ZM22.9894 14.8L21.9896 14.7849L22.9894 14.8ZM22.8675 15.875L23.8261 16.1597L22.8675 15.875ZM22.6448 16.625L21.6862 16.3403L22.6448 16.625ZM22.7104 17.375L23.6148 16.9481L22.7104 17.375ZM22.8874 17.75L21.9831 18.1769L22.8874 17.75ZM23.0645 18.125L22.1601 18.5519L23.0645 18.125ZM23.1045 18.875L24.0437 19.2181L23.1045 18.875ZM22.8305 19.625L21.8912 19.2819L22.8305 19.625ZM22.6232 20.375L23.6061 20.5591L22.6232 20.375ZM22.4827 21.125L21.4998 20.9409L22.4827 21.125ZM22.4211 21.875L23.4209 21.8519L22.4211 21.875ZM22.4298 22.25L21.4301 22.2731L22.4298 22.25ZM22.4385 22.625L23.4382 22.6019L22.4385 22.625ZM22.5752 23.375L23.5215 23.0518L22.5752 23.375ZM22.8314 24.125L23.7777 23.8018L22.8314 24.125ZM22.8996 24.875L21.9121 24.7173L22.8996 24.875ZM22.7798 25.625L23.7673 25.7827L22.7798 25.625ZM22.86 26V27H23.1804L23.4411 26.8138L22.86 26ZM23 25.9H24V23.9571L22.4189 25.0862L23 25.9ZM22 26C22 26.5523 22.4477 27 23 27C23.5523 27 24 26.5523 24 26H23H22ZM17 19C16.4477 19 16 19.4477 16 20C16 20.5523 16.4477 21 17 21V20V19ZM17.1 20V21H17.2082L17.3139 20.9769L17.1 20ZM18.875 19.6627L18.7933 18.666L18.875 19.6627ZM19.625 19.6012L19.7067 20.5979L19.625 19.6012ZM20.375 19.6325L20.2118 20.6191L20.375 19.6325ZM20.75 19.6945L20.9132 18.7079L20.75 19.6945ZM21.875 19.8825L22.0431 18.8967L21.875 19.8825ZM22.25 19.9464L22.0819 20.9322L22.25 19.9464ZM22.625 20.0103L22.7931 19.0246L22.625 20.0103ZM23.375 20.005L23.5568 20.9883L23.375 20.005ZM24.125 19.8664L23.9432 18.883L24.125 19.8664ZM24.875 19.9229L25.1931 18.9748L24.875 19.9229ZM25.625 20.1746L25.3069 21.1226L25.625 20.1746ZM26.375 20.1302L26.7884 21.0407L26.375 20.1302ZM27.125 19.7896L27.5384 20.7002L27.125 19.7896ZM27.875 19.7877L28.2844 18.8753L27.875 19.7877ZM28.25 19.9559L28.6594 19.0436L28.25 19.9559ZM28.625 20.1242L28.2156 21.0366L28.625 20.1242ZM29 20.1463H30V19.8371L29.8255 19.5818L29 20.1463ZM28.9 20V19H27.0048L28.0745 20.5644L28.9 20ZM29 21C29.5523 21 30 20.5523 30 20C30 19.4477 29.5523 19 29 19V20V21ZM23 14H22V14.1H23H24V14H23ZM23 14.1L22.0001 14.0849L21.9896 14.7849L22.9894 14.8L23.9893 14.8151L23.9999 14.1151L23 14.1ZM22.9894 14.8L21.9896 14.7849C21.983 15.2201 21.9443 15.471 21.9089 15.5903L22.8675 15.875L23.8261 16.1597C23.9392 15.779 23.9818 15.3133 23.9893 14.8151L22.9894 14.8ZM22.8675 15.875L21.9089 15.5903L21.7975 15.9653L22.7562 16.25L23.7148 16.5347L23.8261 16.1597L22.8675 15.875ZM22.7562 16.25L21.7975 15.9653L21.6862 16.3403L22.6448 16.625L23.6034 16.9097L23.7148 16.5347L22.7562 16.25ZM22.6448 16.625L21.6862 16.3403C21.5375 16.8411 21.59 17.344 21.8061 17.8019L22.7104 17.375L23.6148 16.9481C23.6077 16.9331 23.6044 16.9232 23.603 16.9181C23.6016 16.9131 23.6016 16.9116 23.6017 16.9128C23.6018 16.9141 23.6018 16.9157 23.6017 16.9166C23.6016 16.9175 23.6017 16.9154 23.6034 16.9097L22.6448 16.625ZM22.7104 17.375L21.8061 17.8019L21.9831 18.1769L22.8874 17.75L23.7918 17.3231L23.6148 16.9481L22.7104 17.375ZM22.8874 17.75L21.9831 18.1769L22.1601 18.5519L23.0645 18.125L23.9688 17.6981L23.7918 17.3231L22.8874 17.75ZM23.0645 18.125L22.1601 18.5519C22.1652 18.5626 22.1664 18.5674 22.1661 18.5666C22.1659 18.5655 22.1648 18.5608 22.1644 18.5533C22.164 18.5457 22.1644 18.5387 22.1653 18.5334C22.1661 18.5282 22.1668 18.5275 22.1652 18.5319L23.1045 18.875L24.0437 19.2181C24.2307 18.7065 24.1959 18.1794 23.9688 17.6981L23.0645 18.125ZM23.1045 18.875L22.1652 18.5319L22.0282 18.9069L22.9675 19.25L23.9067 19.5931L24.0437 19.2181L23.1045 18.875ZM22.9675 19.25L22.0282 18.9069L21.8912 19.2819L22.8305 19.625L23.7697 19.9681L23.9067 19.5931L22.9675 19.25ZM22.8305 19.625L21.8912 19.2819C21.7818 19.5812 21.6977 19.8843 21.6403 20.1909L22.6232 20.375L23.6061 20.5591C23.6424 20.3657 23.6964 20.1688 23.7697 19.9681L22.8305 19.625ZM22.6232 20.375L21.6403 20.1909L21.5701 20.5659L22.553 20.75L23.5359 20.9341L23.6061 20.5591L22.6232 20.375ZM22.553 20.75L21.5701 20.5659L21.4998 20.9409L22.4827 21.125L23.4656 21.3091L23.5359 20.9341L22.553 20.75ZM22.4827 21.125L21.4998 20.9409C21.4404 21.258 21.414 21.5774 21.4214 21.8981L22.4211 21.875L23.4209 21.8519C23.4167 21.6726 23.4314 21.492 23.4656 21.3091L22.4827 21.125ZM22.4211 21.875L21.4214 21.8981L21.4301 22.2731L22.4298 22.25L23.4295 22.2269L23.4209 21.8519L22.4211 21.875ZM22.4298 22.25L21.4301 22.2731L21.4387 22.6481L22.4385 22.625L23.4382 22.6019L23.4295 22.2269L22.4298 22.25ZM22.4385 22.625L21.4387 22.6481C21.447 23.0059 21.5123 23.357 21.6289 23.6982L22.5752 23.375L23.5215 23.0518C23.4673 22.893 23.4415 22.7441 23.4382 22.6019L22.4385 22.625ZM22.5752 23.375L21.6289 23.6982L21.757 24.0732L22.7033 23.75L23.6496 23.4268L23.5215 23.0518L22.5752 23.375ZM22.7033 23.75L21.757 24.0732L21.885 24.4482L22.8314 24.125L23.7777 23.8018L23.6496 23.4268L22.7033 23.75ZM22.8314 24.125L21.885 24.4482C21.92 24.5506 21.9251 24.6357 21.9121 24.7173L22.8996 24.875L23.887 25.0327C23.9538 24.6143 23.9135 24.1994 23.7777 23.8018L22.8314 24.125ZM22.8996 24.875L21.9121 24.7173L21.8522 25.0923L22.8397 25.25L23.8272 25.4077L23.887 25.0327L22.8996 24.875ZM22.8397 25.25L21.8522 25.0923L21.7923 25.4673L22.7798 25.625L23.7673 25.7827L23.8272 25.4077L22.8397 25.25ZM22.7798 25.625L21.7923 25.4673C21.7704 25.6047 21.7485 25.774 21.7528 25.9333C21.7546 25.9993 21.7616 26.1657 21.8347 26.3483C21.9136 26.5452 22.1913 27 22.79 27V26V25C23.0307 25 23.2577 25.0888 23.4315 25.2403C23.5856 25.3746 23.6586 25.5228 23.6914 25.6048C23.752 25.7562 23.7519 25.8757 23.752 25.8792C23.753 25.9135 23.7493 25.8953 23.7673 25.7827L22.7798 25.625ZM22.79 26V27H22.86V26V25H22.79V26ZM22.86 26L23.4411 26.8138L23.5811 26.7138L23 25.9L22.4189 25.0862L22.2788 25.1862L22.86 26ZM23 25.9H22V26H23H24V25.9H23ZM17 20V21H17.1V20V19H17V20ZM17.1 20L17.3139 20.9769L18.0139 20.8236L17.8 19.8467L17.5861 18.8699L16.8861 19.0231L17.1 20ZM17.8 19.8467L18.0139 20.8236C18.4685 20.724 18.7746 20.6743 18.9567 20.6593L18.875 19.6627L18.7933 18.666C18.4754 18.6921 18.0649 18.765 17.5861 18.8699L17.8 19.8467ZM18.875 19.6627L18.9567 20.6593L19.3317 20.6286L19.25 19.6319L19.1683 18.6353L18.7933 18.666L18.875 19.6627ZM19.25 19.6319L19.3317 20.6286L19.7067 20.5979L19.625 19.6012L19.5433 18.6046L19.1683 18.6353L19.25 19.6319ZM19.625 19.6012L19.7067 20.5979C19.8741 20.5842 20.0419 20.591 20.2118 20.6191L20.375 19.6325L20.5382 18.6459C20.2081 18.5913 19.8759 18.5773 19.5433 18.6046L19.625 19.6012ZM20.375 19.6325L20.2118 20.6191L20.5868 20.6811L20.75 19.6945L20.9132 18.7079L20.5382 18.6459L20.375 19.6325ZM20.75 19.6945L20.5868 20.6811L20.9618 20.7431L21.125 19.7565L21.2882 18.7699L20.9132 18.7079L20.75 19.6945ZM21.125 19.7565L20.9618 20.7431C21.2102 20.7842 21.4586 20.8259 21.7069 20.8683L21.875 19.8825L22.0431 18.8967C21.7914 18.8538 21.5398 18.8115 21.2882 18.7699L21.125 19.7565ZM21.875 19.8825L21.7069 20.8683L22.0819 20.9322L22.25 19.9464L22.4181 18.9606L22.0431 18.8967L21.875 19.8825ZM22.25 19.9464L22.0819 20.9322L22.4569 20.9961L22.625 20.0103L22.7931 19.0246L22.4181 18.9606L22.25 19.9464ZM22.625 20.0103L22.4569 20.9961C22.8231 21.0585 23.1915 21.0558 23.5568 20.9883L23.375 20.005L23.1932 19.0216C23.0585 19.0465 22.9269 19.0474 22.7931 19.0246L22.625 20.0103ZM23.375 20.005L23.5568 20.9883L23.9318 20.919L23.75 19.9357L23.5682 18.9523L23.1932 19.0216L23.375 20.005ZM23.75 19.9357L23.9318 20.919L24.3068 20.8497L24.125 19.8664L23.9432 18.883L23.5682 18.9523L23.75 19.9357ZM24.125 19.8664L24.3068 20.8497C24.3835 20.8355 24.4616 20.8389 24.5569 20.8709L24.875 19.9229L25.1931 18.9748C24.7884 18.839 24.3665 18.8048 23.9432 18.883L24.125 19.8664ZM24.875 19.9229L24.5569 20.8709L24.9319 20.9968L25.25 20.0487L25.5681 19.1007L25.1931 18.9748L24.875 19.9229ZM25.25 20.0487L24.9319 20.9968L25.3069 21.1226L25.625 20.1746L25.9431 19.2265L25.5681 19.1007L25.25 20.0487ZM25.625 20.1746L25.3069 21.1226C25.8074 21.2906 26.3185 21.254 26.7884 21.0407L26.375 20.1302L25.9616 19.2196C25.9489 19.2254 25.9414 19.2275 25.9389 19.2282C25.9366 19.2288 25.9375 19.2283 25.9409 19.2281C25.9443 19.2279 25.9475 19.2281 25.9494 19.2284C25.9512 19.2286 25.9493 19.2286 25.9431 19.2265L25.625 20.1746ZM26.375 20.1302L26.7884 21.0407L27.1634 20.8704L26.75 19.9599L26.3366 19.0493L25.9616 19.2196L26.375 20.1302ZM26.75 19.9599L27.1634 20.8704L27.5384 20.7002L27.125 19.7896L26.7116 18.8791L26.3366 19.0493L26.75 19.9599ZM27.125 19.7896L27.5384 20.7002C27.5439 20.6977 27.5426 20.6988 27.5351 20.7006C27.5273 20.7024 27.516 20.704 27.5026 20.704C27.4892 20.704 27.4778 20.7025 27.4698 20.7007C27.462 20.6989 27.4604 20.6977 27.4656 20.7L27.875 19.7877L28.2844 18.8753C27.772 18.6454 27.2223 18.6472 26.7116 18.8791L27.125 19.7896ZM27.875 19.7877L27.4656 20.7L27.8406 20.8683L28.25 19.9559L28.6594 19.0436L28.2844 18.8753L27.875 19.7877ZM28.25 19.9559L27.8406 20.8683L28.2156 21.0366L28.625 20.1242L29.0344 19.2119L28.6594 19.0436L28.25 19.9559ZM28.625 20.1242L28.2156 21.0366C28.3483 21.0961 28.5085 21.1629 28.6603 21.2014C28.7134 21.2149 28.8946 21.2613 29.1116 21.2317C29.2281 21.2158 29.4587 21.1645 29.6697 20.9712C29.9122 20.749 30 20.4595 30 20.2194H29H28C28 19.9914 28.0839 19.7116 28.3186 19.4966C28.5217 19.3104 28.7407 19.2638 28.8416 19.25C28.9503 19.2352 29.0341 19.2434 29.0701 19.2478C29.1117 19.253 29.1408 19.26 29.1522 19.2629C29.179 19.2697 29.1517 19.2645 29.0344 19.2119L28.625 20.1242ZM29 20.2194H30V20.1463H29H28V20.2194H29ZM29 20.1463L29.8255 19.5818L29.7255 19.4356L28.9 20L28.0745 20.5644L28.1745 20.7107L29 20.1463ZM28.9 20V21H29V20V19H28.9V20Z" fill="#6140D2"/>
</svg>
