<svg width="32" height="32" viewBox="0 0 32 32" fill="none" xmlns="http://www.w3.org/2000/svg">
<path d="M14.7344 10.6172L15.1094 10.7656L15.4844 10.9062C15.4952 10.9105 15.5056 10.9136 15.5078 10.9141C15.5102 10.9136 15.5148 10.9095 15.5234 10.9062L16.2734 10.625C16.7644 10.4412 17.2776 10.4568 17.7578 10.6562L18.5078 10.9688C18.6614 11.0327 18.8017 11.0629 18.9297 11.0703L19.3047 11.0938L19.6797 11.1094C19.828 11.1177 19.9841 11.1087 20.1406 11.0703L20.8906 10.8828C21.3973 10.7597 21.8942 10.841 22.3359 11.0703L22.5469 11.1875L22.4844 11H24C24.5523 11 25 11.4477 25 12C25 12.0213 24.9857 12.0416 24.9844 12.0625L25 12.1094V12.4219C25 12.5975 24.9608 12.8045 24.8438 13C24.7272 13.194 24.5644 13.3243 24.4141 13.4062C24.1468 13.5512 23.8777 13.5571 23.7344 13.5547H23.4844L23.2344 13.5469C22.8414 13.5398 22.4687 13.3927 22.1641 13.2344L21.4141 12.8438C21.3967 12.8348 21.3826 12.8306 21.375 12.8281H21.3594L20.6094 13.0156C20.2678 13.0989 19.92 13.1289 19.5703 13.1094L19.1953 13.0859L18.8203 13.0703C18.4487 13.0494 18.0879 12.9564 17.7422 12.8125L16.9922 12.5H16.9766L16.2266 12.7812C15.7462 12.9612 15.2426 12.9581 14.7656 12.7734L14.0156 12.4766C13.9569 12.4537 13.919 12.459 13.8828 12.4688L13.1328 12.6719C12.7186 12.7833 12.2912 12.7854 11.875 12.6797L11.5 12.5859L11.2031 12.5078L10.8359 12.7812L10.4609 13.0547C9.80619 13.5304 9.0365 13.4118 8.45312 13.1953L7.82812 12.9609C7.35981 12.8778 7 12.4922 7 12C7 11.4477 7.44772 11 8 11H8.28125L8.44531 11.0625L9.14844 11.3203C9.25533 11.36 9.32623 11.377 9.36719 11.3828L9.66406 11.1641L10.0391 10.8906C10.3658 10.6532 10.7551 10.5002 11.1797 10.5L11.625 10.5547L12.375 10.7422C12.4565 10.7623 12.5335 10.7648 12.6172 10.7422L13.3672 10.5391C13.8293 10.4148 14.2947 10.4467 14.7344 10.6172Z" fill="#757575"/>
<path d="M23.9219 14.6094C24.0689 14.6074 24.37 14.638 24.6406 14.875C24.9335 15.132 24.9996 15.4605 25 15.6641V16C25 16.5523 24.5523 17 24 17H23.2031C23.1299 17.0288 23.0555 17.0642 22.9766 17.0938L22.2266 17.375C21.7318 17.5602 21.2154 17.5406 20.7344 17.3359L20.3594 17.1797L19.9844 17.0156C19.8972 16.9785 19.8367 16.9763 19.7891 16.9844L19.0391 17.1094C18.6746 17.1707 18.3088 17.1688 17.9453 17.1016L17.1953 16.9609C17.0123 16.9269 16.828 16.9176 16.6484 16.9219L15.8984 16.9375C15.5761 16.9451 15.256 16.9129 14.9375 16.8516L14.1875 16.7109C14.0268 16.6799 13.8676 16.6741 13.7109 16.6875L12.9609 16.75C12.8166 16.7624 12.6645 16.8015 12.5 16.8672L11.75 17.1641C11.3987 17.3047 11.0254 17.3882 10.6484 17.3984L9.89844 17.4141C9.48208 17.4247 8.99762 17.3211 8.50781 17.1719L7.875 16.9688C7.38314 16.9059 7 16.5089 7 16C7 15.4477 7.44772 15 8 15H8.25L8.39062 15.0469L9.09375 15.2578C9.53427 15.3919 9.76888 15.4163 9.85156 15.4141L10.6016 15.3984C10.7231 15.3947 10.8535 15.3631 11 15.3047L11.75 15.0078C12.0847 14.8738 12.4341 14.7883 12.7891 14.7578L13.5391 14.6953C13.8818 14.6659 14.2237 14.6848 14.5625 14.75L15.3125 14.8906C15.4936 14.9256 15.6743 14.9417 15.8516 14.9375L16.6016 14.9219C16.921 14.9143 17.2386 14.9414 17.5547 15L17.9297 15.0703L18.3047 15.1328C18.4397 15.1579 18.577 15.1632 18.7109 15.1406L19.4609 15.0156C19.9126 14.9398 20.3534 15.004 20.7656 15.1797L21.5156 15.4922L21.5234 15.5L22.2734 15.2188C22.5101 15.1301 22.6984 15.0553 22.8359 14.9922L23.3359 14.7578L23.5625 14.6719C23.6646 14.6405 23.7881 14.6114 23.9219 14.6094Z" fill="#757575"/>
<path d="M23 19.9609L23.0781 20.3359C23.1244 20.4446 23.1859 20.5281 23.2344 20.5859C23.3264 20.6955 23.4206 20.7591 23.4688 20.7891C23.5648 20.8486 23.6515 20.876 23.6719 20.8828C23.7028 20.893 23.7256 20.9042 23.7344 20.9062H23.7188C23.6973 20.9032 23.6689 20.8949 23.6328 20.8906L23.3828 20.8594L23.1328 20.8359C22.9769 20.8175 22.7765 20.7967 22.5312 20.7734L21.7812 20.6953C21.6019 20.6783 21.4221 20.6822 21.2422 20.7031L20.8672 20.75L20.4922 20.7891C20.3404 20.8068 20.1788 20.8513 20.0078 20.9219L19.2578 21.2344C18.7061 21.4624 18.1315 21.4044 17.6328 21.125L17.2578 20.9141L16.9141 20.7188L16.6016 20.8438L16.2266 20.9844C15.9104 21.1027 15.5864 21.1828 15.2578 21.2266L14.8828 21.2734L14.5078 21.3281C14.0393 21.3904 13.588 21.2971 13.1797 21.0938L12.4297 20.7188C12.3421 20.675 12.2925 20.6758 12.2656 20.6797L11.5156 20.7891C11.3015 20.8204 11.0834 20.8672 10.8672 20.9219L10.1172 21.1094C9.6643 21.2232 9.13975 21.1864 8.63281 21.1016L8.03125 21H8C7.44772 21 7 20.5523 7 20C7 19.4477 7.44772 19 8 19H8.17969L8.26562 19.0156L8.96875 19.1328C9.39123 19.2032 9.58656 19.1836 9.63281 19.1719L10.0078 19.0781L10.3828 18.9766C10.6642 18.9055 10.9509 18.8538 11.2344 18.8125L11.9844 18.7031C12.4562 18.6351 12.9089 18.7246 13.3203 18.9297L14.0703 19.3047C14.1605 19.3496 14.2112 19.3477 14.2422 19.3438L14.6172 19.2969L14.9922 19.2422C15.1628 19.2195 15.3404 19.1778 15.5234 19.1094L16.2734 18.8281C16.6833 18.6746 17.0983 18.6738 17.4844 18.7969L17.8672 18.9609L18.2422 19.1719L18.5625 19.3594L18.8672 19.2266L19.2422 19.0703C19.5704 18.9347 19.9104 18.8454 20.2578 18.8047L20.6328 18.7656L21.0078 18.7188C21.3274 18.6814 21.6486 18.6806 21.9688 18.7109L22.3438 18.7422L22.7188 18.7812C22.9728 18.8053 23.1901 18.8228 23.3672 18.8438L23.8672 18.9062C23.9559 18.9168 24.0478 18.9306 24.125 18.9453C24.1571 18.9514 24.224 18.9604 24.2969 18.9844C24.3276 18.9946 24.4222 19.031 24.5234 19.0938C24.5741 19.1253 24.672 19.193 24.7656 19.3047C24.8629 19.4214 24.9997 19.6395 25 19.9453V20.6719L24.5 20.8438C24.3507 20.9324 24.1862 21 24 21H23.8984L23.7188 19.9609H23Z" fill="#757575"/>
</svg>
