<svg width="19" height="19" viewBox="0 0 19 19" fill="none" xmlns="http://www.w3.org/2000/svg">
<path d="M8.93533 16.793C9.11447 16.9037 9.18052 16.963 9.13349 16.9709L8.99238 16.9949C8.94535 17.0028 8.98621 17.0364 9.11497 17.0955L9.50124 17.2727C9.62999 17.3318 9.77874 17.3015 9.94747 17.1817L10.4537 16.8223C10.6224 16.7025 10.7856 16.5759 10.9433 16.4424L11.4163 16.0421C11.5739 15.9087 11.7299 15.7722 11.8843 15.6325L12.3475 15.2136C12.5019 15.074 12.6426 14.9221 12.7696 14.7579L13.1505 14.2654C13.2775 14.1012 13.3839 13.9224 13.4698 13.7291L13.7274 13.1491C13.8133 12.9557 13.9636 12.8063 14.1784 12.7008L14.8228 12.3842C15.0376 12.2787 15.2018 12.1374 15.3155 11.9602L15.6565 11.4286C15.7702 11.2514 15.8239 11.0418 15.8178 10.7999L15.7995 10.0742C15.7934 9.83233 15.826 9.61512 15.8972 9.4226L16.1108 8.84503C16.182 8.65251 16.3196 8.48688 16.5236 8.34814L17.1355 7.93193C17.3395 7.79319 17.4059 7.60243 17.3348 7.35965L17.1216 6.63131C17.0505 6.38854 17.0916 6.1806 17.2449 6.00749L17.7049 5.48819C17.8582 5.31508 17.9505 5.12479 17.9816 4.91732L18.0751 4.29488C18.1062 4.0874 18.0643 3.89706 17.9495 3.72384L17.6048 3.20419C17.4899 3.03097 17.3879 2.84996 17.2987 2.66116L17.0312 2.09473C16.942 1.90593 16.82 1.7323 16.6653 1.57385L16.2012 1.09851C16.0465 0.940064 15.8547 0.902974 15.6258 0.987242L14.9391 1.24004C14.7103 1.32431 14.4963 1.31669 14.2972 1.21717L13.6999 0.918611C13.5008 0.819092 13.3013 0.802786 13.1015 0.869692L12.5019 1.07041C12.302 1.13732 12.1685 1.26942 12.1014 1.46671L11.9 2.0586C11.8329 2.25589 11.713 2.42834 11.5403 2.57594L11.0225 3.01874C10.8498 3.16634 10.7389 3.34202 10.6896 3.54578L10.5419 4.15705C10.4926 4.36081 10.4296 4.55698 10.3527 4.74557L10.1221 5.31134C10.0452 5.49993 10.007 5.54601 10.0075 5.44958L10.0088 5.16028C10.0092 5.06384 9.89554 4.95719 9.66772 4.84031L8.98425 4.48969C8.75643 4.37281 8.63595 4.19615 8.62282 3.95969L8.58344 3.25031C8.57031 3.01386 8.47638 2.83169 8.30167 2.7038L7.77754 2.32016C7.60283 2.19228 7.43503 2.04144 7.27414 1.86764L6.79149 1.34625C6.6306 1.17245 6.43492 1.1382 6.20444 1.2435L5.513 1.5594C5.28252 1.6647 5.06083 1.64765 4.84794 1.50825L4.20925 1.09006C3.99635 0.950658 3.79133 0.947326 3.59418 1.08006L3.00274 1.47826C2.80559 1.61099 2.6562 1.7729 2.55455 1.96399L2.2496 2.53726C2.14795 2.72835 2.06849 2.92394 2.01123 3.12401L1.83945 3.72424C1.78219 3.92432 1.67471 4.10982 1.51702 4.28074L1.04396 4.79351C0.886268 4.96443 0.815478 5.16062 0.831585 5.38208L0.879907 6.04645C0.896014 6.26791 0.896308 6.4911 0.880788 6.71603L0.834228 7.39081C0.818709 7.61574 0.911607 7.79948 1.11292 7.94205L1.71687 8.36975C1.91819 8.51232 2.02916 8.69612 2.04978 8.92114L2.11166 9.59622C2.13228 9.82125 2.19509 10.0258 2.30007 10.2099L2.61502 10.762C2.72 10.9461 2.86199 11.0994 3.041 11.2218L3.57803 11.5892C3.75704 11.7117 3.91622 11.8496 4.05557 12.0029L4.47363 12.4629C4.61298 12.6162 4.73359 12.7889 4.83546 12.9808L5.14107 13.5568C5.24294 13.7488 5.38008 13.9054 5.55249 14.0265L6.06973 14.3898C6.24214 14.5109 6.43087 14.6136 6.63591 14.6979L7.25102 14.9507C7.45605 15.0349 7.60612 15.1786 7.70122 15.3816L7.98652 15.9906C8.08162 16.1936 8.21874 16.3504 8.39789 16.4611L8.93533 16.793Z" stroke="black" stroke-width="1.65874" stroke-linecap="round"/>
</svg>
