<svg width="40" height="40" viewBox="0 0 40 40" fill="none" xmlns="http://www.w3.org/2000/svg">
<path d="M23.0312 5.30078L23.6406 5.73438L24.5547 6.625C24.6469 6.7145 24.7427 6.76553 24.8711 6.78906L25.5039 6.90625L26.125 7.02344C26.5874 7.10817 27.0984 7.31921 27.4844 7.77344C27.675 7.99791 27.799 8.2445 27.8828 8.48828L28.0234 9.20312L28.0469 9.85938L28.082 10.5273C28.0975 10.8421 28.1592 11.048 28.2109 11.1719L28.6094 12.1328C28.7727 12.5238 28.9081 12.9367 29.0195 13.3633L29.1602 13.9023L29.3008 14.4531C29.4345 14.9651 29.4898 15.4942 29.4648 16.0234L29.4414 16.5859L29.418 17.1602C29.3863 17.8164 29.1713 18.4349 28.7969 18.9766L28.4805 19.4336L28.1523 19.9023C27.9385 20.2118 27.7246 20.5252 27.5078 20.8398L27.1797 21.3086L26.8633 21.7891C26.3504 22.5336 25.5655 22.8982 24.7305 22.9375L24.0977 22.9727L23.6523 22.9844L23.4531 23.3594L23.1367 23.9102C22.8238 24.4614 22.4039 24.928 21.8945 25.3047L21.3672 25.6914L21.0273 25.9375L21.0742 26.3125L21.1562 26.9336C21.1761 27.0987 21.1941 27.2262 21.2148 27.3203C21.2346 27.4089 21.2477 27.4549 21.25 27.4609L21.3906 27.7773L21.5195 28.0938C21.5714 28.2164 21.6855 28.498 21.707 28.8203C21.7166 28.9718 21.732 29.3907 21.4609 29.8047C21.1163 30.3305 20.5673 30.4961 20.1602 30.4961H19.7148L19.6445 30.4609C19.3941 30.4314 19.1469 30.3636 18.9297 30.2031C18.3734 29.79 18.1951 29.0723 18.4375 28.457C18.3072 28.0903 18.2273 27.6827 18.1797 27.2852L18.0977 26.6641L18.0273 26.0547C17.9109 25.082 18.3105 24.225 19.0703 23.6641L19.5859 23.2773L20.1133 22.8906C20.2922 22.7578 20.4238 22.6081 20.5234 22.4336L20.8398 21.8828L21.1445 21.332C21.6073 20.5176 22.3938 20.0408 23.3242 19.9961L23.957 19.9727L24.4844 19.9375L24.7188 19.6094L25.0352 19.1406C25.2525 18.8252 25.4769 18.5134 25.6914 18.2031L26.0078 17.7344L26.3359 17.2656C26.388 17.1896 26.4127 17.1166 26.418 17.0195L26.4414 16.4453L26.4648 15.8828C26.4756 15.6551 26.462 15.4299 26.4062 15.2148L26.2539 14.6641L26.1133 14.125C26.0349 13.8247 25.9483 13.5437 25.8438 13.293L25.6328 12.8125L25.4336 12.332C25.2174 11.8145 25.1221 11.2496 25.0938 10.6797L25.0586 10.0117L25.0469 9.87109L24.9648 9.85938L24.332 9.74219C23.6217 9.61202 22.9875 9.28416 22.4688 8.78125L22.0117 8.33594L21.918 8.25391L21.7773 8.34766L21.2031 8.69922C20.4681 9.15001 19.6206 9.27635 18.7773 9.01562L18.1562 8.82812L17.6523 8.67578L17.3242 8.93359L16.8555 9.29688C16.7243 9.39866 16.6438 9.51085 16.5859 9.63672L16.0938 10.6914C15.8736 11.1699 15.5933 11.6158 15.25 12.0156L14.875 12.4492L14.4883 12.8945C14.575 12.7936 14.5683 12.7465 14.5469 12.8477C14.5264 12.9473 14.511 13.1333 14.5234 13.4219L14.5703 14.5352L14.5938 15.1914L14.0664 15.7188C13.4867 16.3099 12.537 16.3215 11.9453 15.7422C11.5688 15.3709 11.4581 14.8534 11.5586 14.3711L11.5234 13.5508C11.4882 12.7316 11.5676 11.6914 12.2148 10.9375L12.5898 10.5039L12.9766 10.0586C13.1387 9.86961 13.2717 9.66227 13.375 9.4375L13.6094 8.91016L13.8555 8.38281C14.1208 7.80531 14.5165 7.31745 15.0156 6.92969L15.4961 6.55469L15.9648 6.19141L16.5391 5.85156C16.9408 5.67616 17.3668 5.60553 17.793 5.64062L18.4258 5.76953L19.0469 5.95703L19.6328 6.14453L20.7812 5.44141L21.4375 5.14844C21.6831 5.07931 21.9571 5.05225 22.2461 5.07812C22.5375 5.10476 22.7995 5.18416 23.0312 5.30078Z" fill="black"/>
<circle cx="19.5" cy="33.5" r="1.5" fill="black"/>
</svg>
