<svg width="40" height="40" viewBox="0 0 40 40" fill="none" xmlns="http://www.w3.org/2000/svg">
<path d="M17.0004 15.3C16.7004 15.3 16.4004 15.6 16.4004 15.9V20.4C16.4004 20.7 16.7004 21 17.0004 21C17.3004 21 17.6004 20.7 17.6004 20.4V15.9C17.6004 15.6 17.3004 15.3 17.0004 15.3Z" fill="white"/>
<path d="M22.3 15.3C22 15.3 21.7 15.6 21.7 15.9V18.6L19.6 15.7C19.5 15.5 19.2 15.4 18.9 15.5C18.7 15.6 18.5 15.8 18.5 16.1V20.5C18.5 20.8 18.8 21.1 19.1 21.1C19.4 21.1 19.7 20.8 19.7 20.5V17.9L21.8 20.8C21.9 21 22.1 21 22.3 21C22.4 21 22.4 21 22.5 21C22.7 20.9 22.9 20.7 22.9 20.4V15.9C22.8 15.6 22.6 15.3 22.3 15.3Z" fill="white"/>
<path d="M15.3 19.8H13.7V15.9C13.7 15.6 13.4 15.3 13.1 15.3C12.8 15.3 12.5 15.6 12.5 15.9V20.4C12.5 20.7 12.8 21 13.1 21H15.2C15.5 21 15.8 20.7 15.8 20.4C15.8 20.1 15.7 19.8 15.3 19.8Z" fill="white"/>
<path d="M27.0996 19.6999H24.7996V18.5999H26.5996C26.8996 18.5999 27.1996 18.2999 27.1996 17.9999C27.1996 17.6999 26.8996 17.3999 26.5996 17.3999H24.7996V16.2999H26.9996C27.2996 16.2999 27.5996 15.9999 27.5996 15.6999C27.5996 15.3999 27.2996 15.0999 26.9996 15.0999H24.1996C23.8996 15.0999 23.5996 15.3999 23.5996 15.6999V17.8999V20.0999C23.5996 20.3999 23.8996 20.6999 24.1996 20.6999H27.0996C27.3996 20.6999 27.6996 20.3999 27.6996 20.0999C27.6996 19.7999 27.3996 19.6999 27.0996 19.6999Z" fill="white"/>
<path d="M20 0C9 0 0 9 0 20C0 31 9 40 20 40C31 40 40 31 40 20C40 9 31 0 20 0ZM30.3 24.3C28.7 26.3 21.7 31 20.1 32C19.4 32.4 18.6 31.9 18.6 31.1V28.7C14.7 28.5 7.7 25.1 7.7 18.3C7.7 11.3 14.7 7.9 20.1 7.9C25.9 7.9 32.5 11.7 32.5 18.3C32.4 20.1 31.9 22.3 30.3 24.3Z" fill="white"/>
</svg>
