<svg width="40" height="40" viewBox="0 0 40 40" fill="none" xmlns="http://www.w3.org/2000/svg">
<path d="M20 0C31.0457 0 40 8.9543 40 20C40 31.0457 31.0457 40 20 40C8.9543 40 0 31.0457 0 20C0 8.9543 8.9543 0 20 0ZM17.168 21.3428L8 32H10.0713L18.0879 22.6816L24.4912 32H31.4834L21.9756 18.1621L30.7188 8H28.6465L21.0557 16.8242L14.9932 8H8L17.168 21.3428ZM19.9648 18.0918L20.8945 19.4209L28.6475 30.5117H25.4658L19.1387 21.4609L18.21 20.1318L10.8184 9.55957H14L19.9648 18.0918Z" fill="white"/>
</svg>
