<svg width="96" height="80" viewBox="0 0 96 80" fill="none" xmlns="http://www.w3.org/2000/svg">
<path d="M24.6221 46.2122L24.6262 46.9992L24.8786 47.7106L24.9073 48.4517L24.9512 49.1907L25.2047 49.9031L25.1556 50.6534L25.3417 51.374L25.4776 52.1018L25.5216 52.8398L25.6831 53.5634L25.6381 54.3137L25.9059 55.0231L25.9672 55.759L26.144 56.4806L25.9774 57.2472L26.0377 57.9842L26.1768 58.7109L26.3945 59.4264L26.5877 60.1471L26.4936 60.9034L26.559 61.6394L26.8432 62.3477L26.9515 63.0786L26.9914 63.8186L27.1498 64.5423L27.1672 65.2854L27.1263 66.0356L27.298 66.7583L27.3369 67.4983L27.665 68.2005L27.5423 68.961L27.6333 69.6939L27.7917 70.4186L27.9931 71.1371L28.0585 71.8741L28.2129 72.5998L28.1475 73.391L28.9151 73.4543L29.6459 73.3245L30.3757 73.4973L31.1066 73.3092L31.8374 73.253L32.5682 73.4789L33.299 73.3133L34.0299 73.1988L34.7607 73.4738L35.4915 73.4523L36.2224 73.3838L36.9532 73.2918L37.684 73.302L38.4149 73.2223L39.1457 73.3061L39.8765 73.2611L40.6074 73.3787L41.3382 73.3501L42.069 73.3511L42.7999 73.3153L43.5307 73.4247L44.2615 73.3654L44.9924 73.4829L45.7232 73.394L46.453 73.2683L47.1838 73.4625L47.9147 73.4564L48.6455 73.4441L49.3763 73.3654L50.1072 73.4983L50.838 73.4186L51.5688 73.3153L52.2997 73.2652H53.0305L53.7613 73.348L54.4922 73.4226L55.223 73.3L55.9548 73.2877L56.6857 73.2152L57.4165 73.4738L58.1484 73.3644L58.8792 73.3398L59.611 73.4083L60.3419 73.4738L61.0727 73.4369L61.8035 73.4584L62.5354 73.3327L63.2662 73.3889L63.9971 73.3991L64.7289 73.4308L65.4608 73.254L66.1139 73.2601L66.3684 72.6274L66.4093 71.8874L66.4298 71.1453L66.5483 70.4155L66.7609 69.699L66.6516 68.9385L66.947 68.2322L67.0052 67.4952L67.1473 66.7685L67.2822 66.0417L67.1872 65.2843L67.4243 64.5699L67.4356 63.8268L67.5797 63.101L67.7749 62.3815L67.688 61.624L67.9129 60.9085L67.9548 60.1695L68.0202 59.4326L68.286 58.7222L68.2574 57.973L68.4444 57.2523L68.3739 56.498L68.6478 55.7886L68.5436 55.0292L68.6805 54.3014L68.8625 53.5798L68.934 52.8438L69.1384 52.1253L69.0168 51.3638L69.1436 50.635L69.4318 49.9277L69.2907 49.1631L69.6086 48.4599L69.6107 47.7137L69.7405 46.9849L69.8437 46.2377L69.0894 46.3011L68.3493 46.1999L67.6093 46.2735L66.8693 46.3175L66.1293 46.2561L65.3892 46.3502L64.6492 46.3951L63.9081 46.203L63.1681 46.1049L62.4281 46.204L61.688 46.3246L60.948 46.2725L60.208 46.2357L59.4669 46.2326L58.7269 46.3348L57.9869 46.3481L57.2468 46.158L56.5058 46.1365L55.7657 46.1089L55.0257 46.3502L54.2847 46.1917L53.5446 46.298L52.8046 46.3042L52.0646 46.3123L51.3235 46.2214L50.5835 46.1325L49.8424 46.1846L49.1024 46.251L48.3624 46.2786L47.6213 46.3767L46.8813 46.1304L46.1412 46.2551L45.4012 46.2101L44.6612 46.2234L43.9212 46.2204L43.1801 46.3716L42.4401 46.1181L41.7 46.3144L40.96 46.3563L40.22 46.3461L39.4789 46.3675L38.7389 46.3859L37.9978 46.1437L37.2578 46.3287L36.5178 46.3849L35.7767 46.1059L35.0367 46.342L34.2956 46.1488L33.5546 46.2684L32.8145 46.1652L32.0735 46.1059L31.3324 46.1202L30.5924 46.1345L29.8514 46.2336L29.1113 46.3982L28.3703 46.343L27.6292 46.3011L26.8882 46.3256L26.1471 46.1733L25.405 46.2623L24.6221 46.2122Z" fill="#76EECC"/>
<path d="M24.6221 46.2122L24.6262 46.9992L24.8786 47.7106L24.9073 48.4517L24.9512 49.1907L25.2047 49.9031L25.1556 50.6534L25.3417 51.374L25.4776 52.1018L25.5216 52.8398L25.6831 53.5634L25.6381 54.3137L25.9059 55.0231L25.9672 55.759L26.144 56.4806L25.9774 57.2472L26.0377 57.9842L26.1768 58.7109L26.3945 59.4264L26.5877 60.1471L26.4936 60.9034L26.559 61.6394L26.8432 62.3477L26.9515 63.0786L26.9914 63.8186L27.1498 64.5423L27.1672 65.2854L27.1263 66.0356L27.298 66.7583L27.3369 67.4983L27.665 68.2005L27.5423 68.961L27.6333 69.6939L27.7917 70.4186L27.9931 71.1371L28.0585 71.8741L28.2129 72.5998L28.1475 73.391L28.9151 73.4543L29.6459 73.3245L30.3757 73.4973L31.1066 73.3092L31.8374 73.253L32.5682 73.4789L33.299 73.3133L34.0299 73.1988L34.7607 73.4738L35.4915 73.4523L36.2224 73.3838L36.9532 73.2918L37.684 73.302L38.4149 73.2223L39.1457 73.3061L39.8765 73.2611L40.6074 73.3787L41.3382 73.3501L42.069 73.3511L42.7999 73.3153L43.5307 73.4247L44.2615 73.3654L44.9924 73.4829L45.7232 73.394L46.453 73.2683L47.1838 73.4625L47.9147 73.4564L48.6455 73.4441L49.3763 73.3654L50.1072 73.4983L50.838 73.4186L51.5688 73.3153L52.2997 73.2652H53.0305L53.7613 73.348L54.4922 73.4226L55.223 73.3L55.9548 73.2877L56.6857 73.2152L57.4165 73.4738L58.1484 73.3644L58.8792 73.3398L59.6111 73.4083L60.3419 73.4738L61.0727 73.4369L61.8035 73.4584L62.5354 73.3327L63.2662 73.3889L63.9971 73.3991L64.7289 73.4308L65.4608 73.254L66.1139 73.2601L66.3684 72.6274L66.4093 71.8874L66.4298 71.1453L66.5483 70.4155L66.7609 69.699L66.6516 68.9385L66.947 68.2322L67.0052 67.4952L67.1473 66.7685L67.2822 66.0417L67.1872 65.2843L67.4243 64.5699L67.4356 63.8268L67.5797 63.101L67.7749 62.3815L67.688 61.624L67.9129 60.9085L67.9548 60.1695L68.0202 59.4326L68.286 58.7222L68.2574 57.973L68.4444 57.2523L68.3739 56.498L68.6478 55.7886L68.5436 55.0292L68.6805 54.3014L68.8625 53.5798L68.934 52.8438L69.1384 52.1253L69.0168 51.3638L69.1436 50.635L69.4318 49.9277L69.2907 49.1631L69.6086 48.4599L69.6107 47.7137L69.7405 46.9849L69.8437 46.2377L69.0894 46.3011L68.3493 46.1999L67.6093 46.2735L66.8693 46.3175L66.1293 46.2561L65.3892 46.3502L64.6492 46.3951L63.9081 46.203L63.1681 46.1049L62.4281 46.204L61.688 46.3246L60.948 46.2725L60.208 46.2357L59.4669 46.2326L58.7269 46.3348L57.9869 46.3481L57.2468 46.158L56.5058 46.1365L55.7657 46.1089L55.0257 46.3502L54.2847 46.1917L53.5446 46.298L52.8046 46.3042L52.0646 46.3123L51.3235 46.2214L50.5835 46.1325L49.8424 46.1846L49.1024 46.251L48.3624 46.2786L47.6213 46.3767L46.8813 46.1304L46.1412 46.2551L45.4012 46.2101L44.6612 46.2234L43.9212 46.2204L43.1801 46.3716L42.4401 46.1181L41.7 46.3144L40.96 46.3563L40.22 46.3461L39.4789 46.3675L38.7389 46.3859L37.9978 46.1437L37.2578 46.3287L36.5178 46.3849L35.7767 46.1059L35.0367 46.342L34.2956 46.1488L33.5546 46.2684L32.8145 46.1652L32.0735 46.1059L31.3324 46.1202L30.5924 46.1345L29.8514 46.2336L29.1113 46.3982L28.3703 46.343L27.6292 46.3011L26.8882 46.3256L26.1471 46.1733L25.405 46.2623L24.6221 46.2122Z" stroke="black" stroke-width="1.5" stroke-linecap="round" stroke-linejoin="round"/>
<path d="M44.3535 24.137L43.6687 24.4242L42.9307 24.5428L42.2551 24.8535L41.515 24.9711L40.8813 25.3206L40.8956 26.0402L41.0714 26.77L41.1798 27.507L41.0714 28.2675L41.1031 29.0136L41.2922 29.7414L41.4302 30.4753L41.4169 31.2266L41.7225 31.941L41.7828 32.6841L41.7675 33.4344L41.8217 34.1775L42.0097 34.9063L41.8953 35.6678L42.1753 36.3863L42.112 37.1437L42.2377 37.8674L42.9706 37.7877L43.6585 37.434L44.4077 37.3737L45.1579 37.3226L45.8785 37.1223L46.6227 37.0436L47.3351 36.8085L48.069 36.6746L48.8203 36.6266L49.5174 36.3179L50.2472 36.1676L50.9821 36.0378L51.6925 35.7925L52.41 35.7179L52.4366 35.0116L52.2066 34.2971L52.1657 33.5673L52.0482 32.8426L52.1596 32.0995L52.0247 31.3768L52.1535 30.6317L51.8346 29.9254L51.8898 29.1864L51.7835 28.4617L51.6056 27.7431L51.5443 27.0143L51.6434 26.2712L51.4472 25.5537L51.4513 24.8188L51.533 23.9806L50.7276 24.0583L50.0203 24.0869L49.3119 24.0716L48.6046 24.1196L47.8973 24.2443L47.1879 24.0654L46.4816 24.1452L45.7712 23.9939L45.0639 24.1022L44.3535 24.137Z" fill="#1AD39E"/>
<path d="M44.3535 24.137L43.6687 24.4242L42.9307 24.5428L42.2551 24.8535L41.515 24.9711L40.8813 25.3206L40.8956 26.0402L41.0714 26.77L41.1798 27.507L41.0714 28.2675L41.1031 29.0136L41.2922 29.7414L41.4302 30.4753L41.4169 31.2266L41.7225 31.941L41.7828 32.6841L41.7675 33.4344L41.8217 34.1775L42.0097 34.9063L41.8953 35.6678L42.1753 36.3863L42.112 37.1437L42.2377 37.8674L42.9706 37.7877L43.6585 37.434L44.4077 37.3737L45.1579 37.3226L45.8785 37.1223L46.6227 37.0436L47.3351 36.8085L48.069 36.6746L48.8203 36.6266L49.5174 36.3179L50.2472 36.1676L50.9821 36.0378L51.6925 35.7925L52.41 35.7179L52.4366 35.0116L52.2066 34.2971L52.1657 33.5673L52.0482 32.8426L52.1596 32.0995L52.0247 31.3768L52.1535 30.6317L51.8346 29.9254L51.8898 29.1864L51.7835 28.4617L51.6056 27.7431L51.5443 27.0143L51.6434 26.2712L51.4472 25.5537L51.4513 24.8188L51.533 23.9806L50.7276 24.0583L50.0203 24.0869L49.3119 24.0716L48.6046 24.1196L47.8973 24.2443L47.1879 24.0654L46.4816 24.1452L45.7712 23.9939L45.0639 24.1022L44.3535 24.137Z" stroke="black" stroke-width="1.5" stroke-linecap="round" stroke-linejoin="round"/>
<path d="M56.3833 6.50183L55.9621 7.11716L55.402 7.64562L55.1444 8.36316L54.7151 8.97338L54.2684 9.57337L53.8954 10.2183L53.4988 10.849L53.093 11.4746L52.8099 12.1757L52.217 12.6827L52.0116 13.433L51.5444 14.0197L51.2388 14.7076L50.8197 15.324L50.2729 15.8616L49.91 16.5127L49.4715 17.1188L49.1506 17.7975L48.6068 18.467L49.3744 18.7992L50.045 19.0721L50.6828 19.4125L51.3165 19.7611L51.9533 20.1025L52.6586 20.3079L53.2811 20.679L53.971 20.913L54.5506 21.373L55.2313 21.6255L55.9131 21.879L56.4753 22.3737L57.1611 22.4963L57.5781 21.975L58.2272 21.5866L58.6943 21.0377L59.0664 20.404L59.5918 19.9062L59.9301 19.2439L60.4575 18.7471L60.9921 18.2565L61.4817 17.727L61.9437 17.173L62.5141 16.7141L63.0139 16.1938L63.2909 15.4773L63.7672 14.9366L64.3458 14.4848L64.7413 13.8715L65.2136 13.3267L65.6776 12.7737L66.3594 12.4139L66.6619 11.7178L67.2762 11.2967L67.5706 10.5935" fill="#FBF8F4"/>
<path d="M56.3833 6.50183L55.9621 7.11716L55.402 7.64562L55.1444 8.36316L54.7151 8.97338L54.2684 9.57338L53.8954 10.2183L53.4988 10.849L53.093 11.4746L52.8099 12.1757L52.217 12.6827L52.0116 13.433L51.5444 14.0197L51.2388 14.7076L50.8197 15.324L50.2729 15.8616L49.91 16.5127L49.4715 17.1188L49.1506 17.7975L48.6068 18.467L49.3744 18.7992L50.045 19.0721L50.6828 19.4125L51.3165 19.7611L51.9533 20.1025L52.6586 20.3079L53.2811 20.679L53.971 20.913L54.5506 21.373L55.2313 21.6255L55.9131 21.879L56.4753 22.3737L57.1611 22.4963L57.5781 21.975L58.2272 21.5866L58.6943 21.0377L59.0664 20.404L59.5918 19.9062L59.9301 19.2439L60.4575 18.7471L60.9921 18.2565L61.4817 17.727L61.9437 17.173L62.5141 16.7141L63.0139 16.1938L63.2909 15.4773L63.7672 14.9366L64.3458 14.4848L64.7413 13.8715L65.2136 13.3267L65.6776 12.7737L66.3594 12.4139L66.6619 11.7178L67.2762 11.2967L67.5706 10.5935" stroke="black" stroke-width="1.5" stroke-linecap="round" stroke-linejoin="round"/>
<path d="M48.7499 18.4343L48.0722 18.7829L47.4231 19.1856L46.7189 19.5137L46.0709 19.9471L45.6835 20.6452L45.1734 21.2115L44.6797 21.8207L44.5755 22.6016L44.2535 23.2803L44.4477 24.0111L44.4375 24.7317L44.5029 25.4667L44.9168 26.082L45.2746 26.7014L45.7274 27.2493L46.2252 27.7573L46.8743 28.02L47.5468 28.3144L48.1887 27.8145L48.1928 27.0193L48.1785 26.2415L48.0487 25.4636L47.9577 24.6684L47.6613 23.7914L48.4637 23.8077L49.1996 24.0173L49.9478 23.9662L50.6858 24.1573L51.48 24.0398L51.4903 24.8483L51.4831 25.6159L51.6293 26.3713L51.8613 27.1174L51.6415 27.9055L51.9615 28.6445L51.985 29.4111L52.0923 30.1696L52.0851 30.9392L52.0545 31.7406L52.8262 31.3982L53.3444 30.8391L53.8013 30.2421L54.4381 29.8067L54.8684 29.1873L55.2783 28.5546L55.5931 27.8697L55.8538 27.1655L56.2289 26.496L56.3608 25.7508L56.4027 24.9137L56.6756 24.142L56.878 23.3488L57.0456 22.6353L56.5642 22.1968L55.8609 21.9873L55.2609 21.5713L54.524 21.4333L53.9342 20.9958L53.2565 20.7362L52.585 20.4633L51.9911 20.034L51.2889 19.8224L50.6633 19.4575L50.0317 19.1059L49.4102 18.7287L48.7499 18.4343Z" fill="#FBF8F4"/>
<path d="M48.7499 18.4343L48.0722 18.7829L47.4231 19.1856L46.7189 19.5137L46.0709 19.9471L45.6835 20.6452L45.1734 21.2115L44.6797 21.8207L44.5755 22.6016L44.2535 23.2803L44.4477 24.0111L44.4375 24.7317L44.5029 25.4667L44.9168 26.082L45.2746 26.7014L45.7274 27.2493L46.2252 27.7573L46.8743 28.02L47.5468 28.3144L48.1887 27.8145L48.1928 27.0193L48.1785 26.2415L48.0487 25.4636L47.9577 24.6684L47.6613 23.7914L48.4637 23.8077L49.1996 24.0173L49.9478 23.9662L50.6858 24.1573L51.48 24.0398L51.4903 24.8483L51.4831 25.6159L51.6293 26.3713L51.8613 27.1174L51.6415 27.9055L51.9615 28.6445L51.985 29.4111L52.0923 30.1696L52.0851 30.9392L52.0545 31.7406L52.8262 31.3982L53.3444 30.8391L53.8013 30.2421L54.4381 29.8067L54.8684 29.1873L55.2783 28.5546L55.5931 27.8697L55.8538 27.1655L56.2289 26.496L56.3608 25.7508L56.4027 24.9137L56.6756 24.142L56.878 23.3488L57.0456 22.6353L56.5642 22.1968L55.8609 21.9873L55.2609 21.5713L54.524 21.4333L53.9342 20.9958L53.2565 20.7362L52.585 20.4633L51.9911 20.034L51.2889 19.8224L50.6633 19.4575L50.0317 19.1059L49.4102 18.7287L48.7499 18.4343Z" stroke="black" stroke-width="1.5" stroke-linecap="round" stroke-linejoin="round"/>
<path d="M42.0896 37.8776L42.9656 37.8991L43.7025 37.7488L44.4395 37.8183L45.1765 38.0289L45.9134 37.9195L46.6504 37.9584L47.3874 38.0125L48.1243 37.8592L48.8613 37.94L49.5972 37.8285L50.3352 37.8684L51.0732 38.0044L51.8 37.8715L51.6119 37.248L51.3185 36.6521L51.0896 36.0562L50.3914 36.3066L49.6115 36.2677L48.9032 36.5703L48.1713 36.7635L47.3884 36.7083L46.6535 36.8841L45.9206 37.0691L45.1969 37.2991L44.4763 37.5464L43.7363 37.6998L42.9605 37.6793L42.0896 37.8776Z" fill="#FBF8F4"/>
<path d="M42.0896 37.8776L42.9656 37.8991L43.7025 37.7488L44.4395 37.8183L45.1765 38.0289L45.9134 37.9195L46.6504 37.9584L47.3874 38.0125L48.1243 37.8592L48.8613 37.94L49.5972 37.8285L50.3352 37.8684L51.0732 38.0044L51.8 37.8715L51.6119 37.248L51.3185 36.6521L51.0896 36.0562L50.3914 36.3066L49.6115 36.2677L48.9032 36.5703L48.1713 36.7635L47.3884 36.7083L46.6535 36.8841L45.9206 37.0691L45.1969 37.2991L44.4763 37.5464L43.7363 37.6998L42.9605 37.6793L42.0896 37.8776Z" stroke="black" stroke-width="1.5" stroke-linecap="round" stroke-linejoin="round"/>
<path d="M47.982 42.7563L48.7139 42.743L49.4457 42.6337L50.1776 42.694L50.9084 42.5744L51.6403 42.6633L52.3721 42.555L53.104 42.7001L53.8358 42.6511L54.5677 42.5315L55.2995 42.739L56.0314 42.512L56.7632 42.6817L57.4951 42.5182L58.228 42.5315L58.9598 42.647L59.6917 42.4896L60.4235 42.6582L61.1564 42.74L61.8883 42.509L62.6201 42.7308L63.353 42.4885L64.0849 42.6245L64.8167 42.5437L65.5496 42.7134L66.2814 42.5601L67.0143 42.6735L67.7462 42.5417L68.479 42.5131L69.2119 42.6306L69.9847 42.5039L70.4824 42.9567L70.832 43.4964L71.3288 43.8664L71.9881 44.2558L72.4787 44.8303L72.8896 45.4773L73 46.3134L72.2405 46.1396L71.5056 46.2786L70.7707 46.1458L70.0358 46.2694L69.3009 46.2899L68.5659 46.1918L67.831 46.4033L67.0971 46.3972L66.3622 46.156L65.6273 46.2224L64.8924 46.3696L64.1574 46.2705L63.4225 46.2715L62.6876 46.1969L61.9527 46.3655L61.2177 46.2429L60.4828 46.3338L59.7479 46.2674L59.013 46.3941L58.2781 46.1999L57.5421 46.1826L56.8072 46.1366L56.0723 46.1396L55.3363 46.156L54.6014 46.2347L53.8665 46.109L53.1305 46.2674L52.3956 46.3911L51.6607 46.203L50.9248 46.1785L50.1898 46.2838L49.4549 46.1509L48.718 46.3533L47.982 46.2654L47.2471 46.3236L46.5122 46.2827L45.7773 46.1478L45.0423 46.2868L44.3074 46.2878L43.5725 46.2418L42.8386 46.3676L42.1037 46.3849L41.3688 46.3205L40.6338 46.343L39.8989 46.1907L39.164 46.3195L38.4301 46.342L37.6941 46.3267L36.9592 46.204L36.2243 46.1999L35.4894 46.1683L34.7545 46.1969L34.0195 46.1049L33.2846 46.3073L32.5487 46.3972L31.8138 46.2357L31.0788 46.1999L30.3439 46.3686L29.608 46.3757L28.8731 46.3144L28.1381 46.3717L27.4022 46.3165L26.6673 46.1672L25.9324 46.3073L25.1974 46.0998L24.4615 46.1325L23.7255 46.3941L22.9998 46.2234L23.0683 45.4752L23.4516 44.8057L24.0434 44.3529L24.6424 43.8766L25.1392 43.5035L25.4785 42.9536L25.9763 42.4967L26.7511 42.5969L27.4829 42.5856L28.2138 42.7195L28.9456 42.603L29.6775 42.5632L30.4093 42.6705L31.1412 42.7155L31.873 42.6633L32.6049 42.6582L33.3367 42.602L34.0686 42.6735L34.8005 42.4609L35.5323 42.7625L36.2652 42.6184L36.997 42.4732L37.7289 42.4681L38.4608 42.7318L39.1936 42.7655L39.9255 42.6143L40.6573 42.6725L41.3902 42.7195L42.1221 42.5591L42.8539 42.6245L43.5868 42.5427L44.3187 42.4967L45.0515 42.4773L45.7834 42.557L46.5163 42.5713L47.2553 42.5499L47.982 42.7563Z" fill="#FBF8F4"/>
<path d="M47.982 42.7563L48.7139 42.743L49.4457 42.6337L50.1776 42.694L50.9084 42.5744L51.6403 42.6633L52.3721 42.555L53.104 42.7001L53.8358 42.6511L54.5677 42.5315L55.2995 42.739L56.0314 42.512L56.7632 42.6817L57.4951 42.5182L58.228 42.5315L58.9598 42.647L59.6917 42.4896L60.4235 42.6582L61.1564 42.74L61.8883 42.509L62.6201 42.7308L63.353 42.4885L64.0849 42.6245L64.8167 42.5437L65.5496 42.7134L66.2814 42.5601L67.0143 42.6735L67.7462 42.5417L68.4791 42.5131L69.2119 42.6306L69.9847 42.5039L70.4824 42.9567L70.832 43.4964L71.3288 43.8664L71.9881 44.2558L72.4787 44.8303L72.8896 45.4773L73 46.3134L72.2405 46.1396L71.5056 46.2786L70.7707 46.1458L70.0358 46.2694L69.3009 46.2899L68.5659 46.1918L67.831 46.4033L67.0971 46.3972L66.3622 46.156L65.6273 46.2224L64.8924 46.3696L64.1574 46.2705L63.4225 46.2715L62.6876 46.1969L61.9527 46.3655L61.2177 46.2429L60.4828 46.3338L59.7479 46.2674L59.013 46.3941L58.2781 46.1999L57.5421 46.1826L56.8072 46.1366L56.0723 46.1396L55.3363 46.156L54.6014 46.2347L53.8665 46.109L53.1305 46.2674L52.3956 46.3911L51.6607 46.203L50.9248 46.1785L50.1898 46.2838L49.4549 46.1509L48.718 46.3533L47.982 46.2654L47.2471 46.3236L46.5122 46.2827L45.7773 46.1478L45.0423 46.2868L44.3074 46.2878L43.5725 46.2418L42.8386 46.3676L42.1037 46.3849L41.3688 46.3205L40.6338 46.343L39.8989 46.1907L39.164 46.3195L38.4301 46.342L37.6941 46.3267L36.9592 46.204L36.2243 46.1999L35.4894 46.1683L34.7545 46.1969L34.0195 46.1049L33.2846 46.3073L32.5487 46.3972L31.8138 46.2357L31.0788 46.1999L30.3439 46.3686L29.608 46.3757L28.8731 46.3144L28.1381 46.3717L27.4022 46.3165L26.6673 46.1672L25.9324 46.3073L25.1974 46.0998L24.4615 46.1325L23.7255 46.3941L22.9998 46.2234L23.0683 45.4752L23.4516 44.8057L24.0434 44.3529L24.6424 43.8766L25.1392 43.5035L25.4785 42.9536L25.9763 42.4967L26.7511 42.5969L27.4829 42.5856L28.2138 42.7195L28.9456 42.603L29.6775 42.5632L30.4093 42.6705L31.1412 42.7155L31.873 42.6633L32.6049 42.6582L33.3367 42.602L34.0686 42.6735L34.8005 42.4609L35.5323 42.7625L36.2652 42.6184L36.997 42.4732L37.7289 42.4681L38.4608 42.7318L39.1936 42.7655L39.9255 42.6143L40.6573 42.6725L41.3902 42.7195L42.1221 42.5591L42.8539 42.6245L43.5868 42.5427L44.3187 42.4967L45.0515 42.4773L45.7834 42.557L46.5163 42.5713L47.2553 42.5499L47.982 42.7563Z" stroke="black" stroke-width="1.5" stroke-linecap="round" stroke-linejoin="round"/>
<path d="M39.8724 44.0349L40.6236 43.902L41.3759 43.81L42.1272 44.0339L42.8785 43.9685L43.6308 44.039L44.3821 43.8131L45.1344 43.8172L45.8856 43.9388L46.6379 43.7589L47.3902 44.041L48.1415 43.7896L48.8928 43.9082L49.6451 44.0553L50.3964 43.9511L51.1487 43.9868L51.9009 43.7834L52.6533 43.9705L53.4056 43.9225L54.1578 44.0277" fill="#FBF8F4"/>
<path d="M39.8724 44.0349L40.6236 43.902L41.3759 43.81L42.1272 44.0339L42.8785 43.9685L43.6308 44.039L44.3821 43.8131L45.1344 43.8172L45.8856 43.9388L46.6379 43.7589L47.3902 44.041L48.1415 43.7896L48.8928 43.9082L49.6451 44.0553L50.3964 43.9511L51.1487 43.9868L51.9009 43.7834L52.6533 43.9705L53.4056 43.9225L54.1578 44.0277" stroke="black" stroke-width="1.5" stroke-linecap="round" stroke-linejoin="round"/>
<path d="M60.4808 67.6823L59.7438 67.7702L59.0089 67.7436L58.274 67.5545L57.539 67.6986L56.8041 67.7405L56.0692 67.7467L55.3353 67.6526L54.6004 67.5616L53.8655 67.6966L53.1305 67.6301L52.3956 67.5586L51.6607 67.6945L50.9258 67.7477L50.1908 67.6107L49.4559 67.6117L48.721 67.533L47.9861 67.577L47.2512 67.808L46.5162 67.6056L45.7813 67.6363L45.0454 67.7518L44.3105 67.669L43.5755 67.6761L42.8396 67.7712L42.1047 67.6342L41.3698 67.672L40.6348 67.6087L39.8989 67.7988L39.164 67.7405L38.4291 67.6516L37.6931 67.6301L36.9582 67.6117L36.2212 67.7211L35.5619 67.6056L35.4393 66.93L35.4066 66.1807L35.3432 65.4295L35.6079 64.6792L35.5507 63.929L35.563 63.1787L35.424 62.4285L35.3953 61.6782L35.3718 60.9269L35.6161 60.1767L35.4904 59.4264L35.4485 58.6751L35.5068 57.9249L35.5548 57.1746L35.5231 56.4244L35.425 55.6741L35.6079 54.9229L35.5538 54.1716L35.4638 53.4213L35.5262 52.6701L35.473 51.9055L36.2202 51.8789L36.9551 51.9903L37.69 51.9433L38.425 51.882L39.1599 52.0179L39.8948 51.9678L40.6297 51.9198L41.3636 51.8023L42.0986 51.9576L42.8335 51.7798L43.5684 51.8309L44.3033 51.8176L45.0382 52.0527L45.7732 51.837L46.5081 51.931L47.243 51.9668L47.9779 51.9116L48.7128 51.7951L49.4477 51.7757L50.1827 51.791L50.9186 51.7747L51.6535 51.9638L52.3885 51.8748L53.1244 51.884L53.8593 51.9474L54.5942 51.789L55.3302 51.8544L56.0651 52.0435L56.8 52.0598L57.536 51.9392L58.2709 52.0179L59.0058 51.881L59.7428 52.0537L60.4327 51.9638L60.536 52.669L60.4828 53.4193L60.3397 54.1695L60.3561 54.9198L60.5789 55.67L60.5748 56.4203L60.5799 57.1706L60.4746 57.9218L60.6188 58.6721L60.5656 59.4223L60.3305 60.1736L60.5554 60.9239L60.3377 61.6741L60.6126 62.4244L60.3387 63.1756L60.4961 63.9259L60.5022 64.6761L60.3612 65.4274L60.6228 66.1787L60.4062 66.93L60.4808 67.6823Z" fill="#FBF8F4"/>
<path d="M60.4808 67.6823L59.7438 67.7702L59.0089 67.7436L58.274 67.5545L57.539 67.6986L56.8041 67.7405L56.0692 67.7467L55.3353 67.6526L54.6004 67.5616L53.8655 67.6966L53.1305 67.6301L52.3956 67.5586L51.6607 67.6945L50.9258 67.7477L50.1908 67.6107L49.4559 67.6117L48.721 67.533L47.9861 67.577L47.2512 67.808L46.5163 67.6056L45.7813 67.6363L45.0454 67.7518L44.3105 67.669L43.5755 67.6761L42.8396 67.7712L42.1047 67.6342L41.3698 67.672L40.6348 67.6087L39.8989 67.7988L39.164 67.7405L38.4291 67.6516L37.6931 67.6301L36.9582 67.6117L36.2212 67.7211L35.5619 67.6056L35.4393 66.93L35.4066 66.1807L35.3432 65.4295L35.6079 64.6792L35.5507 63.929L35.563 63.1787L35.424 62.4285L35.3953 61.6782L35.3718 60.9269L35.6161 60.1767L35.4904 59.4264L35.4485 58.6751L35.5068 57.9249L35.5548 57.1746L35.5231 56.4244L35.425 55.6741L35.6079 54.9229L35.5538 54.1716L35.4638 53.4213L35.5262 52.6701L35.473 51.9055L36.2202 51.8789L36.9551 51.9903L37.69 51.9433L38.425 51.882L39.1599 52.0179L39.8948 51.9678L40.6297 51.9198L41.3636 51.8023L42.0986 51.9576L42.8335 51.7798L43.5684 51.8309L44.3033 51.8176L45.0382 52.0527L45.7732 51.837L46.5081 51.931L47.243 51.9668L47.9779 51.9116L48.7128 51.7951L49.4477 51.7757L50.1827 51.791L50.9186 51.7747L51.6535 51.9638L52.3885 51.8748L53.1244 51.884L53.8593 51.9474L54.5942 51.789L55.3302 51.8544L56.0651 52.0435L56.8 52.0598L57.536 51.9392L58.2709 52.0179L59.0058 51.881L59.7428 52.0537L60.4327 51.9638L60.536 52.669L60.4828 53.4193L60.3397 54.1695L60.3561 54.9198L60.5789 55.67L60.5748 56.4203L60.5799 57.1706L60.4746 57.9218L60.6188 58.6721L60.5656 59.4223L60.3305 60.1736L60.5554 60.9239L60.3377 61.6741L60.6126 62.4244L60.3387 63.1756L60.4961 63.9259L60.5022 64.6761L60.3612 65.4274L60.6228 66.1787L60.4062 66.93L60.4808 67.6823Z" stroke="black" stroke-width="1.5" stroke-linecap="round" stroke-linejoin="round"/>
<path d="M60.4256 64.3858L59.7531 64.1527L59.0386 63.9309L58.3313 63.6907L57.6321 63.4301L56.98 63.0396L56.3003 62.7248L55.5429 62.6175L54.8386 62.3691L54.2141 61.905L53.4853 61.717L52.7381 61.4042L52.5695 62.2342L52.1412 62.874L51.7201 63.5169L51.5453 64.2774L51.0597 64.8897L50.9197 65.6665L50.3821 66.2543L50.2778 67.0495L49.8965 67.6382L50.5896 67.7231L51.35 67.7333L52.1105 67.5309L52.871 67.7987L53.6325 67.8212L54.3919 67.8028L55.1524 67.72L55.9129 67.8069L56.6734 67.6873L57.4348 67.5299L58.1953 67.7302L58.9558 67.766L59.7173 67.6382L60.4236 67.6178L60.4563 67.0137L60.4645 66.3473L60.4635 65.6798L60.349 65.0185L60.4256 64.3858Z" fill="#FBF8F4"/>
<path d="M60.4256 64.3858L59.7531 64.1527L59.0386 63.9309L58.3313 63.6907L57.6321 63.4301L56.98 63.0396L56.3003 62.7248L55.5429 62.6175L54.8386 62.3691L54.2141 61.905L53.4853 61.717L52.7381 61.4042L52.5695 62.2342L52.1412 62.874L51.7201 63.5169L51.5453 64.2774L51.0597 64.8897L50.9197 65.6665L50.3821 66.2543L50.2778 67.0495L49.8965 67.6382L50.5896 67.7231L51.35 67.7333L52.1105 67.5309L52.871 67.7987L53.6325 67.8212L54.3919 67.8028L55.1524 67.72L55.9129 67.8069L56.6734 67.6873L57.4348 67.5299L58.1953 67.7302L58.9558 67.766L59.7173 67.6382L60.4236 67.6178L60.4563 67.0137L60.4645 66.3473L60.4635 65.6798L60.349 65.0185L60.4256 64.3858Z" stroke="black" stroke-width="1.5" stroke-linecap="round" stroke-linejoin="round"/>
<path d="M52.8813 61.5842L52.2026 61.99L51.8131 62.6524L51.2264 63.1399L50.7051 63.6858L50.3269 64.3583L49.7801 64.8827L49.3068 65.4714L48.7467 65.9825L48.3573 66.6469L47.7665 67.1324L47.3208 67.7467" fill="#FBF8F4"/>
<path d="M52.8813 61.5842L52.2026 61.99L51.8131 62.6524L51.2264 63.1399L50.7051 63.6858L50.3269 64.3583L49.7801 64.8827L49.3068 65.4714L48.7467 65.9825L48.3573 66.6469L47.7665 67.1324L47.3208 67.7467" stroke="black" stroke-width="1.5" stroke-linecap="round" stroke-linejoin="round"/>
<path d="M49.8076 64.7844L49.3967 64.162L49.0491 63.4843L48.6781 62.8199L48.1353 62.2638L47.7561 61.6056L47.4985 60.8707L46.9967 60.3657L46.4222 60.6979L45.8846 61.1947L45.1854 61.4737L44.6601 61.9868L44.1214 62.4816L43.4938 62.8567L43.0144 63.4322L42.3878 63.8073L41.8359 64.2846L41.1071 64.5258L40.5183 64.9541L39.9889 65.4611L39.5228 66.0539L38.8778 66.4056L38.288 66.8338L37.7473 67.3265L37.1371 67.67L37.826 67.6281L38.5507 67.5483L39.2754 67.67L40.0001 67.7578L40.7248 67.5381L41.4485 67.6137L42.1732 67.7129L42.8979 67.7793L43.6226 67.7681L44.3473 67.6137L45.071 67.719L45.7957 67.6792L46.5214 67.763L47.2164 67.6158L47.7387 67.0802L48.2089 66.4618L48.7077 65.8669L49.411 65.4529L49.8076 64.7844Z" fill="#FBF8F4"/>
<path d="M49.8076 64.7844L49.3967 64.162L49.0491 63.4843L48.6781 62.8199L48.1353 62.2638L47.7561 61.6056L47.4985 60.8707L46.9967 60.3657L46.4222 60.6979L45.8846 61.1947L45.1854 61.4737L44.6601 61.9868L44.1214 62.4816L43.4938 62.8567L43.0144 63.4322L42.3878 63.8073L41.8359 64.2846L41.1071 64.5258L40.5183 64.9541L39.9889 65.4611L39.5228 66.0539L38.8778 66.4056L38.288 66.8338L37.7473 67.3265L37.1371 67.67L37.826 67.6281L38.5507 67.5483L39.2754 67.67L40.0001 67.7578L40.7248 67.5381L41.4485 67.6137L42.1732 67.7129L42.8979 67.7793L43.6226 67.7681L44.3473 67.6137L45.071 67.719L45.7957 67.6792L46.5214 67.763L47.2164 67.6158L47.7387 67.0802L48.2089 66.4618L48.7077 65.8669L49.411 65.4529L49.8076 64.7844Z" stroke="black" stroke-width="1.5" stroke-linecap="round" stroke-linejoin="round"/>
<path d="M43.4723 62.9314L43.5397 62.2649L43.6103 61.6026L43.5132 60.9392L43.5591 60.1614L42.7281 60.2237L42.0024 60.2871L41.3002 60.5988L40.5694 60.6081L39.8375 60.6101L39.1006 60.558L38.3789 60.6714L37.6491 60.6949L36.9295 60.8247L36.2059 60.9249L35.4382 61.0128L35.5302 61.7907L35.6324 62.5266L35.4137 63.2626L35.4965 63.9985L35.5752 64.7344L35.3534 65.4704L35.4321 66.2073L35.426 66.9443L35.5578 67.6016L36.2938 67.7917L37.1043 67.6884L37.6246 67.1753L38.2174 66.7634L38.8951 66.4649L39.3714 65.8956L39.9336 65.4428L40.5316 65.036L41.1561 64.666L41.7418 64.2438L42.3009 63.7849L42.9489 63.4455L43.4723 62.9314Z" fill="#FBF8F4"/>
<path d="M43.4723 62.9314L43.5397 62.2649L43.6103 61.6026L43.5132 60.9392L43.5591 60.1614L42.7281 60.2237L42.0024 60.2871L41.3002 60.5988L40.5694 60.6081L39.8375 60.6101L39.1006 60.558L38.3789 60.6714L37.6491 60.6949L36.9295 60.8247L36.2059 60.9249L35.4382 61.0128L35.5302 61.7907L35.6324 62.5266L35.4137 63.2626L35.4965 63.9985L35.5752 64.7344L35.3534 65.4704L35.4321 66.2073L35.426 66.9443L35.5578 67.6016L36.2938 67.7917L37.1043 67.6884L37.6246 67.1753L38.2174 66.7634L38.8951 66.4649L39.3714 65.8956L39.9336 65.4428L40.5316 65.036L41.1561 64.666L41.7418 64.2438L42.3009 63.7849L42.9489 63.4455L43.4723 62.9314Z" stroke="black" stroke-width="1.5" stroke-linecap="round" stroke-linejoin="round"/>
</svg>
