<svg width="62" height="62" viewBox="0 0 62 62" fill="none" xmlns="http://www.w3.org/2000/svg">
<path d="M11.3435 0.80603L60.5267 5.67893L49.4007 60.806L0.573547 51.9019L11.3435 0.80603Z" fill="white"/>
<path d="M12.1517 0.0032959C12.4878 -0.0172339 12.809 0.059211 13.1009 0.214233L13.3704 0.360718L13.64 0.501343C13.647 0.505076 13.6513 0.507073 13.6517 0.507202L13.9388 0.425171L14.2318 0.348999C14.4721 0.284052 14.7147 0.239996 14.9583 0.225952L15.2396 0.214233L15.5267 0.196655C15.8326 0.179094 16.1297 0.232007 16.4114 0.348999L16.6868 0.460327L16.9564 0.571655C17.0749 0.620927 17.1892 0.652606 17.3021 0.665405L17.5833 0.694702L17.8646 0.729858C17.9758 0.742118 18.0935 0.739823 18.2161 0.71814L18.7903 0.612671C19.0733 0.562744 19.3587 0.564933 19.64 0.62439L19.9153 0.682983L20.1966 0.741577C20.4668 0.799045 20.7236 0.904603 20.9642 1.04626L21.4036 1.30994L21.638 1.19275L21.9368 1.04041C22.1936 0.909469 22.479 0.837989 22.7747 0.864624L23.0735 0.929077L23.3489 1.01111L23.6185 1.099C23.6911 1.12169 23.7673 1.12876 23.847 1.11658L24.1341 1.0697L24.4212 1.02869C24.7986 0.971578 25.1604 1.05458 25.4759 1.24548L25.7396 1.40369L26.0091 1.56775C26.0747 1.60697 26.1194 1.60964 26.1497 1.60876L26.7122 1.59705C26.9011 1.5916 27.0917 1.58449 27.2806 1.57947L27.5677 1.57361L27.8489 1.56189C28.009 1.55763 28.1716 1.54386 28.3353 1.52087L28.6224 1.48572L28.9095 1.4447L29.2318 1.43298C29.5414 1.46312 29.8184 1.60285 30.0462 1.79626L30.304 2.01306L30.4329 2.11853L30.5794 2.04236L30.8782 1.8783L31.1712 1.75525C31.3757 1.69302 31.5921 1.67724 31.8099 1.72009L32.1321 1.83142L32.6712 2.08923C32.7287 2.11713 32.7745 2.12296 32.8177 2.11853L33.1048 2.08923L33.3919 2.05408H33.679C33.9614 2.07757 34.2228 2.18099 34.4525 2.34119L34.7161 2.52283L34.8509 2.61658L35.0384 2.51111L35.3372 2.33533C35.5927 2.18591 35.8876 2.0979 36.1985 2.11853L36.515 2.17712L36.7845 2.25916L37.0599 2.34705C37.2151 2.3951 37.373 2.42964 37.5286 2.45837L38.0794 2.56384C38.2279 2.59126 38.38 2.60563 38.5306 2.61072L38.8118 2.62244L39.0931 2.6283C39.4242 2.63949 39.7315 2.74618 40.0071 2.91541L40.2767 3.07947L40.5345 3.23767L40.8157 3.17322L41.1028 3.09705C41.367 3.03114 41.636 3.00833 41.9056 3.02673L42.1868 3.04431L42.4681 3.06775C42.7771 3.08907 43.0686 3.1803 43.3353 3.33142L43.6048 3.48376L43.804 3.59509L44.0443 3.48376L44.3431 3.349C44.5972 3.23166 44.8737 3.17004 45.1575 3.19666L45.4388 3.25525L45.9896 3.41931C46.1792 3.47552 46.369 3.53285 46.5579 3.59509L46.8333 3.68298L47.1087 3.77673C47.1616 3.7939 47.2136 3.79608 47.2786 3.78259L47.5716 3.724L47.8587 3.65955C48.1158 3.60561 48.3783 3.588 48.638 3.60681L48.9134 3.63025L49.1946 3.64783C49.5268 3.67189 49.8328 3.79068 50.1028 3.97009L50.3665 4.14587L50.513 4.23962L50.7122 4.1283L51.011 3.95837C51.2092 3.84568 51.4507 3.77093 51.72 3.78845C51.8566 3.79762 51.9857 3.82798 52.1009 3.87634L52.4114 4.06384L52.6693 4.26892L52.9329 4.47986C52.9684 4.50792 52.994 4.51737 53.0032 4.52087H53.5775C53.6396 4.52068 53.7225 4.50333 53.8353 4.45056L54.1341 4.3158L54.4329 4.17517C54.7348 4.03358 55.0663 3.96035 55.4114 3.99939L55.6868 4.03455L55.9681 4.06384C56.2986 4.10123 56.6009 4.22799 56.8646 4.41541L57.3919 4.79041C57.4054 4.8 57.4151 4.805 57.4212 4.80798L57.7025 4.77869L57.9896 4.74353C58.2277 4.71528 58.4674 4.71332 58.7044 4.73181L58.9857 4.74939L59.261 4.77283C59.4733 4.78939 59.679 4.8156 59.8704 4.85486L60.1048 4.90759L60.345 4.95447C60.5652 5.00036 60.8582 5.13698 61.0189 5.46423C61.1624 5.75781 61.1203 6.0447 61.0716 6.21423L60.9896 6.48376L60.9134 6.75916C60.8579 6.95147 60.797 7.14322 60.7318 7.33337L60.638 7.60291L60.5443 7.86658C60.5388 7.88259 60.5348 7.91649 60.556 7.98962L60.7318 8.599C60.8319 8.94516 60.8272 9.3102 60.6849 9.65955L60.5735 9.92908L60.4681 10.1927C60.4444 10.2505 60.4306 10.3106 60.4388 10.3861L60.4739 10.6791L60.5032 10.972C60.545 11.3591 60.4429 11.7233 60.222 12.0326L60.0403 12.2845L59.8646 12.5365C59.8166 12.6035 59.7984 12.6525 59.7943 12.6947L59.7708 12.9818L59.7474 13.2631C59.7285 13.4759 59.6942 13.6869 59.6536 13.8959L59.5482 14.4467C59.5213 14.5851 59.5085 14.7283 59.5071 14.8744L59.5013 15.1615V15.4486C59.4988 15.7046 59.4593 15.9589 59.39 16.2045L59.2376 16.7435C59.1864 16.9248 59.1372 17.1074 59.0853 17.2885L59.0032 17.5638L58.9271 17.8334C58.8776 18.0058 58.8299 18.1813 58.7864 18.3549L58.722 18.6244L58.6517 18.8998C58.6173 19.0372 58.5965 19.1781 58.5872 19.3217L58.5696 19.6029L58.5521 19.89C58.5399 20.0797 58.5247 20.269 58.511 20.4584L58.4876 20.7396L58.47 21.0267C58.4537 21.2523 58.4207 21.4751 58.3704 21.6947L58.2415 22.2455C58.1971 22.4389 58.1483 22.634 58.095 22.8256L58.0189 23.0951L57.9485 23.3646C57.8725 23.638 57.7457 23.8946 57.5794 24.1263L57.3978 24.3783L57.2161 24.6244C57.1649 24.6957 57.1507 24.7541 57.1458 24.8002L57.0872 25.3627C57.0758 25.4725 57.0801 25.5937 57.1048 25.726L57.1575 26.0248L57.2161 26.3177C57.269 26.6012 57.2709 26.8902 57.2161 27.1732L57.1634 27.4545L57.1048 27.7299C57.0551 27.9837 56.9707 28.2299 56.8528 28.4623L56.7239 28.7201L56.5892 28.9779C56.5179 29.1184 56.46 29.2636 56.4134 29.4056L56.2376 29.9447C56.1829 30.1116 56.1312 30.2801 56.0853 30.4486L56.0091 30.7181L55.9388 30.9935C55.8892 31.1754 55.8371 31.3568 55.7864 31.5385L55.7103 31.808L55.6341 32.0834C55.598 32.2131 55.5726 32.3455 55.5638 32.4818L55.5462 32.7689L55.5286 33.0502C55.5136 33.2846 55.4753 33.5147 55.4173 33.7416L55.3528 34.017L55.2825 34.2924C55.2287 34.5021 55.1616 34.7097 55.0833 34.9135L54.9778 35.1771L54.8782 35.4467C54.869 35.4712 54.8628 35.5041 54.8782 35.5697L54.9485 35.8744L55.0189 36.1732C55.0769 36.4191 55.1112 36.6657 55.1185 36.9115L55.1243 37.2045L55.136 37.4916C55.1444 37.7839 55.091 38.0689 54.9837 38.3412L54.8782 38.6107L54.7728 38.8744C54.7151 39.0208 54.6692 39.1706 54.6321 39.3197L54.5618 39.5892L54.4974 39.8646C54.4584 40.0211 54.4262 40.1794 54.4036 40.3392L54.3626 40.6205L54.3275 40.8959C54.2998 41.0924 54.2638 41.2927 54.2278 41.4877L54.181 41.7631L54.1282 42.0385C54.0745 42.3293 53.9626 42.601 53.8001 42.847L53.6302 43.099L53.4661 43.351C53.4609 43.3588 53.4558 43.3656 53.4544 43.3685C53.4543 43.37 53.4536 43.3794 53.4544 43.3861L53.4954 43.6849L53.5306 43.9779C53.5697 44.2707 53.553 44.5658 53.472 44.851L53.3196 45.39C53.2754 45.5456 53.2358 45.7058 53.2083 45.8646L53.1146 46.4154C53.0792 46.6196 53.0375 46.824 52.9857 47.0248L52.9153 47.3002L52.845 47.5697C52.7844 47.8041 52.6967 48.036 52.5872 48.2552L52.4583 48.5131L52.347 48.724L52.4759 49.0404L52.6048 49.351C52.6949 49.5695 52.7384 49.829 52.6751 50.101C52.6117 50.3715 52.4592 50.5838 52.2884 50.7396L51.7728 51.2084C51.7326 51.245 51.7153 51.2727 51.7083 51.2845C51.7027 51.2942 51.7018 51.2945 51.7025 51.2904L51.6614 51.5717L51.6146 51.847C51.5959 51.9592 51.5878 52.0808 51.6028 52.2103L51.6732 52.7963C51.6976 53.0058 51.7193 53.2154 51.7318 53.4232L51.7493 53.7103L51.7669 54.0033C51.7823 54.2599 51.7653 54.5151 51.7142 54.765L51.597 55.3158C51.5618 55.4879 51.5304 55.6636 51.5032 55.8373L51.4622 56.1127L51.4153 56.3939C51.3583 56.7537 51.1838 57.0582 50.9466 57.308L50.7181 57.5541L50.4896 57.7943C50.485 57.7992 50.4806 57.8026 50.4778 57.806L50.4896 58.0697L50.4954 58.3568C50.5052 58.6434 50.4642 58.925 50.3665 59.1947L50.2669 59.4642L50.1732 59.7279C50.1316 59.8427 50.1078 59.9498 50.1028 60.0443L50.0911 60.3021L50.0794 60.5658C50.0691 60.7596 49.9976 61.1134 49.6575 61.3334C49.3393 61.5388 49.0028 61.4796 48.8372 61.433L48.2982 61.2806C48.2481 61.2665 48.1849 61.2612 48.0989 61.2806L47.8001 61.351L47.5013 61.4154C47.0211 61.5254 46.5848 61.3617 46.265 61.0463L46.0247 60.8119L45.8489 60.642L45.6732 60.6947L45.3685 60.7826C45.0283 60.8824 44.6713 60.8828 44.3255 60.7533L44.056 60.6537L43.7923 60.5541C43.6415 60.4976 43.4883 60.4513 43.3353 60.4135L43.0599 60.3431L42.7845 60.2787C42.7232 60.2637 42.6502 60.2583 42.556 60.2787L42.2571 60.3431L41.9583 60.4135C41.5863 60.4946 41.2114 60.4434 40.8743 60.2552L40.3587 59.9623C40.2426 59.8974 40.125 59.8542 40.013 59.8275L39.7435 59.7631L39.4681 59.6986C39.2198 59.6394 38.9809 59.545 38.7532 59.4232L38.4896 59.2885L38.2493 59.1537V59.1595L37.9505 59.2533L37.6458 59.3529C37.3319 59.4544 36.9993 59.4822 36.6673 59.4056L36.1165 59.2767C35.884 59.2229 35.6564 59.1483 35.4368 59.0482L35.1732 58.9252L34.9095 58.808C34.7584 58.7391 34.6052 58.6763 34.4525 58.6263L33.9134 58.4506C33.7887 58.4099 33.6617 58.386 33.5325 58.3744L33.2513 58.351L32.97 58.3217C32.8271 58.309 32.6764 58.3086 32.5247 58.3217L32.2376 58.351L31.9446 58.3744C31.7147 58.3941 31.486 58.3957 31.2591 58.3802L30.972 58.3627L30.6907 58.3392C30.5021 58.3263 30.3109 58.3176 30.1224 58.3041L29.8411 58.2806L29.5599 58.2631C29.1794 58.2355 28.8529 58.0681 28.5872 57.8295L28.3411 57.6068L28.1888 57.472L28.0071 57.5482L27.7025 57.6713C27.3566 57.8079 26.9726 57.8426 26.595 57.7064L26.056 57.5072C25.9226 57.4591 25.7879 57.4236 25.6517 57.4017L25.3704 57.3607L25.095 57.3138C24.853 57.2753 24.6147 57.213 24.386 57.1205L24.1224 57.0092L23.8528 56.9037C23.7604 56.8663 23.6684 56.8468 23.5716 56.8451L23.2845 56.8392L23.0032 56.8334C22.6997 56.8283 22.4072 56.7564 22.136 56.6224L21.6087 56.3646C21.541 56.3311 21.4768 56.3161 21.4095 56.3177L20.8353 56.3295C20.4857 56.3379 20.1571 56.2389 19.8685 56.0541L19.6165 55.8959L19.429 55.7728L19.1771 55.8842L18.8665 56.0131C18.6547 56.1014 18.4074 56.1445 18.1458 56.0951C17.8847 56.0456 17.6719 55.9134 17.5071 55.7552L17.261 55.5267L17.0208 55.2924C16.9862 55.2591 16.9625 55.2399 16.9505 55.2338C16.94 55.2285 16.9336 55.228 16.9329 55.2279L16.3704 55.1693C16.3416 55.1665 16.2796 55.1674 16.1712 55.2162L15.5501 55.4974C15.2136 55.6489 14.8302 55.7077 14.4427 55.5912L14.1732 55.5092L13.8978 55.4271C13.6798 55.3612 13.4674 55.2754 13.2591 55.1752L12.9954 55.0463L12.7318 54.9232C12.5421 54.8319 12.3554 54.7293 12.1693 54.6244L11.9056 54.4779L11.6478 54.3314C11.6153 54.3133 11.5925 54.3098 11.5599 54.3138L11.2669 54.3549L10.9739 54.39C10.6905 54.4261 10.4071 54.4134 10.1302 54.3431L9.57941 54.2025C9.42955 54.1644 9.2758 54.1329 9.12238 54.1146L8.84698 54.0853L8.56573 54.0502C8.3908 54.0293 8.21484 54.0107 8.03839 53.9974L7.75714 53.9799L7.47003 53.9564C7.20287 53.9362 6.94492 53.8709 6.69659 53.7689L6.42706 53.6635L6.16339 53.5521C6.02784 53.4965 5.89068 53.458 5.75323 53.4291L5.20245 53.3119C4.97731 53.2646 4.75617 53.1978 4.54034 53.1127L4.27081 53.0072L4.00714 52.9017C3.9788 52.8905 3.94029 52.8819 3.87823 52.8959L3.58527 52.9662L3.28644 53.0306C2.9012 53.1174 2.51351 53.0559 2.17316 52.849L1.91534 52.6967L1.65753 52.5385C1.57778 52.4903 1.50628 52.4682 1.44073 52.4623L1.15948 52.4388L0.878235 52.4095C0.796354 52.402 0.692554 52.3885 0.585266 52.351C0.480359 52.3139 0.313856 52.2308 0.180969 52.0638C-0.161219 51.6322 0.07119 51.183 0.157532 51.0502L0.274719 50.8685L0.374329 50.7103C0.374645 50.7004 0.369451 50.6857 0.368469 50.6693L0.350891 50.3822L0.339172 50.0892C0.328458 49.9102 0.30823 49.7264 0.286438 49.5443L0.216125 48.9584C0.183531 48.686 0.196038 48.4111 0.251282 48.1439L0.304016 47.8685L0.36261 47.5931C0.419332 47.3199 0.526594 47.0641 0.673157 46.8256L0.8255 46.5677L0.983704 46.3158C1.01138 46.2708 1.02058 46.2372 1.01886 46.1986L1.00128 45.9056L0.989563 45.6185C0.974001 45.2836 1.04969 44.961 1.21222 44.6693L1.3587 44.4115L1.49933 44.1537C1.54112 44.0783 1.55978 44.0085 1.56378 43.9369L1.58136 43.6556L1.59894 43.3685C1.61166 43.1419 1.64017 42.9155 1.68683 42.6947L1.80402 42.1439C1.83773 41.9839 1.86105 41.821 1.88019 41.6576L1.9505 41.0951C1.96748 40.9488 1.97416 40.7982 1.96808 40.6439L1.95636 40.3568L1.94464 40.0638C1.93325 39.7726 1.97609 39.4871 2.07941 39.2142L2.17902 38.9447L2.28448 38.681C2.3683 38.4602 2.47099 38.243 2.59503 38.0365L2.74738 37.7845L2.89972 37.5267C2.95707 37.431 2.99532 37.3403 3.01105 37.2513L3.1048 36.7006C3.14114 36.495 3.18593 36.2872 3.23956 36.0853L3.31573 35.8158L3.38605 35.5404C3.39709 35.4974 3.40334 35.4375 3.38019 35.347L3.29816 35.0424L3.22198 34.7377C3.11054 34.3047 3.20646 33.8777 3.48566 33.5306L3.67902 33.2845L3.84894 33.0677L3.7962 32.8217L3.73175 32.517C3.67215 32.2397 3.6588 31.9585 3.69659 31.6791L3.73175 31.3978L3.77277 31.1224C3.80458 30.8872 3.85915 30.6558 3.93683 30.431L4.03058 30.1615L4.11847 29.892C4.21964 29.5997 4.38903 29.343 4.59894 29.1185L4.82159 28.8783L5.05011 28.6381C5.11697 28.5665 5.12902 28.5213 5.13214 28.5033L5.22589 27.9525C5.23469 27.9019 5.2362 27.8258 5.20245 27.7181L5.10284 27.4076L5.00909 27.1029C4.88662 26.7131 4.91647 26.3016 5.138 25.931L5.29034 25.6732L5.44269 25.4213C5.5303 25.2748 5.60395 25.124 5.6712 24.976L5.79425 24.7123L5.91144 24.4545C5.93528 24.4019 5.94664 24.3459 5.94073 24.2787L5.91144 23.9857L5.888 23.6869C5.86373 23.4254 5.86863 23.1634 5.9173 22.9076L6.02277 22.3568C6.04514 22.2392 6.05581 22.114 6.0462 21.9818L6.02277 21.6888L6.00519 21.4017C5.98761 21.1599 5.99274 20.9182 6.02277 20.681L6.09308 20.1185C6.14397 19.7195 6.35094 19.3935 6.62042 19.1459L6.87238 18.9115L7.13019 18.683L7.18878 18.6127L7.2298 18.3314L7.27081 18.056C7.29219 17.9079 7.30109 17.7542 7.30011 17.599L7.29425 17.3119V17.0248C7.29258 16.76 7.32986 16.4984 7.40558 16.2455L7.56964 15.7064C7.63052 15.503 7.69991 15.3012 7.78058 15.1029L7.88605 14.8392L7.99738 14.5756C8.04549 14.4573 8.07488 14.3347 8.09113 14.2123L8.12628 13.931L8.1673 13.6556C8.19378 13.456 8.22367 13.2554 8.26105 13.058L8.31378 12.7826L8.36652 12.5013C8.39337 12.3589 8.40993 12.2114 8.41339 12.0619L8.41925 11.7748L8.42511 11.4935C8.42881 11.3337 8.42373 11.168 8.40753 11.0013L8.34894 10.4154C8.32454 10.1643 8.32677 9.91208 8.36066 9.66541L8.40167 9.39001L8.44269 9.10876C8.47838 8.84941 8.55095 8.59802 8.65948 8.35876L8.77667 8.09509L8.89386 7.83728C8.9293 7.75916 8.94648 7.67593 8.94659 7.59119V7.01697C8.94731 6.71976 9.01114 6.43197 9.13409 6.1615L9.25714 5.89783L9.37433 5.63416C9.41842 5.5374 9.44207 5.44111 9.4505 5.34119L9.47394 5.05994L9.49738 4.77283C9.52343 4.46094 9.62737 4.16965 9.79034 3.90564L9.94855 3.65369L10.1009 3.39587C10.111 3.37946 10.1179 3.36926 10.1185 3.36658C10.1191 3.36224 10.1203 3.35134 10.1185 3.33728L10.0775 3.04431L10.0364 2.74548C9.9953 2.43226 10.0288 2.11803 10.1419 1.8197L10.3411 1.29236C10.4087 1.11419 10.4624 0.972483 10.4993 0.882202L10.5521 0.765015L10.5989 0.641968L10.7044 0.454468C10.8266 0.287504 10.9881 0.190497 11.1146 0.138062C11.278 0.0703158 11.4477 0.0468441 11.5833 0.0384521L11.8646 0.020874L12.1517 0.0032959ZM11.9583 1.52087L11.8587 1.52673C11.8307 1.59769 11.7946 1.69509 11.7474 1.8197L11.6478 2.08923L11.5423 2.35291C11.5212 2.40852 11.5141 2.47206 11.5247 2.55212L11.5657 2.84509L11.6009 3.14392C11.6495 3.51241 11.5733 3.87085 11.3782 4.18689L11.2259 4.43884L11.0677 4.6908C11.0223 4.76438 11.003 4.83258 10.9974 4.89587L10.9739 5.18298L10.9505 5.46423C10.9277 5.73948 10.8541 6.0037 10.7396 6.25525L10.6224 6.51892L10.4993 6.78259C10.4642 6.85992 10.4467 6.93906 10.4466 7.02283V7.59705C10.4461 7.89479 10.382 8.18138 10.2591 8.45251L10.0247 8.97986C9.97468 9.09019 9.94061 9.20098 9.92511 9.31384L9.88995 9.59509L9.84894 9.87048C9.83171 9.99593 9.82958 10.1292 9.84308 10.2689L9.90167 10.8549C9.9235 11.0795 9.93024 11.3071 9.92511 11.5287L9.91925 11.8099L9.91339 12.097C9.90805 12.3277 9.88564 12.5576 9.84308 12.7826L9.73761 13.3334C9.70537 13.5035 9.6726 13.6768 9.64972 13.849L9.57941 14.4115C9.54617 14.6612 9.4812 14.904 9.38605 15.1381L9.27472 15.4017L9.16925 15.6654C9.10652 15.8196 9.05212 15.9775 9.00519 16.1342L8.92316 16.4037L8.84113 16.6791C8.80969 16.7852 8.79365 16.8958 8.79425 17.0131V17.3002L8.80011 17.5873C8.80155 17.8152 8.78534 18.0438 8.75323 18.267L8.6712 18.8295C8.61396 19.2208 8.41005 19.5397 8.14386 19.7845L7.88605 20.0189L7.63409 20.2533C7.60115 20.2836 7.58646 20.3035 7.58136 20.3119V20.306L7.51105 20.8685C7.49388 21.0037 7.48871 21.1439 7.49933 21.2904L7.52277 21.5834L7.54034 21.8763C7.55887 22.1329 7.54696 22.3877 7.49933 22.6381L7.39386 23.1888C7.37258 23.3007 7.36424 23.4235 7.37628 23.5521L7.43488 24.1381C7.46465 24.4595 7.41063 24.7741 7.27667 25.0697L7.0423 25.597C6.95086 25.7985 6.84174 25.9952 6.72589 26.1888L6.57355 26.4467L6.43878 26.6576L6.53839 26.9623L6.63214 27.267C6.72704 27.569 6.75747 27.886 6.70245 28.2045L6.65558 28.4857L6.6087 28.7611C6.54763 29.1126 6.37809 29.4152 6.14581 29.6635L5.9173 29.9037L5.69464 30.1439C5.60574 30.2391 5.55874 30.3197 5.53644 30.3842L5.44855 30.6537L5.3548 30.9174C5.30916 31.0492 5.27368 31.1849 5.25519 31.3217L5.22003 31.6029L5.17902 31.8783C5.16658 31.9702 5.1704 32.078 5.19659 32.2006L5.26105 32.5052L5.3255 32.8041C5.41783 33.232 5.31391 33.6466 5.04425 33.9818L4.85089 34.2279L4.68683 34.4213L4.75128 34.6674L4.83331 34.972C4.91374 35.2845 4.91813 35.6078 4.83331 35.9271L4.763 36.2025L4.69269 36.472C4.64998 36.6328 4.61031 36.7947 4.58136 36.9584L4.53448 37.2338L4.48761 37.515C4.43812 37.7943 4.33478 38.0567 4.18878 38.3002L4.03644 38.558L3.87823 38.8099C3.79799 38.9435 3.73566 39.0804 3.68488 39.2142L3.58527 39.4779L3.48566 39.7474C3.45514 39.8283 3.43513 39.9114 3.43878 40.0052L3.4505 40.2982L3.46222 40.5853C3.47131 40.816 3.46521 41.0446 3.43878 41.2709L3.40363 41.5521L3.37433 41.8334C3.34984 42.0424 3.31218 42.2491 3.26886 42.4545L3.15167 43.0052C3.12106 43.1502 3.10164 43.2997 3.09308 43.4506L3.08136 43.7377L3.06378 44.0189C3.04664 44.3256 2.96059 44.619 2.81183 44.8861L2.66534 45.1439L2.52472 45.4017C2.49652 45.4526 2.48715 45.4964 2.48956 45.5482L2.50128 45.8412L2.513 46.1283C2.52918 46.4765 2.44172 46.8069 2.26105 47.101L2.1087 47.3529L1.9505 47.6107C1.88937 47.7103 1.85265 47.8051 1.83331 47.8978L1.71613 48.4486C1.69558 48.548 1.69032 48.657 1.70441 48.7767L1.73956 49.0756L1.77472 49.3685C1.79997 49.5796 1.82079 49.7922 1.83331 50.0013L1.85089 50.2885L1.86847 50.5814C1.87693 50.723 1.86826 50.8716 1.83917 51.0209C2.04936 51.0695 2.25069 51.1424 2.43683 51.2552L2.69464 51.4135L2.94659 51.5658H2.95245L3.25128 51.5013L3.55011 51.431C3.88557 51.3554 4.23069 51.3779 4.55792 51.5072L4.82159 51.6127L5.09113 51.7181C5.22972 51.7728 5.37224 51.8116 5.513 51.8412L6.06378 51.9584C6.29146 52.0063 6.51452 52.0744 6.73175 52.1635L7.00128 52.2748L7.26495 52.3861C7.37036 52.4293 7.47934 52.4542 7.58722 52.4623L7.86847 52.4799L8.14972 52.5033C8.34776 52.5181 8.54492 52.5384 8.74152 52.5619L9.02277 52.5912L9.30402 52.6263C9.52267 52.6525 9.74096 52.695 9.95441 52.7494L10.2239 52.8197L10.4993 52.89C10.5854 52.9118 10.6811 52.9152 10.7864 52.9017L11.0794 52.8666L11.3724 52.8256C11.728 52.7809 12.0748 52.8494 12.386 53.0248L12.9017 53.3177C13.0606 53.4074 13.2219 53.4925 13.3821 53.5697L13.6458 53.6986L13.9095 53.8217C14.0501 53.8894 14.1896 53.9487 14.3314 53.9916L14.6068 54.0736L14.8763 54.1556L14.8646 54.1498C14.8692 54.1493 14.8932 54.1451 14.9349 54.1263L15.2454 53.9857L15.556 53.851C15.8601 53.714 16.1946 53.6369 16.5403 53.6752L16.8157 53.7103L17.097 53.7396C17.4781 53.7818 17.8008 53.9617 18.0579 54.2084L18.304 54.4427L18.4329 54.5658L18.597 54.5013L18.9075 54.3724L19.2181 54.2787C19.4297 54.2401 19.6462 54.2514 19.8568 54.3197L20.1673 54.4662L20.4251 54.6302L20.6771 54.7943C20.7293 54.8278 20.7673 54.8303 20.8001 54.8295L21.3743 54.8177C21.6898 54.81 21.995 54.8773 22.2767 55.017L22.5345 55.1459L22.7982 55.2806C22.8759 55.3192 22.951 55.3321 23.0267 55.3334L23.3138 55.3392L23.595 55.3451C23.8774 55.3498 24.1535 55.4034 24.4153 55.5092L24.6849 55.6205L24.9485 55.726C25.0744 55.7769 25.2015 55.811 25.3294 55.8314L25.6048 55.8783L25.886 55.9252C26.1176 55.9621 26.344 56.0208 26.5657 56.101L26.8353 56.1947L27.0989 56.2885C27.1059 56.2875 27.1243 56.2875 27.1517 56.2767L27.4564 56.1537L27.7669 56.0306L28.1009 55.9486C28.2174 55.9343 28.3392 55.9323 28.4642 55.9545C28.716 55.9996 28.9298 56.1207 29.097 56.2709L29.5892 56.7162C29.6214 56.745 29.6439 56.7586 29.6536 56.7631H29.6653L29.9525 56.7865L30.2337 56.8041C30.4207 56.8175 30.6091 56.8322 30.7962 56.8451L31.0775 56.8627L31.3587 56.8861C31.507 56.8963 31.6597 56.8936 31.8157 56.8802L32.1087 56.8568L32.3958 56.8275C32.6311 56.8073 32.8669 56.8071 33.0989 56.8275L33.3802 56.8568L33.6614 56.8802C33.9061 56.9019 34.1484 56.9503 34.3821 57.0267L34.9212 57.2025C35.1276 57.27 35.3303 57.3515 35.5306 57.4427L35.7943 57.5599L36.0579 57.683C36.1896 57.743 36.3239 57.7872 36.4564 57.8177L37.0071 57.9467C37.0409 57.9539 37.0952 57.9573 37.1829 57.9291L37.7923 57.7299C38.0764 57.6383 38.3735 57.6235 38.6595 57.7064L38.9407 57.8236L39.1985 57.9642L39.4622 58.1049C39.5807 58.168 39.6979 58.2119 39.8138 58.2396L40.3646 58.3685C40.6168 58.4288 40.8563 58.528 41.0853 58.6556L41.3489 58.7963L41.6068 58.9427L41.6185 58.9486C41.621 58.9485 41.6275 58.9504 41.636 58.9486L41.9349 58.8783L42.2337 58.8138C42.5351 58.7479 42.8449 58.7449 43.1478 58.8197L43.4173 58.89L43.6927 58.9545C43.9037 59.0066 44.1144 59.0768 44.3196 59.1537L44.5833 59.2533L44.8528 59.3529C44.8638 59.357 44.8871 59.3645 44.9466 59.347L45.2513 59.2592L45.5501 59.1654C45.9149 59.058 46.2647 59.115 46.5579 59.2885L46.8333 59.5052L47.0735 59.7396L47.2669 59.9271L47.4661 59.8861L47.7591 59.8158C48.0431 59.7507 48.3344 59.755 48.6204 59.8217C48.6433 59.6166 48.6898 59.4147 48.761 59.2181L48.8607 58.9486L48.9544 58.6849C48.9857 58.5985 49.0045 58.5077 49.0013 58.4095L48.9896 58.1224L48.9778 57.8295C48.9638 57.406 49.1372 57.0396 49.4056 56.7572L49.8626 56.2767C49.9282 56.2073 49.9373 56.1692 49.9388 56.1595L49.9798 55.8783L50.0208 55.6029C50.0516 55.4065 50.0924 55.2115 50.1321 55.017L50.1849 54.7416L50.2435 54.4662C50.2675 54.3489 50.2748 54.2217 50.2669 54.0912L50.2493 53.8041L50.2318 53.5111C50.221 53.3328 50.2059 53.1531 50.1849 52.972L50.1497 52.6732L50.1146 52.3802C50.0843 52.1188 50.0893 51.8581 50.1321 51.601L50.179 51.3256L50.2259 51.0443C50.2907 50.6575 50.4997 50.3429 50.765 50.101L51.0228 49.8666L51.1458 49.7494L51.0931 49.6088L50.9583 49.2982C50.8048 48.9254 50.7824 48.5024 50.9818 48.1029L51.1165 47.8451L51.2454 47.5814C51.3093 47.4534 51.3586 47.3235 51.3919 47.1947L51.4622 46.9252L51.5325 46.6498C51.5741 46.4889 51.6096 46.3269 51.638 46.1635L51.6849 45.8822L51.7318 45.6068C51.7683 45.396 51.8196 45.186 51.8782 44.9799L52.0306 44.4408C52.0523 44.3645 52.0614 44.277 52.0482 44.1771L52.0071 43.8842L51.9661 43.5853C51.9156 43.2058 52.0033 42.8411 52.2122 42.5248L52.3821 42.2728L52.5462 42.0209C52.606 41.9303 52.6371 41.8461 52.6517 41.7689L52.7044 41.4877L52.7571 41.2123C52.789 41.0394 52.8146 40.8652 52.8392 40.6908L52.8802 40.4095L52.9212 40.1342C52.951 39.9224 52.9868 39.7087 53.0384 39.5013L53.1087 39.2318L53.179 38.9564C53.2323 38.7423 53.2966 38.5306 53.3782 38.3236L53.4837 38.0599L53.5892 37.7904C53.6211 37.7089 53.6387 37.6243 53.636 37.5326L53.6243 37.2455L53.6185 36.9584C53.6145 36.8207 53.5962 36.6733 53.5599 36.5189L53.4896 36.2142L53.4134 35.9154C53.3346 35.5812 53.3512 35.2376 53.4778 34.9076L53.5775 34.6381L53.6829 34.3744C53.7409 34.2236 53.7901 34.0708 53.8294 33.9174L53.8997 33.642L53.97 33.3724C54.0047 33.237 54.0253 33.0981 54.0345 32.9564L54.0521 32.6693L54.0696 32.3881C54.085 32.1477 54.1223 31.9105 54.1868 31.6791L54.263 31.4095L54.3392 31.1342C54.3892 30.9548 54.4426 30.7746 54.4915 30.5951L54.5618 30.3256L54.638 30.0502C54.6906 29.8574 54.7513 29.6666 54.8138 29.476L54.9896 28.9369C55.0605 28.7207 55.1488 28.51 55.2532 28.3041L55.3821 28.0404L55.5169 27.7826C55.5744 27.6692 55.6119 27.5555 55.6341 27.4427L55.6868 27.1674L55.7396 26.8861C55.7556 26.8024 55.7605 26.7054 55.7396 26.5931L55.681 26.3002L55.6282 26.0013C55.5788 25.7367 55.5653 25.4689 55.5931 25.2045L55.6517 24.642C55.6862 24.3136 55.8088 24.014 55.9974 23.7513L56.179 23.4994L56.3607 23.2533C56.4337 23.1515 56.4766 23.0545 56.5013 22.9662L56.5775 22.6908L56.6536 22.4213C56.7007 22.2522 56.7434 22.0821 56.7825 21.9115L56.847 21.6361L56.9056 21.3607C56.9388 21.2156 56.9651 21.066 56.9759 20.9154L56.9935 20.6342L57.0169 20.3529L57.0696 19.5092L57.0872 19.222C57.1023 18.9898 57.1423 18.7616 57.1985 18.5365L57.263 18.2611L57.3333 17.9857C57.3809 17.7961 57.4316 17.6057 57.4857 17.4174L57.5618 17.1478L57.6439 16.8783C57.6953 16.6992 57.7455 16.5185 57.7962 16.3392L57.8724 16.0638L57.9485 15.7943C57.9813 15.6785 58.0001 15.5564 58.0013 15.431V15.1439L58.0071 14.8627C58.0093 14.6269 58.0328 14.3893 58.0775 14.1595L58.1829 13.6088C58.2136 13.4505 58.2389 13.2903 58.2532 13.1283L58.3001 12.5658C58.3296 12.2335 58.4504 11.929 58.64 11.6635L59.0032 11.1595C59.0091 11.1511 59.0136 11.1448 59.015 11.142V11.1361L58.9798 10.8373L58.9505 10.5443C58.9169 10.2295 58.9587 9.91926 59.0794 9.62439L59.1849 9.36072L59.2962 9.09119C59.2988 9.08473 59.3048 9.06484 59.2903 9.01501L59.1146 8.40564C59.0185 8.07287 59.0091 7.72168 59.1263 7.38025L59.22 7.11658L59.3138 6.84705C59.371 6.6802 59.4234 6.51153 59.472 6.34314L59.4778 6.30798C59.3796 6.29127 59.2705 6.27645 59.1497 6.26697L58.8685 6.24939L58.5872 6.22595C58.4503 6.21527 58.3085 6.21483 58.1653 6.23181L57.8782 6.26697L57.597 6.30212C57.1981 6.34944 56.8262 6.23348 56.5189 6.01501L55.9915 5.64001C55.9037 5.57782 55.8401 5.55687 55.7982 5.55212L55.5228 5.52283L55.2415 5.49353C55.2145 5.49048 55.1587 5.49088 55.0657 5.53455L54.7728 5.66931L54.4739 5.80994C54.193 5.94174 53.8914 6.02044 53.5775 6.02087H53.015C52.627 6.02141 52.2835 5.87575 52.0013 5.65173L51.7376 5.44666L51.6087 5.34119L51.4564 5.43494L51.1517 5.60486C50.9623 5.71209 50.7357 5.78912 50.4837 5.7865C50.227 5.78366 49.9971 5.69794 49.804 5.5697L49.5403 5.39392L49.2708 5.21814C49.1885 5.16376 49.1308 5.14511 49.0892 5.14197L48.5267 5.10681C48.4136 5.09863 48.2954 5.10396 48.1693 5.13025L47.8763 5.18884L47.5892 5.2533C47.2714 5.32013 46.9503 5.30243 46.64 5.20056L46.3646 5.11267L46.0892 5.01892C45.9143 4.96129 45.7371 4.90682 45.5618 4.85486L45.2864 4.77283L45.0169 4.6908C45.0112 4.69181 44.9954 4.69664 44.97 4.70837L44.6771 4.849L44.3782 4.98376C43.9774 5.16868 43.533 5.17082 43.1302 4.94275L42.8607 4.79041L42.597 4.63806C42.5083 4.58779 42.4329 4.56677 42.3685 4.56189L42.0872 4.54431L41.806 4.52087C41.7019 4.51369 41.5878 4.52566 41.4661 4.55603L41.179 4.62634L40.886 4.70251C40.4878 4.80141 40.095 4.72978 39.7552 4.52087L39.4915 4.35681L39.222 4.19275C39.1434 4.14464 39.0841 4.12977 39.0403 4.1283L38.7591 4.12244L38.4778 4.11072C38.2537 4.10304 38.0306 4.08114 37.8099 4.04041L37.5345 3.98767L37.2532 3.93494C37.0393 3.89536 36.8245 3.84175 36.6146 3.77673L36.345 3.6947L36.1107 3.61853C36.1059 3.62093 36.0995 3.62652 36.0931 3.63025L35.4954 3.98181C35.305 4.09311 35.0743 4.17293 34.8157 4.16931C34.5526 4.16511 34.3167 4.07457 34.1243 3.9408L33.8607 3.7533L33.597 3.57166C33.5694 3.55243 33.5504 3.54831 33.5501 3.54822L33.2689 3.57751L32.9818 3.61267C32.6464 3.64911 32.3206 3.58773 32.0208 3.44275L31.7513 3.30798L31.5579 3.21423L31.3001 3.36072L31.0013 3.52478C30.7974 3.63665 30.5485 3.71082 30.2747 3.68298C30.0006 3.65501 29.7722 3.52872 29.595 3.3783L29.3372 3.1615L29.0735 2.93884L29.0677 2.93298L28.8275 2.96814L28.5462 3.00916C28.3281 3.03979 28.1074 3.05607 27.89 3.06189L27.6028 3.07361L26.7591 3.09119L26.472 3.10291L26.1907 3.10876C25.8436 3.11878 25.5182 3.02536 25.2298 2.85095L24.9661 2.68689L24.6966 2.52869C24.6723 2.51399 24.6578 2.51159 24.6556 2.51111V2.50525L24.6439 2.51111L24.3568 2.55212L24.0696 2.599C23.7674 2.64493 23.4655 2.62005 23.1732 2.52869L22.8978 2.4408L22.64 2.36462C22.6341 2.36699 22.6257 2.37163 22.6165 2.37634L22.3177 2.52869L22.0247 2.68103C21.6193 2.8882 21.1549 2.89857 20.7357 2.65173L20.4661 2.49939L20.2025 2.34119C20.0888 2.27429 19.9832 2.23321 19.886 2.21228L19.6048 2.15369L19.3294 2.09509C19.242 2.0766 19.1483 2.07152 19.0482 2.08923L18.4739 2.1947C18.215 2.24032 17.9543 2.24734 17.6946 2.21814L17.4134 2.18884L17.1321 2.15369C16.8745 2.12436 16.6237 2.06047 16.3821 1.96033L16.1068 1.84314L15.8372 1.73181C15.7584 1.69907 15.6863 1.68697 15.6146 1.6908L15.3275 1.70837L15.0462 1.72595C14.9118 1.7337 14.7701 1.75697 14.6243 1.79626L14.3314 1.87244L14.0384 1.95447C13.6595 2.05621 13.2753 2.0089 12.931 1.82556L12.6673 1.68494L12.3978 1.53845C12.3339 1.5045 12.2865 1.50111 12.2454 1.5033L11.9583 1.52087Z" fill="black"/>
<path d="M10.8102 22.579C11.1317 22.4264 11.4132 22.5508 11.4841 22.5848L11.8063 22.8368L11.9294 22.9657L11.988 23.036H12.0056L12.2809 23.077L12.5622 23.1122C12.737 23.1352 12.9136 23.1552 13.0895 23.1708L13.652 23.2177C13.8643 23.2366 14.0758 23.2707 14.2849 23.3114L14.8356 23.4169C15.0527 23.4592 15.2688 23.5157 15.4802 23.5868L15.7497 23.6805L16.0192 23.7684C16.1026 23.7965 16.191 23.811 16.2829 23.8036L16.8571 23.7567C16.9942 23.7456 17.1387 23.7188 17.2907 23.6747L17.8884 23.4989C18.2176 23.4036 18.5607 23.4011 18.8962 23.5106L19.1657 23.5985L19.4411 23.6864C19.5939 23.7362 19.7495 23.7782 19.904 23.8094L20.1794 23.8622L20.4548 23.9208C20.5922 23.9485 20.7342 23.96 20.8766 23.9618L21.1579 23.9677L21.445 23.9735C21.6844 23.9767 21.9209 24.0034 22.154 24.0555L22.4294 24.1141L22.7048 24.1786C22.8868 24.2194 23.0734 24.2619 23.2556 24.3016L23.8063 24.4188C24.0009 24.4613 24.1935 24.5129 24.3864 24.5653L24.6618 24.6356L24.9372 24.7118C25.156 24.7714 25.3713 24.8469 25.5817 24.9403L25.8513 25.0634L26.1149 25.1805C26.231 25.2321 26.347 25.2638 26.4606 25.2802L26.7419 25.3212L27.0173 25.3622C27.2423 25.3942 27.4615 25.4403 27.6618 25.5145L27.8727 25.5966L28.0837 25.6727C28.3083 25.7566 28.5155 25.918 28.6403 26.1649C28.7554 26.3939 28.7642 26.6292 28.7458 26.8094L28.6872 27.3719C28.6532 27.7005 28.5297 27.9994 28.3415 28.2626L28.1657 28.5145L27.9841 28.7665C27.911 28.8687 27.8679 28.965 27.8434 29.0536L27.7673 29.3231L27.6911 29.5985C27.6444 29.7677 27.601 29.9376 27.5622 30.1083L27.5036 30.3837L27.4391 30.6591C27.4065 30.8029 27.3853 30.9493 27.3747 31.0985L27.3513 31.3856L27.2634 32.7919C27.2488 33.025 27.214 33.2573 27.1579 33.4833L27.0876 33.7587L27.0173 34.0282C26.9699 34.2186 26.9189 34.4133 26.8649 34.6024L26.5602 35.6805L26.4841 35.9559L26.4079 36.2255C26.3754 36.3414 26.3561 36.4634 26.3552 36.5887V37.1571C26.3534 37.3929 26.3291 37.6304 26.2849 37.8602L26.1794 38.411C26.1489 38.5695 26.1232 38.7292 26.1091 38.8915L26.0622 39.454C26.0333 39.7862 25.9113 40.0905 25.7224 40.3563L25.5407 40.6083L25.3649 40.8602C25.3596 40.8677 25.355 40.8743 25.3532 40.8778V40.8895L25.3825 41.1825L25.4177 41.4755C25.452 41.7899 25.4085 42.1005 25.2888 42.3954L25.1833 42.6649L25.072 42.9286C25.0702 42.9325 25.0616 42.9485 25.0778 43.0048L25.2536 43.6141C25.3505 43.947 25.3586 44.2976 25.2419 44.6395L25.1481 44.9091L25.0602 45.1786C25.0034 45.3454 24.9503 45.5142 24.902 45.6825L24.8259 45.952L24.7438 46.2216C24.6903 46.4083 24.638 46.5983 24.5798 46.7841L24.4919 47.0536L24.4099 47.3231C24.3633 47.472 24.3258 47.6221 24.2985 47.7743L24.2458 48.0555L24.1989 48.3309C24.175 48.4654 24.1611 48.6038 24.1638 48.7469L24.1696 49.0341L24.1755 49.327C24.1826 49.727 24.0353 50.0806 23.7888 50.3641L23.572 50.6102L23.361 50.8505C23.2898 50.9322 23.2644 50.9965 23.2556 51.038L23.1384 51.5887C23.0978 51.7776 23.0604 51.9532 23.0212 52.1102L22.9626 52.327L22.9099 52.5497C22.8517 52.7826 22.7071 53.0243 22.447 53.1766C22.208 53.316 21.9554 53.3279 21.7731 53.3114L21.2106 53.2645C20.8249 53.2292 20.4982 53.0502 20.238 52.8016L19.9977 52.5673L19.8806 52.4559L19.7106 52.5321L19.4001 52.6727C19.2012 52.7628 18.9663 52.8216 18.7145 52.7958C18.46 52.7695 18.2385 52.6651 18.0583 52.5204L17.8063 52.3212L17.5602 52.1161C17.4835 52.0547 17.4256 52.0351 17.3845 52.0282L17.1091 51.9813L16.8278 51.9344C16.7155 51.916 16.5932 51.9136 16.4645 51.9286L15.8786 51.9989C15.5567 52.0359 15.2402 51.988 14.9411 51.8583L14.6716 51.7469L14.4079 51.6298C14.2392 51.5564 14.0678 51.4866 13.8981 51.4188L13.3708 51.2079C13.3645 51.2085 13.3493 51.2106 13.3239 51.2196L13.0192 51.3309L12.7087 51.4364C12.2925 51.584 11.8527 51.5422 11.4724 51.2782L11.2204 51.1024L10.9626 50.9266C10.8787 50.8688 10.8037 50.8432 10.7399 50.8329L10.4645 50.786L10.1891 50.745C10.0863 50.7283 9.97302 50.726 9.8493 50.745L9.55048 50.7919L9.25751 50.8329C8.85166 50.8953 8.46959 50.7907 8.15009 50.5516L7.64618 50.1766C7.57386 50.1228 7.51925 50.1063 7.47626 50.1005L6.91376 50.0302C6.69529 50.0025 6.41079 49.9427 6.17548 49.7782L5.92938 49.6024C5.66192 49.4145 5.55675 49.1304 5.54852 48.8817C5.54199 48.6685 5.60447 48.4801 5.65985 48.3485L5.77118 48.0848L5.86493 47.8622C5.86291 47.8569 5.85665 47.8521 5.85321 47.8446L5.71259 47.5282L5.5661 47.2118C5.47362 47.0107 5.41351 46.7726 5.44305 46.5145C5.4731 46.2528 5.58963 46.0308 5.74188 45.8524L5.95282 45.6063L6.1579 45.3602C6.17972 45.3347 6.18707 45.3195 6.18719 45.3192L6.18134 45.038V44.7509C6.17748 44.4121 6.27042 44.0926 6.44501 43.8075L6.60321 43.5497L6.70868 43.3622L6.59735 43.0985L6.46259 42.788C6.37114 42.5746 6.321 42.319 6.37469 42.0497C6.4292 41.78 6.57124 41.5609 6.73798 41.3993L6.98407 41.1591L7.23016 40.9247L7.2243 40.6786L7.21259 40.3915C7.20344 40.1711 7.20875 39.9466 7.2243 39.7294L7.24188 39.4481L7.26532 39.1669C7.27873 38.9795 7.28748 38.7918 7.30048 38.6044L7.32391 38.3173L7.34149 38.036C7.36568 37.6901 7.49746 37.3798 7.69891 37.1102L7.88055 36.8583L8.06805 36.6063C8.08442 36.5844 8.09067 36.5737 8.09149 36.5712V36.5594L8.07977 36.2665L8.06219 35.9794C8.04578 35.6734 8.09474 35.3713 8.21454 35.0887L8.32587 34.8251L8.43134 34.579C8.4297 34.5732 8.42909 34.5649 8.42548 34.5555L8.30243 34.245L8.17938 33.9286C8.01378 33.5054 8.04548 33.0436 8.33173 32.6512L8.51337 32.4052L8.69501 32.1532C8.7733 32.0459 8.82294 31.9438 8.85321 31.8485L8.9411 31.579L9.02313 31.3094C9.04987 31.225 9.06575 31.1345 9.05829 31.0341L9.01141 30.4481C8.99125 30.1854 9.00948 29.9249 9.06415 29.6688L9.18134 29.118C9.23589 28.8629 9.32661 28.6174 9.45087 28.3856L9.58563 28.1278L9.72626 27.87C9.76707 27.7938 9.78777 27.72 9.79071 27.6473L9.80243 27.3661L9.81415 27.079C9.81954 26.9441 9.8099 26.8006 9.78485 26.6512L9.73212 26.3583L9.68524 26.0594C9.62015 25.6713 9.70289 25.2951 9.91962 24.9696L10.0895 24.7177L10.2536 24.4657C10.2945 24.4042 10.3048 24.3552 10.3063 24.3134L10.3181 24.0321L10.3298 23.745C10.3361 23.5714 10.3446 23.4026 10.3591 23.3055L10.3708 23.2411L10.3766 23.1708C10.3915 23.0711 10.4646 22.7437 10.8102 22.579ZM11.777 24.5126C11.7431 24.7945 11.6586 25.062 11.5016 25.2977L11.3376 25.5497L11.1677 25.8016L11.1618 25.8134L11.2145 26.1063L11.2614 26.4052C11.3025 26.6501 11.3179 26.8944 11.3083 27.1376L11.2849 27.7118C11.2721 28.0176 11.1944 28.3104 11.0505 28.579L10.7692 29.0946C10.7086 29.2078 10.6699 29.3232 10.6462 29.4344L10.5876 29.704L10.529 29.9794C10.5054 30.0897 10.4959 30.2116 10.5056 30.3368L10.529 30.6239L10.5524 30.9169C10.5744 31.2031 10.5452 31.4867 10.4587 31.7606L10.2829 32.2997C10.1993 32.5638 10.0729 32.8118 9.9079 33.038L9.72626 33.2899L9.59735 33.454L9.69696 33.6942L9.82001 34.0048C9.9606 34.3626 9.98392 34.7607 9.82001 35.1473L9.59735 35.6747C9.56775 35.7445 9.55213 35.8171 9.55634 35.8973L9.57391 36.1903L9.59149 36.4774C9.61199 36.8595 9.49056 37.2127 9.26923 37.5087L9.08173 37.7548L8.90009 38.0067C8.85314 38.0695 8.84361 38.1109 8.84149 38.1415L8.81805 38.4227L8.80048 38.704C8.7874 38.8926 8.77296 39.0838 8.75946 39.2723L8.74188 39.5594L8.71844 39.8407C8.70709 40 8.70575 40.1623 8.71259 40.327L8.7243 40.6141L8.73602 40.9071C8.75384 41.352 8.55976 41.7255 8.27313 42.0028L8.02704 42.2372L7.90399 42.3485L7.9743 42.5067L8.10907 42.8231C8.27831 43.2191 8.28778 43.6693 8.03876 44.077L7.88055 44.3348L7.72235 44.5868C7.68842 44.6421 7.68083 44.6892 7.68134 44.7333V45.0204L7.68719 45.3075C7.69148 45.7021 7.54192 46.0499 7.30048 46.3329L7.08954 46.579L6.97821 46.702L7.07196 46.9012L7.21844 47.2177C7.38273 47.5753 7.43748 47.9913 7.26532 48.4012L7.19501 48.5536L7.66376 48.6122C7.9921 48.654 8.28981 48.7817 8.54852 48.9755L8.80048 49.163L9.04071 49.3446L9.32782 49.3094L9.62079 49.2626C9.89025 49.2211 10.1622 49.2193 10.4294 49.2626L10.7048 49.3094L10.9802 49.3505C11.2861 49.4 11.5721 49.5212 11.8239 49.6962L12.0759 49.8719L12.2634 50.0009L12.5153 49.913L12.82 49.8075C13.0835 49.714 13.3663 49.6792 13.6462 49.7313L13.9274 49.8134L14.4548 50.0243C14.6382 50.0975 14.8234 50.1736 15.0056 50.2528L15.2692 50.37L15.5388 50.4872C15.5898 50.5089 15.6427 50.5183 15.7087 50.5106L16.2946 50.4403C16.556 50.41 16.8167 50.4153 17.0739 50.4579L17.3493 50.5048L17.6306 50.5516C17.9583 50.6063 18.2517 50.7471 18.5036 50.9501L18.7497 51.1493L18.8845 51.2548L19.0954 51.1669L19.4059 51.0262L19.7458 50.9208C19.8678 50.9004 19.9982 50.8993 20.1325 50.9208C20.2661 50.9423 20.3865 50.986 20.4958 51.0438L20.7888 51.2548L21.0349 51.4833L21.2751 51.7177C21.3078 51.7488 21.3307 51.7602 21.3395 51.7645L21.3454 51.7704L21.5505 51.7821L21.5622 51.7469C21.5967 51.6087 21.6356 51.4492 21.6735 51.2723L21.7907 50.7216C21.8605 50.3964 22.0177 50.11 22.2302 49.8661L22.4411 49.62L22.652 49.3798C22.6615 49.3689 22.6658 49.3563 22.6696 49.3505V49.0634L22.6638 48.7762C22.6592 48.5372 22.6808 48.3006 22.7224 48.0673L22.7692 47.7919L22.822 47.5106C22.8605 47.2953 22.9146 47.0814 22.9802 46.8719L23.1442 46.3329C23.1986 46.1594 23.2524 45.9858 23.3024 45.8114L23.3786 45.536L23.4606 45.2665C23.5158 45.074 23.5773 44.8826 23.6423 44.6923L23.7302 44.4227L23.8239 44.1532C23.8293 44.1368 23.8376 44.1045 23.8181 44.036L23.7243 43.7313L23.6364 43.4266C23.5354 43.0797 23.5405 42.7107 23.6833 42.3602L23.7888 42.0966L23.9001 41.8329C23.9235 41.7754 23.9315 41.7144 23.9235 41.6395L23.8942 41.3466L23.8591 41.0536C23.8167 40.6672 23.9206 40.3024 24.1403 39.993L24.322 39.7411L24.4977 39.4891C24.5465 39.4208 24.5643 39.3677 24.5681 39.3251L24.6149 38.7626C24.6334 38.55 24.6627 38.3385 24.7028 38.1298L24.7556 37.8485L24.8083 37.5731C24.8348 37.435 24.8541 37.2911 24.8552 37.1454V36.577C24.8571 36.321 24.8918 36.0669 24.9606 35.8212L25.0368 35.5516L25.113 35.2762C25.1641 35.0943 25.2193 34.9131 25.2712 34.7313L25.3474 34.4618L25.4235 34.1864C25.4724 34.0148 25.5212 33.8435 25.5641 33.6708L25.6286 33.3954L25.6989 33.12C25.7329 32.9829 25.7544 32.8414 25.7634 32.6981L25.7985 32.1356C25.8105 31.9449 25.8262 31.7519 25.8395 31.5614L25.8571 31.2802L25.8747 30.993C25.8907 30.7676 25.9244 30.5446 25.9743 30.3251L26.1032 29.7743C26.1472 29.5809 26.1968 29.3857 26.2497 29.1942L26.32 28.9247L26.3962 28.6552C26.4718 28.3815 26.5992 28.1256 26.7653 27.8934L26.947 27.6415L27.1227 27.3895C27.1733 27.3186 27.1941 27.2655 27.1989 27.2196L27.2224 26.9501L27.1403 26.9208C27.0621 26.8919 26.9511 26.8652 26.8063 26.8446L26.5309 26.8036L26.2497 26.7684C25.9934 26.7318 25.7438 26.6575 25.5056 26.5516L25.2419 26.4344L24.9724 26.3114C24.83 26.2483 24.6872 26.198 24.5446 26.1591L24.2692 26.0829L23.9938 26.0126C23.8242 25.9664 23.6549 25.921 23.4841 25.8837L22.9333 25.7665C22.7483 25.7261 22.5615 25.6849 22.3766 25.6434L22.1013 25.579L21.8259 25.5204C21.694 25.4909 21.5586 25.4752 21.4216 25.4735L21.1403 25.4677L20.8532 25.4618C20.6184 25.4587 20.3854 25.4379 20.1559 25.3915L19.8806 25.3329L19.6052 25.2802C19.3923 25.2371 19.1803 25.1781 18.9724 25.1102L18.4333 24.9344C18.4081 24.9262 18.3707 24.921 18.3044 24.9403L18.0056 25.0282L17.7126 25.1102C17.4691 25.181 17.2203 25.2311 16.9743 25.2509L16.4001 25.2977C16.109 25.321 15.8216 25.2851 15.5446 25.1923L15.2692 25.0985L14.9997 25.0106C14.8502 24.9604 14.6996 24.917 14.5485 24.8876L13.9977 24.7821C13.8391 24.7512 13.6785 24.7261 13.5173 24.7118L12.9548 24.6649C12.7574 24.6474 12.5592 24.6264 12.363 24.6005L12.0876 24.5594L11.8063 24.5243C11.7963 24.523 11.7873 24.5141 11.777 24.5126ZM27.2516 26.6688V26.6805L27.2575 26.6571C27.2575 26.6573 27.2516 26.6615 27.2516 26.6688Z" fill="black"/>
<path d="M19.5467 24.9934L20.1092 25.1047L20.2733 25.1106L20.2674 25.134L20.2791 25.1399L20.2674 25.1809L20.2615 25.6262C20.2526 26.026 20.1869 26.4595 19.9568 26.804L19.617 27.3079C19.617 27.3079 19.616 27.3134 19.617 27.3196L19.6639 27.6125L19.7166 27.9114C19.7574 28.1572 19.7737 28.4057 19.7635 28.6497L19.7518 28.9309L19.7401 29.218C19.7269 29.524 19.6443 29.8167 19.4998 30.0852L19.2186 30.6008C19.1581 30.7132 19.1195 30.8244 19.0955 30.9348L19.0311 31.2102L18.9725 31.4856C18.9489 31.5954 18.9456 31.7126 18.9549 31.8372L18.9725 32.1301L18.9959 32.4231C19.0174 32.7096 18.9835 32.9928 18.8963 33.2668L18.8143 33.5364L18.7264 33.8059C18.6427 34.0687 18.5157 34.3132 18.3514 34.5383L18.1639 34.7903L18.0408 34.9543L18.1346 35.2004L18.2576 35.511C18.3974 35.8688 18.422 36.2676 18.2576 36.6536L18.035 37.1809C18.0052 37.2508 17.9898 37.3231 17.994 37.4036L18.0115 37.6907L18.0291 37.9836C18.0485 38.3644 17.9276 38.7142 17.7068 39.009L17.5193 39.261L17.3318 39.5071C17.2857 39.5685 17.2757 39.6114 17.2733 39.6418L17.2498 39.929L17.2322 40.2102C17.2189 40.399 17.205 40.5898 17.1912 40.7786L17.1736 41.0598L17.1502 41.3411C17.1386 41.5002 17.1378 41.6628 17.1443 41.8274L17.1561 42.1204L17.1678 42.4075C17.1856 42.8524 16.9914 43.2261 16.7049 43.5032L16.4588 43.7434L16.3358 43.8547L16.4002 44.0071L16.535 44.3235C16.7043 44.7204 16.7094 45.1693 16.4588 45.5774L16.3006 45.8352L16.1483 46.093C16.1147 46.1478 16.1009 46.1898 16.1014 46.2336L16.1072 46.5208V46.8079C16.1111 47.2029 15.9628 47.5503 15.7205 47.8333L15.4041 48.2024L15.492 48.4016L15.6385 48.718C15.8023 49.0761 15.8527 49.4917 15.6795 49.9016L15.4568 50.429C15.3836 50.6023 15.3336 50.7264 15.3045 50.804L15.2518 50.9446L15.199 51.0793C15.1773 51.1372 15.1436 51.2251 15.0936 51.3079C15.0707 51.3455 15.0178 51.4292 14.9295 51.5071C14.8493 51.5775 14.6071 51.757 14.2674 51.6887L14.244 51.6829L13.8221 51.595L13.6815 51.1907L13.6404 51.0793L14.1619 50.8977L13.5994 50.7864L13.617 50.6868L14.0096 48.7532L13.9861 48.7122C13.8942 48.5114 13.8395 48.2722 13.869 48.0149C13.8994 47.7527 14.009 47.5253 14.1619 47.3469L14.3729 47.1067L14.5838 46.8606C14.6034 46.8377 14.6061 46.8222 14.6072 46.8196V46.5325L14.6014 46.2454C14.5985 45.9071 14.6959 45.5865 14.8709 45.302L15.0233 45.05L15.1346 44.8625L15.0233 44.5989L14.8885 44.2825C14.7974 44.0684 14.7457 43.8139 14.8006 43.5442C14.8558 43.2746 15.0026 43.0609 15.1697 42.8997L15.4158 42.6594L15.6619 42.425L15.6561 42.179L15.6443 41.8918C15.6355 41.6714 15.6402 41.447 15.6561 41.2297L15.6736 40.9485L15.6971 40.6672C15.7108 40.4798 15.7248 40.2923 15.7381 40.1047L15.7557 39.8176L15.7791 39.5364C15.8039 39.1912 15.9294 38.8795 16.1307 38.6106L16.3182 38.3586L16.5057 38.1125L16.5291 38.0715V38.0598L16.5115 37.7727L16.4998 37.4797C16.4839 37.1747 16.5327 36.8765 16.6522 36.595L16.7693 36.3313L16.869 36.0793C16.8672 36.0734 16.8667 36.0652 16.8631 36.0559L16.617 35.4348C16.4512 35.0109 16.488 34.55 16.7752 34.1575L17.1385 33.6536C17.2167 33.5464 17.2664 33.4441 17.2967 33.3489L17.4725 32.8098C17.499 32.7255 17.5094 32.6349 17.5018 32.5344L17.4783 32.2415L17.4549 31.9543C17.435 31.6912 17.4525 31.4255 17.5076 31.1692L17.5662 30.8997L17.6248 30.6243C17.6797 30.369 17.7755 30.1237 17.9002 29.8918L18.035 29.634L18.1756 29.3704C18.2159 29.295 18.237 29.2256 18.2401 29.1536L18.2518 28.8665L18.2635 28.5852C18.2692 28.4501 18.259 28.3071 18.2342 28.1575L18.1873 27.8586L18.1346 27.5657C18.0702 27.1783 18.1528 26.8005 18.369 26.4758L18.5389 26.2239L18.7088 25.9661C18.7127 25.9574 18.7228 25.9361 18.7322 25.8958C18.7475 25.8304 18.7584 25.7326 18.7615 25.5969L18.7733 25.0754L18.7791 25.011L18.7908 24.9465L18.8084 24.8469L19.5467 24.9934Z" fill="black"/>
<path d="M10.4977 28.7361C10.8969 28.7269 11.3271 28.7743 11.6813 28.988L11.9449 29.1404L12.2028 29.2986C12.2098 29.3028 12.2141 29.3043 12.2145 29.3044L12.8004 29.1755C13.0439 29.1235 13.2889 29.1004 13.5328 29.0994L13.8199 29.0935H14.1012C14.4076 29.0923 14.705 29.1609 14.9801 29.2927L15.2438 29.4216L15.5133 29.5505C15.6284 29.6055 15.7417 29.6432 15.8531 29.6619L16.1285 29.7029L16.4098 29.7498C16.5204 29.7681 16.6375 29.7707 16.7614 29.7556L17.0485 29.7205L17.3414 29.6853C17.6265 29.6507 17.9135 29.6694 18.191 29.7439L18.4606 29.8201L18.736 29.8904C19.0031 29.9621 19.253 30.0816 19.486 30.2361L19.7438 30.406L19.9137 30.5173L20.1539 30.4177L20.4586 30.283C20.7214 30.166 21.0092 30.1123 21.3024 30.1541L21.6012 30.2302L22.1403 30.4294C22.2108 30.4554 22.2834 30.4666 22.3629 30.4587L22.9371 30.4001C23.318 30.3627 23.6746 30.4676 23.9801 30.6755L24.4957 31.0271C24.5582 31.0694 24.6002 31.0787 24.6305 31.0798L24.9176 31.0857L25.1989 31.0916C25.3879 31.0962 25.5782 31.104 25.7672 31.1091L26.0543 31.115L26.3356 31.1208C26.4423 31.1237 26.5593 31.1322 26.6637 31.1501C26.714 31.1589 26.7918 31.1757 26.8746 31.2087C26.9313 31.2314 27.1389 31.3176 27.2731 31.5486L27.3024 31.5955L27.525 31.9822L27.2906 32.3572L27.2438 32.4333L26.693 32.0994L26.5875 32.8025L26.4938 32.7908L25.3805 32.6208L25.3922 32.5974C25.316 32.5955 25.2399 32.5934 25.1637 32.5916L24.8766 32.5857L24.5953 32.5798C24.2483 32.5711 23.9305 32.453 23.652 32.2634L23.1364 31.9119L23.0953 31.8943H23.0836L22.5094 31.9529C22.2045 31.9829 21.9005 31.9428 21.6129 31.8357L21.3434 31.7361L21.0856 31.6423C21.0804 31.6442 21.0752 31.6508 21.068 31.6541L20.4586 31.9236C20.0432 32.1085 19.5804 32.0979 19.1754 31.8298L18.9176 31.6599L18.6598 31.4841C18.5488 31.4105 18.4402 31.3695 18.3434 31.3435L18.0739 31.2673L17.7985 31.197C17.7127 31.1741 17.6234 31.1673 17.5231 31.1794L17.2301 31.2146L16.943 31.2498C16.681 31.2817 16.4164 31.2755 16.1578 31.2322L15.6071 31.1384C15.3503 31.0954 15.0996 31.0175 14.8629 30.9041L14.5992 30.7751L14.3297 30.6462C14.2525 30.6094 14.1792 30.5932 14.1071 30.5935H13.8258L13.5387 30.5994C13.4043 30.6 13.2642 30.6148 13.1168 30.6462L12.818 30.7048L12.525 30.7693C12.1406 30.8512 11.7638 30.7836 11.4293 30.5818L11.1656 30.4294L10.9078 30.2712C10.9023 30.2689 10.8795 30.2567 10.8317 30.2478C10.7657 30.2356 10.668 30.2271 10.5328 30.2302L10.0114 30.2478H9.9469L9.87659 30.2361L9.78284 30.2244L9.89417 29.4802L9.9762 28.9119V28.7478H9.99963L10.0055 28.7361L10.0582 28.7478L10.4977 28.7361Z" fill="black"/>
<path d="M9.44861 33.9888C9.84786 33.9795 10.2781 34.027 10.6322 34.2407L10.8959 34.3931L11.1537 34.5513C11.1608 34.5555 11.165 34.557 11.1654 34.5571L11.7513 34.4282C11.9948 34.3762 12.2398 34.3531 12.4838 34.3521L12.7709 34.3462H13.0521C13.3586 34.345 13.6559 34.4135 13.931 34.5454L14.1947 34.6743L14.4642 34.8032C14.5792 34.8581 14.6927 34.89 14.8041 34.9087L15.0795 34.9556L15.3607 35.0024C15.4714 35.0208 15.5884 35.0234 15.7123 35.0083L15.9994 34.9731L16.2924 34.938C16.5774 34.9034 16.8644 34.9221 17.142 34.9966L17.4115 35.0728L17.6869 35.1431C17.9541 35.2148 18.2039 35.3343 18.4369 35.4888L18.6947 35.6587L18.8646 35.77L19.1049 35.6704L19.4095 35.5356C19.6724 35.4186 19.96 35.365 20.2533 35.4067L20.5521 35.4829L21.0912 35.6821C21.1617 35.708 21.2344 35.7192 21.3138 35.7114L21.8881 35.6528C22.2689 35.6154 22.6255 35.7203 22.931 35.9282L23.4467 36.2798C23.5089 36.3219 23.5512 36.3314 23.5814 36.3325L23.8685 36.3384L24.1498 36.3442C24.3388 36.3489 24.5292 36.3509 24.7181 36.356L25.0052 36.3677L25.2865 36.3735C25.3934 36.3764 25.5101 36.3848 25.6146 36.4028C25.6651 36.4116 25.7434 36.4289 25.8256 36.4614C25.8547 36.473 25.9172 36.4996 25.9896 36.5493L26.2181 36.7896L26.2474 36.8306L26.476 37.2056L26.2592 37.5923L26.2181 37.6685L25.6556 37.3521L25.5502 38.0552L25.4506 38.0435L24.3783 37.8794L24.39 37.8442C24.2983 37.8419 24.2064 37.8465 24.1146 37.8442L23.8334 37.8384L23.5463 37.8267C23.1993 37.8179 22.8814 37.7057 22.6029 37.5161L22.0873 37.1646C22.0694 37.1525 22.0572 37.1487 22.0521 37.147H22.0345L21.4603 37.2056C21.1554 37.2356 20.8514 37.1955 20.5638 37.0884L20.2943 36.9888L20.0365 36.895C20.0314 36.8969 20.026 36.9036 20.0189 36.9067L19.4095 37.1763C18.9942 37.3612 18.5313 37.3505 18.1263 37.0825L17.8685 36.9126L17.6107 36.7368C17.4997 36.6632 17.3911 36.6222 17.2943 36.5962L17.0248 36.52L16.7494 36.4438C16.6642 36.4212 16.5736 36.4143 16.474 36.4263L16.181 36.4614L15.8939 36.5024C15.632 36.5344 15.3674 36.5282 15.1088 36.4849L14.558 36.3911C14.3004 36.348 14.0512 36.2648 13.8138 36.1509L13.5502 36.0278L13.2806 35.8989C13.2034 35.8621 13.1302 35.8459 13.058 35.8462H12.7767L12.4896 35.8521C12.3552 35.8527 12.2152 35.8675 12.0677 35.8989L11.7689 35.9575L11.476 36.022C11.0916 36.1038 10.7147 36.0362 10.3802 35.8345L10.1166 35.6821L9.85876 35.5239C9.85324 35.5215 9.83037 35.5094 9.78259 35.5005C9.71659 35.4883 9.61893 35.4798 9.48376 35.4829L8.96228 35.5005H8.89783L8.82751 35.4888L8.73376 35.4771L8.84509 34.7329L8.92712 34.1646V34.0005H8.95056L8.95642 33.9888L9.00916 34.0005L9.44861 33.9888Z" fill="black"/>
<path d="M8.69843 39.2413C9.09769 39.2321 9.52788 39.2796 9.88202 39.4933L10.1457 39.6456L10.4035 39.8038C10.4106 39.8081 10.4148 39.8095 10.4152 39.8097L11.0012 39.6808C11.2446 39.6287 11.4896 39.6057 11.7336 39.6046L12.0207 39.5988H12.3019C12.6084 39.5975 12.9058 39.6661 13.1808 39.798L13.4445 39.9269L13.7141 40.0558C13.8291 40.1107 13.9425 40.1485 14.0539 40.1671L14.3293 40.2081L14.6105 40.255C14.7212 40.2733 14.8382 40.276 14.9621 40.2609L15.2492 40.2257L15.5422 40.1906C15.8272 40.156 16.1142 40.1747 16.3918 40.2491L16.6613 40.3253L16.9367 40.3956C17.2039 40.4674 17.4537 40.5869 17.6867 40.7413L17.9445 40.9113L18.1144 41.0226L18.3547 40.923L18.6594 40.7882C18.9221 40.6713 19.2099 40.6176 19.5031 40.6593L19.8019 40.7355L20.341 40.9347C20.4116 40.9607 20.4842 40.9718 20.5637 40.964L21.1379 40.9054C21.5187 40.868 21.8754 40.9728 22.1808 41.1808L22.6965 41.5323C22.7589 41.5747 22.8009 41.5839 22.8312 41.5851L23.1183 41.5909L23.3996 41.5968C23.5887 41.6015 23.779 41.6093 23.968 41.6144L24.2551 41.6202L24.5363 41.6261C24.643 41.629 24.7601 41.6374 24.8644 41.6554C24.9147 41.6641 24.9926 41.6809 25.0754 41.714C25.1321 41.7367 25.3396 41.8229 25.4738 42.0538L25.5031 42.1007L25.7258 42.4874L25.4914 42.8624L25.4445 42.9386L24.8937 42.6046L24.7883 43.3077L24.6945 43.296L23.5812 43.1261L23.593 43.1027C23.5168 43.1007 23.4406 43.0987 23.3644 43.0968L23.0773 43.0909L22.7961 43.0851C22.449 43.0763 22.1312 42.9583 21.8527 42.7687L21.3371 42.4171L21.2961 42.3995H21.2844L20.7101 42.4581C20.4052 42.4881 20.1012 42.4481 19.8137 42.3409L19.5441 42.2413L19.2863 42.1476C19.2811 42.1495 19.276 42.1561 19.2687 42.1593L18.6594 42.4288C18.2439 42.6138 17.7812 42.6032 17.3762 42.3351L17.1183 42.1652L16.8605 41.9894C16.7495 41.9157 16.6409 41.8747 16.5441 41.8488L16.2746 41.7726L15.9992 41.7023C15.9134 41.6793 15.8242 41.6726 15.7238 41.6847L15.4308 41.7198L15.1437 41.755C14.8818 41.787 14.6172 41.7807 14.3586 41.7374L13.8078 41.6437C13.551 41.6007 13.3004 41.5227 13.0637 41.4093L12.8 41.2804L12.5305 41.1515C12.4532 41.1147 12.38 41.0985 12.3078 41.0988H12.0266L11.7394 41.1046C11.605 41.1052 11.465 41.1201 11.3176 41.1515L11.0187 41.2101L10.7258 41.2745C10.3414 41.3564 9.96454 41.2888 9.63007 41.087L9.36639 40.9347L9.10858 40.7765C9.10308 40.7741 9.08023 40.7619 9.03241 40.7531C8.96641 40.7409 8.86875 40.7324 8.73358 40.7355L8.2121 40.7531H8.14764L8.07733 40.7413L7.98358 40.7296L8.09491 39.9855L8.17694 39.4171V39.2531H8.20038L8.20624 39.2413L8.25897 39.2531L8.69843 39.2413Z" fill="black"/>
<path d="M7.52228 43.6206C7.92163 43.6115 8.35173 43.6587 8.70587 43.8726L8.96954 44.0308L9.22736 44.1831C9.23367 44.1869 9.23809 44.1886 9.23907 44.189L9.53204 44.1245L9.82501 44.0659C10.0684 44.014 10.3135 43.9849 10.5574 43.9839H10.8445L11.1258 43.978C11.4327 43.9769 11.7293 44.0508 12.0047 44.1831L12.2684 44.3062L12.5379 44.4351C12.6532 44.4903 12.7661 44.5276 12.8777 44.5464L13.1531 44.5933L13.4344 44.6401C13.5448 44.6584 13.6623 44.661 13.7859 44.646L14.0731 44.6108L14.366 44.5757C14.6512 44.5412 14.938 44.5597 15.2156 44.6343L15.4852 44.7046L15.7606 44.7808C16.0277 44.8527 16.2776 44.9718 16.5106 45.1265L16.7684 45.2964L16.9383 45.4077L17.1785 45.3081L17.4832 45.1733C17.7463 45.0564 18.0335 45.0025 18.327 45.0444L18.6258 45.1206L19.1649 45.3198C19.2352 45.3456 19.3083 45.3569 19.3875 45.3491L19.9617 45.2905C20.3426 45.2532 20.6993 45.3578 21.0047 45.5659L21.5203 45.9175C21.5828 45.9598 21.6248 45.9691 21.6551 45.9702L21.9422 45.9761L22.2234 45.9819C22.4127 45.9867 22.6026 45.9943 22.7918 45.9995L23.0789 46.0054L23.3602 46.0112C23.4667 46.0142 23.5841 46.0225 23.6883 46.0405C23.7386 46.0493 23.8168 46.0662 23.8992 46.0991C23.9282 46.1107 23.9935 46.1395 24.0692 46.1929L24.2977 46.439L24.3211 46.4858L24.5438 46.8667L24.3211 47.2476L24.2742 47.3237L23.7176 46.9897L23.6121 47.6929L23.5184 47.6812L22.4109 47.5112L22.4227 47.4878C22.3446 47.4858 22.2664 47.4839 22.1883 47.4819L21.9012 47.4761L21.6199 47.4702C21.2729 47.4615 20.9551 47.3434 20.6766 47.1538L20.1609 46.8022L20.1199 46.7847H20.1082L19.8211 46.814L19.534 46.8374C19.2292 46.8673 18.925 46.8332 18.6375 46.7261L18.368 46.6265L18.116 46.5269C18.1097 46.5289 18.1034 46.5396 18.0926 46.5444L17.4832 46.814C17.0674 46.9989 16.6052 46.9832 16.2 46.7144L15.9422 46.5444L15.6785 46.3745C15.5682 46.3015 15.4642 46.2539 15.368 46.228L15.0984 46.1577L14.8231 46.0815C14.7376 46.0586 14.6476 46.0521 14.5477 46.064L14.2547 46.0991L13.9676 46.1343C13.7056 46.1661 13.441 46.1601 13.1824 46.1167L12.907 46.0698L12.6258 46.0229C12.37 45.9797 12.1233 45.9017 11.8875 45.7886L11.618 45.6597L11.3543 45.5308C11.2772 45.494 11.2037 45.4778 11.1317 45.478L10.8504 45.4839H10.5633C10.4289 45.4844 10.2888 45.4995 10.1414 45.5308L9.84259 45.5952L9.54962 45.6538C9.16599 45.7355 8.78786 45.673 8.45392 45.4722L8.19025 45.314L7.93243 45.1558C7.93893 45.1595 7.91943 45.15 7.85626 45.1382C7.79028 45.1259 7.69306 45.1176 7.55743 45.1206L7.03595 45.1323H6.9715L6.90118 45.1206L6.80743 45.1089L6.91876 44.3647L7.00079 43.7964V43.6323H7.02423L7.03009 43.6206L7.08282 43.6323L7.52228 43.6206Z" fill="black"/>
<path d="M33.1633 26.2875C33.4798 26.1404 33.7544 26.2599 33.8254 26.2933C33.989 26.3706 34.1073 26.4969 34.1476 26.5394L34.2766 26.6683L34.3469 26.7504H34.3644L34.6398 26.7855L34.9211 26.8207C35.0962 26.8437 35.2721 26.8637 35.4484 26.8793L35.7297 26.9027L36.0109 26.932C36.2233 26.9508 36.4346 26.9792 36.6437 27.0199L37.1945 27.1254C37.4116 27.1676 37.6277 27.2243 37.8391 27.2953L38.1086 27.389L38.3781 27.4769C38.4615 27.5049 38.5499 27.5136 38.6418 27.5062L38.9289 27.4886L39.216 27.4652C39.353 27.4542 39.4976 27.4273 39.6496 27.3832L40.2473 27.2074C40.5762 27.1119 40.9197 27.1044 41.2551 27.2133L41.5246 27.307L41.8 27.3949C41.953 27.4447 42.1082 27.4809 42.2629 27.5121L42.8137 27.6293C42.9514 27.6571 43.0929 27.6686 43.2355 27.6703L43.5168 27.6761H43.8039C44.0443 27.6791 44.2846 27.7057 44.5187 27.7582L44.7941 27.8226L45.0637 27.8812C45.2457 27.922 45.4322 27.9646 45.6144 28.0043L45.8898 28.0629L46.1652 28.1273C46.3606 28.1699 46.5575 28.2154 46.7512 28.2679L47.0207 28.3441L47.2961 28.4144C47.5162 28.4742 47.7348 28.5548 47.9465 28.6488L48.2101 28.766L48.4797 28.8832C48.5959 28.9346 48.7115 28.9667 48.8254 28.9828L49.1008 29.0238L49.382 29.0648C49.6077 29.0969 49.8254 29.1463 50.0266 29.223L50.2375 29.3051L50.4426 29.3812C50.6674 29.4673 50.871 29.6331 50.9933 29.8793C51.1062 30.1077 51.1174 30.3441 51.0988 30.5238L51.0695 30.8051L51.0402 31.0804C51.0062 31.409 50.8828 31.7138 50.6945 31.9769L50.5187 32.223L50.3371 32.475C50.2639 32.5772 50.221 32.6735 50.1965 32.7621L50.1203 33.0316L50.0441 33.307C49.9973 33.4762 49.9541 33.6461 49.9152 33.8168L49.8508 34.0922L49.7922 34.3676C49.7592 34.5126 49.7383 34.6624 49.7277 34.8129L49.7043 35.0941L49.6867 35.3754C49.6736 35.562 49.6574 35.7509 49.6457 35.9379L49.6105 36.5004C49.5959 36.7335 49.5612 36.9658 49.5051 37.1918L49.4406 37.4672L49.3703 37.7426C49.3231 37.9323 49.2717 38.1226 49.218 38.3109L49.0656 38.85C49.0145 39.0292 48.9578 39.2097 48.9074 39.389L48.8312 39.6644L48.7551 39.934C48.7225 40.0499 48.7092 40.1719 48.7082 40.2972L48.7023 40.5844V40.8715C48.7003 41.1063 48.6761 41.3398 48.632 41.5687L48.5266 42.1195C48.4961 42.2777 48.4762 42.438 48.4621 42.6L48.4328 42.8812L48.4094 43.1625C48.3804 43.4957 48.2595 43.8043 48.0695 44.0707L47.8937 44.3168L47.7121 44.5687C47.7065 44.5766 47.7021 44.5829 47.7004 44.5863V44.598L47.7297 44.891L47.7648 45.184C47.7993 45.4994 47.7565 45.814 47.6359 46.1097L47.5305 46.3734L47.4191 46.6371C47.4171 46.6415 47.4095 46.659 47.425 46.7133L47.5187 47.0179L47.6066 47.3226C47.7035 47.6555 47.7058 48.0061 47.5891 48.348L47.5012 48.6176L47.4074 48.8871C47.3505 49.0538 47.2975 49.2227 47.2492 49.391L47.173 49.6605L47.091 49.9301C47.0374 50.1168 46.9852 50.3068 46.9269 50.4926L46.8391 50.7621L46.757 51.0316C46.7104 51.1804 46.673 51.3306 46.6457 51.4828L46.5988 51.764L46.5461 52.0394C46.5221 52.1738 46.5142 52.3123 46.5168 52.4554L46.5226 52.7426V53.0355C46.5297 53.4356 46.3826 53.7891 46.1359 54.0726L45.9191 54.3187L45.7082 54.559C45.637 54.6407 45.6116 54.705 45.6027 54.7465L45.4855 55.2972C45.445 55.4861 45.4076 55.6617 45.3683 55.8187L45.3098 56.0355L45.257 56.2582C45.1988 56.4911 45.0542 56.7328 44.7941 56.8851C44.5552 57.0245 44.3026 57.0364 44.1203 57.0199L43.5578 56.973C43.1721 56.9377 42.8453 56.7587 42.5851 56.5101L42.3449 56.2758L42.2277 56.1644L42.0578 56.2406L41.7473 56.3812C41.5483 56.4713 41.3135 56.5301 41.0617 56.5043C40.8071 56.478 40.5856 56.3736 40.4055 56.2289L40.1535 56.0297L39.9074 55.8246C39.8306 55.7632 39.7727 55.7436 39.7316 55.7367L39.4562 55.6898L39.175 55.6429C39.0627 55.6245 38.9404 55.6221 38.8117 55.6371L38.2258 55.7074C37.9038 55.7444 37.5874 55.6965 37.2883 55.5668L37.0187 55.4554L36.7551 55.3383C36.5864 55.2649 36.4149 55.1951 36.2453 55.1273L35.718 54.9164C35.7117 54.917 35.6964 54.9191 35.6711 54.9281L35.3664 55.0394L35.0558 55.1449C34.6397 55.2925 34.1998 55.2507 33.8195 54.9867L33.5676 54.8109L33.3098 54.6351C33.2259 54.5773 33.1509 54.5517 33.0871 54.5414L32.8117 54.4945L32.5363 54.4535C32.4335 54.4368 32.3202 54.4345 32.1965 54.4535L31.8976 54.5004L31.6047 54.5414C31.1988 54.6038 30.8168 54.4992 30.4973 54.2601L29.9933 53.8851C29.921 53.8313 29.8664 53.8148 29.8234 53.809L29.2609 53.7386C29.0425 53.711 28.758 53.6512 28.5226 53.4867L28.2766 53.3109C28.0091 53.123 27.9039 52.8389 27.8957 52.5902C27.8892 52.377 27.9516 52.1886 28.007 52.057L28.1183 51.7933L28.2121 51.5707C28.2101 51.5654 28.2038 51.5606 28.2004 51.5531L28.0598 51.2367L27.9133 50.9203C27.8208 50.7192 27.7607 50.4811 27.7902 50.223C27.8203 49.9613 27.9368 49.7393 28.0891 49.5609L28.3 49.3148L28.5051 49.0687C28.5269 49.0432 28.5342 49.028 28.5344 49.0277L28.5285 48.7465V48.4594C28.5246 48.1206 28.6176 47.8011 28.7922 47.516L28.9504 47.2582L29.0558 47.0707L28.9445 46.807L28.8098 46.4965C28.7183 46.2831 28.6682 46.0275 28.7219 45.7582C28.7764 45.4884 28.9184 45.2694 29.0851 45.1078L29.3312 44.8676L29.5773 44.6332L29.5715 44.3871L29.5598 44.1C29.5506 43.8796 29.5559 43.6551 29.5715 43.4379L29.5891 43.1566L29.6125 42.8754C29.6259 42.688 29.6346 42.5003 29.6476 42.3129L29.6711 42.0258L29.6887 41.7445C29.7128 41.3986 29.8446 41.0883 30.0461 40.8187L30.2277 40.5668L30.4152 40.3148C30.4316 40.2928 30.4378 40.2822 30.4387 40.2797V40.2679L30.4269 39.975L30.4094 39.6879C30.3929 39.3819 30.4419 39.0798 30.5617 38.7972L30.673 38.5336L30.7785 38.2875C30.7769 38.2817 30.7763 38.2734 30.7726 38.264L30.6496 37.9535L30.5266 37.6371C30.361 37.2139 30.3927 36.7521 30.6789 36.3597L30.8605 36.1136L31.0422 35.8617C31.1205 35.7544 31.1701 35.6523 31.2004 35.557L31.2883 35.2875L31.3703 35.0179C31.397 34.9335 31.4129 34.843 31.4055 34.7426L31.3586 34.1566C31.3384 33.8939 31.3566 33.6334 31.4113 33.3773L31.5285 32.8265C31.5831 32.5714 31.6738 32.3259 31.798 32.0941L31.9328 31.8363L32.0734 31.5785C32.1142 31.5023 32.1349 31.4285 32.1379 31.3558L32.1496 31.0746L32.1613 30.7875C32.1667 30.6526 32.1571 30.5091 32.132 30.3597L32.0793 30.0668L32.0324 29.7679C31.9673 29.3798 32.0501 29.0036 32.2668 28.6781L32.4367 28.4261L32.6008 28.1742C32.6417 28.1127 32.652 28.0637 32.6535 28.0219L32.6652 27.7406L32.6769 27.4535C32.6832 27.2799 32.6919 27.1109 32.7062 27.014L32.718 26.9496L32.7238 26.8793C32.7394 26.774 32.8154 26.4495 33.1633 26.2875ZM34.1242 28.2211C34.0902 28.503 34.0058 28.7705 33.8488 29.0062L33.6848 29.2582L33.5148 29.5101L33.509 29.5219L33.5617 29.8148L33.6086 30.1136C33.6497 30.3586 33.6651 30.6029 33.6555 30.8461L33.632 31.4203C33.6193 31.7261 33.5416 32.0189 33.3976 32.2875L33.1164 32.8031C33.0557 32.9163 33.0171 33.0317 32.9933 33.1429L32.9348 33.4125L32.8762 33.6879C32.8526 33.7982 32.8431 33.9201 32.8527 34.0453L32.8762 34.3324L32.8996 34.6254C32.9216 34.9116 32.8923 35.1952 32.8058 35.4691L32.6301 36.0082C32.5464 36.2723 32.4201 36.5203 32.2551 36.7465L32.0734 36.9984L31.9445 37.1625L32.0441 37.4027L32.1672 37.7133C32.3078 38.0711 32.3311 38.4692 32.1672 38.8558L31.9445 39.3832C31.9149 39.453 31.8993 39.5256 31.9035 39.6058L31.9211 39.8988L31.9387 40.1859C31.9592 40.568 31.8377 40.9212 31.6164 41.2172L31.4289 41.4633L31.2473 41.7152C31.2003 41.778 31.1908 41.8194 31.1887 41.85L31.1652 42.1312L31.1476 42.4125C31.1346 42.6011 31.1201 42.7923 31.1066 42.9808L31.0891 43.2679L31.0656 43.5492C31.0543 43.7085 31.0529 43.8708 31.0598 44.0355L31.0715 44.3226L31.0832 44.6156C31.101 45.0605 30.9069 45.434 30.6203 45.7113L30.3742 45.9457L30.2512 46.057L30.3215 46.2152L30.4562 46.5316C30.6255 46.9276 30.6349 47.3778 30.3859 47.7855L30.2277 48.0433L30.0695 48.2953C30.0356 48.3506 30.028 48.3977 30.0285 48.4418V48.7289L30.0344 49.016C30.0386 49.4105 29.8891 49.7584 29.6476 50.0414L29.4367 50.2875L29.3254 50.4105L29.4191 50.6097L29.5656 50.9261C29.7299 51.2837 29.7846 51.6998 29.6125 52.1097L29.5422 52.2621L30.0109 52.3207C30.3393 52.3625 30.637 52.4901 30.8957 52.684L31.1476 52.8715L31.3879 53.0531L31.675 53.0179L31.968 52.9711C32.2374 52.9296 32.5094 52.9278 32.7766 52.9711L33.0519 53.0179L33.3273 53.059C33.6332 53.1085 33.9193 53.2297 34.1711 53.4047L34.423 53.5804L34.6105 53.7094L34.8625 53.6215L35.1672 53.516C35.4307 53.4225 35.7135 53.3877 35.9933 53.4398L36.2746 53.5219L36.8019 53.7328C36.9854 53.806 37.1705 53.8821 37.3527 53.9613L37.6164 54.0785L37.8859 54.1957C37.937 54.2174 37.9898 54.2268 38.0558 54.2191L38.6418 54.1488C38.9031 54.1185 39.1638 54.1238 39.4211 54.1664L39.6965 54.2133L39.9777 54.2601C40.3055 54.3148 40.5989 54.4556 40.8508 54.6586L41.0969 54.8578L41.2316 54.9633L41.4426 54.8754L41.7531 54.7347L42.093 54.6293C42.2149 54.6089 42.3453 54.6078 42.4797 54.6293C42.6132 54.6508 42.7337 54.6945 42.843 54.7523L43.1359 54.9633L43.382 55.1918L43.6223 55.4261C43.6549 55.4573 43.6779 55.4687 43.6867 55.473L43.6926 55.4789L43.8976 55.4906L43.9094 55.4554C43.9439 55.3172 43.9827 55.1576 44.0207 54.9808L44.1379 54.4301C44.2077 54.1048 44.3648 53.8185 44.5773 53.5746L44.7883 53.3285L45.0051 53.0883C45.0134 53.0786 45.0189 53.0704 45.0226 53.0648V52.7719L45.0168 52.4847C45.0123 52.2457 45.0279 52.0091 45.0695 51.7758L45.1223 51.5004L45.1691 51.2191C45.2077 51.0037 45.2617 50.7899 45.3273 50.5804L45.4094 50.3109L45.4973 50.0414C45.5515 49.8684 45.5997 49.6938 45.6496 49.5199L45.7316 49.2445L45.8078 48.975C45.8631 48.7825 45.9244 48.5911 45.9894 48.4008L46.0773 48.1312L46.1711 47.8617C46.1765 47.8453 46.1851 47.8138 46.1652 47.7445L45.9894 47.1351C45.8885 46.7882 45.8876 46.4191 46.0305 46.0687L46.1418 45.8051L46.2473 45.5414C46.2707 45.4838 46.2788 45.4231 46.2707 45.348L46.2121 44.7621C46.1698 44.375 46.2727 44.0112 46.4933 43.7015L46.6691 43.4496L46.8508 43.1976C46.8994 43.1294 46.9115 43.0762 46.9152 43.0336L46.9387 42.7523L46.968 42.4711C46.9865 42.2582 47.0156 42.0473 47.0558 41.8383L47.1086 41.557L47.1613 41.2816C47.1876 41.1447 47.2011 41.0042 47.2023 40.8597V40.5726L47.2082 40.2855C47.2102 40.0291 47.2445 39.7758 47.3137 39.5297L47.3898 39.2601L47.466 38.9847C47.517 38.8032 47.5666 38.6212 47.6183 38.4398L47.7004 38.1703L47.7766 37.8949C47.8254 37.7238 47.8684 37.5515 47.9113 37.3793L48.0519 36.8285C48.0858 36.6917 48.1074 36.5495 48.1164 36.4066L48.1516 35.8441C48.1635 35.6534 48.1733 35.4604 48.1867 35.2699L48.2101 34.9886L48.2277 34.7074C48.2437 34.4808 48.2771 34.2542 48.3273 34.0336L48.3918 33.7582L48.4504 33.4828C48.4942 33.2903 48.5442 33.0992 48.5969 32.9086L48.673 32.6332L48.7492 32.3636C48.8249 32.09 48.9522 31.8341 49.1183 31.6019L49.2941 31.35L49.4758 31.1039C49.5269 31.0325 49.5413 30.9742 49.5461 30.9281L49.5695 30.6527L49.4933 30.6234C49.4198 30.5953 49.3146 30.5676 49.1711 30.5472L48.8898 30.5121L48.6144 30.4711C48.358 30.4347 48.1088 30.36 47.8703 30.2543L47.6008 30.1371L47.3371 30.0199C47.1931 29.956 47.0477 29.9009 46.9035 29.8617L46.6281 29.7914L46.3586 29.7152C46.1885 29.669 46.0142 29.6295 45.843 29.5922L45.5676 29.5277L45.2922 29.4691C45.1084 29.4291 44.925 29.3872 44.7414 29.3461L44.466 29.2875L44.1906 29.223C44.0591 29.1936 43.923 29.1779 43.7863 29.1761H43.4992L43.218 29.1703C42.9823 29.1675 42.7451 29.1406 42.5148 29.0941L42.2394 29.0414L41.9641 28.9828C41.7517 28.9399 41.5388 28.8864 41.3312 28.8187L40.7922 28.6429C40.767 28.6347 40.7295 28.6295 40.6633 28.6488L40.3703 28.7367L40.0715 28.8187C39.8289 28.8894 39.5842 28.9394 39.3391 28.9594L39.0461 28.9828L38.759 29.0062C38.468 29.0294 38.1805 28.9937 37.9035 28.9008L37.634 28.807L37.3644 28.7191C37.2147 28.6688 37.0588 28.6255 36.9074 28.5961L36.3566 28.4906C36.1981 28.4598 36.0372 28.4404 35.8762 28.4261L35.5949 28.3969L35.3137 28.3734C35.1167 28.356 34.9176 28.3347 34.7219 28.309L34.4465 28.2738L34.1652 28.2328C34.1514 28.231 34.1383 28.2232 34.1242 28.2211Z" fill="black"/>
<path d="M41.8939 28.7019L42.4564 28.8132L42.6204 28.8191L42.6146 28.8425L42.6263 28.8484L42.6146 28.8894L42.6087 29.3347C42.5997 29.7345 42.5341 30.168 42.304 30.5125L41.9642 31.0164C41.9642 31.0164 41.9631 31.0219 41.9642 31.0281L42.011 31.321L42.0638 31.6199C42.1046 31.8657 42.1209 32.1142 42.1107 32.3582L42.0989 32.6394L42.0814 32.9265C42.0682 33.2324 41.9856 33.5252 41.8411 33.7937L41.7064 34.0515L41.5657 34.3093C41.5053 34.4216 41.4667 34.533 41.4427 34.6433L41.3782 34.9187L41.3196 35.1941C41.2961 35.3037 41.287 35.4213 41.2962 35.5457L41.3431 36.1316C41.3646 36.4181 41.3307 36.7014 41.2435 36.9753L41.1614 37.2449L41.0735 37.5144C40.9899 37.7772 40.8628 38.0218 40.6985 38.2468L40.511 38.4988L40.388 38.6628L40.4818 38.9089L40.6048 39.2195C40.7444 39.5773 40.7691 39.9761 40.6048 40.3621L40.3821 40.8894C40.3524 40.9594 40.3369 41.0315 40.3411 41.1121L40.3587 41.3992L40.3704 41.6921C40.3898 42.0729 40.2747 42.4228 40.054 42.7175L39.8665 42.9695L39.679 43.2156C39.6329 43.2771 39.6228 43.3199 39.6204 43.3503L39.597 43.6375L39.5794 43.9187C39.566 44.1075 39.5522 44.2983 39.5384 44.4871L39.515 44.7683L39.4974 45.0496C39.4857 45.2088 39.485 45.3713 39.4915 45.5359L39.5032 45.8289L39.5091 46.116C39.5269 46.5618 39.3337 46.9344 39.0462 47.2117L38.8001 47.4519L38.6771 47.5632L38.7474 47.7156L38.8821 48.032C39.0512 48.4287 39.0563 48.878 38.806 49.2859L38.4896 49.8015C38.4572 49.8552 38.4481 49.8989 38.4485 49.9421L38.4544 50.2292V50.5164C38.4582 50.9112 38.3097 51.259 38.0677 51.5417L37.8568 51.7878L37.7454 51.9109L37.8392 52.1101L37.9857 52.4265C38.1492 52.7845 38.1998 53.2004 38.0267 53.6101L37.804 54.1375C37.7306 54.311 37.6808 54.4353 37.6517 54.5125L37.5989 54.6472L37.5462 54.7878C37.5243 54.8457 37.4915 54.9335 37.4407 55.0164C37.4174 55.0545 37.3605 55.1377 37.2708 55.2156C37.187 55.2877 36.9481 55.4584 36.6146 55.3914L36.5911 55.3855L36.1693 55.2976L36.0286 54.8933L35.9876 54.782L36.5091 54.6003L35.9466 54.489L35.9642 54.3894L36.3568 52.4617L36.3333 52.4207C36.2415 52.2201 36.181 51.9804 36.2103 51.7234C36.2407 51.4612 36.3562 51.2338 36.5091 51.0554L36.72 50.8093L36.931 50.5691C36.951 50.5457 36.9535 50.5302 36.9544 50.5281V50.241L36.9485 49.9539C36.9456 49.6155 37.0371 49.295 37.2122 49.0105L37.3704 48.7585L37.4759 48.5769L37.3646 48.3074L37.2357 47.991C37.1444 47.7768 37.0928 47.5226 37.1478 47.2527C37.2029 46.983 37.3497 46.7694 37.5169 46.6082L37.763 46.3679L38.0091 46.1335L38.0032 45.8875L37.9915 45.6003C37.9827 45.3799 37.9873 45.1555 38.0032 44.9382L38.0208 44.657L38.0443 44.3757C38.058 44.1883 38.072 44.0008 38.0853 43.8132L38.1028 43.5261L38.1204 43.2449C38.1451 42.8994 38.2764 42.5882 38.4778 42.3191L38.6653 42.0671L38.8528 41.821L38.8763 41.78V41.7683L38.8587 41.4753L38.847 41.1882C38.8311 40.8831 38.8799 40.5851 38.9993 40.3035L39.1165 40.0398L39.2161 39.7878C39.2144 39.7819 39.2139 39.7737 39.2103 39.7644L38.9642 39.1433C38.7984 38.7193 38.8351 38.2585 39.1224 37.866L39.4857 37.3621C39.5639 37.255 39.6136 37.1525 39.6439 37.0574L39.7318 36.7878L39.8138 36.5183C39.8407 36.4335 39.8566 36.344 39.8489 36.2429L39.8255 35.95L39.8021 35.6628C39.7822 35.3997 39.7997 35.134 39.8548 34.8777L39.9134 34.6023L39.972 34.3328C40.0269 34.0774 40.1226 33.8322 40.2474 33.6003L40.3821 33.3425L40.5228 33.0789C40.563 33.0035 40.5841 32.934 40.5872 32.8621L40.5989 32.575L40.6107 32.2937C40.6163 32.1586 40.6062 32.0156 40.5814 31.866L40.5345 31.5671L40.4818 31.2742C40.4174 30.8868 40.5 30.509 40.7161 30.1843L40.886 29.9324L41.056 29.6746C41.0599 29.6659 41.0699 29.6446 41.0794 29.6042C41.0947 29.5389 41.1056 29.4411 41.1087 29.3054L41.1204 28.7839L41.1263 28.7195L41.138 28.655L41.1556 28.5554L41.8939 28.7019Z" fill="black"/>
<path d="M32.8448 32.4382C33.2442 32.4291 33.6743 32.4763 34.0284 32.6902L34.2921 32.8484L34.5499 33.0007C34.5564 33.0046 34.5608 33.0062 34.5616 33.0066L35.1476 32.8777C35.391 32.8257 35.6361 32.8025 35.88 32.8015H36.1671L36.4484 32.7957C36.7553 32.7945 37.0519 32.8684 37.3273 33.0007L37.5909 33.1238L37.8605 33.2527C37.9757 33.3079 38.0887 33.3453 38.2003 33.364L38.4757 33.4109L38.757 33.4578C38.8674 33.476 38.9849 33.4787 39.1085 33.4636L39.3956 33.4285L39.6886 33.3933C39.9738 33.3588 40.2606 33.3773 40.5382 33.4519L40.8077 33.5222L41.0831 33.5984C41.3502 33.6703 41.6002 33.7895 41.8331 33.9441L42.0909 34.114L42.2609 34.2253L42.5011 34.1257L42.8058 33.9851C43.0684 33.8686 43.3567 33.8202 43.6495 33.8621L43.9484 33.9324L44.2179 34.0378L44.4874 34.1375C44.5577 34.1632 44.6309 34.1745 44.7101 34.1667L45.2843 34.1082C45.6652 34.0708 46.0219 34.1755 46.3273 34.3835L46.5851 34.5593L46.8429 34.7292C46.906 34.7723 46.9472 34.7809 46.9777 34.782L47.2648 34.7937L47.546 34.7996C47.7352 34.8043 47.9253 34.8061 48.1144 34.8113L48.4015 34.823L48.6827 34.8289C48.7895 34.8318 48.9065 34.8402 49.0109 34.8582C49.0614 34.8669 49.1401 34.8844 49.2218 34.9167C49.2514 34.9285 49.3138 34.9551 49.3859 35.0046L49.6144 35.239L49.6437 35.2859L49.8722 35.6609L49.6554 36.0417L49.6144 36.1179L49.0519 35.8015L48.9406 36.5105L48.8468 36.4988L47.7804 36.3347L47.7921 36.3054C47.6984 36.303 47.6046 36.3019 47.5109 36.2996L47.2238 36.2937L46.9425 36.282C46.5955 36.2733 46.2776 36.1609 45.9991 35.9714L45.4835 35.6199L45.4425 35.6023H45.4308L45.1437 35.6257L44.8566 35.655C44.5518 35.6849 44.2475 35.6508 43.9601 35.5437L43.6906 35.4382L43.4386 35.3445C43.4326 35.3464 43.4252 35.3518 43.4152 35.3562L43.1105 35.4968L42.8058 35.6316C42.39 35.8165 41.9277 35.8007 41.5226 35.532L41.2648 35.3621L41.0011 35.1921C40.8907 35.1191 40.7869 35.0715 40.6906 35.0457L40.421 34.9753L40.1456 34.8992C40.0601 34.8763 39.9702 34.8697 39.8702 34.8816L39.5773 34.9167L39.2902 34.9519C39.0282 34.9838 38.7636 34.9777 38.505 34.9343L37.9542 34.8406C37.6973 34.7975 37.4468 34.7198 37.2101 34.6062L36.9406 34.4773L36.6769 34.3484C36.5998 34.3116 36.5263 34.2954 36.4542 34.2957L36.173 34.3015H35.8859C35.7515 34.3021 35.6113 34.3171 35.464 34.3484L35.1652 34.4128L34.8722 34.4714C34.4886 34.5531 34.1104 34.4906 33.7765 34.2898L33.5128 34.1316L33.255 33.9734C33.2615 33.9772 33.2421 33.9676 33.1788 33.9558C33.1129 33.9435 33.0156 33.9293 32.88 33.9324L32.3585 33.95H32.2941L32.2238 33.9382L32.13 33.9265L32.2413 33.1824L32.3234 32.614V32.45H32.3468L32.3527 32.4382L32.4054 32.45L32.8448 32.4382Z" fill="black"/>
<path d="M31.8022 37.6908C32.2015 37.6817 32.6316 37.7289 32.9858 37.9427L33.2495 38.101L33.5073 38.2533C33.5136 38.2571 33.518 38.2588 33.519 38.2592L33.812 38.1947L34.1049 38.1361C34.3483 38.0842 34.5934 38.055 34.8373 38.0541H35.1245L35.4057 38.0482C35.7126 38.0471 36.0092 38.1209 36.2846 38.2533L36.5483 38.3763L36.8178 38.5052C36.9331 38.5605 37.046 38.5978 37.1577 38.6166L37.433 38.6635L37.7143 38.7103C37.8247 38.7286 37.9422 38.7312 38.0659 38.7162L38.353 38.681L38.6459 38.6459C38.9311 38.6114 39.2179 38.6298 39.4955 38.7045L39.7651 38.7748L40.0405 38.851C40.3076 38.9229 40.5576 39.042 40.7905 39.1967L41.0483 39.3666L41.2182 39.4779L41.4584 39.3783L41.7631 39.2435C42.0262 39.1266 42.3134 39.0727 42.6069 39.1146L42.9057 39.1908L43.4448 39.39C43.5151 39.4158 43.5882 39.4271 43.6674 39.4193L44.2416 39.3607C44.6225 39.3234 44.9792 39.428 45.2846 39.6361L45.8002 39.9877C45.8627 40.0299 45.9048 40.0393 45.935 40.0404L46.2221 40.0463L46.5034 40.0521C46.6926 40.0569 46.8825 40.0645 47.0717 40.0697L47.3588 40.0756L47.6401 40.0814C47.7466 40.0844 47.864 40.0927 47.9682 40.1107C48.0185 40.1195 48.0967 40.1364 48.1791 40.1693C48.2081 40.1809 48.2734 40.2097 48.3491 40.2631L48.5776 40.5092L48.601 40.556L48.8237 40.9369L48.601 41.3177L48.5541 41.3939L47.9975 41.0599L47.892 41.7631L47.7983 41.7513L46.6909 41.5814L46.7026 41.558C46.6245 41.5559 46.5463 41.5541 46.4682 41.5521L46.1811 41.5463L45.8998 41.5404C45.5528 41.5317 45.235 41.4136 44.9565 41.224L44.4409 40.8724L44.3998 40.8549H44.3881L44.101 40.8842L43.8139 40.9076C43.5091 40.9375 43.2049 40.9034 42.9174 40.7963L42.6479 40.6967L42.3959 40.597C42.3896 40.5991 42.3833 40.6098 42.3725 40.6146L41.7631 40.8842C41.3473 41.0691 40.8851 41.0534 40.4799 40.7845L40.2221 40.6146L39.9584 40.4447C39.8481 40.3717 39.7441 40.3241 39.6479 40.2982L39.3784 40.2279L39.103 40.1517C39.0175 40.1288 38.9275 40.1223 38.8276 40.1342L38.5346 40.1693L38.2475 40.2045C37.9855 40.2363 37.7209 40.2303 37.4623 40.1869L37.187 40.14L36.9057 40.0931C36.6499 40.0499 36.4032 39.9719 36.1674 39.8588L35.8979 39.7299L35.6342 39.601C35.5571 39.5642 35.4836 39.548 35.4116 39.5482L35.1303 39.5541H34.8432C34.7088 39.5546 34.5687 39.5697 34.4213 39.601L34.1225 39.6654L33.8295 39.724C33.4459 39.8057 33.0678 39.7432 32.7338 39.5424L32.4702 39.3842L32.2123 39.226C32.2188 39.2297 32.1993 39.2202 32.1362 39.2084C32.0702 39.1961 31.973 39.1878 31.8373 39.1908L31.3159 39.2025H31.2514L31.1811 39.1908L31.0873 39.1791L31.1987 38.4349L31.2807 37.8666V37.7025H31.3041L31.31 37.6908L31.3627 37.7025L31.8022 37.6908Z" fill="black"/>
<path d="M31.0455 42.9435C31.4449 42.9344 31.875 42.9815 32.2291 43.1954L32.4928 43.3536L32.7506 43.506C32.7569 43.5098 32.7613 43.5114 32.7623 43.5118L33.0553 43.4474L33.3483 43.3888C33.5917 43.3369 33.8368 43.3077 34.0807 43.3068H34.3678L34.649 43.3009C34.956 43.2998 35.2526 43.3736 35.528 43.506L35.7916 43.629L36.0612 43.7579C36.1765 43.8131 36.2893 43.8505 36.401 43.8693L36.6764 43.9161L36.9576 43.963C37.0681 43.9813 37.1855 43.9839 37.3092 43.9689L37.5963 43.9337L37.8893 43.8986C38.1745 43.8641 38.4613 43.8825 38.7389 43.9572L39.0084 44.0275L39.2838 44.1036C39.5509 44.1756 39.8009 44.2947 40.0338 44.4493L40.2916 44.6193L40.4615 44.7306L40.7018 44.631L41.0065 44.4962C41.2695 44.3793 41.5568 44.3254 41.8502 44.3673L42.149 44.4435L42.6881 44.6427C42.7584 44.6685 42.8316 44.6798 42.9108 44.672L43.485 44.6134C43.8658 44.5761 44.2226 44.6807 44.528 44.8888L45.0436 45.2404C45.1061 45.2826 45.1481 45.292 45.1783 45.2931L45.4655 45.299L45.7467 45.3048C45.936 45.3096 46.1259 45.3172 46.3151 45.3224L46.6022 45.3282L46.8834 45.3341C46.99 45.337 47.1073 45.3454 47.2115 45.3634C47.2619 45.3722 47.3401 45.3891 47.4225 45.422C47.4514 45.4336 47.5167 45.4624 47.5924 45.5157L47.8209 45.7618L47.8444 45.8087L48.067 46.1896L47.8444 46.5704L47.7975 46.6466L47.2408 46.3126L47.1354 47.0157L47.0416 47.004L45.9342 46.8341L45.9459 46.8107C45.8678 46.8086 45.7897 46.8068 45.7115 46.8048L45.4244 46.799L45.1432 46.7931C44.7961 46.7843 44.4783 46.6663 44.1998 46.4767L43.6842 46.1251L43.6432 46.1075H43.6315L43.3444 46.1368L43.0573 46.1603C42.7524 46.1901 42.4482 46.1561 42.1608 46.049L41.8912 45.9493L41.6393 45.8497C41.633 45.8518 41.6267 45.8625 41.6158 45.8673L41.0065 46.1368C40.5906 46.3218 40.1284 46.3061 39.7233 46.0372L39.4655 45.8673L39.2018 45.6974C39.0915 45.6244 38.9875 45.5768 38.8912 45.5509L38.6217 45.4806L38.3463 45.4044C38.2608 45.3815 38.1709 45.3749 38.0709 45.3868L37.778 45.422L37.4908 45.4572C37.2289 45.489 36.9643 45.483 36.7057 45.4396L36.4303 45.3927L36.149 45.3458C35.8933 45.3026 35.6466 45.2246 35.4108 45.1115L35.1412 44.9825L34.8776 44.8536C34.8005 44.8169 34.727 44.8006 34.6549 44.8009L34.3737 44.8068H34.0865C33.9522 44.8073 33.812 44.8223 33.6647 44.8536L33.3658 44.9181L33.0729 44.9767C32.6892 45.0584 32.3111 44.9958 31.9772 44.795L31.7135 44.6368L31.4557 44.4786C31.4622 44.4824 31.4427 44.4729 31.3795 44.4611C31.3135 44.4488 31.2163 44.4404 31.0807 44.4435L30.5592 44.4552H30.4948L30.4244 44.4435L30.3307 44.4318L30.442 43.6876L30.524 43.1193V42.9552H30.5475L30.5533 42.9435L30.6061 42.9552L31.0455 42.9435Z" fill="black"/>
<path d="M29.8694 47.329C30.2687 47.3198 30.6989 47.3672 31.053 47.5809L31.3167 47.7333L31.5745 47.8915C31.5816 47.8957 31.5858 47.8972 31.5862 47.8973L32.1722 47.7684C32.4156 47.7164 32.6607 47.6933 32.9046 47.6923L33.1917 47.6864H33.473C33.7794 47.6852 34.0768 47.7538 34.3519 47.8856L34.6155 48.0145L34.8851 48.1434C35.0001 48.1984 35.1135 48.2361 35.2249 48.2548L35.5003 48.2958L35.7816 48.3427C35.8922 48.361 36.0092 48.3636 36.1331 48.3485L36.4202 48.3134L36.7132 48.2782C36.9983 48.2436 37.2853 48.2623 37.5628 48.3368L37.8323 48.413L38.1077 48.4833C38.3749 48.555 38.6248 48.6745 38.8577 48.829L39.1155 48.9989L39.2855 49.1102L39.5257 49.0106L39.8304 48.8759C40.0932 48.7589 40.3809 48.7052 40.6741 48.7469L40.973 48.8231L41.512 49.0223C41.5826 49.0483 41.6552 49.0595 41.7347 49.0516L42.3089 48.993C42.6897 48.9556 43.0464 49.0605 43.3519 49.2684L43.8675 49.62C43.9299 49.6623 43.972 49.6716 44.0023 49.6727L44.2894 49.6786L44.5706 49.6844C44.7597 49.6891 44.95 49.6969 45.139 49.702L45.4261 49.7079L45.7073 49.7137C45.814 49.7166 45.9311 49.7251 46.0355 49.743C46.0857 49.7518 46.1636 49.7686 46.2464 49.8016C46.3031 49.8243 46.5107 49.9105 46.6448 50.1415L46.6741 50.1884L46.8968 50.5751L46.6624 50.9501L46.6155 51.0262L46.0648 50.6923L45.9593 51.3954L45.8655 51.3837L44.7523 51.2137L44.764 51.1903C44.6878 51.1883 44.6116 51.1863 44.5355 51.1844L44.2484 51.1786L43.9671 51.1727C43.6201 51.164 43.3023 51.0459 43.0237 50.8563L42.5081 50.5048L42.4671 50.4872H42.4554L41.8812 50.5458C41.5762 50.5758 41.2723 50.5357 40.9847 50.4286L40.7151 50.329L40.4573 50.2352C40.4521 50.2371 40.447 50.2437 40.4398 50.2469L39.8304 50.5165C39.4149 50.7014 38.9522 50.6908 38.5472 50.4227L38.2894 50.2528L38.0316 50.077C37.9206 50.0034 37.8119 49.9624 37.7151 49.9364L37.4456 49.8602L37.1702 49.7899C37.0844 49.7669 36.9952 49.7602 36.8948 49.7723L36.6019 49.8075L36.3148 49.8427C36.0528 49.8746 35.7882 49.8684 35.5296 49.8251L34.9788 49.7313C34.722 49.6883 34.4714 49.6104 34.2347 49.4969L33.971 49.368L33.7015 49.2391C33.6243 49.2023 33.551 49.1861 33.4788 49.1864H33.1976L32.9105 49.1923C32.776 49.1929 32.636 49.2077 32.4886 49.2391L32.1898 49.2977L31.8968 49.3622C31.5124 49.444 31.1356 49.3765 30.8011 49.1747L30.5374 49.0223L30.2796 48.8641C30.2741 48.8617 30.2513 48.8496 30.2034 48.8407C30.1374 48.8285 30.0398 48.82 29.9046 48.8231L29.3831 48.8407H29.3187L29.2484 48.829L29.1546 48.8173L29.2659 48.0731L29.348 47.5048V47.3407H29.3714L29.3773 47.329L29.43 47.3407L29.8694 47.329Z" fill="black"/>
<path d="M60.5269 5.67893L11.3437 0.80603L7.38916 19.5762L56.1846 27.1957L60.5269 5.67893Z" fill="#6140D2"/>
<path d="M11.8657 0.15564L12.1528 0.173218C12.3438 0.186569 12.5333 0.199581 12.7212 0.214233L13.2837 0.261108C13.4206 0.271795 13.5624 0.266369 13.7056 0.24939L13.9927 0.214233L14.2739 0.184937C14.6724 0.137667 15.039 0.253981 15.3462 0.472046L15.6099 0.659546L15.8794 0.847046C15.9665 0.908479 16.031 0.924355 16.0728 0.929077L16.3481 0.964233L16.6294 0.99353C16.6563 0.996533 16.7078 0.995223 16.7993 0.952515L17.0981 0.81189L17.397 0.677124C17.6781 0.545211 17.9793 0.466622 18.2935 0.466187H18.5747L18.856 0.460327C19.2439 0.459789 19.5874 0.611314 19.8696 0.835327L20.1333 1.04041L20.2563 1.14001L20.4146 1.05212L20.7192 0.882202L21.0298 0.747437C21.141 0.715652 21.2617 0.699254 21.3872 0.700562C21.5152 0.702032 21.637 0.721994 21.7505 0.759155L22.0669 0.917358L22.3306 1.09314L22.6001 1.26892C22.6818 1.32268 22.7403 1.33615 22.7817 1.33923L23.063 1.36267L23.3442 1.38025C23.4571 1.38835 23.5757 1.38307 23.7017 1.35681L23.9946 1.29236L24.2817 1.23376C24.5999 1.16687 24.9203 1.18431 25.231 1.2865L25.7817 1.46228C25.9569 1.51999 26.1335 1.58018 26.3091 1.6322L26.8481 1.78455C26.8488 1.78448 26.8682 1.78794 26.9009 1.77283L27.1938 1.63806L27.4927 1.5033L27.7974 1.39783C28.0063 1.35255 28.2207 1.35694 28.4302 1.41541L28.7407 1.54431L29.0044 1.69666L29.2739 1.849C29.3629 1.89945 29.4379 1.92038 29.5024 1.92517L30.0649 1.96033C30.1691 1.96751 30.2831 1.9614 30.4048 1.93103L30.6919 1.85486L30.9849 1.78455L31.2778 1.74353C31.573 1.73064 31.8598 1.80884 32.1157 1.96619L32.3794 2.13025L32.6489 2.29431C32.7253 2.34083 32.7815 2.35104 32.8247 2.35291L33.106 2.36462L33.3931 2.37634C33.6172 2.38405 33.8403 2.40589 34.061 2.44666L34.3364 2.49939L34.6177 2.55212C34.8303 2.59148 35.0418 2.63999 35.2505 2.70447L35.5259 2.79236L35.7603 2.86267C35.7645 2.86045 35.7723 2.86004 35.7778 2.85681L36.3755 2.50525L36.6919 2.36462C36.8049 2.3316 36.9268 2.31589 37.0552 2.31775C37.1875 2.31986 37.3143 2.34199 37.4302 2.3822L37.7466 2.54626L38.0103 2.72791L38.2739 2.91541C38.2954 2.93042 38.3101 2.93709 38.3149 2.93884L38.6021 2.90369L38.8892 2.87439C39.2249 2.83797 39.5501 2.89893 39.8501 3.04431L40.1196 3.17322L40.3071 3.26697L40.5708 3.12634L40.8696 2.96228L41.2036 2.83337C41.3261 2.80431 41.4582 2.79005 41.5962 2.80408C41.733 2.81813 41.8579 2.85708 41.9712 2.90955L42.2759 3.10291L42.5337 3.32556L42.7974 3.54822L43.0376 3.51892L43.3247 3.47791C43.5431 3.44724 43.7633 3.42511 43.981 3.41931L44.2622 3.41345L44.5493 3.40759C44.7368 3.40261 44.9243 3.39542 45.1118 3.39001L45.3989 3.38416L45.6802 3.37244C46.0274 3.36246 46.3527 3.46162 46.6411 3.63611L46.9048 3.79431L47.1743 3.95837L47.2153 3.97595H47.2271L47.5142 3.93494L47.8013 3.88806C48.1035 3.84216 48.4055 3.86701 48.6978 3.95837L48.9731 4.04041L49.2192 4.11658C49.2256 4.11446 49.2397 4.11823 49.2544 4.11072L49.5474 3.95837L49.8462 3.80603L50.1626 3.68884C50.3759 3.63611 50.5962 3.63437 50.813 3.6947L51.1353 3.82947L51.3989 3.98767L51.6685 4.14587C51.7824 4.21298 51.8874 4.25391 51.9849 4.27478L52.2661 4.33337L52.5415 4.39197C52.628 4.41018 52.7179 4.40922 52.8169 4.39197L53.1099 4.34509L53.397 4.29236C53.6562 4.24672 53.9164 4.23963 54.1763 4.26892L54.4575 4.29822L54.7329 4.32751C54.992 4.35672 55.246 4.42595 55.4888 4.52673L55.7642 4.63806L56.0337 4.74939C56.1129 4.78232 56.1843 4.79435 56.2563 4.79041L56.5435 4.77869L56.8247 4.76111C56.9591 4.75336 57.1008 4.73008 57.2466 4.6908L57.5396 4.60876L57.8267 4.53259C58.2054 4.43012 58.5897 4.47319 58.9341 4.65564L59.2036 4.80212L59.4731 4.94275C59.5373 4.97692 59.5842 4.98602 59.6255 4.98376L59.9126 4.96619L60.1938 4.94861H60.4282C60.5129 4.95525 60.6017 4.97343 60.6919 5.00134C60.8369 5.04648 61.0096 5.13147 61.1431 5.28845L61.2603 5.46423L61.3247 5.59314L61.3892 5.71619C61.5395 6.01371 61.5163 6.34768 61.4888 6.55994L61.4536 6.84119L61.4185 7.11658C61.3691 7.49696 61.1837 7.81918 60.9321 8.07166L60.6919 8.30603L60.5571 8.43494L60.6274 8.60486L60.7505 8.91541C60.9124 9.32449 60.8981 9.77834 60.6333 10.1752L60.2935 10.6791C60.2602 10.7293 60.2525 10.7641 60.2524 10.7963L60.2583 11.0834V11.3705C60.2603 11.6852 60.1856 11.9885 60.0415 12.267L59.9067 12.5306L59.772 12.7885C59.732 12.8655 59.7102 12.9413 59.7075 13.017L59.7017 13.2982L59.6899 13.5853C59.6799 13.8672 59.6188 14.1403 59.5083 14.3998L59.397 14.6635L59.2798 14.9271C59.2265 15.052 59.1912 15.1805 59.1685 15.308L59.1157 15.5834L59.0688 15.8646C59.0274 16.0957 58.9658 16.3239 58.8813 16.5443L58.7759 16.808L58.6763 17.0717C58.6773 17.0794 58.6847 17.0939 58.6938 17.1185L58.8052 17.4291L58.9224 17.7396C59.0009 17.95 59.0367 18.1915 58.9868 18.4427C58.9368 18.6941 58.8124 18.9052 58.6587 19.0697L58.436 19.3099L58.2075 19.5502C58.1774 19.5825 58.1653 19.6048 58.1606 19.6146C58.1578 19.6206 58.1552 19.6239 58.1548 19.6263L58.1313 19.9135L58.1021 20.1947C58.0852 20.3801 58.0714 20.5658 58.0552 20.7513L58.0317 21.0385L58.0024 21.3197C57.9896 21.4674 57.992 21.621 58.0024 21.7767L58.02 22.0638L58.0376 22.3568C58.0534 22.5927 58.0507 22.8282 58.0259 23.0599L57.9673 23.6224C57.941 23.8658 57.8837 24.1057 57.8032 24.3373L57.7153 24.601L57.6216 24.8705C57.5501 25.0762 57.4649 25.2808 57.3696 25.4799L57.2466 25.7377L57.1177 26.0013C57.0555 26.1313 57.0101 26.2626 56.9771 26.3939L56.9067 26.6693L56.8364 26.9388C56.7441 27.3073 56.5206 27.6356 56.145 27.8177L55.9165 27.9291L55.688 28.0345C55.2894 28.227 54.877 28.1836 54.5337 28.0111L54.0063 27.7416C53.8857 27.6812 53.766 27.6433 53.6489 27.6185L53.0981 27.5013C52.8435 27.4474 52.5987 27.3542 52.3657 27.2318L52.1021 27.097L51.8384 26.9564L51.8325 26.9506C51.8297 26.9508 51.8191 26.954 51.8091 26.9564L51.5161 27.0267L51.2173 27.1029C50.9178 27.1765 50.6078 27.1817 50.3032 27.1146L50.0278 27.056L49.7583 26.9974C49.5461 26.9507 49.3326 26.8874 49.1255 26.8158L48.856 26.7279L48.5864 26.6342C48.5759 26.6305 48.5536 26.6206 48.4927 26.64L48.1938 26.7338L47.8892 26.8334C47.406 26.9881 46.9443 26.8513 46.6001 26.5287L46.354 26.3002L46.1548 26.1127L45.9614 26.1654L45.6626 26.2416C45.3551 26.3198 45.0379 26.3268 44.7251 26.2474L44.1743 26.1068C44.0671 26.0797 43.9567 26.0655 43.8403 26.0717L43.2661 26.1068C42.9872 26.1215 42.7123 26.0846 42.4458 26.0013L42.1704 25.9193L41.9009 25.8314C41.8133 25.8041 41.7233 25.7946 41.6255 25.8021L41.3384 25.8256L41.0454 25.849C40.6241 25.8812 40.2549 25.7229 39.9614 25.4681L39.4575 25.0345C39.3842 24.9708 39.344 24.9653 39.3345 24.9642L39.0532 24.9349L38.7778 24.8998C38.5805 24.8778 38.382 24.8547 38.186 24.8236L37.9048 24.7767L37.6294 24.7357C37.5111 24.7169 37.3844 24.7104 37.2544 24.724L36.6802 24.7826C36.5021 24.8012 36.3214 24.8297 36.1411 24.8588L35.5552 24.9525C35.2956 24.9945 35.0345 25.0012 34.7759 24.9701L34.2134 24.8998C33.8243 24.8522 33.5 24.6617 33.2466 24.4076L33.0005 24.1556L32.8774 24.0326L32.7427 24.1029L32.438 24.2435C32.0721 24.4138 31.651 24.4544 31.2427 24.2728L30.9731 24.1556L30.7095 24.0385C30.5784 23.9801 30.4474 23.9372 30.3169 23.9095L29.7661 23.7924C29.6028 23.7578 29.4392 23.7257 29.2739 23.7045L28.7114 23.6342C28.5008 23.6071 28.2915 23.5718 28.0845 23.5228L27.8091 23.4584L27.5337 23.3881C27.4564 23.3698 27.3694 23.3702 27.27 23.3881L26.6841 23.4935C26.3083 23.5604 25.9421 23.4878 25.6177 23.2943L25.354 23.1361L25.0962 22.9838C25.0024 22.9276 24.9166 22.8952 24.8384 22.8842L24.5571 22.849L24.2817 22.808C24.1072 22.7837 23.9302 22.7663 23.7544 22.7494L23.1919 22.6908C22.9792 22.6704 22.7684 22.6394 22.5591 22.597L22.2837 22.5443L22.0083 22.4857C21.7916 22.4419 21.5746 22.3825 21.3638 22.3099L21.0942 22.222L20.8247 22.1283C20.742 22.0998 20.6582 22.0867 20.5669 22.0931L20.2798 22.1166L19.9868 22.1342C19.8498 22.1444 19.7054 22.1731 19.5532 22.2162L19.2544 22.2982L18.9556 22.3861C18.626 22.4789 18.2821 22.4801 17.9478 22.3685L17.6782 22.2748L17.4087 22.1869C17.2559 22.1358 17.1004 22.0904 16.9458 22.058L16.6704 22.0052L16.395 21.9467C16.2577 21.9179 16.1157 21.9026 15.9731 21.8998L15.686 21.8939L15.4048 21.8881C15.1639 21.8834 14.9242 21.8545 14.6899 21.8002L14.4146 21.7357L14.145 21.6713C13.9633 21.6291 13.7761 21.5893 13.5942 21.5482L13.3247 21.4838L13.0493 21.4193C12.8538 21.3752 12.6571 21.327 12.4634 21.2728L12.188 21.1967L11.9185 21.1205C11.6987 21.0591 11.479 20.9817 11.2681 20.8861L11.0044 20.7631L10.7407 20.6459C10.6247 20.5933 10.5089 20.5575 10.395 20.5404L10.1138 20.4994L9.83838 20.4584C9.75363 20.4457 9.6574 20.4499 9.54541 20.476L9.24658 20.5404L8.95361 20.6107C8.6918 20.6717 8.42752 20.6969 8.1626 20.681L7.88135 20.6635L7.59424 20.6459C7.36155 20.6311 6.97271 20.529 6.77979 20.1244C6.62241 19.7931 6.70812 19.4648 6.76221 19.3041L6.87354 18.9701L6.99072 18.6302C7.0632 18.4148 7.12438 18.223 7.17236 18.056L7.32471 17.517C7.37346 17.3473 7.41868 17.1726 7.45947 17.0013L7.52393 16.7318L7.58838 16.4564C7.62288 16.3116 7.64658 16.1616 7.65869 16.0111L7.75244 14.8861L7.77002 14.6049L7.79346 14.3236C7.81047 14.09 7.84614 13.8581 7.90479 13.6322L7.9751 13.3627L8.04541 13.0873C8.09471 12.8974 8.14776 12.7074 8.20361 12.5189L8.28564 12.2494L8.36182 11.9799C8.41487 11.8008 8.46774 11.62 8.52002 11.4408L8.60205 11.1713L8.67822 10.9017C8.71194 10.7862 8.73459 10.6638 8.73682 10.5385V10.2513L8.74268 9.96423C8.74694 9.72899 8.77237 9.49583 8.81885 9.26697L8.87744 8.99158L8.93018 8.71619C8.96231 8.55795 8.99059 8.39789 9.00635 8.23572L9.02979 7.95447L9.05908 7.67322C9.09143 7.34028 9.21799 7.03529 9.41064 6.77087L9.59229 6.52478L9.77393 6.27283L9.78564 6.25525V6.24939L9.75635 5.95642L9.72705 5.65759C9.69617 5.34257 9.7386 5.03147 9.86182 4.73767L10.0845 4.21033C10.0864 4.20634 10.0941 4.19 10.0786 4.13416L9.99072 3.82947L9.90869 3.52478C9.8153 3.1913 9.81238 2.83978 9.93213 2.49939L10.1196 1.96033C10.1779 1.79491 10.2339 1.6293 10.2837 1.46228L10.3657 1.18689L10.4419 0.917358C10.5043 0.708462 10.6322 0.476416 10.8696 0.313843C11.1053 0.152704 11.3649 0.117601 11.5786 0.132202L11.8657 0.15564ZM11.7192 1.89001C11.6624 2.08087 11.5982 2.26974 11.5317 2.45837L11.3442 2.99744C11.3386 3.01381 11.3301 3.04891 11.3501 3.12048L11.438 3.42517L11.52 3.72986C11.6172 4.07745 11.6134 4.44178 11.4673 4.79041L11.2446 5.31775C11.2206 5.375 11.2081 5.43612 11.2153 5.51111L11.2739 6.09705C11.3124 6.48489 11.2051 6.84996 10.981 7.15759L10.7993 7.40955L10.6177 7.65564C10.5689 7.7229 10.5573 7.77733 10.5532 7.8197L10.4946 8.3822C10.4739 8.5951 10.4433 8.8062 10.4009 9.01501L10.3481 9.29041L10.2896 9.5658C10.2615 9.70396 10.2453 9.84747 10.2427 9.99353L10.2368 10.2806V10.5677C10.2321 10.823 10.1908 11.0734 10.1196 11.3177L10.0435 11.5873L9.96143 11.8627C9.90867 12.0435 9.85675 12.227 9.80322 12.4076L9.63916 12.9467C9.58849 13.1177 9.54327 13.29 9.49854 13.4623L9.42822 13.7377L9.35791 14.0072C9.3224 14.144 9.29814 14.2859 9.2876 14.4291L9.26416 14.7162L9.24658 14.9974C9.23277 15.1871 9.21495 15.3764 9.19971 15.5658L9.17627 15.8529L9.15869 16.1342C9.14052 16.3598 9.10536 16.5828 9.05322 16.8021L8.98291 17.0775L8.91846 17.3529C8.87256 17.5454 8.82087 17.7365 8.76611 17.9271L8.68994 18.2025L8.61377 18.472C8.5581 18.6657 8.48689 18.8784 8.40869 19.1107L8.38525 19.1693C8.45711 19.1652 8.53381 19.1703 8.61377 19.1517L8.90674 19.0814L9.20557 19.0111C9.48682 18.9458 9.77549 18.9333 10.061 18.976L10.3364 19.017L10.6177 19.058C10.8731 19.0964 11.1189 19.1734 11.356 19.2806L11.6255 19.3978L11.8892 19.5209C12.0326 19.5858 12.1789 19.6388 12.3228 19.6791L12.5923 19.7552L12.8677 19.8314C13.0368 19.8787 13.2071 19.9219 13.3774 19.9603L13.6528 20.0189L13.9282 20.0834C14.1117 20.1248 14.2957 20.1639 14.479 20.2064L15.0298 20.3353C15.1618 20.3659 15.2967 20.3854 15.4341 20.3881L15.7153 20.3939L16.0024 20.3998C16.2375 20.4044 16.4703 20.4279 16.6997 20.476L17.2505 20.5931C17.463 20.6377 17.6758 20.6937 17.8833 20.7631L18.1528 20.851L18.4224 20.9447C18.4475 20.9531 18.4849 20.9576 18.5513 20.9388L18.8442 20.8568L19.1431 20.7689C19.387 20.6998 19.6352 20.658 19.8813 20.64L20.1685 20.6166L20.4556 20.599C20.7472 20.5777 21.0343 20.6153 21.311 20.7103L21.5806 20.8041L21.856 20.892C22.0038 20.9427 22.1517 20.9846 22.3013 21.015L22.5825 21.0736L22.8579 21.1263C23.0151 21.1581 23.1727 21.1871 23.3325 21.2025L23.6138 21.226L23.895 21.2552C24.0926 21.2742 24.2905 21.2982 24.4868 21.3256L24.7681 21.3607L25.0435 21.4017C25.3362 21.4425 25.611 21.5435 25.8638 21.6947L26.1274 21.8529L26.3853 22.0052C26.394 22.0105 26.4 22.0159 26.4028 22.017C26.4043 22.017 26.4136 22.0181 26.4204 22.017L27.0063 21.9115C27.297 21.8594 27.591 21.8608 27.8794 21.9291L28.1548 21.9935L28.4302 22.0638C28.5869 22.1009 28.7457 22.1255 28.9048 22.1459L29.186 22.181L29.4614 22.222C29.6674 22.2484 29.8734 22.2786 30.0767 22.3217L30.6274 22.4388C30.8643 22.489 31.0951 22.5677 31.3188 22.6674L31.5884 22.7845L31.8052 22.8783L32.1099 22.7435L32.4204 22.597L32.7661 22.4916C32.8923 22.4716 33.026 22.4714 33.1646 22.4974C33.3013 22.5232 33.4247 22.5696 33.5337 22.6322L33.8208 22.8549L34.313 23.347C34.3505 23.3844 34.3772 23.3992 34.3892 23.4056L34.395 23.4115L34.6763 23.4467L34.9517 23.4818C35.0645 23.4955 35.1862 23.4909 35.3149 23.4701L35.9009 23.3763C36.1085 23.3428 36.3156 23.3159 36.522 23.2943L36.8091 23.265L37.1021 23.2357C37.3576 23.209 37.6119 23.2133 37.8638 23.2533L38.1392 23.2943L38.4204 23.3412C38.5936 23.3687 38.7674 23.392 38.9419 23.4115L39.2231 23.4408L39.5044 23.476C39.8668 23.517 40.1816 23.6775 40.4419 23.9037L40.6938 24.1205L40.9399 24.3373L40.9517 24.3431L41.2212 24.3314L41.5083 24.308C41.7938 24.2857 42.0786 24.3162 42.3521 24.4017L42.6216 24.4838L42.8911 24.5717C42.985 24.601 43.082 24.6119 43.1841 24.6068L43.4712 24.5892L43.7583 24.5775C44.0239 24.5635 44.2922 24.5882 44.5493 24.6537L44.8188 24.724L45.0942 24.7943C45.1448 24.8071 45.2077 24.8103 45.2935 24.7885L45.5923 24.7123L45.8853 24.6361L46.2368 24.5892C46.5759 24.5948 46.8821 24.7408 47.1274 24.9701L47.3794 25.2045L47.5493 25.3627L47.731 25.3099L48.0298 25.2103C48.3677 25.1014 48.7291 25.0954 49.0786 25.2162L49.3481 25.3099L49.6177 25.3978C49.7706 25.4507 49.926 25.4986 50.0806 25.5326L50.356 25.5912L50.6255 25.6498C50.6877 25.6635 50.7648 25.6673 50.8599 25.6439L51.1528 25.5736L51.4517 25.4974C51.8206 25.4069 52.1945 25.448 52.5356 25.6263L53.063 25.9076C53.1804 25.9693 53.2963 26.0068 53.4087 26.0306L53.9595 26.1478C54.2084 26.2005 54.4502 26.2844 54.6802 26.3998L54.9438 26.5345L55.1372 26.6342L55.2661 26.5756L55.4009 26.5052L55.4536 26.306L55.5181 26.0306C55.5761 25.7992 55.6602 25.5745 55.7642 25.3568L55.8931 25.0931L56.0161 24.8295C56.0875 24.6802 56.151 24.5296 56.2036 24.3783L56.2974 24.1088L56.3911 23.8451C56.4346 23.7199 56.4592 23.5886 56.4731 23.4584L56.5024 23.1771L56.5376 22.8959C56.5526 22.7541 56.5536 22.6073 56.5435 22.4564L56.5259 22.1635L56.5024 21.8763C56.4869 21.6451 56.4884 21.4125 56.5083 21.1849L56.5376 20.9037L56.561 20.6224C56.5776 20.4338 56.5908 20.2425 56.6079 20.0541L56.6372 19.7728L56.6606 19.4916C56.6956 19.1115 56.8678 18.7859 57.1118 18.5248L57.3345 18.2845L57.4692 18.1381L57.4048 17.9564L57.2876 17.6459C57.1573 17.2971 57.132 16.9138 57.2759 16.5385L57.3755 16.2689L57.481 16.0052C57.5319 15.8723 57.5678 15.7373 57.5923 15.601L57.6392 15.3197L57.6919 15.0443C57.735 14.8028 57.8059 14.5683 57.9028 14.3412L58.1255 13.8138C58.1646 13.7223 58.1864 13.6291 58.1899 13.5326L58.2017 13.2455L58.2134 12.9642C58.2241 12.66 58.3021 12.3663 58.4419 12.097L58.7114 11.5814C58.7462 11.5145 58.7587 11.4494 58.7583 11.3822V11.0951L58.7524 10.808C58.7503 10.4584 58.8555 10.1322 59.0454 9.84705L59.2153 9.59509L59.3325 9.41345L59.2329 9.15564L59.1099 8.84509C59.0256 8.63216 58.986 8.38444 59.0396 8.12439C59.0938 7.86377 59.2297 7.64768 59.3911 7.48572L59.6313 7.25134L59.8657 7.01111C59.9003 6.97644 59.9181 6.95246 59.9243 6.9408C59.9298 6.93041 59.9301 6.92394 59.9302 6.92322L59.9653 6.64783L59.9829 6.46033L59.7192 6.47791C59.3824 6.49862 59.0624 6.42252 58.77 6.26697L58.5005 6.12634L58.231 5.97986H58.2192L57.9321 6.05603L57.6392 6.13806C57.3988 6.203 57.1561 6.24121 56.9126 6.25525L56.6313 6.27283L56.3442 6.29041C56.0386 6.30801 55.741 6.25476 55.4595 6.13806L55.1841 6.02673L54.9146 5.90955C54.7966 5.86057 54.6813 5.83447 54.5688 5.82166L54.2876 5.7865L54.0063 5.7572C53.8949 5.74484 53.7777 5.74719 53.6548 5.76892L53.3677 5.82166L53.0806 5.86853C52.7973 5.91862 52.5126 5.91638 52.231 5.85681L51.9556 5.79822L51.6743 5.73962C51.4044 5.68219 51.1471 5.58223 50.9067 5.4408L50.6431 5.28259L50.4614 5.17126L50.2329 5.29431L49.9341 5.44666C49.5921 5.62095 49.1975 5.68306 48.7974 5.55798L48.522 5.47595L48.2524 5.38806C48.1798 5.36537 48.1037 5.3583 48.0239 5.37048L47.7368 5.41736L47.4497 5.45837C47.0722 5.51554 46.7106 5.43251 46.395 5.24158L46.1313 5.07751L45.8618 4.91931C45.7954 4.87938 45.7517 4.87156 45.7212 4.87244L45.4399 4.88416L45.1587 4.89001C44.97 4.89546 44.779 4.90257 44.5903 4.90759L44.3032 4.91345L44.022 4.91931C43.862 4.92357 43.6992 4.93736 43.5356 4.96033L42.9614 5.04236C42.52 5.10407 42.129 4.94912 41.8247 4.6908L41.5669 4.46814L41.4321 4.35681L41.2915 4.43884L40.9927 4.60291C40.6142 4.81111 40.1643 4.86512 39.7329 4.65564L39.4634 4.52673L39.1938 4.39197C39.1382 4.36549 39.0954 4.35848 39.0532 4.36267L38.7661 4.39783L38.479 4.42712C38.0862 4.47029 37.7241 4.35886 37.4185 4.14587L37.1548 3.95837L37.02 3.86462L36.8325 3.97595L36.5337 4.15173C36.1935 4.35067 35.7814 4.44167 35.356 4.30994L35.0864 4.22205L34.811 4.14001C34.6559 4.09196 34.4979 4.05156 34.3423 4.02283L34.0669 3.97595L33.7856 3.92322C33.6381 3.89609 33.4899 3.88142 33.3403 3.87634L32.7778 3.85291C32.4472 3.84173 32.1391 3.7404 31.8638 3.57166L31.5942 3.40759L31.3306 3.24353L31.3247 3.23767L31.0552 3.31384L30.7681 3.38416C30.5042 3.45001 30.2347 3.47864 29.9653 3.46033L29.6841 3.43689L29.4028 3.41931C29.0943 3.39803 28.802 3.30633 28.5356 3.15564L28.2661 3.0033L28.061 2.88611L27.8267 2.99744L27.5278 3.13806C27.1905 3.29371 26.813 3.34397 26.4321 3.23181L25.8813 3.06775C25.692 3.01162 25.5016 2.95411 25.313 2.89197L25.0376 2.79822L24.7622 2.71033C24.7093 2.69297 24.6571 2.68534 24.5923 2.69861L24.2993 2.76306L24.0122 2.82166C23.7547 2.87579 23.493 2.89323 23.2329 2.87439L22.9517 2.85681L22.6763 2.83923C22.3444 2.81519 22.0379 2.69606 21.7681 2.51697L21.5044 2.34119L21.3521 2.24158L21.1587 2.35876L20.8599 2.52869C20.6612 2.6416 20.4152 2.71674 20.145 2.69861C19.874 2.67978 19.6424 2.56839 19.4595 2.42322L19.1958 2.21814L18.938 2.0072C18.9021 1.97873 18.8769 1.96971 18.8677 1.96619L18.8618 1.96033L18.5747 1.96619H18.2935C18.2311 1.9663 18.1435 1.9772 18.0298 2.03064L17.7368 2.17126L17.438 2.31189C17.1362 2.45337 16.8045 2.5267 16.4595 2.48767L16.1782 2.45251L15.9028 2.42322C15.5723 2.38583 15.27 2.25321 15.0063 2.0658L14.479 1.6908C14.4604 1.6777 14.4479 1.67479 14.4438 1.67322L14.1685 1.70837L13.8813 1.73767C13.6432 1.76593 13.4035 1.77374 13.1665 1.75525L12.8853 1.73181L12.604 1.71423C12.4201 1.69989 12.2346 1.6863 12.0474 1.67322L11.7896 1.64978L11.7192 1.89001Z" fill="black"/>
</svg>
