<svg width="96" height="80" viewBox="0 0 96 80" fill="none" xmlns="http://www.w3.org/2000/svg">
<path d="M30.4601 28.3204L29.4843 28.5851L28.5779 28.8877L27.6866 29.2318L26.736 29.4096L25.8233 29.6958L25.0328 30.3274L24.0142 30.6451L23.8428 29.6315L23.4645 28.7969L23.2086 27.9283L22.9401 27.0635L23.0145 26.1003L22.4888 25.3086L22.456 24.377L21.9177 23.589L21.8597 22.6624L21.5408 21.8128L21.4323 20.9013L21.0831 20.0579L20.9659 19.2372L21.6769 18.8741L22.5392 18.7077L23.3423 18.3421L24.168 18.0559L25.0719 18.0282L25.9267 17.8328L26.7234 17.4521L27.5403 17.1306L28.4102 16.9894L29.1653 16.4687L30.0113 16.2406L30.8836 16.1019L31.7308 15.88L31.7661 16.7789L31.427 17.6361L31.577 18.5463L31.3009 19.4099L31.2669 20.3012L31.0765 21.1736L31.2316 22.0851L31.0211 22.9562L30.7967 23.8261L30.7601 24.7161L30.571 25.5897L30.5786 26.4861L30.4588 27.3686L30.4601 28.3204Z" fill="#4297FE"/>
<path d="M30.4601 28.3204L29.4843 28.5851L28.5779 28.8877L27.6866 29.2318L26.736 29.4096L25.8233 29.6958L25.0328 30.3274L24.0142 30.6451L23.8428 29.6315L23.4645 28.7969L23.2086 27.9283L22.9401 27.0635L23.0145 26.1003L22.4888 25.3086L22.456 24.377L21.9177 23.589L21.8597 22.6624L21.5408 21.8128L21.4323 20.9013L21.0831 20.0579L20.9659 19.2372L21.6769 18.8741L22.5392 18.7077L23.3423 18.3421L24.168 18.0559L25.0719 18.0282L25.9267 17.8328L26.7234 17.4521L27.5403 17.1306L28.4102 16.9894L29.1653 16.4687L30.0113 16.2406L30.8836 16.1019L31.7308 15.88L31.7661 16.7789L31.427 17.6361L31.577 18.5463L31.3009 19.4099L31.2669 20.3012L31.0765 21.1736L31.2316 22.0851L31.0211 22.9562L30.7967 23.8261L30.7601 24.7161L30.571 25.5897L30.5786 26.4861L30.4588 27.3686L30.4601 28.3204Z" stroke="black" stroke-width="1.5" stroke-linecap="round" stroke-linejoin="round"/>
<path d="M54.7635 30.5381L55.7115 30.2128L56.6734 29.9846L57.4865 29.4287L58.1005 28.6546L58.7586 27.9814L59.1267 27.1204L59.1532 26.2001L59.3271 25.2394L58.9868 24.3456L58.8292 23.4064L58.2291 22.6449L57.9177 21.7511L57.2836 20.9771L57.1638 20.1349L57.16 19.2638L56.7705 18.486L56.4793 17.6842L56.0557 16.9404L55.5287 16.2495L54.7206 15.9066L53.9882 15.4994L53.233 15.0204L52.3455 15.0872L51.4429 14.9082L50.5831 14.5993L49.7346 14.2728L48.9618 13.7912L48.2798 13.1911L47.5423 12.6226L47.2095 11.7262L46.4115 11.2522L45.7068 11.261L45.326 11.9342L45.0752 12.6289L44.9214 13.4344L45.2819 14.1228L44.4259 13.8278L43.4905 13.9185L42.7202 14.5186L43.0026 15.4969L43.6027 16.2634L44.3503 16.8723L45.2101 17.3211L46.1304 17.6338L47.1364 17.6779L47.5637 18.5225L48.1449 19.2613L48.4601 20.1602L49.0198 20.9115L49.5796 21.6641L49.8544 22.587L50.5591 23.2513L51.0533 24.0405L51.2928 24.986L51.787 25.7765L52.4161 26.4875L52.8296 27.3271L53.5066 28.0091L53.9176 28.8513L54.3185 29.6997L54.7635 30.5381Z" fill="#FBF8F4"/>
<path d="M54.7635 30.5381L55.7115 30.2128L56.6734 29.9846L57.4865 29.4287L58.1005 28.6546L58.7586 27.9814L59.1267 27.1204L59.1532 26.2001L59.3271 25.2394L58.9868 24.3456L58.8292 23.4064L58.2291 22.6449L57.9177 21.7511L57.2836 20.9771L57.1638 20.1349L57.16 19.2638L56.7705 18.486L56.4793 17.6842L56.0557 16.9404L55.5287 16.2495L54.7206 15.9066L53.9882 15.4994L53.233 15.0204L52.3455 15.0872L51.4429 14.9082L50.5831 14.5993L49.7346 14.2728L48.9618 13.7912L48.2798 13.1911L47.5423 12.6226L47.2095 11.7262L46.4115 11.2522L45.7068 11.261L45.326 11.9342L45.0752 12.6289L44.9214 13.4344L45.2819 14.1228L44.4259 13.8278L43.4905 13.9185L42.7202 14.5186L43.0026 15.4969L43.6027 16.2634L44.3503 16.8723L45.2101 17.3211L46.1304 17.6338L47.1364 17.6779L47.5637 18.5225L48.1449 19.2613L48.4601 20.1602L49.0198 20.9115L49.5796 21.6641L49.8544 22.587L50.5591 23.2513L51.0533 24.0405L51.2928 24.986L51.787 25.7765L52.4161 26.4875L52.8296 27.3271L53.5066 28.0091L53.9176 28.8513L54.3185 29.6997L54.7635 30.5381Z" stroke="black" stroke-width="1.5" stroke-linecap="round" stroke-linejoin="round"/>
<path d="M17.1221 30.6097L17.2645 31.3876L17.1612 32.2965L17.3553 33.1828L17.3792 34.0829L17.5431 34.9704L17.4209 35.8832L17.7095 36.7606L17.4448 37.6847L17.5797 38.5747L17.8797 39.4509L17.876 40.3523L18.0941 41.2373L17.8936 42.1538L18.1949 43.0312L18.0008 43.949L18.384 44.8189L18.3865 45.7202L18.408 46.6204L18.4054 47.5218L18.4105 48.4231L18.3878 49.327L18.4571 50.2234L18.5353 51.1185L18.8101 51.9984L18.8366 52.8985L19.095 53.7798L18.8505 54.7013L19.1543 55.5787L19.0585 56.489L19.2123 57.3777L19.3459 58.269L19.3762 59.1692L19.5766 60.0542L19.4896 60.9631L19.4405 61.8695L19.5375 62.7659L19.6447 63.7265L20.6268 63.8438L21.5521 63.9207L22.364 64.4438L23.2817 64.5497L24.1882 64.6972L25.082 64.9002L25.9506 65.199L26.8116 65.5255L27.6992 65.7449L28.6195 65.8432L29.4729 66.2012L30.4235 66.1773L31.2291 66.7206L32.1481 66.8202L33.0154 67.1253L33.8815 67.4354L34.798 67.5438L35.6553 67.8893L36.5491 68.0859L37.4354 68.3204L38.396 68.2561L39.2646 68.5574L40.1307 68.865L40.9817 69.2382L41.8818 69.4134L42.7554 69.6958L43.6606 69.8509L44.557 70.04L45.4432 70.2707L46.3648 70.3678L47.2825 70.4711L48.1045 70.9578L49.0172 71.0851L49.9287 71.2162L50.7507 71.7066L51.6798 71.8415L52.5723 71.6032L53.3905 71.1645L54.336 71.1796L55.1757 70.8153L56.0165 70.4548L56.8977 70.243L57.8269 70.1988L58.6438 69.7513L59.5086 69.479L60.3936 69.2748L61.2925 69.1235L62.1712 68.8953L63.0335 68.6142L63.9462 68.5108L64.7782 68.1162L65.6469 67.8565L66.5419 67.6901L67.4269 67.4909L68.2464 67.0509L69.1288 66.8404L70.0592 66.8013L70.8736 66.3361L71.7952 66.2151L71.7296 65.2847L71.9944 64.3745L71.9011 63.4542L71.8343 62.5352L71.9528 61.6212L71.7624 60.6996L71.8796 59.7856L71.8393 58.8679L72.1646 57.9602L72.1999 57.0436L72.1154 56.1246L71.8986 55.2018L72.0536 54.2891L72.0889 53.3738L72.0271 52.4548L72.133 51.5408L72.1381 50.623L72.0637 49.704L72.2389 48.7925L72.3738 47.8785L72.1267 46.9544L72.2452 46.0405L72.3927 45.1265L72.4999 44.2125L72.5112 43.2947L72.3448 42.3731L72.4999 41.4591L72.4759 40.5414L72.6045 39.6274L72.4394 38.7058L72.5125 37.7906L72.4621 36.8715L72.4583 35.9525L72.7899 35.0435L72.4747 34.1169L72.752 33.1185L71.7914 33.4374L70.8673 33.4614L69.9622 33.5925L69.0986 33.9543L68.1871 34.0438L67.2958 34.2531L66.3793 34.3199L65.512 34.6653L64.5866 34.6855L63.7041 34.9402L62.7965 35.0612L61.8976 35.2301L61.0063 35.4394L60.1112 35.6272L59.2111 35.7861L58.2807 35.7798L57.368 35.8693L56.5032 36.2273L55.6055 36.4038L54.6588 36.3005L53.775 36.5551L52.8623 36.6471L52.0126 37.0846L51.0873 37.1111L50.1632 37.1451L49.2782 37.5132L48.4071 37.1073L47.4578 37.1665L46.622 36.6925L45.6626 36.7997L44.7814 36.5425L43.9165 36.2034L43.024 35.9991L42.0759 36.0521L41.2502 35.5377L40.3614 35.3184L39.4613 35.1482L38.5435 35.0574L37.6711 34.7612L36.7445 34.7132L35.8091 34.712L34.9645 34.2783L34.0782 34.0438L33.1491 34.006L32.2439 33.8648L31.3627 33.5988L30.4701 33.3971L29.5738 33.208L28.6485 33.1538L27.7849 32.8084L26.8659 32.7214L25.9771 32.497L25.1299 32.0784L24.197 32.0595L23.2906 31.9183L22.393 31.7355L21.5218 31.4292L20.6482 31.1279L19.7178 31.0989L18.8391 30.8266L17.9529 30.548L17.1221 30.6097Z" fill="#9C81F6"/>
<path d="M17.1221 30.6097L17.2645 31.3876L17.1612 32.2965L17.3553 33.1828L17.3792 34.0829L17.5431 34.9704L17.4209 35.8832L17.7095 36.7606L17.4448 37.6847L17.5797 38.5747L17.8797 39.4509L17.876 40.3523L18.0941 41.2373L17.8936 42.1538L18.1949 43.0312L18.0008 43.949L18.384 44.8189L18.3865 45.7202L18.408 46.6204L18.4054 47.5218L18.4105 48.4231L18.3878 49.327L18.4571 50.2234L18.5353 51.1185L18.8101 51.9984L18.8366 52.8985L19.095 53.7798L18.8505 54.7013L19.1543 55.5787L19.0585 56.489L19.2123 57.3777L19.3459 58.269L19.3762 59.1692L19.5766 60.0542L19.4896 60.9631L19.4405 61.8695L19.5375 62.7659L19.6447 63.7265L20.6268 63.8438L21.5521 63.9207L22.364 64.4438L23.2817 64.5497L24.1882 64.6972L25.082 64.9002L25.9506 65.199L26.8116 65.5255L27.6992 65.7449L28.6195 65.8432L29.4729 66.2012L30.4235 66.1773L31.2291 66.7206L32.1481 66.8202L33.0154 67.1253L33.8815 67.4354L34.798 67.5438L35.6553 67.8893L36.5491 68.0859L37.4354 68.3204L38.396 68.2561L39.2646 68.5574L40.1307 68.865L40.9817 69.2382L41.8818 69.4134L42.7554 69.6958L43.6606 69.8509L44.557 70.04L45.4432 70.2707L46.3648 70.3678L47.2825 70.4711L48.1045 70.9578L49.0172 71.0851L49.9287 71.2162L50.7507 71.7066L51.6798 71.8415L52.5723 71.6032L53.3905 71.1645L54.336 71.1796L55.1757 70.8153L56.0165 70.4548L56.8977 70.243L57.8269 70.1988L58.6438 69.7513L59.5086 69.479L60.3936 69.2748L61.2925 69.1235L62.1712 68.8953L63.0335 68.6142L63.9462 68.5108L64.7782 68.1162L65.6469 67.8565L66.5419 67.6901L67.4269 67.4909L68.2464 67.0509L69.1288 66.8404L70.0592 66.8013L70.8736 66.3361L71.7952 66.2151L71.7296 65.2847L71.9944 64.3745L71.9011 63.4542L71.8343 62.5352L71.9528 61.6212L71.7624 60.6996L71.8796 59.7856L71.8393 58.8679L72.1646 57.9602L72.1999 57.0436L72.1154 56.1246L71.8986 55.2018L72.0536 54.2891L72.0889 53.3738L72.0271 52.4548L72.133 51.5408L72.1381 50.623L72.0637 49.704L72.2389 48.7925L72.3738 47.8785L72.1267 46.9544L72.2452 46.0405L72.3927 45.1265L72.4999 44.2125L72.5112 43.2947L72.3448 42.3731L72.4999 41.4591L72.4759 40.5414L72.6045 39.6274L72.4394 38.7058L72.5125 37.7906L72.4621 36.8715L72.4583 35.9525L72.7899 35.0435L72.4747 34.1169L72.752 33.1185L71.7914 33.4374L70.8673 33.4614L69.9622 33.5925L69.0986 33.9543L68.1871 34.0438L67.2958 34.2531L66.3793 34.3199L65.512 34.6653L64.5866 34.6855L63.7041 34.9402L62.7965 35.0612L61.8976 35.2301L61.0063 35.4394L60.1112 35.6272L59.2111 35.7861L58.2807 35.7798L57.368 35.8693L56.5032 36.2273L55.6055 36.4038L54.6588 36.3005L53.775 36.5551L52.8623 36.6471L52.0126 37.0846L51.0873 37.1111L50.1632 37.1451L49.2782 37.5132L48.4071 37.1073L47.4578 37.1665L46.622 36.6925L45.6626 36.7997L44.7814 36.5425L43.9165 36.2034L43.024 35.9991L42.0759 36.0521L41.2502 35.5377L40.3614 35.3184L39.4613 35.1482L38.5435 35.0574L37.6711 34.7612L36.7445 34.7132L35.8091 34.712L34.9645 34.2783L34.0782 34.0438L33.1491 34.006L32.2439 33.8648L31.3627 33.5988L30.4701 33.3971L29.5738 33.208L28.6485 33.1538L27.7849 32.8084L26.8659 32.7214L25.9771 32.497L25.1299 32.0784L24.197 32.0595L23.2906 31.9183L22.393 31.7355L21.5218 31.4292L20.6482 31.1279L19.7178 31.0989L18.8391 30.8266L17.9529 30.548L17.1221 30.6097Z" fill="#FBF8F4" stroke="black" stroke-width="1.5" stroke-linecap="round" stroke-linejoin="round"/>
<path d="M49.4585 37.3923L49.374 38.3063L49.5039 39.2065L49.3526 40.1255L49.5077 41.0231L49.6779 41.9194L49.6388 42.8309L49.751 43.7323L49.6993 44.645L49.7901 45.5477L50.0876 46.4352L50.1317 47.3404L50.0031 48.2569L50.1065 49.1595L50.1292 50.0659L50.1733 50.9711L50.2603 51.8738L50.375 52.7739L50.3674 53.6841L50.6385 54.5729L50.6599 55.4806L50.4847 56.4021L50.8276 57.2871L50.7444 58.2011L50.6133 59.1201L50.9524 60.0051L50.9688 60.9128L50.8818 61.8281L51.0154 62.7282L51.2411 63.622L50.9965 64.5474L51.3495 65.4324L51.4491 66.3337L51.4037 67.2465L51.4327 68.1542L51.5651 69.053L51.4453 69.9708L51.7555 70.8596L51.8399 71.7647" fill="#9C81F6"/>
<path d="M49.4585 37.3923L49.374 38.3063L49.5039 39.2065L49.3526 40.1255L49.5077 41.0231L49.6779 41.9194L49.6388 42.8309L49.751 43.7323L49.6993 44.645L49.7901 45.5477L50.0876 46.4352L50.1317 47.3404L50.0031 48.2569L50.1065 49.1595L50.1292 50.0659L50.1733 50.9711L50.2603 51.8738L50.375 52.7739L50.3674 53.6841L50.6385 54.5729L50.6599 55.4806L50.4847 56.4021L50.8276 57.2871L50.7444 58.2011L50.6133 59.1201L50.9524 60.0051L50.9688 60.9128L50.8818 61.8281L51.0154 62.7282L51.2411 63.622L50.9965 64.5474L51.3495 65.4324L51.4491 66.3337L51.4037 67.2465L51.4327 68.1542L51.5651 69.053L51.4453 69.9708L51.7555 70.8596L51.8399 71.7647" stroke="black" stroke-width="1.5" stroke-linecap="round" stroke-linejoin="round"/>
<path d="M45.9046 17.7886L44.9957 17.781L44.0565 17.5957L43.1551 17.8113L42.2676 18.0886L41.3435 18.1227L40.4459 18.3244L39.5256 18.4504L38.7238 18.9623L37.835 19.2005L37.0496 19.6746L36.3802 20.2809L35.6125 20.8092L35.2859 21.6841L35.3629 22.5615L35.4675 23.3999L35.5141 24.2962L36.0045 25.0362L36.6853 25.5909L37.3509 26.1381L38.1212 26.5327L38.9016 26.9487L39.7941 26.9348L40.6426 27.2538L41.4229 27.197L41.5314 28.0253L41.8856 28.8788L42.1856 29.7411L42.6496 30.5378L42.9937 31.3749L43.469 32.1439L43.8044 33.0113L44.5696 33.5483L45.2012 34.1711L45.8958 34.5796L46.7821 34.4989L47.6507 34.2152L48.6012 34.3148L49.4862 34.1043L50.3385 33.745L51.2121 33.484L52.1387 33.4714L52.9796 33.0617L53.881 32.9243L54.6538 32.7226L54.9614 31.8729L54.8567 30.9173L54.7987 29.9604L54.7962 29.0061L55.6308 28.5901L56.1603 27.8236L56.9179 27.1706L56.7994 26.1935L56.4376 25.3338L55.8464 24.5862L54.9046 24.3706L54.002 24.0554L54.0247 23.1729L53.8482 22.3169L53.5267 21.5L53.0628 20.7487L52.8737 19.8876L52.3455 19.1968L51.6306 18.7543L50.7608 18.3105L49.78 18.2084L48.813 18.0848L47.86 17.8163L46.8779 17.7961L45.9046 17.7886Z" fill="#FBF8F4"/>
<path d="M45.9046 17.7886L44.9957 17.781L44.0565 17.5957L43.1551 17.8113L42.2676 18.0886L41.3435 18.1227L40.4459 18.3244L39.5256 18.4504L38.7238 18.9623L37.835 19.2005L37.0496 19.6746L36.3802 20.2809L35.6125 20.8092L35.2859 21.6841L35.3629 22.5615L35.4675 23.3999L35.5141 24.2962L36.0045 25.0362L36.6853 25.5909L37.3509 26.1381L38.1212 26.5327L38.9016 26.9487L39.7941 26.9348L40.6426 27.2538L41.4229 27.197L41.5314 28.0253L41.8856 28.8788L42.1856 29.7411L42.6496 30.5378L42.9937 31.3749L43.469 32.1439L43.8044 33.0113L44.5696 33.5483L45.2012 34.1711L45.8958 34.5796L46.7821 34.4989L47.6507 34.2152L48.6012 34.3148L49.4862 34.1043L50.3385 33.745L51.2121 33.484L52.1387 33.4714L52.9796 33.0617L53.881 32.9243L54.6538 32.7226L54.9614 31.8729L54.8567 30.9173L54.7987 29.9604L54.7962 29.0061L55.6308 28.5901L56.1603 27.8236L56.9179 27.1706L56.7994 26.1935L56.4376 25.3338L55.8464 24.5862L54.9046 24.3706L54.002 24.0554L54.0247 23.1729L53.8482 22.3169L53.5267 21.5L53.0628 20.7487L52.8737 19.8876L52.3455 19.1968L51.6306 18.7543L50.7608 18.3105L49.78 18.2084L48.813 18.0848L47.86 17.8163L46.8779 17.7961L45.9046 17.7886Z" stroke="black" stroke-width="1.5" stroke-linecap="round" stroke-linejoin="round"/>
<path d="M46.9547 21.6173C46.9547 21.969 46.6698 22.2552 46.3168 22.2552C45.9638 22.2552 45.6789 21.9703 45.6789 21.6173C45.6789 21.2643 45.9638 20.9794 46.3168 20.9794C46.6698 20.9794 46.9547 21.2643 46.9547 21.6173Z" fill="black"/>
<path d="M42.9395 29.049L43.6064 29.6944L44.5078 29.9869L45.4634 30.0171L46.337 29.6516" stroke="black" stroke-width="1.5" stroke-linecap="round" stroke-linejoin="round"/>
<path d="M45.9375 34.779L45.3815 35.5695L45.3059 36.4645L45.9652 36.81L46.8339 36.7709L47.6029 37.1932L48.4664 37.1806L49.2808 37.2676L50.1368 37.1907L51.0294 37.1768L51.864 36.8402L52.7502 36.7911L53.6415 36.7709L54.5126 36.631L55.3598 36.3687L56.2272 36.2048L57.1008 36.0813L58.1081 35.8947L57.2899 35.2782L56.5877 34.7488L55.9725 34.126L55.3775 33.483L54.8253 32.7052L53.8937 32.9788L53.0112 33.1956L52.1022 33.2876L51.2046 33.4351L50.3701 33.8814L49.4397 33.8789L48.5345 33.9898L47.6936 34.4033L46.7721 34.455L45.9375 34.779Z" fill="#FBF8F4"/>
<path d="M45.9375 34.779L45.3815 35.5695L45.3059 36.4645L45.9652 36.81L46.8339 36.7709L47.6029 37.1932L48.4664 37.1806L49.2808 37.2676L50.1368 37.1907L51.0294 37.1768L51.864 36.8402L52.7502 36.7911L53.6415 36.7709L54.5126 36.631L55.3598 36.3687L56.2272 36.2048L57.1008 36.0813L58.1081 35.8947L57.2899 35.2782L56.5877 34.7488L55.9725 34.126L55.3775 33.483L54.8253 32.7052L53.8937 32.9788L53.0112 33.1956L52.1022 33.2876L51.2046 33.4351L50.3701 33.8814L49.4397 33.8789L48.5345 33.9898L47.6936 34.4033L46.7721 34.455L45.9375 34.779Z" stroke="black" stroke-width="1.5" stroke-linecap="round" stroke-linejoin="round"/>
<path d="M36.9161 34.8053L36.2996 34.0476L35.7689 33.3505L35.2898 32.6155L34.8675 31.8389L34.2813 31.1808L33.5967 30.5959L33.1946 29.8016L32.6676 29.17L31.857 29.1965L31.1674 29.721L30.3795 29.9794L29.647 30.3904L28.7872 30.495L29.1465 31.3611L29.3419 32.2562L29.5285 33.1071L30.416 33.2572L31.3489 33.3883L32.1999 33.9102L33.1429 34.0047L34.0367 34.3224L35.0049 34.2998L35.876 34.707L36.9161 34.8053Z" fill="#FBF8F4"/>
<path d="M36.9161 34.8053L36.2996 34.0476L35.7689 33.3505L35.2898 32.6155L34.8675 31.8389L34.2813 31.1808L33.5967 30.5959L33.1946 29.8016L32.6676 29.17L31.857 29.1965L31.1674 29.721L30.3795 29.9794L29.647 30.3904L28.7872 30.495L29.1465 31.3611L29.3419 32.2562L29.5285 33.1071L30.416 33.2572L31.3489 33.3883L32.1999 33.9102L33.1429 34.0047L34.0367 34.3224L35.0049 34.2998L35.876 34.707L36.9161 34.8053Z" stroke="black" stroke-width="1.5" stroke-linecap="round" stroke-linejoin="round"/>
<path d="M32.0989 30.1143L32.583 29.3554L32.9663 28.5221L33.0293 27.5942L33.4226 26.7445L33.3205 25.8267L33.1793 24.9001L32.2741 24.8926L31.4257 25.0514L30.5256 25.1233L29.7994 25.6414L29.1615 26.1961L28.8804 26.9462L29.7603 26.9424L31.1307 26.8353L30.6189 27.516L30.373 28.246L29.488 28.7011L28.5135 28.8952L27.5995 29.2747L26.7234 29.6239L26.4775 30.4106L26.9112 31.2325L27.6474 31.6788L28.506 32.0356L29.3859 32.0419L30.1789 31.646L31.016 31.4002L31.7207 30.8858L32.0989 30.1143Z" fill="#FBF8F4"/>
<path d="M32.0989 30.1143L32.583 29.3554L32.9663 28.5221L33.0293 27.5942L33.4226 26.7445L33.3205 25.8267L33.1793 24.9001L32.2741 24.8926L31.4257 25.0514L30.5256 25.1233L29.7994 25.6414L29.1615 26.1961L28.8804 26.9462L29.7603 26.9424L31.1307 26.8353L30.6189 27.516L30.373 28.246L29.488 28.7011L28.5135 28.8952L27.5995 29.2747L26.7234 29.6239L26.4775 30.4106L26.9112 31.2325L27.6474 31.6788L28.506 32.0356L29.3859 32.0419L30.1789 31.646L31.016 31.4002L31.7207 30.8858L32.0989 30.1143Z" stroke="black" stroke-width="1.5" stroke-linecap="round" stroke-linejoin="round"/>
<path d="M65.8234 29.1058L66.7021 29.4159L67.5253 29.9504L68.4834 30.1093L69.347 30.5291L70.2459 30.8556L71.2053 31.0119L72.0096 31.2225L72.4458 30.5455L72.6941 29.6756L73.0131 28.8246L73.0408 27.8905L73.1757 26.9878L73.448 26.1243L73.975 25.3326L74.0456 24.411L74.4339 23.5802L74.6658 22.7053L74.7112 21.7749L75.01 20.9177L75.3453 20.044L74.4616 19.8549L73.6459 19.5322L72.8378 19.1855L71.9365 19.1489L71.1233 18.8224L70.3253 18.443L69.4668 18.2602L68.6423 17.9677L67.7989 17.737L66.9681 17.4647L66.1323 17.205L65.2775 17.0096L64.4745 16.8041L64.7065 17.626L64.5577 18.5362L64.6106 19.425L64.8779 20.2899L64.7859 21.195L65.0229 22.0624L64.98 22.9612L65.0229 23.8513L65.3418 24.7111L65.5145 25.586L65.6784 26.4621L65.6078 27.3648L65.6167 28.2611L65.8234 29.1058Z" fill="#FF1D25"/>
<path d="M65.8234 29.1058L66.7021 29.4159L67.5253 29.9504L68.4834 30.1093L69.347 30.5291L70.2459 30.8556L71.2053 31.0119L72.0096 31.2225L72.4458 30.5455L72.6941 29.6756L73.0131 28.8246L73.0408 27.8905L73.1757 26.9878L73.448 26.1243L73.975 25.3326L74.0456 24.411L74.4339 23.5802L74.6658 22.7053L74.7112 21.7749L75.01 20.9177L75.3453 20.044L74.4616 19.8549L73.6459 19.5322L72.8378 19.1855L71.9364 19.1489L71.1233 18.8224L70.3253 18.443L69.4668 18.2602L68.6423 17.9677L67.7989 17.737L66.9681 17.4647L66.1323 17.205L65.2775 17.0096L64.4745 16.8041L64.7065 17.626L64.5577 18.5362L64.6106 19.425L64.8779 20.2899L64.7859 21.195L65.0229 22.0624L64.98 22.9612L65.0229 23.8513L65.3418 24.7111L65.5145 25.586L65.6784 26.4621L65.6078 27.3648L65.6167 28.2611L65.8234 29.1058Z" stroke="black" stroke-width="1.5" stroke-linecap="round" stroke-linejoin="round"/>
<path d="M59.4746 35.5101L59.96 34.9957L60.3142 34.1687L60.937 33.5396L61.3076 32.7252L61.8598 32.0432L62.3981 31.3498L62.9402 30.659L63.5037 30.0576L64.245 30.2581L65.0014 30.5997L65.8171 30.7838L66.6227 30.9968L67.3022 31.4141L67.1673 32.2789L66.7878 33.1274L66.7273 34.0804L65.8057 34.383L64.8817 34.5645L63.9021 34.4813L62.9818 34.6755L62.059 34.8621L61.1841 35.2743L60.2613 35.4697L59.4746 35.5101Z" fill="#FBF8F4"/>
<path d="M59.4746 35.5101L59.96 34.9957L60.3142 34.1687L60.937 33.5396L61.3076 32.7252L61.8598 32.0432L62.3981 31.3498L62.9402 30.659L63.5037 30.0576L64.245 30.2581L65.0014 30.5997L65.8171 30.7838L66.6227 30.9968L67.3022 31.4141L67.1673 32.2789L66.7878 33.1274L66.7273 34.0804L65.8057 34.383L64.8817 34.5645L63.9021 34.4813L62.9818 34.6755L62.059 34.8621L61.1841 35.2743L60.2613 35.4697L59.4746 35.5101Z" stroke="black" stroke-width="1.5" stroke-linecap="round" stroke-linejoin="round"/>
<path d="M63.8341 31.1443L63.6765 30.2026L63.2088 29.4008L62.8936 28.5372L62.8142 27.6156L62.6932 26.6991L63.1848 25.9591L63.9148 25.6011L64.7872 25.7587L65.5801 26.1595L66.4828 26.331L67.1711 26.9298L67.1484 27.6661L66.4071 27.835L65.062 27.7682L65.3847 28.4842L65.826 29.0856L66.711 29.489L67.6565 29.7714L68.6184 30.0084L69.4643 30.4774L69.7152 31.2956L69.2601 32.1163L68.6196 32.8285L67.6628 32.9382L66.8244 32.6773L66.0415 32.381L65.1326 32.3155L64.6296 31.5477L63.8341 31.1443Z" fill="#FBF8F4"/>
<path d="M63.8341 31.1443L63.6765 30.2026L63.2088 29.4008L62.8936 28.5372L62.8142 27.6156L62.6932 26.6991L63.1848 25.9591L63.9148 25.6011L64.7872 25.7587L65.5801 26.1595L66.4828 26.331L67.1711 26.9298L67.1484 27.6661L66.4071 27.835L65.062 27.7682L65.3847 28.4842L65.826 29.0856L66.711 29.489L67.6565 29.7714L68.6184 30.0084L69.4643 30.4774L69.7152 31.2956L69.2601 32.1163L68.6196 32.8285L67.6628 32.9382L66.8244 32.6773L66.0415 32.381L65.1326 32.3155L64.6296 31.5477L63.8341 31.1443Z" stroke="black" stroke-width="1.5" stroke-linecap="round" stroke-linejoin="round"/>
<path d="M25.0883 11.0076L25.0442 10.0583L25.1791 9.10773L25.106 8.15845" fill="#FBF8F4"/>
<path d="M25.0883 11.0076L25.0442 10.0583L25.1791 9.10773L25.106 8.15845" stroke="#FFE345" stroke-width="1.5" stroke-linecap="round" stroke-linejoin="round"/>
<path d="M31.6364 11.9454L32.3058 11.1121L32.8215 10.1868" fill="#FBF8F4"/>
<path d="M31.6364 11.9454L32.3058 11.1121L32.8215 10.1868" stroke="#FFE345" stroke-width="1.5" stroke-linecap="round" stroke-linejoin="round"/>
<path d="M19.6648 14.7443L18.9488 14.3837L18.3033 13.9198L17.5948 13.5466L16.9998 13.0083" fill="#FBF8F4"/>
<path d="M19.6648 14.7443L18.9488 14.3837L18.3033 13.9198L17.5948 13.5466L16.9998 13.0083" stroke="#FFE345" stroke-width="1.5" stroke-linecap="round" stroke-linejoin="round"/>
<path d="M71.5745 14.4188L71.9086 13.53L72.4091 12.7106L72.7167 11.8092" fill="#FBF8F4"/>
<path d="M71.5745 14.4188L71.9086 13.53L72.4091 12.7106L72.7167 11.8092" stroke="#FFE345" stroke-width="1.5" stroke-linecap="round" stroke-linejoin="round"/>
<path d="M77.2161 17.8718L78.1604 17.3713L79 16.7246" fill="#FBF8F4"/>
<path d="M77.2161 17.8718L78.1604 17.3713L79 16.7246" stroke="#FFE345" stroke-width="1.5" stroke-linecap="round" stroke-linejoin="round"/>
<path d="M65.1148 15.7061L64.5992 15.0921L64.1895 14.4101L63.6865 13.7873L63.3549 13.0574" fill="#FBF8F4"/>
<path d="M65.1148 15.7061L64.5992 15.0921L64.1895 14.4101L63.6865 13.7873L63.3549 13.0574" stroke="#FFE345" stroke-width="1.5" stroke-linecap="round" stroke-linejoin="round"/>
</svg>
