<svg width="62" height="62" viewBox="0 0 62 62" fill="none" xmlns="http://www.w3.org/2000/svg">
<path d="M11.3511 0.80603L60.5343 5.67893L49.402 60.806L0.574768 51.9019L11.3511 0.80603Z" fill="white"/>
<path d="M12.1588 0.0032959C12.495 -0.01733 12.8161 0.0592729 13.108 0.214233L13.3775 0.360718L13.647 0.501343C13.6543 0.505222 13.6583 0.507071 13.6588 0.507202L13.9459 0.425171L14.2388 0.348999C14.4793 0.283978 14.7217 0.240005 14.9654 0.225952L15.2466 0.214233L15.5338 0.196655C15.8397 0.179017 16.1367 0.232067 16.4185 0.348999L16.6939 0.460327L16.9634 0.571655C17.0818 0.620855 17.1964 0.652577 17.3091 0.665405L17.5904 0.694702L17.8716 0.729858C17.983 0.742182 18.1004 0.739855 18.2232 0.71814L18.7974 0.612671C19.0803 0.562684 19.3658 0.564996 19.647 0.62439L19.9224 0.682983L20.2037 0.741577C20.474 0.799025 20.7305 0.90452 20.9713 1.04626L21.4107 1.30994L21.6451 1.19275L21.9439 1.04041C22.2006 0.909411 22.4861 0.838096 22.7818 0.864624L23.0806 0.929077L23.356 1.01111L23.6255 1.099C23.6982 1.12169 23.7743 1.12876 23.8541 1.11658L24.1412 1.0697L24.4283 1.02869C24.8059 0.971432 25.1673 1.0545 25.483 1.24548L25.7466 1.40369L26.0162 1.56775C26.082 1.60717 26.1265 1.60964 26.1568 1.60876L26.7193 1.59705C26.908 1.5916 27.099 1.58449 27.2877 1.57947L27.5748 1.57361L27.856 1.56189C28.0161 1.55763 28.1787 1.54386 28.3423 1.52087L28.6295 1.48572L28.9166 1.4447L29.2388 1.43298C29.5487 1.46302 29.8253 1.60275 30.0533 1.79626L30.3111 2.01306L30.44 2.11853L30.5865 2.04236L30.8853 1.8783L31.1783 1.75525C31.3828 1.69295 31.5991 1.67732 31.817 1.72009L32.1451 1.83142L32.6841 2.08923C32.7406 2.1164 32.7821 2.12283 32.8248 2.11853L33.1119 2.08923L33.399 2.05408C33.792 2.01098 34.1538 2.12787 34.4595 2.34119L34.7232 2.52283L34.858 2.61658L35.0455 2.51111L35.3443 2.33533C35.5997 2.18599 35.8948 2.09803 36.2056 2.11853L36.522 2.17712L36.7916 2.25916L37.067 2.34705C37.2221 2.3951 37.3801 2.42964 37.5357 2.45837L37.8111 2.51111L38.0923 2.56384C38.2398 2.59093 38.3882 2.60564 38.5377 2.61072L38.8189 2.62244L39.1002 2.6283C39.4312 2.63948 39.7386 2.74631 40.0142 2.91541L40.2838 3.07947L40.5416 3.23767L40.8228 3.17322L41.1099 3.09705C41.3739 3.03118 41.6432 3.0084 41.9127 3.02673L42.1939 3.04431L42.4752 3.06775C42.7841 3.08906 43.0758 3.18043 43.3423 3.33142L43.6119 3.48376L43.8111 3.59509L44.0513 3.48376L44.3502 3.349C44.6043 3.23162 44.8808 3.17015 45.1646 3.19666L45.4459 3.25525L45.9966 3.41931C46.1862 3.47551 46.3761 3.53287 46.565 3.59509L46.8404 3.68298L47.1158 3.77673C47.1687 3.79398 47.2208 3.796 47.2857 3.78259L47.5787 3.724L47.8658 3.65955C48.123 3.60553 48.3853 3.58799 48.6451 3.60681L48.9263 3.63025L49.2017 3.64783C49.5339 3.67189 49.8399 3.79068 50.1099 3.97009L50.3736 4.14587L50.5201 4.23962L50.7193 4.1283L51.0181 3.95837C51.2169 3.84535 51.4627 3.77031 51.733 3.78845C51.8683 3.79787 51.9937 3.82842 52.108 3.87634L52.4185 4.06384L52.6822 4.26892L52.94 4.47986C52.9757 4.5081 53.0011 4.51736 53.0103 4.52087H53.5845C53.6469 4.52075 53.7345 4.504 53.8482 4.45056L54.1412 4.3158L54.44 4.17517C54.742 4.03345 55.0732 3.96033 55.4185 3.99939L55.6998 4.03455L55.9752 4.06384C56.3057 4.10123 56.608 4.22799 56.8716 4.41541L57.399 4.79041C57.4122 4.79981 57.4221 4.80495 57.4283 4.80798L57.7095 4.77869L57.9966 4.74353C58.2348 4.71528 58.4745 4.71332 58.7115 4.73181L58.9927 4.74939L59.274 4.77283C59.4851 4.78939 59.687 4.8158 59.8775 4.85486L60.1177 4.90759L60.3521 4.95447C60.5723 5.00026 60.871 5.13671 61.0318 5.46423C61.1741 5.75715 61.1273 6.04512 61.0787 6.21423L60.9966 6.48376L60.9205 6.75916C60.8649 6.95145 60.8041 7.14325 60.7388 7.33337L60.6451 7.60291L60.5513 7.86658C60.5458 7.88259 60.542 7.91653 60.563 7.98962L60.7388 8.599C60.8389 8.94517 60.8343 9.31022 60.692 9.65955L60.5806 9.92908L60.4752 10.1927C60.4515 10.2505 60.4377 10.3106 60.4459 10.3861L60.481 10.6791L60.5103 10.972C60.552 11.359 60.45 11.7234 60.2291 12.0326L59.8658 12.5365C59.8192 12.6023 59.8054 12.653 59.8013 12.6947L59.7779 12.9818L59.7486 13.2631C59.7296 13.4758 59.7013 13.6871 59.6607 13.8959L59.5552 14.4467C59.5283 14.5851 59.5156 14.7283 59.5142 14.8744L59.5084 15.1615V15.4486C59.5058 15.7046 59.4664 15.9589 59.397 16.2045L59.2447 16.7435C59.1935 16.9247 59.1443 17.1074 59.0923 17.2885L59.0103 17.5638L58.9341 17.8334C58.8846 18.0058 58.837 18.1813 58.7935 18.3549L58.7232 18.6244L58.6588 18.8998C58.6244 19.0372 58.6035 19.178 58.5943 19.3217L58.5709 19.6029L58.5533 19.89C58.5411 20.0795 58.5318 20.2691 58.5181 20.4584L58.4947 20.7396L58.4771 21.0267C58.4608 21.2522 58.4278 21.4752 58.3775 21.6947L58.2486 22.2455C58.2042 22.4389 58.1554 22.634 58.1021 22.8256L57.9498 23.3646C57.8736 23.6382 57.7471 23.8945 57.5806 24.1263L57.4048 24.3783L57.2232 24.6244C57.172 24.6957 57.1519 24.7541 57.147 24.8002L57.0884 25.3627C57.0771 25.4722 57.0814 25.594 57.106 25.726L57.1646 26.0248L57.2173 26.3177C57.2703 26.6016 57.2724 26.8899 57.2173 27.1732L57.1646 27.4486L57.1119 27.7299C57.0621 27.9837 56.9778 28.23 56.8599 28.4623L56.7252 28.7201L56.5963 28.9779C56.5249 29.1184 56.4671 29.2636 56.4205 29.4056L56.3326 29.6752L56.2388 29.9447C56.1843 30.1111 56.1382 30.2806 56.0923 30.4486L56.0162 30.7181L55.94 30.9935C55.8904 31.1752 55.8383 31.357 55.7877 31.5385L55.7173 31.808L55.6412 32.0834C55.605 32.2133 55.5797 32.3453 55.5709 32.4818L55.5533 32.7689L55.5357 33.0502C55.5207 33.2844 55.4824 33.5149 55.4244 33.7416L55.2838 34.2924C55.23 34.5017 55.1627 34.7102 55.0845 34.9135L54.9849 35.1771L54.8795 35.4467C54.8705 35.4711 54.8644 35.5055 54.8795 35.5697L54.9498 35.8685L55.0201 36.1732C55.0781 36.4193 55.1125 36.6655 55.1197 36.9115L55.1314 37.2045L55.1373 37.4916C55.1455 37.7835 55.0979 38.0693 54.9908 38.3412L54.8853 38.6049L54.7798 38.8744C54.7221 39.021 54.6764 39.1704 54.6392 39.3197L54.5689 39.5892L54.4986 39.8646C54.4597 40.0209 54.4332 40.1796 54.4107 40.3392L54.3697 40.6205L54.3287 40.8959C54.301 41.0924 54.2709 41.2928 54.2349 41.4877L54.1295 42.0385C54.0757 42.3292 53.9638 42.6012 53.8013 42.847L53.6314 43.099L53.4673 43.351L53.4556 43.3685C53.4556 43.37 53.4547 43.3791 53.4556 43.3861L53.4966 43.6791L53.5377 43.9779C53.5764 44.2693 53.5593 44.5613 53.4791 44.8451L53.397 45.1205L53.3209 45.39C53.2769 45.5446 53.2428 45.7011 53.2154 45.8588L53.1685 46.14L53.1158 46.4154C53.0803 46.62 53.0389 46.8236 52.9869 47.0248L52.9166 47.3002L52.8463 47.5697C52.7857 47.8037 52.6976 48.0306 52.5884 48.2494L52.4595 48.5131L52.3482 48.7299L52.606 49.351C52.6963 49.5698 52.74 49.8285 52.6763 50.101C52.6129 50.3715 52.4604 50.5839 52.2896 50.7396L52.0318 50.974L51.7798 51.2084C51.7397 51.245 51.7166 51.2727 51.7095 51.2845V51.2904L51.6627 51.5658L51.6158 51.847C51.5972 51.959 51.5949 52.0811 51.6099 52.2103L51.6392 52.5033L51.6744 52.7963C51.6987 53.0055 51.7205 53.2157 51.733 53.4232L51.7505 53.7103L51.7681 54.0033C51.7834 54.2596 51.7665 54.5154 51.7154 54.765L51.5982 55.3158C51.5632 55.4869 51.5316 55.6587 51.5045 55.8314L51.4634 56.1127L51.4224 56.3881C51.3658 56.7494 51.1859 57.0574 50.9478 57.308L50.4908 57.7885C50.4865 57.7929 50.4819 57.7968 50.4791 57.8002L50.4908 58.0697L50.4966 58.3568C50.5063 58.6433 50.4654 58.9251 50.3677 59.1947L50.2681 59.4584L50.1744 59.7279C50.1333 59.8414 50.115 59.9445 50.1099 60.0385L50.0923 60.3021L50.0806 60.5658C50.0704 60.7595 49.9981 61.1132 49.6588 61.3334C49.3419 61.5375 49.0102 61.4795 48.8443 61.433L48.5689 61.3568L48.2994 61.2806C48.2491 61.2665 48.1867 61.2609 48.1002 61.2806L47.8013 61.351L47.5025 61.4154C47.0226 61.5253 46.5859 61.3672 46.2662 61.0521L45.856 60.642L45.6744 60.6947L45.3755 60.7826C45.035 60.8829 44.673 60.8888 44.3267 60.7592L44.063 60.6537L43.7935 60.5541C43.6424 60.4975 43.4898 60.4514 43.3365 60.4135L43.0611 60.349L42.7857 60.2787C42.7245 60.2639 42.6514 60.2581 42.5572 60.2787L42.2584 60.3431L41.9595 60.4135C41.5879 60.4943 41.2123 60.4433 40.8755 60.2552L40.3599 59.9623C40.2446 59.8979 40.1313 59.8542 40.0201 59.8275L39.4693 59.6986C39.2211 59.6394 38.9821 59.545 38.7545 59.4232L38.4966 59.2885L38.2564 59.1595L37.9517 59.2533L37.647 59.3529C37.3331 59.4544 37.0006 59.4823 36.6685 59.4056L36.3931 59.3412L36.1236 59.2767C35.8903 59.2229 35.6584 59.1486 35.438 59.0482L35.1744 58.9252L34.9107 58.808C34.7599 58.7393 34.6061 58.6762 34.4537 58.6263L33.9146 58.4506C33.7899 58.41 33.663 58.3859 33.5338 58.3744L33.2525 58.351L32.9713 58.3217C32.8284 58.309 32.6776 58.3086 32.5259 58.3217L32.2388 58.351L31.9459 58.3744C31.7159 58.3941 31.4873 58.3958 31.2603 58.3802L30.9791 58.3627L30.692 58.3392C30.5045 58.3264 30.3168 58.3176 30.1295 58.3041L29.8423 58.2806L29.5611 58.2631C29.1807 58.2352 28.854 58.0682 28.5884 57.8295L28.3423 57.6068L28.1959 57.4779L28.0142 57.5482L27.7037 57.6713C27.3575 57.808 26.9742 57.8431 26.5963 57.7064L26.3267 57.6068L26.063 57.5072C25.9285 57.4585 25.7903 57.4237 25.6529 57.4017L25.3716 57.3607L25.0963 57.3138C24.8538 57.2752 24.6163 57.2132 24.3873 57.1205L24.1236 57.0092L23.8541 56.9037C23.7618 56.8665 23.6695 56.8467 23.5728 56.8451L23.2857 56.8392L23.0045 56.8334C22.7005 56.8283 22.4088 56.7568 22.1373 56.6224L21.6099 56.3646C21.5433 56.3317 21.4826 56.3165 21.4166 56.3177L21.1236 56.3236L20.8365 56.3295C20.4887 56.3376 20.1631 56.2433 19.8755 56.0599L19.6177 55.8959L19.4302 55.7728L19.1783 55.8842L18.8677 56.0131C18.6562 56.1011 18.4082 56.1444 18.147 56.0951C17.8865 56.0454 17.6728 55.9132 17.5084 55.7552L17.2681 55.5267L17.022 55.2924C16.9867 55.2585 16.9635 55.2397 16.9517 55.2338C16.9415 55.2286 16.9349 55.228 16.9341 55.2279L16.6529 55.1986L16.3775 55.1693C16.3496 55.1662 16.2836 55.1661 16.1724 55.2162L15.5513 55.4974C15.2145 55.6491 14.8318 55.7082 14.4439 55.5912L14.1744 55.5092L13.899 55.4271C13.681 55.3611 13.4685 55.2754 13.2603 55.1752L12.9966 55.0463L12.733 54.9232C12.5431 54.8318 12.3569 54.7295 12.1705 54.6244L11.9127 54.4779L11.649 54.3314C11.6168 54.3137 11.5938 54.3097 11.5611 54.3138L11.2681 54.3549L10.9752 54.39C10.6917 54.426 10.4084 54.4136 10.1314 54.3431L9.85602 54.2728L9.58649 54.2025C9.43661 54.1643 9.2829 54.133 9.12946 54.1146L8.84821 54.0853L8.56696 54.0502C8.39189 54.0293 8.2162 54.0107 8.03961 53.9974L7.75836 53.9799L7.47711 53.9564C7.20912 53.9364 6.94687 53.8712 6.69781 53.7689L6.43414 53.6635L6.16461 53.5521C6.02918 53.4966 5.89178 53.4579 5.75446 53.4291L5.20367 53.3119C4.97843 53.2645 4.75748 53.1979 4.54156 53.1127L4.27203 53.0072L4.00836 52.9017C3.9803 52.8907 3.94622 52.8824 3.88531 52.8959L3.58649 52.9662L3.28766 53.0306C2.90291 53.1173 2.52026 53.0553 2.18024 52.849L1.92242 52.6967L1.66461 52.5385C1.58495 52.49 1.51326 52.4685 1.44781 52.4623L1.16656 52.4388L0.885315 52.4095C0.80265 52.4021 0.695435 52.3892 0.586487 52.351C0.481837 52.314 0.315048 52.2359 0.18219 52.0697C-0.162637 51.6378 0.0721682 51.1834 0.158752 51.0502L0.27594 50.8685L0.36969 50.722C0.370433 50.7119 0.371102 50.6929 0.36969 50.6693L0.352112 50.3822L0.340393 50.0892C0.329736 49.911 0.3093 49.7315 0.287659 49.5502L0.252502 49.2513L0.217346 48.9584C0.18489 48.6867 0.197623 48.4162 0.252502 48.1498L0.305237 47.8744L0.363831 47.599C0.420505 47.3251 0.52742 47.0647 0.674377 46.8256L0.826721 46.5736L0.984924 46.3158C1.01259 46.2707 1.02188 46.2374 1.02008 46.1986L1.0025 45.9115L0.990784 45.6185C0.975345 45.2838 1.05094 44.9609 1.21344 44.6693L1.35992 44.4115L1.50055 44.1595C1.54279 44.0837 1.56683 44.0088 1.57086 43.9369L1.58258 43.6556L1.60016 43.3685C1.6129 43.1431 1.64172 42.9202 1.68805 42.7006L1.80524 42.1498C1.83926 41.9888 1.86799 41.8219 1.88727 41.6576L1.91656 41.3822L1.95172 41.101C1.96899 40.9538 1.9754 40.7992 1.9693 40.6439L1.95758 40.3568L1.94586 40.0638C1.9347 39.7728 1.97723 39.4869 2.08063 39.2142L2.1861 38.9506L2.28571 38.681C2.36926 38.4611 2.47281 38.248 2.59625 38.0424L2.7486 37.7845L2.9068 37.5326C2.96449 37.4366 2.99648 37.3406 3.01227 37.2513L3.05914 36.976L3.11188 36.7006C3.14814 36.4956 3.1932 36.2925 3.24664 36.0912L3.31696 35.8158L3.38727 35.5463C3.39877 35.503 3.40527 35.4396 3.38141 35.347L3.30524 35.0424L3.22321 34.7377C3.11256 34.3053 3.20804 33.8772 3.48688 33.5306L3.6861 33.2845L3.85602 33.0677L3.80328 32.8217L3.73297 32.5228C3.67305 32.2449 3.6599 31.9592 3.69781 31.6791L3.73883 31.4037L3.77399 31.1224C3.80587 30.8869 3.8602 30.656 3.93805 30.431L4.12555 29.892C4.22696 29.6004 4.39637 29.3425 4.60602 29.1185L5.05133 28.6381C5.11846 28.5664 5.13023 28.5213 5.13336 28.5033L5.18024 28.2279L5.23297 27.9525C5.24179 27.9018 5.23755 27.826 5.20367 27.7181L5.10992 27.4135L5.01031 27.1029C4.88844 26.7135 4.91791 26.3011 5.13922 25.931L5.29156 25.6732L5.44391 25.4213C5.53169 25.2746 5.61093 25.1243 5.67828 24.976L5.79547 24.7181L5.91852 24.4545C5.94261 24.4014 5.94825 24.3469 5.94196 24.2787L5.91852 23.9857L5.88922 23.6927C5.86474 23.431 5.87578 23.1696 5.92438 22.9135L5.97711 22.6381L6.02985 22.3568C6.05178 22.2405 6.05673 22.1182 6.04742 21.9877L6.02985 21.6947L6.00641 21.4017C5.98882 21.1595 5.99378 20.9187 6.02399 20.681L6.05914 20.3998L6.10016 20.1185C6.15142 19.7216 6.3537 19.3987 6.62164 19.1517L6.87946 18.9174L7.13141 18.683C7.16905 18.6484 7.18489 18.6216 7.19 18.6127L7.23102 18.3373L7.27203 18.056C7.29339 17.908 7.30229 17.7541 7.30133 17.599V17.0248C7.29981 16.7604 7.33703 16.498 7.41266 16.2455L7.49469 15.976L7.57086 15.7064C7.63175 15.5031 7.707 15.3011 7.78766 15.1029L7.9986 14.5756C8.04672 14.4573 8.08195 14.3347 8.09821 14.2123L8.13336 13.9369L8.16852 13.6556C8.19509 13.4556 8.23061 13.2559 8.26813 13.058L8.3736 12.5072C8.40064 12.3645 8.41689 12.2174 8.42047 12.0677L8.43219 11.4935C8.4359 11.3338 8.43078 11.1679 8.41461 11.0013L8.35602 10.4154C8.3319 10.1654 8.3341 9.91682 8.36774 9.67126L8.40875 9.39001L8.44391 9.10876C8.47964 8.8504 8.55853 8.60302 8.66656 8.36462L8.90094 7.83728C8.93628 7.75939 8.95346 7.6815 8.95367 7.59705V7.02283C8.9541 6.724 9.01722 6.4333 9.14117 6.1615L9.26422 5.89783L9.38141 5.64001C9.42583 5.54266 9.44926 5.44176 9.45758 5.34119L9.50446 4.77869C9.53031 4.46613 9.63411 4.17013 9.79742 3.90564L9.95563 3.65369L10.108 3.40173C10.1179 3.38559 10.1249 3.37527 10.1255 3.37244C10.1261 3.36984 10.1278 3.36079 10.1255 3.34314L10.0845 3.04431L10.0435 2.75134C10.0019 2.43749 10.0358 2.12449 10.149 1.82556L10.2486 1.55603L10.3482 1.29236C10.4154 1.11536 10.4695 0.978429 10.5064 0.888062L10.5591 0.765015L10.606 0.641968L10.7115 0.454468C10.8332 0.288194 10.9949 0.190835 11.1216 0.138062C11.2852 0.07009 11.4547 0.04685 11.5904 0.0384521L11.8716 0.020874L12.1588 0.0032959ZM3.86188 33.1088L3.86774 33.1205L3.86188 33.097V33.1088ZM10.4537 7.59705C10.4533 7.89544 10.3894 8.18672 10.2662 8.45837L10.149 8.72205L10.0318 8.97986C9.98197 9.08966 9.94779 9.20154 9.93219 9.31384L9.89117 9.59509L9.85602 9.87634C9.83897 10.0015 9.83663 10.1354 9.85016 10.2748L9.90875 10.8607C9.93043 11.0847 9.93733 11.3077 9.93219 11.5287L9.92047 12.1029C9.91502 12.3324 9.88659 12.5588 9.8443 12.7826L9.79156 13.0638L9.73883 13.3392C9.7066 13.5094 9.67967 13.6826 9.6568 13.8549L9.62164 14.1302L9.58649 14.4115C9.55339 14.6607 9.4879 14.9044 9.39313 15.1381L9.2818 15.4076L9.17633 15.6713C9.11348 15.8258 9.05926 15.9831 9.01227 16.14L8.84821 16.6791C8.81612 16.7864 8.80059 16.9002 8.80133 17.0189V17.5931C8.80271 17.8214 8.79259 18.0493 8.76031 18.2728L8.7193 18.5482L8.67828 18.8295C8.62145 19.2222 8.41213 19.5392 8.14508 19.7845L7.64117 20.2533C7.60456 20.2869 7.58632 20.3111 7.58258 20.3177V20.3119L7.54742 20.5931L7.51227 20.8685C7.49513 21.0032 7.49597 21.1445 7.50641 21.2904L7.52399 21.5834L7.54742 21.8763C7.56605 22.133 7.54815 22.3875 7.50055 22.6381L7.44781 22.9135L7.40094 23.1947C7.37992 23.306 7.3714 23.4242 7.38336 23.5521L7.41266 23.8451L7.4361 24.1381C7.46626 24.4606 7.4184 24.779 7.28375 25.0756L7.16071 25.3334L7.04352 25.597C6.95231 25.7979 6.84845 25.9957 6.73297 26.1888L6.58063 26.4467L6.44586 26.6635L6.53961 26.9623L6.63922 27.2728C6.73349 27.5745 6.7648 27.8924 6.70953 28.2103L6.66266 28.4857L6.60992 28.7611C6.54879 29.1127 6.37943 29.4151 6.14703 29.6635L5.92438 29.9037L5.69586 30.1439C5.60776 30.2382 5.56598 30.32 5.54352 30.3842L5.35602 30.9232C5.31099 31.0537 5.28073 31.1864 5.26227 31.3217L5.22125 31.6029L5.1861 31.8842C5.17379 31.9763 5.17716 32.0835 5.20367 32.2064L5.33258 32.8041L5.36188 33.1263C5.35827 33.4372 5.25271 33.7313 5.05133 33.9818L4.85211 34.2279L4.68805 34.4213L4.75836 34.6674L4.83453 34.972C4.9149 35.2839 4.92457 35.6084 4.84039 35.9271L4.76422 36.2025L4.69391 36.472C4.65139 36.632 4.61733 36.7956 4.58844 36.9584L4.53571 37.2396L4.48883 37.515C4.43926 37.7952 4.33671 38.0619 4.19 38.306L4.03766 38.558L3.88531 38.8158C3.80531 38.9491 3.73679 39.0807 3.6861 39.2142L3.58649 39.4779L3.48688 39.7474C3.45624 39.8282 3.4424 39.9116 3.44586 40.0052L3.45758 40.2982L3.4693 40.5853C3.47839 40.8165 3.4666 41.0499 3.44 41.2767L3.41071 41.5521L3.37555 41.8334C3.35096 42.043 3.31362 42.2544 3.27008 42.4603L3.21735 42.7357L3.15875 43.0111C3.12817 43.1562 3.10862 43.3053 3.10016 43.4564L3.08258 43.7377L3.065 44.0248C3.0476 44.3305 2.96124 44.6198 2.81305 44.8861L2.66656 45.1439L2.52594 45.4017C2.4976 45.4526 2.48857 45.4966 2.49078 45.5482L2.5025 45.8412L2.51422 46.1283C2.53036 46.4764 2.44291 46.807 2.26227 47.101L2.10992 47.3588L1.95172 47.6107C1.89073 47.71 1.85397 47.8053 1.83453 47.8978L1.71735 48.4486C1.69665 48.5486 1.69119 48.6618 1.70563 48.7826L1.77594 49.3685C1.80117 49.5796 1.82204 49.7922 1.83453 50.0013L1.85211 50.2943L1.86969 50.5814C1.87812 50.7226 1.86926 50.872 1.84039 51.0209C2.05184 51.0697 2.25679 51.1415 2.44391 51.2552L2.70172 51.4135L2.94781 51.5658H2.95953L3.25836 51.5013L3.55133 51.431C3.88679 51.3554 4.23191 51.3779 4.55914 51.5072L4.82281 51.6127L5.09235 51.7181C5.23132 51.773 5.37308 51.8116 5.51422 51.8412L6.065 51.9584C6.29271 52.0063 6.51571 52.0745 6.73297 52.1635L7.0025 52.2748L7.26617 52.3861C7.37175 52.4295 7.48038 52.4542 7.58844 52.4623L7.86969 52.4799L8.15094 52.5033C8.34991 52.5182 8.55109 52.5383 8.7486 52.5619L9.02399 52.5912L9.30524 52.6263C9.52425 52.6525 9.74183 52.6949 9.95563 52.7494L10.2252 52.8197L10.5005 52.89C10.587 52.912 10.6818 52.9152 10.7877 52.9017L11.0806 52.8666L11.3736 52.8256C11.7293 52.7806 12.0759 52.8496 12.3873 53.0248L12.9029 53.3177C13.0615 53.4072 13.2234 53.4926 13.3834 53.5697L13.647 53.6986L13.9107 53.8217C14.052 53.8897 14.1961 53.9486 14.3384 53.9916L14.8775 54.1556L14.8716 54.1498C14.8808 54.1482 14.9026 54.1414 14.9361 54.1263L15.2466 53.9916L15.5572 53.851C15.8613 53.714 16.1958 53.6369 16.5416 53.6752L16.8228 53.7103L17.0982 53.7396C17.4789 53.7818 17.8022 53.9621 18.0591 54.2084L18.3052 54.4427L18.4341 54.5658L18.6041 54.5013L18.9088 54.3724L19.2252 54.2787C19.4349 54.2411 19.6493 54.2522 19.858 54.3197L20.1685 54.4662L20.6841 54.7943C20.7352 54.8266 20.769 54.8361 20.8013 54.8353L21.0884 54.8236L21.3755 54.8177C21.6911 54.8099 21.9961 54.8774 22.2779 55.017L22.5416 55.1459L22.7994 55.2806C22.877 55.3191 22.9524 55.332 23.0279 55.3334L23.315 55.3392L23.5963 55.3451C23.8789 55.3498 24.1545 55.409 24.4166 55.515L24.6861 55.6205L24.9498 55.726C25.0755 55.7769 25.2029 55.8169 25.3306 55.8373L25.6119 55.8783L25.8873 55.9252C26.1198 55.9622 26.3502 56.0204 26.5728 56.101L27.1002 56.2885C27.1063 56.2878 27.1238 56.2882 27.1529 56.2767L27.4634 56.1537L27.7681 56.0306C27.9769 55.9482 28.2193 55.9093 28.4713 55.9545C28.7219 55.9998 28.9315 56.1214 29.0982 56.2709L29.5904 56.7162C29.6231 56.7455 29.645 56.7586 29.6548 56.7631C29.6635 56.767 29.6699 56.7629 29.6724 56.7631L29.9537 56.7865L30.2349 56.8041C30.4222 56.8176 30.61 56.8322 30.7974 56.8451L31.0787 56.8627L31.3599 56.8861C31.5079 56.8963 31.6614 56.8935 31.817 56.8802L32.1099 56.8568L32.397 56.8275C32.6319 56.8073 32.8685 56.8072 33.1002 56.8275L33.3814 56.8568L33.6627 56.8802C33.9073 56.9019 34.1496 56.9503 34.3834 57.0267L34.9224 57.2025C35.1288 57.27 35.3315 57.3516 35.5318 57.4427L35.7955 57.5599L36.065 57.683C36.1956 57.7423 36.3261 57.7874 36.4576 57.8177L37.0084 57.9467C37.042 57.9541 37.096 57.9573 37.1841 57.9291L37.7935 57.7299C38.0776 57.6381 38.3748 57.6238 38.6607 57.7064L38.942 57.8236L39.1998 57.9642L39.4634 58.1049C39.5819 58.168 39.6991 58.2118 39.815 58.2396L40.3658 58.3685C40.619 58.4289 40.8626 58.5273 41.0923 58.6556L41.3502 58.8021L41.608 58.9427L41.6197 58.9486C41.6225 58.9485 41.6331 58.9508 41.6431 58.9486L41.9361 58.8783L42.2349 58.8138C42.5364 58.7478 42.8461 58.7449 43.149 58.8197L43.4185 58.89L43.6939 58.9603C43.9049 59.0124 44.1156 59.0768 44.3209 59.1537L44.5845 59.2533L44.8541 59.3529C44.8645 59.3568 44.887 59.3647 44.9478 59.347L45.2525 59.2592L45.5513 59.1654C45.9175 59.0576 46.2711 59.1135 46.565 59.2885L46.8345 59.5052L47.0806 59.7396L47.2681 59.9271L47.4673 59.8861L47.7662 59.8158C48.0491 59.7513 48.3368 59.7554 48.6216 59.8217C48.6443 59.6166 48.6912 59.4147 48.7623 59.2181L48.8619 58.9486L48.9556 58.6849C48.9868 58.5989 49.0055 58.5072 49.0025 58.4095L48.9908 58.1166L48.9791 57.8295C48.9647 57.4055 49.1382 57.0399 49.4068 56.7572L49.8638 56.2767C49.9278 56.2094 49.9381 56.171 49.94 56.1595L49.981 55.8783L50.0279 55.6029C50.0588 55.4061 50.0935 55.2062 50.1334 55.0111L50.1861 54.7357L50.2447 54.4603C50.2683 54.3437 50.2759 54.2208 50.2681 54.0912L50.2505 53.8041L50.233 53.5111C50.2222 53.3316 50.2073 53.1484 50.1861 52.9662L50.1158 52.3802C50.0855 52.1189 50.0907 51.858 50.1334 51.601L50.1802 51.3197L50.2271 51.0443C50.2917 50.6571 50.5007 50.3431 50.7662 50.101L51.024 49.8666L51.147 49.7494L51.0943 49.6088L50.9654 49.2982C50.8115 48.925 50.789 48.503 50.9888 48.1029L51.1177 47.8392L51.2466 47.5814C51.3107 47.4531 51.3597 47.3238 51.3931 47.1947L51.4634 46.9252L51.5338 46.6498C51.5757 46.4877 51.6107 46.3223 51.6392 46.1576L51.6861 45.8822L51.7388 45.6068C51.7754 45.396 51.8208 45.186 51.8795 44.9799L51.9556 44.7103L52.0318 44.4349C52.0531 44.3592 52.0624 44.276 52.0494 44.1771L52.0084 43.8783L51.9673 43.5853C51.9167 43.206 52.0049 42.841 52.2134 42.5248L52.3834 42.2728L52.5474 42.0209C52.6079 41.9294 52.6444 41.841 52.6588 41.7631L52.7056 41.4877L52.7584 41.2123C52.7904 41.0391 52.8216 40.8655 52.8463 40.6908L52.8814 40.4095L52.9224 40.1283C52.9522 39.9173 52.994 39.708 53.0455 39.5013L53.1099 39.226L53.1802 38.9564C53.2336 38.742 53.3036 38.5308 53.3853 38.3236L53.4908 38.0541L53.5963 37.7904C53.6281 37.7091 53.6399 37.6242 53.6373 37.5326L53.6314 37.2455L53.6197 36.9584C53.6158 36.8208 53.5974 36.6732 53.5611 36.5189L53.4908 36.2142L53.4205 35.9154C53.3418 35.5817 53.353 35.2371 53.4791 34.9076L53.5845 34.6381L53.6841 34.3744C53.742 34.2239 53.7913 34.0705 53.8306 33.9174L53.9009 33.642L53.9713 33.3724C54.0059 33.2372 54.0265 33.0979 54.0357 32.9564L54.0533 32.6693L54.0767 32.3881C54.0921 32.1477 54.1294 31.9105 54.1939 31.6791L54.2701 31.4095L54.3463 31.1342C54.3963 30.9548 54.4437 30.7746 54.4927 30.5951L54.5689 30.3256L54.6451 30.0502C54.6976 29.8579 54.7527 29.666 54.815 29.476L54.9908 28.9369C55.0615 28.7212 55.1504 28.5096 55.2545 28.3041L55.3892 28.0404L55.524 27.7826C55.5815 27.6693 55.619 27.5555 55.6412 27.4427L55.6939 27.1615L55.7466 26.8861C55.7627 26.8024 55.7676 26.7054 55.7466 26.5931L55.688 26.2943L55.6353 26.0013C55.586 25.7368 55.5724 25.4687 55.6002 25.2045L55.6588 24.642C55.6933 24.3134 55.8157 24.0142 56.0045 23.7513L56.1861 23.4994L56.3619 23.2474C56.4346 23.146 56.4837 23.0543 56.5084 22.9662L56.5845 22.6908L56.6548 22.4213C56.7022 22.2512 56.7503 22.0772 56.7896 21.9056L56.8482 21.6361L56.9127 21.3607C56.9459 21.2156 56.9663 21.0659 56.9771 20.9154L57.0005 20.6342L57.0181 20.3529C57.0316 20.1663 57.0471 19.9773 57.0591 19.7904L57.0767 19.5092L57.0943 19.222C57.1094 18.9902 57.1437 18.7612 57.1998 18.5365L57.3404 17.9857C57.388 17.796 57.4386 17.6057 57.4927 17.4174L57.5689 17.1478L57.6509 16.8783C57.7024 16.6992 57.7526 16.5185 57.8033 16.3392L57.8795 16.0638L57.9556 15.7943C57.9884 15.6785 58.0072 15.5564 58.0084 15.431V15.1439L58.0142 14.8627C58.0164 14.6269 58.0399 14.3893 58.0845 14.1595L58.19 13.6088C58.2207 13.4506 58.2401 13.2903 58.2545 13.1283L58.2838 12.847L58.3072 12.5658C58.3367 12.2335 58.4575 11.929 58.647 11.6635L59.0103 11.1595C59.0162 11.1511 59.0206 11.1448 59.022 11.142V11.1302L58.9869 10.8373L58.9576 10.5443C58.924 10.2295 58.9658 9.91925 59.0865 9.62439L59.192 9.36072L59.3033 9.09119C59.3059 9.08487 59.312 9.06525 59.2974 9.01501L59.1216 8.40564C59.0256 8.07283 59.0162 7.7217 59.1334 7.38025L59.2271 7.11658L59.3209 6.84705C59.3781 6.68028 59.4305 6.51145 59.4791 6.34314L59.4849 6.30798C59.3867 6.29128 59.2776 6.27644 59.1568 6.26697L58.8755 6.24939L58.5943 6.22595C58.4574 6.21527 58.3156 6.21483 58.1724 6.23181L57.8853 6.26697L57.6041 6.30212C57.206 6.34934 56.8388 6.23262 56.5318 6.01501L56.2681 5.82751L55.9986 5.64001C55.911 5.57801 55.8471 5.55686 55.8052 5.55212L55.5298 5.52283L55.2486 5.49353C55.2217 5.49049 55.171 5.49134 55.0787 5.53455L54.7798 5.66931L54.481 5.80994C54.2002 5.94163 53.8983 6.02044 53.5845 6.02087H53.022C52.6341 6.02141 52.2906 5.87575 52.0084 5.65173L51.7447 5.44666L51.6158 5.34119L51.4634 5.43494L51.1588 5.60486C50.9695 5.71198 50.7427 5.78912 50.4908 5.7865C50.2342 5.78356 50.0041 5.69792 49.8111 5.5697L49.5474 5.39392L49.2779 5.21814C49.1955 5.16373 49.1379 5.14503 49.0963 5.14197L48.5338 5.10681C48.4207 5.09868 48.3025 5.10391 48.1763 5.13025L47.8834 5.18884L47.5963 5.2533C47.2785 5.32005 46.9574 5.30252 46.647 5.20056L46.3716 5.11267L46.0963 5.01892C45.9215 4.96134 45.7441 4.90678 45.5689 4.85486L45.2994 4.77283L45.024 4.6908C45.0179 4.69191 45.0019 4.69694 44.9771 4.70837L44.6841 4.849L44.3853 4.98376C43.9845 5.16855 43.54 5.17095 43.1373 4.94275L42.8736 4.79041L42.6041 4.63806C42.5151 4.58766 42.4401 4.5667 42.3755 4.56189L42.0943 4.54431L41.813 4.52087C41.7089 4.51369 41.5949 4.52566 41.4732 4.55603L41.1861 4.62634L40.8931 4.70251C40.4951 4.80124 40.102 4.7297 39.7623 4.52087L39.4986 4.35681L39.2291 4.19275C39.1521 4.1457 39.0966 4.13014 39.0533 4.1283L38.772 4.12244L38.4849 4.11072C38.2608 4.10302 38.0377 4.08116 37.817 4.04041L37.5416 3.98767L37.2603 3.93494C37.0472 3.8955 36.8366 3.8414 36.6275 3.77673L36.3521 3.6947L36.1177 3.61853C36.1131 3.6209 36.1064 3.62662 36.1002 3.63025L35.5025 3.98181C35.312 4.09307 35.0815 4.17303 34.8228 4.16931C34.5595 4.16511 34.3238 4.0747 34.1314 3.9408L33.8677 3.7533L33.6041 3.57166C33.5835 3.5573 33.5684 3.55022 33.563 3.54822L33.2759 3.57751L32.9888 3.61267C32.6535 3.64901 32.3276 3.5878 32.0279 3.44275L31.7584 3.30798L31.565 3.21423L31.3072 3.36072L31.0084 3.52478C30.8045 3.63653 30.5554 3.7108 30.2818 3.68298C30.0079 3.65492 29.7792 3.52863 29.6021 3.3783L29.3443 3.1615L29.0806 2.93884L29.0748 2.93298L28.8404 2.96814L28.5533 3.00916C28.335 3.03982 28.1146 3.05609 27.897 3.06189L27.6158 3.07361L27.3287 3.07947C27.1412 3.08445 26.9537 3.08578 26.7662 3.09119L26.4791 3.10291L26.1978 3.10876C25.8506 3.11877 25.5253 3.02546 25.2369 2.85095L24.9732 2.68689L24.7037 2.52869C24.6794 2.51399 24.6649 2.51159 24.6627 2.51111V2.50525L24.6509 2.51111L24.3638 2.55212L24.0767 2.599C23.7746 2.64484 23.4724 2.62002 23.1802 2.52869L22.9048 2.4408L22.647 2.36462C22.6412 2.36698 22.6326 2.37175 22.6236 2.37634L22.3306 2.52869L22.0318 2.68103C21.6264 2.8882 21.1619 2.89857 20.7427 2.65173L20.4791 2.49939L20.2095 2.34119C20.0957 2.27418 19.9904 2.23318 19.8931 2.21228L19.6119 2.15369L19.3365 2.09509C19.25 2.07684 19.16 2.07207 19.0611 2.08923L18.7681 2.14197L18.481 2.1947C18.222 2.24027 17.9614 2.24738 17.7017 2.21814L17.4205 2.18884L17.1451 2.15369C16.8863 2.12451 16.6317 2.06093 16.3892 1.96033L16.1138 1.84314L15.8443 1.73181C15.7654 1.69913 15.6934 1.6869 15.6216 1.6908L15.3345 1.70837L15.0533 1.72595C14.9187 1.73371 14.7773 1.75689 14.6314 1.79626L14.3384 1.87244L14.0513 1.95447C13.672 2.05709 13.2887 2.0087 12.9439 1.82556L12.6744 1.68494L12.4048 1.53845C12.3409 1.50454 12.2937 1.50103 12.2525 1.5033L11.9654 1.52087L11.8658 1.52673C11.8374 1.59863 11.8025 1.69905 11.7545 1.82556L11.649 2.08923L11.5494 2.35876C11.5291 2.41339 11.5216 2.47393 11.5318 2.55212L11.5728 2.85095L11.608 3.14392C11.6569 3.51289 11.5807 3.8705 11.3853 4.18689L11.2271 4.4447L11.0748 4.69666C11.0287 4.77125 11.0098 4.83761 11.0045 4.90173L10.9576 5.46423C10.9347 5.74033 10.8617 6.00886 10.7466 6.26111L10.6295 6.52478L10.5064 6.78259C10.4711 6.86001 10.4539 6.939 10.4537 7.02283V7.59705Z" fill="black"/>
<path d="M10.8117 22.579C11.132 22.428 11.415 22.5513 11.4855 22.5849L11.8019 22.831L11.9308 22.9658L11.9894 23.0361C11.9945 23.0369 12.0006 23.0352 12.007 23.0361L12.2883 23.0771L12.5695 23.1122C12.7439 23.1352 12.9213 23.1553 13.0969 23.1708L13.3723 23.1943L13.6535 23.2177C13.8665 23.2366 14.0824 23.2706 14.2922 23.3115L14.843 23.4169C15.0599 23.4592 15.2763 23.5159 15.4875 23.5869L15.757 23.6806L16.0266 23.7685C16.1093 23.7963 16.1933 23.8107 16.2844 23.8036L16.5715 23.7802L16.8644 23.7568C17.0014 23.7456 17.1461 23.7189 17.298 23.6747L17.5969 23.5869L17.8898 23.499C18.2198 23.403 18.5671 23.4009 18.9035 23.5107L19.4426 23.6865C19.5954 23.7364 19.751 23.7782 19.9055 23.8095L20.1867 23.8622L20.4621 23.9208C20.5984 23.9483 20.7369 23.96 20.8781 23.9619L21.1652 23.9677L21.4465 23.9736C21.6873 23.9765 21.9268 24.003 22.1613 24.0556L22.4367 24.1142L22.7121 24.1786C22.8938 24.2194 23.0752 24.262 23.257 24.3017L23.8078 24.4189C24.0036 24.4616 24.1996 24.5126 24.3937 24.5654L24.6691 24.6357L24.9387 24.7119C25.1584 24.7716 25.3778 24.8466 25.5891 24.9404L25.8586 25.0634L26.1223 25.1806C26.2387 25.2324 26.3539 25.2639 26.468 25.2802L26.7492 25.3212L27.0246 25.3622C27.2501 25.3943 27.4685 25.4404 27.6691 25.5146L27.8801 25.5966L28.0851 25.6728C28.3109 25.7562 28.5222 25.9163 28.6476 26.165C28.7634 26.3947 28.7717 26.6289 28.7531 26.8095L28.6945 27.372C28.6606 27.6998 28.5421 28 28.3547 28.2626L27.9914 28.7665C27.9188 28.8684 27.8752 28.9654 27.8508 29.0536L27.6984 29.5927C27.6514 29.7628 27.6086 29.9367 27.5695 30.1083L27.5109 30.3837L27.4465 30.6591C27.4139 30.803 27.3926 30.9494 27.382 31.0986L27.3644 31.3798L27.341 31.6669C27.328 31.8523 27.3175 32.0379 27.3058 32.2236L27.2883 32.5107L27.2707 32.7919C27.2561 33.0255 27.2215 33.257 27.1652 33.4833L27.0949 33.7587L27.0246 34.0283C26.9774 34.2182 26.926 34.408 26.8723 34.5966L26.7961 34.872L26.4914 35.9501L26.4152 36.2255C26.383 36.3404 26.3636 36.4588 26.3625 36.5829V37.1572C26.3607 37.392 26.3361 37.6255 26.2922 37.8544L26.2394 38.1357L26.1867 38.4111C26.1563 38.5692 26.1305 38.7297 26.1164 38.8915L26.0695 39.454C26.0406 39.7867 25.919 40.0904 25.7297 40.3564L25.548 40.6083L25.3723 40.8603C25.3663 40.8686 25.3622 40.8745 25.3605 40.8779V40.8896L25.3898 41.1826L25.425 41.4755C25.4591 41.7899 25.416 42.1006 25.2961 42.3954L25.1906 42.6591L25.0793 42.9286C25.0769 42.9341 25.0698 42.9521 25.0851 43.0048L25.2609 43.6142C25.3578 43.9471 25.3659 44.2977 25.2492 44.6396L25.1613 44.9091L25.0676 45.1728C25.0108 45.3392 24.9576 45.5088 24.9094 45.6767L24.8332 45.9521L24.7512 46.2216C24.6979 46.4074 24.645 46.5935 24.5871 46.7783L24.4992 47.0478L24.4172 47.3232C24.3706 47.472 24.333 47.6221 24.3058 47.7744L24.2531 48.0497L24.2062 48.331C24.1824 48.4654 24.1683 48.6038 24.1711 48.747L24.1828 49.3212C24.1906 49.7226 24.0436 50.0799 23.7961 50.3642L23.5793 50.6044L23.3683 50.8505C23.2971 50.9323 23.2718 50.9966 23.2629 51.038L23.2043 51.3076L23.1457 51.5829C23.1052 51.7717 23.0674 51.9474 23.0285 52.1044L22.9699 52.3271L22.9172 52.5497C22.8593 52.7831 22.7155 53.0239 22.4543 53.1767C22.2162 53.3159 21.9685 53.3277 21.7863 53.3115L21.5051 53.288L21.218 53.2646C20.8327 53.229 20.5052 53.0501 20.2453 52.8017L20.0051 52.5732L19.882 52.456L19.7238 52.5322L19.4074 52.6728C19.2085 52.7629 18.9737 52.8217 18.7219 52.7958C18.4674 52.7693 18.2457 52.6653 18.0656 52.5204L17.8195 52.3212L17.5676 52.122C17.4895 52.0591 17.4333 52.0351 17.3918 52.0283L17.1164 51.9814L16.8351 51.9404C16.7236 51.922 16.6054 51.914 16.4777 51.9286L15.8918 51.999C15.5686 52.0365 15.2487 51.9888 14.9484 51.8583L14.6848 51.747L14.4211 51.6298C14.2525 51.5565 14.0808 51.4866 13.9113 51.4189L13.6418 51.3134L13.3781 51.2079C13.3712 51.2087 13.3551 51.2112 13.3312 51.2197L13.0266 51.331L12.716 51.4365C12.2999 51.5838 11.8599 51.5425 11.4797 51.2783L10.9758 50.9267C10.8915 50.8682 10.8171 50.8436 10.7531 50.8329L10.4719 50.7861L10.1965 50.7451C10.0934 50.7284 9.98061 50.726 9.85663 50.7451L9.56366 50.7919L9.26483 50.8329C8.85908 50.8951 8.47677 50.7909 8.15741 50.5517L7.90546 50.3642L7.65936 50.1767C7.58566 50.1215 7.52703 50.1062 7.48358 50.1005L6.92108 50.0302C6.70321 50.0026 6.42281 49.9404 6.18866 49.7783L6.06561 49.6904L5.93671 49.6083C5.66872 49.4214 5.56478 49.1369 5.55585 48.8876C5.54847 48.6731 5.6116 48.4807 5.66718 48.3486L5.77264 48.0849L5.87225 47.8564L5.86053 47.8447L5.71991 47.5283L5.57343 47.2119C5.48109 47.011 5.42093 46.7723 5.45038 46.5146C5.48065 46.2531 5.59694 46.0307 5.74921 45.8525L5.95428 45.6064L6.16522 45.3603C6.18258 45.3399 6.19252 45.3294 6.19452 45.3251L6.18866 45.038V44.7509C6.18472 44.4118 6.27739 44.093 6.45233 43.8076L6.60468 43.5497L6.71014 43.3681L6.59882 43.0986L6.46405 42.788C6.37239 42.5743 6.32792 42.3196 6.38202 42.0497C6.43656 41.7795 6.5782 41.5611 6.7453 41.3994L6.99139 41.165L7.23749 40.9247L7.23163 40.6786L7.21991 40.3915C7.21074 40.1719 7.2104 39.9518 7.22577 39.7353L7.24921 39.4482L7.26678 39.1669C7.28016 38.9794 7.29484 38.792 7.3078 38.6044L7.32538 38.3232L7.34882 38.0361C7.37309 37.6909 7.49954 37.3795 7.70038 37.1103L8.07538 36.6064C8.09027 36.586 8.09207 36.574 8.09296 36.5712L8.09882 36.5654V36.5595L8.08124 36.2665L8.06366 35.9794C8.04721 35.6741 8.10267 35.3767 8.22186 35.0947L8.33319 34.8251L8.4328 34.579C8.4311 34.5731 8.43058 34.565 8.42694 34.5556L8.18085 33.9345C8.01426 33.5108 8.04659 33.0444 8.33319 32.6513L8.51483 32.4052L8.69647 32.1533C8.77495 32.0456 8.83031 31.9441 8.86053 31.8486L8.94257 31.579L9.03046 31.3095C9.05716 31.225 9.06731 31.1347 9.05975 31.0341L9.01288 30.4482C8.99272 30.1856 9.01105 29.9248 9.06561 29.6689L9.1828 29.1181C9.2373 28.8631 9.32817 28.6175 9.45233 28.3857L9.59296 28.1279L9.72772 27.8701C9.76852 27.7939 9.78925 27.72 9.79218 27.6474L9.80389 27.3661L9.81561 27.079C9.82095 26.9442 9.81138 26.8005 9.78632 26.6513L9.73358 26.3583L9.68671 26.0595C9.6216 25.6715 9.70448 25.2952 9.92108 24.9697L10.0851 24.7177L10.2551 24.4658C10.296 24.4043 10.3063 24.3552 10.3078 24.3134L10.3195 24.0322L10.3312 23.7451C10.3375 23.5715 10.3461 23.4027 10.3605 23.3056L10.3664 23.2411L10.3781 23.1708C10.3933 23.069 10.4659 22.7428 10.8117 22.579ZM11.7785 24.5126C11.7446 24.7945 11.66 25.062 11.5031 25.2978L11.3391 25.5497L11.1691 25.8017L11.1633 25.8134L11.216 26.1064L11.2629 26.4052C11.304 26.6502 11.3193 26.8944 11.3098 27.1376L11.3039 27.4247L11.2922 27.7119C11.2795 28.0177 11.1959 28.3104 11.0519 28.579L10.7707 29.0947C10.7101 29.2078 10.6713 29.3234 10.6476 29.4345L10.5891 29.704L10.5305 29.9794C10.5069 30.0898 10.4973 30.2116 10.507 30.3369L10.5305 30.624L10.5539 30.9169C10.576 31.2033 10.5467 31.4866 10.4601 31.7607L10.3723 32.0302L10.2902 32.2997C10.2067 32.5639 10.0743 32.8118 9.90936 33.038L9.72772 33.29L9.59882 33.454L9.69843 33.6943L9.82147 34.0048C9.96201 34.3623 9.99055 34.7611 9.82733 35.1474L9.716 35.4111L9.59882 35.6747C9.56926 35.7445 9.55947 35.8172 9.56366 35.8974L9.58124 36.1904L9.59296 36.4775C9.61355 36.8596 9.49781 37.2127 9.27655 37.5087L9.08905 37.7548L8.90155 38.0068C8.85497 38.0693 8.84506 38.111 8.84296 38.1415L8.82538 38.4228L8.80194 38.7099C8.78899 38.8973 8.78015 39.085 8.76678 39.2724L8.74335 39.5595L8.72577 39.8408C8.71441 40.0003 8.71303 40.1622 8.71991 40.3271L8.73163 40.6142L8.74335 40.9072C8.76142 41.3521 8.56699 41.7254 8.28046 42.0029L8.03436 42.2431L7.91132 42.3544L7.98163 42.5068L8.11639 42.8232C8.28591 43.2196 8.29003 43.6689 8.04022 44.0771L7.88788 44.3349L7.72968 44.5927C7.69639 44.6474 7.68229 44.6896 7.6828 44.7333L7.69452 45.3076C7.69911 45.7031 7.55002 46.0553 7.3078 46.3388L7.09686 46.579L6.98553 46.7021L7.07928 46.9013L7.22577 47.2177C7.39044 47.5757 7.4394 47.9908 7.26678 48.4013L7.20233 48.5536L7.67108 48.6122C7.99963 48.6539 8.29696 48.7817 8.55585 48.9755L8.8078 49.163L9.04803 49.3447L9.33514 49.3095L9.62811 49.2626C9.89773 49.2211 10.1694 49.2193 10.4367 49.2626L10.7121 49.3095L10.9933 49.3505C11.2986 49.4003 11.5799 49.5216 11.8312 49.6962L12.0832 49.872L12.2707 50.0009L12.5226 49.913L12.8332 49.8076C13.0959 49.7146 13.3745 49.6797 13.6535 49.7314L13.9348 49.8134L14.1984 49.9189L14.468 50.0244C14.6517 50.0977 14.8363 50.1736 15.0187 50.2529L15.5461 50.4872C15.5973 50.5092 15.6499 50.5182 15.716 50.5107L16.3019 50.4404C16.5632 50.41 16.8241 50.4155 17.0812 50.4579L17.3625 50.5048L17.6379 50.5517C17.9659 50.6062 18.2588 50.7471 18.5109 50.9501L18.757 51.1494L18.8918 51.2548L19.1027 51.1669L19.4133 51.0263L19.7531 50.9208C19.8754 50.9003 20.0051 50.8993 20.1398 50.9208C20.2753 50.9426 20.3985 50.9849 20.509 51.0439L20.8019 51.2548L21.0422 51.4833L21.2824 51.7177C21.315 51.7488 21.3377 51.76 21.3469 51.7646L21.3527 51.7704H21.3586L21.5578 51.7822L21.5695 51.747C21.6039 51.6084 21.6429 51.449 21.6808 51.2724L21.798 50.7216C21.8678 50.3964 22.025 50.1101 22.2375 49.8661L22.4484 49.6201L22.6652 49.3798C22.6756 49.3679 22.6791 49.3564 22.6828 49.3505L22.6769 49.0634V48.7763C22.6723 48.5372 22.6882 48.3007 22.7297 48.0673L22.7766 47.7861L22.8293 47.5107C22.8678 47.2949 22.9218 47.0818 22.9875 46.872L23.1516 46.3329C23.2058 46.1598 23.2598 45.9854 23.3098 45.8115L23.3918 45.5361L23.468 45.2665C23.5232 45.0739 23.5846 44.8828 23.6496 44.6923L23.7375 44.4228L23.8312 44.1533C23.8367 44.137 23.8464 44.1023 23.8254 44.0302L23.7316 43.7255L23.6437 43.4208C23.5437 43.0749 23.5482 42.7097 23.6906 42.3603L23.7961 42.0966L23.9074 41.8329C23.9307 41.7758 23.9386 41.7139 23.9308 41.6396L23.9016 41.3408L23.8664 41.0478C23.8247 40.6614 23.9272 40.2964 24.1476 39.9872L24.3293 39.7353L24.5051 39.4892C24.5536 39.4211 24.5716 39.3677 24.5754 39.3251L24.6223 38.7626C24.6408 38.5491 24.6698 38.3337 24.7101 38.124L24.8156 37.5732C24.8423 37.4347 24.8614 37.2915 24.8625 37.1454V36.5771C24.8644 36.3215 24.8993 36.0666 24.968 35.8212L25.0441 35.5458L25.1203 35.2763C25.1713 35.0946 25.2267 34.913 25.2785 34.7314L25.3547 34.456L25.4308 34.1865C25.4801 34.0139 25.5283 33.8387 25.5715 33.665L25.6418 33.3954L25.7062 33.1201C25.7404 32.9825 25.7617 32.8419 25.7707 32.6982L25.7883 32.4169L25.8058 32.1298C25.8177 31.9402 25.8336 31.7508 25.8469 31.5615L25.8644 31.2802L25.8879 30.9931C25.9038 30.7678 25.9318 30.5446 25.9816 30.3251L26.1105 29.7744C26.1546 29.5805 26.204 29.3862 26.257 29.1943L26.3273 28.9247L26.4035 28.6494C26.4791 28.3766 26.6072 28.1249 26.7726 27.8935L26.9543 27.6415L27.1301 27.3896C27.1806 27.3189 27.2013 27.2655 27.2062 27.2197L27.2297 26.9501L27.1476 26.9208C27.0688 26.8918 26.9585 26.8652 26.8137 26.8447L26.5383 26.8036L26.257 26.7685C26.0003 26.732 25.7515 26.6578 25.5129 26.5517L25.2492 26.4345L24.9797 26.3115C24.8361 26.2477 24.6899 26.1982 24.5461 26.1591L24.2766 26.0829L24.0012 26.0126C23.8316 25.9665 23.6621 25.921 23.4914 25.8837L22.9406 25.7665C22.7557 25.7262 22.5687 25.6849 22.384 25.6435L22.1086 25.579L21.8332 25.5204C21.701 25.4908 21.5663 25.4753 21.4289 25.4736L21.1476 25.4677L20.8605 25.4619C20.6256 25.4589 20.3928 25.4379 20.1633 25.3915L19.8879 25.3329L19.6125 25.2802C19.3997 25.2372 19.1877 25.1782 18.9797 25.1103L18.7101 25.0224L18.4348 24.9345C18.4099 24.9267 18.3755 24.9219 18.3117 24.9404L17.7141 25.1161C17.4716 25.1865 17.2266 25.2313 16.9816 25.2509L16.4074 25.2978C16.1155 25.3212 15.8238 25.2857 15.5461 25.1923L15.2766 25.0986L15.007 25.0107C14.8573 24.9603 14.7072 24.9171 14.5558 24.8876L14.0051 24.7822C13.8468 24.7513 13.6854 24.7262 13.5246 24.7119L12.9621 24.665C12.7644 24.6474 12.5668 24.6265 12.3703 24.6005L12.0891 24.5654L11.8137 24.5244C11.802 24.5228 11.7904 24.5144 11.7785 24.5126Z" fill="black"/>
<path d="M19.5541 24.9935L20.1166 25.1049L20.2806 25.1107L20.2748 25.1342L20.2865 25.14L20.2748 25.181L20.2689 25.6263C20.26 26.0261 20.1943 26.4596 19.9642 26.8041L19.6244 27.308C19.6244 27.308 19.6234 27.3135 19.6244 27.3197L19.6713 27.6127L19.724 27.9115C19.7648 28.1574 19.7811 28.4058 19.7709 28.6498L19.7592 28.931L19.7474 29.2181C19.7343 29.5241 19.6517 29.8168 19.5072 30.0853L19.226 30.601C19.1655 30.7133 19.1269 30.8246 19.1029 30.9349L19.0385 31.2103L18.9799 31.4857C18.9563 31.5955 18.953 31.7127 18.9623 31.8373L18.9799 32.1302L19.0033 32.4232C19.0248 32.7097 18.9909 32.993 18.9037 33.267L18.8217 33.5365L18.7338 33.806C18.6501 34.0688 18.5231 34.3134 18.3588 34.5385L18.1713 34.7904L18.0482 34.9545L18.142 35.2006L18.265 35.5111C18.4047 35.8689 18.4294 36.2677 18.265 36.6537L18.0424 37.181C18.0126 37.251 17.9971 37.3232 18.0013 37.4037L18.0189 37.6908L18.0365 37.9838C18.0558 38.3645 17.935 38.7144 17.7142 39.0092L17.5267 39.2611L17.3392 39.5072C17.2931 39.5687 17.2831 39.6115 17.2806 39.642L17.2572 39.9291L17.2396 40.2103C17.2262 40.3992 17.2124 40.5899 17.1986 40.7787L17.181 41.0599L17.1576 41.3412C17.146 41.5003 17.1452 41.663 17.1517 41.8275L17.1635 42.1205L17.1752 42.4076C17.193 42.8525 16.9988 43.2262 16.7123 43.5033L16.4662 43.7435L16.3431 43.8549L16.4076 44.0072L16.5424 44.3236C16.7117 44.7205 16.7168 45.1694 16.4662 45.5775L16.308 45.8353L16.1556 46.0931C16.1221 46.148 16.1083 46.1899 16.1088 46.2338L16.1146 46.5209V46.808C16.1185 47.2031 15.9702 47.5505 15.7279 47.8334L15.4115 48.2025L15.4994 48.4017L15.6459 48.7181C15.8097 49.0762 15.8601 49.4918 15.6869 49.9017L15.4642 50.4291C15.391 50.6024 15.341 50.7265 15.3119 50.8041L15.2592 50.9447L15.2064 51.0795C15.1847 51.1373 15.151 51.2252 15.101 51.308C15.0781 51.3456 15.0252 51.4293 14.9369 51.5072C14.8567 51.5776 14.6145 51.7571 14.2748 51.6888L14.2513 51.683L13.8295 51.5951L13.6888 51.1908L13.6478 51.0795L14.1693 50.8978L13.6068 50.7865L13.6244 50.6869L14.017 48.7533L13.9935 48.7123C13.9016 48.5115 13.8469 48.2723 13.8763 48.015C13.9068 47.7528 14.0164 47.5254 14.1693 47.347L14.3802 47.1068L14.5912 46.8607C14.6108 46.8378 14.6135 46.8223 14.6146 46.8197V46.5326L14.6088 46.2455C14.6059 45.9072 14.7032 45.5866 14.8783 45.3021L15.0306 45.0502L15.142 44.8627L15.0306 44.599L14.8959 44.2826C14.8048 44.0686 14.7531 43.8141 14.808 43.5443C14.8632 43.2747 15.01 43.061 15.1771 42.8998L15.4232 42.6595L15.6693 42.4252L15.6635 42.1791L15.6517 41.892C15.6429 41.6715 15.6476 41.4471 15.6635 41.2299L15.681 40.9486L15.7045 40.6674C15.7182 40.4799 15.7322 40.2924 15.7455 40.1049L15.7631 39.8177L15.7865 39.5365C15.8112 39.1913 15.9368 38.8796 16.1381 38.6107L16.3256 38.3588L16.5131 38.1127L16.5365 38.0717V38.0599L16.5189 37.7728L16.5072 37.4799C16.4913 37.1748 16.5401 36.8767 16.6595 36.5951L16.7767 36.3314L16.8763 36.0795C16.8746 36.0735 16.8741 36.0653 16.8705 36.056L16.6244 35.4349C16.4586 35.011 16.4954 34.5502 16.7826 34.1576L17.1459 33.6537C17.2241 33.5466 17.2738 33.4442 17.3041 33.349L17.4799 32.8099C17.5064 32.7256 17.5167 32.635 17.5092 32.5345L17.4857 32.2416L17.4623 31.9545C17.4424 31.6913 17.4599 31.4257 17.515 31.1693L17.5736 30.8998L17.6322 30.6244C17.6871 30.3691 17.7829 30.1238 17.9076 29.892L18.0424 29.6342L18.183 29.3705C18.2233 29.2951 18.2443 29.2257 18.2474 29.1537L18.2592 28.8666L18.2709 28.5853C18.2765 28.4502 18.2664 28.3072 18.2416 28.1576L18.1947 27.8588L18.142 27.5658C18.0776 27.1785 18.1602 26.8007 18.3763 26.476L18.5463 26.224L18.7162 25.9662C18.7201 25.9575 18.7301 25.9362 18.7396 25.8959C18.7549 25.8305 18.7658 25.7327 18.7689 25.597L18.7806 25.0756L18.7865 25.0111L18.7982 24.9467L18.8158 24.847L19.5541 24.9935Z" fill="black"/>
<path d="M10.5051 28.7361C10.9043 28.7269 11.3345 28.7744 11.6887 28.9881L11.9523 29.1404L12.2101 29.2986C12.2172 29.3029 12.2215 29.3044 12.2219 29.3045L12.8078 29.1756C13.0513 29.1236 13.2963 29.1005 13.5402 29.0994L13.8273 29.0936H14.1086C14.415 29.0924 14.7124 29.1609 14.9875 29.2928L15.2512 29.4217L15.5207 29.5506C15.6357 29.6056 15.7491 29.6433 15.8605 29.6619L16.1359 29.7029L16.4172 29.7498C16.5278 29.7681 16.6448 29.7708 16.7687 29.7557L17.0558 29.7205L17.3488 29.6854C17.6339 29.6508 17.9209 29.6695 18.1984 29.744L18.468 29.8201L18.7433 29.8904C19.0105 29.9622 19.2604 30.0817 19.4933 30.2361L19.7512 30.4061L19.9211 30.5174L20.1613 30.4178L20.466 30.283C20.7288 30.1661 21.0165 30.1124 21.3098 30.1541L21.6086 30.2303L22.1476 30.4295C22.2182 30.4555 22.2908 30.4666 22.3703 30.4588L22.9445 30.4002C23.3254 30.3628 23.682 30.4676 23.9875 30.6756L24.5031 31.0272C24.5656 31.0695 24.6076 31.0787 24.6379 31.0799L24.925 31.0858L25.2062 31.0916C25.3953 31.0963 25.5856 31.1041 25.7746 31.1092L26.0617 31.1151L26.343 31.1209C26.4497 31.1238 26.5667 31.1322 26.6711 31.1502C26.7214 31.1589 26.7992 31.1758 26.882 31.2088C26.9387 31.2315 27.1463 31.3177 27.2805 31.5486L27.3098 31.5955L27.5324 31.9822L27.298 32.3572L27.2512 32.4334L26.7004 32.0994L26.5949 32.8026L26.5012 32.7908L25.3879 32.6209L25.3996 32.5975C25.3234 32.5955 25.2473 32.5935 25.1711 32.5916L24.884 32.5858L24.6027 32.5799C24.2557 32.5712 23.9379 32.4531 23.6594 32.2635L23.1437 31.9119L23.1027 31.8943H23.091L22.5168 31.9529C22.2118 31.9829 21.9079 31.9429 21.6203 31.8358L21.3508 31.7361L21.093 31.6424C21.0878 31.6443 21.0826 31.6509 21.0754 31.6541L20.466 31.9236C20.0506 32.1086 19.5878 32.098 19.1828 31.8299L18.925 31.66L18.6672 31.4842C18.5562 31.4105 18.4476 31.3695 18.3508 31.3436L18.0812 31.2674L17.8058 31.1971C17.72 31.1741 17.6308 31.1674 17.5305 31.1795L17.2375 31.2147L16.9504 31.2498C16.6884 31.2818 16.4238 31.2755 16.1652 31.2322L15.6144 31.1385C15.3576 31.0955 15.107 31.0175 14.8703 30.9041L14.6066 30.7752L14.3371 30.6463C14.2599 30.6095 14.1866 30.5933 14.1144 30.5936H13.8332L13.5461 30.5994C13.4116 30.6 13.2716 30.6149 13.1242 30.6463L12.8254 30.7049L12.5324 30.7693C12.148 30.8512 11.7712 30.7837 11.4367 30.5818L11.173 30.4295L10.9152 30.2713C10.9097 30.2689 10.8869 30.2567 10.8391 30.2479C10.7731 30.2357 10.6754 30.2272 10.5402 30.2303L10.0187 30.2479H9.95428L9.88397 30.2361L9.79022 30.2244L9.90155 29.4803L9.98358 28.9119V28.7479H10.007L10.0129 28.7361L10.0656 28.7479L10.5051 28.7361Z" fill="black"/>
<path d="M9.45593 33.9888C9.85519 33.9796 10.2854 34.0271 10.6395 34.2408L10.9032 34.3931L11.161 34.5513C11.1681 34.5556 11.1723 34.557 11.1727 34.5572L11.7587 34.4283C12.0021 34.3762 12.2471 34.3532 12.4911 34.3521L12.7782 34.3463H13.0594C13.3659 34.345 13.6632 34.4136 13.9384 34.5455L14.202 34.6744L14.4716 34.8033C14.5866 34.8582 14.7 34.8901 14.8114 34.9088L15.0868 34.9556L15.368 35.0025C15.4787 35.0208 15.5957 35.0235 15.7196 35.0084L16.0067 34.9732L16.2997 34.938C16.5848 34.9035 16.8717 34.9222 17.1493 34.9966L17.4188 35.0728L17.6942 35.1431C17.9614 35.2149 18.2112 35.3343 18.4442 35.4888L18.702 35.6588L18.8719 35.7701L19.1122 35.6705L19.4169 35.5357C19.6797 35.4187 19.9673 35.3651 20.2606 35.4068L20.5594 35.483L21.0985 35.6822C21.169 35.7081 21.2417 35.7193 21.3212 35.7115L21.8954 35.6529C22.2762 35.6154 22.6329 35.7203 22.9384 35.9283L23.454 36.2798C23.5162 36.322 23.5585 36.3314 23.5887 36.3326L23.8759 36.3384L24.1571 36.3443C24.3461 36.349 24.5365 36.3509 24.7255 36.356L25.0126 36.3677L25.2938 36.3736C25.4007 36.3765 25.5174 36.3849 25.6219 36.4029C25.6724 36.4116 25.7508 36.429 25.8329 36.4615C25.8621 36.4731 25.9245 36.4996 25.9969 36.5494L26.2255 36.7896L26.2548 36.8306L26.4833 37.2056L26.2665 37.5923L26.2255 37.6685L25.663 37.3521L25.5575 38.0552L25.4579 38.0435L24.3856 37.8795L24.3973 37.8443C24.3056 37.8419 24.2137 37.8466 24.1219 37.8443L23.8407 37.8384L23.5536 37.8267C23.2067 37.8179 22.8887 37.7057 22.6102 37.5162L22.0946 37.1646C22.0767 37.1525 22.0646 37.1488 22.0594 37.147H22.0419L21.4677 37.2056C21.1627 37.2356 20.8588 37.1956 20.5712 37.0884L20.3016 36.9888L20.0438 36.8951C20.0387 36.897 20.0333 36.9037 20.0262 36.9068L19.4169 37.1763C19.0015 37.3613 18.5387 37.3505 18.1337 37.0826L17.8759 36.9127L17.618 36.7369C17.507 36.6632 17.3984 36.6222 17.3016 36.5963L17.0321 36.5201L16.7567 36.4439C16.6715 36.4213 16.5809 36.4144 16.4813 36.4263L16.1884 36.4615L15.9012 36.5025C15.6393 36.5345 15.3747 36.5282 15.1161 36.4849L14.5653 36.3912C14.3077 36.3481 14.0586 36.2649 13.8212 36.1509L13.5575 36.0279L13.288 35.899C13.2107 35.8622 13.1375 35.846 13.0653 35.8463H12.7841L12.4969 35.8521C12.3625 35.8527 12.2225 35.8676 12.0751 35.899L11.7762 35.9576L11.4833 36.022C11.0989 36.1039 10.722 36.0363 10.3876 35.8345L10.1239 35.6822L9.86609 35.524C9.86056 35.5216 9.83769 35.5094 9.78992 35.5005C9.72391 35.4884 9.62626 35.4799 9.49109 35.483L8.9696 35.5005H8.90515L8.83484 35.4888L8.74109 35.4771L8.85242 34.733L8.93445 34.1646V34.0005H8.95789L8.96375 33.9888L9.01648 34.0005L9.45593 33.9888Z" fill="black"/>
<path d="M8.69934 39.2414C9.0986 39.2322 9.5288 39.2797 9.88293 39.4933L10.1466 39.6457L10.4044 39.8039C10.4115 39.8082 10.4157 39.8096 10.4161 39.8098L11.0021 39.6808C11.2455 39.6288 11.4905 39.6057 11.7345 39.6047L12.0216 39.5988H12.3029C12.6093 39.5976 12.9066 39.6662 13.1818 39.798L13.4454 39.9269L13.715 40.0558C13.83 40.1108 13.9434 40.1427 14.0548 40.1613L14.3302 40.2082L14.6115 40.2551C14.7221 40.2734 14.8391 40.276 14.963 40.2609L15.2501 40.2258L15.5431 40.1906C15.8282 40.156 16.1151 40.1747 16.3927 40.2492L16.6622 40.3254L16.9376 40.3957C17.2048 40.4674 17.4546 40.5869 17.6876 40.7414L17.9454 40.9113L18.1154 41.0226L18.3556 40.923L18.6603 40.7883C18.9231 40.6713 19.2107 40.6176 19.504 40.6594L19.8029 40.7355L20.3419 40.9348C20.4124 40.9607 20.4852 40.9719 20.5646 40.9641L21.1388 40.9055C21.5196 40.868 21.8763 40.9729 22.1818 41.1808L22.6974 41.5324C22.7596 41.5745 22.8019 41.584 22.8322 41.5851L23.1193 41.591L23.4005 41.5969C23.5895 41.6015 23.78 41.6035 23.9689 41.6086L24.256 41.6203L24.5372 41.6262C24.6442 41.629 24.7608 41.6375 24.8654 41.6555C24.9158 41.6642 24.9942 41.6815 25.0763 41.7141C25.1055 41.7257 25.1679 41.7522 25.2404 41.8019L25.4689 42.0422L25.4982 42.0832L25.7267 42.4582L25.5099 42.8449L25.4689 42.9211L24.9064 42.6047L24.8009 43.3078L24.7013 43.2961L23.629 43.132L23.6407 43.0969C23.549 43.0945 23.4571 43.0991 23.3654 43.0969L23.0841 43.091L22.797 43.0793C22.4501 43.0705 22.1321 42.9583 21.8536 42.7687L21.338 42.4172C21.3201 42.4051 21.308 42.4014 21.3029 42.3996H21.2853L20.7111 42.4582C20.4061 42.4882 20.1022 42.4481 19.8146 42.341L19.545 42.2414L19.2872 42.1476C19.2821 42.1495 19.2767 42.1562 19.2697 42.1594L18.6603 42.4289C18.2449 42.6138 17.7821 42.6031 17.3771 42.3351L17.1193 42.1652L16.8615 41.9894C16.7504 41.9158 16.6418 41.8748 16.545 41.8488L16.2755 41.7726L16.0001 41.6965C15.9149 41.6739 15.8243 41.6669 15.7247 41.6789L15.4318 41.7141L15.1447 41.7551C14.8827 41.787 14.6181 41.7808 14.3595 41.7375L13.8087 41.6437C13.5511 41.6006 13.302 41.5175 13.0646 41.4035L12.8009 41.2805L12.5314 41.1516C12.4541 41.1147 12.3809 41.0985 12.3087 41.0988H12.0275L11.7404 41.1047C11.6059 41.1053 11.4659 41.1201 11.3185 41.1516L11.0197 41.2101L10.7267 41.2746C10.3423 41.3565 9.96544 41.2889 9.63098 41.0871L9.36731 40.9348L9.1095 40.7766C9.10397 40.7742 9.0811 40.762 9.03333 40.7531C8.96732 40.7409 8.86966 40.7324 8.7345 40.7355L8.21301 40.7531H8.14856L8.07825 40.7414L7.9845 40.7297L8.09583 39.9855L8.17786 39.4172V39.2531H8.20129L8.20715 39.2414L8.25989 39.2531L8.69934 39.2414Z" fill="black"/>
<path d="M7.5296 43.6207C7.92895 43.6116 8.35906 43.6587 8.7132 43.8726L8.97687 44.0308L9.23468 44.1832C9.241 44.187 9.24542 44.1886 9.2464 44.189L9.53937 44.1246L9.83234 44.066C10.0758 44.014 10.3209 43.9849 10.5648 43.9839H10.8519L11.1331 43.9781C11.44 43.977 11.7366 44.0508 12.012 44.1832L12.2757 44.3062L12.5452 44.4351C12.6605 44.4903 12.7734 44.5277 12.8851 44.5464L13.1605 44.5933L13.4417 44.6402C13.5522 44.6585 13.6696 44.6611 13.7933 44.6461L14.0804 44.6109L14.3734 44.5757C14.6585 44.5412 14.9453 44.5597 15.223 44.6343L15.4925 44.7047L15.7679 44.7808C16.035 44.8528 16.285 44.9719 16.5179 45.1265L16.7757 45.2964L16.9456 45.4078L17.1859 45.3082L17.4905 45.1734C17.7536 45.0564 18.0408 45.0025 18.3343 45.0445L18.6331 45.1207L19.1722 45.3199C19.2425 45.3457 19.3156 45.3569 19.3948 45.3492L19.9691 45.2906C20.3499 45.2533 20.7066 45.3579 21.012 45.566L21.5276 45.9175C21.5901 45.9598 21.6322 45.9692 21.6624 45.9703L21.9495 45.9761L22.2308 45.982C22.42 45.9868 22.6099 45.9944 22.7991 45.9996L23.0862 46.0054L23.3675 46.0113C23.4741 46.0142 23.5914 46.0226 23.6956 46.0406C23.7459 46.0494 23.8242 46.0663 23.9066 46.0992C23.9355 46.1108 24.0008 46.1396 24.0765 46.1929L24.305 46.439L24.3284 46.4859L24.5511 46.8668L24.3284 47.2476L24.2816 47.3238L23.7249 46.9898L23.6194 47.6929L23.5257 47.6812L22.4183 47.5113L22.43 47.4879C22.3519 47.4858 22.2737 47.484 22.1956 47.482L21.9085 47.4761L21.6273 47.4703C21.2802 47.4615 20.9624 47.3435 20.6839 47.1539L20.1683 46.8023L20.1273 46.7847H20.1155L19.8284 46.814L19.5413 46.8375C19.2365 46.8673 18.9323 46.8333 18.6448 46.7261L18.3753 46.6265L18.1234 46.5269C18.117 46.529 18.1108 46.5397 18.0999 46.5445L17.4905 46.814C17.0747 46.9989 16.6125 46.9833 16.2073 46.7144L15.9495 46.5445L15.6859 46.3746C15.5756 46.3016 15.4716 46.254 15.3753 46.2281L15.1058 46.1578L14.8304 46.0816C14.7449 46.0587 14.6549 46.0521 14.555 46.064L14.262 46.0992L13.9749 46.1343C13.7129 46.1662 13.4483 46.1602 13.1898 46.1168L12.9144 46.0699L12.6331 46.023C12.3774 45.9798 12.1306 45.9017 11.8948 45.7886L11.6253 45.6597L11.3616 45.5308C11.2845 45.4941 11.2111 45.4778 11.139 45.4781L10.8577 45.4839H10.5706C10.4363 45.4845 10.2961 45.4995 10.1487 45.5308L9.84991 45.5953L9.55695 45.6539C9.17331 45.7356 8.79518 45.673 8.46124 45.4722L8.19757 45.314L7.93976 45.1558C7.94626 45.1596 7.92676 45.15 7.86359 45.1382C7.7976 45.126 7.70038 45.1176 7.56476 45.1207L7.04327 45.1324H6.97882L6.90851 45.1207L6.81476 45.1089L6.92609 44.3648L7.00812 43.7964V43.6324H7.03156L7.03741 43.6207L7.09015 43.6324L7.5296 43.6207Z" fill="black"/>
<path d="M33.165 26.2875C33.4852 26.1364 33.7684 26.2597 33.8389 26.2933L34.1553 26.5394L34.2842 26.6742L34.3428 26.7445C34.3478 26.7454 34.3539 26.7436 34.3604 26.7445L34.6416 26.7855L34.9229 26.8207C35.0974 26.8436 35.2745 26.8637 35.4502 26.8793L35.7314 26.9027L36.0068 26.9261C36.2198 26.945 36.4357 26.9791 36.6455 27.0199L37.1963 27.1254C37.4134 27.1676 37.6295 27.2243 37.8408 27.2953L38.1104 27.3832L38.3799 27.4769C38.4625 27.5047 38.5468 27.5132 38.6377 27.5062L38.9307 27.4828L39.2178 27.4594C39.3549 27.4482 39.4993 27.4216 39.6514 27.3773L39.9502 27.2953L40.2432 27.2074C40.573 27.1113 40.9205 27.1036 41.2568 27.2133L41.5264 27.3011L41.8018 27.3949C41.9542 27.4445 42.1105 27.481 42.2646 27.5121L42.54 27.5707L42.8154 27.6234C42.953 27.6511 43.0948 27.6686 43.2373 27.6703L43.5186 27.6761H43.7998C44.0402 27.679 44.2806 27.7059 44.5146 27.7582L44.79 27.8226L45.0654 27.8812C45.2467 27.9218 45.429 27.9647 45.6104 28.0043L46.1611 28.1215C46.3565 28.164 46.5534 28.2154 46.7471 28.2679L47.0225 28.3441L47.2979 28.4144C47.5174 28.4741 47.7313 28.5551 47.9424 28.6488L48.2119 28.766L48.4756 28.8832C48.5916 28.9347 48.7077 28.9665 48.8213 28.9828L49.1025 29.0238L49.3779 29.0648C49.6049 29.097 49.8262 29.1461 50.0283 29.223L50.2334 29.3051L50.4443 29.3812C50.6694 29.4672 50.8726 29.6322 50.9951 29.8793C51.1081 30.1072 51.1189 30.3383 51.1006 30.5179L51.042 31.0804C51.008 31.4088 50.8843 31.708 50.6963 31.9711L50.5205 32.223L50.3389 32.475C50.2657 32.5773 50.2227 32.6734 50.1982 32.7621L50.1221 33.0316L50.0459 33.307C49.9992 33.4762 49.9558 33.6461 49.917 33.8168L49.8584 34.0922L49.7939 34.3676C49.7613 34.5115 49.7401 34.6578 49.7295 34.807L49.7061 35.0941L49.6182 36.5004C49.6036 36.734 49.5631 36.9653 49.5068 37.1918L49.4424 37.4672L49.3721 37.7367C49.3247 37.9271 49.2737 38.1218 49.2197 38.3109L48.915 39.389L48.8389 39.6644L48.7627 39.934C48.7302 40.0499 48.7109 40.1719 48.71 40.2972V40.5785L48.7041 40.8656C48.7023 41.1014 48.6839 41.3389 48.6396 41.5687L48.5342 42.1195C48.5037 42.278 48.478 42.4377 48.4639 42.6L48.417 43.1625C48.3881 43.4947 48.266 43.7991 48.0771 44.0648L47.8955 44.3168L47.7197 44.5687C47.7144 44.5762 47.7098 44.5828 47.708 44.5863V44.598L47.7373 44.891L47.7725 45.184C47.8067 45.4983 47.7632 45.8091 47.6436 46.1039L47.5322 46.3734L47.4268 46.6371C47.425 46.6409 47.4162 46.6564 47.4326 46.7133L47.6084 47.3226C47.7053 47.6555 47.7133 48.0061 47.5967 48.348L47.5029 48.6176L47.415 48.8871C47.3582 49.0539 47.3051 49.2227 47.2568 49.391L47.1807 49.6605L47.0986 49.9301C47.0451 50.1168 46.9928 50.3068 46.9346 50.4926L46.8467 50.7621L46.7646 51.0316C46.7181 51.1805 46.6806 51.3306 46.6533 51.4828L46.6006 51.764L46.5537 52.0394C46.5298 52.1739 46.5159 52.3122 46.5186 52.4554L46.5244 52.7426L46.5303 53.0355C46.5373 53.4354 46.3901 53.7891 46.1436 54.0726L45.9268 54.3187L45.7158 54.559C45.6446 54.6407 45.6192 54.705 45.6104 54.7465L45.4932 55.2972C45.4526 55.4861 45.4152 55.6617 45.376 55.8187L45.3174 56.0355L45.2646 56.2582C45.2065 56.4911 45.0619 56.7328 44.8018 56.8851C44.5628 57.0245 44.3102 57.0364 44.1279 57.0199L43.5654 56.973C43.1797 56.9377 42.853 56.7587 42.5928 56.5101L42.3525 56.2758L42.2354 56.1644L42.0654 56.2406L41.7549 56.3812C41.556 56.4713 41.3211 56.5301 41.0693 56.5043C40.8148 56.478 40.5933 56.3736 40.4131 56.2289L40.1611 56.0297L39.915 55.8246C39.8383 55.7632 39.7804 55.7436 39.7393 55.7367L39.4639 55.6898L39.1826 55.6429C39.0703 55.6245 38.948 55.6221 38.8193 55.6371L38.2334 55.7074C37.9115 55.7444 37.595 55.6965 37.2959 55.5668L37.0264 55.4554L36.7627 55.3383C36.594 55.2649 36.4226 55.1951 36.2529 55.1273L35.7256 54.9164C35.7193 54.917 35.7041 54.9191 35.6787 54.9281L35.374 55.0394L35.0635 55.1449C34.6473 55.2925 34.2075 55.2507 33.8271 54.9867L33.5752 54.8109L33.3174 54.6351C33.2335 54.5773 33.1585 54.5517 33.0947 54.5414L32.8193 54.4945L32.5439 54.4535C32.4411 54.4368 32.3278 54.4345 32.2041 54.4535L31.9053 54.5004L31.6123 54.5414C31.2065 54.6038 30.8244 54.4992 30.5049 54.2601L30.001 53.8851C29.9287 53.8313 29.8741 53.8148 29.8311 53.809L29.2686 53.7386C29.0501 53.711 28.7656 53.6512 28.5303 53.4867L28.2842 53.3109C28.0167 53.123 27.9115 52.8389 27.9033 52.5902C27.8968 52.377 27.9593 52.1886 28.0146 52.057L28.126 51.7933L28.2197 51.5707C28.2177 51.5654 28.2114 51.5606 28.208 51.5531L28.0674 51.2367L27.9209 50.9203C27.8284 50.7192 27.7683 50.4811 27.7979 50.223C27.8279 49.9613 27.9444 49.7393 28.0967 49.5609L28.3076 49.3148L28.5127 49.0687C28.5345 49.0432 28.5419 49.028 28.542 49.0277L28.5361 48.7465V48.4594C28.5323 48.1206 28.6252 47.8011 28.7998 47.516L28.958 47.2582L29.0635 47.0707L28.9521 46.807L28.8174 46.4965C28.7259 46.2831 28.6758 46.0275 28.7295 45.7582C28.784 45.4884 28.926 45.2694 29.0928 45.1078L29.3389 44.8676L29.585 44.6332L29.5791 44.3871L29.5674 44.1C29.5582 43.8796 29.5635 43.6551 29.5791 43.4379L29.5967 43.1566L29.6201 42.8754C29.6335 42.688 29.6423 42.5003 29.6553 42.3129L29.6787 42.0258L29.6963 41.7445C29.7205 41.3986 29.8523 41.0883 30.0537 40.8187L30.2354 40.5668L30.4229 40.3148C30.4392 40.2929 30.4455 40.2822 30.4463 40.2797V40.2679L30.4346 39.975L30.417 39.6879C30.4006 39.3819 30.4495 39.0798 30.5693 38.7972L30.6807 38.5336L30.7861 38.2875C30.7845 38.2817 30.7839 38.2734 30.7803 38.264L30.6572 37.9535L30.5342 37.6371C30.3686 37.2139 30.4003 36.7521 30.6865 36.3597L30.8682 36.1136L31.0498 35.8617C31.1281 35.7544 31.1777 35.6523 31.208 35.557L31.2959 35.2875L31.3779 35.0179C31.4047 34.9335 31.4205 34.843 31.4131 34.7426L31.3662 34.1566C31.346 33.8939 31.3643 33.6334 31.4189 33.3773L31.5361 32.8265C31.5907 32.5714 31.6814 32.3259 31.8057 32.0941L31.9404 31.8363L32.0811 31.5785C32.1219 31.5023 32.1426 31.4285 32.1455 31.3558L32.1572 31.0746L32.1689 30.7875C32.1743 30.6526 32.1647 30.5091 32.1396 30.3597L32.0869 30.0668L32.04 29.7679C31.9749 29.3798 32.0577 29.0036 32.2744 28.6781L32.4443 28.4261L32.6084 28.1742C32.6493 28.1127 32.6596 28.0637 32.6611 28.0219L32.6729 27.7406L32.6846 27.4535C32.6909 27.2799 32.6995 27.1109 32.7139 27.014L32.7256 26.9496L32.7314 26.8793C32.7466 26.7774 32.8195 26.4513 33.165 26.2875ZM34.1318 28.2211C34.0978 28.503 34.0134 28.7705 33.8564 29.0062L33.6924 29.2582L33.5225 29.5101L33.5166 29.5219L33.5693 29.8148L33.6162 30.1136C33.6573 30.3586 33.6727 30.6029 33.6631 30.8461L33.6396 31.4203C33.6269 31.7261 33.5492 32.0189 33.4053 32.2875L33.124 32.8031C33.0634 32.9163 33.0247 33.0317 33.001 33.1429L32.9424 33.4125L32.8838 33.6879C32.8602 33.7982 32.8507 33.9201 32.8604 34.0453L32.8838 34.3324L32.9072 34.6254C32.9292 34.9116 32.9 35.1952 32.8135 35.4691L32.6377 36.0082C32.5541 36.2723 32.4277 36.5203 32.2627 36.7465L32.0811 36.9984L31.9521 37.1625L32.0518 37.4027L32.1748 37.7133C32.3154 38.0711 32.3387 38.4692 32.1748 38.8558L31.9521 39.3832C31.9225 39.453 31.9069 39.5256 31.9111 39.6058L31.9287 39.8988L31.9463 40.1859C31.9668 40.568 31.8454 40.9212 31.624 41.2172L31.4365 41.4633L31.2549 41.7152C31.2079 41.778 31.1984 41.8194 31.1963 41.85L31.1729 42.1312L31.1553 42.4125C31.1422 42.6011 31.1278 42.7923 31.1143 42.9808L31.0967 43.2679L31.0732 43.5492C31.0619 43.7085 31.0605 43.8708 31.0674 44.0355L31.0791 44.3226L31.0908 44.6156C31.1086 45.0605 30.9146 45.434 30.6279 45.7113L30.3818 45.9457L30.2588 46.057L30.3291 46.2152L30.4639 46.5316C30.6331 46.9276 30.6426 47.3778 30.3936 47.7855L30.2354 48.0433L30.0771 48.2953C30.0432 48.3506 30.0356 48.3976 30.0361 48.4418V48.7289L30.042 49.016C30.0463 49.4105 29.8967 49.7584 29.6553 50.0414L29.4443 50.2875L29.333 50.4105L29.4268 50.6097L29.5732 50.9261C29.7375 51.2837 29.7923 51.6998 29.6201 52.1097L29.5498 52.2621L30.0186 52.3207C30.3469 52.3625 30.6446 52.4901 30.9033 52.684L31.1553 52.8715L31.3955 53.0531L31.6826 53.0179L31.9756 52.9711C32.2451 52.9296 32.517 52.9278 32.7842 52.9711L33.0596 53.0179L33.335 53.059C33.6409 53.1085 33.9269 53.2297 34.1787 53.4047L34.4307 53.5804L34.6182 53.7094L34.8701 53.6215L35.1748 53.516C35.4383 53.4225 35.7211 53.3877 36.001 53.4398L36.2822 53.5219L36.8096 53.7328C36.993 53.806 37.1782 53.8821 37.3604 53.9613L37.624 54.0785L37.8936 54.1957C37.9446 54.2174 37.9975 54.2268 38.0635 54.2191L38.6494 54.1488C38.9108 54.1185 39.1715 54.1238 39.4287 54.1664L39.7041 54.2133L39.9854 54.2601C40.3131 54.3148 40.6065 54.4556 40.8584 54.6586L41.1045 54.8578L41.2393 54.9633L41.4502 54.8754L41.7607 54.7347L42.1006 54.6293C42.2226 54.6089 42.3529 54.6078 42.4873 54.6293C42.6209 54.6508 42.7413 54.6945 42.8506 54.7523L43.1436 54.9633L43.3896 55.1918L43.6299 55.4261C43.6626 55.4573 43.6855 55.4687 43.6943 55.473L43.7002 55.4789L43.9053 55.4906L43.917 55.4554C43.9515 55.3172 43.9904 55.1577 44.0283 54.9808L44.1455 54.4301C44.2153 54.1049 44.3725 53.8185 44.585 53.5746L44.7959 53.3285L45.0068 53.0883C45.0163 53.0774 45.0206 53.0648 45.0244 53.059V52.7719L45.0186 52.4847C45.014 52.2456 45.0356 52.0091 45.0771 51.7758L45.124 51.5004L45.1768 51.2191C45.2153 51.0038 45.2635 50.7899 45.3291 50.5804L45.417 50.3109L45.499 50.0414C45.5534 49.8678 45.6072 49.6943 45.6572 49.5199L45.7334 49.2445L45.8154 48.975C45.8706 48.7825 45.9321 48.5911 45.9971 48.4008L46.085 48.1312L46.1787 47.8617C46.1841 47.8453 46.1923 47.8128 46.1729 47.7445L46.0791 47.4398L45.9912 47.1351C45.8902 46.7882 45.8953 46.4192 46.0381 46.0687L46.1436 45.8051L46.2549 45.5414C46.2783 45.4839 46.2863 45.4228 46.2783 45.348L46.249 45.0551L46.2139 44.7621C46.1715 44.3757 46.2753 44.0109 46.4951 43.7015L46.6768 43.4496L46.8525 43.1976C46.9013 43.1293 46.9191 43.0762 46.9229 43.0336L46.9697 42.4711C46.9882 42.2585 47.0175 42.047 47.0576 41.8383L47.1104 41.557L47.1631 41.2816C47.1896 41.1435 47.203 40.9996 47.2041 40.8539L47.21 40.5726V40.2855C47.2119 40.0294 47.2466 39.7754 47.3154 39.5297L47.3916 39.2543L47.4678 38.9847C47.5188 38.8028 47.5741 38.6216 47.626 38.4398L47.7021 38.1703L47.7783 37.8949C47.8272 37.7233 47.876 37.552 47.9189 37.3793L47.9834 37.1039L48.0537 36.8285C48.0877 36.6914 48.1092 36.5498 48.1182 36.4066L48.1533 35.8441C48.1653 35.6534 48.181 35.4604 48.1943 35.2699L48.2119 34.9886L48.2295 34.7015C48.2455 34.476 48.2792 34.2532 48.3291 34.0336L48.458 33.4828C48.502 33.2894 48.5457 33.0942 48.5986 32.9027L48.751 32.3636C48.8266 32.0899 48.954 31.8341 49.1201 31.6019L49.2959 31.35L49.4775 31.098C49.5276 31.0277 49.543 30.9737 49.5479 30.9281L49.5713 30.6527L49.4951 30.6234C49.4206 30.595 49.3113 30.5677 49.167 30.5472L48.8916 30.5121L48.6104 30.4711C48.3543 30.4345 48.1043 30.36 47.8662 30.2543L47.6025 30.1371L47.333 30.0199C47.19 29.9564 47.0486 29.9007 46.9053 29.8617L46.6299 29.7914L46.3545 29.7152C46.1852 29.6693 46.0151 29.6293 45.8447 29.5922L45.5693 29.5277L45.2939 29.4691C45.1089 29.4288 44.9222 29.3875 44.7373 29.3461L44.4619 29.2875L44.1865 29.223C44.0549 29.1937 43.919 29.1778 43.7822 29.1761H43.501L43.2139 29.1703C42.9791 29.1673 42.746 29.1404 42.5166 29.0941L42.2412 29.0414L41.9658 28.9828C41.753 28.9398 41.541 28.8866 41.333 28.8187L40.7939 28.6429C40.7688 28.6347 40.7313 28.6295 40.665 28.6488L40.3662 28.7308L40.0732 28.8187C39.8298 28.8896 39.5809 28.9395 39.335 28.9594L39.0479 28.9828L38.7607 29.0004C38.4697 29.0238 38.1823 28.9934 37.9053 28.9008L37.6299 28.807L37.3604 28.7191C37.2108 28.6689 37.0604 28.6255 36.9092 28.5961L36.3584 28.4906C36.1998 28.4597 36.0391 28.4345 35.8779 28.4203L35.3154 28.3734C35.1179 28.3559 34.9199 28.3348 34.7236 28.309L34.4482 28.2738L34.167 28.2328C34.1551 28.2312 34.144 28.2229 34.1318 28.2211Z" fill="black"/>
<path d="M41.9013 28.7019L42.4638 28.8132L42.6279 28.8191L42.622 28.8425L42.6337 28.8484L42.622 28.8894L42.6161 29.3347C42.6072 29.7345 42.5416 30.168 42.3115 30.5125L41.9716 31.0164C41.9716 31.0164 41.9706 31.0219 41.9716 31.0281L42.0185 31.321L42.0712 31.6199C42.112 31.8657 42.1284 32.1142 42.1181 32.3582L42.1064 32.6394L42.0888 32.9265C42.0756 33.2324 41.993 33.5252 41.8486 33.7937L41.7138 34.0515L41.5732 34.3093C41.5128 34.4216 41.4742 34.533 41.4501 34.6433L41.3857 34.9187L41.3271 35.1941C41.3035 35.3037 41.2945 35.4213 41.3036 35.5457L41.3505 36.1316C41.372 36.4181 41.3381 36.7014 41.2509 36.9753L41.1689 37.2449L41.081 37.5144C40.9973 37.7772 40.8703 38.0218 40.706 38.2468L40.5185 38.4988L40.3954 38.6628L40.4892 38.9089L40.6122 39.2195C40.7519 39.5773 40.7766 39.9761 40.6122 40.3621L40.3896 40.8894C40.3598 40.9594 40.3444 41.0315 40.3486 41.1121L40.3661 41.3992L40.3779 41.6921C40.3972 42.0729 40.2821 42.4228 40.0615 42.7175L39.874 42.9695L39.6865 43.2156C39.6403 43.2771 39.6303 43.3199 39.6279 43.3503L39.6044 43.6375L39.5869 43.9187C39.5735 44.1075 39.5596 44.2983 39.5458 44.4871L39.5224 44.7683L39.5048 45.0496C39.4932 45.2088 39.4924 45.3713 39.499 45.5359L39.5107 45.8289L39.5165 46.116C39.5343 46.5618 39.3412 46.9344 39.0536 47.2117L38.8076 47.4519L38.6845 47.5632L38.7548 47.7156L38.8896 48.032C39.0587 48.4287 39.0638 48.878 38.8134 49.2859L38.497 49.8015C38.4646 49.8552 38.4556 49.8989 38.456 49.9421L38.4619 50.2292V50.5164C38.4656 50.9112 38.3172 51.259 38.0751 51.5417L37.8642 51.7878L37.7529 51.9109L37.8466 52.1101L37.9931 52.4265C38.1567 52.7845 38.2073 53.2004 38.0341 53.6101L37.8115 54.1375C37.7381 54.311 37.6882 54.4353 37.6591 54.5125L37.6064 54.6472L37.5536 54.7878C37.5318 54.8457 37.4989 54.9335 37.4482 55.0164C37.4248 55.0545 37.368 55.1377 37.2783 55.2156C37.1945 55.2877 36.9555 55.4584 36.622 55.3914L36.5986 55.3855L36.1767 55.2976L36.0361 54.8933L35.9951 54.782L36.5165 54.6003L35.954 54.489L35.9716 54.3894L36.3642 52.4617L36.3408 52.4207C36.2489 52.2201 36.1884 51.9804 36.2177 51.7234C36.2482 51.4612 36.3636 51.2338 36.5165 51.0554L36.7275 50.8093L36.9384 50.5691C36.9585 50.5457 36.961 50.5302 36.9619 50.5281V50.241L36.956 49.9539C36.9531 49.6155 37.0446 49.295 37.2197 49.0105L37.3779 48.7585L37.4833 48.5769L37.372 48.3074L37.2431 47.991C37.1519 47.7768 37.1002 47.5226 37.1552 47.2527C37.2104 46.983 37.3572 46.7694 37.5244 46.6082L37.7704 46.3679L38.0165 46.1335L38.0107 45.8875L37.999 45.6003C37.9902 45.3799 37.9948 45.1555 38.0107 44.9382L38.0283 44.657L38.0517 44.3757C38.0654 44.1883 38.0794 44.0008 38.0927 43.8132L38.1103 43.5261L38.1279 43.2449C38.1525 42.8994 38.2838 42.5882 38.4853 42.3191L38.6728 42.0671L38.8603 41.821L38.8837 41.78V41.7683L38.8661 41.4753L38.8544 41.1882C38.8385 40.8831 38.8873 40.5851 39.0068 40.3035L39.124 40.0398L39.2236 39.7878C39.2219 39.7819 39.2213 39.7737 39.2177 39.7644L38.9716 39.1433C38.8058 38.7193 38.8425 38.2585 39.1298 37.866L39.4931 37.3621C39.5713 37.255 39.621 37.1525 39.6513 37.0574L39.7392 36.7878L39.8212 36.5183C39.8481 36.4335 39.864 36.344 39.8564 36.2429L39.8329 35.95L39.8095 35.6628C39.7896 35.3997 39.8071 35.134 39.8622 34.8777L39.9208 34.6023L39.9794 34.3328C40.0344 34.0774 40.1301 33.8322 40.2548 33.6003L40.3896 33.3425L40.5302 33.0789C40.5705 33.0035 40.5916 32.934 40.5947 32.8621L40.6064 32.575L40.6181 32.2937C40.6238 32.1586 40.6136 32.0156 40.5888 31.866L40.5419 31.5671L40.4892 31.2742C40.4249 30.8868 40.5074 30.509 40.7236 30.1843L40.8935 29.9324L41.0634 29.6746C41.0673 29.6659 41.0774 29.6446 41.0869 29.6042C41.1021 29.5389 41.113 29.4411 41.1161 29.3054L41.1279 28.7839L41.1337 28.7195L41.1454 28.655L41.163 28.5554L41.9013 28.7019Z" fill="black"/>
<path d="M32.8523 32.4382C33.2516 32.4291 33.6818 32.4763 34.0359 32.6902L34.2996 32.8484L34.5574 33.0007C34.5637 33.0045 34.5681 33.0062 34.5691 33.0066L34.8621 32.9421L35.155 32.8835C35.3985 32.8316 35.6435 32.8025 35.8875 32.8015H36.1746L36.4558 32.7957C36.7627 32.7946 37.0593 32.8684 37.3347 33.0007L37.5984 33.1238L37.8679 33.2527C37.9832 33.3079 38.0961 33.3453 38.2078 33.364L38.4832 33.4109L38.7644 33.4578C38.8749 33.476 38.9923 33.4787 39.116 33.4636L39.4031 33.4285L39.696 33.3933C39.9812 33.3588 40.268 33.3773 40.5457 33.4519L40.8152 33.5222L41.0906 33.5984C41.3577 33.6703 41.6077 33.7894 41.8406 33.9441L42.0984 34.114L42.2683 34.2253L42.5085 34.1257L42.8132 33.991C43.0763 33.874 43.3635 33.8201 43.657 33.8621L43.9558 33.9382L44.4949 34.1375C44.5652 34.1632 44.6383 34.1745 44.7175 34.1667L45.2917 34.1082C45.6726 34.0709 46.0293 34.1755 46.3347 34.3835L46.8503 34.7351C46.9128 34.7774 46.9549 34.7868 46.9851 34.7878L47.2722 34.7937L47.5535 34.7996C47.7427 34.8043 47.9326 34.8119 48.1218 34.8171L48.4089 34.823L48.6902 34.8289C48.7967 34.8318 48.9141 34.8402 49.0183 34.8582C49.0686 34.8669 49.1469 34.8839 49.2292 34.9167C49.2582 34.9283 49.3235 34.9572 49.3992 35.0105L49.6277 35.2566L49.6511 35.3035L49.8738 35.6843L49.6511 36.0652L49.6042 36.1414L49.0476 35.8074L48.9421 36.5105L48.8484 36.4988L47.741 36.3289L47.7527 36.3054C47.6746 36.3034 47.5964 36.3015 47.5183 36.2996L47.2312 36.2937L46.95 36.2878C46.6029 36.2791 46.2851 36.1611 46.0066 35.9714L45.491 35.6199L45.45 35.6023H45.4382L45.1511 35.6316L44.864 35.655C44.5592 35.6849 44.255 35.6509 43.9675 35.5437L43.698 35.4441L43.446 35.3445C43.4397 35.3465 43.4334 35.3572 43.4226 35.3621L42.8132 35.6316C42.3974 35.8165 41.9352 35.8008 41.53 35.532L41.2722 35.3621L41.0085 35.1921C40.8982 35.1191 40.7943 35.0715 40.698 35.0457L40.4285 34.9753L40.1531 34.8992C40.0676 34.8763 39.9776 34.8697 39.8777 34.8816L39.5847 34.9167L39.2976 34.9519C39.0356 34.9838 38.771 34.9777 38.5125 34.9343L38.2371 34.8875L37.9558 34.8406C37.7001 34.7973 37.4533 34.7193 37.2175 34.6062L36.948 34.4773L36.6843 34.3484C36.6072 34.3117 36.5338 34.2954 36.4617 34.2957L36.1804 34.3015H35.8933C35.7589 34.3021 35.6188 34.3171 35.4714 34.3484L35.1726 34.4128L34.8796 34.4714C34.496 34.5532 34.1179 34.4906 33.7839 34.2898L33.5203 34.1316L33.2625 33.9734C33.269 33.9772 33.2494 33.9676 33.1863 33.9558C33.1203 33.9435 33.0231 33.9352 32.8875 33.9382L32.366 33.95H32.3015L32.2312 33.9382L32.1375 33.9265L32.2488 33.1824L32.3308 32.614V32.45H32.3542L32.3601 32.4382L32.4128 32.45L32.8523 32.4382Z" fill="black"/>
<path d="M31.8032 37.6908C32.2026 37.6817 32.6327 37.7289 32.9868 37.9427L33.2505 38.101L33.5083 38.2533C33.5148 38.2572 33.5191 38.2588 33.52 38.2592L34.106 38.1302C34.3494 38.0783 34.5945 38.0551 34.8384 38.0541H35.1255L35.4067 38.0482C35.7137 38.0471 36.0102 38.121 36.2856 38.2533L36.5493 38.3763L36.8188 38.5052C36.9341 38.5604 37.047 38.5978 37.1587 38.6166L37.4341 38.6635L37.7153 38.7103C37.8258 38.7286 37.9432 38.7312 38.0669 38.7162L38.354 38.681L38.647 38.6459C38.9322 38.6113 39.2189 38.6299 39.4966 38.7045L39.7661 38.7748L40.0415 38.851C40.3086 38.9229 40.5586 39.042 40.7915 39.1967L41.0493 39.3666L41.2192 39.4779L41.4595 39.3783L41.7642 39.2377C42.0267 39.1212 42.3151 39.0728 42.6079 39.1146L42.9067 39.1849L43.1763 39.2904L43.4458 39.39C43.5161 39.4157 43.5893 39.4271 43.6685 39.4193L44.2427 39.3607C44.6235 39.3234 44.9802 39.428 45.2856 39.6361L45.5435 39.8119L45.8013 39.9818C45.8644 40.0248 45.9056 40.0334 45.936 40.0345L46.2231 40.0463L46.5044 40.0521C46.6936 40.0569 46.8836 40.0587 47.0728 40.0638L47.3599 40.0756L47.6411 40.0814C47.7479 40.0844 47.8649 40.0927 47.9692 40.1107C48.0198 40.1195 48.0984 40.137 48.1802 40.1693C48.2098 40.1811 48.2722 40.2076 48.3442 40.2572L48.5728 40.4916L48.6021 40.5385L48.8306 40.9135L48.6138 41.2943L48.5728 41.3705L48.0103 41.0541L47.8989 41.7631L47.8052 41.7513L46.7388 41.5873L46.7505 41.558C46.6568 41.5555 46.563 41.5545 46.4692 41.5521L46.1821 41.5463L45.9009 41.5345C45.5539 41.5258 45.236 41.4135 44.9575 41.224L44.4419 40.8724L44.4009 40.8549H44.3892L44.1021 40.8783L43.8149 40.9076C43.5101 40.9375 43.2059 40.9034 42.9185 40.7963L42.6489 40.6908L42.397 40.597C42.391 40.599 42.3836 40.6044 42.3735 40.6088L42.0688 40.7494L41.7642 40.8842C41.3484 41.0691 40.8861 41.0533 40.481 40.7845L40.2231 40.6146L39.9595 40.4447C39.8491 40.3716 39.7452 40.3241 39.6489 40.2982L39.3794 40.2279L39.104 40.1517C39.0185 40.1288 38.9286 40.1222 38.8286 40.1342L38.5356 40.1693L38.2485 40.2045C37.9866 40.2363 37.722 40.2303 37.4634 40.1869L36.9126 40.0931C36.6557 40.05 36.4052 39.9723 36.1685 39.8588L35.8989 39.7299L35.6353 39.601C35.5581 39.5642 35.4847 39.548 35.4126 39.5482L35.1313 39.5541H34.8442C34.7099 39.5546 34.5697 39.5696 34.4224 39.601L34.1235 39.6654L33.8306 39.724C33.447 39.8057 33.0688 39.7431 32.7349 39.5424L32.4712 39.3842L32.2134 39.226C32.2199 39.2297 32.2004 39.2202 32.1372 39.2084C32.0712 39.1961 31.974 39.1819 31.8384 39.1849L31.3169 39.2025H31.2524L31.1821 39.1908L31.0884 39.1791L31.1997 38.4349L31.2817 37.8666V37.7025H31.3052L31.311 37.6908L31.3638 37.7025L31.8032 37.6908Z" fill="black"/>
<path d="M31.0466 42.9435C31.4459 42.9344 31.876 42.9816 32.2302 43.1954L32.4938 43.3536L32.7516 43.506C32.7581 43.5099 32.7625 43.5115 32.7634 43.5118L33.3493 43.3829C33.5927 43.331 33.8378 43.3077 34.0817 43.3068H34.3688L34.6501 43.3009C34.957 43.2998 35.2536 43.3736 35.529 43.506L35.7927 43.629L36.0622 43.7579C36.1775 43.8131 36.2904 43.8505 36.402 43.8693L36.6774 43.9161L36.9587 43.963C37.0691 43.9813 37.1866 43.9839 37.3102 43.9689L37.5974 43.9337L37.8903 43.8986C38.1755 43.864 38.4623 43.8825 38.7399 43.9572L39.0095 44.0275L39.2849 44.1036C39.5519 44.1756 39.802 44.2947 40.0349 44.4493L40.2927 44.6193L40.4626 44.7306L40.7028 44.631L41.0075 44.4904C41.2701 44.3739 41.5584 44.3254 41.8513 44.3673L42.1501 44.4376L42.4196 44.5431L42.6891 44.6427C42.7594 44.6684 42.8327 44.6798 42.9118 44.672L43.486 44.6134C43.8669 44.5761 44.2236 44.6807 44.529 44.8888L44.7868 45.0646L45.0446 45.2345C45.1077 45.2775 45.1489 45.2861 45.1794 45.2872L45.4665 45.299L45.7477 45.3048C45.9369 45.3096 46.127 45.3113 46.3161 45.3165L46.6032 45.3282L46.8845 45.3341C46.9912 45.337 47.1082 45.3454 47.2126 45.3634C47.2631 45.3722 47.3418 45.3896 47.4235 45.422C47.4531 45.4338 47.5155 45.4603 47.5876 45.5099L47.8161 45.7443L47.8454 45.7911L48.0739 46.1661L47.8571 46.547L47.8161 46.6232L47.2536 46.3068L47.1423 47.0157L47.0485 47.004L45.9821 46.84L45.9938 46.8107C45.9001 46.8082 45.8063 46.8072 45.7126 46.8048L45.4255 46.799L45.1442 46.7872C44.7973 46.7785 44.4793 46.6662 44.2009 46.4767L43.6852 46.1251L43.6442 46.1075H43.6325L43.3454 46.131L43.0583 46.1603C42.7535 46.1902 42.4492 46.1561 42.1618 46.049L41.8923 45.9435L41.6403 45.8497C41.6343 45.8517 41.6269 45.857 41.6169 45.8615L41.3122 46.0021L41.0075 46.1368C40.5917 46.3218 40.1294 46.306 39.7243 46.0372L39.4665 45.8673L39.2028 45.6974C39.0925 45.6243 38.9886 45.5768 38.8923 45.5509L38.6227 45.4806L38.3474 45.4044C38.2618 45.3815 38.172 45.3749 38.072 45.3868L37.779 45.422L37.4919 45.4572C37.2299 45.489 36.9653 45.483 36.7067 45.4396L36.1559 45.3458C35.8991 45.3027 35.6486 45.225 35.4118 45.1115L35.1423 44.9825L34.8786 44.8536C34.8015 44.8169 34.728 44.8006 34.6559 44.8009L34.3747 44.8068H34.0876C33.9532 44.8073 33.8131 44.8223 33.6657 44.8536L33.3669 44.9181L33.0739 44.9767C32.6903 45.0584 32.3121 44.9958 31.9782 44.795L31.7145 44.6368L31.4567 44.4786C31.4633 44.4824 31.4438 44.4729 31.3806 44.4611C31.3146 44.4488 31.2173 44.4346 31.0817 44.4376L30.5602 44.4552H30.4958L30.4255 44.4435L30.3317 44.4318L30.4431 43.6876L30.5251 43.1193V42.9552H30.5485L30.5544 42.9435L30.6071 42.9552L31.0466 42.9435Z" fill="black"/>
<path d="M29.8769 47.329C30.2762 47.3198 30.7063 47.3673 31.0605 47.581L31.3242 47.7333L31.582 47.8915C31.589 47.8958 31.5933 47.8972 31.5937 47.8974L32.1796 47.7685C32.4231 47.7165 32.6681 47.6934 32.912 47.6923L33.1992 47.6865H33.4804C33.7869 47.6853 34.0842 47.7538 34.3593 47.8857L34.623 48.0146L34.8925 48.1435C35.0076 48.1984 35.1209 48.2362 35.2324 48.2548L35.5078 48.2958L35.789 48.3427C35.8997 48.361 36.0167 48.3637 36.1406 48.3486L36.4277 48.3134L36.7206 48.2783C37.0057 48.2437 37.2927 48.2624 37.5703 48.3369L37.8398 48.413L38.1152 48.4833C38.3823 48.5551 38.6322 48.6746 38.8652 48.829L39.123 48.999L39.2929 49.1103L39.5331 49.0107L39.8378 48.8759C40.1006 48.759 40.3884 48.7053 40.6816 48.747L40.9804 48.8232L41.5195 49.0224C41.5901 49.0484 41.6626 49.0595 41.7421 49.0517L42.3163 48.9931C42.6972 48.9557 43.0538 49.0605 43.3593 49.2685L43.8749 49.6201C43.9374 49.6624 43.9794 49.6716 44.0097 49.6728L44.2968 49.6786L44.5781 49.6845C44.7671 49.6892 44.9574 49.697 45.1464 49.7021L45.4335 49.7079L45.7148 49.7138C45.8215 49.7167 45.9385 49.7251 46.0429 49.7431C46.0932 49.7518 46.171 49.7686 46.2538 49.8017C46.3106 49.8244 46.5181 49.9106 46.6523 50.1415L46.6816 50.1884L46.9042 50.5751L46.6699 50.9501L46.623 51.0263L46.0722 50.6923L45.9667 51.3954L45.873 51.3837L44.7597 51.2138L44.7714 51.1904C44.6953 51.1884 44.6191 51.1864 44.5429 51.1845L44.2558 51.1786L43.9745 51.1728C43.6275 51.164 43.3097 51.046 43.0312 50.8564L42.5156 50.5048L42.4745 50.4872H42.4628L41.8886 50.5458C41.5837 50.5758 41.2797 50.5358 40.9921 50.4286L40.7226 50.329L40.4648 50.2353C40.4596 50.2372 40.4544 50.2438 40.4472 50.247L39.8378 50.5165C39.4224 50.7015 38.9597 50.6909 38.5546 50.4228L38.2968 50.2529L38.039 50.0771C37.928 50.0034 37.8194 49.9624 37.7226 49.9365L37.4531 49.8603L37.1777 49.79C37.0919 49.767 37.0026 49.7603 36.9023 49.7724L36.6093 49.8076L36.3222 49.8427C36.0602 49.8747 35.7957 49.8684 35.537 49.8251L34.9863 49.7314C34.7295 49.6884 34.4788 49.6104 34.2421 49.497L33.9785 49.3681L33.7089 49.2392C33.6317 49.2024 33.5584 49.1862 33.4863 49.1865H33.205L32.9179 49.1923C32.7835 49.1929 32.6434 49.2078 32.496 49.2392L32.1972 49.2978L31.9042 49.3622C31.5198 49.4441 31.143 49.3765 30.8085 49.1747L30.5449 49.0224L30.287 48.8642C30.2815 48.8618 30.2587 48.8496 30.2109 48.8408C30.1449 48.8286 30.0472 48.8201 29.912 48.8232L29.3906 48.8408H29.3261L29.2558 48.829L29.162 48.8173L29.2734 48.0732L29.3554 47.5048V47.3408H29.3788L29.3847 47.329L29.4374 47.3408L29.8769 47.329Z" fill="black"/>
<path d="M60.5345 5.67893L11.3512 0.80603L7.39038 19.5762L56.1922 27.1957L60.5345 5.67893Z" fill="#1AD39E"/>
<path d="M11.8728 0.15564L12.1599 0.173218C12.3509 0.186573 12.5404 0.199582 12.7283 0.214233L13.2908 0.261108C13.4277 0.271795 13.5695 0.266369 13.7126 0.24939L13.9998 0.214233L14.281 0.184937C14.6799 0.137623 15.0518 0.253585 15.3591 0.472046L15.8865 0.847046C15.9738 0.908671 16.038 0.924349 16.0798 0.929077L16.3552 0.964233L16.6365 0.99353C16.6633 0.996561 16.7148 0.995169 16.8064 0.952515L17.1052 0.81189L17.4041 0.677124C17.6853 0.545094 17.9863 0.466622 18.3005 0.466187H18.5818L18.863 0.460327C19.251 0.459789 19.5945 0.611315 19.8767 0.835327L20.1404 1.04041L20.2634 1.14001L20.4216 1.05212L20.7263 0.882202L21.0369 0.747437C21.1482 0.71557 21.2686 0.699252 21.3943 0.700562C21.5223 0.701979 21.644 0.722036 21.7576 0.759155L22.074 0.917358L22.3376 1.09314L22.6072 1.26892C22.6888 1.32266 22.7473 1.33606 22.7888 1.33923L23.0701 1.36267L23.3513 1.38025C23.4642 1.3884 23.5828 1.38302 23.7087 1.35681L24.0017 1.29236L24.2888 1.23376C24.6069 1.16683 24.9274 1.18441 25.238 1.2865L25.7888 1.46228C25.9641 1.52004 26.1405 1.58013 26.3162 1.6322L26.5916 1.70837L26.8552 1.78455C26.8559 1.78448 26.8753 1.78794 26.908 1.77283L27.2009 1.63806L27.4998 1.5033L27.8044 1.39783C28.0134 1.35247 28.2278 1.35702 28.4373 1.41541L28.7478 1.54431L29.0173 1.69666L29.281 1.849C29.3698 1.89932 29.445 1.92032 29.5095 1.92517L30.072 1.96033C30.1761 1.96751 30.2902 1.9614 30.4119 1.93103L30.699 1.85486L30.9919 1.78455L31.2849 1.74353C31.5803 1.73053 31.8667 1.80875 32.1228 1.96619L32.3865 2.13025L32.656 2.29431C32.7341 2.34194 32.7941 2.35143 32.8376 2.35291L33.4001 2.37634C33.6244 2.38403 33.8473 2.40588 34.0681 2.44666L34.3435 2.49939L34.6248 2.55212C34.8386 2.59169 35.0536 2.63949 35.2634 2.70447L35.533 2.79236L35.7673 2.86267C35.7717 2.86041 35.7792 2.86014 35.7849 2.85681L36.3826 2.50525L36.699 2.36462C36.8119 2.33156 36.9338 2.31595 37.0623 2.31775C37.1945 2.31986 37.3216 2.34209 37.4373 2.3822L37.7537 2.54626L38.0173 2.72791L38.281 2.91541C38.2996 2.92839 38.3159 2.93049 38.322 2.93298L38.8962 2.87439C39.232 2.83787 39.5571 2.89901 39.8572 3.04431L40.1267 3.17322L40.3142 3.26697L40.5779 3.12634L40.8767 2.96228L41.2107 2.83337C41.3333 2.80422 41.4651 2.79003 41.6033 2.80408C41.7401 2.81807 41.865 2.85712 41.9783 2.90955L42.283 3.10291L42.5408 3.32556L42.8044 3.54822L43.0505 3.51892L43.3318 3.47791C43.55 3.44726 43.7706 3.42512 43.988 3.41931L44.2751 3.41345L44.5564 3.40759C44.7439 3.40261 44.9314 3.39542 45.1189 3.39001L45.406 3.38416L45.6873 3.37244C46.0345 3.36242 46.3597 3.46159 46.6482 3.63611L46.9119 3.79431L47.1814 3.95837L47.2224 3.97595H47.2341L47.5212 3.93494L47.8083 3.88806C48.1108 3.84206 48.4124 3.86696 48.7048 3.95837L48.9802 4.04041L49.2263 4.11658C49.2326 4.11451 49.2464 4.11842 49.2615 4.11072L49.5603 3.95837L49.8533 3.80603L50.1697 3.68884C50.383 3.63603 50.6033 3.63446 50.8201 3.6947L51.1423 3.82947L51.4119 3.98767L51.6755 4.14587C51.7893 4.21288 51.8946 4.25388 51.9919 4.27478L52.2732 4.33337L52.5486 4.39197C52.6359 4.4104 52.7298 4.40967 52.8298 4.39197L53.1169 4.34509L53.4041 4.29236C53.6632 4.24668 53.9235 4.23968 54.1833 4.26892L54.7458 4.32751C55.0039 4.35685 55.254 4.42636 55.4958 4.52673L55.7712 4.63806L56.0408 4.74939C56.1198 4.78225 56.1915 4.79427 56.2634 4.79041L56.5505 4.77869L56.8318 4.76111C56.966 4.75337 57.1081 4.73001 57.2537 4.6908L57.5466 4.60876L57.8396 4.53259C58.2187 4.43067 58.6026 4.47222 58.947 4.65564L59.2107 4.80212L59.4802 4.94275C59.5441 4.97678 59.5914 4.98594 59.6326 4.98376L59.9197 4.96619L60.2009 4.94861H60.4412C60.5258 4.95564 60.6149 4.97288 60.7048 5.00134C60.851 5.04768 61.0183 5.13765 61.1501 5.29431L61.2673 5.47595L61.3318 5.599L61.3962 5.72791C61.5424 6.02324 61.5236 6.35174 61.4958 6.5658L61.4607 6.84705L61.4197 7.1283C61.3697 7.50745 61.1844 7.82568 60.9333 8.07751L60.699 8.31775L60.5642 8.4408L60.6345 8.61072L60.7576 8.92126C60.9194 9.33022 60.9049 9.78429 60.6404 10.181L60.3005 10.6849C60.2661 10.7366 60.2593 10.7752 60.2595 10.808V11.0951L60.2654 11.3822C60.267 11.6971 60.1932 12.0001 60.0486 12.2787L59.7791 12.7943C59.7391 12.8713 59.7173 12.9472 59.7146 13.0228L59.7087 13.3099L59.697 13.5912C59.687 13.8741 59.6265 14.1512 59.5154 14.4115L59.3982 14.6752L59.2869 14.9388C59.2341 15.0626 59.1982 15.1875 59.1755 15.3138L59.1228 15.5951L59.0759 15.8705C59.0346 16.102 58.973 16.3293 58.8884 16.5502L58.783 16.8138L58.6833 17.0834C58.6849 17.0922 58.6871 17.109 58.6951 17.1302L58.9294 17.7513C59.0072 17.9607 59.0431 18.199 58.9939 18.4486C58.9439 18.7 58.8195 18.9111 58.6658 19.0756L58.4373 19.3158L58.2146 19.556C58.1856 19.587 58.1729 19.6101 58.1677 19.6205C58.1636 19.6291 58.1621 19.6356 58.1619 19.6381L58.1384 19.9193L58.1091 20.2006C58.0922 20.3874 58.0786 20.5761 58.0623 20.7631L58.033 21.0443L58.0095 21.3256C57.9966 21.4738 57.999 21.6263 58.0095 21.7826L58.0271 22.0756L58.0447 22.3627C58.0605 22.5985 58.0578 22.834 58.033 23.0658L57.9744 23.6283C57.9482 23.8723 57.891 24.111 57.8103 24.3431L57.7166 24.6127L57.6228 24.8763C57.5514 25.0817 57.4718 25.287 57.3767 25.4857L57.2478 25.7494L57.1248 26.0072C57.0623 26.1377 57.0172 26.2738 56.9841 26.4056L56.9138 26.6752L56.8435 26.9506C56.7502 27.3211 56.5204 27.6444 56.1404 27.8236L55.9119 27.9349L55.6833 28.0404C55.2859 28.2273 54.8769 28.1771 54.5349 28.0052L54.2712 27.8763L54.0076 27.7416C53.8865 27.6808 53.7677 27.6375 53.6501 27.6127L53.0994 27.4955C52.8447 27.4416 52.5999 27.3542 52.3669 27.2318L52.1033 27.0912L51.8396 26.9564C51.8337 26.9534 51.8286 26.9508 51.8279 26.9506C51.8249 26.9508 51.8196 26.9542 51.8103 26.9564L51.5115 27.0267L51.2185 27.097C50.9188 27.1707 50.6092 27.1817 50.3044 27.1146L49.7537 26.9974C49.5418 26.9508 49.3335 26.8873 49.1267 26.8158L48.5876 26.6283C48.5771 26.6247 48.5542 26.6209 48.4939 26.64L48.1892 26.7338L47.8904 26.8334C47.407 26.9885 46.9457 26.8514 46.6013 26.5287L46.3552 26.2943L46.1501 26.1127L45.9626 26.1595L45.6638 26.2357C45.356 26.3144 45.0394 26.3266 44.7263 26.2474L44.1755 26.1068C44.0682 26.0796 43.958 26.0656 43.8416 26.0717L43.5544 26.0892L43.2673 26.101C42.9888 26.1157 42.7132 26.0843 42.447 26.0013L42.1716 25.9135L41.9021 25.8314C41.8146 25.8041 41.7243 25.7947 41.6267 25.8021L41.3337 25.8256L41.0466 25.8431C40.6243 25.8759 40.2508 25.7237 39.9568 25.4681L39.7107 25.2513L39.4587 25.0345C39.3855 24.9709 39.3453 24.9653 39.3357 24.9642L39.0544 24.9349L38.7791 24.8998C38.581 24.8777 38.378 24.8548 38.1814 24.8236L37.6306 24.7299C37.5124 24.7111 37.3856 24.7104 37.2556 24.724L36.9685 24.7533L36.6755 24.7826C36.4976 24.8013 36.3167 24.8296 36.1365 24.8588L35.8494 24.9056L35.5564 24.9525C35.2958 24.9946 35.0309 25.0016 34.7712 24.9701L34.4958 24.9349L34.2146 24.8998C33.8248 24.8524 33.5015 24.6563 33.2478 24.4017L32.8787 24.0326L32.7439 24.1029L32.4392 24.2435C32.0737 24.4136 31.6518 24.4538 31.2439 24.2728L30.9744 24.1556L30.7107 24.0326C30.58 23.9744 30.4482 23.9372 30.3181 23.9095L29.7673 23.7924C29.6035 23.7577 29.4351 23.7257 29.2693 23.7045L28.9939 23.6693L28.7126 23.6342C28.5008 23.607 28.288 23.5722 28.0798 23.5228L27.8103 23.4525L27.5349 23.3881C27.4575 23.3697 27.3708 23.3702 27.2712 23.3881L26.6853 23.4935C26.3083 23.5609 25.9384 23.4891 25.613 23.2943L25.3552 23.1361L25.0916 22.9838C24.9987 22.9283 24.9172 22.8952 24.8396 22.8842L24.5583 22.849L24.283 22.808C24.1086 22.7837 23.9311 22.7604 23.7556 22.7435L23.4744 22.7201L23.1931 22.6908C22.9808 22.6704 22.7693 22.6393 22.5603 22.597L22.2849 22.5443L22.0037 22.4857C21.7879 22.4419 21.5748 22.3821 21.365 22.3099L21.0955 22.222L20.8259 22.1283C20.7436 22.1 20.659 22.0868 20.5681 22.0931L20.2751 22.1166L19.988 22.1342C19.8508 22.1443 19.7069 22.173 19.5544 22.2162L18.9568 22.3802C18.6269 22.4736 18.2838 22.48 17.949 22.3685L17.6794 22.2748L17.4041 22.1869C17.2514 22.1359 17.0957 22.0904 16.9412 22.058L16.6658 21.9994L16.3904 21.9467C16.254 21.9182 16.1158 21.9026 15.9744 21.8998L15.6873 21.8939L15.406 21.8881C15.1651 21.8834 14.9254 21.8545 14.6912 21.8002L14.1404 21.6713C13.9591 21.6293 13.7769 21.5892 13.5955 21.5482L13.0447 21.4193C12.8504 21.3754 12.6571 21.3266 12.4646 21.2728L12.1892 21.1967L11.9197 21.1205C11.7 21.0591 11.4803 20.9817 11.2693 20.8861L11.0056 20.7631L10.7361 20.6459C10.6211 20.594 10.5091 20.5575 10.3962 20.5404L10.115 20.4994L9.8396 20.4584C9.75514 20.4458 9.65812 20.4502 9.54663 20.476L9.2478 20.5404L8.95483 20.6107C8.69344 20.6716 8.42832 20.6968 8.16382 20.681L7.87671 20.6635L7.59546 20.6459C7.36287 20.6314 6.97405 20.5302 6.78101 20.1244C6.62329 19.7925 6.70915 19.4648 6.76343 19.3041L6.87476 18.9701L6.99194 18.6302C7.0649 18.4142 7.1255 18.2231 7.17358 18.056L7.24976 17.7865L7.32593 17.5111C7.37457 17.342 7.41997 17.172 7.46069 17.0013L7.53101 16.726L7.59546 16.4564C7.63 16.3116 7.65361 16.1616 7.66577 16.0111L7.68921 15.7299L7.70679 15.4486C7.72186 15.2621 7.74 15.0729 7.75366 14.8861L7.77124 14.6049L7.79468 14.3236C7.81173 14.0904 7.84746 13.8577 7.90601 13.6322L7.97632 13.3568L8.04663 13.0873C8.09593 12.8976 8.14901 12.7071 8.20483 12.5189L8.3689 11.9799C8.422 11.8009 8.47477 11.62 8.5271 11.4408L8.60327 11.1713L8.6853 10.8959C8.71858 10.7812 8.73572 10.6627 8.73804 10.5385L8.74976 9.96423C8.75405 9.72872 8.77932 9.49607 8.82593 9.26697L8.87866 8.99158L8.93726 8.71619C8.9694 8.55818 8.99176 8.39765 9.00757 8.23572L9.06616 7.67322C9.09861 7.34036 9.21919 7.03519 9.41187 6.77087L9.59351 6.52478L9.77515 6.27283C9.78142 6.26423 9.78521 6.25849 9.78687 6.25525V6.24939L9.75757 5.95056L9.73413 5.65759C9.70323 5.34234 9.7455 5.03163 9.8689 4.73767L10.0916 4.21033C10.0933 4.20653 10.1011 4.1901 10.0857 4.13416L9.9978 3.82947L9.91577 3.51892C9.82305 3.18612 9.81972 2.83895 9.93921 2.49939L10.1267 1.96033C10.1851 1.79493 10.2409 1.62928 10.2908 1.46228L10.3728 1.18689L10.449 0.917358C10.5114 0.708374 10.6391 0.476443 10.8767 0.313843C11.1123 0.152647 11.3719 0.117675 11.5857 0.132202L11.8728 0.15564ZM11.7263 1.89001C11.6694 2.08085 11.6054 2.26976 11.5388 2.45837L11.3513 2.99744C11.3457 3.01379 11.3371 3.04881 11.3572 3.12048L11.4451 3.42517L11.5271 3.72986C11.6241 4.07736 11.6205 4.44194 11.4744 4.79041L11.2517 5.31775C11.2277 5.37503 11.2151 5.43605 11.2224 5.51111L11.281 6.09705C11.3194 6.4849 11.2123 6.85003 10.988 7.15759L10.8064 7.40955L10.6248 7.65564C10.5756 7.72321 10.5586 7.77719 10.5544 7.8197L10.531 8.10095L10.5017 8.3822C10.4809 8.59507 10.4504 8.80624 10.408 9.01501L10.3494 9.29041L10.2966 9.5658C10.2685 9.70395 10.2524 9.84747 10.2498 9.99353L10.2439 10.2806L10.238 10.5619C10.2334 10.8179 10.1981 11.0727 10.1267 11.3177L10.0447 11.5873L9.96851 11.8627C9.91585 12.0429 9.85787 12.2216 9.80444 12.4017L9.72827 12.6771L9.64624 12.9467C9.59536 13.1182 9.54467 13.2895 9.49976 13.4623L9.42944 13.7377L9.35913 14.0072C9.32351 14.1442 9.29938 14.2856 9.28882 14.4291L9.27124 14.7162L9.2478 14.9974C9.23394 15.187 9.22208 15.3766 9.20679 15.5658L9.18335 15.8529L9.15991 16.1342C9.14162 16.3598 9.10671 16.5827 9.05444 16.8021L8.98999 17.0775L8.91968 17.3529C8.8737 17.5454 8.82217 17.7366 8.76733 17.9271L8.69116 18.1967L8.61499 18.472C8.55924 18.6657 8.48835 18.8785 8.40991 19.1107L8.38647 19.1693C8.45796 19.1651 8.53548 19.1703 8.61499 19.1517L8.90796 19.0814L9.20679 19.0111C9.48694 18.9462 9.77198 18.9338 10.0564 18.976L10.3376 19.017L10.613 19.058C10.8696 19.0963 11.1191 19.1728 11.3572 19.2806L11.6208 19.3978L11.8904 19.5209C12.0329 19.5853 12.1752 19.639 12.3181 19.6791L12.8689 19.8314C13.0376 19.8785 13.2088 19.922 13.3787 19.9603L13.6541 20.0189L13.9294 20.0834C14.1129 20.1248 14.2969 20.1639 14.4802 20.2064L15.031 20.3353C15.1629 20.3659 15.298 20.3854 15.4353 20.3881L15.7166 20.3939L16.0037 20.3998C16.2386 20.4045 16.4716 20.4279 16.7009 20.476L17.2517 20.5931C17.4641 20.6377 17.6771 20.6937 17.8845 20.7631L18.1541 20.851L18.4236 20.9447C18.4484 20.9529 18.4823 20.9567 18.5466 20.9388L18.8455 20.8568L19.1443 20.7689C19.3882 20.6999 19.6365 20.658 19.8826 20.64L20.1697 20.6166L20.4568 20.599C20.7486 20.5777 21.0354 20.6151 21.3123 20.7103L21.5818 20.7982L21.8513 20.892C22.0002 20.9432 22.1519 20.9845 22.3025 21.015L22.5779 21.0736L22.8533 21.1263C23.0112 21.1583 23.1732 21.1812 23.3337 21.1967L23.8962 21.2552C24.0937 21.2742 24.2919 21.2983 24.488 21.3256L24.7634 21.3607L25.0447 21.4017C25.3374 21.4426 25.6122 21.5434 25.865 21.6947L26.1228 21.8529L26.3865 22.0052L26.4041 22.017C26.4056 22.017 26.4142 22.0183 26.4216 22.017L27.0076 21.9115C27.2983 21.8594 27.5922 21.8607 27.8806 21.9291L28.156 21.9935L28.4255 22.058C28.583 22.0953 28.7462 22.1254 28.906 22.1459L29.1814 22.181L29.4626 22.2162C29.6689 22.2426 29.8743 22.2785 30.0779 22.3217L30.6287 22.4388C30.8655 22.489 31.0963 22.5677 31.3201 22.6674L31.5837 22.7845L31.8064 22.8783L32.4158 22.597C32.6306 22.4971 32.8905 22.4456 33.1658 22.4974C33.4367 22.5489 33.6536 22.6867 33.8162 22.849L34.0623 23.101L34.3083 23.347C34.344 23.3828 34.3714 23.3982 34.3845 23.4056L34.3962 23.4115L34.6775 23.4467L34.9529 23.4818C35.0657 23.4955 35.1874 23.4909 35.3162 23.4701L35.9021 23.3763C36.1094 23.3429 36.317 23.3159 36.5232 23.2943L36.8103 23.265L37.1033 23.2299C37.3583 23.2034 37.6137 23.2134 37.865 23.2533L38.1404 23.2943L38.4216 23.3412C38.5945 23.3686 38.7689 23.3921 38.9431 23.4115L39.2244 23.4408L39.4998 23.4701C39.8633 23.5106 40.1822 23.6769 40.4431 23.9037L40.6892 24.1205L40.9412 24.3373L40.9529 24.3431L41.2166 24.3256L41.5095 24.3021C41.7942 24.2801 42.0748 24.3166 42.3474 24.4017L42.6228 24.4838L42.8923 24.5717C42.9863 24.6009 43.0831 24.612 43.1853 24.6068L43.4724 24.5892L43.7595 24.5775C44.0247 24.5635 44.2879 24.5885 44.5447 24.6537L44.8201 24.724L45.0955 24.7885C45.1461 24.8012 45.2087 24.8046 45.2947 24.7826L45.5876 24.7064L45.8865 24.6361L46.238 24.5892C46.4642 24.5932 46.6761 24.6601 46.865 24.7709L47.1287 24.9701L47.3806 25.2045L47.5505 25.3627L47.7322 25.3099L48.031 25.2103C48.368 25.1017 48.7254 25.0906 49.074 25.2103L49.3435 25.3041L49.6189 25.3978C49.7709 25.4503 49.9222 25.4987 50.0759 25.5326L50.6267 25.6498C50.6889 25.6635 50.7661 25.6673 50.8611 25.6439L51.1541 25.5677L51.4529 25.4974C51.8221 25.407 52.1956 25.4475 52.5369 25.6263L52.8005 25.767L53.0642 25.9017C53.1819 25.9636 53.2973 26.0068 53.4099 26.0306L53.9607 26.1478C54.21 26.2006 54.4511 26.2841 54.6814 26.3998L54.9451 26.5345L55.1384 26.6342L55.2732 26.5756L55.408 26.5111L55.4607 26.3119L55.5251 26.0365C55.5833 25.8049 55.6671 25.5805 55.7712 25.3627L55.8943 25.099L56.0232 24.8412C56.0949 24.6914 56.1579 24.5359 56.2107 24.3842L56.3044 24.1205L56.3923 23.851C56.4356 23.7266 56.4662 23.5995 56.4802 23.4701L56.5388 22.9076C56.5541 22.765 56.5607 22.6142 56.5505 22.4623L56.5271 22.1752L56.5095 21.8822C56.4941 21.652 56.4957 21.4232 56.5154 21.1967L56.5388 20.9095L56.5681 20.6283C56.5845 20.4408 56.598 20.2531 56.615 20.0658L56.6443 19.7845L56.6677 19.5033C56.7023 19.1225 56.8746 18.7921 57.1189 18.5306L57.3416 18.2904L57.4763 18.1439L57.406 17.9623L57.2947 17.6517C57.1644 17.3029 57.1391 16.9197 57.283 16.5443L57.3826 16.2806L57.4822 16.0111C57.5334 15.8775 57.5749 15.7438 57.5994 15.6068L57.6462 15.3314L57.699 15.0502C57.7421 14.8092 57.8132 14.5736 57.9099 14.347L58.1326 13.8197C58.1718 13.7278 58.1936 13.6354 58.197 13.5385L58.2087 13.2513L58.2146 12.9701C58.2254 12.6659 58.3033 12.3722 58.4431 12.1029L58.7126 11.5873C58.7475 11.5202 58.7658 11.4554 58.7654 11.3881L58.7595 11.101V10.8138C58.7575 10.464 58.8622 10.1382 59.0525 9.85291L59.2224 9.60095L59.3396 9.41931L59.24 9.1615L59.1169 8.85095C59.0326 8.63765 58.9925 8.39074 59.0466 8.13025C59.1009 7.86975 59.2369 7.65937 59.3982 7.49744L59.6326 7.2572L59.8728 7.01697C59.9071 6.98249 59.9252 6.95828 59.9314 6.94666C59.9344 6.94066 59.9368 6.93692 59.9373 6.93494L59.9724 6.65369L59.9958 6.46033L59.7263 6.47791C59.3895 6.49852 59.0694 6.42258 58.7771 6.26697L58.5076 6.12634L58.238 5.97986H58.2263L57.9392 6.05603L57.6462 6.13806C57.4061 6.20293 57.1631 6.24122 56.9197 6.25525L56.6384 6.27283L56.3513 6.29041C56.0457 6.30793 55.7481 6.25482 55.4666 6.13806L55.1912 6.02673L54.9216 5.90955C54.8036 5.8606 54.6884 5.83443 54.5759 5.82166L54.2947 5.7865L54.0134 5.7572C53.9021 5.74491 53.7846 5.74722 53.6619 5.76892L53.3748 5.82166L53.0876 5.86853C52.8043 5.91861 52.5197 5.91642 52.238 5.85681L51.9626 5.79822L51.6814 5.73962C51.4116 5.68214 51.1541 5.58226 50.9138 5.4408L50.6501 5.28259L50.4685 5.17126L50.24 5.29431L49.9412 5.44666C49.5993 5.6208 49.2044 5.68301 48.8044 5.55798L48.5291 5.47595L48.2595 5.38806C48.1869 5.36537 48.1107 5.3583 48.031 5.37048L47.7439 5.41736L47.4568 5.45837C47.0795 5.5154 46.7176 5.43243 46.4021 5.24158L46.1384 5.07751L45.8689 4.91931C45.8027 4.87958 45.7587 4.87156 45.7283 4.87244L45.447 4.88416L45.1658 4.89001C44.9769 4.89546 44.7863 4.90257 44.5974 4.90759L44.3103 4.91345L44.0291 4.91931C43.869 4.92357 43.7064 4.93734 43.5427 4.96033L42.9685 5.04236C42.5272 5.10389 42.136 4.94903 41.8318 4.6908L41.574 4.46814L41.4392 4.35681L41.2986 4.43884L40.9998 4.60291C40.6218 4.8108 40.1767 4.86404 39.7458 4.65564L39.4763 4.52673L39.2068 4.39197C39.1495 4.36415 39.1033 4.35831 39.0603 4.36267L38.7732 4.39783L38.4861 4.42712C38.0933 4.47018 37.7311 4.35893 37.4255 4.14587L37.1619 3.95837L37.0271 3.86462L36.8396 3.97595L36.5408 4.15173C36.2006 4.35059 35.7884 4.44165 35.363 4.30994L35.0935 4.22205L34.8181 4.14001C34.6629 4.09196 34.505 4.05156 34.3494 4.02283L34.074 3.97595L33.7986 3.92322C33.6501 3.8958 33.4979 3.88143 33.3474 3.87634L32.7849 3.85291C32.4541 3.84173 32.1463 3.74054 31.8708 3.57166L31.6013 3.40759L31.3376 3.24353L31.3318 3.23767L31.0623 3.31384L30.7751 3.38416C30.5111 3.45005 30.2419 3.47871 29.9724 3.46033L29.6912 3.43689L29.4099 3.41931C29.1012 3.39802 28.8092 3.30646 28.5427 3.15564L28.2732 3.0033L28.0681 2.88611L27.8337 2.99744L27.5349 3.13806C27.1975 3.29363 26.8201 3.3441 26.4392 3.23181L25.8884 3.06775C25.6989 3.01157 25.5089 2.95417 25.3201 2.89197L25.0447 2.79822L24.7693 2.71033C24.7164 2.69305 24.6643 2.68526 24.5994 2.69861L24.3064 2.76306L24.0193 2.82166C23.762 2.87572 23.4999 2.89322 23.24 2.87439L22.9646 2.85681L22.6833 2.83923C22.3514 2.81518 22.045 2.69619 21.7751 2.51697L21.5115 2.34119L21.3591 2.24158L21.1658 2.35876L20.8669 2.52869C20.6689 2.64113 20.4269 2.71607 20.158 2.69861C19.8857 2.68034 19.6501 2.56889 19.4666 2.42322L19.2087 2.21814L18.9451 2.0072C18.9092 1.97873 18.884 1.96971 18.8748 1.96619L18.8689 1.96033L18.5818 1.96619H18.3005C18.2387 1.96638 18.1548 1.97842 18.0427 2.03064L17.4451 2.31189C17.1434 2.45324 16.8114 2.52668 16.4666 2.48767L16.1912 2.45251L15.9099 2.42322C15.5794 2.38583 15.2771 2.25321 15.0134 2.0658L14.4861 1.6908C14.4669 1.67735 14.4545 1.67456 14.4509 1.67322L14.1755 1.70837L13.8884 1.73767C13.6502 1.76593 13.4106 1.77374 13.1736 1.75525L12.8923 1.73181L12.6169 1.71423C12.4321 1.69981 12.2426 1.68637 12.0544 1.67322L11.7966 1.64978L11.7263 1.89001Z" fill="black"/>
</svg>
