<svg width="30" height="30" viewBox="0 0 30 30" fill="none" xmlns="http://www.w3.org/2000/svg">
<path d="M7.24431 18.422C6.8826 18.8393 6.92772 19.4709 7.34507 19.8326C7.76243 20.1943 8.39398 20.1492 8.75569 19.7319L8 19.0769L7.24431 18.422ZM8.06549 19.0014L8.82118 19.6563L8.90459 19.5601L8.96121 19.446L8.06549 19.0014ZM8.387 18.3537L7.49128 17.9091L8.387 18.3537ZM9.11551 17.5625L9.448 18.5056L9.11551 17.5625ZM9.92954 17.2755L9.59706 16.3324L9.92954 17.2755ZM10.3933 16.685L11.3853 16.8108L10.3933 16.685ZM10.45 16.2379L9.45793 16.112L10.45 16.2379ZM10.5067 15.7908L9.51465 15.665L10.5067 15.7908ZM10.9321 15.167L11.3644 16.0687L10.9321 15.167ZM11.3007 14.9903L10.8684 14.0885L11.3007 14.9903ZM11.6694 14.8135L12.1017 15.7153L11.6694 14.8135ZM12.1868 14.2695L13.1137 14.6449L12.1868 14.2695ZM12.4844 13.5349L11.5575 13.1595L12.4844 13.5349ZM13.3759 12.8188L13.8009 13.724L13.3759 12.8188ZM13.7473 12.6445L13.3222 11.7393L13.7473 12.6445ZM14.3667 12.1889L13.6168 11.5273L14.3667 12.1889ZM15.5511 11.9347L16.3524 11.3364L15.5511 11.9347ZM15.8954 12.4561L16.7499 11.9366L15.8954 12.4561ZM16.093 12.7811L15.2386 13.3007L16.093 12.7811ZM16.2906 13.1061L17.1451 12.5866L16.2906 13.1061ZM16.7744 13.6794L16.119 14.4347L16.7744 13.6794ZM17.0605 13.9276L17.7159 13.1723L17.0605 13.9276ZM17.3466 14.1759L16.6912 14.9312L17.3466 14.1759ZM18.0012 14.6011L18.4341 13.6997L18.0012 14.6011ZM18.738 14.955L19.1709 14.0535L18.738 14.955ZM19.2654 15.4903L20.1795 15.0849L19.2654 15.4903ZM19.5834 16.2072L18.6693 16.6127L19.5834 16.2072ZM20.0973 16.7543L20.5666 15.8713L20.0973 16.7543ZM20.4522 16.9429L19.9829 17.826L20.4522 16.9429ZM20.8071 17.1316L20.3378 18.0146L20.8071 17.1316ZM21.3329 17.6684L22.2307 17.2279L21.3329 17.6684ZM21.6746 18.3647L20.7768 18.8052L21.6746 18.3647ZM21.8841 18.8039L22.8045 18.4131L21.8841 18.8039ZM21.9227 18.8949L22.9166 18.7848L22.9005 18.6391L22.8432 18.5041L21.9227 18.8949ZM21.9345 19.0014L20.9406 19.1114L20.9749 19.421L21.1788 19.6563L21.9345 19.0014ZM21.2443 19.7319C21.606 20.1492 22.2376 20.1943 22.6549 19.8326C23.0723 19.4709 23.1174 18.8393 22.7557 18.422L22 19.0769L21.2443 19.7319ZM8 19.0769L8.75569 19.7319L8.82118 19.6563L8.06549 19.0014L7.30981 18.3464L7.24431 18.422L8 19.0769ZM8.06549 19.0014L8.96121 19.446L9.28271 18.7983L8.387 18.3537L7.49128 17.9091L7.16978 18.5567L8.06549 19.0014ZM8.387 18.3537L9.28271 18.7983C9.36128 18.64 9.42592 18.5524 9.46551 18.5094C9.50301 18.4687 9.49976 18.4874 9.448 18.5056L9.11551 17.5625L8.78303 16.6194C8.14531 16.8442 7.74791 17.3921 7.49128 17.9091L8.387 18.3537ZM9.11551 17.5625L9.448 18.5056L9.85501 18.3621L9.52253 17.419L9.19004 16.4759L8.78303 16.6194L9.11551 17.5625ZM9.52253 17.419L9.85501 18.3621L10.262 18.2187L9.92954 17.2755L9.59706 16.3324L9.19004 16.4759L9.52253 17.419ZM9.92954 17.2755L10.262 18.2187C10.5495 18.1173 10.8241 17.9429 11.0355 17.6737C11.245 17.4069 11.3482 17.1032 11.3853 16.8108L10.3933 16.685L9.40122 16.5591C9.4005 16.5648 9.4075 16.5086 9.46247 16.4386C9.51927 16.3662 9.58095 16.3381 9.59706 16.3324L9.92954 17.2755ZM10.3933 16.685L11.3853 16.8108L11.442 16.3637L10.45 16.2379L9.45793 16.112L9.40122 16.5591L10.3933 16.685ZM10.45 16.2379L11.442 16.3637L11.4987 15.9166L10.5067 15.7908L9.51465 15.665L9.45793 16.112L10.45 16.2379ZM10.5067 15.7908L11.4987 15.9166C11.5016 15.8943 11.5015 15.925 11.4676 15.9747C11.4513 15.9985 11.4317 16.0201 11.4107 16.0378C11.39 16.0551 11.373 16.0646 11.3644 16.0687L10.9321 15.167L10.4998 14.2652C9.91237 14.5469 9.59001 15.0709 9.51465 15.665L10.5067 15.7908ZM10.9321 15.167L11.3644 16.0687L11.733 15.892L11.3007 14.9903L10.8684 14.0885L10.4998 14.2652L10.9321 15.167ZM11.3007 14.9903L11.733 15.892L12.1017 15.7153L11.6694 14.8135L11.2371 13.9118L10.8684 14.0885L11.3007 14.9903ZM11.6694 14.8135L12.1017 15.7153C12.5643 15.4935 12.9177 15.1286 13.1137 14.6449L12.1868 14.2695L11.26 13.8941C11.257 13.9014 11.2552 13.9041 11.2554 13.9037C11.2557 13.9033 11.2568 13.9017 11.2585 13.9C11.2601 13.8983 11.2605 13.8983 11.2582 13.8999C11.2558 13.9016 11.2494 13.9059 11.2371 13.9118L11.6694 14.8135ZM12.1868 14.2695L13.1137 14.6449L13.2624 14.2776L12.3356 13.9022L11.4088 13.5268L11.26 13.8941L12.1868 14.2695ZM12.3356 13.9022L13.2624 14.2776L13.4112 13.9103L12.4844 13.5349L11.5575 13.1595L11.4088 13.5268L12.3356 13.9022ZM12.4844 13.5349L13.4112 13.9103C13.4139 13.9037 13.4154 13.9017 13.4147 13.9028C13.4139 13.904 13.4123 13.9062 13.4101 13.9085C13.4079 13.9107 13.4071 13.9111 13.409 13.9097C13.411 13.9083 13.4173 13.9042 13.4296 13.8984L13.0045 12.9932L12.5795 12.0881C12.1128 12.3072 11.7549 12.6722 11.5575 13.1595L12.4844 13.5349ZM13.0045 12.9932L13.4296 13.8984L13.8009 13.724L13.3759 12.8188L12.9508 11.9137L12.5795 12.0881L13.0045 12.9932ZM13.3759 12.8188L13.8009 13.724L14.1723 13.5496L13.7473 12.6445L13.3222 11.7393L12.9508 11.9137L13.3759 12.8188ZM13.7473 12.6445L14.1723 13.5496C14.5319 13.3807 14.8525 13.1497 15.1166 12.8504L14.3667 12.1889L13.6168 11.5273C13.5501 11.6029 13.4577 11.6757 13.3222 11.7393L13.7473 12.6445ZM14.3667 12.1889L15.1166 12.8504L15.3647 12.5692L14.6148 11.9076L13.8649 11.2461L13.6168 11.5273L14.3667 12.1889ZM14.6148 11.9076L15.3647 12.5692L15.6128 12.288L14.8629 11.6264L14.113 10.9648L13.8649 11.2461L14.6148 11.9076ZM14.8629 11.6264L15.6128 12.288C15.6218 12.2778 15.6074 12.2963 15.5683 12.3248C15.5312 12.3517 15.4389 12.4116 15.2955 12.4424C15.1362 12.4766 14.9487 12.4663 14.7693 12.3859C14.6026 12.3113 14.5041 12.2038 14.4564 12.14L15.2577 11.5417L16.059 10.9434C15.9624 10.8141 15.8108 10.661 15.5868 10.5607C15.35 10.4546 15.101 10.4386 14.8758 10.4869C14.486 10.5705 14.2322 10.8297 14.113 10.9648L14.8629 11.6264ZM15.2577 11.5417L14.4564 12.14L14.6031 12.3365L15.4044 11.7382L16.2057 11.1399L16.059 10.9434L15.2577 11.5417ZM15.4044 11.7382L14.6031 12.3365L14.7498 12.5329L15.5511 11.9347L16.3524 11.3364L16.2057 11.1399L15.4044 11.7382ZM15.5511 11.9347L14.7498 12.5329C14.8214 12.6287 14.9178 12.7731 15.041 12.9757L15.8954 12.4561L16.7499 11.9366C16.6096 11.7059 16.4765 11.5026 16.3524 11.3364L15.5511 11.9347ZM15.8954 12.4561L15.041 12.9757L15.2386 13.3007L16.093 12.7811L16.9475 12.2616L16.7499 11.9366L15.8954 12.4561ZM16.093 12.7811L15.2386 13.3007L15.4362 13.6256L16.2906 13.1061L17.1451 12.5866L16.9475 12.2616L16.093 12.7811ZM16.2906 13.1061L15.4362 13.6256C15.6215 13.9304 15.8498 14.2011 16.119 14.4347L16.7744 13.6794L17.4297 12.924C17.3175 12.8266 17.2233 12.7152 17.1451 12.5866L16.2906 13.1061ZM16.7744 13.6794L16.119 14.4347L16.4051 14.6829L17.0605 13.9276L17.7159 13.1723L17.4297 12.924L16.7744 13.6794ZM17.0605 13.9276L16.4051 14.6829L16.6912 14.9312L17.3466 14.1759L18.002 13.4206L17.7159 13.1723L17.0605 13.9276ZM17.3466 14.1759L16.6912 14.9312C16.9544 15.1595 17.2486 15.349 17.5682 15.5025L18.0012 14.6011L18.4341 13.6997C18.2625 13.6172 18.1203 13.5233 18.002 13.4206L17.3466 14.1759ZM18.0012 14.6011L17.5682 15.5025L17.9366 15.6794L18.3696 14.778L18.8025 13.8766L18.4341 13.6997L18.0012 14.6011ZM18.3696 14.778L17.9366 15.6794L18.305 15.8564L18.738 14.955L19.1709 14.0535L18.8025 13.8766L18.3696 14.778ZM18.738 14.955L18.305 15.8564C18.333 15.8698 18.3415 15.8789 18.3417 15.8791C18.3423 15.8797 18.343 15.8804 18.344 15.882C18.3451 15.8836 18.3477 15.8878 18.3513 15.8958L19.2654 15.4903L20.1795 15.0849C19.9728 14.6189 19.6209 14.2696 19.1709 14.0535L18.738 14.955ZM19.2654 15.4903L18.3513 15.8958L18.5103 16.2543L19.4244 15.8488L20.3385 15.4433L20.1795 15.0849L19.2654 15.4903ZM19.4244 15.8488L18.5103 16.2543L18.6693 16.6127L19.5834 16.2072L20.4975 15.8017L20.3385 15.4433L19.4244 15.8488ZM19.5834 16.2072L18.6693 16.6127C18.8684 17.0616 19.1992 17.4094 19.628 17.6373L20.0973 16.7543L20.5666 15.8713C20.5222 15.8476 20.5104 15.8308 20.4975 15.8017L19.5834 16.2072ZM20.0973 16.7543L19.628 17.6373L19.9829 17.826L20.4522 16.9429L20.9216 16.0599L20.5666 15.8713L20.0973 16.7543ZM20.4522 16.9429L19.9829 17.826L20.3378 18.0146L20.8071 17.1316L21.2765 16.2485L20.9216 16.0599L20.4522 16.9429ZM20.8071 17.1316L20.3378 18.0146C20.3959 18.0454 20.4175 18.0729 20.4352 18.1089L21.3329 17.6684L22.2307 17.2279C22.0205 16.7996 21.6917 16.4692 21.2765 16.2485L20.8071 17.1316ZM21.3329 17.6684L20.4352 18.1089L20.606 18.4571L21.5038 18.0166L22.4015 17.576L22.2307 17.2279L21.3329 17.6684ZM21.5038 18.0166L20.606 18.4571L20.7768 18.8052L21.6746 18.3647L22.5723 17.9242L22.4015 17.576L21.5038 18.0166ZM21.6746 18.3647L20.7768 18.8052C20.833 18.9197 20.8771 19.0106 20.9098 19.0791C20.9261 19.1134 20.9389 19.1406 20.9486 19.1615C20.9534 19.1718 20.957 19.1799 20.9597 19.1859C20.9625 19.1922 20.9637 19.1949 20.9636 19.1947L21.8841 18.8039L22.8045 18.4131C22.7657 18.3216 22.6819 18.1475 22.5723 17.9242L21.6746 18.3647ZM21.8841 18.8039L20.9636 19.1947L21.0023 19.2857L21.9227 18.8949L22.8432 18.5041L22.8045 18.4131L21.8841 18.8039ZM21.9227 18.8949L20.9288 19.005L20.9406 19.1114L21.9345 19.0014L22.9284 18.8913L22.9166 18.7848L21.9227 18.8949ZM21.9345 19.0014L21.1788 19.6563L21.2443 19.7319L22 19.0769L22.7557 18.422L22.6902 18.3464L21.9345 19.0014Z" fill="black"/>
</svg>
