<svg width="37" height="37" viewBox="0 0 37 37" fill="none" xmlns="http://www.w3.org/2000/svg">
<path d="M8.01359 6.89427C7.40291 6.33448 6.45406 6.37574 5.89427 6.98641C5.33448 7.59709 5.37574 8.54594 5.98642 9.10573L7 8L8.01359 6.89427ZM7.07372 8.06757L6.06013 9.1733L6.19777 9.29947L6.36214 9.38805L7.07372 8.06757ZM9.22412 9.73589L10.6521 9.27676L9.22412 9.73589ZM9.62041 10.9685L8.19241 11.4276L9.62041 10.9685ZM10.4866 11.6884L10.2564 13.1707L10.4866 11.6884ZM11.8225 11.8959L12.0527 10.4136L11.8225 11.8959ZM12.7401 12.5598L14.1103 11.9492L12.7401 12.5598ZM12.9897 13.1199L11.6196 13.7304L12.9897 13.1199ZM13.2393 13.6801L14.6095 13.0696L13.2393 13.6801ZM14.5779 14.7171L13.9763 16.0911L14.5779 14.7171ZM15.1224 14.9555L15.7241 13.5815L15.1224 14.9555ZM15.9129 15.7581L14.5379 16.3576L15.9129 15.7581ZM16.4048 16.8863L17.7798 16.2868L16.4048 16.8863ZM17.0621 17.8342L16.0388 18.9309L17.0621 17.8342ZM17.8847 18.6017L16.8614 19.6984L17.8847 18.6017ZM18.472 18.9891L18.5031 17.4894L18.472 18.9891ZM18.648 18.9927L18.6169 20.4924L18.7932 20.496L18.9655 20.4587L18.648 18.9927ZM18.9263 18.9324L19.9399 17.8267L19.3676 17.3021L18.6088 17.4664L18.9263 18.9324ZM18.9263 19.0676L17.9127 17.9618L17.8979 17.9754L17.8835 17.9893L18.9263 19.0676ZM18.1533 19.8152L17.1105 18.7369L18.1533 19.8152ZM17.1003 21.0898L18.4249 21.7935L17.1003 21.0898ZM16.5403 22.1438L15.2156 21.44L16.5403 22.1438ZM15.6116 22.7956L15.8951 24.2685L15.6116 22.7956ZM14.3143 23.0452L14.0309 21.5722L14.3143 23.0452ZM13.4245 23.7393L14.8056 24.3245L13.4245 23.7393ZM13.1832 24.3086L11.8021 23.7234L13.1832 24.3086ZM12.942 24.8779L11.5609 24.2926L12.942 24.8779ZM11.3661 26.4884L10.4434 25.3058L11.3661 26.4884ZM10.5394 27.2515L11.6445 28.2658L10.5394 27.2515ZM10.1576 27.6674L11.2627 28.6817L10.1576 27.6674ZM9.77584 28.0834L8.67076 27.0691L9.77584 28.0834ZM8.86155 28.7509L9.50217 30.1072L8.86155 28.7509ZM8.32904 29.0024L7.68842 27.6461L8.32904 29.0024ZM7.19801 29.6291L8.52128 30.3354L7.19801 29.6291ZM7.13201 29.7527L5.80874 29.0463L5.74617 29.1635L5.70518 29.2899L7.13201 29.7527ZM7.07372 29.9324L8.08731 31.0382L8.37862 30.7711L8.50055 30.3952L7.07372 29.9324ZM5.98642 28.8943C5.37574 29.4541 5.33448 30.4029 5.89427 31.0136C6.45406 31.6243 7.40291 31.6655 8.01359 31.1057L7 30L5.98642 28.8943ZM29.9864 31.1057C30.5971 31.6655 31.5459 31.6243 32.1057 31.0136C32.6655 30.4029 32.6243 29.4541 32.0136 28.8943L31 30L29.9864 31.1057ZM30.9263 29.9324L29.7296 30.8369L29.812 30.9459L29.9127 31.0382L30.9263 29.9324ZM30.2673 29.0605L29.0706 29.9649L30.2673 29.0605ZM29.0663 27.9472L28.4562 29.3175L29.0663 27.9472ZM28.5245 27.7059L27.9143 29.0762L28.5245 27.7059ZM27.9826 27.4647L28.5927 26.0944L27.9826 27.4647ZM27.0146 26.8558L27.9943 25.72L27.0146 26.8558ZM26.1623 26.1207L25.1826 27.2565L26.1623 26.1207ZM24.9859 24.0742L26.3554 23.4622L24.9859 24.0742ZM24.0793 23.3984L24.3407 21.9213L24.0793 23.3984ZM22.7662 23.166L22.5048 24.6431L22.7662 23.166ZM21.9609 22.3796L20.4965 22.7044L21.9609 22.3796ZM21.6636 21.0391L23.128 20.7142L21.6636 21.0391ZM21.0936 19.9959L22.0878 18.8727L21.0936 19.9959ZM20.2511 19.2502L19.2569 20.3735L20.2511 19.2502ZM19.6224 18.908L19.8417 20.3919L19.6224 18.908ZM19.4149 18.9387L19.1956 17.4548L19.0358 17.4784L18.8848 17.5355L19.4149 18.9387ZM19.0737 19.0676L18.0601 20.1733L18.7405 20.7969L19.6038 20.4708L19.0737 19.0676ZM19.0737 18.9324L18.1439 17.7554L18.1007 17.7895L18.0601 17.8267L19.0737 18.9324ZM19.9195 18.2643L18.9897 17.0872L19.9195 18.2643ZM21.0352 17.058L22.3761 17.7304L21.0352 17.058ZM22.4953 15.3211L22.7732 16.7951L22.4953 15.3211ZM23.7966 15.0758L23.5187 13.6018L23.7966 15.0758ZM24.8692 14.581L23.877 13.456L24.8692 14.581ZM26.4228 12.9461L27.7344 13.6739L26.4228 12.9461ZM26.7105 12.4275L25.3989 11.6997L26.7105 12.4275ZM26.9983 11.909L28.3098 12.6368L26.9983 11.909ZM28.6777 10.4114L27.8147 9.18458L28.6777 10.4114ZM30.7361 8.29905L29.6114 7.30653L30.7361 8.29905ZM30.8241 8.19936L31.9487 9.19188L31.9802 9.15624L32.0093 9.11869L30.8241 8.19936ZM30.9263 8.06757L29.9127 6.96184L29.819 7.04777L29.741 7.14825L30.9263 8.06757ZM32.0136 9.10573C32.6243 8.54594 32.6655 7.59709 32.1057 6.98641C31.5459 6.37573 30.5971 6.33448 29.9864 6.89427L31 8L32.0136 9.10573ZM7 8L5.98642 9.10573L6.06013 9.1733L7.07372 8.06757L8.08731 6.96184L8.01359 6.89427L7 8ZM7.07372 8.06757L6.36214 9.38805L7.33826 9.91407L8.04984 8.59359L8.76143 7.27312L7.7853 6.7471L7.07372 8.06757ZM8.04984 8.59359L7.33826 9.91407C7.58145 10.0451 7.71747 10.1511 7.78556 10.2174C7.85105 10.2811 7.82246 10.277 7.79611 10.195L9.22412 9.73589L10.6521 9.27676C10.3411 8.30941 9.52744 7.68591 8.76143 7.27312L8.04984 8.59359ZM9.22412 9.73589L7.79611 10.195L7.99426 10.8113L9.42227 10.3522L10.8503 9.89304L10.6521 9.27676L9.22412 9.73589ZM9.42227 10.3522L7.99426 10.8113L8.19241 11.4276L9.62041 10.9685L11.0484 10.5093L10.8503 9.89304L9.42227 10.3522ZM9.62041 10.9685L8.19241 11.4276C8.33235 11.8628 8.58235 12.2819 8.97715 12.6101C9.36854 12.9354 9.81953 13.1029 10.2564 13.1707L10.4866 11.6884L10.7167 10.2062C10.7083 10.2049 10.7922 10.2177 10.8949 10.3031C11.001 10.3913 11.0406 10.4849 11.0484 10.5093L9.62041 10.9685ZM10.4866 11.6884L10.2564 13.1707L10.9244 13.2744L11.1546 11.7922L11.3847 10.3099L10.7167 10.2062L10.4866 11.6884ZM11.1546 11.7922L10.9244 13.2744L11.5924 13.3781L11.8225 11.8959L12.0527 10.4136L11.3847 10.3099L11.1546 11.7922ZM11.8225 11.8959L11.5924 13.3781C11.6257 13.3833 11.5798 13.3819 11.5067 13.329C11.4716 13.3036 11.4401 13.2732 11.4145 13.241C11.3893 13.2093 11.3758 13.1834 11.37 13.1703L12.7401 12.5598L14.1103 11.9492C13.7126 11.0567 12.9403 10.5515 12.0527 10.4136L11.8225 11.8959ZM12.7401 12.5598L11.37 13.1703L11.6196 13.7304L12.9897 13.1199L14.3599 12.5094L14.1103 11.9492L12.7401 12.5598ZM12.9897 13.1199L11.6196 13.7304L11.8692 14.2906L13.2393 13.6801L14.6095 13.0696L14.3599 12.5094L12.9897 13.1199ZM13.2393 13.6801L11.8692 14.2906C12.1824 14.9934 12.7147 15.5387 13.4318 15.8527L14.0334 14.4786L14.6351 13.1046C14.6243 13.0999 14.6203 13.097 14.6208 13.0974C14.6214 13.0978 14.6237 13.0996 14.6263 13.1021C14.6288 13.1046 14.6287 13.1052 14.6264 13.1017C14.624 13.098 14.6178 13.0882 14.6095 13.0696L13.2393 13.6801ZM14.0334 14.4786L13.4318 15.8527L13.9763 16.0911L14.5779 14.7171L15.1796 13.343L14.6351 13.1046L14.0334 14.4786ZM14.5779 14.7171L13.9763 16.0911L14.5208 16.3295L15.1224 14.9555L15.7241 13.5815L15.1796 13.343L14.5779 14.7171ZM15.1224 14.9555L14.5208 16.3295C14.5306 16.3339 14.5336 16.3361 14.532 16.3351C14.5302 16.3339 14.527 16.3313 14.5237 16.3279C14.5204 16.3246 14.5198 16.3233 14.5218 16.3263C14.5238 16.3294 14.5298 16.3389 14.5379 16.3576L15.9129 15.7581L17.2879 15.1585C16.9788 14.4496 16.4465 13.8978 15.7241 13.5815L15.1224 14.9555ZM15.9129 15.7581L14.5379 16.3576L14.7839 16.9217L16.1589 16.3222L17.5339 15.7227L17.2879 15.1585L15.9129 15.7581ZM16.1589 16.3222L14.7839 16.9217L15.0299 17.4858L16.4048 16.8863L17.7798 16.2868L17.5339 15.7227L16.1589 16.3222ZM16.4048 16.8863L15.0299 17.4858C15.2681 18.0321 15.601 18.5224 16.0388 18.9309L17.0621 17.8342L18.0854 16.7374C17.9748 16.6342 17.8696 16.4926 17.7798 16.2868L16.4048 16.8863ZM17.0621 17.8342L16.0388 18.9309L16.4501 19.3147L17.4734 18.2179L18.4967 17.1212L18.0854 16.7374L17.0621 17.8342ZM17.4734 18.2179L16.4501 19.3147L16.8614 19.6984L17.8847 18.6017L18.908 17.5049L18.4967 17.1212L17.4734 18.2179ZM17.8847 18.6017L16.8614 19.6984C17.0281 19.854 17.2146 20.0128 17.4112 20.1425C17.5514 20.235 17.9331 20.4782 18.4409 20.4887L18.472 18.9891L18.5031 17.4894C18.7272 17.494 18.8865 17.5538 18.9504 17.5806C19.0221 17.6107 19.0616 17.6372 19.0631 17.6383C19.0639 17.6388 19.0155 17.6052 18.908 17.5049L17.8847 18.6017ZM18.472 18.9891L18.4409 20.4887L18.6169 20.4924L18.648 18.9927L18.6791 17.493L18.5031 17.4894L18.472 18.9891ZM18.648 18.9927L18.9655 20.4587L19.2438 20.3984L18.9263 18.9324L18.6088 17.4664L18.3305 17.5267L18.648 18.9927ZM18.9263 18.9324L17.9127 20.0382L17.9864 20.1057L19 19L20.0136 17.8943L19.9399 17.8267L18.9263 18.9324ZM19 19L17.9864 17.8943L17.9127 17.9618L18.9263 19.0676L19.9399 20.1733L20.0136 20.1057L19 19ZM18.9263 19.0676L17.8835 17.9893L17.1105 18.7369L18.1533 19.8152L19.1961 20.8934L19.9691 20.1458L18.9263 19.0676ZM18.1533 19.8152L17.1105 18.7369C16.5574 19.2718 16.0729 19.8265 15.7756 20.386L17.1003 21.0898L18.4249 21.7935C18.501 21.6503 18.7185 21.3553 19.1961 20.8934L18.1533 19.8152ZM17.1003 21.0898L15.7756 20.386L15.4956 20.913L16.8203 21.6168L18.1449 22.3205L18.4249 21.7935L17.1003 21.0898ZM16.8203 21.6168L15.4956 20.913L15.2156 21.44L16.5403 22.1438L17.8649 22.8475L18.1449 22.3205L16.8203 21.6168ZM16.5403 22.1438L15.2156 21.44C15.2199 21.432 15.2297 21.4157 15.2471 21.3958C15.2647 21.3757 15.2851 21.3574 15.3064 21.3425C15.3511 21.3111 15.3704 21.3145 15.3282 21.3226L15.6116 22.7956L15.8951 24.2685C16.7189 24.11 17.4408 23.6458 17.8649 22.8475L16.5403 22.1438ZM15.6116 22.7956L15.3282 21.3226L14.6796 21.4474L14.963 22.9204L15.2464 24.3934L15.8951 24.2685L15.6116 22.7956ZM14.963 22.9204L14.6796 21.4474L14.0309 21.5722L14.3143 23.0452L14.5978 24.5182L15.2464 24.3934L14.963 22.9204ZM14.3143 23.0452L14.0309 21.5722C13.1474 21.7422 12.4145 22.278 12.0433 23.1541L13.4245 23.7393L14.8056 24.3245C14.7962 24.3467 14.7618 24.4079 14.6901 24.4639C14.6218 24.5171 14.5748 24.5226 14.5978 24.5182L14.3143 23.0452ZM13.4245 23.7393L12.0433 23.1541L11.8021 23.7234L13.1832 24.3086L14.5644 24.8938L14.8056 24.3245L13.4245 23.7393ZM13.1832 24.3086L11.8021 23.7234L11.5609 24.2926L12.942 24.8779L14.3231 25.4631L14.5644 24.8938L13.1832 24.3086ZM12.942 24.8779L11.5609 24.2926C11.4898 24.4603 11.4098 24.5518 11.3332 24.6116L12.2559 25.7942L13.1786 26.9769C13.6951 26.5739 14.0725 26.0545 14.3231 25.4631L12.942 24.8779ZM12.2559 25.7942L11.3332 24.6116L10.8883 24.9587L11.811 26.1413L12.7337 27.324L13.1786 26.9769L12.2559 25.7942ZM11.811 26.1413L10.8883 24.9587L10.4434 25.3058L11.3661 26.4884L12.2888 27.6711L12.7337 27.324L11.811 26.1413ZM11.3661 26.4884L10.4434 25.3058C10.0814 25.5882 9.74486 25.8989 9.43432 26.2372L10.5394 27.2515L11.6445 28.2658C11.843 28.0495 12.0575 27.8515 12.2888 27.6711L11.3661 26.4884ZM10.5394 27.2515L9.43432 26.2372L9.05254 26.6531L10.1576 27.6674L11.2627 28.6817L11.6445 28.2658L10.5394 27.2515ZM10.1576 27.6674L9.05254 26.6531L8.67076 27.0691L9.77584 28.0834L10.8809 29.0977L11.2627 28.6817L10.1576 27.6674ZM9.77584 28.0834L8.67076 27.0691C8.55311 27.1973 8.40814 27.3061 8.22093 27.3945L8.86155 28.7509L9.50217 30.1072C10.025 29.8603 10.4895 29.5241 10.8809 29.0977L9.77584 28.0834ZM8.86155 28.7509L8.22093 27.3945L7.68842 27.6461L8.32904 29.0024L8.96966 30.3587L9.50217 30.1072L8.86155 28.7509ZM8.32904 29.0024L7.68842 27.6461L7.15591 27.8976L7.79653 29.2539L8.43715 30.6102L8.96966 30.3587L8.32904 29.0024ZM7.79653 29.2539L7.15591 27.8976C6.95503 27.9925 6.75608 28.0946 6.58398 28.2025C6.49826 28.2562 6.39252 28.3279 6.28732 28.4175C6.20097 28.4911 6.01565 28.6587 5.87474 28.9227L7.19801 29.6291L8.52128 30.3354C8.45588 30.4579 8.38624 30.544 8.34212 30.5936C8.29599 30.6454 8.25634 30.6811 8.23302 30.701C8.1887 30.7387 8.16327 30.7532 8.17731 30.7444C8.20471 30.7272 8.28301 30.683 8.43715 30.6102L7.79653 29.2539ZM7.19801 29.6291L5.87474 28.9227L5.80874 29.0463L7.13201 29.7527L8.45528 30.4591L8.52128 30.3354L7.19801 29.6291ZM7.13201 29.7527L5.70518 29.2899L5.64689 29.4697L7.07372 29.9324L8.50055 30.3952L8.55884 30.2155L7.13201 29.7527ZM7.07372 29.9324L6.06013 28.8267L5.98642 28.8943L7 30L8.01359 31.1057L8.08731 31.0382L7.07372 29.9324ZM31 30L32.0136 28.8943L31.9399 28.8267L30.9263 29.9324L29.9127 31.0382L29.9864 31.1057L31 30ZM30.9263 29.9324L32.1229 29.028L31.4639 28.156L30.2673 29.0605L29.0706 29.9649L29.7296 30.8369L30.9263 29.9324ZM30.2673 29.0605L31.4639 28.156C30.9805 27.5165 30.392 26.8955 29.6765 26.577L29.0663 27.9472L28.4562 29.3175C28.4413 29.3109 28.4959 29.3333 28.6178 29.4463C28.736 29.5559 28.8876 29.7228 29.0706 29.9649L30.2673 29.0605ZM29.0663 27.9472L29.6765 26.577L29.1346 26.3357L28.5245 27.7059L27.9143 29.0762L28.4562 29.3175L29.0663 27.9472ZM28.5245 27.7059L29.1346 26.3357L28.5927 26.0944L27.9826 27.4647L27.3724 28.8349L27.9143 29.0762L28.5245 27.7059ZM27.9826 27.4647L28.5927 26.0944C28.3582 25.9899 28.1614 25.8641 27.9943 25.72L27.0146 26.8558L26.0348 27.9916C26.4358 28.3375 26.8844 28.6177 27.3724 28.8349L27.9826 27.4647ZM27.0146 26.8558L27.9943 25.72L27.5681 25.3524L26.5884 26.4882L25.6087 27.6241L26.0348 27.9916L27.0146 26.8558ZM26.5884 26.4882L27.5681 25.3524L27.142 24.9848L26.1623 26.1207L25.1826 27.2565L25.6087 27.6241L26.5884 26.4882ZM26.1623 26.1207L27.142 24.9848C27.0392 24.8961 26.9405 24.7717 26.8556 24.5815L25.4861 25.1935L24.1166 25.8054C24.365 26.3615 24.7172 26.8551 25.1826 27.2565L26.1623 26.1207ZM25.4861 25.1935L26.8556 24.5815L26.6055 24.0219L25.236 24.6338L23.8665 25.2458L24.1166 25.8054L25.4861 25.1935ZM25.236 24.6338L26.6055 24.0219L26.3554 23.4622L24.9859 24.0742L23.6164 24.6862L23.8665 25.2458L25.236 24.6338ZM24.9859 24.0742L26.3554 23.4622C25.9655 22.5897 25.2176 22.0765 24.3407 21.9213L24.0793 23.3984L23.8179 24.8754C23.8477 24.8807 23.8049 24.8781 23.7378 24.8281C23.7058 24.8043 23.6775 24.7763 23.6548 24.7474C23.6325 24.7189 23.621 24.6963 23.6164 24.6862L24.9859 24.0742ZM24.0793 23.3984L24.3407 21.9213L23.6841 21.8052L23.4227 23.2822L23.1613 24.7593L23.8179 24.8754L24.0793 23.3984ZM23.4227 23.2822L23.6841 21.8052L23.0275 21.689L22.7662 23.166L22.5048 24.6431L23.1613 24.7593L23.4227 23.2822ZM22.7662 23.166L23.0275 21.689C23.0495 21.6929 23.1658 21.7221 23.2846 21.8382C23.4008 21.9517 23.4258 22.0567 23.4253 22.0548L21.9609 22.3796L20.4965 22.7044C20.5952 23.1493 20.8039 23.6088 21.1885 23.9844C21.5758 24.3627 22.0451 24.5617 22.5048 24.6431L22.7662 23.166ZM21.9609 22.3796L23.4253 22.0548L23.2767 21.3845L21.8123 21.7093L20.3478 22.0341L20.4965 22.7044L21.9609 22.3796ZM21.8123 21.7093L23.2767 21.3845L23.128 20.7142L21.6636 21.0391L20.1992 21.3639L20.3478 22.0341L21.8123 21.7093ZM21.6636 21.0391L23.128 20.7142C22.9757 20.0277 22.6539 19.3738 22.0878 18.8727L21.0936 19.9959L20.0995 21.1192C20.1028 21.1221 20.1139 21.1321 20.1304 21.1624C20.1482 21.1949 20.1756 21.2574 20.1992 21.3639L21.6636 21.0391ZM21.0936 19.9959L22.0878 18.8727L21.6665 18.4998L20.6724 19.6231L19.6782 20.7463L20.0995 21.1192L21.0936 19.9959ZM20.6724 19.6231L21.6665 18.4998L21.2452 18.127L20.2511 19.2502L19.2569 20.3735L19.6782 20.7463L20.6724 19.6231ZM20.2511 19.2502L21.2452 18.127C21.0623 17.9651 20.8442 17.7934 20.6003 17.6607C20.3918 17.5472 19.9518 17.343 19.403 17.4241L19.6224 18.908L19.8417 20.3919C19.6234 20.4242 19.4497 20.3933 19.3496 20.3664C19.2494 20.3394 19.1861 20.3066 19.1662 20.2957C19.1319 20.2771 19.159 20.2868 19.2569 20.3735L20.2511 19.2502ZM19.6224 18.908L19.403 17.4241L19.1956 17.4548L19.4149 18.9387L19.6342 20.4226L19.8417 20.3919L19.6224 18.908ZM19.4149 18.9387L18.8848 17.5355L18.5436 17.6644L19.0737 19.0676L19.6038 20.4708L19.945 20.3419L19.4149 18.9387ZM19.0737 19.0676L20.0873 17.9618L20.0136 17.8943L19 19L17.9864 20.1057L18.0601 20.1733L19.0737 19.0676ZM19 19L20.0136 20.1057L20.0873 20.0382L19.0737 18.9324L18.0601 17.8267L17.9864 17.8943L19 19ZM19.0737 18.9324L20.0035 20.1095L20.8494 19.4413L19.9195 18.2643L18.9897 17.0872L18.1439 17.7554L19.0737 18.9324ZM19.9195 18.2643L20.8494 19.4413C21.4702 18.9509 22.0482 18.3842 22.3761 17.7304L21.0352 17.058L19.6943 16.3856C19.6624 16.4493 19.4967 16.6868 18.9897 17.0872L19.9195 18.2643ZM21.0352 17.058L22.3761 17.7304L22.6459 17.1923L21.305 16.5199L19.9642 15.8476L19.6943 16.3856L21.0352 17.058ZM21.305 16.5199L22.6459 17.1923L22.9157 16.6542L21.5748 15.9818L20.234 15.3095L19.9642 15.8476L21.305 16.5199ZM21.5748 15.9818L22.9157 16.6542C22.9113 16.6629 22.9008 16.6813 22.8818 16.704C22.8624 16.727 22.8394 16.7484 22.8146 16.7662C22.7625 16.8035 22.7354 16.8022 22.7732 16.7951L22.4953 15.3211L22.2174 13.8471C21.3766 14.0056 20.6467 14.4864 20.234 15.3095L21.5748 15.9818ZM22.4953 15.3211L22.7732 16.7951L23.4238 16.6725L23.1459 15.1984L22.8681 13.7244L22.2174 13.8471L22.4953 15.3211ZM23.1459 15.1984L23.4238 16.6725L24.0744 16.5498L23.7966 15.0758L23.5187 13.6018L22.8681 13.7244L23.1459 15.1984ZM23.7966 15.0758L24.0744 16.5498C24.726 16.427 25.3444 16.162 25.8614 15.706L24.8692 14.581L23.877 13.456C23.8314 13.4963 23.7347 13.5611 23.5187 13.6018L23.7966 15.0758ZM24.8692 14.581L25.8614 15.706L26.2833 15.3339L25.2911 14.2089L24.299 13.0839L23.877 13.456L24.8692 14.581ZM25.2911 14.2089L26.2833 15.3339L26.7052 14.9617L25.7131 13.8368L24.7209 12.7118L24.299 13.0839L25.2911 14.2089ZM25.7131 13.8368L26.7052 14.9617C27.1217 14.5944 27.464 14.1611 27.7344 13.6739L26.4228 12.9461L25.1112 12.2183C24.9979 12.4225 24.867 12.5829 24.7209 12.7118L25.7131 13.8368ZM26.4228 12.9461L27.7344 13.6739L28.0221 13.1554L26.7105 12.4275L25.3989 11.6997L25.1112 12.2183L26.4228 12.9461ZM26.7105 12.4275L28.0221 13.1554L28.3098 12.6368L26.9983 11.909L25.6867 11.1812L25.3989 11.6997L26.7105 12.4275ZM26.9983 11.909L28.3098 12.6368C28.3969 12.48 28.4975 12.3722 28.613 12.291L27.7499 11.0641L26.8868 9.83729C26.3838 10.1912 25.9833 10.6467 25.6867 11.1812L26.9983 11.909ZM27.7499 11.0641L28.613 12.291L29.0769 11.9646L28.2138 10.7378L27.3508 9.51094L26.8868 9.83729L27.7499 11.0641ZM28.2138 10.7378L29.0769 11.9646L29.5408 11.6382L28.6777 10.4114L27.8147 9.18458L27.3508 9.51094L28.2138 10.7378ZM28.6777 10.4114L29.5408 11.6382C29.9433 11.3551 30.3093 11.0295 30.6369 10.6628L29.5183 9.66347L28.3996 8.66414C28.225 8.85958 28.0307 9.03262 27.8147 9.18458L28.6777 10.4114ZM29.5183 9.66347L30.6369 10.6628L31.0135 10.2412L29.8949 9.24189L28.7763 8.24256L28.3996 8.66414L29.5183 9.66347ZM29.8949 9.24189L31.0135 10.2412L31.3901 9.81964L30.2715 8.82031L29.1529 7.82098L28.7763 8.24256L29.8949 9.24189ZM30.2715 8.82031L31.3901 9.81964C31.64 9.54 31.7984 9.36224 31.8608 9.29157L30.7361 8.29905L29.6114 7.30653C29.5565 7.36876 29.4052 7.53852 29.1529 7.82098L30.2715 8.82031ZM30.7361 8.29905L31.8608 9.29157L31.9487 9.19188L30.8241 8.19936L29.6994 7.20685L29.6114 7.30653L30.7361 8.29905ZM30.8241 8.19936L32.0093 9.11869L32.1115 8.9869L30.9263 8.06757L29.741 7.14825L29.6388 7.28004L30.8241 8.19936ZM30.9263 8.06757L31.9399 9.1733L32.0136 9.10573L31 8L29.9864 6.89427L29.9127 6.96184L30.9263 8.06757Z" fill="black"/>
</svg>
