<svg width="20" height="20" viewBox="0 0 20 20" fill="none" xmlns="http://www.w3.org/2000/svg">
<path d="M5.82929 4.30389C5.50108 4.30389 4.97893 4.30389 4.66029 4.30389C4.15801 4.30389 2.09968 4.221 2.09968 4.221C2.09968 4.78424 2.09968 6.4894 2.09968 6.4894V12.9476C2.09968 12.9476 2.01886 16.7106 2.01886 17.0346C2.01886 17.4599 1.88438 17.8245 2.33362 17.8245C3.50134 17.8245 4.66221 17.9122 5.83001 17.9122C6.66186 17.9122 7.48799 17.8245 8.31832 17.8245C10.0004 17.8245 11.648 18 13.3375 18C14.2767 18 15.1824 17.9122 16.1235 17.9122C16.4638 17.9122 17.5912 17.9413 17.9315 17.9413L17.8675 13.0852C17.8675 12.5952 17.7305 11.8108 17.9057 11.3689C18.0925 10.8979 17.944 10.0151 17.944 9.48686C17.944 8.84325 17.944 8.19965 17.944 7.55604C17.944 6.4743 17.8675 5.38581 17.8675 4.32827C17.8675 3.77284 17.0647 4.07943 16.7233 4.12836C16.4236 4.17129 16.1023 4.13323 15.8003 4.13323C15.1539 4.13323 15.473 4.221 14.8096 4.221" stroke="#090909" stroke-width="2" stroke-linecap="round" stroke-linejoin="round"/>
<path d="M9.80105 2.1763C10.1899 4.26797 9.90313 8.23307 9.8438 10.3191C9.84082 10.4239 9.8164 12.9712 9.92415 12.9937C10.0691 13.0241 10.6725 12.3413 10.7107 12.3063C11.4069 11.6674 12.4385 11.3291 13.1129 10.6674C13.7774 10.0154 14.3976 9.33669 15.0346 8.66142C15.0882 8.60458 15.247 8.33829 15.0898 8.51705C14.3301 9.38109 13.5085 10.2717 12.6963 11.084C12.3047 11.4756 11.6003 12.1778 11.153 12.7486C10.8318 13.2999 10.1251 13.9459 9.80105 14.4943C9.65815 14.7361 9.44673 14.1666 9.36501 14.0583C8.5224 12.9409 7.72888 11.8623 6.98962 10.676C6.40413 9.73649 5.91628 8.8135 5.1297 8.02692" stroke="#090909" stroke-width="2" stroke-linecap="round"/>
</svg>
