<svg width="20" height="20" viewBox="0 0 20 20" fill="none" xmlns="http://www.w3.org/2000/svg">
<path d="M2.34028 4.74893C0.990248 5.11974 1.6586 12.1481 1.6586 13.4449C1.6586 14.0263 1.35425 15.9525 2.07518 15.983C3.8618 16.0585 5.66453 15.983 7.45287 15.983C9.87405 15.983 12.4448 16.3574 14.9513 16.3574C18.0189 16.3574 18.3444 16.9252 18.0189 13.9141C18.0189 10.9111 17.9103 8.88873 18.0189 6.62127C18.0649 5.6603 18.9556 4.74893 17.5266 4.74893C16.0938 4.74893 14.661 4.74893 13.2282 4.74893C11.1264 4.74893 9.02452 4.74893 6.92268 4.74893C5.70804 4.74893 3.42053 4.59341 2.34028 4" stroke="#090909" stroke-width="2" stroke-linecap="round"/>
<path d="M1 4.6687C1.64166 4.75682 2.07452 5.66236 2.6 6.03592C3.28438 6.52245 4.21489 7.25538 4.82222 7.86703C5.72478 8.776 6.92094 9.42049 7.93333 10.162C8.63412 10.6753 9.3627 11.2442 10.0889 11.7001C10.4838 11.9481 11.6455 10.7595 12.0778 10.5038C13.0329 9.93879 13.8482 9.03812 14.8444 8.57505C16.3333 7.88299 17.451 6.11492 19 5.54763" stroke="#090909" stroke-width="2" stroke-linecap="round"/>
</svg>
