<svg width="40" height="40" viewBox="0 0 40 40" fill="none" xmlns="http://www.w3.org/2000/svg">
<path d="M17.5179 10.2275C17.3909 9.41031 17.9437 8.64579 18.7601 8.5166C19.3433 8.42592 19.8834 8.69723 20.2015 9.14941L20.4124 9.30175L20.471 9.34863L20.764 9.6416C21.5012 10.3791 21.3769 11.3649 21.2679 11.8564L21.139 12.4541L21.0101 13.04C20.939 13.3609 20.898 13.6783 20.8812 13.9775L20.8109 15.126C20.7978 15.3602 20.8155 15.5821 20.8695 15.7939L21.0101 16.3447L21.432 17.9619L21.5843 18.501L21.7367 19.0518C21.8621 19.5142 21.9366 19.9815 21.9476 20.4463L21.971 21.4307C21.9885 22.1662 21.6633 22.9502 21.3265 23.6103L20.9046 24.4307C20.7171 25.0412 20.1707 25.4937 19.4984 25.4971C18.673 25.4993 18.0048 24.834 17.9984 24.0088L17.9984 23.9033L17.9867 23.54L18.1624 23.2119L18.6546 22.251C18.7951 21.9758 18.8751 21.7654 18.9242 21.6182C18.9643 21.4964 18.9701 21.4517 18.971 21.4697L18.9476 20.5166C18.943 20.3243 18.9131 20.0984 18.8421 19.8369L18.6898 19.2861L18.5374 18.7471C18.4368 18.377 18.3393 18.0049 18.2445 17.6338L17.9632 16.5322C17.8326 16.0187 17.7815 15.4926 17.8109 14.9619L17.846 14.3877L17.8812 13.8018C17.9076 13.3336 17.9764 12.865 18.0804 12.3955L18.2093 11.7978L18.2914 11.458L18.057 11.2588L17.6117 10.8955L17.5296 10.3213L17.5179 10.2275Z" fill="black"/>
<path fill-rule="evenodd" clip-rule="evenodd" d="M20.6611 31.9973C20.1242 32.0057 19.6066 31.807 19.2187 31.5237L19.1347 31.4631L19.0605 31.3909L18.3974 30.7493L18.371 30.7239L18.3456 30.6975C18.1622 30.5019 17.6804 29.9091 17.8925 29.0823C18.0858 28.3301 18.7069 28.0326 18.8495 27.9661C19.0639 27.866 19.2802 27.812 19.3622 27.7912C19.4414 27.7712 19.4713 27.7638 19.4765 27.7629L20.1523 27.5168C20.4825 27.3967 21.3596 27.2045 22.0312 27.9397C22.527 28.4828 22.5017 29.1545 22.4902 29.3664L22.4364 30.3411C22.4087 30.8473 22.167 31.3336 21.7275 31.6526C21.3428 31.9313 20.9327 31.993 20.6611 31.9973Z" fill="black"/>
<path d="M20.4647 0.421708C20.8638 0.392662 21.3197 0.440475 21.7421 0.667802L22.3397 1.15999L22.6093 1.4764L22.8905 1.80452C22.9926 1.92486 23.1266 2.09548 23.2304 2.27327C23.2732 2.3468 23.3907 2.54936 23.4413 2.82405C23.4679 2.96902 23.4895 3.23675 23.3944 3.55061L23.4999 3.97249L23.6522 4.53499C23.7321 4.8339 23.8379 5.11908 23.9569 5.39046L24.4022 6.42171C24.4503 6.53139 24.5392 6.64412 24.6835 6.76155L25.621 7.53499C26.1715 7.98347 26.5676 8.56758 26.746 9.26936L27.0272 10.3944C27.0815 10.6084 27.1617 10.8015 27.2733 10.9686L27.9061 11.9061C28.1337 12.2465 28.3471 12.5952 28.5507 12.9491L28.8319 13.4295L29.1132 13.9217C29.3935 14.409 29.5813 14.9366 29.6757 15.492L29.7694 16.078L29.8749 16.6639C29.9012 16.8191 29.9532 16.9328 30.0272 17.0272L30.7304 17.9178C31.0603 18.3385 31.3177 18.8114 31.5038 19.3123L31.703 19.8397L31.9022 20.3787C31.912 20.4037 31.9403 20.4552 32.0546 20.5311L33.1093 21.2342C33.8876 21.7511 34.3093 22.5577 34.3046 23.4842V24.7733C34.3041 24.8449 34.3133 24.8814 34.3163 24.8905V24.9022L35.0429 25.7928C35.2788 26.0829 35.5171 26.3723 35.7577 26.66L36.1327 27.1053L36.496 27.5389C36.773 27.8701 37.0298 28.216 37.2694 28.5701L37.9022 29.5076C38.2085 29.9605 38.4361 30.4546 38.5702 30.9842L38.7108 31.535L38.8397 32.0741C39.0199 32.7919 38.9489 33.5973 38.4179 34.2772L38.1249 34.6405L37.8319 35.0155C37.3932 35.5769 36.7961 35.9034 36.1444 36.035L35.1132 36.2459C34.6848 36.3322 34.2395 36.383 33.789 36.3983L33.2265 36.4217L32.664 36.4334C32.2944 36.4459 31.9202 36.465 31.5507 36.4803L30.4257 36.5272C30.0117 36.5441 29.5975 36.5441 29.1835 36.5272L28.0585 36.4803C27.5149 36.4581 26.9784 36.3439 26.4647 36.1522L25.9022 35.9412L25.3749 35.742L24.8124 35.9998L24.2499 36.2694C23.628 36.5593 22.9444 36.6769 22.246 36.5623L21.121 36.3748C20.7196 36.3089 20.3144 36.2294 19.914 36.1405L19.3515 36.0116L18.789 35.8944C18.7856 35.8949 18.7607 35.901 18.7069 35.9295L18.1444 36.2225L17.5819 36.5272C16.9309 36.8759 16.1861 37.0175 15.4257 36.8553L14.8632 36.7381L14.3007 36.6092C14.0546 36.5572 13.8121 36.5376 13.5741 36.5506L12.4491 36.6209C12.0361 36.6435 11.6201 36.642 11.2069 36.6326L10.0819 36.6092C9.63201 36.5989 9.18093 36.5579 8.73427 36.4803L8.17177 36.3866L7.60927 36.2811C7.19852 36.2096 6.78786 36.126 6.3788 36.0233L5.2538 35.742C5.09223 35.7014 4.94144 35.6999 4.78505 35.7303L4.22255 35.8358L3.64833 35.953C3.40618 36.0003 2.63637 36.1259 1.99599 35.578C1.2314 34.9235 1.39464 34.0142 1.46865 33.7264L1.59755 33.2342L1.72646 32.7537C1.84013 32.3126 2.00495 31.8846 2.21865 31.4764L2.46474 31.0076L2.69912 30.5506C2.70424 30.5338 2.72152 30.4572 2.69912 30.2811L2.61708 29.5897L2.52333 28.8983C2.43407 28.2035 2.50692 27.4765 2.86318 26.8123L3.40224 25.828C3.73651 25.2048 4.24413 24.7416 4.83193 24.41L5.40615 24.0819L5.78115 23.8592V23.4608L5.76943 22.8162C5.75871 22.1326 5.91714 21.4584 6.30849 20.8592L6.61318 20.3787L6.92958 19.91C7.11772 19.6226 7.30006 19.3288 7.46865 19.0311L7.73818 18.5389L8.01943 18.0584C8.19878 17.7417 8.37439 17.4179 8.54677 17.0975L8.8163 16.6053L9.07412 16.1014C9.20296 15.8617 9.31976 15.6115 9.40224 15.3397L9.73036 14.2381C9.93038 13.5778 10.3122 13.0205 10.8319 12.5858L11.7694 11.8123C11.9862 11.6316 12.1589 11.4331 12.2968 11.2381L12.953 10.3241C13.0281 10.2179 13.0789 10.0784 13.1054 9.90218L13.1991 9.31624L13.2811 8.71858C13.4154 7.83489 13.9324 7.15323 14.6522 6.7264L15.2147 6.39827L15.6483 6.12874L15.6718 5.69515L15.7069 5.07405C15.7369 4.4454 15.8954 3.83683 16.1991 3.28108L16.7616 2.24983C17.1753 1.49289 17.8586 1.02859 18.6366 0.831864L19.2694 0.679521L19.914 0.515458L20.4647 0.421708ZM20.0077 3.58577L19.3749 3.74983H19.3632L19.1171 4.20686L18.8241 4.72249C18.7515 4.85555 18.705 5.01372 18.6952 5.21468L18.6718 5.83577L18.6366 6.46858C18.591 7.41634 18.0964 8.18395 17.3124 8.64827L16.7499 8.9764L16.2226 9.28108L16.164 9.76155L16.0702 10.3475C15.9784 10.9586 15.7615 11.5374 15.4022 12.0467L15.0741 12.5155L14.746 12.9725C14.4484 13.3931 14.0933 13.7737 13.6913 14.1092L12.7538 14.8826C12.6572 14.9634 12.6229 15.0354 12.6015 15.1053L12.2733 16.2069C12.134 16.6668 11.9484 17.1111 11.7226 17.5311L11.1835 18.5155C11.0007 18.8552 10.8228 19.1993 10.6327 19.535L10.3515 20.0155L10.0702 20.5076C9.86996 20.8612 9.66047 21.2098 9.4374 21.5506L9.13271 22.0311L8.8163 22.4998C8.7973 22.5294 8.76673 22.5993 8.76943 22.7694L8.79287 24.0584C8.80036 24.5066 8.69355 24.9739 8.4413 25.4061C8.19033 25.8361 7.83939 26.1513 7.45693 26.367L6.88271 26.6951L6.29677 27.0233C6.1181 27.1251 6.05901 27.2086 6.03896 27.2459L5.78115 27.7381L5.51162 28.2303C5.50961 28.234 5.50552 28.2529 5.4999 28.2889C5.49394 28.3287 5.48605 28.4012 5.4999 28.5116L5.59365 29.203L5.67568 29.8944C5.76176 30.5621 5.70343 31.2755 5.35927 31.9334L5.11318 32.4022L4.94912 32.7069C5.29436 32.7035 5.63985 32.7389 5.98037 32.8241L6.54287 32.9764L7.10537 33.117C7.44486 33.2023 7.78711 33.2692 8.1249 33.328L8.6874 33.4217L9.2499 33.5272C9.55218 33.5797 9.85322 33.6024 10.1522 33.6092L11.2772 33.6326C11.613 33.6403 11.9492 33.6392 12.2851 33.6209L12.8476 33.5858L13.4101 33.5623C13.9202 33.5344 14.4316 33.5725 14.9335 33.6795L15.496 33.7967L16.0585 33.9256H16.0702C16.0787 33.924 16.111 33.9071 16.164 33.8787L16.7265 33.5858L17.289 33.2811C17.9431 32.9314 18.6826 32.7954 19.4452 32.9647L20.0077 33.0819L20.5702 33.2108C20.9179 33.2879 21.2664 33.3531 21.6132 33.41L22.7382 33.5975C22.7878 33.6054 22.8588 33.6093 22.9843 33.5506L23.5468 33.2811L24.1093 33.0233C24.6548 32.7682 25.2385 32.6725 25.8202 32.7655L26.3944 32.9178L27.5194 33.3397C27.7541 33.4272 27.9706 33.4715 28.1757 33.4803L29.3007 33.5272C29.6346 33.5408 29.9745 33.541 30.3085 33.5272L31.4335 33.4803C31.8116 33.4647 32.1921 33.4462 32.5702 33.4334L33.1327 33.4217L33.6952 33.3983C33.9926 33.3881 34.272 33.356 34.5272 33.3045L35.0429 33.1991L35.5233 33.0936L35.7577 32.8006L35.8866 32.6248L35.7929 32.2616L35.664 31.7225C35.6164 31.5339 35.5327 31.3533 35.4179 31.1834L35.1015 30.7147L34.7851 30.2576C34.603 29.9884 34.4124 29.7157 34.1991 29.4608L33.8241 29.0272L33.4608 28.5819C33.2112 28.2834 32.9557 27.9806 32.7108 27.6795L32.3593 27.2459L31.996 26.8006C31.5086 26.2012 31.2995 25.481 31.3046 24.7498V23.6248L30.9296 23.3787L30.3905 23.0272C29.8088 22.6399 29.345 22.1063 29.0897 21.4217L28.8905 20.8826L28.6913 20.3553C28.6136 20.1461 28.5144 19.9472 28.3749 19.7694L28.0116 19.3241L27.6601 18.8787C27.2652 18.3749 27.0163 17.7935 26.9101 17.1678L26.8163 16.5819L26.7108 15.9959C26.6726 15.7708 26.605 15.5842 26.5116 15.4217L25.9491 14.4373C25.7799 14.1435 25.5994 13.8534 25.4101 13.5701L25.0936 13.1014L24.789 12.6326C24.4821 12.1735 24.2569 11.6688 24.121 11.1326L23.8397 10.0076C23.828 9.96151 23.8092 9.91683 23.7343 9.8553L23.2538 9.46858L22.7851 9.09358C22.3006 8.69933 21.9142 8.20794 21.6601 7.62874L21.4374 7.11311L21.203 6.59749C21.0204 6.18106 20.8762 5.74154 20.7577 5.29671L20.6054 4.74593L20.453 4.18343C20.3993 3.98184 20.3509 3.76445 20.3241 3.57405C20.3213 3.55418 20.3154 3.53073 20.3124 3.50374L20.0077 3.58577Z" fill="black"/>
</svg>
