<svg width="40" height="40" viewBox="0 0 40 40" fill="none" xmlns="http://www.w3.org/2000/svg">
<path d="M6.76709 19.8555L6.76709 19.6328C6.78454 19.0209 7.11714 18.601 7.30615 18.4023C7.51624 18.1826 7.76951 18.0065 7.98584 17.875L8.46631 17.582L8.9585 17.2773C9.14979 17.1606 9.31723 17.0227 9.4624 16.8555L9.8374 16.4219L10.2124 16C10.3662 15.8226 10.4991 15.6008 10.6226 15.3437L11.1616 14.2422C11.4859 13.5686 12.0105 13.0401 12.7085 12.7305L13.2476 12.4961L13.7749 12.25C13.8185 12.2307 13.8449 12.2112 13.8804 12.1445L14.1616 11.6172L14.4546 11.0898C14.7856 10.467 15.2771 9.96363 15.9194 9.64844L16.4468 9.40234L16.9624 9.14453C17.1478 9.05358 17.273 8.95086 17.3608 8.85156L18.064 8.05469C18.1952 7.90464 18.3781 7.70526 18.5913 7.55078C18.6855 7.48259 18.9149 7.32924 19.2358 7.25781C19.6365 7.16944 20.2778 7.20796 20.7476 7.75L20.8296 7.84375L21.0288 8.06641L21.0522 8.14844C21.4919 8.76959 21.4151 9.61888 20.8296 10.1289L20.7476 10.1992L19.0483 11.6758L18.9546 11.4297C18.7442 11.5832 18.5227 11.724 18.2866 11.8398L17.7593 12.0859L17.2437 12.3437C17.1897 12.3702 17.1493 12.4091 17.103 12.4961L16.8101 13.0234L16.5288 13.5625C16.1869 14.2031 15.6651 14.6943 14.9937 14.9922L14.4546 15.2383L13.9155 15.4727L13.9038 15.4844L13.8921 15.4844C13.8905 15.4859 13.876 15.5033 13.8569 15.543L13.5991 16.0937L13.3296 16.6445C13.0993 17.124 12.8166 17.5741 12.4741 17.9687L12.0991 18.3906L11.7241 18.8242C11.375 19.2257 10.9718 19.567 10.5171 19.8437L10.1772 20.043L10.5054 20.3242C10.9544 20.7203 11.3067 21.2027 11.5601 21.7422L11.8179 22.293L12.0757 22.8555C12.0821 22.8692 12.096 22.8741 12.0991 22.8789L13.2007 23.3242C13.9261 23.6182 14.4736 24.1539 14.8062 24.8477L15.064 25.3984L15.2397 25.7734L15.7788 25.832L16.4468 25.9258C16.8831 25.9812 17.3371 26.1303 17.7358 26.4414C18.1379 26.7571 18.4039 27.1724 18.5562 27.6016L18.7788 28.2227L18.9663 28.7852C18.9486 28.7509 18.9502 28.7614 19.0015 28.8086C19.0723 28.873 19.2151 28.979 19.4585 29.1016L20.6069 29.6758L20.7476 29.8047L20.8296 29.8633C21.4556 30.4058 21.5245 31.3583 20.9819 31.9844C20.4989 32.5417 19.7075 32.6299 19.0952 32.2656L18.1108 31.7734C17.3347 31.3827 16.5043 30.784 16.1655 29.8281L15.9429 29.2187L15.814 28.8672L15.4038 28.8086L14.7241 28.7266L14.0796 28.5742C13.4642 28.3489 12.9427 27.9097 12.6265 27.25L12.3687 26.6992L12.0991 26.1484L12.0757 26.1133L10.9741 25.668C10.2446 25.3724 9.69759 24.831 9.36865 24.1328L9.09912 23.5703L8.84131 23.0195C8.7463 22.8172 8.63779 22.6742 8.5249 22.5742L8.10303 22.1992L7.68115 21.8359C7.49632 21.6729 7.29343 21.4695 7.13037 21.2383C6.98477 21.0308 6.73983 20.6114 6.75537 20.0664L6.76709 19.8555Z" fill="black"/>
<path d="M15.0195 22.0391C14.2073 22.3002 13.4006 22.1769 12.6992 21.7813L11.5742 21.1484C11.4151 21.059 11.321 21.0526 11.2695 21.0547L10.707 21.0781L10.1445 21.1133C9.84919 21.1287 9.66722 21.1678 9.58203 21.1953L8.83203 21.4297C8.70229 21.4716 8.56642 21.5178 8.44531 21.5469C8.39872 21.558 8.26428 21.5957 8.11719 21.6055C8.05877 21.6093 7.84802 21.6152 7.60156 21.5469C7.46765 21.5094 7.20266 21.4203 6.95703 21.1836C6.6665 20.9036 6.5 20.5077 6.5 20.0938L6.5 19.25L6.89844 19.0039C7.17291 18.7006 7.55869 18.5 8 18.5L8.15234 18.5L8.29297 18.4531L8.66797 18.3359C9.08031 18.2031 9.52884 18.137 9.98047 18.1133L10.543 18.0898L11.1055 18.0547C11.7739 18.0199 12.403 18.1964 12.9687 18.5L13.2031 18.5L13.1094 18.5703L13.6133 18.8516L14.1758 19.168L14.668 19.0039L15.2305 18.8281C15.665 18.6881 16.1022 18.5691 16.543 18.4883L17.1055 18.3828L17.668 18.2891C18.3503 18.164 19.0232 18.2477 19.6484 18.5117L20.2109 18.7461L20.7734 18.9922C20.8556 19.0263 20.8894 19.0136 20.9258 19.0039L21.4883 18.8633L22.0508 18.7109C22.4368 18.6083 22.8247 18.5112 23.2109 18.418L23.7734 18.2773L24.3359 18.1484C24.9512 17.9999 25.5756 18.0013 26.1875 18.1602L26.75 18.3125L27.3125 18.4531C27.5496 18.5149 27.7807 18.5432 28.0039 18.5352L29.1289 18.4883C29.5436 18.4728 30.1277 18.4777 30.8516 18.4883L31.918 18.5L32 18.5C32.8284 18.5 33.5 19.1716 33.5 20C33.5 20.8284 32.8284 21.5 32 21.5L31.8828 21.5L30.8047 21.4883C30.097 21.4779 29.5814 21.4758 29.2461 21.4883L28.1211 21.5352C27.5962 21.5548 27.0734 21.4921 26.5625 21.3594L26 21.207L25.4375 21.0664C25.3005 21.0307 25.1728 21.0341 25.0391 21.0664L24.4766 21.1953L23.9141 21.3359C23.5514 21.4235 23.1871 21.509 22.8242 21.6055L21.6992 21.9102C20.9862 22.0997 20.2669 22.0388 19.6016 21.7578L19.0391 21.5117L18.4766 21.2773C18.353 21.2255 18.2742 21.2299 18.207 21.2422L17.6445 21.3359L17.082 21.4414C16.7736 21.498 16.4592 21.5744 16.1445 21.6758L15.582 21.8633L15.0195 22.0391Z" fill="black"/>
</svg>
