<svg width="24" height="24" viewBox="0 0 24 24" fill="none" xmlns="http://www.w3.org/2000/svg">
<path d="M11.4697 11.3603C11.1768 11.6532 11.1768 12.1281 11.4697 12.4209C11.7626 12.7138 12.2374 12.7138 12.5303 12.4209L12 11.8906L11.4697 11.3603ZM12.0707 11.8199L11.7374 11.1481L11.6273 11.2027L11.5404 11.2896L12.0707 11.8199ZM13.5093 10.8014L12.9638 10.2867L13.5093 10.8014ZM16.6299 7.23977L17.0464 7.86353L16.6299 7.23977ZM17.4376 6.58695L16.8161 6.16712L17.4376 6.58695ZM17.7172 6.17302L18.3387 6.59284L17.7172 6.17302ZM17.8739 5.98297L18.5131 6.37531L18.8227 5.87104L18.4043 5.45265L17.8739 5.98297ZM17.8202 6.0706L17.181 5.67826L18.3505 6.60092L17.8202 6.0706ZM18.4212 6.53021C18.7141 6.23732 18.7141 5.76246 18.4212 5.46957C18.1283 5.17668 17.6534 5.17668 17.3605 5.46957L17.8909 5.99989L18.4212 6.53021ZM12 11.8906L12.5303 12.4209L12.601 12.3502L12.0707 11.8199L11.5404 11.2896L11.4697 11.3603L12 11.8906ZM12.0707 11.8199L12.4041 12.4918L12.8531 12.269L12.5197 11.5971L12.1863 10.9253L11.7374 11.1481L12.0707 11.8199ZM12.5197 11.5971L12.8531 12.269C13.1732 12.1101 13.4806 11.9247 13.6944 11.6981L13.1489 11.1834L12.6034 10.6687C12.5769 10.6967 12.4649 10.7871 12.1863 10.9253L12.5197 11.5971ZM13.1489 11.1834L13.6944 11.6981L13.8746 11.5071L13.3291 10.9924L12.7836 10.4777L12.6034 10.6687L13.1489 11.1834ZM13.3291 10.9924L13.8746 11.5071L14.0549 11.316L13.5093 10.8014L12.9638 10.2867L12.7836 10.4777L13.3291 10.9924ZM13.5093 10.8014L14.0549 11.316C14.2452 11.1143 14.3895 10.8801 14.492 10.6233L13.7955 10.3451L13.0991 10.0668C13.0603 10.1638 13.0138 10.2337 12.9638 10.2867L13.5093 10.8014ZM13.7955 10.3451L14.492 10.6233L14.598 10.3581L13.9015 10.0798L13.205 9.80158L13.0991 10.0668L13.7955 10.3451ZM13.9015 10.0798L14.598 10.3581L14.704 10.0928L14.0075 9.81459L13.311 9.53633L13.205 9.80158L13.9015 10.0798ZM14.0075 9.81459L14.704 10.0928C14.7479 9.98289 14.8006 9.89609 14.8587 9.82622L14.282 9.34666L13.7054 8.8671C13.5388 9.06747 13.4084 9.29262 13.311 9.53633L14.0075 9.81459ZM14.282 9.34666L14.8587 9.82622L15.0272 9.62355L14.4506 9.14399L13.8739 8.66443L13.7054 8.8671L14.282 9.34666ZM14.4506 9.14399L15.0272 9.62355L15.1958 9.42087L14.6192 8.94131L14.0425 8.46176L13.8739 8.66443L14.4506 9.14399ZM14.6192 8.94131L15.1958 9.42087C15.26 9.34363 15.3351 9.27631 15.4237 9.21811L15.0117 8.5914L14.5997 7.96469C14.3896 8.10281 14.203 8.26877 14.0425 8.46176L14.6192 8.94131ZM15.0117 8.5914L15.4237 9.21811L15.6477 9.07087L15.2357 8.44416L14.8237 7.81745L14.5997 7.96469L15.0117 8.5914ZM15.2357 8.44416L15.6477 9.07087L15.8717 8.92363L15.4597 8.29692L15.0477 7.67021L14.8237 7.81745L15.2357 8.44416ZM15.4597 8.29692L15.8717 8.92363C16.0679 8.79461 16.2472 8.64538 16.4082 8.47606L15.8646 7.95936L15.321 7.44265C15.2407 7.52709 15.1501 7.6029 15.0477 7.67021L15.4597 8.29692ZM15.8646 7.95936L16.4082 8.47606L16.5891 8.28574L16.0455 7.76903L15.5019 7.25233L15.321 7.44265L15.8646 7.95936ZM16.0455 7.76903L16.5891 8.28574L16.77 8.09542L16.2264 7.57871L15.6828 7.06201L15.5019 7.25233L16.0455 7.76903ZM16.2264 7.57871L16.77 8.09542C16.8516 8.0096 16.9433 7.93234 17.0464 7.86353L16.6299 7.23977L16.2135 6.61602C16.0197 6.74536 15.8424 6.89407 15.6828 7.06201L16.2264 7.57871ZM16.6299 7.23977L17.0464 7.86353L17.269 7.71491L16.8525 7.09115L16.4361 6.4674L16.2135 6.61602L16.6299 7.23977ZM16.8525 7.09115L17.269 7.71491L17.4916 7.56629L17.0751 6.94253L16.6587 6.31878L16.4361 6.4674L16.8525 7.09115ZM17.0751 6.94253L17.4916 7.56629C17.7151 7.41709 17.9076 7.23103 18.0591 7.00677L17.4376 6.58695L16.8161 6.16712C16.7812 6.21883 16.732 6.26982 16.6587 6.31878L17.0751 6.94253ZM17.4376 6.58695L18.0591 7.00677L18.1989 6.79981L17.5774 6.37998L16.9559 5.96015L16.8161 6.16712L17.4376 6.58695ZM17.5774 6.37998L18.1989 6.79981L18.3387 6.59284L17.7172 6.17302L17.0957 5.75319L16.9559 5.96015L17.5774 6.37998ZM17.7172 6.17302L18.3387 6.59284C18.3839 6.52594 18.4114 6.48698 18.4251 6.46872C18.4344 6.45625 18.4263 6.46809 18.4078 6.48844C18.4038 6.49287 18.3668 6.53455 18.3083 6.57797C18.2852 6.59514 18.2032 6.6555 18.0795 6.69262C17.95 6.73152 17.6122 6.78183 17.3351 6.50483L17.8655 5.97451L18.3958 5.44418C18.1181 5.16648 17.7793 5.21665 17.6483 5.25597C17.5232 5.2935 17.4395 5.35484 17.4143 5.37355C17.3516 5.42005 17.3092 5.46705 17.2983 5.47905C17.266 5.51453 17.2387 5.55048 17.2233 5.57109C17.1875 5.619 17.1437 5.68211 17.0957 5.75319L17.7172 6.17302ZM17.8655 5.97451L17.3351 6.50483L17.3436 6.51329L17.8739 5.98297L18.4043 5.45265L18.3958 5.44418L17.8655 5.97451ZM17.8739 5.98297L17.2347 5.59063L17.181 5.67826L17.8202 6.0706L18.4593 6.46294L18.5131 6.37531L17.8739 5.98297ZM17.8202 6.0706L18.3505 6.60092L18.4212 6.53021L17.8909 5.99989L17.3605 5.46957L17.2898 5.54028L17.8202 6.0706Z" fill="#9A9A9A"/>
<path d="M15.7534 5.46967C15.4605 5.17678 14.9856 5.17678 14.6927 5.46967C14.3998 5.76256 14.3998 6.23744 14.6927 6.53033L15.2231 6L15.7534 5.46967ZM15.2938 6.07071L14.7634 6.60104L14.936 6.77365L15.1772 6.81159L15.2938 6.07071ZM17.7269 6.2318L18.2698 5.71439L17.7269 6.2318ZM18.2134 7.68555L18.9367 7.48724L18.2134 7.68555ZM18.3573 8.21055L19.0807 8.01224L18.3573 8.21055ZM18.2147 8.625L18.42 9.34634L18.5433 9.31123L18.648 9.23715L18.2147 8.625ZM17.9293 8.70624L17.7239 7.9849L16.4967 8.33428L17.399 9.23657L17.9293 8.70624ZM17.4697 9.30728C17.7626 9.60017 18.2374 9.60017 18.5303 9.30728C18.8232 9.01439 18.8232 8.53951 18.5303 8.24662L18 8.77695L17.4697 9.30728ZM15.2231 6L14.6927 6.53033L14.7634 6.60104L15.2938 6.07071L15.8241 5.54038L15.7534 5.46967L15.2231 6ZM15.2938 6.07071L15.1772 6.81159L15.6668 6.88864L15.7834 6.14776L15.9 5.40687L15.4103 5.32983L15.2938 6.07071ZM15.7834 6.14776L15.6668 6.88864C16.0389 6.94718 16.4503 6.96138 16.8122 6.81772L16.5356 6.12062L16.2589 5.42351C16.2725 5.4181 16.2557 5.42758 16.1892 5.42998C16.1242 5.43233 16.0297 5.42728 15.9 5.40687L15.7834 6.14776ZM16.5356 6.12062L16.8122 6.81772L17.0747 6.71353L16.7981 6.01643L16.5214 5.31933L16.2589 5.42351L16.5356 6.12062ZM16.7981 6.01643L17.0747 6.71353L17.3372 6.60934L17.0606 5.91224L16.7839 5.21514L16.5214 5.31933L16.7981 6.01643ZM17.0606 5.91224L17.3372 6.60934C17.3577 6.60123 17.3116 6.62459 17.2214 6.61617C17.1731 6.61167 17.1164 6.59829 17.058 6.57027C16.9994 6.54215 16.9514 6.50519 16.9147 6.46672L17.4577 5.94931L18.0006 5.4319C17.6072 5.01911 17.0933 5.09231 16.7839 5.21514L17.0606 5.91224ZM17.4577 5.94931L16.9147 6.46672L17.0493 6.60796L17.5923 6.09055L18.1352 5.57314L18.0006 5.4319L17.4577 5.94931ZM17.5923 6.09055L17.0493 6.60796L17.1839 6.74921L17.7269 6.2318L18.2698 5.71439L18.1352 5.57314L17.5923 6.09055ZM17.7269 6.2318L17.1839 6.74921C17.171 6.73562 17.1701 6.7302 17.1763 6.74238C17.1827 6.75498 17.1943 6.782 17.2068 6.82877L17.9315 6.63555L18.6561 6.44233C18.5891 6.19095 18.4738 5.92841 18.2698 5.71439L17.7269 6.2318ZM17.9315 6.63555L17.2068 6.82877L17.2768 7.09127L18.0015 6.89805L18.7261 6.70483L18.6561 6.44233L17.9315 6.63555ZM18.0015 6.89805L17.2768 7.09127L17.3468 7.35377L18.0714 7.16055L18.7961 6.96733L18.7261 6.70483L18.0015 6.89805ZM18.0714 7.16055L17.3468 7.35377C17.3939 7.53047 17.4417 7.70717 17.4901 7.88386L18.2134 7.68555L18.9367 7.48724C18.8892 7.31393 18.8423 7.14063 18.7961 6.96733L18.0714 7.16055ZM18.2134 7.68555L17.4901 7.88386L17.5621 8.14636L18.2854 7.94805L19.0087 7.74974L18.9367 7.48724L18.2134 7.68555ZM18.2854 7.94805L17.5621 8.14636L17.634 8.40886L18.3573 8.21055L19.0807 8.01224L19.0087 7.74974L18.2854 7.94805ZM18.3573 8.21055L17.634 8.40886C17.6464 8.4539 17.6307 8.42356 17.6385 8.34849C17.6481 8.25747 17.6996 8.07073 17.8887 7.93687L18.322 8.54903L18.7553 9.16118C19.016 8.97667 19.1091 8.70819 19.1304 8.50434C19.1501 8.31646 19.1163 8.1422 19.0807 8.01224L18.3573 8.21055ZM18.322 8.54903L17.8887 7.93687L17.7813 8.01285L18.2147 8.625L18.648 9.23715L18.7553 9.16118L18.322 8.54903ZM18.2147 8.625L18.0093 7.90366L17.7239 7.9849L17.9293 8.70624L18.1346 9.42758L18.42 9.34634L18.2147 8.625ZM17.9293 8.70624L17.399 9.23657L17.4697 9.30728L18 8.77695L18.5303 8.24662L18.4596 8.17591L17.9293 8.70624Z" fill="#9A9A9A"/>
<path d="M17.0686 12.5615L17.7566 12.8602L17.8058 12.7469L17.816 12.6237L17.0686 12.5615ZM16.8623 13.0366L17.5502 13.3354L16.8623 13.0366ZM16.6571 13.7743L15.9071 13.7776L16.6571 13.7743ZM16.6594 14.2993L17.4093 14.296L16.6594 14.2993ZM16.7883 14.8243L17.4626 14.4959L16.7883 14.8243ZM16.9161 15.0868L16.2418 15.4152L16.9161 15.0868ZM17.044 15.3493L16.3697 15.6777L17.044 15.3493ZM17.1069 15.8743L17.835 16.0543L17.1069 15.8743ZM16.9771 16.3993L17.7052 16.5793L16.9771 16.3993ZM16.8364 17.1868L17.5787 17.294L16.8364 17.1868ZM16.7985 17.4493L16.0562 17.3421L16.7985 17.4493ZM16.6493 17.7441L16.8581 18.4644L16.6493 17.7441ZM16.4267 17.8086L16.2179 17.0883L16.4267 17.8086ZM16.0529 17.9389L16.3152 18.6415L16.0529 17.9389ZM15.5279 18.1349L15.7902 18.8375L15.5279 18.1349ZM15.0029 18.1653L15.1898 17.439L15.0029 18.1653ZM14.4779 18.0303L14.291 18.7566L14.4779 18.0303ZM12.9029 17.9282L12.619 17.234L12.9029 17.9282ZM12.6404 18.0355L12.9242 18.7297L12.6404 18.0355ZM12.3779 18.1428L12.094 17.4486L12.3779 18.1428ZM11.8529 18.0858L11.4549 18.7215L11.8529 18.0858ZM11.3279 17.7571L11.7259 17.1214L11.3279 17.7571ZM10.2779 18.0241L10.6382 18.6819L10.2779 18.0241ZM9.75289 18.0227L9.38978 18.6789L9.75289 18.0227ZM9.49039 17.8774L9.85349 17.2212L9.49039 17.8774ZM9.22789 17.7322L9.59099 17.0759L9.22789 17.7322ZM8.70289 17.6277L8.5878 16.8866L8.70289 17.6277ZM8.44039 17.6685L8.3253 16.9273L8.44039 17.6685ZM8.17789 17.7092L8.29297 18.4503L8.17789 17.7092ZM7.65289 17.8765L7.32718 17.201L7.65289 17.8765ZM7.12789 18.1296L7.45359 18.8052L7.12789 18.1296ZM6.70804 18.1461L6.27795 18.7605L6.70804 18.1461ZM6.16025 17.0281L6.9068 16.9563L6.16025 17.0281ZM5.98918 16.5031L5.33353 16.8673L5.98918 16.5031ZM5.69756 15.9781L5.04191 16.3423L5.69756 15.9781ZM5.60471 15.4531L4.86953 15.3048L5.60471 15.4531ZM5.71064 14.9281L6.44583 15.0765L5.71064 14.9281ZM5.96174 12.0406L5.25014 12.2776L5.96174 12.0406ZM5.76023 9.67815L5.06505 9.95961L5.76023 9.67815ZM6.38049 7.10988L5.6963 6.80264L6.38049 7.10988ZM6.56529 6.69835L5.88111 6.39111L6.56529 6.69835ZM11.5385 6.84645L12.0258 7.41653L12.2885 7.192V6.84645H11.5385ZM11.4388 6.93164L10.9515 6.36156L9.18448 7.8721L11.5011 7.67905L11.4388 6.93164ZM17.0769 12.4618L16.3295 12.3995L16.3212 12.4992L17.0686 12.5615L17.816 12.6237L17.8243 12.5241L17.0769 12.4618ZM17.0686 12.5615L16.3807 12.2627L16.1743 12.7379L16.8623 13.0366L17.5502 13.3354L17.7566 12.8602L17.0686 12.5615ZM16.8623 13.0366L16.1743 12.7379C16.0279 13.0751 15.9056 13.4401 15.9071 13.7776L16.6571 13.7743L17.4071 13.771C17.4071 13.7762 17.407 13.7436 17.4304 13.6596C17.4527 13.5793 17.4907 13.4723 17.5502 13.3354L16.8623 13.0366ZM16.6571 13.7743L15.9071 13.7776L15.9082 14.0401L16.6582 14.0368L17.4082 14.0335L17.4071 13.771L16.6571 13.7743ZM16.6582 14.0368L15.9082 14.0401L15.9094 14.3026L16.6594 14.2993L17.4093 14.296L17.4082 14.0335L16.6582 14.0368ZM16.6594 14.2993L15.9094 14.3026C15.9107 14.6024 15.9851 14.8878 16.114 15.1527L16.7883 14.8243L17.4626 14.4959C17.4211 14.4108 17.4096 14.3462 17.4093 14.296L16.6594 14.2993ZM16.7883 14.8243L16.114 15.1527L16.2418 15.4152L16.9161 15.0868L17.5904 14.7584L17.4626 14.4959L16.7883 14.8243ZM16.9161 15.0868L16.2418 15.4152L16.3697 15.6777L17.044 15.3493L17.7183 15.0209L17.5904 14.7584L16.9161 15.0868ZM17.044 15.3493L16.3697 15.6777C16.3747 15.688 16.3771 15.6949 16.3781 15.6983C16.3792 15.7017 16.3791 15.7025 16.3789 15.7011C16.3788 15.6996 16.3787 15.6975 16.3788 15.6954C16.379 15.6933 16.3792 15.6928 16.3788 15.6943L17.1069 15.8743L17.835 16.0543C17.9239 15.6947 17.8738 15.3403 17.7183 15.0209L17.044 15.3493ZM17.1069 15.8743L16.3788 15.6943L16.3139 15.9568L17.042 16.1368L17.7701 16.3168L17.835 16.0543L17.1069 15.8743ZM17.042 16.1368L16.3139 15.9568L16.249 16.2193L16.9771 16.3993L17.7052 16.5793L17.7701 16.3168L17.042 16.1368ZM16.9771 16.3993L16.249 16.2193C16.1999 16.4179 16.1609 16.6172 16.132 16.8171L16.8743 16.9243L17.6166 17.0315C17.6383 16.8814 17.6678 16.7307 17.7052 16.5793L16.9771 16.3993ZM16.8743 16.9243L16.132 16.8171L16.0941 17.0796L16.8364 17.1868L17.5787 17.294L17.6166 17.0315L16.8743 16.9243ZM16.8364 17.1868L16.0941 17.0796L16.0562 17.3421L16.7985 17.4493L17.5408 17.5565L17.5787 17.294L16.8364 17.1868ZM16.7985 17.4493L16.0562 17.3421C16.0491 17.3916 16.0458 17.3695 16.0731 17.3155C16.1015 17.2595 16.2053 17.0919 16.4405 17.0237L16.6493 17.7441L16.8581 18.4644C17.1676 18.3747 17.3334 18.1472 17.4114 17.993C17.4885 17.8407 17.5227 17.682 17.5408 17.5565L16.7985 17.4493ZM16.6493 17.7441L16.4405 17.0237L16.3292 17.056L16.538 17.7763L16.7468 18.4967L16.8581 18.4644L16.6493 17.7441ZM16.538 17.7763L16.3292 17.056L16.2179 17.0883L16.4267 17.8086L16.6355 18.5289L16.7468 18.4967L16.538 17.7763ZM16.4267 17.8086L16.2179 17.0883C16.1137 17.1185 15.9655 17.1709 15.7906 17.2362L16.0529 17.9389L16.3152 18.6415C16.4902 18.5762 16.5912 18.5418 16.6355 18.5289L16.4267 17.8086ZM16.0529 17.9389L15.7906 17.2362L15.5281 17.3342L15.7904 18.0369L16.0527 18.7395L16.3152 18.6415L16.0529 17.9389ZM15.7904 18.0369L15.5281 17.3342L15.2656 17.4322L15.5279 18.1349L15.7902 18.8375L16.0527 18.7395L15.7904 18.0369ZM15.5279 18.1349L15.2656 17.4322C15.2292 17.4458 15.2109 17.4444 15.1898 17.439L15.0029 18.1653L14.816 18.8917C15.1449 18.9763 15.4766 18.9546 15.7902 18.8375L15.5279 18.1349ZM15.0029 18.1653L15.1898 17.439L14.9273 17.3715L14.7404 18.0978L14.5535 18.8242L14.816 18.8917L15.0029 18.1653ZM14.7404 18.0978L14.9273 17.3715L14.6648 17.3039L14.4779 18.0303L14.291 18.7566L14.5535 18.8242L14.7404 18.0978ZM14.4779 18.0303L14.6648 17.3039C14.462 17.2518 14.2581 17.2117 14.0533 17.184L13.9529 17.9273L13.8524 18.6705C13.9977 18.6901 14.1438 18.7188 14.291 18.7566L14.4779 18.0303ZM13.9529 17.9273L14.0533 17.184L13.7908 17.1486L13.6904 17.8918L13.5899 18.635L13.8524 18.6705L13.9529 17.9273ZM13.6904 17.8918L13.7908 17.1486L13.5283 17.1131L13.4279 17.8563L13.3274 18.5996L13.5899 18.635L13.6904 17.8918ZM13.4279 17.8563L13.5283 17.1131C13.214 17.0706 12.9067 17.1163 12.619 17.234L12.9029 17.9282L13.1867 18.6224C13.249 18.5969 13.2918 18.5948 13.3274 18.5996L13.4279 17.8563ZM12.9029 17.9282L12.619 17.234L12.3565 17.3413L12.6404 18.0355L12.9242 18.7297L13.1867 18.6224L12.9029 17.9282ZM12.6404 18.0355L12.3565 17.3413L12.094 17.4486L12.3779 18.1428L12.6617 18.8371L12.9242 18.7297L12.6404 18.0355ZM12.3779 18.1428L12.094 17.4486C12.1132 17.4408 12.1508 17.4317 12.1964 17.4366C12.2394 17.4413 12.2589 17.4551 12.2509 17.4501L11.8529 18.0858L11.4549 18.7215C11.8125 18.9454 12.2403 19.0094 12.6617 18.8371L12.3779 18.1428ZM11.8529 18.0858L12.2509 17.4501L11.9884 17.2858L11.5904 17.9214L11.1924 18.5571L11.4549 18.7215L11.8529 18.0858ZM11.5904 17.9214L11.9884 17.2858L11.7259 17.1214L11.3279 17.7571L10.9299 18.3928L11.1924 18.5571L11.5904 17.9214ZM11.3279 17.7571L11.7259 17.1214C11.5475 17.0097 11.3346 16.9297 11.0947 16.9203C10.8534 16.9109 10.6323 16.9748 10.4426 17.0787L10.8029 17.7365L11.1632 18.3943C11.1485 18.4024 11.1024 18.4218 11.036 18.4192C10.9712 18.4166 10.9333 18.3949 10.9299 18.3928L11.3279 17.7571ZM10.8029 17.7365L10.4426 17.0787L10.1801 17.2225L10.5404 17.8803L10.9007 18.5381L11.1632 18.3943L10.8029 17.7365ZM10.5404 17.8803L10.1801 17.2225L9.91756 17.3663L10.2779 18.0241L10.6382 18.6819L10.9007 18.5381L10.5404 17.8803ZM10.2779 18.0241L9.91756 17.3663C9.92537 17.3621 9.96147 17.3455 10.0175 17.3456C10.0734 17.3458 10.1089 17.3625 10.116 17.3664L9.75289 18.0227L9.38978 18.6789C9.78908 18.8998 10.2371 18.9016 10.6382 18.6819L10.2779 18.0241ZM9.75289 18.0227L10.116 17.3664L9.85349 17.2212L9.49039 17.8774L9.12728 18.5337L9.38978 18.6789L9.75289 18.0227ZM9.49039 17.8774L9.85349 17.2212L9.59099 17.0759L9.22789 17.7322L8.86478 18.3884L9.12728 18.5337L9.49039 17.8774ZM9.22789 17.7322L9.59099 17.0759C9.29022 16.9095 8.94824 16.8306 8.5878 16.8866L8.70289 17.6277L8.81797 18.3688C8.81875 18.3687 8.81851 18.3688 8.81774 18.3688C8.81699 18.3687 8.81725 18.3687 8.819 18.369C8.82204 18.3696 8.83691 18.373 8.86478 18.3884L9.22789 17.7322ZM8.70289 17.6277L8.5878 16.8866L8.3253 16.9273L8.44039 17.6685L8.55547 18.4096L8.81797 18.3688L8.70289 17.6277ZM8.44039 17.6685L8.3253 16.9273L8.0628 16.9681L8.17789 17.7092L8.29297 18.4503L8.55547 18.4096L8.44039 17.6685ZM8.17789 17.7092L8.0628 16.9681C7.80804 17.0077 7.56237 17.0876 7.32718 17.201L7.65289 17.8765L7.97859 18.5521C8.09341 18.4968 8.19774 18.4651 8.29297 18.4503L8.17789 17.7092ZM7.65289 17.8765L7.32718 17.201L7.06468 17.3275L7.39039 18.0031L7.71609 18.6787L7.97859 18.5521L7.65289 17.8765ZM7.39039 18.0031L7.06468 17.3275L6.80218 17.4541L7.12789 18.1296L7.45359 18.8052L7.71609 18.6787L7.39039 18.0031ZM7.12789 18.1296L6.80218 17.4541C6.77384 17.4677 6.79791 17.4501 6.86237 17.4476C6.9399 17.4446 7.04356 17.4654 7.13814 17.5316L6.70804 18.1461L6.27795 18.7605C6.70704 19.0608 7.17172 18.9411 7.45359 18.8052L7.12789 18.1296ZM6.70804 18.1461L7.13814 17.5316L6.9808 17.4215L6.5507 18.0359L6.12061 18.6503L6.27795 18.7605L6.70804 18.1461ZM6.5507 18.0359L6.9808 17.4215L6.82345 17.3114L6.39336 17.9258L5.96327 18.5402L6.12061 18.6503L6.5507 18.0359ZM6.39336 17.9258L6.82345 17.3114C6.88313 17.3531 6.92178 17.4052 6.94253 17.4475C6.9609 17.485 6.95934 17.5023 6.95731 17.4813L6.21076 17.5531L5.46421 17.625C5.49385 17.933 5.61847 18.2989 5.96327 18.5402L6.39336 17.9258ZM6.21076 17.5531L6.95731 17.4813L6.93206 17.2188L6.1855 17.2906L5.43895 17.3625L5.46421 17.625L6.21076 17.5531ZM6.1855 17.2906L6.93206 17.2188L6.9068 16.9563L6.16025 17.0281L5.41369 17.1L5.43895 17.3625L6.1855 17.2906ZM6.16025 17.0281L6.9068 16.9563C6.8788 16.6653 6.78519 16.3917 6.64482 16.139L5.98918 16.5031L5.33353 16.8673C5.38758 16.9646 5.40801 17.0409 5.41369 17.1L6.16025 17.0281ZM5.98918 16.5031L6.64482 16.139L6.49901 15.8765L5.84337 16.2406L5.18772 16.6048L5.33353 16.8673L5.98918 16.5031ZM5.84337 16.2406L6.49901 15.8765L6.3532 15.614L5.69756 15.9781L5.04191 16.3423L5.18772 16.6048L5.84337 16.2406ZM5.69756 15.9781L6.3532 15.614C6.34646 15.6018 6.343 15.5935 6.34135 15.589C6.33973 15.5846 6.33969 15.5834 6.33998 15.585C6.34029 15.5868 6.34064 15.5899 6.34059 15.5937C6.34055 15.5976 6.34012 15.6004 6.3399 15.6015L5.60471 15.4531L4.86953 15.3048C4.79462 15.6761 4.8693 16.0316 5.04191 16.3423L5.69756 15.9781ZM5.60471 15.4531L6.3399 15.6015L6.39286 15.339L5.65768 15.1906L4.92249 15.0423L4.86953 15.3048L5.60471 15.4531ZM5.65768 15.1906L6.39286 15.339L6.44583 15.0765L5.71064 14.9281L4.97546 14.7798L4.92249 15.0423L5.65768 15.1906ZM5.71064 14.9281L6.44583 15.0765C6.46786 14.9673 6.50639 14.8511 6.56575 14.7272L5.88938 14.4031L5.21301 14.0791C5.10468 14.3052 5.02405 14.539 4.97546 14.7798L5.71064 14.9281ZM5.88938 14.4031L6.56575 14.7272L6.69153 14.4647L6.01516 14.1406L5.33879 13.8166L5.21301 14.0791L5.88938 14.4031ZM6.01516 14.1406L6.69153 14.4647L6.8173 14.2022L6.14093 13.8781L5.46456 13.5541L5.33879 13.8166L6.01516 14.1406ZM6.14093 13.8781L6.8173 14.2022C6.9567 13.9113 7.01957 13.5924 6.97846 13.2609L6.23416 13.3531L5.48986 13.4454C5.49214 13.4639 5.49286 13.495 5.46456 13.5541L6.14093 13.8781ZM6.23416 13.3531L6.97846 13.2609L6.94592 12.9984L6.20162 13.0906L5.45732 13.1829L5.48986 13.4454L6.23416 13.3531ZM6.20162 13.0906L6.94592 12.9984L6.91338 12.7359L6.16907 12.8281L5.42477 12.9204L5.45732 13.1829L6.20162 13.0906ZM6.16907 12.8281L6.91338 12.7359C6.88531 12.5095 6.83393 12.2861 6.76073 12.0662L6.04914 12.3031L5.33754 12.5401C5.38086 12.6702 5.40945 12.7968 5.42477 12.9204L6.16907 12.8281ZM6.04914 12.3031L6.76073 12.0662L6.67334 11.8037L5.96174 12.0406L5.25014 12.2776L5.33754 12.5401L6.04914 12.3031ZM5.96174 12.0406L6.67334 11.8037L6.58595 11.5412L5.87435 11.7781L5.16275 12.0151L5.25014 12.2776L5.96174 12.0406ZM5.87435 11.7781L6.58595 11.5412C6.57407 11.5055 6.57452 11.483 6.58254 11.4542L5.85999 11.2531L5.13743 11.0521C5.04808 11.3733 5.05811 11.7007 5.16275 12.0151L5.87435 11.7781ZM5.85999 11.2531L6.58254 11.4542L6.65557 11.1917L5.93302 10.9906L5.21046 10.7896L5.13743 11.0521L5.85999 11.2531ZM5.93302 10.9906L6.65557 11.1917L6.7286 10.9292L6.00605 10.7281L5.28349 10.5271L5.21046 10.7896L5.93302 10.9906ZM6.00605 10.7281L6.7286 10.9292C6.82349 10.5881 6.79831 10.2436 6.66798 9.92168L5.9728 10.2031L5.27761 10.4846C5.28514 10.5032 5.28567 10.5119 5.28575 10.5131C5.28582 10.5141 5.28581 10.5152 5.28565 10.5168C5.28548 10.5184 5.285 10.5217 5.28349 10.5271L6.00605 10.7281ZM5.9728 10.2031L6.66798 9.92168L6.5617 9.65918L5.86652 9.94065L5.17133 10.2221L5.27761 10.4846L5.9728 10.2031ZM5.86652 9.94065L6.5617 9.65918L6.45542 9.39668L5.76023 9.67815L5.06505 9.95961L5.17133 10.2221L5.86652 9.94065ZM5.76023 9.67815L6.45542 9.39668C6.45488 9.39535 6.45618 9.39827 6.45747 9.405C6.4588 9.41188 6.4597 9.42058 6.45951 9.43029C6.4591 9.45169 6.45383 9.46228 6.45597 9.45746L5.77049 9.15315L5.085 8.84884C4.92611 9.20674 4.91667 9.59313 5.06505 9.95961L5.76023 9.67815ZM5.77049 9.15315L6.45597 9.45746L6.57251 9.19496L5.88702 8.89065L5.20153 8.58634L5.085 8.84884L5.77049 9.15315ZM5.88702 8.89065L6.57251 9.19496L6.68904 8.93246L6.00355 8.62815L5.31806 8.32384L5.20153 8.58634L5.88702 8.89065ZM6.00355 8.62815L6.68904 8.93246C6.79095 8.70289 6.86362 8.46562 6.90266 8.22164L6.16208 8.10315L5.4215 7.98465C5.40454 8.09068 5.37152 8.20341 5.31806 8.32384L6.00355 8.62815ZM6.16208 8.10315L6.90266 8.22164L6.94466 7.95914L6.20408 7.84065L5.4635 7.72215L5.4215 7.98465L6.16208 8.10315ZM6.20408 7.84065L6.94466 7.95914L6.98666 7.69664L6.24608 7.57815L5.5055 7.45965L5.4635 7.72215L6.20408 7.84065ZM6.24608 7.57815L6.98666 7.69664C7.00605 7.57551 7.03439 7.48455 7.06467 7.41712L6.38049 7.10988L5.6963 6.80264C5.60338 7.00956 5.54212 7.23079 5.5055 7.45965L6.24608 7.57815ZM6.38049 7.10988L7.06467 7.41712L7.15707 7.21135L6.47289 6.90411L5.78871 6.59688L5.6963 6.80264L6.38049 7.10988ZM6.47289 6.90411L7.15707 7.21135L7.24947 7.00558L6.56529 6.69835L5.88111 6.39111L5.78871 6.59688L6.47289 6.90411ZM6.56529 6.69835L7.24947 7.00558C7.23204 7.0444 7.19452 7.11126 7.12134 7.17653C7.04356 7.24591 6.94718 7.29379 6.84502 7.31389C6.66108 7.35009 6.5501 7.28146 6.57531 7.29451L6.92019 6.62851L7.26507 5.96251C7.11528 5.88494 6.85765 5.78264 6.55541 5.84211C6.19831 5.91238 5.98392 6.16215 5.88111 6.39111L6.56529 6.69835ZM6.92019 6.62851L6.57531 7.29451L6.83781 7.43045L7.18269 6.76445L7.52757 6.09845L7.26507 5.96251L6.92019 6.62851ZM7.18269 6.76445L6.83781 7.43045L7.10031 7.56638L7.44519 6.90038L7.79007 6.23438L7.52757 6.09845L7.18269 6.76445ZM7.44519 6.90038L7.10031 7.56638C7.44479 7.74477 7.83276 7.78669 8.21556 7.65416L7.97019 6.94543L7.72482 6.23671C7.7269 6.23599 7.73286 6.23418 7.74211 6.23297C7.75147 6.23175 7.76169 6.23149 7.77182 6.23236C7.79359 6.23422 7.80086 6.23996 7.79007 6.23438L7.44519 6.90038ZM7.97019 6.94543L8.21556 7.65416L8.47806 7.56328L8.23269 6.85455L7.98732 6.14583L7.72482 6.23671L7.97019 6.94543ZM8.23269 6.85455L8.47806 7.56328L8.74056 7.4724L8.49519 6.76367L8.24982 6.05495L7.98732 6.14583L8.23269 6.85455ZM8.49519 6.76367L8.74056 7.4724C8.87167 7.42701 8.99918 7.39641 9.12361 7.37908L9.02019 6.63625L8.91677 5.89341C8.6912 5.92482 8.46871 5.97916 8.24982 6.05495L8.49519 6.76367ZM9.02019 6.63625L9.12361 7.37908L9.38611 7.34254L9.28269 6.5997L9.17927 5.85687L8.91677 5.89341L9.02019 6.63625ZM9.28269 6.5997L9.38611 7.34254L9.64861 7.30599L9.54519 6.56315L9.44177 5.82032L9.17927 5.85687L9.28269 6.5997ZM9.54519 6.56315L9.64861 7.30599C9.64135 7.307 9.63312 7.30735 9.62474 7.30677C9.61641 7.30619 9.61034 7.30487 9.60719 7.304C9.60086 7.30224 9.61254 7.30411 9.64255 7.32494L10.0702 6.7088L10.4978 6.09267C10.2016 5.88708 9.84034 5.76483 9.44177 5.82032L9.54519 6.56315ZM10.0702 6.7088L9.64255 7.32494L9.90505 7.50713L10.3327 6.891L10.7603 6.27486L10.4978 6.09267L10.0702 6.7088ZM10.3327 6.891L9.90505 7.50713L10.1675 7.68933L10.5952 7.07319L11.0228 6.45706L10.7603 6.27486L10.3327 6.891ZM10.5952 7.07319L10.1675 7.68933C10.4413 7.87934 10.9626 8.10191 11.4635 7.74442L11.0279 7.13393L10.5922 6.52344C10.6389 6.49015 10.6974 6.46159 10.765 6.44567C10.8319 6.4299 10.8921 6.43019 10.9389 6.43675C11.0242 6.44873 11.0552 6.47951 11.0228 6.45706L10.5952 7.07319ZM11.0279 7.13393L11.4635 7.74442L11.6337 7.62296L11.1981 7.01247L10.7624 6.40198L10.5922 6.52344L11.0279 7.13393ZM11.1981 7.01247L11.6337 7.62296L11.8039 7.50151L11.3683 6.89102L10.9326 6.28053L10.7624 6.40198L11.1981 7.01247ZM11.3683 6.89102L11.8039 7.50151C11.8573 7.46345 11.8566 7.46808 11.8247 7.48363C11.8135 7.4891 11.7887 7.50069 11.7541 7.51235C11.7258 7.52192 11.653 7.54476 11.5548 7.5483C11.4633 7.55159 11.2443 7.54092 11.0443 7.36742C10.8281 7.1798 10.7885 6.93902 10.7885 6.80801H11.5385H12.2885C12.2885 6.67059 12.2471 6.42507 12.0273 6.23438C11.8237 6.0578 11.5995 6.04572 11.5009 6.04927C11.3226 6.05568 11.1879 6.12533 11.1671 6.13545C11.0785 6.17867 10.9927 6.23762 10.9326 6.28053L11.3683 6.89102ZM11.5385 6.80801H10.7885V6.84645H11.5385H12.2885V6.80801H11.5385ZM11.5385 6.84645L11.0511 6.27637L10.9515 6.36156L11.4388 6.93164L11.9262 7.50173L12.0258 7.41653L11.5385 6.84645ZM11.4388 6.93164L11.5011 7.67905L11.6007 7.67075L11.5385 6.92334L11.4762 6.17593L11.3765 6.18424L11.4388 6.93164Z" fill="#9A9A9A"/>
</svg>
