<svg width="16" height="14" viewBox="0 0 16 14" fill="none" xmlns="http://www.w3.org/2000/svg">
<path d="M15.1392 6.96716C15.1395 7.23487 15.0528 7.52121 14.8579 7.75623L14.6313 7.97498L14.272 8.22498C14.2127 8.26705 14.1016 8.35467 13.936 8.51404L13.6704 8.77966L13.397 9.03748C13.1607 9.26494 12.8988 9.46342 12.6157 9.63123L11.9595 10.0219C11.83 10.0985 11.7144 10.192 11.6157 10.3031L11.1157 10.8656C11.0121 10.9822 10.9186 11.1258 10.8345 11.2953L10.647 11.6625L10.4673 12.0297C10.2465 12.4753 9.89434 12.8205 9.42822 13.0219L9.06104 13.1781L8.70166 13.3344C8.61595 13.3712 8.55838 13.4008 8.52197 13.4203L8.4751 13.475V13.4672L8.38135 13.5765L8.33447 13.639L8.27197 13.6859L8.19385 13.7562C7.77319 14.1109 7.14439 14.0576 6.7876 13.639C6.43085 13.2174 6.48318 12.5817 6.90479 12.225L6.93604 12.1937L6.99072 12.1312L7.00635 12.1078L7.02979 12.0922L7.12354 11.9828C7.2591 11.8409 7.41753 11.7448 7.52197 11.6859C7.6403 11.6192 7.77455 11.5578 7.9126 11.4984L8.27197 11.3422L8.63916 11.1859L8.64697 11.1781C8.64713 11.1779 8.66447 11.1668 8.67822 11.139L8.85791 10.7719L9.0376 10.4125C9.19488 10.0947 9.39212 9.79789 9.62354 9.53748L10.1235 8.97498C10.3603 8.70853 10.637 8.48476 10.9438 8.3031L11.2642 8.10779L11.5923 7.91248C11.7438 7.8228 11.8829 7.7185 12.0063 7.59998L12.2798 7.33435L12.5532 7.07654C12.6929 6.94214 12.8349 6.82338 12.9673 6.71716L12.7876 6.35779C12.7831 6.34873 12.7894 6.33707 12.7876 6.33435L12.7798 6.33435L12.4126 6.19373L12.0376 6.0531C11.553 5.8629 11.1864 5.51182 10.9595 5.0531L10.7798 4.68591L10.6548 4.43591L10.3032 4.39685L9.85791 4.34998C9.56535 4.31638 9.25988 4.21223 8.99072 4.00623C8.71905 3.79805 8.54077 3.52683 8.43604 3.2406L8.13916 2.4281C8.15799 2.47957 8.17227 2.48838 8.13135 2.45154C8.08798 2.41254 8.00087 2.34833 7.84229 2.27185L7.19385 1.95935L7.07666 1.90466L6.9751 1.81873L6.90479 1.75623C6.48318 1.39948 6.43085 0.763771 6.7876 0.342163C7.12168 -0.0498003 7.68329 -0.105752 8.1001 0.178101L8.70947 0.467163C9.22846 0.717174 9.78103 1.10774 10.0142 1.7406L10.1626 2.14685L10.2563 2.38123L10.5298 2.41248L10.9751 2.46716L11.4126 2.56091C11.8243 2.70634 12.1732 2.99887 12.3892 3.43591L12.5688 3.8031L12.7485 4.16248C12.7541 4.17376 12.7622 4.18316 12.7642 4.18591L12.772 4.18591L13.1392 4.33435L13.5063 4.47498C13.9959 4.66658 14.3676 5.02652 14.5923 5.4906L14.9517 6.22498L15.0767 6.5531C15.1127 6.67799 15.1388 6.81784 15.1392 6.96716Z" fill="black"/>
<path d="M2.38281 8.43585C2.11636 8.46265 1.84499 8.42681 1.58594 8.31867L1.21094 8.09992L1.07031 7.99054L1 7.99054C0.514292 7.98919 0.128027 7.63808 0.0390625 7.17804L1.1611e-08 7.12335L-2.04899e-08 6.75617C-3.22935e-08 6.62115 0.0313253 6.36019 0.226562 6.11554C0.439775 5.84873 0.726458 5.75164 0.929687 5.73273C1.2393 5.70479 1.47611 5.83451 1.50781 5.84992C1.65459 5.92134 1.79641 6.02684 1.89062 6.09992L2.16406 6.31085L2.29687 6.41242L2.53906 6.32648L2.91406 6.20929C3.20376 6.11597 3.49522 6.03659 3.78906 5.98273L4.16406 5.91242L4.53906 5.84992C4.99397 5.76657 5.44255 5.82235 5.85937 5.99835L6.23437 6.1546L6.60937 6.31867C6.66413 6.34143 6.68667 6.33293 6.71094 6.32648L7.08594 6.23273L7.46094 6.13117C7.71827 6.06276 7.97691 5.998 8.23437 5.93585L8.60937 5.8421L8.98437 5.75616C9.39452 5.65716 9.81079 5.6581 10.2187 5.76398L10.5937 5.86554L10.9687 5.95929C11.1268 6.00046 11.2809 6.01937 11.4297 6.01398L12.1797 5.98273C12.4561 5.97239 12.8405 5.97565 13.3125 5.98273L14.0078 5.99054L14.0937 5.99054C14.646 5.99054 15.0937 6.43825 15.0938 6.99054C15.0938 7.54282 14.646 7.99054 14.0938 7.99054L13.9766 7.99054L13.2813 7.98273C12.8211 7.97583 12.4814 7.97442 12.2578 7.98273L11.5078 8.01398C11.1579 8.02706 10.8094 7.98528 10.4688 7.89679L10.0938 7.79523L9.71875 7.70148C9.62739 7.67768 9.54227 7.67996 9.45313 7.70148L9.07813 7.78741L8.70313 7.88117C8.46136 7.93953 8.21845 7.99657 7.97656 8.06085L7.22656 8.26398C6.75119 8.39034 6.27169 8.34971 5.82813 8.16242L5.45313 7.99835L5.07813 7.8421C4.99578 7.80757 4.94323 7.81045 4.89844 7.81867L4.52344 7.88117L4.14844 7.95148C3.94279 7.9892 3.73325 8.04011 3.52344 8.10773L3.14844 8.23273L2.77344 8.34992L2.38281 8.43585Z" fill="black"/>
</svg>
