<svg width="40" height="40" viewBox="0 0 40 40" fill="none" xmlns="http://www.w3.org/2000/svg">
<path d="M20.0869 6.55286C20.5151 6.62219 20.9074 6.8012 21.2471 7.06848L21.7158 7.53723L22.4658 8.49817C22.5908 8.65711 22.7186 8.75335 22.8408 8.81458L23.3564 9.07239L23.8604 9.31848C24.0602 9.41748 24.2798 9.54278 24.4697 9.68176C24.5634 9.75051 24.699 9.8461 24.8213 9.98645C24.876 10.0493 24.9568 10.1539 25.0322 10.2911L25.208 10.8185L25.2197 10.9005C25.2293 10.9184 25.2405 10.9454 25.2549 10.9708C25.2807 11.0163 25.3103 11.0717 25.3486 11.1349L25.6299 11.5919L25.8994 12.0372C26.1544 12.4573 26.3505 12.9117 26.4736 13.3849L26.6025 13.8654L26.7197 14.3575C26.7533 14.4867 26.8415 14.6948 27.0244 14.9786L27.751 16.1036C27.9958 16.4839 28.1879 16.9711 28.1611 17.5333C28.1338 18.1023 27.888 18.5796 27.5869 18.9396L26.7666 19.924C26.6078 20.1138 26.5514 20.2551 26.5322 20.3341L26.2744 21.3654C26.0644 22.2279 25.4765 22.8421 24.6924 23.1349L24.165 23.3341L23.6729 23.5099C23.6668 23.5206 23.6692 23.5394 23.6611 23.5568L23.0986 24.7755C22.9046 25.1978 22.5711 25.6379 22.0557 25.9122C21.5414 26.184 21.0032 26.2122 20.5439 26.1349L19.8877 26.0177L19.2314 25.9122C18.9727 25.8686 18.8682 25.9006 18.8682 25.9005L18.4111 26.0646L17.9424 26.2404C17.2749 26.4847 16.593 26.4556 15.9619 26.2404L15.4346 26.0646L14.9189 25.8888C14.6248 25.7882 14.3157 25.6923 13.9932 25.6193L13.4307 25.5021L12.8682 25.3732C12.0668 25.1909 11.4366 24.6947 11.0518 23.9786L10.7705 23.463L10.501 22.9474C10.3378 22.6431 10.1839 22.3913 10.0439 22.1857L9.77441 21.799L9.5166 21.4122C9.0627 20.7458 8.99919 19.9839 9.09473 19.3263L9.18848 18.6935L9.23535 18.3068L8.81348 17.9786L8.25098 17.545C7.94377 17.3108 7.41581 16.8129 7.37207 16.0099C7.32697 15.1564 7.85022 14.5962 8.18066 14.3341L8.70801 13.924L9.22363 13.5138C9.28558 13.4647 9.31157 13.4173 9.3291 13.3966L9.44629 12.963L9.56348 12.4708C9.63125 12.1848 9.69127 11.8682 9.75098 11.5216L9.85645 10.9474L9.9502 10.3849L10.1025 9.83411C10.3096 9.29728 10.6742 8.83812 11.1807 8.50989L12.1182 7.90051C12.6692 7.54339 13.296 7.35898 13.9463 7.33801L14.5205 7.31458L15.0947 7.30286C15.3636 7.29419 15.6015 7.25683 15.7979 7.19739L16.29 7.04504L16.7939 6.8927C17.2433 6.75664 17.7205 6.67499 18.2119 6.63489L18.8213 6.57629L19.4307 6.52942L20.0869 6.55286ZM16.9346 23.4044H16.9463L17.3682 23.2521L17.8369 23.088C18.4615 22.8587 19.1154 22.845 19.7236 22.9474L20.3799 23.0646L20.5557 23.088L20.6494 22.9122L20.9307 22.3029C21.2502 21.6085 21.79 21.0168 22.583 20.7208L23.1104 20.5216L23.415 20.3927L23.4854 20.1349L23.6143 19.6193C23.7623 19.0101 24.0667 18.4707 24.458 18.0021L24.8799 17.5099L24.9971 17.3575L24.8682 17.1583L24.5049 16.5958C24.2034 16.1278 23.9606 15.6278 23.8252 15.1075L23.6963 14.6271L23.5674 14.1349C23.5214 13.9592 23.4441 13.7788 23.333 13.5958L23.0635 13.1505L22.7822 12.6935C22.6809 12.5266 22.5871 12.3607 22.5127 12.213C22.4868 12.1617 22.4641 12.0605 22.4189 11.9435L22.0205 11.756L21.5166 11.4982C20.9617 11.2232 20.4898 10.8323 20.1104 10.3497L19.7354 9.86926L19.4658 9.52942L19.0674 9.57629L18.458 9.62317C18.1453 9.64855 17.8783 9.69803 17.6611 9.76379L17.1689 9.91614L16.665 10.0685C16.1939 10.2111 15.7024 10.2864 15.2002 10.3029L14.6143 10.3146L14.04 10.338C13.9196 10.3419 13.8358 10.3708 13.7588 10.42L13.2783 10.7247L12.8799 10.9708L12.8096 11.463L12.7158 12.0255C12.6469 12.4264 12.5658 12.8061 12.4814 13.1622L12.3643 13.6544L12.2471 14.1349C12.0702 14.8794 11.6089 15.4434 11.0869 15.8575L11.0283 15.8927L11.2041 16.0216C11.9533 16.5942 12.3963 17.4656 12.2471 18.4943L12.0596 19.7599C12.0562 19.7831 12.0607 19.803 12.0596 19.8185L12.2588 20.1115L12.5166 20.4982C12.7278 20.8082 12.936 21.1534 13.1377 21.5294L13.4189 22.045L13.6299 22.4669L14.0986 22.5724L14.6494 22.7013C15.0725 22.797 15.4916 22.9043 15.8916 23.0411L16.4072 23.2286L16.9346 23.4044ZM12.8096 11.0294H12.8213L12.833 11.0177V11.006L12.8096 11.0294Z" fill="black"/>
<path d="M21.5361 21.3442C22.1472 20.8442 23.0157 20.9229 23.5518 21.4848L24.3721 22.2114C24.9718 22.7615 25.5109 23.3927 25.79 24.0981L26.0244 24.6957L26.2236 25.2114L26.6807 25.3637L27.2432 25.5395C27.9228 25.7566 28.506 26.1781 28.9072 26.8051L29.2119 27.2621L29.5049 27.7192C29.7601 28.1183 29.9708 28.5487 30.1377 28.9965L30.3369 29.5239L30.5244 30.0512C30.5483 30.1153 30.5771 30.1634 30.5947 30.2036V30.2153L30.8408 30.3911L30.9814 30.5082L31.0986 30.6371L31.1572 30.7192C31.6826 31.3597 31.5868 32.3032 30.9463 32.8286C30.3724 33.2978 29.5775 33.2527 29.0361 32.7817V32.7934L28.7549 32.5825L28.7197 32.559L28.6963 32.5356L28.5205 32.395C28.2549 32.1719 28.0891 31.902 27.9932 31.727C27.8854 31.5302 27.7919 31.3089 27.7119 31.0942L27.5244 30.5668L27.3252 30.0395C27.2307 29.7866 27.1108 29.5509 26.9736 29.3364L26.3877 28.4223C26.3824 28.4191 26.3625 28.4095 26.3291 28.3989L25.7666 28.2231L25.2041 28.0356C24.3638 27.767 23.7773 27.1603 23.4697 26.3832L23.2354 25.7973L23.001 25.1996C22.9674 25.1151 22.8133 24.8564 22.3447 24.4262L21.5361 23.6879L21.4541 23.6176L21.3838 23.5356L21.3252 23.4536C20.8006 22.8124 20.895 21.8688 21.5361 21.3442Z" fill="black"/>
</svg>
