<svg width="54" height="32" viewBox="0 0 54 32" fill="none" xmlns="http://www.w3.org/2000/svg">
<rect x="1" y="1" width="51.3333" height="30" fill="white" stroke="black" stroke-width="2"/>
<path d="M17.4756 6.18179C17.0685 5.8086 16.4359 5.8361 16.0627 6.24322C15.6895 6.65034 15.717 7.28291 16.1242 7.6561L16.7999 6.91895L17.4756 6.18179ZM16.8736 6.98652L16.1979 7.72367L16.2917 7.80972L16.4042 7.8695L16.8736 6.98652ZM17.5121 7.32594L17.9815 6.44295L17.5121 7.32594ZM18.2826 8.07621L17.3306 8.3823L18.2826 8.07621ZM18.5468 8.89791L19.4988 8.59182L18.5468 8.89791ZM19.1243 9.37791L19.2777 8.38975L19.1243 9.37791ZM20.6266 9.95878L21.5401 9.55178L20.6266 9.95878ZM20.9594 10.7057L20.046 11.1127L20.9594 10.7057ZM21.4888 11.238L21.0877 12.1541L21.4888 11.238ZM21.8518 11.397L22.2529 10.481L21.8518 11.397ZM22.2148 11.5559L22.616 10.6399L22.2148 11.5559ZM22.7418 12.091L21.8252 12.4907L22.7418 12.091ZM22.9058 12.4671L21.9891 12.8667L22.9058 12.4671ZM23.0698 12.8431L23.9864 12.4435L23.0698 12.8431ZM23.508 13.475L24.1902 12.7439L23.508 13.475ZM24.0563 13.9867L23.3741 14.7179L24.0563 13.9867ZM24.6233 14.4782L23.9963 15.2572L24.6233 14.4782ZM24.916 14.7138L25.543 13.9348L24.916 14.7138ZM25.2087 14.9494L25.8358 14.1704L25.2087 14.9494ZM25.735 15.4852L26.5243 14.8713L25.735 15.4852ZM26.202 16.0857L26.9914 15.4717L26.202 16.0857ZM26.6212 16.3975L26.5586 17.3956L26.6212 16.3975ZM26.8069 16.4092L26.7443 17.4072L26.8497 17.4138L26.9541 17.3983L26.8069 16.4092ZM27.1045 16.3649L27.7803 15.6277L27.4289 15.3056L26.9574 15.3758L27.1045 16.3649ZM27.1045 16.5L27.5791 17.3803L27.6886 17.3212L27.7803 17.2372L27.1045 16.5ZM26.469 16.8427L26.9436 17.7229L26.469 16.8427ZM25.6727 17.5648L26.5934 17.955L25.6727 17.5648ZM25.5119 17.9443L24.5911 17.5542L25.5119 17.9443ZM25.3511 18.3239L24.4303 17.9337L25.3511 18.3239ZM24.8936 18.9348L24.2785 18.1463L24.8936 18.9348ZM24.3004 19.3976L24.9156 20.186L24.3004 19.3976ZM22.6308 20.9059L22.2037 20.0016L22.6308 20.9059ZM22.2757 21.0735L22.7028 21.9778L22.2757 21.0735ZM21.9207 21.2412L22.3478 22.1454L21.9207 21.2412ZM21.293 21.6663L21.9794 22.3935L21.293 21.6663ZM20.7476 22.1812L20.0611 21.454L20.7476 22.1812ZM20.2199 22.7155L19.4843 22.0381L20.2199 22.7155ZM19.965 22.9923L19.2293 22.3149L19.965 22.9923ZM19.71 23.2692L20.4456 23.9466L19.71 23.2692ZM19.1719 23.792L18.5161 23.0371L19.1719 23.792ZM18.8886 24.038L19.5444 24.793L18.8886 24.038ZM18.1476 24.8945L19.0495 25.3265L18.1476 24.8945ZM17.7985 25.6235L16.8966 25.1916L17.7985 25.6235ZM17.4179 25.9775L17.4689 24.9788L17.4179 25.9775ZM17.2119 25.967L16.9585 26.9344L17.0581 26.9605L17.1609 26.9657L17.2119 25.967ZM16.8736 25.8784L17.127 24.911L16.5997 24.7729L16.1979 25.1412L16.8736 25.8784ZM16.1242 25.2088C15.717 25.582 15.6895 26.2146 16.0627 26.6217C16.4359 27.0288 17.0685 27.0563 17.4756 26.6831L16.7999 25.946L16.1242 25.2088ZM36.8809 26.6831C37.288 27.0563 37.9206 27.0288 38.2938 26.6217C38.667 26.2146 38.6395 25.582 38.2324 25.2088L37.5566 25.946L36.8809 26.6831ZM37.4829 25.8784L38.1586 25.1412L38.0098 25.0048L37.8197 24.9368L37.4829 25.8784ZM35.9535 24.92L34.9772 25.1366L35.9535 24.92ZM35.8544 24.4732L34.8781 24.6897L35.8544 24.4732ZM35.7553 24.0264L36.7316 23.8098L35.7553 24.0264ZM35.3753 23.3309L34.7126 24.0798L35.3753 23.3309ZM35.0945 23.0824L35.7572 22.3335L35.0945 23.0824ZM34.8136 22.8338L35.4764 22.085L34.8136 22.8338ZM34.2647 22.3227L34.9642 21.6082L34.2647 22.3227ZM33.015 21.4661L33.1685 20.478L33.015 21.4661ZM32.1244 21.3278L31.9709 22.3159L32.1244 21.3278ZM31.503 20.8958L30.6034 21.3326L31.503 20.8958ZM31.1507 20.1702L30.2511 20.607L31.1507 20.1702ZM30.711 19.5399L29.9987 20.2418L30.711 19.5399ZM30.4475 19.2725L29.7352 19.9744L30.4475 19.2725ZM30.1839 19.005L30.8962 18.3032L30.1839 19.005ZM29.5503 18.5863L29.9288 17.6607L29.5503 18.5863ZM29.1803 18.435L29.5587 17.5094L29.1803 18.435ZM28.8103 18.2837L28.4318 19.2093L28.8103 18.2837ZM28.1683 17.8741L27.4796 18.5991L28.1683 17.8741ZM27.6245 17.3574L28.3133 16.6325L27.6245 17.3574ZM27.309 16.9324L26.3416 17.1855L27.309 16.9324ZM27.2654 16.7658L26.2667 16.8164L26.2719 16.9192L26.298 17.0188L27.2654 16.7658ZM27.252 16.5L28.2507 16.4494L28.23 16.0399L27.9277 15.7629L27.252 16.5ZM27.252 16.3649L26.5962 15.6099L26.5861 15.6187L26.5763 15.6277L27.252 16.3649ZM27.7806 15.9057L28.4364 16.6606L27.7806 15.9057ZM28.5823 15.1894L29.2679 15.9174L28.5823 15.1894ZM28.8554 14.9323L28.1699 14.2042L28.8554 14.9323ZM29.6835 14.1708L29.0243 13.4189L29.6835 14.1708ZM29.9656 13.9236L30.6248 14.6755L29.9656 13.9236ZM30.7882 13.1561L31.5141 13.8438L30.7882 13.1561ZM31.3053 12.6103L30.5794 11.9225L31.3053 12.6103ZM31.7954 12.0351L31.0016 11.4269L31.7954 12.0351ZM32.027 11.7327L32.8209 12.3408L32.027 11.7327ZM32.2586 11.4304L31.4648 10.8223L32.2586 11.4304ZM32.8763 10.9943L33.2037 11.9392L32.8763 10.9943ZM33.2624 10.8605L32.935 9.91566L33.2624 10.8605ZM33.6485 10.7268L33.9758 11.6717L33.6485 10.7268ZM34.2286 10.2498L33.3582 9.75751L34.2286 10.2498ZM34.6169 9.56337L35.4873 10.0557L34.6169 9.56337ZM35.1325 9.01596L35.6686 9.8601L35.1325 9.01596ZM35.454 8.81175L34.9179 7.96761L35.454 8.81175ZM36.7237 7.97699L36.1611 7.15022L36.7237 7.97699ZM37.4535 7.23479L38.404 7.54533L38.4348 7.4511L38.4465 7.35266L37.4535 7.23479ZM37.4829 6.98652L36.8072 6.24936L36.5336 6.50013L36.4899 6.86865L37.4829 6.98652ZM38.2324 7.6561C38.6395 7.28291 38.667 6.65034 38.2938 6.24322C37.9206 5.8361 37.288 5.8086 36.8809 6.18179L37.5566 6.91895L38.2324 7.6561ZM16.7999 6.91895L16.1242 7.6561L16.1979 7.72367L16.8736 6.98652L17.5493 6.24936L17.4756 6.18179L16.7999 6.91895ZM16.8736 6.98652L16.4042 7.8695L17.0427 8.20892L17.5121 7.32594L17.9815 6.44295L17.343 6.10354L16.8736 6.98652ZM17.5121 7.32594L17.0427 8.20892C17.1987 8.29186 17.2845 8.35892 17.3263 8.39969C17.366 8.43831 17.3474 8.43455 17.3306 8.3823L18.2826 8.07621L19.2346 7.77012C19.0277 7.12639 18.4911 6.71388 17.9815 6.44295L17.5121 7.32594ZM18.2826 8.07621L17.3306 8.3823L17.4627 8.79315L18.4147 8.48706L19.3667 8.18097L19.2346 7.77012L18.2826 8.07621ZM18.4147 8.48706L17.4627 8.79315L17.5948 9.204L18.5468 8.89791L19.4988 8.59182L19.3667 8.18097L18.4147 8.48706ZM18.5468 8.89791L17.5948 9.204C17.6881 9.49416 17.8548 9.77355 18.118 9.99234C18.3789 10.2092 18.6796 10.3208 18.9708 10.3661L19.1243 9.37791L19.2777 8.38975C19.272 8.38888 19.328 8.39744 19.3965 8.45434C19.4672 8.51313 19.4936 8.57556 19.4988 8.59182L18.5468 8.89791ZM19.1243 9.37791L18.9708 10.3661L19.4162 10.4352L19.5696 9.44705L19.723 8.45889L19.2777 8.38975L19.1243 9.37791ZM19.5696 9.44705L19.4162 10.4352L19.8615 10.5044L20.0149 9.5162L20.1683 8.52804L19.723 8.45889L19.5696 9.44705ZM20.0149 9.5162L19.8615 10.5044C19.8837 10.5078 19.8531 10.5069 19.8043 10.4716C19.7809 10.4547 19.7599 10.4344 19.7429 10.4129C19.7261 10.3918 19.7171 10.3745 19.7132 10.3658L20.6266 9.95878L21.5401 9.55178C21.2749 8.95675 20.7601 8.61991 20.1683 8.52804L20.0149 9.5162ZM20.6266 9.95878L19.7132 10.3658L19.8796 10.7392L20.793 10.3322L21.7065 9.92521L21.5401 9.55178L20.6266 9.95878ZM20.793 10.3322L19.8796 10.7392L20.046 11.1127L20.9594 10.7057L21.8729 10.2986L21.7065 9.92521L20.793 10.3322ZM20.9594 10.7057L20.046 11.1127C20.2548 11.5812 20.6097 11.9447 21.0877 12.1541L21.4888 11.238L21.8899 10.322C21.8827 10.3188 21.88 10.317 21.8804 10.3172C21.8808 10.3175 21.8824 10.3186 21.8841 10.3204C21.8857 10.322 21.8857 10.3224 21.8842 10.3201C21.8825 10.3176 21.8784 10.3111 21.8729 10.2986L20.9594 10.7057ZM21.4888 11.238L21.0877 12.1541L21.4507 12.313L21.8518 11.397L22.2529 10.481L21.8899 10.322L21.4888 11.238ZM21.8518 11.397L21.4507 12.313L21.8137 12.472L22.2148 11.5559L22.616 10.6399L22.2529 10.481L21.8518 11.397ZM22.2148 11.5559L21.8137 12.472C21.8203 12.4749 21.8223 12.4764 21.8212 12.4756C21.82 12.4749 21.8179 12.4732 21.8156 12.4709C21.8135 12.4687 21.8131 12.4678 21.8144 12.4698C21.8158 12.4719 21.8198 12.4782 21.8252 12.4907L22.7418 12.091L23.6585 11.6913C23.4524 11.2187 23.0975 10.8508 22.616 10.6399L22.2148 11.5559ZM22.7418 12.091L21.8252 12.4907L21.9891 12.8667L22.9058 12.4671L23.8225 12.0674L23.6585 11.6913L22.7418 12.091ZM22.9058 12.4671L21.9891 12.8667L22.1531 13.2428L23.0698 12.8431L23.9864 12.4435L23.8225 12.0674L22.9058 12.4671ZM23.0698 12.8431L22.1531 13.2428C22.3119 13.607 22.5339 13.9339 22.8258 14.2062L23.508 13.475L24.1902 12.7439C24.1164 12.6751 24.0463 12.5807 23.9864 12.4435L23.0698 12.8431ZM23.508 13.475L22.8258 14.2062L23.0999 14.462L23.7821 13.7309L24.4643 12.9997L24.1902 12.7439L23.508 13.475ZM23.7821 13.7309L23.0999 14.462L23.3741 14.7179L24.0563 13.9867L24.7385 13.2555L24.4643 12.9997L23.7821 13.7309ZM24.0563 13.9867L23.3741 14.7179C23.5748 14.9051 23.7822 15.0849 23.9963 15.2572L24.6233 14.4782L25.2503 13.6992C25.0741 13.5573 24.9035 13.4095 24.7385 13.2555L24.0563 13.9867ZM24.6233 14.4782L23.9963 15.2572L24.289 15.4928L24.916 14.7138L25.543 13.9348L25.2503 13.6992L24.6233 14.4782ZM24.916 14.7138L24.289 15.4928L24.5817 15.7284L25.2087 14.9494L25.8358 14.1704L25.543 13.9348L24.916 14.7138ZM25.2087 14.9494L24.5817 15.7284C24.7158 15.8363 24.8369 15.9594 24.9457 16.0992L25.735 15.4852L26.5243 14.8713C26.3217 14.6108 26.092 14.3766 25.8358 14.1704L25.2087 14.9494ZM25.735 15.4852L24.9457 16.0992L25.1792 16.3994L25.9685 15.7854L26.7578 15.1715L26.5243 14.8713L25.735 15.4852ZM25.9685 15.7854L25.1792 16.3994L25.4127 16.6996L26.202 16.0857L26.9914 15.4717L26.7578 15.1715L25.9685 15.7854ZM26.202 16.0857L25.4127 16.6996C25.5231 16.8416 25.6598 16.9919 25.8267 17.1161C25.9917 17.2388 26.2401 17.3756 26.5586 17.3956L26.6212 16.3975L26.6838 15.3995C26.8786 15.4117 26.9952 15.4926 27.0205 15.5114C27.0476 15.5316 27.0366 15.5299 26.9914 15.4717L26.202 16.0857ZM26.6212 16.3975L26.5586 17.3956L26.7443 17.4072L26.8069 16.4092L26.8695 15.4111L26.6838 15.3995L26.6212 16.3975ZM26.8069 16.4092L26.9541 17.3983L27.2517 17.354L27.1045 16.3649L26.9574 15.3758L26.6597 15.4201L26.8069 16.4092ZM27.1045 16.3649L26.4288 17.102L26.5025 17.1696L27.1783 16.4325L27.854 15.6953L27.7803 15.6277L27.1045 16.3649ZM27.1783 16.4325L26.5025 15.6953L26.4288 15.7629L27.1045 16.5L27.7803 17.2372L27.854 17.1696L27.1783 16.4325ZM27.1045 16.5L26.63 15.6198L25.9945 15.9624L26.469 16.8427L26.9436 17.7229L27.5791 17.3803L27.1045 16.5ZM26.469 16.8427L25.9945 15.9624C25.5057 16.226 24.9933 16.605 24.7519 17.1747L25.6727 17.5648L26.5934 17.955C26.576 17.9961 26.5674 17.9866 26.6239 17.9353C26.6804 17.8841 26.7803 17.8109 26.9436 17.7229L26.469 16.8427ZM25.6727 17.5648L24.7519 17.1747L24.5911 17.5542L25.5119 17.9443L26.4326 18.3345L26.5934 17.955L25.6727 17.5648ZM25.5119 17.9443L24.5911 17.5542L24.4303 17.9337L25.3511 18.3239L26.2718 18.714L26.4326 18.3345L25.5119 17.9443ZM25.3511 18.3239L24.4303 17.9337C24.3829 18.0455 24.3296 18.1065 24.2785 18.1463L24.8936 18.9348L25.5088 19.7232C25.8531 19.4545 26.1048 19.1083 26.2718 18.714L25.3511 18.3239ZM24.8936 18.9348L24.2785 18.1463L23.9819 18.3777L24.597 19.1662L25.2122 19.9546L25.5088 19.7232L24.8936 18.9348ZM24.597 19.1662L23.9819 18.3777L23.6853 18.6091L24.3004 19.3976L24.9156 20.186L25.2122 19.9546L24.597 19.1662ZM24.3004 19.3976L23.6853 18.6091C23.444 18.7974 23.2196 19.0045 23.0126 19.2301L23.7493 19.9063L24.486 20.5825C24.6184 20.4383 24.7614 20.3063 24.9156 20.186L24.3004 19.3976ZM23.7493 19.9063L23.0126 19.2301L22.7581 19.5074L23.4948 20.1836L24.2315 20.8598L24.486 20.5825L23.7493 19.9063ZM23.4948 20.1836L22.7581 19.5074L22.5036 19.7847L23.2403 20.4609L23.977 21.1371L24.2315 20.8598L23.4948 20.1836ZM23.2403 20.4609L22.5036 19.7847C22.4251 19.8701 22.3285 19.9427 22.2037 20.0016L22.6308 20.9059L23.0578 21.8101C23.4064 21.6455 23.7161 21.4214 23.977 21.1371L23.2403 20.4609ZM22.6308 20.9059L22.2037 20.0016L21.8487 20.1693L22.2757 21.0735L22.7028 21.9778L23.0578 21.8101L22.6308 20.9059ZM22.2757 21.0735L21.8487 20.1693L21.4937 20.337L21.9207 21.2412L22.3478 22.1454L22.7028 21.9778L22.2757 21.0735ZM21.9207 21.2412L21.4937 20.337C21.1662 20.4916 20.8685 20.6919 20.6066 20.9391L21.293 21.6663L21.9794 22.3935C22.0811 22.2975 22.2019 22.2144 22.3478 22.1454L21.9207 21.2412ZM21.293 21.6663L20.6066 20.9391L20.3338 21.1966L21.0203 21.9238L21.7067 22.651L21.9794 22.3935L21.293 21.6663ZM21.0203 21.9238L20.3338 21.1966L20.0611 21.454L20.7476 22.1812L21.434 22.9084L21.7067 22.651L21.0203 21.9238ZM20.7476 22.1812L20.0611 21.454C19.8623 21.6417 19.67 21.8364 19.4843 22.0381L20.2199 22.7155L20.9555 23.3929C21.1097 23.2254 21.2692 23.064 21.434 22.9084L20.7476 22.1812ZM20.2199 22.7155L19.4843 22.0381L19.2293 22.3149L19.965 22.9923L20.7006 23.6698L20.9555 23.3929L20.2199 22.7155ZM19.965 22.9923L19.2293 22.3149L18.9744 22.5918L19.71 23.2692L20.4456 23.9466L20.7006 23.6698L19.965 22.9923ZM19.71 23.2692L18.9744 22.5918C18.8295 22.7491 18.6768 22.8975 18.5161 23.0371L19.1719 23.792L19.8276 24.547C20.0446 24.3586 20.2506 24.1584 20.4456 23.9466L19.71 23.2692ZM19.1719 23.792L18.5161 23.0371L18.2329 23.2831L18.8886 24.038L19.5444 24.793L19.8276 24.547L19.1719 23.792ZM18.8886 24.038L18.2329 23.2831L17.9497 23.5291L18.6054 24.284L19.2612 25.039L19.5444 24.793L18.8886 24.038ZM18.6054 24.284L17.9497 23.5291C17.6498 23.7895 17.4166 24.1058 17.2457 24.4626L18.1476 24.8945L19.0495 25.3265C19.1114 25.1972 19.1834 25.1065 19.2612 25.039L18.6054 24.284ZM18.1476 24.8945L17.2457 24.4626L17.0712 24.8271L17.973 25.259L18.8749 25.691L19.0495 25.3265L18.1476 24.8945ZM17.973 25.259L17.0712 24.8271L16.8966 25.1916L17.7985 25.6235L18.7003 26.0555L18.8749 25.691L17.973 25.259ZM17.7985 25.6235L16.8966 25.1916C16.8658 25.2559 16.8701 25.2223 16.935 25.1621C17.015 25.0876 17.2013 24.9652 17.4689 24.9788L17.4179 25.9775L17.3669 26.9762C17.7718 26.9969 18.0901 26.819 18.2971 26.6265C18.4888 26.4482 18.6148 26.2342 18.7003 26.0555L17.7985 25.6235ZM17.4179 25.9775L17.4689 24.9788L17.2629 24.9683L17.2119 25.967L17.1609 26.9657L17.3669 26.9762L17.4179 25.9775ZM17.2119 25.967L17.4653 24.9996L17.127 24.911L16.8736 25.8784L16.6202 26.8458L16.9585 26.9344L17.2119 25.967ZM16.8736 25.8784L16.1979 25.1412L16.1242 25.2088L16.7999 25.946L17.4756 26.6831L17.5493 26.6156L16.8736 25.8784ZM37.5566 25.946L38.2324 25.2088L38.1586 25.1412L37.4829 25.8784L36.8072 26.6156L36.8809 26.6831L37.5566 25.946ZM37.4829 25.8784L37.8197 24.9368L37.1045 24.681L36.7678 25.6226L36.431 26.5642L37.1462 26.82L37.4829 25.8784ZM36.7678 25.6226L37.1045 24.681C37.0245 24.6524 36.9658 24.6256 36.9245 24.6032C36.883 24.5808 36.8642 24.5657 36.8599 24.562C36.8563 24.5588 36.869 24.5691 36.886 24.5959C36.9039 24.6241 36.9204 24.6611 36.9298 24.7035L35.9535 24.92L34.9772 25.1366C35.157 25.9468 35.8492 26.3562 36.431 26.5642L36.7678 25.6226ZM35.9535 24.92L36.9298 24.7035L36.8307 24.2567L35.8544 24.4732L34.8781 24.6897L34.9772 25.1366L35.9535 24.92ZM35.8544 24.4732L36.8307 24.2567L36.7316 23.8098L35.7553 24.0264L34.779 24.2429L34.8781 24.6897L35.8544 24.4732ZM35.7553 24.0264L36.7316 23.8098C36.6301 23.3521 36.4155 22.9162 36.0381 22.5821L35.3753 23.3309L34.7126 24.0798C34.7147 24.0817 34.7222 24.0884 34.7332 24.1086C34.7451 24.1303 34.7633 24.1719 34.779 24.2429L35.7553 24.0264ZM35.3753 23.3309L36.0381 22.5821L35.7572 22.3335L35.0945 23.0824L34.4317 23.8312L34.7126 24.0798L35.3753 23.3309ZM35.0945 23.0824L35.7572 22.3335L35.4764 22.085L34.8136 22.8338L34.1509 23.5826L34.4317 23.8312L35.0945 23.0824ZM34.8136 22.8338L35.4764 22.085C35.3017 21.9304 35.131 21.7714 34.9642 21.6082L34.2647 22.3227L33.5651 23.0373C33.7558 23.224 33.9511 23.4058 34.1509 23.5826L34.8136 22.8338ZM34.2647 22.3227L34.9642 21.6082L34.6961 21.3457L33.9965 22.0603L33.297 22.7748L33.5651 23.0373L34.2647 22.3227ZM33.9965 22.0603L34.6961 21.3457L34.428 21.0832L33.7284 21.7978L33.0289 22.5124L33.297 22.7748L33.9965 22.0603ZM33.7284 21.7978L34.428 21.0832C34.0723 20.735 33.6291 20.5495 33.1685 20.478L33.015 21.4661L32.8615 22.4543C32.9947 22.475 33.0271 22.5107 33.0289 22.5124L33.7284 21.7978ZM33.015 21.4661L33.1685 20.478L32.7232 20.4088L32.5697 21.397L32.4162 22.3851L32.8615 22.4543L33.015 21.4661ZM32.5697 21.397L32.7232 20.4088L32.2779 20.3396L32.1244 21.3278L31.9709 22.3159L32.4162 22.3851L32.5697 21.397ZM32.1244 21.3278L32.2779 20.3396C32.2511 20.3355 32.2746 20.3345 32.3172 20.3641C32.3377 20.3784 32.3569 20.3959 32.3731 20.4152C32.3891 20.4341 32.3982 20.4502 32.4026 20.4591L31.503 20.8958L30.6034 21.3326C30.8826 21.9076 31.3943 22.2264 31.9709 22.3159L32.1244 21.3278ZM31.503 20.8958L32.4026 20.4591L32.2264 20.0963L31.3268 20.533L30.4272 20.9698L30.6034 21.3326L31.503 20.8958ZM31.3268 20.533L32.2264 20.0963L32.0503 19.7335L31.1507 20.1702L30.2511 20.607L30.4272 20.9698L31.3268 20.533ZM31.1507 20.1702L32.0503 19.7335C31.8888 19.4009 31.6809 19.0995 31.4233 18.8381L30.711 19.5399L29.9987 20.2418C30.0925 20.337 30.1777 20.4558 30.2511 20.607L31.1507 20.1702ZM30.711 19.5399L31.4233 18.8381L31.1598 18.5706L30.4475 19.2725L29.7352 19.9744L29.9987 20.2418L30.711 19.5399ZM30.4475 19.2725L31.1598 18.5706L30.8962 18.3032L30.1839 19.005L29.4716 19.7069L29.7352 19.9744L30.4475 19.2725ZM30.1839 19.005L30.8962 18.3032C30.6195 18.0223 30.2925 17.8094 29.9288 17.6607L29.5503 18.5863L29.1719 19.5119C29.3015 19.5649 29.397 19.6311 29.4716 19.7069L30.1839 19.005ZM29.5503 18.5863L29.9288 17.6607L29.5587 17.5094L29.1803 18.435L28.8019 19.3606L29.1719 19.5119L29.5503 18.5863ZM29.1803 18.435L29.5587 17.5094L29.1887 17.3581L28.8103 18.2837L28.4318 19.2093L28.8019 19.3606L29.1803 18.435ZM28.8103 18.2837L29.1887 17.3581C29.0494 17.3011 28.9425 17.2302 28.8571 17.1491L28.1683 17.8741L27.4796 18.5991C27.7567 18.8624 28.0778 19.0646 28.4318 19.2093L28.8103 18.2837ZM28.1683 17.8741L28.8571 17.1491L28.5852 16.8908L27.8964 17.6158L27.2076 18.3407L27.4796 18.5991L28.1683 17.8741ZM27.8964 17.6158L28.5852 16.8908L28.3133 16.6325L27.6245 17.3574L26.9357 18.0824L27.2076 18.3407L27.8964 17.6158ZM27.6245 17.3574L28.3133 16.6325C28.2823 16.603 28.2588 16.5789 28.2415 16.5599C28.224 16.5407 28.2153 16.5295 28.2126 16.5259C28.2097 16.5219 28.2169 16.531 28.2283 16.5525C28.2394 16.5734 28.26 16.6165 28.2765 16.6794L27.309 16.9324L26.3416 17.1855C26.4478 17.5916 26.7445 17.9007 26.9357 18.0824L27.6245 17.3574ZM27.309 16.9324L28.2765 16.6794L28.2329 16.5127L27.2654 16.7658L26.298 17.0188L26.3416 17.1855L27.309 16.9324ZM27.2654 16.7658L28.2642 16.7152L28.2507 16.4494L27.252 16.5L26.2533 16.5506L26.2667 16.8164L27.2654 16.7658ZM27.252 16.5L27.9277 15.7629L27.854 15.6953L27.1783 16.4325L26.5025 17.1696L26.5763 17.2372L27.252 16.5ZM27.1783 16.4325L27.854 17.1696L27.9277 17.102L27.252 16.3649L26.5763 15.6277L26.5025 15.6953L27.1783 16.4325ZM27.252 16.3649L27.9078 17.1198L28.4364 16.6606L27.7806 15.9057L27.1249 15.1507L26.5962 15.6099L27.252 16.3649ZM27.7806 15.9057L28.4364 16.6606C28.7919 16.3518 29.0711 16.1027 29.2679 15.9174L28.5823 15.1894L27.8968 14.4613C27.7295 14.6188 27.4742 14.8472 27.1249 15.1507L27.7806 15.9057ZM28.5823 15.1894L29.2679 15.9174L29.5409 15.6603L28.8554 14.9323L28.1699 14.2042L27.8968 14.4613L28.5823 15.1894ZM28.8554 14.9323L29.5409 15.6603L29.8139 15.4033L29.1284 14.6752L28.4429 13.9471L28.1699 14.2042L28.8554 14.9323ZM29.1284 14.6752L29.8139 15.4033C29.9874 15.24 30.1636 15.0798 30.3428 14.9228L29.6835 14.1708L29.0243 13.4189C28.8274 13.5915 28.6336 13.7676 28.4429 13.9471L29.1284 14.6752ZM29.6835 14.1708L30.3428 14.9228L30.6248 14.6755L29.9656 13.9236L29.3063 13.1716L29.0243 13.4189L29.6835 14.1708ZM29.9656 13.9236L30.6248 14.6755L30.9068 14.4282L30.2476 13.6763L29.5884 12.9243L29.3063 13.1716L29.9656 13.9236ZM30.2476 13.6763L30.9068 14.4282C31.1181 14.243 31.3206 14.0481 31.5141 13.8438L30.7882 13.1561L30.0623 12.4683C29.9111 12.6279 29.7531 12.7799 29.5884 12.9243L30.2476 13.6763ZM30.7882 13.1561L31.5141 13.8438L31.7727 13.5709L31.0468 12.8832L30.3208 12.1954L30.0623 12.4683L30.7882 13.1561ZM31.0468 12.8832L31.7727 13.5709L32.0312 13.298L31.3053 12.6103L30.5794 11.9225L30.3208 12.1954L31.0468 12.8832ZM31.3053 12.6103L32.0312 13.298C32.2279 13.0904 32.4139 12.8721 32.5893 12.6432L31.7954 12.0351L31.0016 11.4269C30.8681 11.6011 30.7274 11.7663 30.5794 11.9225L31.3053 12.6103ZM31.7954 12.0351L32.5893 12.6432L32.8209 12.3408L32.027 11.7327L31.2332 11.1246L31.0016 11.4269L31.7954 12.0351ZM32.027 11.7327L32.8209 12.3408L33.0525 12.0385L32.2586 11.4304L31.4648 10.8223L31.2332 11.1246L32.027 11.7327ZM32.2586 11.4304L33.0525 12.0385C33.0789 12.004 33.1173 11.9692 33.2037 11.9392L32.8763 10.9943L32.5489 10.0494C32.1205 10.1979 31.7471 10.4538 31.4648 10.8223L32.2586 11.4304ZM32.8763 10.9943L33.2037 11.9392L33.5898 11.8054L33.2624 10.8605L32.935 9.91566L32.5489 10.0494L32.8763 10.9943ZM33.2624 10.8605L33.5898 11.8054L33.9758 11.6717L33.6485 10.7268L33.3211 9.78189L32.935 9.91566L33.2624 10.8605ZM33.6485 10.7268L33.9758 11.6717C34.4542 11.5059 34.8451 11.1911 35.0991 10.7421L34.2286 10.2498L33.3582 9.75751C33.3541 9.76478 33.3515 9.76797 33.351 9.76855C33.3506 9.76906 33.3509 9.76867 33.3515 9.76817C33.3521 9.7677 33.3511 9.76867 33.3472 9.77078C33.3433 9.77296 33.335 9.77704 33.3211 9.78189L33.6485 10.7268ZM34.2286 10.2498L35.0991 10.7421L35.2932 10.3989L34.4228 9.90658L33.5523 9.4143L33.3582 9.75751L34.2286 10.2498ZM34.4228 9.90658L35.2932 10.3989L35.4873 10.0557L34.6169 9.56337L33.7464 9.07109L33.5523 9.4143L34.4228 9.90658ZM34.6169 9.56337L35.4873 10.0557C35.5388 9.96459 35.5979 9.90502 35.6686 9.8601L35.1325 9.01596L34.5964 8.17182C34.2384 8.39917 33.9537 8.70454 33.7464 9.07109L34.6169 9.56337ZM35.1325 9.01596L35.6686 9.8601L35.9901 9.65589L35.454 8.81175L34.9179 7.96761L34.5964 8.17182L35.1325 9.01596ZM35.454 8.81175L35.9901 9.65589L36.3117 9.45169L35.7755 8.60755L35.2394 7.76341L34.9179 7.96761L35.454 8.81175ZM35.7755 8.60755L36.3117 9.45169C36.5349 9.30993 36.7553 9.16501 36.9729 9.01694L36.4104 8.19017L35.8478 7.3634C35.6477 7.49956 35.4449 7.63289 35.2394 7.76341L35.7755 8.60755ZM36.4104 8.19017L36.9729 9.01694L37.2862 8.80376L36.7237 7.97699L36.1611 7.15022L35.8478 7.3634L36.4104 8.19017ZM36.7237 7.97699L37.2862 8.80376L37.5995 8.59059L37.037 7.76382L36.4744 6.93705L36.1611 7.15022L36.7237 7.97699ZM37.037 7.76382L37.5995 8.59059C37.736 8.49774 37.8756 8.38999 37.9979 8.26558C38.1118 8.14972 38.2677 7.96262 38.3524 7.70326L37.4019 7.39272L36.4513 7.08218C36.4782 6.99974 36.5124 6.94272 36.5333 6.91204C36.5545 6.88088 36.5703 6.86483 36.5718 6.86333C36.5738 6.86129 36.568 6.86743 36.5505 6.88145C36.5334 6.89519 36.5086 6.91377 36.4744 6.93705L37.037 7.76382ZM37.4019 7.39272L38.3524 7.70326L38.404 7.54533L37.4535 7.23479L36.5029 6.92426L36.4513 7.08218L37.4019 7.39272ZM37.4535 7.23479L38.4465 7.35266L38.476 7.10438L37.4829 6.98652L36.4899 6.86865L36.4604 7.11693L37.4535 7.23479ZM37.4829 6.98652L38.1586 7.72367L38.2324 7.6561L37.5566 6.91895L36.8809 6.18179L36.8072 6.24936L37.4829 6.98652Z" fill="black"/>
</svg>
