<svg width="40" height="40" viewBox="0 0 40 40" fill="none" xmlns="http://www.w3.org/2000/svg">
<path d="M20.9689 7.85492C20.3365 7.3198 19.39 7.39868 18.8549 8.03109C18.3198 8.6635 18.3987 9.60996 19.0311 10.1451L20 9L20.9689 7.85492ZM20.0763 9.06459L19.1074 10.2097L19.25 10.3303L19.4177 10.4123L20.0763 9.06459ZM22.2912 10.6463L20.8826 11.1617L22.2912 10.6463ZM22.5137 11.2542L23.9223 10.7388L22.5137 11.2542ZM25.9165 13.3284L24.5717 13.9928L25.9165 13.3284ZM26.4598 14.428L25.115 15.0924L26.4598 14.428ZM27.285 15.1945L27.8316 13.7976L27.285 15.1945ZM29.75 17.5061L31.1002 16.8525L29.75 17.5061ZM30.4444 18.4271L29.4654 19.5636L30.4444 18.4271ZM31.2968 19.1614L32.2758 18.0249L31.2968 19.1614ZM31.8053 19.742L30.4057 20.2816L31.8053 19.742ZM31.8876 19.9555L30.488 20.4951L31.8876 19.9555ZM31.9699 20.169L33.3695 19.6295L31.9699 20.169ZM31.0703 20.9637L30.3062 19.6729L31.0703 20.9637ZM29.711 21.9697L30.8322 22.9661L29.711 21.9697ZM28.9561 22.8192L27.8348 21.8228L28.9561 22.8192ZM28.3067 23.7934L26.9623 23.128L28.3067 23.7934ZM26.9505 25.6738L27.5424 27.0521L26.9505 25.6738ZM26.41 25.906L25.8181 24.5277L26.41 25.906ZM25.8696 26.1381L25.2776 24.7598L25.8696 26.1381ZM23.6469 28.7362L23.0021 27.3819L23.6469 28.7362ZM23.1217 28.9863L23.7665 30.3406L23.1217 28.9863ZM21.3063 30.3242L22.4141 31.3355L21.3063 30.3242ZM20.9239 30.7431L19.8161 29.7317L20.9239 30.7431ZM20.4061 31.1215L20.836 29.6844L20.4061 31.1215ZM20.2708 31.081L19.3717 32.2817L19.5853 32.4416L19.8409 32.5181L20.2708 31.081ZM20.0763 30.9354L20.9754 29.7347L20.0193 29.0188L19.1074 29.7903L20.0763 30.9354ZM19.0311 29.8549C18.3987 30.39 18.3198 31.3365 18.8549 31.9689C19.39 32.6013 20.3365 32.6802 20.9689 32.1451L20 31L19.0311 29.8549ZM20 9L19.0311 10.1451L19.1074 10.2097L20.0763 9.06459L21.0453 7.91951L20.9689 7.85492L20 9ZM20.0763 9.06459L19.4177 10.4123L20.4139 10.8991L21.0726 9.55147L21.7312 8.2038L20.735 7.71693L20.0763 9.06459ZM21.0726 9.55147L20.4139 10.8991C20.6621 11.0204 20.8023 11.121 20.8729 11.1845C20.9409 11.2455 20.9122 11.2425 20.8826 11.1617L22.2912 10.6463L23.6999 10.1308C23.3507 9.17659 22.513 8.58587 21.7312 8.2038L21.0726 9.55147ZM22.2912 10.6463L20.8826 11.1617L21.105 11.7696L22.5137 11.2542L23.9223 10.7388L23.6999 10.1308L22.2912 10.6463ZM22.5137 11.2542L21.105 11.7696L21.3275 12.3776L22.7361 11.8621L24.1448 11.3467L23.9223 10.7388L22.5137 11.2542ZM22.7361 11.8621L21.3275 12.3776C21.4846 12.8069 21.751 13.2157 22.1585 13.528C22.5625 13.8376 23.0198 13.987 23.459 14.0374L23.6302 12.5472L23.8013 11.057C23.7928 11.056 23.8772 11.0655 23.9832 11.1467C24.0927 11.2306 24.136 11.3226 24.1448 11.3467L22.7361 11.8621ZM23.6302 12.5472L23.459 14.0374L24.1306 14.1145L24.3017 12.6243L24.4729 11.1341L23.8013 11.057L23.6302 12.5472ZM24.3017 12.6243L24.1306 14.1145L24.8022 14.1917L24.9733 12.7015L25.1445 11.2113L24.4729 11.1341L24.3017 12.6243ZM24.9733 12.7015L24.8022 14.1917C24.8357 14.1955 24.7898 14.1959 24.7146 14.146C24.6785 14.122 24.6458 14.0929 24.619 14.0617C24.5926 14.031 24.5781 14.0056 24.5717 13.9928L25.9165 13.3284L27.2614 12.664C26.8286 11.788 26.0368 11.3137 25.1445 11.2113L24.9733 12.7015ZM25.9165 13.3284L24.5717 13.9928L24.8433 14.5426L26.1882 13.8782L27.533 13.2138L27.2614 12.664L25.9165 13.3284ZM26.1882 13.8782L24.8433 14.5426L25.115 15.0924L26.4598 14.428L27.8046 13.7636L27.533 13.2138L26.1882 13.8782ZM26.4598 14.428L25.115 15.0924C25.4558 15.7823 26.0093 16.306 26.7383 16.5913L27.285 15.1945L27.8316 13.7976C27.8206 13.7933 27.8165 13.7906 27.817 13.791C27.8177 13.7914 27.8201 13.793 27.8227 13.7955C27.8253 13.7979 27.8253 13.7984 27.8228 13.7951C27.8202 13.7915 27.8137 13.7819 27.8046 13.7636L26.4598 14.428ZM27.285 15.1945L26.7383 16.5913L27.2918 16.8079L27.8385 15.4111L28.3852 14.0143L27.8316 13.7976L27.285 15.1945ZM27.8385 15.4111L27.2918 16.8079L27.8454 17.0246L28.392 15.6277L28.9387 14.2309L28.3852 14.0143L27.8385 15.4111ZM28.392 15.6277L27.8454 17.0246C27.8554 17.0285 27.8584 17.0306 27.8568 17.0296C27.855 17.0285 27.8516 17.0261 27.8482 17.0229C27.8448 17.0196 27.8442 17.0184 27.8462 17.0212C27.8484 17.0243 27.8548 17.0336 27.8636 17.0519L29.2137 16.3983L30.5639 15.7447C30.2269 15.0486 29.6731 14.5183 28.9387 14.2309L28.392 15.6277ZM29.2137 16.3983L27.8636 17.0519L28.1318 17.6058L29.4819 16.9522L30.832 16.2986L30.5639 15.7447L29.2137 16.3983ZM29.4819 16.9522L28.1318 17.6058L28.3999 18.1597L29.75 17.5061L31.1002 16.8525L30.832 16.2986L29.4819 16.9522ZM29.75 17.5061L28.3999 18.1597C28.6596 18.6961 29.0118 19.1729 29.4654 19.5636L30.4444 18.4271L31.4234 17.2907C31.3088 17.1919 31.198 17.0546 31.1002 16.8525L29.75 17.5061ZM30.4444 18.4271L29.4654 19.5636L29.8916 19.9308L30.8706 18.7943L31.8496 17.6578L31.4234 17.2907L30.4444 18.4271ZM30.8706 18.7943L29.8916 19.9308L30.3178 20.2979L31.2968 19.1614L32.2758 18.0249L31.8496 17.6578L30.8706 18.7943ZM31.2968 19.1614L30.3178 20.2979C30.3711 20.3438 30.4134 20.3825 30.4461 20.4141C30.4793 20.4461 30.499 20.4674 30.5086 20.4784C30.519 20.4903 30.5117 20.4834 30.4954 20.4589C30.4867 20.4459 30.4737 20.4253 30.4586 20.3974C30.4437 20.3696 30.4247 20.3307 30.4057 20.2816L31.8053 19.742L33.2049 19.2025C33.0852 18.8921 32.8978 18.653 32.7654 18.5019C32.6187 18.3343 32.4493 18.1744 32.2758 18.0249L31.2968 19.1614ZM31.8053 19.742L30.4057 20.2816L30.488 20.4951L31.8876 19.9555L33.2872 19.416L33.2049 19.2025L31.8053 19.742ZM31.8876 19.9555L30.488 20.4951L30.5703 20.7086L31.9699 20.169L33.3695 19.6295L33.2872 19.416L31.8876 19.9555ZM31.9699 20.169L30.5703 20.7086C30.4647 20.4348 30.459 20.1492 30.5242 19.9003C30.5835 19.6742 30.6877 19.5262 30.7437 19.4572C30.842 19.3358 30.9056 19.3181 30.7972 19.3823L31.5613 20.6731L32.3253 21.9639C32.5442 21.8344 32.8395 21.6358 33.0741 21.3464C33.323 21.0393 33.6657 20.3978 33.3695 19.6295L31.9699 20.169ZM31.5613 20.6731L30.7972 19.3823L30.3062 19.6729L31.0703 20.9637L31.8344 22.2545L32.3253 21.9639L31.5613 20.6731ZM31.0703 20.9637L30.3062 19.6729L29.8153 19.9635L30.5794 21.2543L31.3434 22.5451L31.8344 22.2545L31.0703 20.9637ZM30.5794 21.2543L29.8153 19.9635C29.355 20.236 28.9449 20.5736 28.5897 20.9733L29.711 21.9697L30.8322 22.9661C30.9803 22.7994 31.1492 22.6601 31.3434 22.5451L30.5794 21.2543ZM29.711 21.9697L28.5897 20.9733L28.2123 21.3981L29.3335 22.3944L30.4548 23.3908L30.8322 22.9661L29.711 21.9697ZM29.3335 22.3944L28.2123 21.3981L27.8348 21.8228L28.9561 22.8192L30.0773 23.8156L30.4548 23.3908L29.3335 22.3944ZM28.9561 22.8192L27.8348 21.8228C27.4877 22.2134 27.1983 22.6513 26.9623 23.128L28.3067 23.7934L29.6511 24.4587C29.7777 24.2029 29.9212 23.9913 30.0773 23.8156L28.9561 22.8192ZM28.3067 23.7934L26.9623 23.128L26.6904 23.6775L28.0348 24.3428L29.3791 25.0082L29.6511 24.4587L28.3067 23.7934ZM28.0348 24.3428L26.6904 23.6775L26.4185 24.2269L27.7628 24.8923L29.1072 25.5576L29.3791 25.0082L28.0348 24.3428ZM27.7628 24.8923L26.4185 24.2269C26.3978 24.2686 26.384 24.2812 26.3838 24.2814C26.3828 24.2824 26.3817 24.2833 26.3794 24.2849C26.3769 24.2865 26.3706 24.2904 26.3585 24.2956L26.9505 25.6738L27.5424 27.0521C28.245 26.7503 28.7751 26.2287 29.1072 25.5576L27.7628 24.8923ZM26.9505 25.6738L26.3585 24.2956L25.8181 24.5277L26.41 25.906L27.002 27.2842L27.5424 27.0521L26.9505 25.6738ZM26.41 25.906L25.8181 24.5277L25.2776 24.7598L25.8696 26.1381L26.4615 27.5163L27.002 27.2842L26.41 25.906ZM25.8696 26.1381L25.2776 24.7598C24.6008 25.0505 24.0732 25.5405 23.7238 26.1796L25.0399 26.8992L26.356 27.6188C26.3922 27.5525 26.4177 27.5351 26.4615 27.5163L25.8696 26.1381ZM25.0399 26.8992L23.7238 26.1796L23.4345 26.7086L24.7507 27.4282L26.0668 28.1478L26.356 27.6188L25.0399 26.8992ZM24.7507 27.4282L23.4345 26.7086L23.1453 27.2376L24.4614 27.9572L25.7775 28.6768L26.0668 28.1478L24.7507 27.4282ZM24.4614 27.9572L23.1453 27.2376C23.098 27.324 23.0564 27.356 23.0021 27.3819L23.6469 28.7362L24.2917 30.0906C24.9377 29.783 25.4392 29.2956 25.7775 28.6768L24.4614 27.9572ZM23.6469 28.7362L23.0021 27.3819L22.4769 27.632L23.1217 28.9863L23.7665 30.3406L24.2917 30.0906L23.6469 28.7362ZM23.1217 28.9863L22.4769 27.632L21.9516 27.882L22.5964 29.2364L23.2412 30.5907L23.7665 30.3406L23.1217 28.9863ZM22.5964 29.2364L21.9516 27.882C21.431 28.1299 20.97 28.4678 20.581 28.894L21.6888 29.9053L22.7965 30.9166C22.9174 30.7843 23.0615 30.6763 23.2412 30.5907L22.5964 29.2364ZM21.6888 29.9053L20.581 28.894L20.1986 29.3129L21.3063 30.3242L22.4141 31.3355L22.7965 30.9166L21.6888 29.9053ZM21.3063 30.3242L20.1986 29.3129L19.8161 29.7317L20.9239 30.7431L22.0317 31.7544L22.4141 31.3355L21.3063 30.3242ZM20.9239 30.7431L19.8161 29.7317C19.7131 29.8446 19.6849 29.8604 19.7182 29.836C19.7338 29.8247 19.8184 29.7629 19.9599 29.7095C20.0904 29.6603 20.4227 29.5608 20.836 29.6844L20.4061 31.1215L19.9763 32.5586C20.4348 32.6957 20.8224 32.5905 21.0186 32.5165C21.2258 32.4383 21.3864 32.3326 21.4883 32.2582C21.6942 32.1077 21.8798 31.9208 22.0317 31.7544L20.9239 30.7431ZM20.4061 31.1215L20.836 29.6844L20.7006 29.6439L20.2708 31.081L19.8409 32.5181L19.9763 32.5586L20.4061 31.1215ZM20.2708 31.081L21.1698 29.8803L20.9754 29.7347L20.0763 30.9354L19.1773 32.1361L19.3717 32.2817L20.2708 31.081ZM20.0763 30.9354L19.1074 29.7903L19.0311 29.8549L20 31L20.9689 32.1451L21.0453 32.0805L20.0763 30.9354Z" fill="black"/>
<path d="M32 21.5C32.8284 21.5 33.5 20.8284 33.5 20C33.5 19.1716 32.8284 18.5 32 18.5L32 20L32 21.5ZM31.9 20L31.878 21.4998L31.889 21.5L31.9 21.5L31.9 20ZM20.1875 20.3704L20.771 18.9885L20.1875 20.3704ZM15.125 20.4328L15.5851 21.8605L15.125 20.4328ZM8 20.0644L7.18813 18.8031L6.5 19.246L6.5 20.0644L8 20.0644ZM8.1 20L8.91187 21.2613L13.2017 18.5L8.1 18.5L8.1 20ZM8 18.5C7.17157 18.5 6.5 19.1716 6.5 20C6.5 20.8284 7.17157 21.5 8 21.5L8 20L8 18.5ZM32 20L32 18.5L31.9 18.5L31.9 20L31.9 21.5L32 21.5L32 20ZM31.9 20L31.922 18.5002L30.847 18.4844L30.825 19.9843L30.803 21.4841L31.878 21.4998L31.9 20ZM30.825 19.9843L30.847 18.4844C30.1231 18.4738 29.5462 18.4751 29.1315 18.4906L29.1875 19.9895L29.2435 21.4885C29.5788 21.476 30.0936 21.4737 30.803 21.4841L30.825 19.9843ZM29.1875 19.9895L29.1315 18.4906L28.569 18.5116L28.625 20.0106L28.681 21.5095L29.2435 21.4885L29.1875 19.9895ZM28.625 20.0106L28.569 18.5116L28.0065 18.5327L28.0625 20.0316L28.1185 21.5306L28.681 21.5095L28.625 20.0106ZM28.0625 20.0316L28.0065 18.5327C27.7824 18.541 27.5536 18.5166 27.3155 18.4546L26.9375 19.9061L26.5595 21.3577C27.0714 21.4911 27.5926 21.5502 28.1185 21.5306L28.0625 20.0316ZM26.9375 19.9061L27.3155 18.4546L26.753 18.3081L26.375 19.7597L25.997 21.2112L26.5595 21.3577L26.9375 19.9061ZM26.375 19.7597L26.753 18.3081L26.1905 18.1616L25.8125 19.6132L25.4345 21.0648L25.997 21.2112L26.375 19.7597ZM25.8125 19.6132L26.1905 18.1616C25.5776 18.002 24.9518 17.9956 24.3355 18.1443L24.6875 19.6025L25.0395 21.0606C25.1732 21.0283 25.2974 21.0291 25.4345 21.0648L25.8125 19.6132ZM24.6875 19.6025L24.3355 18.1443L23.773 18.2801L24.125 19.7382L24.477 21.1964L25.0395 21.0606L24.6875 19.6025ZM24.125 19.7382L23.773 18.2801L23.2105 18.4159L23.5625 19.874L23.9145 21.3321L24.477 21.1964L24.125 19.7382ZM23.5625 19.874L23.2105 18.4159C22.8243 18.5091 22.4382 18.6071 22.0522 18.7097L22.4375 20.1593L22.8228 21.609C23.1868 21.5122 23.5507 21.42 23.9145 21.3321L23.5625 19.874ZM22.4375 20.1593L22.0522 18.7097L21.4897 18.8592L21.875 20.3088L22.2603 21.7585L22.8228 21.609L22.4375 20.1593ZM21.875 20.3088L21.4897 18.8592L20.9272 19.0087L21.3125 20.4584L21.6978 21.908L22.2603 21.7585L21.875 20.3088ZM21.3125 20.4584L20.9272 19.0087C20.8902 19.0185 20.8556 19.0243 20.771 18.9885L20.1875 20.3704L19.604 21.7522C20.2694 22.0332 20.9848 22.0976 21.6978 21.908L21.3125 20.4584ZM20.1875 20.3704L20.771 18.9885L20.2085 18.751L19.625 20.1329L19.0415 21.5147L19.604 21.7522L20.1875 20.3704ZM19.625 20.1329L20.2085 18.751L19.646 18.5135L19.0625 19.8953L18.479 21.2772L19.0415 21.5147L19.625 20.1329ZM19.0625 19.8953L19.646 18.5135C19.0207 18.2494 18.3495 18.1604 17.6671 18.2855L17.9375 19.7609L18.2079 21.2364C18.2755 21.224 18.3543 21.2246 18.479 21.2772L19.0625 19.8953ZM17.9375 19.7609L17.6671 18.2855L17.1046 18.3886L17.375 19.864L17.6454 21.3395L18.2079 21.2364L17.9375 19.7609ZM17.375 19.864L17.1046 18.3886L16.5421 18.4917L16.8125 19.9671L17.0829 21.4426L17.6454 21.3395L17.375 19.864ZM16.8125 19.9671L16.5421 18.4917C16.1008 18.5726 15.6624 18.6836 15.2274 18.8239L15.6875 20.2515L16.1476 21.6792C16.4626 21.5777 16.7742 21.4992 17.0829 21.4426L16.8125 19.9671ZM15.6875 20.2515L15.2274 18.8239L14.6649 19.0052L15.125 20.4328L15.5851 21.8605L16.1476 21.6792L15.6875 20.2515ZM15.125 20.4328L14.6649 19.0052L14.1024 19.1864L14.5625 20.6141L15.0226 22.0418L15.5851 21.8605L15.125 20.4328ZM14.5625 20.6141L14.1024 19.1864C14.1048 19.1857 14.1148 19.1828 14.131 19.1812C14.1474 19.1795 14.1644 19.1797 14.1801 19.1816C14.1955 19.1835 14.2042 19.1863 14.2048 19.1865C14.2051 19.1866 14.195 19.1832 14.1745 19.1716L13.4375 20.4781L12.7005 21.7846C13.4024 22.1805 14.2097 22.3038 15.0226 22.0418L14.5625 20.6141ZM13.4375 20.4781L14.1745 19.1716L13.612 18.8543L12.875 20.1608L12.138 21.4672L12.7005 21.7846L13.4375 20.4781ZM12.875 20.1608L13.612 18.8543L13.0495 18.537L12.3125 19.8435L11.5755 21.1499L12.138 21.4672L12.875 20.1608ZM12.3125 19.8435L13.0495 18.537C12.4637 18.2066 11.8087 18.021 11.1094 18.0575L11.1875 19.5555L11.2656 21.0534C11.3163 21.0508 11.4113 21.0573 11.5755 21.1499L12.3125 19.8435ZM11.1875 19.5555L11.1094 18.0575L10.5469 18.0868L10.625 19.5848L10.7031 21.0827L11.2656 21.0534L11.1875 19.5555ZM10.625 19.5848L10.5469 18.0868L9.98445 18.1161L10.0625 19.6141L10.1406 21.112L10.7031 21.0827L10.625 19.5848ZM10.0625 19.6141L9.98445 18.1161C9.52979 18.1398 9.07803 18.2033 8.66321 18.3376L9.125 19.7647L9.58679 21.1919C9.67197 21.1643 9.84521 21.1274 10.1406 21.112L10.0625 19.6141ZM9.125 19.7647L8.66321 18.3376L8.28821 18.4589L8.75 19.8861L9.21179 21.3132L9.58679 21.1919L9.125 19.7647ZM8.75 19.8861L8.28821 18.4589L7.91321 18.5802L8.375 20.0074L8.83679 21.4345L9.21179 21.3132L8.75 19.8861ZM8.375 20.0074L7.91321 18.5802C7.85922 18.5977 7.81751 18.6106 7.78657 18.6198C7.75361 18.6295 7.74242 18.6321 7.7468 18.631C7.74933 18.6304 7.76358 18.6271 7.78624 18.623C7.80462 18.6196 7.85525 18.6109 7.9245 18.6063C7.95854 18.6041 8.15936 18.5882 8.40655 18.6567C8.53543 18.6924 8.79651 18.783 9.04239 19.0199C9.33098 19.2981 9.5 19.6853 9.5 20.0966L8 20.0966L6.5 20.0966C6.5 20.5105 6.66999 20.9 6.96054 21.18C7.20837 21.4189 7.47238 21.5109 7.60517 21.5477C7.86016 21.6184 8.0727 21.6031 8.12237 21.5998C8.26947 21.5901 8.39411 21.5608 8.4407 21.5497C8.56392 21.5204 8.70441 21.4774 8.83679 21.4345L8.375 20.0074ZM8 20.0966L9.5 20.0966L9.5 20.0644L8 20.0644L6.5 20.0644L6.5 20.0966L8 20.0966ZM8 20.0644L8.81187 21.3257L8.91187 21.2613L8.1 20L7.28813 18.7387L7.18813 18.8031L8 20.0644ZM8.1 20L8.1 18.5L8 18.5L8 20L8 21.5L8.1 21.5L8.1 20Z" fill="black"/>
</svg>
