<svg width="56" height="56" viewBox="0 0 56 56" fill="none" xmlns="http://www.w3.org/2000/svg">
<path d="M13.8555 14.0312C14.3798 13.4117 15.297 13.3252 15.9287 13.8251L16.7715 14.3125C17.478 14.7213 18.1897 15.2611 18.5762 16.0048L19.1367 17.0849C19.1398 17.0908 19.1425 17.0952 19.1445 17.0986C19.1469 17.0996 19.1497 17.1012 19.1533 17.1025L20.2881 17.5039C20.7593 17.6705 21.206 17.8801 21.624 18.1357L22.5967 18.7304C23.1217 19.0515 23.5524 19.4805 23.8818 19.997L24.5137 20.9882C24.6531 21.2068 24.8095 21.3895 24.9814 21.5419L25.8242 22.288C25.9953 22.4396 26.1921 22.5714 26.4219 22.6806L27.4785 23.1826C28.0027 23.4318 28.4669 23.7729 28.8564 24.2041L29.0342 24.4013C29.2166 24.3251 29.4046 24.2599 29.5967 24.2041L30.5977 23.9121L30.9531 22.7666C31.1799 22.0346 31.6344 21.3815 32.3691 20.9804L33.375 20.4306C33.5029 20.3608 33.6046 20.2702 33.6914 20.1445L34.3477 19.1933C34.7764 18.5722 35.3826 18.1613 36.0859 17.958L37.2686 17.6162C37.3343 17.5972 37.3879 17.5785 37.4316 17.5634L37.6914 17.2334L37.8828 17.0712C38.514 16.5349 39.4606 16.6112 39.9971 17.2421C40.5183 17.8556 40.4589 18.7653 39.876 19.3085L39.7451 19.4755L39.7246 19.5029L39.7021 19.5283L39.5576 19.6962C39.2967 19.9995 38.9745 20.1649 38.792 20.249C38.5758 20.3486 38.3378 20.4297 38.1016 20.498L36.9189 20.8398C36.8669 20.8548 36.8453 20.8692 36.8398 20.873C36.8358 20.8759 36.8289 20.8808 36.8174 20.8974L36.1602 21.8486C35.8091 22.3571 35.3556 22.7669 34.8125 23.0634L33.8437 23.5927C33.8378 23.6055 33.8284 23.625 33.8193 23.6542L33.4228 24.9316C33.1566 25.7908 32.5442 26.47 31.6191 26.7392L30.7266 26.998L30.9102 27.4404L32.0928 27.6738C32.8097 27.8153 33.4748 28.1739 33.9394 28.8076L34.0293 28.9384L34.6582 29.9033C34.7379 30.0255 34.8339 30.1155 34.96 30.1875L35.96 30.7578C36.6026 31.1246 37.0615 31.6765 37.3389 32.3369L37.8193 33.4804C37.869 33.5985 37.9129 33.6304 37.9424 33.6484L38.9121 34.2402L39.9014 34.8564L40.8662 35.4687C41.2086 35.6861 41.7389 36.0608 42.0127 36.6367L42.1269 36.8769L42.1553 36.9355L42.1777 36.996L42.2344 37.1503C42.6206 37.7104 42.5878 38.4808 42.1113 39.0068C41.5551 39.6207 40.6071 39.6675 39.9932 39.1113L39.9189 39.0449L39.6484 38.7988L39.5205 38.457L39.3867 38.1015L39.3779 38.083C39.3476 38.0608 39.3081 38.0329 39.2578 38.0009L38.2939 37.3886C37.9799 37.1893 37.6644 36.9935 37.3486 36.8007L36.3789 36.2089C35.762 35.8323 35.323 35.2852 35.0527 34.6416L34.5732 33.499C34.5306 33.3974 34.4963 33.3768 34.4727 33.3632L33.4727 32.7929C32.9324 32.4845 32.4852 32.0629 32.1455 31.5419L31.5478 30.625C31.5383 30.6224 31.5262 30.62 31.5117 30.6171L30.2002 30.3584C29.3546 30.1915 28.6428 29.6909 28.2607 28.8691L27.9141 29.4189C27.6331 29.8644 27.2974 30.264 26.9053 30.6103L26.0615 31.3554C25.6706 31.7005 25.2338 31.9843 24.7588 32.2099L23.6963 32.7148C23.5408 32.7887 23.4275 32.8808 23.3369 32.9941L22.626 33.8847C22.4574 34.0956 22.304 34.3341 22.168 34.6044L21.627 35.6796C21.2738 36.3815 20.6974 36.8898 19.9648 37.1601L18.8281 37.58C18.8517 37.5708 18.8099 37.5823 18.7051 37.6748C18.597 37.7701 18.453 37.9245 18.2764 38.1591L17.6191 39.0312L17.5371 39.1406L17.4365 39.2324L17.3633 39.3007C16.7538 39.8615 15.8051 39.822 15.2441 39.2128C14.6951 38.6163 14.7212 37.6947 15.2939 37.1298L15.8789 36.3544C16.3704 35.7015 16.9947 35.0582 17.7852 34.7666L18.9268 34.3457C18.9338 34.343 18.9386 34.3396 18.9424 34.3378C18.9435 34.3358 18.9458 34.3339 18.9473 34.331L19.4883 33.2558C19.7128 32.8097 19.9764 32.3931 20.2822 32.0107L20.9941 31.121C21.378 30.6409 21.8564 30.2674 22.4092 30.0048L23.4717 29.5009C23.705 29.3901 23.9047 29.2578 24.0762 29.1064L24.9189 28.3613C25.089 28.2112 25.2422 28.0329 25.377 27.8193L26.001 26.83C26.1603 26.5773 26.3409 26.3426 26.5439 26.1289C26.4444 26.0369 26.3288 25.9574 26.1904 25.8916L25.1338 25.3896C24.6595 25.1641 24.2242 24.879 23.834 24.5332L22.9922 23.7871C22.6028 23.4419 22.2676 23.044 21.9853 22.6015L21.3525 21.6103C21.2603 21.4657 21.1553 21.3653 21.0322 21.29L20.0596 20.6953C19.8295 20.5546 19.5733 20.4329 19.2881 20.332L18.1533 19.9306C17.4123 19.6686 16.8349 19.1611 16.4746 18.4677L15.9141 17.3886C15.9286 17.4165 15.9136 17.3756 15.8027 17.2773C15.694 17.1809 15.5227 17.0562 15.2686 16.9091L14.209 16.2959L14.1074 16.2099L14.0312 16.1445C13.3989 15.6093 13.3203 14.6635 13.8555 14.0312Z" fill="white"/>
</svg>
