<svg width="56" height="56" viewBox="0 0 56 56" fill="none" xmlns="http://www.w3.org/2000/svg">
<path d="M38.9805 10.7314C39.2407 10.7555 39.4859 10.8213 39.707 10.9189L40.3047 11.2939L41.2187 12.0674C41.6452 12.4255 42.012 12.8462 42.2969 13.3213L42.5898 13.8018L42.8828 14.2939C43.0384 14.553 43.209 14.7998 43.3984 15.0322L43.7617 15.4775L44.1133 15.9111C44.5882 16.4932 44.8187 17.1924 44.7812 17.9385L44.7461 18.501L44.7226 19.0752C44.6875 19.7716 44.4386 20.4021 44.043 20.9502L43.6797 21.4658L43.4219 21.7939L43.6328 22.3096L43.8906 22.9541C44.0616 23.3802 44.1502 23.8957 44.0195 24.4424C43.886 24.9969 43.5616 25.4286 43.1992 25.7314L42.6836 26.1533L42.1797 26.5869C42.0274 26.7141 42.004 26.7857 42.0039 26.7861L41.7226 27.8643C41.6858 28.009 41.6767 28.2109 41.7109 28.4854L41.793 29.1416L41.8633 29.7861C41.9488 30.4723 41.864 31.1686 41.5351 31.8135L41.2773 32.3174L41.0195 32.833C40.706 33.4476 40.2277 33.9222 39.6601 34.2744L39.1094 34.6143L38.5586 34.9658C38.4978 35.0039 38.4704 35.0294 38.4648 35.0361V35.0479L38.2773 35.5869L38.1016 36.1377C37.9446 36.612 37.7325 37.0641 37.4687 37.4854L37.1758 37.9541L36.8711 38.4346C36.6246 38.8281 36.3397 39.2035 36.0273 39.5479L35.6523 39.958L35.2773 40.3799C35.0134 40.6709 34.7402 40.9552 34.4687 41.2354L34.082 41.6338L33.6953 42.0439C33.4057 42.3428 33.0955 42.6259 32.7812 42.8994L32.3594 43.2744L31.9375 43.6377C31.4555 44.057 30.6377 44.496 29.6758 44.165L29.3125 44.0479L28.9492 43.9189C28.8434 43.8825 28.5851 43.7973 28.3633 43.6494C28.2986 43.6063 28.1661 43.5092 28.0351 43.3564C27.9872 43.3003 27.9176 43.1968 27.8476 43.0635L27.3789 42.8291C26.7586 42.5259 26.2721 42.0621 25.9258 41.4814L25.6094 40.9541L25.3047 40.4385C25.2974 40.4262 25.2838 40.4182 25.2812 40.415H25.293C25.2925 40.4148 25.2833 40.4075 25.2695 40.4033L24.6953 40.2393L24.1211 40.0635C23.6359 39.9181 23.1721 39.7222 22.7383 39.4775L22.2461 39.1963L21.7422 38.915C21.1993 38.6084 20.7498 38.1892 20.4062 37.6729L19.75 36.6885C19.5989 36.4614 19.4377 36.2652 19.2578 36.1025L18.8359 35.7275L18.4258 35.3525C18.2382 35.1832 18.016 35.0305 17.7695 34.8955L16.7383 34.333C16.1998 34.038 15.7471 33.6283 15.3906 33.126L15.0508 32.6572L14.7226 32.1885C14.3693 31.6901 14.1345 31.1331 14.0195 30.5361L13.9023 29.9385L13.8086 29.4111L13.2461 29.083L12.6601 28.7549C11.8705 28.3045 11.3303 27.5378 11.3008 26.5518L11.2891 25.9424L11.2656 25.333C11.2555 24.9951 11.2281 24.6618 11.1719 24.3369L11.0664 23.751L10.9609 23.1533C10.818 22.3278 11.0337 21.5408 11.5234 20.8916L11.8984 20.3877L12.2851 19.8838C12.4116 19.7149 12.4638 19.5748 12.4844 19.4619L12.5898 18.9111L12.6836 18.3486C12.7703 17.8732 12.9076 17.4074 13.0937 16.9541L13.3164 16.415L13.5508 15.8643C13.8021 15.2547 14.1986 14.7434 14.6992 14.3291L15.6836 13.5088L16.3047 13.1221C16.5299 13.0243 16.7769 12.9571 17.043 12.9346C17.3053 12.9129 17.5596 12.9389 17.793 12.9932L18.4492 13.2393L19.0586 13.5557L19.5508 13.8018L20.0195 13.5439L20.6172 13.1924C21.0044 12.9669 21.493 12.8003 22.0469 12.8408C22.3284 12.8618 22.5885 12.9342 22.8203 13.04L23.4414 13.4502L24.4023 14.2939C24.6576 14.5202 24.9169 14.7106 25.1641 14.8564L25.668 15.1494L26.1719 15.4541C26.7424 15.7916 27.1324 16.2795 27.3437 16.8486L27.4961 17.4463L27.5898 18.0791L27.6484 18.4893L28.1523 18.6885L28.2109 18.7119L28.293 18.1846L28.375 17.6221C28.4751 16.9089 28.7945 16.2856 29.2773 15.7822L29.6992 15.3369L30.1328 14.8916C30.2458 14.7729 30.2897 14.6794 30.3086 14.5986L30.5664 13.4971L30.7773 12.9111C31.0454 12.3674 31.4907 11.939 32.0664 11.6807L32.582 11.4463L33.1094 11.2119L33.6601 11.0361C34.2215 10.91 34.7923 10.9583 35.3359 11.165L35.8984 11.376L36.4141 11.5869L36.4375 11.5752L37.0351 11.2822L37.6328 11.001L38.2539 10.7783C38.4816 10.7291 38.7252 10.7081 38.9805 10.7314ZM38.3476 13.9893L37.75 14.2705C37.0203 14.6244 36.1966 14.7057 35.3945 14.3994L34.832 14.1885L34.2812 13.9658L33.8125 14.1885L33.4375 14.3525L33.3555 14.7275L33.2266 15.2783C33.0743 15.931 32.7543 16.5048 32.3008 16.9775L31.8672 17.4229L31.4453 17.8682C31.3621 17.9556 31.3449 18.0079 31.3398 18.0439L31.2578 18.6064L31.1875 19.1689C31.1252 19.6154 31.0326 20.0554 30.9062 20.4814L30.7422 21.0088L30.5898 21.5361C30.5586 21.6414 30.5218 21.7523 30.4844 21.8525C30.4586 21.9215 30.3942 22.1072 30.2734 22.2861C30.2344 22.344 30.0327 22.6299 29.6523 22.8135C29.4211 22.9244 29.0815 23.0106 28.6914 22.9307C28.3077 22.8509 28.0406 22.6457 27.8828 22.4736C27.6188 22.1854 27.5371 21.8751 27.5195 21.8057C27.5057 21.7512 27.4917 21.6985 27.4844 21.6533L27.0508 21.4893L26.4062 21.2314C25.53 20.8863 24.8872 20.1778 24.7305 19.1807L24.5312 17.9619L24.1445 17.7393L23.6289 17.4346C23.2034 17.183 22.7945 16.8846 22.4101 16.5439L21.9297 16.1221L21.7773 15.9814L21.5312 16.1338L20.9453 16.4736C20.1019 16.9648 19.1475 16.9822 18.2851 16.5322L17.6758 16.2158L17.3242 16.0283L17.1016 16.2275L16.6094 16.6377C16.4487 16.7707 16.3628 16.8998 16.3164 17.0127L15.8711 18.0908C15.7609 18.3589 15.6845 18.6255 15.6367 18.8877L15.5312 19.4502L15.4375 20.001C15.3235 20.6277 15.0534 21.1996 14.6758 21.7002L14.3008 22.2041L13.9141 22.6846L14.0195 23.2354L14.125 23.8213C14.2055 24.2866 14.2512 24.7633 14.2656 25.2393L14.2891 25.8486V26.2354L14.7226 26.4814L15.3086 26.8096C16.0379 27.2246 16.5699 27.8921 16.7383 28.7666L16.8555 29.3643L16.9726 29.9736C17.0123 30.176 17.083 30.3289 17.1719 30.4541L17.5 30.9229L17.8398 31.3916C17.9266 31.5132 18.0312 31.6149 18.1797 31.6963L19.2109 32.2588C19.6525 32.5007 20.0609 32.7931 20.4297 33.126L20.8516 33.501L21.2617 33.876C21.6372 34.2149 21.9743 34.598 22.2578 35.0244L22.5742 35.5166L22.9023 36.0088C22.9933 36.1456 23.0994 36.2344 23.2187 36.3018L23.7109 36.583L24.2148 36.8643C24.444 36.9935 24.6949 37.1078 24.9766 37.1924L25.5508 37.3564L26.1367 37.5322C26.8837 37.7568 27.4862 38.237 27.8828 38.9033L28.1875 39.4189L28.5039 39.9463C28.5702 40.0568 28.6303 40.1033 28.6914 40.1338L29.207 40.3916L29.7226 40.6377C29.8949 40.7219 30.1253 40.8431 30.3086 40.9775C30.324 40.9889 30.3362 41.0092 30.3555 41.0244L30.3906 41.001L30.8125 40.6377C31.0626 40.42 31.3089 40.1955 31.5391 39.958L31.9258 39.5479L32.3125 39.1494C32.5608 38.8932 32.8089 38.6309 33.0508 38.3643L33.4258 37.9424L33.8125 37.5322C34.0061 37.3188 34.1761 37.0836 34.3281 36.8408L34.6328 36.3721L34.9258 35.8916C35.0599 35.6774 35.1708 35.4398 35.2539 35.1885L35.4297 34.6494L35.6172 34.0986C35.8626 33.3605 36.3533 32.798 36.9766 32.4111L38.0781 31.7314C38.2433 31.6289 38.3147 31.537 38.3476 31.4736L38.6055 30.958L38.8633 30.4541C38.8803 30.4207 38.9089 30.342 38.8867 30.1611L38.8047 29.5049L38.7344 28.8604C38.6608 28.2707 38.6787 27.6753 38.8281 27.1025L39.1094 26.0244C39.2968 25.3066 39.7138 24.7232 40.2461 24.2783L40.7617 23.8564L40.9492 23.6924L40.8437 23.4346L40.5859 22.8018C40.2432 21.9528 40.2991 21.0137 40.8789 20.2119L41.2422 19.708L41.6172 19.1924C41.7071 19.0664 41.7197 18.9822 41.7226 18.9229L41.7578 18.3604L41.7695 17.7861L41.4297 17.3643L41.0781 16.9307C40.7949 16.5835 40.5356 16.2143 40.3047 15.8291L40.0117 15.3486L39.7187 14.8564C39.6157 14.6859 39.4816 14.5195 39.2969 14.3643L38.8398 13.9775L38.6523 13.8252L38.3476 13.9893Z" fill="white"/>
</svg>
