<svg width="73" height="72" viewBox="0 0 73 72" fill="none" xmlns="http://www.w3.org/2000/svg">
<path d="M53.7959 0.268433C54.019 0.270721 54.2539 0.299999 54.4852 0.371416C54.7158 0.443046 54.9198 0.555681 55.1059 0.68222L55.6004 1.1192L55.991 1.56732L56.3472 1.99224L56.8761 2.01543L57.4504 2.04976C57.645 2.05873 57.8213 2.03699 57.9792 1.9811L58.496 1.79648L59.0137 1.60164C59.2781 1.50795 59.5679 1.3891 59.8756 1.22218L60.9787 0.624698L61.7023 0.360282C61.9917 0.313288 62.3235 0.324674 62.6682 0.452132C63.0016 0.575585 63.2501 0.778264 63.4382 0.992096L63.8399 1.63597L64.3456 2.83094C64.4468 3.06879 64.5466 3.21139 64.6332 3.29112L65.4376 4.02592C65.8082 4.36688 66.1249 4.7552 66.3802 5.18749L66.6557 5.64674L66.9201 6.10691C67.1051 6.42062 67.2974 6.74276 67.4833 7.0718L67.7589 7.55424L68.0233 8.03761C68.1467 8.25585 68.3048 8.45434 68.4834 8.64623L68.862 9.06002L69.2535 9.4738C69.5449 9.78649 69.8164 10.1141 70.069 10.4507L70.4021 10.8877L70.724 11.3358L71.0348 11.8415C71.2719 12.3581 71.3308 12.9199 71.2528 13.4734L71.161 14.0941L71.0803 14.7027V14.7259L71.0923 14.7491L71.8271 15.7604C72.2724 16.3704 72.501 17.0992 72.4024 17.8859L72.3328 18.4491L72.253 19.0243C72.1781 19.6194 71.9786 20.1802 71.6666 20.6906L71.3558 21.1962L71.0571 21.6787L71.0692 21.7019L71.2297 22.3337L71.4022 22.9544C71.564 23.5569 71.6127 24.1964 71.4597 24.8275L71.2065 25.862C71.042 26.535 70.6635 27.0892 70.1497 27.5171L69.7127 27.8845L69.4372 28.1026L69.4715 28.3559L69.529 28.8726C69.6411 29.8936 69.0827 30.6602 68.4714 31.1373L67.9203 31.5622L67.3683 31.9992C67.1027 32.2069 67.0049 32.3435 66.9777 32.3898L66.7476 32.8147L66.5184 33.2285C66.4071 33.4304 66.283 33.6995 66.1501 34.045L65.6908 35.2167C65.5887 35.483 65.5425 35.7221 65.5294 35.9293L65.4951 36.4813L65.4608 37.0445C65.435 37.4509 65.389 37.8779 65.3346 38.3081L65.265 38.9056L65.1852 39.5151C65.0857 40.2912 64.7077 40.98 64.0468 41.4569L63.5755 41.79L63.1163 42.124C63.0473 42.1737 63.0202 42.2178 63.0012 42.2734L62.8175 42.8022L62.645 43.3301C62.4523 43.8939 62.1359 44.3962 61.7023 44.8127L61.3118 45.181L60.9323 45.5484C60.683 45.7879 60.4295 46.04 60.1743 46.2953L59.7837 46.6859L59.3931 47.0885C59.2299 47.2519 59.0824 47.4305 58.9673 47.6396L58.7029 48.1341L58.4273 48.6286C58.2226 49.0005 57.9981 49.356 57.7612 49.6974L57.1405 50.5937C56.8771 50.9731 56.578 51.3302 56.2433 51.6513L55.8416 52.0299L55.451 52.4093C55.1277 52.7196 54.769 53.0104 54.3822 53.2833L53.8766 53.6395L53.4285 53.9606L53.3821 54.4319L53.3366 55.0071C53.2809 55.5884 53.1041 56.1425 52.8078 56.6502L52.2558 57.5928C52.1458 57.781 52.0492 58.0072 51.9802 58.271L51.6815 59.4196C51.4979 60.1163 51.1034 60.7093 50.5208 61.1434L50.0606 61.4885L49.5893 61.8448C49.2706 62.0822 48.9472 62.3117 48.6356 62.5341L48.1875 62.8561L47.7282 63.178C47.5353 63.3157 47.3691 63.4777 47.2226 63.6604L46.8774 64.0974L46.5212 64.5344C46.2635 64.8563 45.9881 65.1675 45.7047 65.465L44.9468 66.2693C44.5583 66.6768 44.1021 67.0004 43.5904 67.2342L43.0615 67.4643L42.5336 67.7055C42.2766 67.8231 42.045 67.9683 41.8434 68.1193L40.9703 68.7632C40.6067 69.0355 40.2188 69.2837 39.8097 69.4868L38.8216 69.9702C38.5089 70.1255 38.2263 70.2773 37.9708 70.4183L37.5459 70.6475L37.1321 70.8776C36.6982 71.1172 36.1406 71.2326 35.5577 71.039C35.0313 70.8628 34.6717 70.4952 34.4546 70.1994L34.0983 69.7169L33.742 69.2224C33.6941 69.1571 33.6501 69.1052 33.6149 69.0619L33.5463 68.9933L33.4888 68.9589L33.2819 68.855C33.1269 68.7748 32.8797 68.6424 32.5582 68.4644L32.0637 68.1889L31.5813 67.9245C31.0577 67.6347 30.6201 67.2349 30.2824 66.7406L29.6617 65.8212C29.5819 65.7043 29.5141 65.6347 29.478 65.5911L29.2368 65.4306C28.8801 65.198 28.6703 64.8761 28.5697 64.6949C28.4529 64.4844 28.3688 64.2468 28.2941 64.0278L28.1104 63.5111L27.9379 62.9943C27.8521 62.7429 27.732 62.494 27.5928 62.2586L27.3172 61.7761L27.0296 61.2928C26.9424 61.1458 26.8233 61.025 26.6733 60.9142L26.2141 60.5691L25.7539 60.236H25.6621L25.0191 60.2935L24.3641 60.3622C23.6514 60.4297 22.9312 60.2881 22.2952 59.8677L21.3525 59.247C20.9843 59.0036 20.6324 58.735 20.2958 58.4426L19.4218 57.6846C18.8365 57.1755 18.5044 56.5035 18.4106 55.7651L18.3299 55.1444L18.2612 54.5358C18.2197 54.2092 18.1507 53.9124 18.0664 53.6618L17.8817 53.1339L17.7101 52.6051C17.6799 52.5169 17.6222 52.4223 17.5032 52.3175L17.0542 51.9269L16.6061 51.5242C16.2856 51.2422 15.9832 50.9584 15.6987 50.6744L15.296 50.2838L14.9054 49.8923C14.7199 49.707 14.5177 49.5394 14.2968 49.3987L13.8255 49.0999L13.3653 48.8012C12.8411 48.4673 12.42 48.0223 12.1128 47.4903L11.8252 46.9735L11.5265 46.4679C11.5056 46.4317 11.4858 46.4144 11.481 46.4103C11.4748 46.4056 11.4595 46.3966 11.4346 46.3871L10.3547 45.9734C9.62813 45.6973 9.06656 45.1709 8.75709 44.4453L8.527 43.9276L8.30897 43.3997C8.19856 43.1412 8.0587 42.9074 7.90632 42.6872L7.59644 42.227L7.27451 41.7678C6.96107 41.3137 6.7434 40.811 6.6195 40.2731L6.49332 39.7331L6.36621 39.2043C6.28869 38.8671 6.20614 38.5237 6.11386 38.1819L5.97562 37.6419L5.82625 37.102C5.70679 36.6587 5.6209 36.2088 5.58503 35.7567L5.5507 35.2167L5.50431 34.6768C5.49356 34.5433 5.45128 34.3932 5.35494 34.2166L5.06826 33.6998L4.82704 33.2517L4.30934 33.1599L3.71185 33.0448C3.30279 32.9658 2.81514 32.7786 2.43616 32.3555C2.04533 31.919 1.91334 31.3981 1.90733 30.9416L1.88414 29.8152C1.88224 29.6686 1.85341 29.514 1.77002 29.3439L1.50561 28.8151L1.25233 28.2751C1.0113 27.7838 0.847554 27.2636 0.781017 26.7239L0.712361 26.1839L0.643706 25.6319C0.596541 25.2493 0.560897 24.8696 0.528662 24.4945L0.436812 23.4257C0.377561 22.736 0.546227 22.0847 0.8506 21.5061L1.16048 20.9318L1.45922 20.3575C1.54072 20.2029 1.53173 20.123 1.52787 20.0931L1.45922 19.5411L1.39056 18.9779C1.28085 18.1309 1.56679 17.3384 2.19494 16.7596L3.02252 16.0016C3.1746 15.8615 3.2853 15.7027 3.36672 15.5414L3.60887 15.059L3.86123 14.5766C4.0145 14.2729 4.15618 13.9724 4.28615 13.6803L4.49304 13.209L4.69993 12.7257C4.83268 12.4272 4.96968 12.1125 5.10259 11.784L5.30948 11.2663L5.52751 10.7606C5.61846 10.5357 5.67439 10.2843 5.71121 10.0138L5.79192 9.43948L5.87264 8.85312C5.99214 7.98578 6.49248 7.31906 7.18266 6.8881L7.73468 6.54297L8.27465 6.19876C8.34431 6.15526 8.37268 6.12395 8.37763 6.11805V6.14124L8.69957 5.10677C8.89532 4.49572 9.25512 3.96762 9.74517 3.55554L10.159 3.19927L10.5848 2.843C10.9341 2.54987 11.3133 2.29466 11.7102 2.07295L12.6528 1.54412C13.2223 1.22609 13.8722 1.07947 14.5492 1.1758L15.0437 1.24538L15.5261 1.31403C15.6392 1.33013 15.8201 1.32792 16.0782 1.26857L17.2731 0.992096C17.7968 0.872303 18.3455 0.876469 18.8708 1.04962L19.3875 1.27971L19.8477 1.55525L20.3069 1.81967C20.4797 1.9192 20.6883 1.99309 20.9276 2.04976L21.4787 2.188L22.0307 2.31417C22.1095 2.33281 22.1801 2.33683 22.272 2.30211L23.3528 1.88833L23.9614 1.73895C24.3727 1.68683 24.7873 1.73537 25.1796 1.90039L25.7428 2.23346L26.1677 2.55539L26.5935 2.88847C26.841 3.08049 27.1019 3.26599 27.3747 3.44049L27.846 3.73923L28.3053 4.03798C28.732 4.31078 29.1265 4.64554 29.4316 5.06038L29.696 5.41665L29.9493 5.77291C30.144 6.03779 30.3646 6.34564 30.5922 6.69234L30.9142 7.19797L31.2482 7.69248C31.3826 7.89645 31.5127 8.02335 31.6267 8.10627L32.0405 8.41614L32.4543 8.71488C32.8079 8.97204 33.1424 9.26931 33.4424 9.58885L34.1549 10.3468C34.4798 10.6939 34.7593 11.0832 34.9945 11.5075L35.5456 12.4965C35.636 12.6595 35.7454 12.7921 35.8796 12.8982L36.3157 13.2433L36.3964 13.312L36.6608 13.1747C36.9716 12.9981 37.3362 12.8185 37.7407 12.6459L38.3039 12.4046L38.8559 12.1634C38.8758 12.1549 38.8915 12.1458 38.9014 12.1402L39.1203 11.6921L39.3384 11.2087C39.4231 11.0273 39.5164 10.7733 39.5796 10.4276L39.6946 9.77255L39.8208 9.10641L39.9822 8.53119C40.211 7.95429 40.6382 7.42236 41.3498 7.15251L41.8322 6.96881L42.3267 6.78419C42.5031 6.71665 42.6826 6.61628 42.8667 6.47431L43.3148 6.12918L43.7518 5.79611C43.9057 5.67704 44.0214 5.53072 44.1192 5.37119L44.4179 4.91101L44.7055 4.4397C44.9647 4.01674 45.2746 3.62508 45.6361 3.29112L46.0155 2.93485L46.4061 2.57859C46.8387 2.17977 47.3504 1.89826 47.923 1.75102L48.4287 1.62484L48.9232 1.49773C49.2301 1.41896 49.5281 1.33502 49.8083 1.24538L50.2796 1.09601L50.7388 0.946635C51.0966 0.832096 51.4966 0.725318 51.9338 0.624698L52.5434 0.475326L53.164 0.337088L53.7959 0.268433Z" fill="#76EECC"/>
</svg>
