<svg width="40" height="40" viewBox="0 0 40 40" fill="none" xmlns="http://www.w3.org/2000/svg">
<path d="M31.6451 25.0311C32.1802 25.6635 32.1013 26.61 31.4689 27.1451C30.8365 27.6802 29.89 27.6013 29.3549 26.9689L30.5 26L31.6451 25.0311ZM30.4354 25.9237L29.2903 26.8926L29.1697 26.75L29.0877 26.5823L30.4354 25.9237ZM28.8537 23.7088L28.3383 25.1174L28.8537 23.7088ZM28.2458 23.4863L28.7612 22.0777L28.2458 23.4863ZM26.1716 20.0835L25.5072 21.4283L26.1716 20.0835ZM25.072 19.5402L24.4076 20.885L25.072 19.5402ZM24.3055 18.715L25.7024 18.1684L24.3055 18.715ZM21.9939 16.25L22.6475 14.8998L21.9939 16.25ZM21.0729 15.5556L19.9364 16.5346L21.0729 15.5556ZM20.3386 14.7032L21.4751 13.7242L20.3386 14.7032ZM19.758 14.1947L19.2184 15.5943L19.758 14.1947ZM19.5445 14.1124L19.0049 15.512L19.5445 14.1124ZM19.331 14.0301L19.8705 12.6305L19.331 14.0301ZM18.5363 14.9297L19.8271 15.6938L18.5363 14.9297ZM17.5303 16.289L16.5339 15.1678L17.5303 16.289ZM16.6808 17.0439L17.6772 18.1652L16.6808 17.0439ZM15.7066 17.6933L16.372 19.0377L15.7066 17.6933ZM13.8262 19.0495L12.4479 18.4576L13.8262 19.0495ZM13.594 19.59L14.9723 20.1819L13.594 19.59ZM13.3619 20.1304L14.7402 20.7224L13.3619 20.1304ZM10.7638 22.3531L12.1181 22.9979L10.7638 22.3531ZM10.5137 22.8783L9.15935 22.2335L10.5137 22.8783ZM9.1758 24.6937L8.16447 23.5859L9.1758 24.6937ZM8.75692 25.0761L9.76826 26.1839L8.75692 25.0761ZM8.37853 25.5939L9.81563 25.164L8.37853 25.5939ZM8.41902 25.7292L7.2183 26.6283L7.05838 26.4147L6.98192 26.1591L8.41902 25.7292ZM8.5646 25.9237L9.76531 25.0246L10.4812 25.9808L9.70967 26.8926L8.5646 25.9237ZM9.64508 26.9689C9.10996 27.6013 8.1635 27.6802 7.53109 27.1451C6.89868 26.61 6.81981 25.6635 7.35492 25.0311L8.5 26L9.64508 26.9689ZM30.5 26L29.3549 26.9689L29.2903 26.8926L30.4354 25.9237L31.5805 24.9547L31.6451 25.0311L30.5 26ZM30.4354 25.9237L29.0877 26.5823L28.6009 25.5861L29.9485 24.9274L31.2962 24.2688L31.7831 25.265L30.4354 25.9237ZM29.9485 24.9274L28.6009 25.5861C28.4796 25.3379 28.379 25.1977 28.3155 25.1271C28.2545 25.0591 28.2575 25.0878 28.3383 25.1174L28.8537 23.7088L29.3692 22.3001C30.3234 22.6493 30.9141 23.487 31.2962 24.2688L29.9485 24.9274ZM28.8537 23.7088L28.3383 25.1174L27.7304 24.895L28.2458 23.4863L28.7612 22.0777L29.3692 22.3001L28.8537 23.7088ZM28.2458 23.4863L27.7304 24.895L27.1224 24.6725L27.6379 23.2639L28.1533 21.8552L28.7612 22.0777L28.2458 23.4863ZM27.6379 23.2639L27.1224 24.6725C26.6931 24.5154 26.2843 24.249 25.972 23.8415C25.6624 23.4375 25.513 22.9802 25.4626 22.541L26.9528 22.3698L28.443 22.1987C28.444 22.2072 28.4345 22.1228 28.3533 22.0168C28.2694 21.9073 28.1774 21.864 28.1533 21.8552L27.6379 23.2639ZM26.9528 22.3698L25.4626 22.541L25.3855 21.8694L26.8757 21.6983L28.3659 21.5271L28.443 22.1987L26.9528 22.3698ZM26.8757 21.6983L25.3855 21.8694L25.3083 21.1978L26.7985 21.0267L28.2888 20.8555L28.3659 21.5271L26.8757 21.6983ZM26.7985 21.0267L25.3083 21.1978C25.3045 21.1643 25.3041 21.2102 25.354 21.2854C25.378 21.3215 25.4071 21.3542 25.4383 21.381C25.469 21.4074 25.4944 21.4219 25.5072 21.4283L26.1716 20.0835L26.836 18.7386C27.712 19.1714 28.1863 19.9632 28.2888 20.8555L26.7985 21.0267ZM26.1716 20.0835L25.5072 21.4283L24.9574 21.1567L25.6218 19.8118L26.2862 18.467L26.836 18.7386L26.1716 20.0835ZM25.6218 19.8118L24.9574 21.1567L24.4076 20.885L25.072 19.5402L25.7364 18.1954L26.2862 18.467L25.6218 19.8118ZM25.072 19.5402L24.4076 20.885C23.7177 20.5442 23.194 19.9907 22.9087 19.2617L24.3055 18.715L25.7024 18.1684C25.7067 18.1794 25.7094 18.1835 25.709 18.183C25.7086 18.1823 25.707 18.1799 25.7045 18.1773C25.7021 18.1747 25.7016 18.1747 25.7049 18.1772C25.7085 18.1798 25.7181 18.1863 25.7364 18.1954L25.072 19.5402ZM24.3055 18.715L22.9087 19.2617L22.6921 18.7082L24.0889 18.1615L25.4857 17.6148L25.7024 18.1684L24.3055 18.715ZM24.0889 18.1615L22.6921 18.7082L22.4754 18.1546L23.8723 17.608L25.2691 17.0613L25.4857 17.6148L24.0889 18.1615ZM23.8723 17.608L22.4754 18.1546C22.4715 18.1446 22.4694 18.1416 22.4704 18.1432C22.4715 18.145 22.4739 18.1484 22.4771 18.1518C22.4804 18.1552 22.4816 18.1558 22.4788 18.1538C22.4757 18.1516 22.4664 18.1452 22.4481 18.1364L23.1017 16.7863L23.7553 15.4361C24.4514 15.7731 24.9817 16.3269 25.2691 17.0613L23.8723 17.608ZM23.1017 16.7863L22.4481 18.1364L21.8942 17.8682L22.5478 16.5181L23.2014 15.168L23.7553 15.4361L23.1017 16.7863ZM22.5478 16.5181L21.8942 17.8682L21.3403 17.6001L21.9939 16.25L22.6475 14.8998L23.2014 15.168L22.5478 16.5181ZM21.9939 16.25L21.3403 17.6001C20.8039 17.3404 20.3271 16.9882 19.9364 16.5346L21.0729 15.5556L22.2093 14.5766C22.3081 14.6912 22.4454 14.802 22.6475 14.8998L21.9939 16.25ZM21.0729 15.5556L19.9364 16.5346L19.5692 16.1084L20.7057 15.1294L21.8422 14.1504L22.2093 14.5766L21.0729 15.5556ZM20.7057 15.1294L19.5692 16.1084L19.2021 15.6822L20.3386 14.7032L21.4751 13.7242L21.8422 14.1504L20.7057 15.1294ZM20.3386 14.7032L19.2021 15.6822C19.1562 15.6289 19.1175 15.5866 19.0859 15.5539C19.0539 15.5207 19.0326 15.501 19.0216 15.4914C19.0097 15.481 19.0166 15.4883 19.0411 15.5046C19.0541 15.5133 19.0747 15.5263 19.1026 15.5414C19.1304 15.5563 19.1693 15.5754 19.2184 15.5943L19.758 14.1947L20.2975 12.7951C20.6079 12.9148 20.847 13.1022 20.9981 13.2346C21.1657 13.3813 21.3256 13.5507 21.4751 13.7242L20.3386 14.7032ZM19.758 14.1947L19.2184 15.5943L19.0049 15.512L19.5445 14.1124L20.084 12.7128L20.2975 12.7951L19.758 14.1947ZM19.5445 14.1124L19.0049 15.512L18.7914 15.4297L19.331 14.0301L19.8705 12.6305L20.084 12.7128L19.5445 14.1124ZM19.331 14.0301L18.7914 15.4297C19.0652 15.5353 19.3508 15.541 19.5997 15.4758C19.8258 15.4165 19.9738 15.3123 20.0428 15.2563C20.1642 15.158 20.1819 15.0944 20.1177 15.2028L18.8269 14.4387L17.5361 13.6747C17.6656 13.4558 17.8642 13.1605 18.1536 12.9259C18.4607 12.677 19.1022 12.3343 19.8705 12.6305L19.331 14.0301ZM18.8269 14.4387L20.1177 15.2028L19.8271 15.6938L18.5363 14.9297L17.2455 14.1656L17.5361 13.6747L18.8269 14.4387ZM18.5363 14.9297L19.8271 15.6938L19.5365 16.1847L18.2457 15.4206L16.9549 14.6566L17.2455 14.1656L18.5363 14.9297ZM18.2457 15.4206L19.5365 16.1847C19.264 16.645 18.9264 17.0551 18.5267 17.4103L17.5303 16.289L16.5339 15.1678C16.7006 15.0197 16.8399 14.8508 16.9549 14.6566L18.2457 15.4206ZM17.5303 16.289L18.5267 17.4103L18.1019 17.7877L17.1056 16.6665L16.1092 15.5452L16.5339 15.1678L17.5303 16.289ZM17.1056 16.6665L18.1019 17.7877L17.6772 18.1652L16.6808 17.0439L15.6844 15.9227L16.1092 15.5452L17.1056 16.6665ZM16.6808 17.0439L17.6772 18.1652C17.2866 18.5123 16.8487 18.8017 16.372 19.0377L15.7066 17.6933L15.0413 16.3489C15.2971 16.2223 15.5087 16.0788 15.6844 15.9227L16.6808 17.0439ZM15.7066 17.6933L16.372 19.0377L15.8225 19.3096L15.1572 17.9652L14.4918 16.6209L15.0413 16.3489L15.7066 17.6933ZM15.1572 17.9652L15.8225 19.3096L15.2731 19.5815L14.6077 18.2372L13.9424 16.8928L14.4918 16.6209L15.1572 17.9652ZM14.6077 18.2372L15.2731 19.5815C15.2314 19.6022 15.2188 19.616 15.2186 19.6162C15.2176 19.6172 15.2167 19.6183 15.2151 19.6206C15.2135 19.6231 15.2096 19.6294 15.2044 19.6415L13.8262 19.0495L12.4479 18.4576C12.7497 17.755 13.2713 17.2249 13.9424 16.8928L14.6077 18.2372ZM13.8262 19.0495L15.2044 19.6415L14.9723 20.1819L13.594 19.59L12.2158 18.998L12.4479 18.4576L13.8262 19.0495ZM13.594 19.59L14.9723 20.1819L14.7402 20.7224L13.3619 20.1304L11.9837 19.5385L12.2158 18.998L13.594 19.59ZM13.3619 20.1304L14.7402 20.7224C14.4495 21.3992 13.9595 21.9268 13.3204 22.2762L12.6008 20.9601L11.8812 19.644C11.9475 19.6078 11.9649 19.5823 11.9837 19.5385L13.3619 20.1304ZM12.6008 20.9601L13.3204 22.2762L12.7914 22.5655L12.0718 21.2493L11.3522 19.9332L11.8812 19.644L12.6008 20.9601ZM12.0718 21.2493L12.7914 22.5655L12.2624 22.8547L11.5428 21.5386L10.8232 20.2225L11.3522 19.9332L12.0718 21.2493ZM11.5428 21.5386L12.2624 22.8547C12.176 22.902 12.144 22.9436 12.1181 22.9979L10.7638 22.3531L9.40942 21.7083C9.71698 21.0623 10.2044 20.5608 10.8232 20.2225L11.5428 21.5386ZM10.7638 22.3531L12.1181 22.9979L11.868 23.5231L10.5137 22.8783L9.15935 22.2335L9.40942 21.7083L10.7638 22.3531ZM10.5137 22.8783L11.868 23.5231L11.618 24.0484L10.2636 23.4036L8.90929 22.7588L9.15935 22.2335L10.5137 22.8783ZM10.2636 23.4036L11.618 24.0484C11.3701 24.569 11.0322 25.03 10.606 25.419L9.59469 24.3113L8.58335 23.2035C8.71571 23.0826 8.82373 22.9385 8.90929 22.7588L10.2636 23.4036ZM9.59469 24.3113L10.606 25.419L10.1871 25.8015L9.1758 24.6937L8.16447 23.5859L8.58335 23.2035L9.59469 24.3113ZM9.1758 24.6937L10.1871 25.8015L9.76826 26.1839L8.75692 25.0761L7.74559 23.9683L8.16447 23.5859L9.1758 24.6937ZM8.75692 25.0761L9.76826 26.1839C9.65544 26.2869 9.63962 26.3151 9.66396 26.2818C9.67535 26.2662 9.73712 26.1816 9.79049 26.0401C9.8397 25.9096 9.93924 25.5773 9.81563 25.164L8.37853 25.5939L6.94143 26.0237C6.80432 25.5652 6.90951 25.1776 6.9835 24.9814C7.06165 24.7742 7.16735 24.6136 7.2418 24.5117C7.39227 24.3058 7.57915 24.1202 7.74559 23.9683L8.75692 25.0761ZM8.37853 25.5939L9.81563 25.164L9.85612 25.2994L8.41902 25.7292L6.98192 26.1591L6.94143 26.0237L8.37853 25.5939ZM8.41902 25.7292L9.61974 24.8302L9.76531 25.0246L8.5646 25.9237L7.36388 26.8227L7.2183 26.6283L8.41902 25.7292ZM8.5646 25.9237L9.70967 26.8926L9.64508 26.9689L8.5 26L7.35492 25.0311L7.41951 24.9548L8.5646 25.9237Z" fill="black"/>
</svg>
