<svg xmlns="http://www.w3.org/2000/svg" fill="none" viewBox="0 0 12 12"><path stroke="#090909" stroke-linecap="round" d="M10 6.002c-.387 0-1.837-.236-2.222-.2-.622.059-.928.276-1.556.281-1.04.01-1.29.024-2.323-.03-.239-.012-.34-.026-.566-.026.228.234.164.522.396.754.866.868 3.548 3.395 2.659 2.548-.665-.633-1.392-1.228-2.083-1.835a13.092 13.092 0 00-1.907-1.41c-.157-.094-.55-.157-.335-.282.605-.35 1.197-.689 1.762-1.097.665-.48 1.351-.94 2.026-1.405.054-.037.131-.09.165-.146.155-.259.529-.397.664-.654"/></svg>