<svg xmlns="http://www.w3.org/2000/svg" fill="none" viewBox="0 0 16 16"><path fill="#FBF8F4" d="M12.293 2.66a.6.6 0 01.768-.218l.089.009.157.205.015.02a.608.608 0 01.05.661.835.835 0 01-.088.133 2.38 2.38 0 01-.159.174l-.161.164-.162.165c-.089.09-.17.184-.243.282l-.135.18-.135.182a1.06 1.06 0 00-.14.252l-.083.214-.083.214c-.07.178-.155.348-.257.509l-.242.379c-.08.124-.158.25-.236.375l-.237.382a3.782 3.782 0 01-.314.434l-.146.174-.146.174a.292.292 0 00-.062.14l-.09.475a1.29 1.29 0 01-.407.727l-.174.156-.174.156c-.123.111-.249.22-.379.325l-.183.15-.183.15a.643.643 0 00-.155.18l-.224.39a.48.48 0 00-.057.202l-.023.253-.021.252c-.03.33-.182.623-.457.826l-.388.287a.872.872 0 00-.194.194l-.263.366a3.27 3.27 0 01-.23.296l-.049.053-.05.052a.634.634 0 01-.531.198.681.681 0 01-.338-.138 1.146 1.146 0 01-.24-.266l-.256-.374a.221.221 0 00-.102-.077l-.226-.1-.227-.1a1.316 1.316 0 01-.618-.545l-.23-.397a.162.162 0 00-.078-.067l-.22-.106-.219-.107c-.34-.165-.55-.5-.69-.806l-.153-.336a.6.6 0 01.934-.75l.027.03.06.067.224.49c.05.108.092.175.121.212.009.012.016.018.02.022l.42.204c.246.12.45.302.59.544l.116.198.115.199c.008.014.021.03.066.05l.226.1.226.1c.204.09.383.22.526.39l.073-.1c.127-.178.28-.33.456-.461l.194-.143.17-.127.043-.487c.022-.244.089-.48.212-.694l.224-.391c.113-.197.26-.368.436-.512l.184-.15.183-.15a9.25 9.25 0 00.336-.287l.347-.313c.014-.013.024-.026.03-.06l.046-.238.046-.238a1.49 1.49 0 01.32-.684l.146-.174.146-.174c.079-.095.15-.194.214-.297l.238-.382c.08-.13.161-.259.243-.387l.242-.38c.059-.092.11-.191.15-.298l.167-.427a2.26 2.26 0 01.297-.537l.135-.18.135-.181c.106-.143.223-.279.35-.407l.131-.134.193-.303.021-.033z"/></svg>