<svg xmlns="http://www.w3.org/2000/svg" fill="none" viewBox="0 0 22 32"><path fill="#FBF8F4" d="M22 16C22 7.163 14.837 0 6 0H0v32h6c8.837 0 16-7.163 16-16z"/><path fill="#000" d="M11.35 9.24a1 1 0 011.3 1.52L12 10l-.65-.76zm.574.825l.65.76-.096.082-.114.056-.44-.898zm-1.444 1.042l.94.338-.94-.338zm-.146.406l-.941-.337.94.337zm-.739.867l-.12-.993.12.993zm-.895.109l.12.992-.12-.992zm-.626.422l-.9-.438.9.438zm-.357.735l-.9-.437.9.437zm-.547.514l-.37-.928.37.929zm-.736.294l.37.929-.37-.929zm-.545.517l-.903-.43.903.43zm-.353.741l.903.43-.903-.43zm.027.5l-.535.844.535-.845zm.407.257l.535-.845-.535.845zm.473.391l.698-.716-.698.716zm1.133.983l-.515.858.515-.858zm.652.392l.515-.857-.515.857zm.576.48l.752-.659-.752.66zm.5.57l-.752.66.752-.66zm.428.652l-.899.438.9-.438zm.18.368l-.9.438.9-.438zm.178.367l.9-.438-.9.438zm.539.525l.4-.917-.4.917zm.718.314l.4-.917-.4.917zm.433.24l.75-.662-.75.662zm.073.083l.75-.662.037.042.032.046-.819.574zm.071.1l-.65.76-.097-.082-.072-.103.82-.574zm.727-.693a1 1 0 01-1.302 1.518L12 22l.65-.76zM12 10l.65.76-.075.064-.65-.759-.652-.76.076-.064L12 10zm-.076.065l.44.898-.65.318-.44-.898-.44-.898.65-.318.44.898zm-.65.318l.44.898a1.27 1.27 0 00-.29.181c-.04.038-.022.034-.003-.017l-.941-.338-.942-.337c.229-.637.779-1.031 1.297-1.285l.44.898zm-.794.724l.94.338-.145.406-.941-.338-.941-.337.145-.406.941.337zm-.146.406l.941.338-.146.406-.94-.337-.942-.338.146-.406.94.337zm-.146.407l.941.337a1.68 1.68 0 01-.549.77c-.268.209-.572.31-.865.346l-.12-.993-.12-.993c.005 0-.051.006-.121.061a.33.33 0 00-.107.134l.941.338zm-.593.46l.12.993-.447.054-.12-.993-.12-.992.447-.055.12.993zm-.447.054l.12.993-.447.054-.12-.992-.121-.993.447-.054.12.992zm-.448.055l.12.992c-.022.003.009.003.059-.03a.314.314 0 00.094-.103l-.899-.437-.9-.438c.286-.585.811-.905 1.406-.977l.12.993zm-.626.422l.9.437-.18.368-.899-.438-.899-.437.179-.367.9.437zm-.179.367l.9.438-.179.367-.9-.437-.899-.437.179-.368.9.437zm-.178.368l.899.437A2.005 2.005 0 017.54 15.09l-.37-.928-.37-.93.01-.004-.005.003c-.001.002-.001.002 0 0a.149.149 0 00.012-.021l.9.437zm-.547.514l.37.93-.368.146-.37-.929-.37-.929.367-.146.37.929zm-.368.147l.37.93-.368.146-.37-.929-.37-.929.367-.147.37.93zm-.368.147l.37.929-.008.003a.035.035 0 00.006-.004l.001-.001a.14.14 0 00-.011.02l-.903-.43-.903-.43a1.995 1.995 0 011.077-1.016l.37.929zm-.545.517l.903.43-.177.37-.902-.43-.903-.43.176-.37.903.43zm-.176.37l.902.43-.176.371-.903-.43-.903-.43.177-.37.903.43zm-.177.371l.903.43c-.028.059.023-.016.014-.174a.772.772 0 00-.355-.601l-.535.844-.535.845a1.225 1.225 0 01-.572-.98 1.651 1.651 0 01.177-.794l.903.43zm.027.5l.535-.845.204.128-.535.845-.535.845-.204-.129.535-.845zm.204.128l.535-.845.203.13-.535.844-.535.845-.203-.129.535-.845zm.203.13l.535-.846c.218.138.431.32.636.52l-.698.716-.698.716a2.137 2.137 0 00-.31-.262l.535-.845zm.473.39l.698-.716.27.263-.699.716-.698.716-.27-.263.699-.716zm.269.263l.698-.716.27.262-.699.716-.698.716-.27-.262.699-.716zm.269.262l.698-.716c.123.12.26.226.412.317l-.515.857-.515.858a4.233 4.233 0 01-.778-.6l.698-.716zm.595.458l.515-.857.326.196-.515.857-.515.857-.326-.195.515-.858zm.326.196l.515-.857.326.196-.515.857-.515.857-.326-.196.515-.857zm.326.196l.515-.857c.306.183.578.41.813.678l-.752.66-.752.659a1.417 1.417 0 00-.339-.283l.515-.857zm.576.48l.752-.659.25.285-.752.66-.752.659-.25-.285.752-.66zm.25.285l.752-.66.25.285-.752.66-.752.66-.25-.285.752-.66zm.25.285l.751-.66c.23.262.421.555.577.874l-.9.438-.899.438a1.925 1.925 0 00-.281-.43l.752-.66zm.428.652l.9-.438.178.368-.899.438-.899.438-.179-.368.9-.438zm.18.368l.898-.438.18.367-.9.438-.899.438-.179-.367.9-.438zm.178.367l.9-.438a.13.13 0 00.022.037l.003.002a.093.093 0 00.014.007l-.4.917-.4.916A2.055 2.055 0 019.19 21.11l.9-.438zm.539.525l.4-.917.36.157-.401.917-.4.916-.36-.157.4-.916zm.359.157l.4-.917.36.157-.4.917-.401.916-.36-.157.4-.916zm.36.157l.4-.917c.134.059.261.12.372.18.08.045.262.148.41.315l-.75.662-.75.662a.795.795 0 00.121.11c.014.01.015.01-.001 0a4.03 4.03 0 00-.203-.097l.4-.915zm.432.24l.75-.662.073.083-.75.662-.75.662-.073-.083.75-.662zm.073.083l.82-.574.07.101-.819.574-.819.574-.07-.102.818-.573zm.071.1l.65-.758.077.065L12 22l-.65.76-.077-.066.651-.76z"/></svg>