<svg width="40" height="40" viewBox="0 0 40 40" fill="none" xmlns="http://www.w3.org/2000/svg">
<path d="M18.8638 32.1335C19.4898 32.6761 20.4371 32.6084 20.9797 31.9824C21.5222 31.3564 21.4546 30.409 20.8285 29.8665L19.8461 31L18.8638 32.1335ZM19.7706 30.9345L20.753 29.801L20.6119 29.6787L20.4451 29.5947L19.7706 30.9345ZM18.7802 30.4359L18.1057 31.7757L18.7802 30.4359ZM17.5745 29.3267L18.9892 28.828L17.5745 29.3267ZM17.3593 28.7162L15.9446 29.2149L17.3593 28.7162ZM17.1441 28.1057L18.5587 27.607L17.1441 28.1057ZM13.9812 26.6019L15.3338 25.9535L13.9812 26.6019ZM13.451 25.4959L12.0984 26.1444L13.451 25.4959ZM12.635 24.7198L12.0718 26.11L12.635 24.7198ZM11.5331 24.2734L10.97 25.6637L11.5331 24.2734ZM10.7206 23.4932L12.0784 22.8556L10.7206 23.4932ZM10.459 22.9362L9.10127 23.5737L10.459 22.9362ZM10.1974 22.3791L11.5552 21.7415L10.1974 22.3791ZM9.51404 21.4499L8.52168 22.5747L9.51404 21.4499ZM8.26738 19.6733L9.76677 19.7161L8.26738 19.6733ZM8.76113 19.1568L9.54043 20.4385L8.76113 19.1568ZM10.5959 17.8385L9.46298 16.8554L10.5959 17.8385ZM11.9785 15.9983L13.3307 16.6477L11.9785 15.9983ZM12.2439 15.4456L13.5961 16.0951L12.2439 15.4456ZM12.5094 14.893L11.1572 14.2436L12.5094 14.893ZM13.3124 14.1019L13.9207 15.4731L13.3124 14.1019ZM14.3877 13.6249L13.7795 12.2538L14.3877 13.6249ZM15.2084 12.854L16.5329 13.558L15.2084 12.854ZM16.5795 11.0006L17.2403 12.3473L16.5795 11.0006ZM17.1018 10.7444L17.7625 12.091L17.1018 10.7444ZM17.624 10.4881L16.9632 9.14148L17.624 10.4881ZM18.4937 9.83444L19.623 10.8218L18.4937 9.83444ZM19.1886 9.03963L18.0594 8.05232L19.1886 9.03963ZM19.6136 8.73167L20.7471 7.74928L19.6136 8.73167ZM19.6911 8.82111L21.1176 8.35727L21.0236 8.06832L20.8246 7.83872L19.6911 8.82111ZM19.7706 9.06549L18.3441 9.52934L19.0436 11.6805L20.753 10.199L19.7706 9.06549ZM20.8285 10.1335C21.4546 9.59097 21.5222 8.64364 20.9797 8.0176C20.4371 7.39157 19.4898 7.3239 18.8638 7.86647L19.8461 9L20.8285 10.1335ZM19.8461 31L20.8285 29.8665L20.753 29.801L19.7706 30.9345L18.7882 32.068L18.8638 32.1335L19.8461 31ZM19.7706 30.9345L20.4451 29.5947L19.4547 29.0961L18.7802 30.4359L18.1057 31.7757L19.0961 32.2743L19.7706 30.9345ZM18.7802 30.4359L19.4547 29.0961C19.208 28.9719 19.069 28.8697 18.9991 28.8054C18.9319 28.7435 18.9606 28.7468 18.9892 28.828L17.5745 29.3267L16.1599 29.8255C16.4977 30.7838 17.3284 31.3844 18.1057 31.7757L18.7802 30.4359ZM17.5745 29.3267L18.9892 28.828L18.774 28.2175L17.3593 28.7162L15.9446 29.2149L16.1599 29.8255L17.5745 29.3267ZM17.3593 28.7162L18.774 28.2175L18.5587 27.607L17.1441 28.1057L15.7294 28.6044L15.9446 29.2149L17.3593 28.7162ZM17.1441 28.1057L18.5587 27.607C18.4067 27.1758 18.1452 26.7638 17.7414 26.4468C17.3411 26.1324 16.8856 25.9777 16.447 25.922L16.2582 27.4101L16.0694 28.8982C16.0779 28.8992 15.9936 28.8887 15.8886 28.8063C15.7801 28.7211 15.7379 28.6286 15.7294 28.6044L17.1441 28.1057ZM16.2582 27.4101L16.447 25.922L15.7764 25.8369L15.5876 27.325L15.3988 28.8131L16.0694 28.8982L16.2582 27.4101ZM15.5876 27.325L15.7764 25.8369L15.1057 25.7519L14.917 27.24L14.7282 28.728L15.3988 28.8131L15.5876 27.325ZM14.917 27.24L15.1057 25.7519C15.0723 25.7476 15.1182 25.7477 15.1928 25.7986C15.2286 25.823 15.2609 25.8525 15.2874 25.884C15.3134 25.915 15.3276 25.9405 15.3338 25.9535L13.9812 26.6019L12.6286 27.2503C13.051 28.1314 13.8371 28.615 14.7282 28.728L14.917 27.24ZM13.9812 26.6019L15.3338 25.9535L15.0687 25.4005L13.7161 26.0489L12.3635 26.6973L12.6286 27.2503L13.9812 26.6019ZM13.7161 26.0489L15.0687 25.4005L14.8036 24.8475L13.451 25.4959L12.0984 26.1444L12.3635 26.6973L13.7161 26.0489ZM13.451 25.4959L14.8036 24.8475C14.471 24.1536 13.9237 23.6234 13.1982 23.3295L12.635 24.7198L12.0718 26.11C12.0828 26.1145 12.0869 26.1172 12.0864 26.1169C12.0857 26.1164 12.0833 26.1148 12.0807 26.1123C12.0781 26.1098 12.0782 26.1093 12.0806 26.1127C12.0832 26.1163 12.0896 26.126 12.0984 26.1444L13.451 25.4959ZM12.635 24.7198L13.1982 23.3295L12.6472 23.1063L12.0841 24.4966L11.5209 25.8869L12.0718 26.11L12.635 24.7198ZM12.0841 24.4966L12.6472 23.1063L12.0963 22.8832L11.5331 24.2734L10.97 25.6637L11.5209 25.8869L12.0841 24.4966ZM11.5331 24.2734L12.0963 22.8832C12.0863 22.8791 12.0833 22.8769 12.0849 22.878C12.0867 22.8791 12.09 22.8815 12.0935 22.8848C12.0968 22.8881 12.0974 22.8893 12.0954 22.8865C12.0932 22.8834 12.087 22.874 12.0784 22.8556L10.7206 23.4932L9.36285 24.1308C9.69158 24.8308 10.239 25.3676 10.97 25.6637L11.5331 24.2734ZM10.7206 23.4932L12.0784 22.8556L11.8168 22.2986L10.459 22.9362L9.10127 23.5737L9.36285 24.1308L10.7206 23.4932ZM10.459 22.9362L11.8168 22.2986L11.5552 21.7415L10.1974 22.3791L8.83969 23.0167L9.10127 23.5737L10.459 22.9362ZM10.1974 22.3791L11.5552 21.7415C11.3019 21.2021 10.9554 20.7212 10.5064 20.3251L9.51404 21.4499L8.52168 22.5747C8.63513 22.6748 8.74424 22.8134 8.83969 23.0167L10.1974 22.3791ZM9.51404 21.4499L10.5064 20.3251L10.0846 19.9529L9.09221 21.0778L8.09986 22.2026L8.52168 22.5747L9.51404 21.4499ZM9.09221 21.0778L10.0846 19.9529L9.66274 19.5808L8.67039 20.7056L7.67803 21.8305L8.09986 22.2026L9.09221 21.0778ZM8.67039 20.7056L9.66274 19.5808C9.56762 19.4969 9.55829 19.4741 9.58345 19.5099C9.59805 19.5307 9.638 19.5908 9.67575 19.6875C9.71383 19.785 9.76018 19.9472 9.75423 20.1562L8.25483 20.1134L6.75544 20.0707C6.73991 20.6157 6.98212 21.0256 7.12772 21.2331C7.29139 21.4663 7.49194 21.6663 7.67803 21.8305L8.67039 20.7056ZM8.25483 20.1134L9.75423 20.1562L9.7605 19.9361L8.26111 19.8934L6.76172 19.8506L6.75544 20.0707L8.25483 20.1134ZM8.26111 19.8934L9.7605 19.9361L9.76677 19.7161L8.26738 19.6733L6.76799 19.6305L6.76172 19.8506L8.26111 19.8934ZM8.26738 19.6733L9.76677 19.7161C9.75993 19.9561 9.68872 20.1424 9.62635 20.2602C9.56589 20.3744 9.50399 20.4437 9.47819 20.4707C9.43269 20.5183 9.43177 20.5046 9.54043 20.4385L8.76113 19.1568L7.98183 17.8752C7.76551 18.0067 7.51981 18.1779 7.30972 18.3976C7.12144 18.5946 6.78557 19.0142 6.76799 19.6305L8.26738 19.6733ZM8.76113 19.1568L9.54043 20.4385L10.0279 20.1421L9.2486 18.8604L8.4693 17.5788L7.98183 17.8752L8.76113 19.1568ZM9.2486 18.8604L10.0279 20.1421L10.5154 19.8457L9.73608 18.564L8.95678 17.2824L8.4693 17.5788L9.2486 18.8604ZM9.73608 18.564L10.5154 19.8457C10.9724 19.5678 11.3785 19.2253 11.7289 18.8215L10.5959 17.8385L9.46298 16.8554C9.31686 17.0238 9.14967 17.1651 8.95678 17.2824L9.73608 18.564ZM10.5959 17.8385L11.7289 18.8215L12.1013 18.3923L10.9683 17.4093L9.83537 16.4262L9.46298 16.8554L10.5959 17.8385ZM10.9683 17.4093L12.1013 18.3923L12.4737 17.9631L11.3407 16.9801L10.2078 15.997L9.83537 16.4262L10.9683 17.4093ZM11.3407 16.9801L12.4737 17.9631C12.8162 17.5684 13.1004 17.1271 13.3307 16.6477L11.9785 15.9983L10.6264 15.3489C10.5028 15.6062 10.3618 15.8195 10.2078 15.997L11.3407 16.9801ZM11.9785 15.9983L13.3307 16.6477L13.5961 16.0951L12.2439 15.4456L10.8918 14.7962L10.6264 15.3489L11.9785 15.9983ZM12.2439 15.4456L13.5961 16.0951L13.8615 15.5424L12.5094 14.893L11.1572 14.2436L10.8918 14.7962L12.2439 15.4456ZM12.5094 14.893L13.8615 15.5424C13.8816 15.5005 13.8953 15.4877 13.8955 15.4875C13.8965 15.4866 13.8976 15.4856 13.8999 15.484C13.9023 15.4824 13.9086 15.4784 13.9207 15.4731L13.3124 14.1019L12.7042 12.7307C12.0052 13.0408 11.4814 13.5687 11.1572 14.2436L12.5094 14.893ZM13.3124 14.1019L13.9207 15.4731L14.4583 15.2346L13.8501 13.8634L13.2419 12.4923L12.7042 12.7307L13.3124 14.1019ZM13.8501 13.8634L14.4583 15.2346L14.996 14.9961L14.3877 13.6249L13.7795 12.2538L13.2419 12.4923L13.8501 13.8634ZM14.3877 13.6249L14.996 14.9961C15.6693 14.6974 16.1911 14.2012 16.5329 13.558L15.2084 12.854L13.8838 12.1501C13.8484 12.2168 13.8231 12.2344 13.7795 12.2538L14.3877 13.6249ZM15.2084 12.854L16.5329 13.558L16.8159 13.0256L15.4913 12.3217L14.1668 11.6177L13.8838 12.1501L15.2084 12.854ZM15.4913 12.3217L16.8159 13.0256L17.0988 12.4933L15.7743 11.7893L14.4497 11.0853L14.1668 11.6177L15.4913 12.3217ZM15.7743 11.7893L17.0988 12.4933C17.1451 12.4062 17.1863 12.3737 17.2403 12.3473L16.5795 11.0006L15.9187 9.65401C15.2764 9.9692 14.7808 10.4625 14.4497 11.0853L15.7743 11.7893ZM16.5795 11.0006L17.2403 12.3473L17.7625 12.091L17.1018 10.7444L16.441 9.39775L15.9187 9.65401L16.5795 11.0006ZM17.1018 10.7444L17.7625 12.091L18.2848 11.8347L17.624 10.4881L16.9632 9.14148L16.441 9.39775L17.1018 10.7444ZM17.624 10.4881L18.2848 11.8347C18.7931 11.5853 19.2478 11.2509 19.623 10.8218L18.4937 9.83444L17.3645 8.84712C17.2764 8.94783 17.1513 9.04922 16.9632 9.14148L17.624 10.4881ZM18.4937 9.83444L19.623 10.8218L19.9704 10.4244L18.8412 9.43704L17.7119 8.44972L17.3645 8.84712L18.4937 9.83444ZM18.8412 9.43704L19.9704 10.4244L20.3179 10.027L19.1886 9.03963L18.0594 8.05232L17.7119 8.44972L18.8412 9.43704ZM19.1886 9.03963L20.3179 10.027C20.4182 9.91218 20.4207 9.9264 20.3488 9.97855C20.3262 9.99495 20.1578 10.1206 19.8838 10.1816C19.7306 10.2157 19.4934 10.2408 19.2167 10.1697C18.9213 10.0938 18.6669 9.92961 18.4801 9.71407L19.6136 8.73167L20.7471 7.74928C20.2763 7.20607 19.6327 7.16406 19.2321 7.2532C18.9098 7.32494 18.6819 7.48161 18.5884 7.54933C18.3748 7.70414 18.1907 7.90216 18.0594 8.05232L19.1886 9.03963ZM19.6136 8.73167L18.4801 9.71407L18.5576 9.80351L19.6911 8.82111L20.8246 7.83872L20.7471 7.74928L19.6136 8.73167ZM19.6911 8.82111L18.2646 9.28496L18.3441 9.52934L19.7706 9.06549L21.1971 8.60165L21.1176 8.35727L19.6911 8.82111ZM19.7706 9.06549L20.753 10.199L20.8285 10.1335L19.8461 9L18.8638 7.86647L18.7882 7.93196L19.7706 9.06549Z" fill="black"/>
<path d="M32 21.5C32.8284 21.5 33.5 20.8284 33.5 20C33.5 19.1716 32.8284 18.5 32 18.5L32 20L32 21.5ZM31.9 20L31.878 21.4998L31.889 21.5L31.9 21.5L31.9 20ZM20.1875 20.3704L20.771 18.9885L20.1875 20.3704ZM15.125 20.4328L15.5851 21.8605L15.125 20.4328ZM8 20.0644L7.18813 18.8031L6.5 19.246L6.5 20.0644L8 20.0644ZM8.1 20L8.91187 21.2613L13.2017 18.5L8.1 18.5L8.1 20ZM8 18.5C7.17157 18.5 6.5 19.1716 6.5 20C6.5 20.8284 7.17157 21.5 8 21.5L8 20L8 18.5ZM32 20L32 18.5L31.9 18.5L31.9 20L31.9 21.5L32 21.5L32 20ZM31.9 20L31.922 18.5002L30.847 18.4844L30.825 19.9843L30.803 21.4841L31.878 21.4998L31.9 20ZM30.825 19.9843L30.847 18.4844C30.1231 18.4738 29.5462 18.4751 29.1315 18.4906L29.1875 19.9895L29.2435 21.4885C29.5788 21.476 30.0936 21.4737 30.803 21.4841L30.825 19.9843ZM29.1875 19.9895L29.1315 18.4906L28.569 18.5116L28.625 20.0106L28.681 21.5095L29.2435 21.4885L29.1875 19.9895ZM28.625 20.0106L28.569 18.5116L28.0065 18.5327L28.0625 20.0316L28.1185 21.5306L28.681 21.5095L28.625 20.0106ZM28.0625 20.0316L28.0065 18.5327C27.7824 18.541 27.5536 18.5166 27.3155 18.4546L26.9375 19.9061L26.5595 21.3577C27.0714 21.4911 27.5926 21.5502 28.1185 21.5306L28.0625 20.0316ZM26.9375 19.9061L27.3155 18.4546L26.753 18.3081L26.375 19.7597L25.997 21.2112L26.5595 21.3577L26.9375 19.9061ZM26.375 19.7597L26.753 18.3081L26.1905 18.1616L25.8125 19.6132L25.4345 21.0648L25.997 21.2112L26.375 19.7597ZM25.8125 19.6132L26.1905 18.1616C25.5776 18.002 24.9518 17.9956 24.3355 18.1443L24.6875 19.6025L25.0395 21.0606C25.1732 21.0283 25.2974 21.0291 25.4345 21.0648L25.8125 19.6132ZM24.6875 19.6025L24.3355 18.1443L23.773 18.2801L24.125 19.7382L24.477 21.1964L25.0395 21.0606L24.6875 19.6025ZM24.125 19.7382L23.773 18.2801L23.2105 18.4159L23.5625 19.874L23.9145 21.3321L24.477 21.1964L24.125 19.7382ZM23.5625 19.874L23.2105 18.4159C22.8243 18.5091 22.4382 18.6071 22.0522 18.7097L22.4375 20.1593L22.8228 21.609C23.1868 21.5122 23.5507 21.42 23.9145 21.3321L23.5625 19.874ZM22.4375 20.1593L22.0522 18.7097L21.4897 18.8592L21.875 20.3088L22.2603 21.7585L22.8228 21.609L22.4375 20.1593ZM21.875 20.3088L21.4897 18.8592L20.9272 19.0087L21.3125 20.4584L21.6978 21.908L22.2603 21.7585L21.875 20.3088ZM21.3125 20.4584L20.9272 19.0087C20.8902 19.0185 20.8556 19.0243 20.771 18.9885L20.1875 20.3704L19.604 21.7522C20.2694 22.0332 20.9848 22.0976 21.6978 21.908L21.3125 20.4584ZM20.1875 20.3704L20.771 18.9885L20.2085 18.751L19.625 20.1329L19.0415 21.5147L19.604 21.7522L20.1875 20.3704ZM19.625 20.1329L20.2085 18.751L19.646 18.5135L19.0625 19.8953L18.479 21.2772L19.0415 21.5147L19.625 20.1329ZM19.0625 19.8953L19.646 18.5135C19.0207 18.2494 18.3495 18.1604 17.6671 18.2855L17.9375 19.7609L18.2079 21.2364C18.2755 21.224 18.3543 21.2246 18.479 21.2772L19.0625 19.8953ZM17.9375 19.7609L17.6671 18.2855L17.1046 18.3886L17.375 19.864L17.6454 21.3395L18.2079 21.2364L17.9375 19.7609ZM17.375 19.864L17.1046 18.3886L16.5421 18.4917L16.8125 19.9671L17.0829 21.4426L17.6454 21.3395L17.375 19.864ZM16.8125 19.9671L16.5421 18.4917C16.1008 18.5726 15.6624 18.6836 15.2274 18.8239L15.6875 20.2515L16.1476 21.6792C16.4626 21.5777 16.7742 21.4992 17.0829 21.4426L16.8125 19.9671ZM15.6875 20.2515L15.2274 18.8239L14.6649 19.0052L15.125 20.4328L15.5851 21.8605L16.1476 21.6792L15.6875 20.2515ZM15.125 20.4328L14.6649 19.0052L14.1024 19.1864L14.5625 20.6141L15.0226 22.0418L15.5851 21.8605L15.125 20.4328ZM14.5625 20.6141L14.1024 19.1864C14.1048 19.1857 14.1148 19.1828 14.131 19.1812C14.1474 19.1795 14.1644 19.1797 14.1801 19.1816C14.1955 19.1835 14.2042 19.1863 14.2048 19.1865C14.2051 19.1866 14.195 19.1832 14.1745 19.1716L13.4375 20.4781L12.7005 21.7846C13.4024 22.1805 14.2097 22.3038 15.0226 22.0418L14.5625 20.6141ZM13.4375 20.4781L14.1745 19.1716L13.612 18.8543L12.875 20.1608L12.138 21.4672L12.7005 21.7846L13.4375 20.4781ZM12.875 20.1608L13.612 18.8543L13.0495 18.537L12.3125 19.8435L11.5755 21.1499L12.138 21.4672L12.875 20.1608ZM12.3125 19.8435L13.0495 18.537C12.4637 18.2066 11.8087 18.021 11.1094 18.0575L11.1875 19.5555L11.2656 21.0534C11.3163 21.0508 11.4113 21.0573 11.5755 21.1499L12.3125 19.8435ZM11.1875 19.5555L11.1094 18.0575L10.5469 18.0868L10.625 19.5848L10.7031 21.0827L11.2656 21.0534L11.1875 19.5555ZM10.625 19.5848L10.5469 18.0868L9.98445 18.1161L10.0625 19.6141L10.1406 21.112L10.7031 21.0827L10.625 19.5848ZM10.0625 19.6141L9.98445 18.1161C9.52979 18.1398 9.07803 18.2033 8.66321 18.3376L9.125 19.7647L9.58679 21.1919C9.67197 21.1643 9.84521 21.1274 10.1406 21.112L10.0625 19.6141ZM9.125 19.7647L8.66321 18.3376L8.28821 18.4589L8.75 19.8861L9.21179 21.3132L9.58679 21.1919L9.125 19.7647ZM8.75 19.8861L8.28821 18.4589L7.91321 18.5802L8.375 20.0074L8.83679 21.4345L9.21179 21.3132L8.75 19.8861ZM8.375 20.0074L7.91321 18.5802C7.85922 18.5977 7.81751 18.6106 7.78657 18.6198C7.75361 18.6295 7.74242 18.6321 7.7468 18.631C7.74933 18.6304 7.76358 18.6271 7.78624 18.623C7.80462 18.6196 7.85525 18.6109 7.9245 18.6063C7.95854 18.6041 8.15936 18.5882 8.40655 18.6567C8.53543 18.6924 8.79651 18.783 9.04239 19.0199C9.33098 19.2981 9.5 19.6853 9.5 20.0966L8 20.0966L6.5 20.0966C6.5 20.5105 6.66999 20.9 6.96054 21.18C7.20837 21.4189 7.47238 21.5109 7.60517 21.5477C7.86016 21.6184 8.0727 21.6031 8.12237 21.5998C8.26947 21.5901 8.39411 21.5608 8.4407 21.5497C8.56392 21.5204 8.70441 21.4774 8.83679 21.4345L8.375 20.0074ZM8 20.0966L9.5 20.0966L9.5 20.0644L8 20.0644L6.5 20.0644L6.5 20.0966L8 20.0966ZM8 20.0644L8.81187 21.3257L8.91187 21.2613L8.1 20L7.28813 18.7387L7.18813 18.8031L8 20.0644ZM8.1 20L8.1 18.5L8 18.5L8 20L8 21.5L8.1 21.5L8.1 20Z" fill="black"/>
</svg>
