<svg width="40" height="40" viewBox="0 0 40 40" fill="none" xmlns="http://www.w3.org/2000/svg">
<path d="M31.6451 13.9689C32.1802 13.3365 32.1013 12.39 31.4689 11.8549C30.8365 11.3198 29.89 11.3987 29.3549 12.0311L30.5 13L31.6451 13.9689ZM30.4354 13.0763L29.2903 12.1074L29.1697 12.25L29.0877 12.4177L30.4354 13.0763ZM28.8537 15.2912L28.3383 13.8826L28.8537 15.2912ZM28.2458 15.5137L28.7612 16.9223L28.2458 15.5137ZM26.1716 18.9165L25.5072 17.5717L26.1716 18.9165ZM25.072 19.4598L24.4076 18.115L25.072 19.4598ZM24.3055 20.285L25.7024 20.8316L24.3055 20.285ZM21.9939 22.75L22.6475 24.1002L21.9939 22.75ZM21.0729 23.4444L19.9364 22.4654L21.0729 23.4444ZM20.3386 24.2968L21.4751 25.2758L20.3386 24.2968ZM19.758 24.8053L19.2184 23.4057L19.758 24.8053ZM19.5445 24.8876L19.0049 23.488L19.5445 24.8876ZM19.331 24.9699L19.8705 26.3695L19.331 24.9699ZM18.5363 24.0703L19.8271 23.3062L18.5363 24.0703ZM17.5303 22.711L16.5339 23.8322L17.5303 22.711ZM16.6808 21.9561L17.6772 20.8348L16.6808 21.9561ZM15.7066 21.3067L16.372 19.9623L15.7066 21.3067ZM13.8262 19.9505L12.4479 20.5424L13.8262 19.9505ZM13.594 19.41L14.9723 18.8181L13.594 19.41ZM13.3619 18.8696L14.7402 18.2776L13.3619 18.8696ZM10.7638 16.6469L12.1181 16.0021L10.7638 16.6469ZM10.5137 16.1217L9.15935 16.7665L10.5137 16.1217ZM9.1758 14.3063L8.16447 15.4141L9.1758 14.3063ZM8.75692 13.9239L9.76826 12.8161L8.75692 13.9239ZM8.37853 13.4061L9.81563 13.836L8.37853 13.4061ZM8.41902 13.2708L7.2183 12.3717L7.05838 12.5853L6.98192 12.8409L8.41902 13.2708ZM8.5646 13.0763L9.76531 13.9754L10.4812 13.0192L9.70967 12.1074L8.5646 13.0763ZM9.64508 12.0311C9.10996 11.3987 8.1635 11.3198 7.53109 11.8549C6.89868 12.39 6.81981 13.3365 7.35492 13.9689L8.5 13L9.64508 12.0311ZM30.5 13L29.3549 12.0311L29.2903 12.1074L30.4354 13.0763L31.5805 14.0453L31.6451 13.9689L30.5 13ZM30.4354 13.0763L29.0877 12.4177L28.6009 13.4139L29.9485 14.0726L31.2962 14.7312L31.7831 13.735L30.4354 13.0763ZM29.9485 14.0726L28.6009 13.4139C28.4796 13.6621 28.379 13.8023 28.3155 13.8729C28.2545 13.9409 28.2575 13.9122 28.3383 13.8826L28.8537 15.2912L29.3692 16.6999C30.3234 16.3507 30.9141 15.513 31.2962 14.7312L29.9485 14.0726ZM28.8537 15.2912L28.3383 13.8826L27.7304 14.105L28.2458 15.5137L28.7612 16.9223L29.3692 16.6999L28.8537 15.2912ZM28.2458 15.5137L27.7304 14.105L27.1224 14.3275L27.6379 15.7361L28.1533 17.1448L28.7612 16.9223L28.2458 15.5137ZM27.6379 15.7361L27.1224 14.3275C26.6931 14.4846 26.2843 14.751 25.972 15.1585C25.6624 15.5625 25.513 16.0198 25.4626 16.459L26.9528 16.6302L28.443 16.8013C28.444 16.7928 28.4345 16.8772 28.3533 16.9832C28.2694 17.0927 28.1774 17.136 28.1533 17.1448L27.6379 15.7361ZM26.9528 16.6302L25.4626 16.459L25.3855 17.1306L26.8757 17.3017L28.3659 17.4729L28.443 16.8013L26.9528 16.6302ZM26.8757 17.3017L25.3855 17.1306L25.3083 17.8022L26.7985 17.9733L28.2888 18.1445L28.3659 17.4729L26.8757 17.3017ZM26.7985 17.9733L25.3083 17.8022C25.3045 17.8357 25.3041 17.7898 25.354 17.7146C25.378 17.6785 25.4071 17.6458 25.4383 17.619C25.469 17.5926 25.4944 17.5781 25.5072 17.5717L26.1716 18.9165L26.836 20.2614C27.712 19.8286 28.1863 19.0368 28.2888 18.1445L26.7985 17.9733ZM26.1716 18.9165L25.5072 17.5717L24.9574 17.8433L25.6218 19.1882L26.2862 20.533L26.836 20.2614L26.1716 18.9165ZM25.6218 19.1882L24.9574 17.8433L24.4076 18.115L25.072 19.4598L25.7364 20.8046L26.2862 20.533L25.6218 19.1882ZM25.072 19.4598L24.4076 18.115C23.7177 18.4558 23.194 19.0093 22.9087 19.7383L24.3055 20.285L25.7024 20.8316C25.7067 20.8206 25.7094 20.8165 25.709 20.817C25.7086 20.8177 25.707 20.8201 25.7045 20.8227C25.7021 20.8253 25.7016 20.8253 25.7049 20.8228C25.7085 20.8202 25.7181 20.8137 25.7364 20.8046L25.072 19.4598ZM24.3055 20.285L22.9087 19.7383L22.6921 20.2918L24.0889 20.8385L25.4857 21.3852L25.7024 20.8316L24.3055 20.285ZM24.0889 20.8385L22.6921 20.2918L22.4754 20.8454L23.8723 21.392L25.2691 21.9387L25.4857 21.3852L24.0889 20.8385ZM23.8723 21.392L22.4754 20.8454C22.4715 20.8554 22.4694 20.8584 22.4704 20.8568C22.4715 20.855 22.4739 20.8516 22.4771 20.8482C22.4804 20.8448 22.4816 20.8442 22.4788 20.8462C22.4757 20.8484 22.4664 20.8548 22.4481 20.8636L23.1017 22.2137L23.7553 23.5639C24.4514 23.2269 24.9817 22.6731 25.2691 21.9387L23.8723 21.392ZM23.1017 22.2137L22.4481 20.8636L21.8942 21.1318L22.5478 22.4819L23.2014 23.832L23.7553 23.5639L23.1017 22.2137ZM22.5478 22.4819L21.8942 21.1318L21.3403 21.3999L21.9939 22.75L22.6475 24.1002L23.2014 23.832L22.5478 22.4819ZM21.9939 22.75L21.3403 21.3999C20.8039 21.6596 20.3271 22.0118 19.9364 22.4654L21.0729 23.4444L22.2093 24.4234C22.3081 24.3088 22.4454 24.198 22.6475 24.1002L21.9939 22.75ZM21.0729 23.4444L19.9364 22.4654L19.5692 22.8916L20.7057 23.8706L21.8422 24.8496L22.2093 24.4234L21.0729 23.4444ZM20.7057 23.8706L19.5692 22.8916L19.2021 23.3178L20.3386 24.2968L21.4751 25.2758L21.8422 24.8496L20.7057 23.8706ZM20.3386 24.2968L19.2021 23.3178C19.1562 23.3711 19.1175 23.4134 19.0859 23.4461C19.0539 23.4793 19.0326 23.499 19.0216 23.5086C19.0097 23.519 19.0166 23.5117 19.0411 23.4954C19.0541 23.4867 19.0747 23.4737 19.1026 23.4586C19.1304 23.4437 19.1693 23.4246 19.2184 23.4057L19.758 24.8053L20.2975 26.2049C20.6079 26.0852 20.847 25.8978 20.9981 25.7654C21.1657 25.6187 21.3256 25.4493 21.4751 25.2758L20.3386 24.2968ZM19.758 24.8053L19.2184 23.4057L19.0049 23.488L19.5445 24.8876L20.084 26.2872L20.2975 26.2049L19.758 24.8053ZM19.5445 24.8876L19.0049 23.488L18.7914 23.5703L19.331 24.9699L19.8705 26.3695L20.084 26.2872L19.5445 24.8876ZM19.331 24.9699L18.7914 23.5703C19.0652 23.4647 19.3508 23.459 19.5997 23.5242C19.8258 23.5835 19.9738 23.6877 20.0428 23.7437C20.1642 23.842 20.1819 23.9056 20.1177 23.7972L18.8269 24.5613L17.5361 25.3253C17.6656 25.5442 17.8642 25.8395 18.1536 26.0741C18.4607 26.323 19.1022 26.6657 19.8705 26.3695L19.331 24.9699ZM18.8269 24.5613L20.1177 23.7972L19.8271 23.3062L18.5363 24.0703L17.2455 24.8344L17.5361 25.3253L18.8269 24.5613ZM18.5363 24.0703L19.8271 23.3062L19.5365 22.8153L18.2457 23.5794L16.9549 24.3434L17.2455 24.8344L18.5363 24.0703ZM18.2457 23.5794L19.5365 22.8153C19.264 22.355 18.9264 21.9449 18.5267 21.5897L17.5303 22.711L16.5339 23.8322C16.7006 23.9803 16.8399 24.1492 16.9549 24.3434L18.2457 23.5794ZM17.5303 22.711L18.5267 21.5897L18.1019 21.2123L17.1056 22.3335L16.1092 23.4548L16.5339 23.8322L17.5303 22.711ZM17.1056 22.3335L18.1019 21.2123L17.6772 20.8348L16.6808 21.9561L15.6844 23.0773L16.1092 23.4548L17.1056 22.3335ZM16.6808 21.9561L17.6772 20.8348C17.2866 20.4877 16.8487 20.1983 16.372 19.9623L15.7066 21.3067L15.0413 22.6511C15.2971 22.7777 15.5087 22.9212 15.6844 23.0773L16.6808 21.9561ZM15.7066 21.3067L16.372 19.9623L15.8225 19.6904L15.1572 21.0348L14.4918 22.3791L15.0413 22.6511L15.7066 21.3067ZM15.1572 21.0348L15.8225 19.6904L15.2731 19.4185L14.6077 20.7628L13.9424 22.1072L14.4918 22.3791L15.1572 21.0348ZM14.6077 20.7628L15.2731 19.4185C15.2314 19.3978 15.2188 19.384 15.2186 19.3838C15.2176 19.3828 15.2167 19.3817 15.2151 19.3794C15.2135 19.3769 15.2096 19.3706 15.2044 19.3585L13.8262 19.9505L12.4479 20.5424C12.7497 21.245 13.2713 21.7751 13.9424 22.1072L14.6077 20.7628ZM13.8262 19.9505L15.2044 19.3585L14.9723 18.8181L13.594 19.41L12.2158 20.002L12.4479 20.5424L13.8262 19.9505ZM13.594 19.41L14.9723 18.8181L14.7402 18.2776L13.3619 18.8696L11.9837 19.4615L12.2158 20.002L13.594 19.41ZM13.3619 18.8696L14.7402 18.2776C14.4495 17.6008 13.9595 17.0732 13.3204 16.7238L12.6008 18.0399L11.8812 19.356C11.9475 19.3922 11.9649 19.4177 11.9837 19.4615L13.3619 18.8696ZM12.6008 18.0399L13.3204 16.7238L12.7914 16.4345L12.0718 17.7507L11.3522 19.0668L11.8812 19.356L12.6008 18.0399ZM12.0718 17.7507L12.7914 16.4345L12.2624 16.1453L11.5428 17.4614L10.8232 18.7775L11.3522 19.0668L12.0718 17.7507ZM11.5428 17.4614L12.2624 16.1453C12.176 16.098 12.144 16.0564 12.1181 16.0021L10.7638 16.6469L9.40942 17.2917C9.71698 17.9377 10.2044 18.4392 10.8232 18.7775L11.5428 17.4614ZM10.7638 16.6469L12.1181 16.0021L11.868 15.4769L10.5137 16.1217L9.15935 16.7665L9.40942 17.2917L10.7638 16.6469ZM10.5137 16.1217L11.868 15.4769L11.618 14.9516L10.2636 15.5964L8.90929 16.2412L9.15935 16.7665L10.5137 16.1217ZM10.2636 15.5964L11.618 14.9516C11.3701 14.431 11.0322 13.97 10.606 13.581L9.59469 14.6887L8.58335 15.7965C8.71571 15.9174 8.82373 16.0615 8.90929 16.2412L10.2636 15.5964ZM9.59469 14.6887L10.606 13.581L10.1871 13.1985L9.1758 14.3063L8.16447 15.4141L8.58335 15.7965L9.59469 14.6887ZM9.1758 14.3063L10.1871 13.1985L9.76826 12.8161L8.75692 13.9239L7.74559 15.0317L8.16447 15.4141L9.1758 14.3063ZM8.75692 13.9239L9.76826 12.8161C9.65544 12.7131 9.63962 12.6849 9.66396 12.7182C9.67535 12.7338 9.73712 12.8184 9.79049 12.9599C9.8397 13.0904 9.93924 13.4227 9.81563 13.836L8.37853 13.4061L6.94143 12.9763C6.80432 13.4348 6.90951 13.8224 6.9835 14.0186C7.06165 14.2258 7.16735 14.3864 7.2418 14.4883C7.39227 14.6942 7.57915 14.8798 7.74559 15.0317L8.75692 13.9239ZM8.37853 13.4061L9.81563 13.836L9.85612 13.7006L8.41902 13.2708L6.98192 12.8409L6.94143 12.9763L8.37853 13.4061ZM8.41902 13.2708L9.61974 14.1698L9.76531 13.9754L8.5646 13.0763L7.36388 12.1773L7.2183 12.3717L8.41902 13.2708ZM8.5646 13.0763L9.70967 12.1074L9.64508 12.0311L8.5 13L7.35492 13.9689L7.41951 14.0452L8.5646 13.0763Z" fill="black"/>
</svg>
