<svg width="56" height="56" viewBox="0 0 56 56" fill="none" xmlns="http://www.w3.org/2000/svg">
<path d="M40.1953 25.1132C39.5328 24.7956 38.7998 24.6978 38.0625 24.8789L37.5 25.0195L36.9258 25.1601C36.7693 25.1979 36.6194 25.2036 36.4687 25.1718L35.9062 25.0429L35.3437 24.9257L34.7344 24.8671C34.1363 24.8729 33.5795 25.0759 33.0937 25.3945L32.5312 25.7578L32.0742 26.0625L31.6758 25.8867L31.1016 25.6523C30.5723 25.4323 30.0192 25.3001 29.4492 25.2773L28.3242 25.2304C27.7522 25.2075 27.1884 25.2987 26.6484 25.4882L26.0976 25.6757L25.5469 25.875C25.3161 25.956 25.0867 25.9954 24.8672 26.0039L24.3047 26.0273L23.7422 26.039C23.5189 26.0472 23.2839 26.031 23.0391 25.9687L22.4766 25.8164L21.9023 25.6757C21.3122 25.5258 20.7088 25.5077 20.1094 25.6289L19.5469 25.746L18.9961 25.8515C18.5183 25.9482 18.0475 26.1012 17.5898 26.2968L17.0391 26.5312L16.4648 26.7656L15.3164 26.3437C14.5371 26.0599 13.6519 26.1412 12.8555 26.3085L11.9531 26.496H11.9414C11.9231 26.4968 11.901 26.5181 11.8828 26.5195L11.7891 26.5312L11.8008 26.5429C11.0417 26.6458 10.4669 27.2858 10.5 28.0664C10.5365 28.8911 11.234 29.5284 12.0586 29.496H12.1641L12.293 29.4843L12.4101 29.4609L13.4766 29.2382C13.7627 29.1782 13.9739 29.1576 14.1211 29.1562C14.2128 29.1554 14.2649 29.1642 14.2851 29.1679L14.8594 29.3789L15.4336 29.5781C16.1679 29.8465 16.9366 29.8397 17.6601 29.5312L18.2109 29.2851L18.7734 29.0507C19.0502 28.9328 19.3191 28.8465 19.582 28.7929L20.1445 28.6875L20.707 28.5703C20.8498 28.5419 20.9967 28.5395 21.1641 28.582L21.7383 28.7343L22.3008 28.875C22.8129 29.0051 23.3354 29.0589 23.8594 29.039L24.4219 29.0156L24.9844 29.0039C25.5144 28.9834 26.0398 28.8759 26.543 28.6992L27.0937 28.5117L27.6445 28.3125C27.8351 28.2461 28.0155 28.2237 28.1953 28.2304L29.332 28.2773C29.5166 28.2848 29.7222 28.3219 29.9531 28.4179L30.5273 28.6523L31.0898 28.8867C31.9717 29.2533 32.8729 29.1195 33.6211 28.6289L34.1836 28.2656L34.7344 27.9023C34.7491 27.8926 34.7597 27.8725 34.7695 27.8671L35.2969 27.9843L35.8594 28.1015C36.4563 28.2266 37.0608 28.2123 37.6523 28.0664L38.2148 27.9257L38.7773 27.7968C38.7962 27.7922 38.8074 27.7845 38.8125 27.7851C38.8221 27.7865 38.8482 27.7981 38.8945 27.8203L40.0195 28.3593C40.6247 28.6486 41.2912 28.7717 41.9766 28.6875L42.5391 28.6171L42.5976 28.6054L44.8828 28.6289H44.9883C45.6452 28.634 46.1754 28.2081 46.3828 27.621L46.4648 27.5273L46.5117 27.1406L46.5234 27.0585C46.5596 26.7404 46.4941 26.386 46.3008 26.0742C46.1221 25.7871 45.8874 25.6228 45.7266 25.5351C45.4433 25.3808 45.1747 25.3569 45.0771 25.3482L45.0703 25.3476L44.4609 25.3593L44.0742 25.4062L43.6875 25.4648C43.4265 25.4966 43.102 25.5241 42.7266 25.5703L41.6016 25.7109C41.5385 25.7183 41.448 25.7192 41.3086 25.6523L40.7578 25.3828L40.1953 25.1132Z" fill="white"/>
</svg>
