<svg width="73" height="72" viewBox="0 0 73 72" fill="none" xmlns="http://www.w3.org/2000/svg">
<path d="M17.2735 0.992188C17.797 0.872453 18.3459 0.876683 18.8711 1.0498L19.3877 1.2793L19.8477 1.55566L20.3067 1.81934C20.4794 1.91887 20.6885 1.99314 20.9278 2.0498L21.4785 2.18848L22.0313 2.31445C22.1098 2.33299 22.1808 2.3364 22.2725 2.30176L23.3526 1.88867L23.9619 1.73926C24.3731 1.68722 24.7875 1.73542 25.1797 1.90039L25.7432 2.2334L26.168 2.55566L26.5938 2.88867C26.8411 3.08063 27.1023 3.26598 27.375 3.44043L27.8457 3.73926L28.3057 4.03809C28.7323 4.31085 29.1267 4.6458 29.4317 5.06055L29.6963 5.41699L29.9493 5.77246C30.144 6.03729 30.3643 6.34576 30.5918 6.69238L30.9141 7.19824L31.2481 7.69238C31.3825 7.89636 31.513 8.02353 31.627 8.10645L32.041 8.41602L32.4541 8.71484C32.8078 8.972 33.1424 9.26933 33.4424 9.58887L34.1553 10.3467C34.4802 10.6937 34.7589 11.0836 34.9942 11.5078L35.5459 12.4961C35.5777 12.5534 35.6128 12.6063 35.6494 12.6562L35.6455 12.6787C35.6063 12.8761 35.5572 12.9913 35.5284 13.0537L35.0244 13.2881L34.3916 13.5811C33.6744 13.9102 33.0569 14.4728 32.7862 15.3154L32.4346 16.417C32.2947 16.8532 32.1834 17.3026 32.1065 17.7646L31.919 18.96C31.8955 19.0982 31.8393 19.1816 31.7784 19.2529L31.4151 19.6865L31.0401 20.1201C30.8398 20.3545 30.615 20.5861 30.3721 20.7998L29.9268 21.1865L29.4932 21.5732C29.0591 21.9551 28.6967 22.4146 28.4385 22.9326L28.1924 23.4365L27.9346 23.9404C27.7101 24.3918 27.5381 24.8918 27.4073 25.417L27.2432 26.0732L27.0791 26.7412C26.9805 27.1376 26.9239 27.7266 27.2198 28.3115C27.5409 28.9456 28.104 29.2484 28.5791 29.3662L29.7276 29.6475C30.3399 29.7981 30.9659 29.7929 31.5791 29.6592L32.7744 29.4014C33.086 29.3336 33.3895 29.304 33.6768 29.2959L34.251 29.2725L34.7666 29.2607L34.7784 29.2725L35.2588 29.7412L35.7276 30.21C36.167 30.6472 36.6761 31.0121 37.2627 31.2295L37.8018 31.417L38.3291 31.6162C38.8417 31.8054 39.3759 31.9095 39.9229 31.9209L41.0713 31.9443C41.2678 31.9484 41.4488 31.9886 41.6221 32.0615L42.1494 32.2725L42.6768 32.4951C43.0029 32.6322 43.3401 32.7244 43.6846 32.7881C43.6215 32.8732 43.5556 32.9568 43.4971 33.0459L43.169 33.5381L42.8526 34.042C42.6742 34.3136 42.4777 34.5559 42.2784 34.7803L41.5284 35.624C41.4166 35.7497 41.2714 35.8613 41.083 35.9521L40.5557 36.21L40.0166 36.4678C39.4015 36.7644 38.8928 37.224 38.5401 37.8154L38.2471 38.3076L37.9541 38.8115C37.8755 38.943 37.7725 39.0384 37.6494 39.1162L37.169 39.4209L36.6768 39.7256C36.1637 40.0499 35.7355 40.4784 35.4112 40.9912L35.1065 41.4834L34.8018 41.9639C34.6318 42.2325 34.448 42.4905 34.251 42.7256L33.5244 43.5928C33.3398 43.8129 33.1348 44.0184 32.9151 44.2021L32.0479 44.9287C31.7126 45.2087 31.3854 45.5012 31.0869 45.8193L30.7119 46.2295L30.3252 46.6396C30.1855 46.7886 30.0076 46.926 29.7979 47.0381L29.2823 47.3193L28.7666 47.5889C27.9221 48.0407 27.4837 48.8332 27.3955 49.6982L27.2549 51.0107C27.2178 51.3755 27.2215 52.0993 27.7823 52.6748C28.3755 53.2829 29.1318 53.2655 29.5284 53.2021L30.1377 53.1084L30.7119 53.0029L31.2159 53.3779L31.708 53.7529C32.2125 54.1365 32.7937 54.409 33.4307 54.5146L33.9815 54.6084L34.544 54.7021C35.067 54.7884 35.5963 54.7844 36.126 54.7139L36.7119 54.6436L37.2979 54.5615C37.5604 54.5266 37.8077 54.5301 38.0362 54.5615L38.5987 54.6436L39.1494 54.7139C39.338 54.7402 39.5093 54.8022 39.6651 54.8896L40.1455 55.1592L40.544 55.3701L40.6143 55.6514L40.6729 55.9209L40.3916 56.3779L40.0869 56.8701C39.7513 57.4024 39.5506 57.9993 39.501 58.6279L39.4073 59.7764C39.3929 59.9584 39.3491 60.1235 39.2666 60.2803L38.7276 61.2881C38.3971 61.9164 38.2926 62.6055 38.376 63.292L38.458 63.9014L38.5284 64.5107C38.5541 64.7228 38.5349 64.8862 38.4932 65.0146L38.3174 65.542L38.1416 66.0811C38.0751 66.2855 37.9714 66.4945 37.8252 66.7021L37.4854 67.1826L37.1455 67.6748C36.6987 68.3115 36.5261 69.0482 36.6182 69.8076L36.6885 70.417L36.7471 70.9678L36.6651 71.0645C36.3268 71.1566 35.9483 71.1688 35.5576 71.0391C35.0313 70.8629 34.6722 70.495 34.4551 70.1992L34.0987 69.7168L33.7422 69.2227C33.6943 69.1573 33.6505 69.1048 33.6153 69.0615L33.5459 68.9932L33.4893 68.959L33.2823 68.8555C33.1273 68.7753 32.8799 68.6426 32.5586 68.4648L32.0635 68.1885L31.5811 67.9248C31.0575 67.635 30.6199 67.2345 30.2823 66.7402L29.6621 65.8213C29.5824 65.7043 29.5137 65.6344 29.4776 65.5908L29.2364 65.4307C28.88 65.1982 28.6699 64.8765 28.5694 64.6953C28.4526 64.4848 28.3687 64.2463 28.294 64.0273L28.1104 63.5107L27.9375 62.9941C27.8518 62.7429 27.7319 62.4941 27.5928 62.2588L27.3174 61.7764L27.0293 61.293C26.9421 61.1461 26.8237 61.0248 26.6739 60.9141L26.2139 60.5693L25.7539 60.2363H25.6621L25.0196 60.2939L24.3643 60.3623C23.6516 60.4298 22.931 60.2886 22.295 59.8682L21.3526 59.2471C20.9843 59.0036 20.6325 58.7347 20.2959 58.4424L19.4219 57.6846C18.8366 57.1754 18.504 56.503 18.4102 55.7646L18.3301 55.1445L18.2618 54.5361C18.2203 54.2096 18.1507 53.9126 18.0664 53.6621L17.8819 53.1338L17.71 52.6055C17.6797 52.5173 17.622 52.4222 17.503 52.3174L17.0547 51.9268L16.6065 51.5244C16.286 51.2423 15.9827 50.9589 15.6983 50.6748L15.2959 50.2842L14.9053 49.8926C14.7197 49.7074 14.5178 49.5391 14.2969 49.3984L13.8252 49.0996L13.3653 48.8008C12.8412 48.4669 12.4204 48.0221 12.1133 47.4902L11.8252 46.9736L11.5264 46.4678C11.5057 46.432 11.4865 46.4145 11.4815 46.4102C11.4753 46.4054 11.4594 46.3962 11.4346 46.3867L10.3545 45.9736C9.628 45.6976 9.06632 45.1709 8.75687 44.4453L8.52738 43.9277L8.30863 43.3994C8.19826 43.1411 8.05854 42.9075 7.90628 42.6875L7.59671 42.2266L7.27445 41.7676C6.96112 41.3137 6.74307 40.8112 6.61917 40.2734L6.4932 39.7334L6.36624 39.2041C6.28873 38.867 6.20655 38.5234 6.11429 38.1816L5.97562 37.6416L5.8262 37.1016C5.70681 36.6585 5.62086 36.2087 5.58499 35.7568L5.55081 35.2168L5.50394 34.6768C5.49318 34.5433 5.45085 34.3933 5.35452 34.2168L5.06839 33.7002L4.82718 33.252L4.3096 33.1602L3.71195 33.0449C3.30293 32.966 2.81551 32.7785 2.43655 32.3555C2.04572 31.919 1.91326 31.3979 1.90726 30.9414L1.88382 29.8154C1.88192 29.6688 1.85391 29.5138 1.77054 29.3438L1.50589 28.8154L1.25198 28.2754C1.01096 27.784 0.847819 27.2634 0.781281 26.7236L0.711946 26.1836L0.643586 25.6318C0.596427 25.2493 0.560584 24.8693 0.528352 24.4941L0.436555 23.4258C0.377303 22.7361 0.546245 22.0845 0.850617 21.5059L1.16019 20.9316L1.45902 20.3574C1.54052 20.2028 1.53221 20.1226 1.52835 20.0928L1.45902 19.541L1.39066 18.9775C1.28107 18.1306 1.56729 17.3385 2.19534 16.7598L3.02249 16.002C3.17458 15.8618 3.2858 15.7023 3.36722 15.541L3.60941 15.0586L3.86136 14.5762C4.01452 14.2728 4.15628 13.9725 4.28616 13.6807L4.4932 13.209L4.70023 12.7256C4.83293 12.4272 4.96971 12.1126 5.10257 11.7842L5.3096 11.2666L5.52738 10.7607C5.61833 10.5359 5.67416 10.2842 5.71097 10.0137L5.79202 9.43945L5.87308 8.85352C5.99258 7.98617 6.49247 7.31865 7.18265 6.8877L7.73441 6.54297L8.27445 6.19922C8.34411 6.15571 8.37301 6.12407 8.37796 6.11816V6.1416L8.69925 5.10645C8.89501 4.49551 9.25521 3.96769 9.74515 3.55566L10.1592 3.19922L10.585 2.84277C10.9342 2.54979 11.3132 2.29487 11.71 2.07324L12.6534 1.54395C13.2226 1.22614 13.8722 1.07959 14.5489 1.17578L15.044 1.24512L15.5264 1.31445C15.6395 1.3305 15.8203 1.32784 16.0782 1.26855L17.2735 0.992188Z" fill="#76EECC"/>
<path d="M53.7959 0.268555C54.0191 0.270844 54.254 0.299678 54.4854 0.371094C54.7159 0.44271 54.9194 0.556115 55.1055 0.682617L55.6006 1.11914L55.9912 1.56738L56.3477 1.99219L56.876 2.01562L57.4502 2.0498C57.6449 2.05878 57.8216 2.03733 57.9795 1.98145L58.4961 1.79688L59.0137 1.60156C59.2781 1.50787 59.5684 1.38957 59.876 1.22266L60.9785 0.625L61.7022 0.360352C61.9915 0.313366 62.3234 0.324757 62.668 0.452148C63.0015 0.575602 63.2504 0.778355 63.4385 0.992188L63.8399 1.63574L64.3457 2.83105C64.4469 3.06858 64.5464 3.21125 64.6328 3.29102L65.4375 4.02637C65.8081 4.36725 66.1247 4.75534 66.3799 5.1875L66.6563 5.64648L66.92 6.10645C67.1049 6.42015 67.2975 6.74323 67.4834 7.07227L67.7588 7.55469L68.0235 8.03809C68.1468 8.25616 68.3049 8.45472 68.4834 8.64648L68.8623 9.05957L69.2539 9.47363C69.5453 9.78629 69.8168 10.1145 70.0694 10.4512L70.4024 10.8877L70.7237 11.3359L71.0352 11.8418C71.2721 12.3583 71.3309 12.9202 71.253 13.4736L71.1612 14.0938L71.0801 14.7031V14.7256L71.0928 14.749L71.8272 15.7607C72.2723 16.3706 72.5009 17.0992 72.4024 17.8857L72.333 18.4492L72.253 19.0244C72.1781 19.6194 71.9789 20.1802 71.667 20.6904L71.3555 21.1963L71.0567 21.6787L71.0694 21.7021L71.2295 22.334L71.4024 22.9541C71.5641 23.5565 71.6128 24.1962 71.46 24.8271L71.2061 25.8623C71.0415 26.5351 70.6631 27.0897 70.1494 27.5176L69.7129 27.8848L69.4375 28.1025L69.4717 28.3555L69.5293 28.873C69.6412 29.8938 69.0829 30.6607 68.4717 31.1377L67.92 31.5625L67.3682 31.999C67.1028 32.2067 67.0049 32.3433 66.9776 32.3896L66.7481 32.8145L66.5186 33.2285C66.4072 33.4304 66.2833 33.6996 66.1504 34.0449L65.6905 35.2168C65.5884 35.483 65.5425 35.7226 65.5293 35.9297L65.4951 36.4814L65.461 37.0449C65.4352 37.4511 65.3894 37.8778 65.335 38.3076L65.2647 38.9053L65.1856 39.5146C65.086 40.2907 64.7077 40.9801 64.0469 41.457L63.5752 41.79L63.1162 42.124C63.0473 42.1737 63.02 42.2179 63.001 42.2734L62.8174 42.8018L62.6446 43.3301C62.4519 43.8938 62.1357 44.396 61.7022 44.8125L61.3116 45.1807L60.9326 45.5488C60.6835 45.7882 60.4298 46.0398 60.1748 46.2949L59.7842 46.6855L59.3936 47.0889C59.2304 47.2521 59.083 47.4306 58.9678 47.6396L58.7032 48.1338L58.4278 48.6289C58.223 49.0008 57.9977 49.3559 57.7608 49.6973L57.1407 50.5938C56.8773 50.9732 56.5778 51.3303 56.2432 51.6514L55.8418 52.0303L55.4512 52.4092C55.1279 52.7194 54.7687 53.0103 54.3819 53.2832L53.877 53.6396L53.4287 53.9609L53.3819 54.4316L53.3369 55.0068C53.2813 55.5881 53.104 56.1427 52.8076 56.6504L52.2559 57.5928C52.146 57.7809 52.0495 58.007 51.9805 58.2705L51.6817 59.4199C51.4981 60.1165 51.103 60.7095 50.5205 61.1436L50.0606 61.4883L49.5899 61.8447C49.2712 62.0822 48.9474 62.3118 48.6358 62.5342L48.1875 62.8564L47.7285 63.1777C47.5357 63.3153 47.3692 63.4775 47.2227 63.6602L46.878 64.0977L46.5215 64.5342C46.2639 64.856 45.9884 65.1675 45.7051 65.4648L44.9473 66.2695C44.5589 66.6769 44.1024 67.0006 43.5909 67.2344L43.0616 67.4639L42.5332 67.7051C42.2764 67.8226 42.0453 67.9682 41.8438 68.1191L40.9707 68.7637C40.6072 69.0359 40.2187 69.2841 39.8096 69.4873L39.6104 69.584L39.5948 69.4443V69.3975L39.9463 68.917L40.2862 68.4248C40.5944 67.9865 40.8369 67.5123 41.001 67.0068L41.1651 66.4678L41.3409 65.9404C41.5301 65.3576 41.5782 64.7502 41.5049 64.1475L41.4346 63.5381L41.3526 62.9287C41.3375 62.8041 41.3634 62.7417 41.3877 62.6943L41.6573 62.1787L41.9268 61.6748C42.1992 61.156 42.3612 60.5947 42.4073 60.0107L42.4424 59.4365L42.4893 58.8623C42.5001 58.7247 42.5398 58.6005 42.6182 58.4756L42.9346 57.9834L43.2393 57.4912C43.6033 56.9139 43.8282 56.1833 43.6377 55.3936L43.5323 54.9365L43.4151 54.4912L43.2159 53.9521C42.9621 53.4489 42.5596 53.0723 42.1026 52.8154L41.1416 52.2764C40.6547 52.0028 40.1242 51.8265 39.5713 51.749L39.0088 51.667L38.458 51.585C37.9472 51.5137 37.4281 51.5166 36.9112 51.585L36.3135 51.667L35.7276 51.749C35.479 51.7818 35.25 51.7722 35.0362 51.7373L34.4737 51.6436L33.9229 51.5498C33.8191 51.5326 33.6839 51.4952 33.5244 51.374L33.0323 50.9873L32.5284 50.6123C31.9499 50.1731 31.2738 49.9777 30.5596 50.0264L30.7002 49.9561L31.2159 49.6865C31.6999 49.4277 32.131 49.089 32.5049 48.6904L33.2784 47.8701C33.4931 47.6413 33.728 47.4275 33.9698 47.2256L34.8369 46.499C35.1917 46.2023 35.5238 45.8809 35.8213 45.5264L36.5479 44.6592C36.834 44.3181 37.0921 43.9501 37.333 43.5693L37.6377 43.0889L37.9541 42.5967C38.0413 42.4589 38.1469 42.3542 38.2823 42.2686L38.7627 41.9639L39.2549 41.6475C39.7784 41.3163 40.2031 40.8775 40.5205 40.3467L40.8252 39.8428L41.1182 39.3506C41.1619 39.2774 41.2188 39.2226 41.3174 39.1748L42.3955 38.6592C42.9203 38.4057 43.3787 38.0527 43.7666 37.6162L44.5166 36.7725C44.8174 36.4339 45.1057 36.0706 45.3604 35.6826L45.6768 35.1904L46.0049 34.6982C46.1463 34.4829 46.2869 34.3313 46.4151 34.2295L46.8252 33.9014L47.2237 33.585C47.3965 33.4478 47.6992 33.1948 47.8916 32.8232C47.9976 32.6178 48.1087 32.2831 48.0674 31.874C48.0271 31.4861 47.8576 31.168 47.6455 30.9365L47.3994 30.6904L47.2354 30.5381L46.7315 30.21C46.573 30.1367 46.4274 30.085 46.3213 30.0576C46.0779 29.9952 45.8219 29.9681 45.583 29.9521L45.0205 29.917L44.4463 29.8818C44.2345 29.8676 44.0335 29.8122 43.8369 29.7295L43.3096 29.5068L42.7823 29.2959C42.2584 29.0758 41.7096 28.9568 41.1416 28.9443L39.9815 28.9209C39.7642 28.9161 39.5634 28.8738 39.3721 28.8037L38.833 28.6045L38.3057 28.4053C38.1885 28.3612 38.0347 28.2735 37.8487 28.0889L37.3682 27.6201L36.8994 27.1514C36.4793 26.7333 35.9612 26.4235 35.3643 26.3076L34.7432 26.2607L34.169 26.2725L33.583 26.2959C33.1001 26.3098 32.613 26.3663 32.1299 26.4717L30.9346 26.7295C30.7512 26.7693 30.5922 26.7664 30.4424 26.7295L30.1846 26.6592L30.3252 26.1436C30.4143 25.786 30.5196 25.4976 30.6299 25.2764L30.876 24.7725L31.1338 24.2686C31.2114 24.1128 31.3182 23.96 31.4737 23.8232L31.919 23.4365L32.3526 23.0498C32.6993 22.7448 33.0298 22.4229 33.3252 22.0771L33.6885 21.6436L34.0635 21.1982C34.495 20.6921 34.7637 20.0991 34.8721 19.4521L34.9659 18.8545L35.0713 18.2568C35.1255 17.9317 35.2002 17.6231 35.294 17.3311L35.4698 16.7803L35.6104 16.3115C35.6183 16.3074 35.6345 16.3048 35.6455 16.2998L36.2666 16.0186L36.8994 15.7373C37.9786 15.2431 38.4077 14.16 38.5869 13.2529L38.7969 12.1875L38.8555 12.1631C38.8752 12.1547 38.8915 12.1462 38.9014 12.1406L39.1201 11.6924L39.3389 11.209C39.4236 11.0275 39.5169 10.7734 39.5801 10.4277L39.6944 9.77246L39.8213 9.10645L39.9825 8.53125C40.2112 7.95439 40.6381 7.42221 41.3496 7.15234L41.8321 6.96875L42.3272 6.78418C42.5035 6.71664 42.6833 6.61649 42.8672 6.47461L43.3145 6.12891L43.752 5.7959C43.9058 5.67686 44.0214 5.53056 44.1192 5.37109L44.418 4.91113L44.7061 4.43945C44.9652 4.0167 45.2745 3.62484 45.6358 3.29102L46.0157 2.93457L46.4063 2.57812C46.8387 2.17949 47.3505 1.8982 47.9229 1.75098L48.4287 1.625L48.9229 1.49805C49.2297 1.41927 49.5285 1.33476 49.8086 1.24512L50.2793 1.0957L50.7393 0.946289C51.0968 0.83183 51.4967 0.725558 51.9336 0.625L52.543 0.475586L53.1641 0.336914L53.7959 0.268555Z" fill="#76EECC"/>
</svg>
