<svg width="73" height="72" viewBox="0 0 73 72" fill="none" xmlns="http://www.w3.org/2000/svg">
<path d="M53.551 0.136658C53.7741 0.138946 54.009 0.168224 54.2403 0.239641C54.4709 0.311271 54.6749 0.423906 54.861 0.550445L55.3555 0.987426L55.7461 1.43554L56.1024 1.86046L56.6312 1.88366L57.2055 1.91798C57.4001 1.92696 57.5764 1.90522 57.7343 1.84933L58.2511 1.6647L58.7688 1.46987C59.0332 1.37618 59.323 1.25733 59.6307 1.09041L60.7338 0.492923L61.4575 0.228507C61.7468 0.181514 62.0786 0.1929 62.4233 0.320357C62.7568 0.44381 63.0053 0.646488 63.1933 0.860321L63.5951 1.5042L64.1007 2.69917C64.202 2.93701 64.3018 3.07961 64.3883 3.15934L65.1927 3.89414C65.5634 4.2351 65.8801 4.62343 66.1353 5.05571L66.4109 5.51496L66.6753 5.97514C66.8602 6.28885 67.0525 6.61098 67.2384 6.94002L67.514 7.42246L67.7784 7.90583C67.9018 8.12407 68.0599 8.32257 68.2386 8.51445L68.6171 8.92824L69.0086 9.34203C69.3 9.65471 69.5716 9.98228 69.8241 10.319L70.1572 10.756L70.4791 11.2041L70.79 11.7097C71.027 12.2263 71.086 12.7881 71.008 13.3417L70.9161 13.9623L70.8354 14.571V14.5942L70.8475 14.6173L71.5823 15.6286C72.0275 16.2386 72.2561 16.9675 72.1575 17.7542L72.0879 18.3173L72.0081 18.8925C71.9333 19.4876 71.7337 20.0484 71.4218 20.5588L71.111 21.0644L70.8122 21.5469L70.8243 21.5701L70.9848 22.2019L71.1573 22.8226C71.3191 23.4251 71.3678 24.0646 71.2149 24.6958L70.9616 25.7302C70.7971 26.4032 70.4186 26.9574 69.9049 27.3854L69.4679 27.7528L69.1923 27.9708L69.2267 28.2241L69.2842 28.7408C69.3963 29.7618 68.8378 30.5285 68.2265 31.0055L67.6754 31.4305L67.1234 31.8674C66.8579 32.0752 66.7601 32.2117 66.7328 32.258L66.5027 32.683L66.2736 33.0967C66.1622 33.2986 66.0382 33.5678 65.9052 33.9132L65.446 35.085C65.3439 35.3512 65.2977 35.5904 65.2845 35.7975L65.2502 36.3495L65.2159 36.9127C65.1901 37.3192 65.1442 37.7461 65.0897 38.1763L65.0201 38.7738L64.9403 39.3833C64.8408 40.1594 64.4628 40.8483 63.802 41.3252L63.3307 41.6582L62.8714 41.9922C62.8025 42.042 62.7753 42.086 62.7564 42.1416L62.5727 42.6704L62.4001 43.1983C62.2074 43.7621 61.891 44.2644 61.4575 44.6809L61.0669 45.0493L60.6874 45.4166C60.4382 45.6561 60.1846 45.9082 59.9294 46.1635L59.5388 46.5541L59.1482 46.9568C58.985 47.1201 58.8376 47.2987 58.7224 47.5078L58.458 48.0024L58.1824 48.4969C57.9777 48.8688 57.7532 49.2242 57.5163 49.5657L56.8956 50.4619C56.6323 50.8413 56.3331 51.1984 55.9985 51.5195L55.5967 51.8981L55.2061 52.2775C54.8828 52.5878 54.5241 52.8786 54.1373 53.1515L53.6317 53.5078L53.1836 53.8288L53.1372 54.3001L53.0917 54.8753C53.0361 55.4566 52.8593 56.0107 52.5629 56.5184L52.0109 57.461C51.9009 57.6492 51.8043 57.8755 51.7353 58.1392L51.4366 59.2878C51.253 59.9845 50.8585 60.5775 50.2759 61.0116L49.8158 61.3567L49.3445 61.713C49.0257 61.9504 48.7023 62.18 48.3907 62.4023L47.9426 62.7243L47.4833 63.0462C47.2904 63.1839 47.1242 63.3459 46.9777 63.5286L46.6326 63.9656L46.2763 64.4026C46.0186 64.7246 45.7432 65.0357 45.4599 65.3332L44.7019 66.1375C44.3134 66.545 43.8572 66.8686 43.3455 67.1024L42.8166 67.3325L42.2887 67.5737C42.0317 67.6913 41.8001 67.8365 41.5985 67.9875L40.7254 68.6314C40.3619 68.9037 39.9739 69.1519 39.5648 69.3551L38.5767 69.8384C38.264 69.9937 37.9815 70.1455 37.726 70.2865L37.301 70.5157L36.8872 70.7458C36.4533 70.9854 35.8958 71.1008 35.3128 70.9072C34.7864 70.7311 34.4268 70.3634 34.2097 70.0676L33.8534 69.5852L33.4972 69.0906C33.4492 69.0253 33.4052 68.9734 33.3701 68.9301L33.3014 68.8615L33.2439 68.8272L33.037 68.7233C32.882 68.643 32.6348 68.5106 32.3133 68.3327L31.8188 68.0571L31.3364 67.7927C30.8128 67.5029 30.3752 67.1032 30.0375 66.6089L29.4168 65.6894C29.3371 65.5725 29.2692 65.5029 29.2331 65.4593L28.9919 65.2988C28.6352 65.0663 28.4254 64.7443 28.3248 64.5631C28.2081 64.3526 28.124 64.115 28.0493 63.896L27.8656 63.3793L27.693 62.8625C27.6073 62.6111 27.4871 62.3622 27.3479 62.1268L27.0723 61.6443L26.7847 61.161C26.6975 61.0141 26.5784 60.8932 26.4285 60.7824L25.9692 60.4373L25.509 60.1042H25.4172L24.7742 60.1618L24.1192 60.2304C23.4065 60.2979 22.6863 60.1563 22.0503 59.7359L21.1077 59.1152C20.7394 58.8718 20.3875 58.6032 20.0509 58.3108L19.177 57.5529C18.5916 57.0437 18.2596 56.3717 18.1657 55.6333L18.085 55.0126L18.0163 54.404C17.9748 54.0774 17.9058 53.7806 17.8215 53.53L17.6369 53.0021L17.4652 52.4733C17.435 52.3851 17.3773 52.2905 17.2583 52.1857L16.8093 51.7951L16.3612 51.3924C16.0407 51.1104 15.7383 50.8267 15.4538 50.5426L15.0512 50.152L14.6606 49.7605C14.475 49.5753 14.2728 49.4076 14.052 49.2669L13.5806 48.9682L13.1205 48.6694C12.5962 48.3355 12.1752 47.8906 11.868 47.3585L11.5804 46.8417L11.2816 46.3361C11.2607 46.2999 11.241 46.2827 11.2362 46.2786C11.23 46.2738 11.2146 46.2648 11.1898 46.2554L10.1098 45.8416C9.38326 45.5655 8.82168 45.0392 8.51221 44.3135L8.28213 43.7958L8.0641 43.2679C7.95368 43.0094 7.81383 42.7756 7.66145 42.5554L7.35157 42.0952L7.02963 41.636C6.71619 41.182 6.49852 40.6792 6.37462 40.1413L6.24845 39.6014L6.12134 39.0725C6.04382 38.7354 5.96126 38.3919 5.86899 38.0501L5.73075 37.5102L5.58138 36.9702C5.46191 36.5269 5.37603 36.077 5.34016 35.6249L5.30583 35.085L5.25944 34.545C5.24869 34.4115 5.20641 34.2614 5.11007 34.0848L4.82339 33.5681L4.58216 33.1199L4.06447 33.0281L3.46698 32.913C3.05792 32.8341 2.57027 32.6469 2.19129 32.2237C1.80045 31.7872 1.66846 31.2663 1.66246 30.8098L1.63927 29.6835C1.63737 29.5368 1.60854 29.3822 1.52515 29.2122L1.26073 28.6833L1.00745 28.1434C0.766432 27.652 0.602681 27.1319 0.536143 26.5921L0.467488 26.0522L0.398833 25.5001C0.351668 25.1175 0.316024 24.7379 0.283789 24.3627L0.191939 23.2939C0.132688 22.6043 0.301354 21.953 0.605726 21.3743L0.915603 20.8L1.21435 20.2257C1.29585 20.0712 1.28686 19.9912 1.283 19.9613L1.21435 19.4093L1.14569 18.8461C1.03597 17.9991 1.32192 17.2066 1.95007 16.6278L2.77764 15.8698C2.92973 15.7297 3.04043 15.571 3.12185 15.4097L3.364 14.9272L3.61635 14.4448C3.76963 14.1412 3.91131 13.8406 4.04127 13.5486L4.24817 13.0772L4.45506 12.5939C4.58781 12.2954 4.72481 11.9807 4.85771 11.6522L5.06461 11.1345L5.28263 10.6288C5.37358 10.404 5.42952 10.1525 5.46633 9.88199L5.54705 9.3077L5.62777 8.72135C5.74727 7.854 6.24761 7.18728 6.93778 6.75632L7.48981 6.41119L8.02977 6.06699C8.09944 6.02348 8.12781 5.99217 8.13275 5.98627V6.00946L8.45469 4.975C8.65045 4.36394 9.01025 3.83585 9.50029 3.42376L9.91408 3.06749L10.3399 2.71123C10.6892 2.4181 11.0684 2.16289 11.4653 1.94118L12.4079 1.41235C12.9774 1.09431 13.6274 0.947694 14.3043 1.04402L14.7988 1.1136L15.2813 1.18226C15.3943 1.19835 15.5752 1.19614 15.8333 1.1368L17.0282 0.860321C17.5519 0.740528 18.1006 0.744694 18.6259 0.917843L19.1426 1.14793L19.6028 1.42348L20.0621 1.6879C20.2348 1.78743 20.4434 1.86132 20.6828 1.91798L21.2338 2.05622L21.7859 2.1824C21.8646 2.20104 21.9352 2.20506 22.0271 2.17034L23.108 1.75655L23.7166 1.60718C24.1278 1.55506 24.5424 1.60359 24.9347 1.76861L25.4979 2.10168L25.9228 2.42362L26.3487 2.75669C26.5961 2.94871 26.8571 3.13421 27.1298 3.30872L27.6012 3.60746L28.0604 3.9062C28.4871 4.17901 28.8816 4.51377 29.1867 4.92861L29.4511 5.28487L29.7044 5.64114C29.8992 5.90601 30.1198 6.21387 30.3474 6.56056L30.6693 7.0662L31.0033 7.5607C31.1377 7.76467 31.2678 7.89157 31.3818 7.97449L31.7956 8.28437L32.2094 8.58311C32.5631 8.84027 32.8975 9.13753 33.1975 9.45707L33.91 10.2151C34.235 10.5621 34.5144 10.9514 34.7497 11.3757L35.3008 12.3647C35.3911 12.5278 35.5005 12.6603 35.6348 12.7664L36.0708 13.1116L36.1515 13.1802L36.4159 13.0429C36.7268 12.8663 37.0913 12.6868 37.4959 12.5141L38.059 12.2729L38.611 12.0316C38.6309 12.0232 38.6466 12.014 38.6565 12.0084L38.8755 11.5603L39.0935 11.077C39.1782 10.8955 39.2715 10.6415 39.3347 10.2958L39.4498 9.64077L39.5759 8.97463L39.7374 8.39941C39.9661 7.82252 40.3933 7.29059 41.1049 7.02074L41.5873 6.83704L42.0819 6.65241C42.2582 6.58487 42.4378 6.4845 42.6218 6.34254L43.0699 5.9974L43.5069 5.66433C43.6608 5.54526 43.7765 5.39894 43.8743 5.23941L44.1731 4.77924L44.4607 4.30793C44.7199 3.88496 45.0298 3.49331 45.3912 3.15934L45.7707 2.80308L46.1613 2.44681C46.5938 2.048 47.1055 1.76648 47.6782 1.61924L48.1838 1.49306L48.6783 1.36596C48.9852 1.28718 49.2833 1.20325 49.5634 1.1136L50.0347 0.964232L50.494 0.81486C50.8517 0.70032 51.2517 0.593544 51.6889 0.492923L52.2985 0.343551L52.9192 0.205313L53.551 0.136658ZM52.9646 3.21687L52.344 3.35418C51.9667 3.44108 51.6506 3.53523 51.3902 3.61859L50.931 3.76796L50.4596 3.9062C50.1211 4.01459 49.774 4.12367 49.414 4.21608L48.9084 4.34318L48.4139 4.46936C48.3222 4.4929 48.2411 4.53354 48.1606 4.60667L47.77 4.96294L47.3794 5.33126C47.2284 5.47162 47.0885 5.63696 46.9657 5.8369L46.3914 6.77952C46.106 7.24517 45.7421 7.65111 45.3105 7.98562L44.8624 8.33075L44.4263 8.66382C44.0259 8.97345 43.5855 9.2327 43.1163 9.41068L42.6329 9.59438L42.4261 9.66397L42.3463 10.1696L42.2192 10.8246C42.1216 11.3579 41.9754 11.8699 41.7599 12.3304L41.541 12.8128L41.3118 13.2953C40.9854 13.9903 40.425 14.4646 39.7717 14.7435L38.6454 15.226C38.3049 15.3714 38.0466 15.4906 37.8642 15.5943L37.4959 15.8123L37.1285 16.0192C36.7264 16.2478 36.2541 16.3397 35.7721 16.2604C35.3217 16.186 34.9531 15.9811 34.6801 15.7659L33.807 15.0766C33.3614 14.7241 33.0023 14.2863 32.7271 13.7898L32.1751 12.8008C32.0471 12.5702 31.907 12.382 31.7613 12.2265L31.0488 11.4685C30.8745 11.2828 30.6888 11.1106 30.4856 10.9628L30.0607 10.6632L29.6469 10.3533C29.2059 10.032 28.8438 9.62647 28.5438 9.16946L28.2098 8.67496L27.8888 8.18138C27.6806 7.86433 27.4924 7.59982 27.3367 7.38814L26.8079 6.67561C26.7625 6.61388 26.6686 6.51187 26.4748 6.388L26.0156 6.08925L25.5443 5.79051C25.1976 5.56881 24.8641 5.32632 24.5441 5.07798L24.1192 4.75604L23.9003 4.5844L23.6015 4.71058L23.0616 4.91748C22.4312 5.15557 21.7675 5.19991 21.1077 5.04365L20.0045 4.7913C19.5061 4.67327 19.0294 4.48172 18.5906 4.22814L18.1314 3.96372L17.7176 3.7225C17.7088 3.72387 17.6969 3.73046 17.6833 3.73364L17.0858 3.87187L16.4994 4.00918C15.9657 4.1322 15.4102 4.17828 14.8675 4.10103L14.385 4.02125L13.8905 3.95166C13.8828 3.95427 13.8678 3.96223 13.8451 3.97486L13.3737 4.23927L12.8904 4.50369C12.6585 4.63336 12.4422 4.7897 12.2354 4.96294L11.8104 5.3192L11.3967 5.67547C11.3281 5.73303 11.284 5.79127 11.2584 5.87123L11.0979 6.388L10.9254 6.90569C10.6891 7.64093 10.1934 8.18479 9.59214 8.56084L9.04105 8.90505L8.52335 9.21585L8.46583 9.69829L8.38604 10.2846C8.31775 10.784 8.19316 11.2707 8.00658 11.732L7.79968 12.2497L7.59279 12.7553C7.44831 13.1124 7.29189 13.4588 7.14468 13.7898L6.93778 14.2722L6.73089 14.7435C6.5803 15.082 6.41037 15.4213 6.23638 15.7659L5.99516 16.2493L5.75394 16.7429C5.50778 17.2304 5.16775 17.6603 4.76586 18.0306L4.35208 18.4092L4.07653 18.6504L4.13312 19.0298L4.2027 19.593C4.29415 20.3082 4.13257 20.9851 3.81211 21.5933L3.21463 22.7419C3.1174 22.9263 3.11992 23.0177 3.12185 23.0406L3.16824 23.5815L3.21463 24.1094C3.24368 24.4475 3.27475 24.7962 3.31761 25.1439L3.38626 25.6838L3.45585 26.2359C3.47917 26.4248 3.53359 26.6271 3.63955 26.8445L3.90396 27.3854L4.16838 27.9133C4.43306 28.4528 4.57366 29.0338 4.58216 29.638V30.1316L4.61649 30.1436L5.22511 30.2578C5.83243 30.3753 6.36486 30.6677 6.76522 31.1197L7.12148 31.6262L7.40909 32.143L7.68464 32.6598C7.96528 33.1707 8.14379 33.7292 8.19028 34.3149L8.28213 35.3948C8.30339 35.6616 8.34627 35.9368 8.42036 36.2113L8.56974 36.7512L8.70797 37.2912C8.80937 37.6669 8.90892 38.0446 8.99466 38.4175L9.12083 38.9464L9.23588 39.4863C9.27549 39.6562 9.34982 39.818 9.45483 39.9697L9.76471 40.4178L10.0866 40.8771C10.3551 41.2649 10.5782 41.6808 10.7648 42.1184L10.9949 42.6352L11.1786 43.1065L11.6954 43.3023L12.2354 43.5091C12.92 43.7692 13.4697 44.2356 13.833 44.8646L14.1206 45.3703L14.4193 45.888C14.5061 46.0381 14.5961 46.1348 14.6949 46.1978L15.1662 46.4854L15.6375 46.7842C16.039 47.0399 16.4038 47.344 16.7406 47.6804L17.5218 48.4625C17.7599 48.7003 18.0253 48.941 18.3039 49.1862L18.7521 49.5768L19.2002 49.9794C19.6794 50.4012 20.0506 50.9259 20.2578 51.5418L20.4295 52.0706L20.6141 52.5995C20.7661 53.0523 20.872 53.5293 20.9351 54.0245L21.0047 54.6452L21.0845 55.2659C21.088 55.2929 21.0936 55.3135 21.0965 55.3234V55.3345H21.1077L21.9816 56.0935C22.2221 56.3021 22.4703 56.4971 22.7285 56.6678L23.6711 57.2884C23.676 57.2917 23.6819 57.2967 23.6934 57.2996C23.7104 57.3034 23.76 57.3075 23.8427 57.2996L24.4866 57.2421L25.1416 57.1734C25.6943 57.1207 26.2499 57.199 26.7625 57.4378L27.2681 57.7366L27.7273 58.0696L28.1755 58.4148C28.6363 58.7552 29.0218 59.1736 29.3138 59.6673L29.8881 60.6331C30.1275 61.0384 30.3232 61.4653 30.4745 61.9088L30.6582 62.4255L30.8307 62.9544C30.8348 62.9663 30.838 62.9779 30.8419 62.9887L30.9458 63.0573C31.1804 63.2105 31.3618 63.4084 31.4737 63.5398C31.5993 63.6878 31.7222 63.8585 31.842 64.0343L32.4627 64.9537C32.5405 65.0673 32.6387 65.1502 32.7614 65.2181L33.2439 65.4825L33.7384 65.7581C34.0573 65.9346 34.2659 66.0545 34.3813 66.1143L34.7951 66.3212C35.0801 66.4691 35.2955 66.6759 35.4279 66.8157C35.5783 66.9749 35.7235 67.1644 35.8639 67.3557L36.1747 67.7695L36.3009 67.712C36.5992 67.5473 36.9206 67.3778 37.2658 67.2063L37.7603 66.9651L38.2659 66.7118C38.5149 66.5878 38.7504 66.4492 38.9673 66.2869L39.4034 65.9538L39.8404 65.6319C40.2204 65.3473 40.6309 65.0969 41.0706 64.8962L41.5985 64.6661L42.1162 64.4249C42.3013 64.3404 42.4552 64.2291 42.5754 64.1029L43.3343 63.2986C43.5583 63.0633 43.7736 62.8193 43.9782 62.5638L44.3345 62.1268L44.6787 61.6898C44.9944 61.2955 45.3595 60.9493 45.7707 60.6553L46.2299 60.3334L46.6901 60.0003C46.984 59.7905 47.2838 59.5707 47.5863 59.3453L48.0576 59.0011L48.5169 58.656C48.5553 58.6274 48.5807 58.605 48.5976 58.5409L48.8963 57.3914C49.0272 56.8911 49.2153 56.4172 49.4716 55.9784L50.0227 55.0358C50.0912 54.9184 50.1431 54.7789 50.1609 54.5988L50.2064 54.0245L50.2639 53.4502L50.391 52.8407C50.5777 52.2738 50.9429 51.798 51.4366 51.45L51.9422 51.1058L52.4358 50.7495C52.7157 50.5522 52.9653 50.3498 53.1715 50.152L53.5621 49.7725L53.9648 49.3931C54.1599 49.2058 54.331 49.0005 54.4815 48.7835L55.1022 47.8873C55.2785 47.6332 55.4511 47.3675 55.6079 47.0829L55.8723 46.5894L56.1478 46.0949C56.3939 45.6478 56.6966 45.2372 57.0561 44.8767L57.8494 44.0834C58.1179 43.8148 58.3897 43.5559 58.6537 43.3023L59.4238 42.5554C59.5022 42.4789 59.5605 42.3819 59.6075 42.2446L59.9749 41.1879C60.1959 40.5418 60.6001 40.0094 61.1476 39.6134L61.6189 39.2683L62.0206 38.9696L62.1014 38.4064L62.17 37.7968C62.2172 37.4238 62.2524 37.0675 62.2739 36.728L62.3082 36.1649L62.3426 35.6138C62.3767 35.0757 62.5018 34.5402 62.6988 34.0273L63.159 32.8555C63.3263 32.4209 63.5051 32.0225 63.699 31.6717L64.1582 30.8441C64.4413 30.3318 64.8628 29.9012 65.3189 29.5452L65.8709 29.1203L66.319 28.764L66.2958 28.546L66.2383 28.0283C66.1421 27.1393 66.5229 26.376 67.1466 25.8564L67.5836 25.5001L68.0317 25.1327C68.1015 25.0742 68.0976 25.0401 68.1003 25.0288L68.2265 24.5121L68.3536 24.0064C68.3666 23.953 68.3803 23.8251 68.3184 23.5926L68.1467 22.9608L67.9853 22.3281C67.779 21.5584 67.8468 20.7571 68.284 20.0411L68.606 19.5355L68.9168 19.0187C69.0192 18.8501 69.068 18.6872 69.0884 18.5242L69.1691 17.961L69.2378 17.4099C69.2343 17.4029 69.2195 17.3855 69.2035 17.3636L68.4677 16.3523C67.999 15.71 67.8044 14.9494 67.9166 14.1572L68.0085 13.5486L68.0892 12.9279V12.9047L67.8016 12.5252L67.4685 12.0882C67.2811 11.8385 67.0795 11.5904 66.859 11.3534L66.4684 10.9397L66.0889 10.5259C65.7549 10.1674 65.4557 9.77742 65.2159 9.35316L64.9515 8.87072L64.6759 8.38828C64.4987 8.07458 64.3224 7.76616 64.1471 7.46885L63.8715 7.00868L63.6071 6.54943C63.5021 6.37143 63.3683 6.20561 63.2045 6.05493L62.4001 5.3192C61.9532 4.90778 61.6238 4.40209 61.3888 3.84868L61.2626 3.54994L61.0326 3.67611C60.6073 3.90683 60.1733 4.09903 59.7457 4.25041L58.7113 4.61873C58.1775 4.80766 57.6209 4.88768 57.0561 4.85995L56.4818 4.82563L55.9066 4.80243C55.1082 4.76178 54.4168 4.40462 53.9073 3.81435L53.5167 3.36624L53.3209 3.12502L52.9646 3.21687Z" fill="black"/>
</svg>
