<svg width="27" height="25" viewBox="0 0 27 25" fill="none" xmlns="http://www.w3.org/2000/svg">
<path d="M24.4862 0.394357C25.0968 -0.165379 26.0455 -0.124358 26.6053 0.486154C27.155 1.08588 27.1234 2.00984 26.5438 2.57307L26.5096 2.61897L26.4803 2.65608L26.449 2.69123L26.3602 2.79182C26.2975 2.8628 26.1388 3.0401 25.8895 3.31916L25.1365 4.16291C24.809 4.52949 24.4433 4.85537 24.0408 5.1385L23.1131 5.79084C22.9976 5.87212 22.8965 5.97966 22.8094 6.13654L22.2342 7.17365C21.9639 7.66082 21.6214 8.09445 21.2049 8.46174L20.3612 9.20588C19.8442 9.66182 19.2256 9.92681 18.574 10.0496L17.3524 10.2791L16.8758 11.2303C16.7222 11.5366 16.5124 11.8225 16.2703 12.0916L16.5877 12.3729C17.1536 12.8738 17.4755 13.5274 17.6278 14.2137L17.8572 15.2469L18.8406 15.4207C19.6628 15.5662 20.3715 16.0267 20.7781 16.8026L20.8553 16.9617L21.3553 18.0809C21.4401 18.2708 21.5388 18.3955 21.6414 18.4842L22.494 19.2196C22.6611 19.3637 22.8581 19.4901 23.0926 19.5946L24.1766 20.077C24.892 20.3956 25.4804 21.0166 25.9637 21.6561L26.5487 22.4305C27.124 22.9941 27.1536 23.9153 26.6053 24.5135C26.0455 25.124 25.0968 25.165 24.4862 24.6053L24.4129 24.5379L24.3113 24.4461L24.2293 24.3367L23.5701 23.4647C23.3873 23.2228 23.2362 23.0557 23.118 22.9461C22.9965 22.8335 22.9415 22.8108 22.9559 22.8172L21.8719 22.3348C21.384 22.1175 20.9359 21.8369 20.535 21.491L19.6824 20.7567C19.2171 20.3553 18.8645 19.8615 18.616 19.3055L18.1893 18.3514L17.0047 18.1434C16.545 18.062 16.0756 17.8624 15.6883 17.4842C15.3037 17.1086 15.0946 16.6489 14.9959 16.2039L14.699 14.8641C14.6754 14.7576 14.6485 14.6945 14.6307 14.6619C14.6142 14.6319 14.6028 14.6219 14.5994 14.619L14.0057 14.0926L13.6961 14.3934C13.2185 14.8553 13.0007 15.1506 12.9246 15.2938L12.3651 16.3475C11.941 17.1457 11.219 17.6098 10.3953 17.7684L9.2342 17.992L8.82307 18.9627C8.57253 19.554 8.19498 20.0734 7.67853 20.4764L6.78889 21.1707C6.55771 21.3511 6.34283 21.5492 6.14436 21.7655L5.38068 22.5975C4.9893 23.0239 4.52457 23.3603 4.00178 23.6072L2.93732 24.1102C2.93488 24.1113 2.93192 24.112 2.92951 24.1131L2.87873 24.2713L2.58674 24.5379L2.5135 24.6053C1.90288 25.165 0.954162 25.124 0.394356 24.5135C-0.0748693 24.0016 -0.120609 23.253 0.236152 22.6942L0.245918 22.6629L0.308418 22.5457L0.374824 22.4227L0.486152 22.243C0.601636 22.0811 0.722032 21.9731 0.786934 21.9178C0.892128 21.8282 0.998092 21.7557 1.08381 21.702C1.25587 21.5941 1.45526 21.4921 1.65607 21.3973L2.72053 20.8944C2.90771 20.8059 3.05308 20.6973 3.17072 20.5692L3.93439 19.7371C4.24492 19.3988 4.58122 19.0879 4.94318 18.8055L5.83283 18.1112C5.90938 18.0514 5.98936 17.9602 6.06037 17.7928L6.54279 16.6541L6.61701 16.494C7.00661 15.7125 7.70267 15.2315 8.53107 15.0721L9.77229 14.8319L10.2752 13.8856C10.4574 13.5427 10.7102 13.2018 11.0057 12.866L10.5389 12.4305C10.1011 12.022 9.7683 11.5315 9.5301 10.9852L9.03791 9.85725C9.03179 9.84323 9.02618 9.83476 9.02326 9.8299L9.02033 9.82893L7.93146 9.35237C7.21457 9.03841 6.68215 8.4935 6.36896 7.79084L5.95197 6.85529L4.75666 6.67072C4.31991 6.60291 3.86867 6.43533 3.47736 6.11018C3.0826 5.78203 2.83216 5.36276 2.69221 4.92756L2.31232 3.7469C2.30601 3.73976 2.29744 3.72972 2.28498 3.7176C2.21689 3.65137 2.0809 3.54494 1.83771 3.41389L0.862129 2.88752L0.698066 2.79963L0.560371 2.67268L0.486152 2.60529C-0.124357 2.04549 -0.165379 1.09677 0.394356 0.486154C0.929786 -0.0977679 1.81961 -0.159357 2.43049 0.325998L3.26154 0.773264C3.97962 1.16028 4.73933 1.73241 5.08771 2.59944L5.15217 2.77619L5.46271 3.74397L6.55256 3.91389C7.38453 4.0431 8.11528 4.49473 8.53107 5.28596L8.61018 5.44904L9.1092 6.56916C9.11571 6.58378 9.12072 6.5934 9.12385 6.59846C9.1261 6.59969 9.12941 6.60204 9.13459 6.60432L10.2235 7.08088C10.9458 7.39717 11.4788 7.94919 11.7879 8.65803L12.2801 9.78694C12.3697 9.99236 12.4744 10.134 12.5848 10.2371L13.202 10.8123L13.4891 10.5867C13.9958 10.1864 14.1622 9.9493 14.1942 9.88557L14.7342 8.8094L14.8153 8.65901C15.2386 7.9275 15.9293 7.49509 16.7176 7.34651L18.0184 7.10139C18.2343 7.06069 18.3312 6.99611 18.3768 6.95588L19.2205 6.21174C19.3667 6.08286 19.4978 5.92181 19.6112 5.7176L20.1863 4.68147C20.4829 4.14698 20.8835 3.69061 21.3865 3.33674L22.3143 2.6844C22.5303 2.53246 22.7247 2.3593 22.8992 2.16389L23.6531 1.32112C23.9053 1.03884 24.0562 0.86878 24.1112 0.806467L24.1688 0.742014L24.241 0.648264L24.3192 0.547678L24.4129 0.46174L24.4862 0.394357Z" fill="black"/>
</svg>
