<svg width="40" height="40" viewBox="0 0 40 40" fill="none" xmlns="http://www.w3.org/2000/svg">
<path d="M26.0147 4.75682C26.717 4.52169 27.4296 4.59229 28.0693 4.91209L29.0264 5.39159C29.0301 5.39035 29.0346 5.38934 29.0391 5.38768L30.1836 4.96581L30.3242 4.91795C30.661 4.81426 31.0449 4.76847 31.4492 4.84666C31.8623 4.92658 32.2114 5.12039 32.4922 5.37206L32.6084 5.48241L33.3818 6.27538C33.7403 6.64253 34.0349 7.05695 34.2529 7.51854L34.6992 8.46288C34.8195 8.71753 34.9569 8.96144 35.1113 9.19432L35.6855 10.0605C36.0681 10.6374 36.2116 11.3007 36.1094 11.9814L35.9541 13.0185C35.8585 13.6552 35.575 14.2143 35.1611 14.6816L34.5166 15.4072L34.8359 16.4951C34.9555 16.9035 34.992 17.388 34.8203 17.8808C34.6474 18.377 34.3138 18.7358 33.9541 18.9805L32.9346 19.6738C32.7875 19.7738 32.7668 19.8352 32.7656 19.8389L32.4092 20.8017C32.3612 20.9315 32.3255 21.1147 32.332 21.373L32.3623 22.583C32.3783 23.2199 32.2351 23.8507 31.875 24.4121L31.3066 25.2978C30.9632 25.833 30.4842 26.2276 29.9316 26.499L28.8584 27.0264C28.7972 27.0564 28.7724 27.0792 28.7666 27.0849C28.7626 27.089 28.7617 27.0895 28.7598 27.0937L28.3311 28.0605C28.1438 28.4821 27.9097 28.8762 27.6289 29.2392L26.9941 30.0596C26.7324 30.398 26.4417 30.7116 26.124 30.999L25.3525 31.6973C25.0841 31.9401 24.8125 32.1779 24.5381 32.4101L23.749 33.0771C23.4564 33.3247 23.1538 33.56 22.8408 33.7822L21.9971 34.3808C21.5171 34.7216 20.7291 35.053 19.877 34.6621L19.2324 34.3662C19.1392 34.3234 18.9114 34.219 18.7207 34.0625C18.665 34.0168 18.5509 33.9178 18.4443 33.7646C18.4048 33.7077 18.3436 33.6097 18.291 33.4775L17.8877 33.2285C17.3456 32.8936 16.9415 32.4205 16.6768 31.8555L16.2012 30.8398C16.1966 30.8301 16.1927 30.8239 16.1904 30.8203C16.1876 30.8188 16.1835 30.8168 16.1777 30.8144L15.1523 30.3926C14.7206 30.2151 14.315 29.9952 13.9395 29.7314L13.0771 29.126C12.606 28.7949 12.2333 28.3664 11.9648 27.8603L11.4561 26.9004C11.3377 26.6773 11.2017 26.4854 11.0508 26.3193L10.3545 25.5527C10.1979 25.3804 10.0144 25.2204 9.80078 25.0742L8.90527 24.4619C8.43838 24.1425 8.05657 23.7322 7.77539 23.2392L7.25098 22.3193C6.97177 21.8298 6.81193 21.2957 6.76074 20.7373L6.66309 19.6826L5.67383 18.9824C4.98941 18.4977 4.56634 17.7486 4.62891 16.8408L4.70703 15.7158C4.72845 15.4052 4.72806 15.0987 4.70606 14.7959L4.625 13.6885C4.569 12.9185 4.83374 12.2207 5.3418 11.6699L6.12988 10.8154C6.26371 10.6704 6.32513 10.5469 6.35449 10.4443L6.64063 9.44432C6.76377 9.01405 6.93338 8.59786 7.14649 8.19725L7.65527 7.24217C7.94128 6.70451 8.35285 6.26967 8.85059 5.93456L9.83594 5.27147C10.1962 5.02893 10.6364 4.86604 11.1328 4.87401C11.5604 4.88096 11.9397 5.01276 12.2578 5.19627L12.3906 5.27831L13.3496 5.90623L14.3838 5.4326L14.5293 5.37206C14.8771 5.23709 15.2873 5.16282 15.7295 5.24022C16.2446 5.3304 16.6524 5.60008 16.9512 5.92284L17.7559 6.791C17.9693 7.02157 18.1832 7.21296 18.3965 7.36913L19.2705 8.00877C19.9295 8.4912 20.2613 9.19498 20.3037 9.95799L20.3574 10.9404L20.8506 11.1924L21.0898 10.2021C21.2461 9.55614 21.6008 9.0169 22.0898 8.59862L22.9531 7.86034C23.0697 7.76066 23.1177 7.6765 23.1426 7.6035L23.4785 6.61717L23.5293 6.48045C23.8004 5.80857 24.3249 5.32204 25.0156 5.09081L26.0147 4.75682ZM26.043 7.66209L25.7598 8.49413C25.5608 9.07875 25.2088 9.56959 24.75 9.9619L23.8867 10.6992C23.8006 10.7728 23.7853 10.8196 23.7773 10.8525L23.5313 11.8711C23.4334 12.2758 23.3073 12.6687 23.1523 13.0488L22.7676 13.9922C22.7294 14.0857 22.6878 14.1812 22.6445 14.2695C22.6153 14.3292 22.5362 14.4911 22.4082 14.6455C22.3686 14.6932 22.1659 14.9446 21.7988 15.0791C21.5766 15.1604 21.2573 15.2108 20.9053 15.1015C20.5585 14.9939 20.3317 14.7782 20.2021 14.6055C19.9843 14.3147 19.942 14.0191 19.9326 13.957C19.9252 13.9081 19.9207 13.862 19.918 13.8213L18.9609 13.3301C18.1876 12.9333 17.6611 12.2247 17.6094 11.2939L17.5459 10.1719L16.7637 9.60057C16.3947 9.3305 16.0493 9.01857 15.7266 8.66991L15.1992 8.09959L14.3809 8.47362C13.5628 8.84739 12.6903 8.77904 11.9404 8.28807L11.1113 7.7451L10.3945 8.2285C10.2352 8.33577 10.1485 8.44077 10.0957 8.54002L9.58789 9.49608C9.4622 9.73238 9.36654 9.96847 9.29883 10.2051L9.0127 11.2051C8.8512 11.7694 8.55387 12.2648 8.16211 12.6894L7.38574 13.5303L7.46289 14.5947C7.49454 15.0298 7.49513 15.4673 7.46484 15.9062L7.40137 16.8183L8.27832 17.4394C8.86989 17.8585 9.28174 18.4618 9.39258 19.209L9.41016 19.3603L9.51367 20.4853C9.53125 20.677 9.58162 20.8252 9.65234 20.9492L10.1768 21.8701C10.2455 21.9905 10.3372 22.091 10.4668 22.1797L11.3613 22.792C11.7443 23.054 12.0925 23.3546 12.4004 23.6933L13.0967 24.4599C13.41 24.8047 13.6764 25.1878 13.8975 25.6045L14.4072 26.5644C14.4782 26.6982 14.5627 26.7917 14.666 26.8642L15.5283 27.4697C15.7275 27.6096 15.9514 27.7325 16.2031 27.8359L17.2285 28.2568C17.8943 28.5305 18.4016 29.0192 18.7051 29.667L19.1807 30.6826C19.2328 30.7937 19.2861 30.8431 19.3408 30.8769L20.2363 31.4297C20.3867 31.5226 20.5841 31.6498 20.7402 31.79C20.7561 31.8043 20.7741 31.8225 20.7949 31.8428L21.2402 31.5273C21.4896 31.3503 21.7311 31.1638 21.9639 30.9668L22.752 30.2998C23.003 30.0873 23.2519 29.8691 23.498 29.6465L24.2695 28.9482C24.4664 28.7701 24.6452 28.5769 24.8066 28.3681L25.4414 27.5478C25.5839 27.3636 25.7047 27.1613 25.8037 26.9385L26.2334 25.9717C26.5253 25.3146 27.0304 24.8438 27.6387 24.5449L28.7129 24.0176C28.8762 23.9373 28.945 23.86 28.9805 23.8047L29.5488 22.9189C29.5676 22.8896 29.6029 22.8212 29.5986 22.6523L29.5684 21.4433C29.5545 20.8957 29.6271 20.3547 29.8164 19.8428L30.1729 18.8799C30.4101 18.2386 30.8512 17.7483 31.3799 17.3887L32.0772 16.9131L31.8272 16.0586C31.5901 15.249 31.7198 14.3964 32.3242 13.7139L33.0908 12.8486C33.1878 12.7392 33.2114 12.6632 33.2197 12.6084L33.374 11.5771L32.8076 10.7217C32.5793 10.3773 32.3761 10.018 32.1992 9.64354L31.7529 8.6992C31.6737 8.5316 31.5613 8.36786 31.4043 8.20702L30.8701 7.65916L29.9941 7.98143C29.2928 8.23964 28.5358 8.23654 27.8281 7.8828L26.8486 7.39256L26.043 7.66209Z" fill="black"/>
</svg>
