<svg width="40" height="40" viewBox="0 0 40 40" fill="none" xmlns="http://www.w3.org/2000/svg">
<path d="M24.513 0.6758C25.1388 0.650489 25.7471 0.775349 26.3101 1.06252L26.8137 1.32033L27.3288 1.57814C27.645 1.7394 27.9586 1.90229 28.2788 2.04689L28.7939 2.28127L29.3089 2.50392C29.8513 2.74874 30.3267 3.115 30.7168 3.57033L31.0945 4.00392L31.4723 4.44924C31.791 4.82124 32.0729 5.22623 32.3078 5.65627L32.5825 6.16017L32.8115 6.58205L32.8344 6.59377L34.1621 6.89846C34.5757 6.99489 35.0107 7.19176 35.3754 7.55471C35.5639 7.74277 35.7124 7.9536 35.8218 8.1758L36.0507 8.85549L36.1537 9.47658L36.2682 10.086C36.3233 10.3959 36.3921 10.6622 36.4857 10.8828L36.9206 11.8906C37.0971 12.3069 37.2396 12.7401 37.3441 13.1797L37.47 13.707L37.5959 14.2461C37.6757 14.5814 37.7665 14.9131 37.8592 15.2422L38.1568 16.2969C38.2723 16.7077 38.357 17.1266 38.4201 17.5508L38.5002 18.1016L38.5803 18.6406C38.5913 18.7149 38.6051 18.7767 38.6146 18.8281L38.6261 18.8867L38.6375 18.9102L38.7291 19.0625C39.04 19.5765 38.9779 20.1135 38.958 20.2813C38.9281 20.5319 38.8678 20.7859 38.7978 21.0078L38.6261 21.5469L38.4544 22.0977C38.4459 22.1258 38.4346 22.1837 38.4773 22.3203L38.6719 22.9297L38.855 23.5508C38.9849 23.9638 39.0418 24.4284 38.9351 24.9102C38.8274 25.3953 38.5829 25.8004 38.2827 26.1172L37.8478 26.5625L37.4242 27.0196L37.3785 27.0664C37.3777 27.0697 37.3792 27.0887 37.3785 27.1016L37.3556 27.711L37.3212 28.3203C37.2833 29.1572 36.9212 29.8993 36.2682 30.418L35.7989 30.7813L35.3411 31.1446C35.1074 31.3302 34.9157 31.5258 34.7573 31.7188L34.4139 32.1406L34.0591 32.5625C33.9394 32.7089 33.8288 32.9044 33.7271 33.1602L33.2693 34.3086C33.0304 34.9107 32.6565 35.4395 32.159 35.8555L31.7241 36.2305L31.2777 36.5938C30.7174 37.0622 30.0534 37.2998 29.3547 37.3321L28.7252 37.3672L28.1071 37.3906C27.8017 37.4044 27.5542 37.4548 27.3517 37.5196L26.3215 37.8477C26.0487 37.9353 25.7767 38.0448 25.5088 38.1758L25.0166 38.4102L24.5245 38.6563C24.071 38.8781 23.5892 39.03 23.0937 39.1133L22.5443 39.2071L22.0063 39.3008C21.4651 39.3906 20.917 39.3719 20.381 39.2539L19.305 39.0196C19.0854 38.9712 18.8612 38.9534 18.6412 38.9727L17.5423 39.0664C17.0935 39.1055 16.643 39.1069 16.1917 39.0664L15.6308 39.0196L15.0814 38.961C14.6405 38.9213 14.1993 38.8554 13.7651 38.75L13.2042 38.6094L12.6548 38.4805C12.121 38.3503 11.6237 38.1237 11.1668 37.8125L10.6861 37.4961L10.2168 37.168C9.98992 37.0135 9.7426 36.8811 9.47281 36.7696L8.93484 36.5469L8.38543 36.3242C7.62139 36.0075 7.08911 35.4025 6.80586 34.6485L6.57694 34.0508L6.35946 33.4531C6.27404 33.2251 6.17661 33.0782 6.08475 32.9844L5.69559 32.586L5.30642 32.1992C5.11194 32.0011 4.88765 31.7956 4.61965 31.6016L3.63528 30.8985C3.26361 30.6294 2.94639 30.251 2.76538 29.7735C2.58916 29.3075 2.57747 28.837 2.63947 28.4141L2.73104 27.7344L2.83405 27.0547V27.0313L2.52501 26.6446L2.14729 26.1875C1.7777 25.7307 1.50417 25.2132 1.34606 24.6406L1.04846 23.5391C0.9479 23.1742 0.84412 22.8032 0.739414 22.4258L0.579168 21.8633L0.418922 21.2891C0.210698 20.5354 0.298084 19.7812 0.624952 19.0977L0.888213 18.5352L1.16292 17.9727C1.3038 17.6781 1.40575 17.4039 1.47197 17.1524L1.60932 16.625L1.75812 16.086C1.80661 15.9017 1.8197 15.6892 1.8039 15.4414L1.73523 14.2461C1.6797 13.3818 1.98743 12.5945 2.60513 12.0195L3.49793 11.1992C3.51521 11.1825 3.51804 11.1689 3.52082 11.1641C3.5218 11.1621 3.53891 11.145 3.54371 11.1055L3.61239 10.4961L3.69251 9.88674C3.77037 9.25061 3.98864 8.65705 4.35639 8.12892L4.67688 7.64846L5.00882 7.17971C5.2422 6.8448 5.48752 6.5099 5.74137 6.18361L6.45103 5.26955L6.93177 4.78908C7.44218 4.39896 8.05582 4.24692 8.66013 4.25002H10.0451L10.3313 3.89846L10.6975 3.45314C11.07 2.99695 11.5215 2.63123 12.0482 2.37502L12.5518 2.12892L13.044 1.89455C13.5226 1.66238 14.0282 1.51851 14.5549 1.46096L15.6537 1.34377C15.9791 1.30863 16.3035 1.25265 16.6152 1.19142L17.6682 0.980487C18.1899 0.87802 18.7231 0.871478 19.2478 0.95705L19.7858 1.0508L20.3237 1.13283C20.5003 1.16113 20.6842 1.16308 20.8846 1.12111L21.9834 0.886737C22.4309 0.793025 22.8948 0.741751 23.357 0.722675L24.513 0.6758ZM24.0552 3.69924L23.4714 3.72267C23.1639 3.7354 22.8666 3.76797 22.5786 3.82814L22.0292 3.94533L21.4683 4.06252C20.9352 4.17371 20.3915 4.18527 19.8544 4.09767L19.3165 4.01564L18.7785 3.92189C18.5906 3.89187 18.4102 3.89861 18.2291 3.93361L17.6911 4.03908L17.1646 4.14455C16.7703 4.22198 16.3681 4.27655 15.9628 4.32033L14.8639 4.43752C14.665 4.45939 14.4807 4.51611 14.3031 4.60158L13.7994 4.84767L13.3073 5.08205C13.1758 5.1458 13.053 5.23761 12.941 5.37502L12.5747 5.82033L12.2199 6.26564C11.6364 6.9813 10.8161 7.25409 10.0222 7.25002H8.66013L8.38543 7.60158L8.0306 8.05861C7.80822 8.34449 7.5926 8.63442 7.38961 8.9258L7.06912 9.39455L6.73718 9.8633C6.66856 9.9618 6.62108 10.087 6.59983 10.2617L6.51971 10.8711L6.45103 11.4805C6.35847 12.2393 6.02081 12.9099 5.46666 13.4258L5.02026 13.836L4.65399 14.1641L4.68833 14.6445L4.73411 15.2422C4.76945 15.7922 4.72444 16.3426 4.58531 16.8711L4.43651 17.3985L4.29916 17.9375C4.17828 18.396 4.00949 18.85 3.79553 19.2969L3.52082 19.8594L3.25756 20.4219C3.24891 20.4404 3.23674 20.4501 3.23467 20.4571L3.24612 20.4688L3.39491 21.043L3.55516 21.6055C3.66033 21.9846 3.76315 22.3638 3.86421 22.7305L4.01301 23.2696L4.16181 23.8203C4.20483 23.9765 4.28215 24.1293 4.40217 24.2774L4.76845 24.7344L5.14617 25.1914C5.69941 25.8764 5.84746 26.7015 5.72992 27.5L5.63836 28.1797L5.56968 28.625L5.81005 28.8008L6.30223 29.1524C6.69047 29.4334 7.05638 29.7386 7.37817 30.0664L7.76733 30.4649L8.14506 30.8633C8.56892 31.2952 8.88259 31.8082 9.09509 32.375L9.31256 32.9727L9.53004 33.5469L10.0337 33.7578L10.5716 33.9805C11.0209 34.1662 11.4437 34.4003 11.8422 34.6719L12.3114 35L12.7922 35.3164C12.9587 35.4295 13.1343 35.5143 13.3302 35.5625L13.891 35.6914L14.4404 35.8321C14.7382 35.9044 15.0364 35.9459 15.3332 35.9727L15.8941 36.0313L16.4435 36.0781C16.7309 36.104 17.0216 36.1027 17.302 36.0781L17.8514 36.0313L18.3893 35.9844C18.9008 35.9395 19.4208 35.9676 19.9231 36.0781L20.4611 36.1953L20.9991 36.3242C21.1833 36.3648 21.3606 36.3653 21.537 36.336L22.075 36.2422L22.613 36.1602C22.8344 36.1232 23.0492 36.0492 23.2539 35.9492L23.7461 35.7031L24.2498 35.4688C24.6407 35.2776 25.0428 35.1077 25.4516 34.9766L25.9552 34.8125L26.4703 34.6485C26.9504 34.4945 27.4597 34.414 27.9812 34.3906L28.5993 34.3672L29.2174 34.3321C29.3451 34.3263 29.3944 34.2977 29.4234 34.2735L29.8698 33.9102L30.3048 33.5352C30.3977 33.4575 30.479 33.35 30.5451 33.1836L31.003 32.0352C31.2058 31.524 31.4746 31.0447 31.8156 30.6289L32.1705 30.2071L32.5139 29.7852C32.8164 29.4169 33.1615 29.0812 33.544 28.7774L34.0019 28.4141L34.391 28.0977L34.4254 27.5703L34.4483 26.961C34.4849 26.179 34.7955 25.4859 35.3182 24.9336L35.7531 24.4766L35.9935 24.2188L35.879 23.8555L35.6844 23.2461C35.474 22.5787 35.442 21.8695 35.6615 21.1719L35.8332 20.6211L35.982 20.1406C35.8949 19.9498 35.8251 19.7782 35.7989 19.6719C35.7551 19.4932 35.7148 19.2907 35.6844 19.086L35.5242 18.0078C35.4801 17.7108 35.4213 17.4144 35.3411 17.1289L35.0435 16.0742C34.9396 15.7055 34.8351 15.3358 34.7459 14.961L34.494 13.8828C34.4294 13.6124 34.3405 13.3448 34.2308 13.086L34.0133 12.582L33.8073 12.0781C33.6141 11.6226 33.4741 11.1324 33.3838 10.625L33.2693 10.0039L33.2235 9.75783L32.8572 9.6758L32.1934 9.51174C31.4352 9.33591 30.7313 8.90781 30.3048 8.12892L30.0301 7.62502L29.7439 7.12111C29.6112 6.87818 29.4581 6.64442 29.2746 6.42971L28.5192 5.53908C28.4056 5.40667 28.2743 5.32296 28.13 5.25783L27.0998 4.78908C26.7359 4.62474 26.3708 4.44456 26.0125 4.26174L25.0052 3.74611C24.8919 3.68832 24.7713 3.65814 24.6275 3.66408L24.0552 3.69924Z" fill="black"/>
<path d="M22.4766 30.2695C22.6036 31.0868 22.0508 31.8513 21.2344 31.9805C20.6512 32.0712 20.1111 31.7998 19.793 31.3477L19.5821 31.1953L19.5235 31.1484L19.2305 30.8555C18.4933 30.118 18.6177 29.1322 18.7266 28.6406L18.8555 28.043L18.9844 27.457C19.0555 27.1361 19.0965 26.8188 19.1133 26.5195L19.1836 25.3711C19.1967 25.1368 19.179 24.915 19.125 24.7031L18.9844 24.1523L18.5625 22.5352L18.4102 21.9961L18.2578 21.4453C18.1324 20.9829 18.0579 20.5156 18.0469 20.0508L18.0235 19.0664C18.006 18.3309 18.3313 17.5469 18.668 16.8867L19.0899 16.0664C19.2774 15.4559 19.8238 15.0033 20.4961 15C21.3215 14.9978 21.9897 15.663 21.9961 16.4883V16.5938L22.0078 16.957L21.8321 17.2852L21.3399 18.2461C21.1994 18.5212 21.1194 18.7316 21.0703 18.8789C21.0302 19.0007 21.0244 19.0454 21.0235 19.0273L21.0469 19.9805C21.0515 20.1727 21.0815 20.3987 21.1524 20.6602L21.3047 21.2109L21.4571 21.75C21.5577 22.1201 21.6552 22.4922 21.75 22.8633L22.0313 23.9648C22.1619 24.4784 22.213 25.0045 22.1836 25.5352L22.1485 26.1094L22.1133 26.6953C22.0869 27.1634 22.0181 27.6321 21.9141 28.1016L21.7852 28.6992L21.7032 29.0391L21.9375 29.2383L22.3828 29.6016L22.4649 30.1758L22.4766 30.2695Z" fill="black"/>
<path fill-rule="evenodd" clip-rule="evenodd" d="M19.3335 8.49977C19.8703 8.49142 20.3879 8.69012 20.7758 8.9734L20.8598 9.03394L20.934 9.10621L21.5971 9.74781L21.6235 9.7732L21.6489 9.79957C21.8324 9.99512 22.3141 10.5879 22.102 11.4148C21.9087 12.167 21.2876 12.4644 21.145 12.531C20.9306 12.6311 20.7143 12.6851 20.6323 12.7058C20.5531 12.7258 20.5232 12.7332 20.518 12.7341L19.8422 12.9802C19.512 13.1004 18.6349 13.2926 17.9633 12.5574C17.4675 12.0143 17.4928 11.3425 17.5043 11.1306L17.5581 10.156C17.5858 9.64981 17.8275 9.16345 18.267 8.84449C18.6517 8.56575 19.0618 8.50408 19.3335 8.49977Z" fill="black"/>
</svg>
