<svg width="261" height="40" viewBox="0 0 261 40" fill="none" xmlns="http://www.w3.org/2000/svg">
<path d="M247.073 30.8227H239.634V28.9535L240.494 28.7666C241.316 28.5797 241.877 28.3554 241.877 27.047V15.1591C241.877 14.0002 241.541 13.7759 240.643 13.5143L239.709 13.2526V11.3834H245.466L254.924 25.6638V15.1591C254.924 13.8881 254.326 13.6264 253.354 13.4021L252.718 13.2526V11.3834H260.12V13.2526L259.485 13.4021C258.513 13.6264 257.914 13.8881 257.914 15.1591V30.8227H254.961L244.868 15.4582V27.047C244.868 28.3554 245.391 28.5797 246.214 28.7666L247.073 28.9535V30.8227Z" fill="black"/>
<path d="M198.314 30.8227H190.837V28.9535L191.697 28.7666C192.52 28.5797 193.043 28.3554 193.043 27.047V15.1591C193.043 13.8881 192.445 13.6264 191.473 13.4021L190.837 13.2526V11.3834H198.314V13.2526L197.679 13.4021C196.707 13.6264 196.108 13.8881 196.108 15.1591V27.047C196.108 28.3554 196.632 28.5797 197.454 28.7666L198.314 28.9535V30.8227Z" fill="black"/>
<path d="M183.45 30.8227H175.973V28.9535L176.833 28.7666C177.656 28.5797 178.179 28.3554 178.179 27.047V15.4208C178.179 14.9722 178.142 14.4488 178.104 14.0002H175.413C173.917 14.0002 173.656 14.4115 173.431 15.1965L173.207 15.9816H171.413V11.3834H188.048V15.9816H186.254L185.992 15.1965C185.731 14.4115 185.618 14.0002 184.048 14.0002H181.319C181.282 14.4488 181.245 14.9722 181.245 15.4208V27.047C181.245 28.3554 181.768 28.5797 182.59 28.7666L183.45 28.9535V30.8227Z" fill="black"/>
<path d="M161.573 31.2339C156.675 31.2339 152.825 29.2899 152.825 22.9348V19.7572C152.825 12.6544 157.348 10.9722 161.573 10.9722C165.311 10.9722 168.002 12.2806 169.348 12.9909C169.311 15.5703 169.236 17.1404 169.124 18.075H166.432L166.32 14.9722C165.199 14.2245 163.479 13.7759 161.573 13.7759C159.068 13.7759 155.89 14.7105 155.89 19.4955V22.86C155.89 28.0563 159.629 28.4301 161.573 28.4301C164.301 28.4301 165.498 27.7572 166.694 26.561H169.124V29.2526C167.404 30.075 164.937 31.2339 161.573 31.2339Z" fill="black"/>
<path d="M148.914 30.8227H133.326V28.9535L134.186 28.7666C135.008 28.5797 135.531 28.3554 135.531 27.047V15.1591C135.531 13.8881 135.307 13.5516 134.372 13.4021L133.363 13.2526V11.3834H148.69V15.9068H146.522L146.26 15.1217C145.999 14.3367 145.812 13.9255 144.503 13.9255H139.905C138.821 13.9255 138.597 14.1498 138.597 15.5703V19.8694L145.737 19.9816V22.1498L138.597 22.2619V26.6358C138.597 28.0563 138.821 28.2806 139.905 28.2806H144.728C146.148 28.2806 146.26 27.8694 146.485 27.1217L146.746 26.2993H148.914V30.8227Z" fill="black"/>
<path d="M130.897 30.8227H116.131V28.5797L116.953 28.3928C117.776 28.2059 118.299 27.9816 118.299 26.6731V15.1591C118.299 13.8881 117.701 13.6264 116.766 13.4021L116.131 13.2526V11.3834H123.57V13.29L122.748 13.4395C121.925 13.589 121.365 13.8881 121.365 15.1591V26.8601C121.365 28.2806 122.187 28.2806 123.271 28.2806H126.561C128.355 28.2806 128.505 27.8694 128.729 27.1217L128.953 26.2993H130.897V30.8227Z" fill="black"/>
<path d="M112.407 30.8227H96.8187V28.9535L97.6785 28.7666C98.5009 28.5797 99.0243 28.3554 99.0243 27.047V15.1591C99.0243 13.8881 98.8 13.5516 97.8654 13.4021L96.8561 13.2526V11.3834H112.183V15.9068H110.015L109.753 15.1217C109.492 14.3367 109.305 13.9255 107.996 13.9255H103.398C102.314 13.9255 102.09 14.1498 102.09 15.5703V19.8694L109.23 19.9816V22.1498L102.09 22.2619V26.6358C102.09 28.0563 102.314 28.2806 103.398 28.2806H108.221C109.641 28.2806 109.753 27.8694 109.978 27.1217L110.239 26.2993H112.407V30.8227Z" fill="black"/>
<path d="M67.2844 30.5517V27.0494L68.4419 26.7889C68.705 26.7609 68.7617 26.6727 68.7617 26.3882V15.1841C68.7617 14.9557 68.705 14.8675 68.4419 14.7834L67.2844 14.4989V11.0166H76.1034V14.5229L74.9419 14.8114C74.6828 14.8956 74.6221 14.9837 74.6221 15.2122V26.4042C74.6221 26.6607 74.6828 26.7208 74.9135 26.805L76.1034 27.1215V30.5677L67.2844 30.5517Z" fill="black"/>
<path d="M51.2283 30.5518L46.3109 15.1402C46.2937 15.0735 46.2568 15.0135 46.2049 14.9677C46.1529 14.922 46.0884 14.8928 46.0195 14.8837L44.4856 14.6272V11.0729H54.4095V14.6272L53.252 14.9719C53.14 14.9864 53.0373 15.0408 52.9628 15.1249C52.8883 15.2089 52.8473 15.3169 52.8473 15.4287C52.867 15.7496 52.9255 16.0671 53.0213 16.3744L55.134 24.6252H55.2756L57.3802 16.3864C57.4729 16.0784 57.5312 15.7613 57.5543 15.4407C57.5475 15.3264 57.5005 15.2181 57.4213 15.1346C57.3422 15.0511 57.236 14.9978 57.1212 14.9839L55.992 14.6393V11.0849H65.6569V14.6112L64.0663 14.9238C63.9945 14.9381 63.9285 14.9732 63.8766 15.0245C63.8248 15.0758 63.7894 15.1411 63.7749 15.2123L59.0032 30.5639L51.2283 30.5518Z" fill="black"/>
<path d="M78.0746 29.1451C78.0938 27.368 78.2208 25.5936 78.4551 23.8316H83.2025L83.668 26.0716C84.2761 26.2738 84.9125 26.3807 85.554 26.3882C86.6549 26.3882 87.3793 25.8993 87.3793 25.1219C87.3793 24.1481 86.1328 23.7755 84.6515 23.3427C81.6929 22.4531 78.1556 21.303 78.1556 16.7629C78.1556 12.2227 81.1708 10.7321 85.728 10.7321C88.6299 10.7321 90.516 11.4774 92.5437 12.4271C92.5728 14.1077 92.4672 15.788 92.228 17.4521H87.4765L87.2458 15.4726C86.7859 15.281 86.2917 15.1829 85.7928 15.184C84.7203 15.184 84.0241 15.4405 84.0241 16.274C84.0241 17.2518 85.3597 17.8288 86.8087 18.3137C89.6418 19.2313 93.2519 20.4976 93.2519 24.6651C93.2519 28.8326 90.5807 30.8682 85.5338 30.8682C82.9486 30.8523 80.3999 30.2635 78.0746 29.1451V29.1451Z" fill="black"/>
<path d="M12.3103 11.0727V14.6191L13.7309 15.0198C14.3218 15.1761 14.3137 15.4766 14.0061 16.3862L11.2539 24.6451H11.0556L8.93078 16.3862C8.69199 15.5047 8.69604 15.136 9.20599 15.0198L10.7156 14.6191V11.0727H0.706696V14.6191L2.32561 14.9316C2.48345 14.9717 2.51988 15.0478 2.56035 15.2041L7.41709 30.5517H14.3987L16.827 22.397L19.2554 30.5397H26.2572L31.1139 15.1921C31.1325 15.125 31.1684 15.0639 31.2181 15.0147C31.2678 14.9655 31.3295 14.93 31.3973 14.9116L32.9636 14.607V11.0607H22.9627V14.607L24.4724 15.0078C24.9864 15.124 24.9864 15.4926 24.7476 16.3742L22.6227 24.6331H22.4285L19.6601 16.3862C19.3566 15.4766 19.3444 15.1841 19.9353 15.0198L21.3559 14.6191V11.0727H12.3103Z" fill="black"/>
<path d="M37.5411 21.7521H40.1597V21.0148C40.1597 20.2133 39.6983 19.7886 38.8645 19.7886C38.0308 19.7886 37.5411 20.2173 37.5411 21.0148V21.7521ZM31.9599 25.1141V21.3554C31.9599 17.9092 34.6635 15.6291 38.7512 15.6291C42.839 15.6291 45.5385 17.9092 45.5385 21.3554V24.5611H37.5411V25.3305C37.5411 26.156 38.5205 26.697 39.5647 26.697C40.6089 26.697 41.6369 26.2401 41.8069 25.5309H45.5183V28.3359C44.0248 30.075 41.7503 30.8444 39.3907 30.8444C34.9549 30.8404 31.9599 28.5603 31.9599 25.1141V25.1141Z" fill="black"/>
<path d="M71.8214 9.27786C73.5425 9.27786 74.9378 7.89642 74.9378 6.19232C74.9378 4.48822 73.5425 3.10678 71.8214 3.10678C70.1002 3.10678 68.705 4.48822 68.705 6.19232C68.705 7.89642 70.1002 9.27786 71.8214 9.27786Z" fill="black"/>
<g clip-path="url(#clip0_2215_9472)">
<path d="M203.24 10.8657L219.692 1.37251L236.201 10.9102L220.48 20.8261L203.24 10.8657Z" fill="#CEC2F5"/>
<path d="M236.481 10.9047C236.483 11.0029 236.433 11.0951 236.35 11.1475L220.629 21.0634C220.541 21.1189 220.43 21.1211 220.34 21.0691L203.099 11.1086C203.013 11.0585 202.959 10.9658 202.959 10.8656C202.959 10.7654 203.013 10.6728 203.1 10.6227L219.552 1.12948C219.639 1.07948 219.745 1.07959 219.832 1.12966L236.341 10.6673L236.371 10.6876C236.438 10.7391 236.479 10.8188 236.481 10.9047ZM219.692 1.69636L203.8 10.866L220.473 20.4986L235.658 10.9207L219.692 1.69636Z" fill="black"/>
<path d="M203.24 10.8657L203.25 29.8701L219.759 39.4078L220.48 20.826L203.24 10.8657Z" fill="#1AD39E"/>
<path d="M220.039 39.4187C220.035 39.5169 219.98 39.6059 219.894 39.6533C219.808 39.7007 219.703 39.6998 219.618 39.6507L203.11 30.113C203.023 30.0629 202.97 29.9703 202.97 29.8702L202.959 10.8658C202.959 10.7656 203.013 10.6729 203.099 10.6228C203.186 10.5727 203.293 10.5727 203.38 10.6228L220.62 20.5832C220.71 20.6353 220.764 20.733 220.76 20.837L220.039 39.4187ZM220.193 20.9842L203.52 11.3517L203.53 29.7083L219.497 38.9327L220.193 20.9842Z" fill="black"/>
<path d="M214.857 9.04236C214.929 8.90533 215.098 8.85272 215.235 8.9248L223.271 13.152C223.408 13.224 223.461 13.3935 223.389 13.5305C223.317 13.6676 223.147 13.7203 223.01 13.6483L214.974 9.42093C214.837 9.34884 214.784 9.17939 214.857 9.04236Z" fill="black"/>
<path d="M215.977 9.64844V1.19402L222.242 4.25874V12.9245L215.977 9.64844Z" fill="white"/>
<path d="M215.829 0.956178C215.911 0.904976 216.013 0.899623 216.1 0.942123L222.365 4.00689C222.461 4.05394 222.522 4.15171 222.522 4.25878V12.9245C222.522 13.0225 222.471 13.1135 222.387 13.1643C222.303 13.2151 222.199 13.2185 222.112 13.1731L215.847 9.89693C215.755 9.84857 215.697 9.75283 215.697 9.6485V1.19402C215.697 1.09728 215.747 1.00739 215.829 0.956178ZM216.257 9.47856L221.961 12.4614V4.43365L216.257 1.64324V9.47856Z" fill="black"/>
<mask id="mask0_2215_9472" style="mask-type:luminance" maskUnits="userSpaceOnUse" x="207" y="15" width="10" height="20">
<path d="M207.255 29.1413L207.281 15.7464L216.004 20.7926L215.978 34.1876L207.255 29.1413Z" fill="white"/>
</mask>
<g mask="url(#mask0_2215_9472)">
<path d="M211.669 28.6658C210.955 28.2431 210.532 27.6354 210.532 26.4201V25.8124C210.85 25.8124 211.273 25.9181 211.722 26.1823C212.039 26.3672 212.674 26.8428 212.674 27.8203V28.0317C212.674 28.8771 212.277 29.0092 211.669 28.6658ZM211.881 18.3884C209.105 16.7767 207.281 17.7014 207.281 21.1889V24.3065C207.281 27.4769 209.052 30.1717 211.669 31.6777C214.128 33.1043 215.978 32.6024 215.978 29.9868V29.5112C215.978 26.8428 214.55 24.8084 212.171 23.4346C211.643 23.144 210.903 22.9326 210.559 22.959V22.4571C210.559 21.2417 211.114 21.004 211.881 21.4531C212.462 21.7966 212.806 22.1929 213.097 22.6948L215.211 23.9102C215.291 23.2232 215.396 22.1664 215.396 21.1889C214.445 20.1321 213.044 19.0753 211.881 18.3884Z" fill="black"/>
</g>
<mask id="mask1_2215_9472" style="mask-type:luminance" maskUnits="userSpaceOnUse" x="223" y="15" width="9" height="20">
<path d="M223.062 34.1611L223.009 20.819L231.918 15.6935L231.97 29.0357L223.062 34.1611Z" fill="white"/>
</mask>
<g mask="url(#mask1_2215_9472)">
<path d="M227.397 23.8045C226.736 24.1744 226.34 23.963 226.34 23.3289V23.0647C226.34 22.325 226.736 21.6645 227.477 21.2417C228.111 20.8719 228.613 21.0304 228.64 22.2985V22.8005C228.349 23.1176 227.952 23.461 227.397 23.7781M227.477 18.2563C224.886 19.7622 223.036 22.3778 223.036 25.0991V25.3633C223.036 27.7939 224.595 28.428 227.001 27.0277C227.662 26.6578 228.349 26.0238 228.64 25.7067V26.0502C228.64 27.2919 228.19 28.1374 227.239 28.6922C226.419 29.1678 225.97 29.2999 225.547 29.1149L223.617 30.2246C223.617 30.2246 223.459 31.7833 223.459 33.1836C224.199 33.1836 225.653 32.6552 227.265 31.7305C230.094 30.0925 231.997 27.1598 231.997 23.4346V20.5548C231.997 17.2523 230.12 16.7239 227.53 18.2298" fill="black"/>
</g>
</g>
<defs>
<clipPath id="clip0_2215_9472">
<rect width="34.2056" height="40" fill="white" transform="translate(202.576)"/>
</clipPath>
</defs>
</svg>
